<?xml version="1.0" encoding="utf-8"?>
<svg version="1.1" xmlns:xlink="http://www.w3.org/1999/xlink" width="43px" height="43px" xmlns="http://www.w3.org/2000/svg">
  <defs>
    <pattern id="BGPattern" patternUnits="userSpaceOnUse" alignment="0 0" imageRepeat="None" />
    <mask fill="white" id="Clip117">
      <path d="M 33 16.5  C 33 7.383749999999967  25.61625000000001 0  16.5 0  C 7.3837499999999885 0  0 7.383749999999967  0 16.5  C 0 25.616250000000033  7.3837499999999885 33  16.5 33  C 25.61625000000001 33  33 25.616250000000033  33 16.5  Z M 11.549999999999978 9.900000000000023  C 11.549999999999978 7.169249999999998  13.769249999999994 4.949999999999953  16.5 4.949999999999953  C 19.230750000000004 4.949999999999953  21.450000000000024 7.169249999999998  21.450000000000024 9.900000000000023  C 21.450000000000024 9.966324240914648  21.448698732028955 10.032338886475621  21.446120443480385 10.0980200407008  C 21.34222284572971 12.744781259607773  19.164625530895297 14.849999999999977  16.5 14.849999999999977  C 13.769249999999994 14.849999999999977  11.549999999999978 12.638999999999971  11.549999999999978 9.900000000000023  Z M 26.39999999999999 23.066999999999936  C 24.26324999999998 26.26799999999998  20.633250000000025 28.37999999999998  16.5 28.37999999999998  C 12.366750000000003 28.37999999999998  8.736750000000022 26.26799999999998  6.600000000000011 23.066999999999936  C 6.641250000000001 19.791750000000008  13.208249999999992 17.985000000000056  16.5 17.985000000000056  C 19.791750000000008 17.985000000000056  26.3505 19.791750000000008  26.39999999999999 23.066999999999936  Z " fill-rule="evenodd" />
    </mask>
  </defs>
  <g transform="matrix(1 0 0 1 -79 -719 )">
    <path d="M 33 16.5  C 33 7.383749999999967  25.61625000000001 0  16.5 0  C 7.3837499999999885 0  0 7.383749999999967  0 16.5  C 0 25.616250000000033  7.3837499999999885 33  16.5 33  C 25.61625000000001 33  33 25.616250000000033  33 16.5  Z M 11.549999999999978 9.900000000000023  C 11.549999999999978 7.169249999999998  13.769249999999994 4.949999999999953  16.5 4.949999999999953  C 19.230750000000004 4.949999999999953  21.450000000000024 7.169249999999998  21.450000000000024 9.900000000000023  C 21.450000000000024 9.966324240914648  21.448698732028955 10.032338886475621  21.446120443480385 10.0980200407008  C 21.34222284572971 12.744781259607773  19.164625530895297 14.849999999999977  16.5 14.849999999999977  C 13.769249999999994 14.849999999999977  11.549999999999978 12.638999999999971  11.549999999999978 9.900000000000023  Z M 26.39999999999999 23.066999999999936  C 24.26324999999998 26.26799999999998  20.633250000000025 28.37999999999998  16.5 28.37999999999998  C 12.366750000000003 28.37999999999998  8.736750000000022 26.26799999999998  6.600000000000011 23.066999999999936  C 6.641250000000001 19.791750000000008  13.208249999999992 17.985000000000056  16.5 17.985000000000056  C 19.791750000000008 17.985000000000056  26.3505 19.791750000000008  26.39999999999999 23.066999999999936  Z " fill-rule="nonzero" fill="rgba(0, 0, 0, 1)" stroke="none" transform="matrix(1 0 0 1 79 719 )" class="fill" />
    <path d="M 33 16.5  C 33 7.383749999999967  25.61625000000001 0  16.5 0  C 7.3837499999999885 0  0 7.383749999999967  0 16.5  C 0 25.616250000000033  7.3837499999999885 33  16.5 33  C 25.61625000000001 33  33 25.616250000000033  33 16.5  Z " stroke-width="0" stroke-dasharray="0" stroke="rgba(255, 255, 255, 0)" fill="none" transform="matrix(1 0 0 1 79 719 )" class="stroke" mask="url(#Clip117)" />
    <path d="M 11.549999999999978 9.900000000000023  C 11.549999999999978 7.169249999999998  13.769249999999994 4.949999999999953  16.5 4.949999999999953  C 19.230750000000004 4.949999999999953  21.450000000000024 7.169249999999998  21.450000000000024 9.900000000000023  C 21.450000000000024 9.966324240914648  21.448698732028955 10.032338886475621  21.446120443480385 10.0980200407008  C 21.34222284572971 12.744781259607773  19.164625530895297 14.849999999999977  16.5 14.849999999999977  C 13.769249999999994 14.849999999999977  11.549999999999978 12.638999999999971  11.549999999999978 9.900000000000023  Z " stroke-width="0" stroke-dasharray="0" stroke="rgba(255, 255, 255, 0)" fill="none" transform="matrix(1 0 0 1 79 719 )" class="stroke" mask="url(#Clip117)" />
    <path d="M 26.39999999999999 23.066999999999936  C 24.26324999999998 26.26799999999998  20.633250000000025 28.37999999999998  16.5 28.37999999999998  C 12.366750000000003 28.37999999999998  8.736750000000022 26.26799999999998  6.600000000000011 23.066999999999936  C 6.641250000000001 19.791750000000008  13.208249999999992 17.985000000000056  16.5 17.985000000000056  C 19.791750000000008 17.985000000000056  26.3505 19.791750000000008  26.39999999999999 23.066999999999936  Z " stroke-width="0" stroke-dasharray="0" stroke="rgba(255, 255, 255, 0)" fill="none" transform="matrix(1 0 0 1 79 719 )" class="stroke" mask="url(#Clip117)" />
  </g>
  <style>svg { filter: drop-shadow(5px 5px 2.5px rgba(0, 0, 0, 0.34901960784313724)); }</style>
</svg>