<?xml version="1.0" encoding="utf-8"?>
<svg version="1.1" xmlns:xlink="http://www.w3.org/1999/xlink" width="11px" height="14px" xmlns="http://www.w3.org/2000/svg">
  <defs>
    <pattern id="BGPattern" patternUnits="userSpaceOnUse" alignment="0 0" imageRepeat="None" />
    <mask fill="white" id="Clip537">
      <path d="M 7.791666666666667 2  L 11 2  L 11 3  L 10 3  L 10 13  C 10.083333333333332 13.5522852  9.67292718333336 14  9.166666666666668 14  L 1.8333333333333333 14  C 1.3270721200000444 14  0.9166666666666666 13.552284200000003  1 13  L 1 3  L 0 3  L 0 2  L 3.2083333333333335 2  L 3.2083333333333335 0.8000007300000007  C 3.2083333333333335 0.3581730400000005  3.536657831666664 0  3.9416668408333257 0  L 7.058333159166675 0  C 7.463341966666614 0  7.791666666666667 0.3581721499999997  7.791666666666667 0.8000001300000008  L 7.791666666666667 2  Z M 2 3  L 2 13  L 9 13  L 9 3  L 2 3  Z M 6.875 1  L 4.125 1  L 4.125 2  L 6.875 2  L 6.875 1  Z M 3.6666666666666665 11  L 3.6666666666666665 5  L 4.583333333333334 5  L 4.583333333333334 11  L 3.6666666666666665 11  Z M 7.333333333333333 11  L 6.416666666666667 11  L 6.416666666666667 5  L 7.333333333333333 5  L 7.333333333333333 11  Z " fill-rule="evenodd" />
    </mask>
  </defs>
  <g transform="matrix(1 0 0 1 -891 -658 )">
    <path d="M 7.791666666666667 2  L 11 2  L 11 3  L 10 3  L 10 13  C 10.083333333333332 13.5522852  9.67292718333336 14  9.166666666666668 14  L 1.8333333333333333 14  C 1.3270721200000444 14  0.9166666666666666 13.552284200000003  1 13  L 1 3  L 0 3  L 0 2  L 3.2083333333333335 2  L 3.2083333333333335 0.8000007300000007  C 3.2083333333333335 0.3581730400000005  3.536657831666664 0  3.9416668408333257 0  L 7.058333159166675 0  C 7.463341966666614 0  7.791666666666667 0.3581721499999997  7.791666666666667 0.8000001300000008  L 7.791666666666667 2  Z M 2 3  L 2 13  L 9 13  L 9 3  L 2 3  Z M 6.875 1  L 4.125 1  L 4.125 2  L 6.875 2  L 6.875 1  Z M 3.6666666666666665 11  L 3.6666666666666665 5  L 4.583333333333334 5  L 4.583333333333334 11  L 3.6666666666666665 11  Z M 7.333333333333333 11  L 6.416666666666667 11  L 6.416666666666667 5  L 7.333333333333333 5  L 7.333333333333333 11  Z " fill-rule="nonzero" fill="rgba(255, 255, 255, 0.8980392156862745)" stroke="none" transform="matrix(1 0 0 1 891 658 )" class="fill" />
    <path d="M 7.791666666666667 2  L 11 2  L 11 3  L 10 3  L 10 13  C 10.083333333333332 13.5522852  9.67292718333336 14  9.166666666666668 14  L 1.8333333333333333 14  C 1.3270721200000444 14  0.9166666666666666 13.552284200000003  1 13  L 1 3  L 0 3  L 0 2  L 3.2083333333333335 2  L 3.2083333333333335 0.8000007300000007  C 3.2083333333333335 0.3581730400000005  3.536657831666664 0  3.9416668408333257 0  L 7.058333159166675 0  C 7.463341966666614 0  7.791666666666667 0.3581721499999997  7.791666666666667 0.8000001300000008  L 7.791666666666667 2  Z " stroke-width="0" stroke-dasharray="0" stroke="rgba(255, 255, 255, 0)" fill="none" transform="matrix(1 0 0 1 891 658 )" class="stroke" mask="url(#Clip537)" />
    <path d="M 2 3  L 2 13  L 9 13  L 9 3  L 2 3  Z " stroke-width="0" stroke-dasharray="0" stroke="rgba(255, 255, 255, 0)" fill="none" transform="matrix(1 0 0 1 891 658 )" class="stroke" mask="url(#Clip537)" />
    <path d="M 6.875 1  L 4.125 1  L 4.125 2  L 6.875 2  L 6.875 1  Z " stroke-width="0" stroke-dasharray="0" stroke="rgba(255, 255, 255, 0)" fill="none" transform="matrix(1 0 0 1 891 658 )" class="stroke" mask="url(#Clip537)" />
    <path d="M 3.6666666666666665 11  L 3.6666666666666665 5  L 4.583333333333334 5  L 4.583333333333334 11  L 3.6666666666666665 11  Z " stroke-width="0" stroke-dasharray="0" stroke="rgba(255, 255, 255, 0)" fill="none" transform="matrix(1 0 0 1 891 658 )" class="stroke" mask="url(#Clip537)" />
    <path d="M 7.333333333333333 11  L 6.416666666666667 11  L 6.416666666666667 5  L 7.333333333333333 5  L 7.333333333333333 11  Z " stroke-width="0" stroke-dasharray="0" stroke="rgba(255, 255, 255, 0)" fill="none" transform="matrix(1 0 0 1 891 658 )" class="stroke" mask="url(#Clip537)" />
  </g>
</svg>