<?xml version="1.0" encoding="utf-8"?>
<svg version="1.1" xmlns:xlink="http://www.w3.org/1999/xlink" width="14px" height="14px" xmlns="http://www.w3.org/2000/svg">
  <defs>
    <pattern id="BGPattern" patternUnits="userSpaceOnUse" alignment="0 0" imageRepeat="None" />
    <mask fill="white" id="Clip812">
      <path d="M 6.375 0.125  L 7.624999999999999 0.125  L 7.624000000000024 6.375  L 13.875 6.375  L 13.875 7.624999999999999  L 7.624000000000024 7.624999999999999  L 7.624999999999999 13.875  L 6.375 13.875  L 6.374000000000024 7.624999999999999  L 0.125 7.624999999999999  L 0.125 6.375  L 6.374000000000024 6.375  L 6.375 0.125  Z " fill-rule="evenodd" />
    </mask>
  </defs>
  <g transform="matrix(1 0 0 1 -155 -236 )">
    <path d="M 6.375 0.125  L 7.624999999999999 0.125  L 7.624000000000024 6.375  L 13.875 6.375  L 13.875 7.624999999999999  L 7.624000000000024 7.624999999999999  L 7.624999999999999 13.875  L 6.375 13.875  L 6.374000000000024 7.624999999999999  L 0.125 7.624999999999999  L 0.125 6.375  L 6.374000000000024 6.375  L 6.375 0.125  Z " fill-rule="nonzero" fill="rgba(0, 0, 0, 0.2980392156862745)" stroke="none" transform="matrix(1 0 0 1 155 236 )" class="fill" />
    <path d="M 6.375 0.125  L 7.624999999999999 0.125  L 7.624000000000024 6.375  L 13.875 6.375  L 13.875 7.624999999999999  L 7.624000000000024 7.624999999999999  L 7.624999999999999 13.875  L 6.375 13.875  L 6.374000000000024 7.624999999999999  L 0.125 7.624999999999999  L 0.125 6.375  L 6.374000000000024 6.375  L 6.375 0.125  Z " stroke-width="0" stroke-dasharray="0" stroke="rgba(255, 255, 255, 0)" fill="none" transform="matrix(1 0 0 1 155 236 )" class="stroke" mask="url(#Clip812)" />
  </g>
</svg>