<?xml version="1.0" encoding="utf-8"?>
<svg version="1.1" xmlns:xlink="http://www.w3.org/1999/xlink" width="555px" height="94px" xmlns="http://www.w3.org/2000/svg">
  <defs>
    <pattern id="BGPattern" patternUnits="userSpaceOnUse" alignment="0 0" imageRepeat="None" />
    <mask fill="white" id="Clip2761">
      <path d="M 1.825657894736842 0  C 1.825657894736842 0  553.1743421052631 0  553.1743421052631 0  C 553.6784841447369 0  554.1348986184211 0.49318633081249996  554.4652769736842 1.29056074475  C 554.7956565460526 2.0879351674999995  555 3.1894976674999995  555 4.40625  C 555 4.40625  555 89.59375  555 89.59375  C 555 90.81050245  554.7956565460526 91.91206495  554.4652769736842 92.7094393375  C 554.1348986184211 93.506813725  553.6784841447369 94  553.1743421052631 94  C 553.1743421052631 94  1.825657894736842 94  1.825657894736842 94  C 1.321516390789482 94  0.8651019171052714 93.506813725  0.5347228169736858 92.7094393375  C 0.20434372049342941 91.91206495  0 90.81050245  0 89.59375  C 0 89.59375  0 4.40625  0 4.40625  C 0 3.1894976674999995  0.20434372049342941 2.0879351674999995  0.5347228169736858 1.29056074475  C 0.8651019171052714 0.49318633081249996  1.321516390789482 0  1.825657894736842 0  Z " fill-rule="evenodd" />
    </mask>
  </defs>
  <g transform="matrix(1 0 0 1 -182 -459 )">
    <path d="M 1.825657894736842 0  C 1.825657894736842 0  553.1743421052631 0  553.1743421052631 0  C 553.6784841447369 0  554.1348986184211 0.49318633081249996  554.4652769736842 1.29056074475  C 554.7956565460526 2.0879351674999995  555 3.1894976674999995  555 4.40625  C 555 4.40625  555 89.59375  555 89.59375  C 555 90.81050245  554.7956565460526 91.91206495  554.4652769736842 92.7094393375  C 554.1348986184211 93.506813725  553.6784841447369 94  553.1743421052631 94  C 553.1743421052631 94  1.825657894736842 94  1.825657894736842 94  C 1.321516390789482 94  0.8651019171052714 93.506813725  0.5347228169736858 92.7094393375  C 0.20434372049342941 91.91206495  0 90.81050245  0 89.59375  C 0 89.59375  0 4.40625  0 4.40625  C 0 3.1894976674999995  0.20434372049342941 2.0879351674999995  0.5347228169736858 1.29056074475  C 0.8651019171052714 0.49318633081249996  1.321516390789482 0  1.825657894736842 0  Z " fill-rule="nonzero" fill="rgba(255, 255, 255, 1)" stroke="none" transform="matrix(1 0 0 1 182 459 )" class="fill" />
    <path d="M 1.825657894736842 0  C 1.825657894736842 0  553.1743421052631 0  553.1743421052631 0  C 553.6784841447369 0  554.1348986184211 0.49318633081249996  554.4652769736842 1.29056074475  C 554.7956565460526 2.0879351674999995  555 3.1894976674999995  555 4.40625  C 555 4.40625  555 89.59375  555 89.59375  C 555 90.81050245  554.7956565460526 91.91206495  554.4652769736842 92.7094393375  C 554.1348986184211 93.506813725  553.6784841447369 94  553.1743421052631 94  C 553.1743421052631 94  1.825657894736842 94  1.825657894736842 94  C 1.321516390789482 94  0.8651019171052714 93.506813725  0.5347228169736858 92.7094393375  C 0.20434372049342941 91.91206495  0 90.81050245  0 89.59375  C 0 89.59375  0 4.40625  0 4.40625  C 0 3.1894976674999995  0.20434372049342941 2.0879351674999995  0.5347228169736858 1.29056074475  C 0.8651019171052714 0.49318633081249996  1.321516390789482 0  1.825657894736842 0  Z " stroke-width="2" stroke-dasharray="0" stroke="rgba(221, 221, 221, 1)" fill="none" transform="matrix(1 0 0 1 182 459 )" class="stroke" mask="url(#Clip2761)" />
  </g>
</svg>