<?xml version="1.0" encoding="utf-8"?>
<svg version="1.1" xmlns:xlink="http://www.w3.org/1999/xlink" width="501px" height="81px" xmlns="http://www.w3.org/2000/svg">
  <defs>
    <pattern id="BGPattern" patternUnits="userSpaceOnUse" alignment="0 0" imageRepeat="None" />
    <mask fill="white" id="Clip538">
      <path d="M 1.6480263157894737 0  C 1.6480263157894737 0  499.3519736842105 0  499.3519736842105 0  C 499.8070640657895 0  500.21907064473686 0.42497971059374995  500.51730407894735 1.1120789396250002  C 500.81553861184204 1.7991781762499999  501 2.74839692625  501 3.796875  C 501 3.796875  501 77.203125  501 77.203125  C 501 78.251603175  500.81553861184204 79.200821925  500.51730407894735 79.88792113125  C 500.21907064473686 80.57502033749999  499.8070640657895 81  499.3519736842105 81  C 499.3519736842105 81  1.6480263157894737 81  1.6480263157894737 81  C 1.1929364176315864 81  0.780929838684218 80.57502033749999  0.4826957320789489 79.88792113125  C 0.1844616287697444 79.200821925  0 78.251603175  0 77.203125  C 0 77.203125  0 3.796875  0 3.796875  C 0 2.74839692625  0.1844616287697444 1.7991781762499999  0.4826957320789489 1.1120789396250002  C 0.780929838684218 0.42497971059374995  1.1929364176315864 0  1.6480263157894737 0  Z " fill-rule="evenodd" />
    </mask>
  </defs>
  <g transform="matrix(1 0 0 1 -181 -411 )">
    <path d="M 1.6480263157894737 0  C 1.6480263157894737 0  499.3519736842105 0  499.3519736842105 0  C 499.8070640657895 0  500.21907064473686 0.42497971059374995  500.51730407894735 1.1120789396250002  C 500.81553861184204 1.7991781762499999  501 2.74839692625  501 3.796875  C 501 3.796875  501 77.203125  501 77.203125  C 501 78.251603175  500.81553861184204 79.200821925  500.51730407894735 79.88792113125  C 500.21907064473686 80.57502033749999  499.8070640657895 81  499.3519736842105 81  C 499.3519736842105 81  1.6480263157894737 81  1.6480263157894737 81  C 1.1929364176315864 81  0.780929838684218 80.57502033749999  0.4826957320789489 79.88792113125  C 0.1844616287697444 79.200821925  0 78.251603175  0 77.203125  C 0 77.203125  0 3.796875  0 3.796875  C 0 2.74839692625  0.1844616287697444 1.7991781762499999  0.4826957320789489 1.1120789396250002  C 0.780929838684218 0.42497971059374995  1.1929364176315864 0  1.6480263157894737 0  Z " fill-rule="nonzero" fill="rgba(255, 255, 255, 1)" stroke="none" transform="matrix(1 0 0 1 181 411 )" class="fill" />
    <path d="M 1.6480263157894737 0  C 1.6480263157894737 0  499.3519736842105 0  499.3519736842105 0  C 499.8070640657895 0  500.21907064473686 0.42497971059374995  500.51730407894735 1.1120789396250002  C 500.81553861184204 1.7991781762499999  501 2.74839692625  501 3.796875  C 501 3.796875  501 77.203125  501 77.203125  C 501 78.251603175  500.81553861184204 79.200821925  500.51730407894735 79.88792113125  C 500.21907064473686 80.57502033749999  499.8070640657895 81  499.3519736842105 81  C 499.3519736842105 81  1.6480263157894737 81  1.6480263157894737 81  C 1.1929364176315864 81  0.780929838684218 80.57502033749999  0.4826957320789489 79.88792113125  C 0.1844616287697444 79.200821925  0 78.251603175  0 77.203125  C 0 77.203125  0 3.796875  0 3.796875  C 0 2.74839692625  0.1844616287697444 1.7991781762499999  0.4826957320789489 1.1120789396250002  C 0.780929838684218 0.42497971059374995  1.1929364176315864 0  1.6480263157894737 0  Z " stroke-width="2" stroke-dasharray="0" stroke="rgba(221, 221, 221, 1)" fill="none" transform="matrix(1 0 0 1 181 411 )" class="stroke" mask="url(#Clip538)" />
  </g>
</svg>