<?xml version="1.0" encoding="utf-8"?>
<svg version="1.1" xmlns:xlink="http://www.w3.org/1999/xlink" width="1489px" height="871px" xmlns="http://www.w3.org/2000/svg">
  <defs>
    <pattern id="BGPattern" patternUnits="userSpaceOnUse" alignment="0 0" imageRepeat="None" />
    <mask fill="white" id="Clip536">
      <path d="M 0 871  L 0 67.28718102073374  L 0 60.19944707740916  L 0 0  L 1489 0  L 1489 509.28781866281867  L 1489 871  L 0 871  Z " fill-rule="evenodd" />
    </mask>
  </defs>
  <g transform="matrix(1 0 0 1 -349 -81 )">
    <path d="M 0 871  L 0 67.28718102073374  L 0 60.19944707740916  L 0 0  L 1489 0  L 1489 509.28781866281867  L 1489 871  L 0 871  Z " fill-rule="nonzero" fill="rgba(242, 242, 242, 0.5764705882352941)" stroke="none" transform="matrix(1 0 0 1 349 81 )" class="fill" />
    <path d="M 0 871  L 0 67.28718102073374  L 0 60.19944707740916  L 0 0  L 1489 0  L 1489 509.28781866281867  L 1489 871  L 0 871  Z " stroke-width="0" stroke-dasharray="0" stroke="rgba(0, 0, 0, 1)" fill="none" transform="matrix(1 0 0 1 349 81 )" class="stroke" mask="url(#Clip536)" />
  </g>
</svg>