<?xml version="1.0" encoding="utf-8"?>
<svg version="1.1" xmlns:xlink="http://www.w3.org/1999/xlink" width="533px" height="34px" xmlns="http://www.w3.org/2000/svg">
  <defs>
    <pattern id="BGPattern" patternUnits="userSpaceOnUse" alignment="0 0" imageRepeat="None" />
    <mask fill="white" id="Clip804">
      <path d="M 1.7532894736842104 0  C 1.7532894736842104 0  531.2467105263158 0  531.2467105263158 0  C 531.7308685570176 0  532.1691909254387 0.17838654518749997  532.4864732017544 0.46679856725  C 532.8037566469297 0.7552105924999999  533 1.1536480924999999  533 1.59375  C 533 1.59375  533 32.40625  533 32.40625  C 533 32.84635195  532.8037566469297 33.24478945  532.4864732017544 33.5332014625  C 532.1691909254387 33.821613475  531.7308685570176 34  531.2467105263158 34  C 531.2467105263158 34  1.7532894736842104 34  1.7532894736842104 34  C 1.2691319572807098 34  0.8308095888596571 33.821613475  0.513526597201756 33.5332014625  C 0.19624360905044663 33.24478945  0 32.84635195  0 32.40625  C 0 32.40625  0 1.59375  0 1.59375  C 0 1.1536480924999999  0.19624360905044663 0.7552105924999999  0.513526597201756 0.46679856725  C 0.8308095888596571 0.17838654518749997  1.2691319572807098 0  1.7532894736842104 0  Z " fill-rule="evenodd" />
    </mask>
  </defs>
  <g transform="matrix(1 0 0 1 -145 -191 )">
    <path d="M 1.7532894736842104 0  C 1.7532894736842104 0  531.2467105263158 0  531.2467105263158 0  C 531.7308685570176 0  532.1691909254387 0.17838654518749997  532.4864732017544 0.46679856725  C 532.8037566469297 0.7552105924999999  533 1.1536480924999999  533 1.59375  C 533 1.59375  533 32.40625  533 32.40625  C 533 32.84635195  532.8037566469297 33.24478945  532.4864732017544 33.5332014625  C 532.1691909254387 33.821613475  531.7308685570176 34  531.2467105263158 34  C 531.2467105263158 34  1.7532894736842104 34  1.7532894736842104 34  C 1.2691319572807098 34  0.8308095888596571 33.821613475  0.513526597201756 33.5332014625  C 0.19624360905044663 33.24478945  0 32.84635195  0 32.40625  C 0 32.40625  0 1.59375  0 1.59375  C 0 1.1536480924999999  0.19624360905044663 0.7552105924999999  0.513526597201756 0.46679856725  C 0.8308095888596571 0.17838654518749997  1.2691319572807098 0  1.7532894736842104 0  Z " fill-rule="nonzero" fill="rgba(255, 255, 255, 1)" stroke="none" transform="matrix(1 0 0 1 145 191 )" class="fill" />
    <path d="M 1.7532894736842104 0  C 1.7532894736842104 0  531.2467105263158 0  531.2467105263158 0  C 531.7308685570176 0  532.1691909254387 0.17838654518749997  532.4864732017544 0.46679856725  C 532.8037566469297 0.7552105924999999  533 1.1536480924999999  533 1.59375  C 533 1.59375  533 32.40625  533 32.40625  C 533 32.84635195  532.8037566469297 33.24478945  532.4864732017544 33.5332014625  C 532.1691909254387 33.821613475  531.7308685570176 34  531.2467105263158 34  C 531.2467105263158 34  1.7532894736842104 34  1.7532894736842104 34  C 1.2691319572807098 34  0.8308095888596571 33.821613475  0.513526597201756 33.5332014625  C 0.19624360905044663 33.24478945  0 32.84635195  0 32.40625  C 0 32.40625  0 1.59375  0 1.59375  C 0 1.1536480924999999  0.19624360905044663 0.7552105924999999  0.513526597201756 0.46679856725  C 0.8308095888596571 0.17838654518749997  1.2691319572807098 0  1.7532894736842104 0  Z " stroke-width="2" stroke-dasharray="0" stroke="rgba(221, 221, 221, 1)" fill="none" transform="matrix(1 0 0 1 145 191 )" class="stroke" mask="url(#Clip804)" />
  </g>
</svg>