<?xml version="1.0" encoding="utf-8"?>
<svg version="1.1" xmlns:xlink="http://www.w3.org/1999/xlink" width="340px" height="34px" xmlns="http://www.w3.org/2000/svg">
  <defs>
    <pattern id="BGPattern" patternUnits="userSpaceOnUse" alignment="0 0" imageRepeat="None" />
    <mask fill="white" id="Clip805">
      <path d="M 1.118421052631579 0  C 1.118421052631579 0  338.88157894736844 0  338.88157894736844 0  C 339.1904227192983 0  339.47002798245614 0.17838654518749997  339.67242192982457 0.46679856725  C 339.874816622807 0.7552105924999999  340 1.1536480924999999  340 1.59375  C 340 1.59375  340 32.40625  340 32.40625  C 340 32.84635195  339.874816622807 33.24478945  339.67242192982457 33.5332014625  C 339.47002798245614 33.821613475  339.1904227192983 34  338.88157894736844 34  C 338.88157894736844 34  1.118421052631579 34  1.118421052631579 34  C 0.809577608771935 34  0.5299723456140402 33.821613475  0.3275779419298256 33.5332014625  C 0.12518354048246128 33.24478945  0 32.84635195  0 32.40625  C 0 32.40625  0 1.59375  0 1.59375  C 0 1.1536480924999999  0.12518354048246128 0.7552105924999999  0.3275779419298256 0.46679856725  C 0.5299723456140402 0.17838654518749997  0.809577608771935 0  1.118421052631579 0  Z " fill-rule="evenodd" />
    </mask>
  </defs>
  <g transform="matrix(1 0 0 1 -337 -241 )">
    <path d="M 1.118421052631579 0  C 1.118421052631579 0  338.88157894736844 0  338.88157894736844 0  C 339.1904227192983 0  339.47002798245614 0.17838654518749997  339.67242192982457 0.46679856725  C 339.874816622807 0.7552105924999999  340 1.1536480924999999  340 1.59375  C 340 1.59375  340 32.40625  340 32.40625  C 340 32.84635195  339.874816622807 33.24478945  339.67242192982457 33.5332014625  C 339.47002798245614 33.821613475  339.1904227192983 34  338.88157894736844 34  C 338.88157894736844 34  1.118421052631579 34  1.118421052631579 34  C 0.809577608771935 34  0.5299723456140402 33.821613475  0.3275779419298256 33.5332014625  C 0.12518354048246128 33.24478945  0 32.84635195  0 32.40625  C 0 32.40625  0 1.59375  0 1.59375  C 0 1.1536480924999999  0.12518354048246128 0.7552105924999999  0.3275779419298256 0.46679856725  C 0.5299723456140402 0.17838654518749997  0.809577608771935 0  1.118421052631579 0  Z " fill-rule="nonzero" fill="rgba(255, 255, 255, 1)" stroke="none" transform="matrix(1 0 0 1 337 241 )" class="fill" />
    <path d="M 1.118421052631579 0  C 1.118421052631579 0  338.88157894736844 0  338.88157894736844 0  C 339.1904227192983 0  339.47002798245614 0.17838654518749997  339.67242192982457 0.46679856725  C 339.874816622807 0.7552105924999999  340 1.1536480924999999  340 1.59375  C 340 1.59375  340 32.40625  340 32.40625  C 340 32.84635195  339.874816622807 33.24478945  339.67242192982457 33.5332014625  C 339.47002798245614 33.821613475  339.1904227192983 34  338.88157894736844 34  C 338.88157894736844 34  1.118421052631579 34  1.118421052631579 34  C 0.809577608771935 34  0.5299723456140402 33.821613475  0.3275779419298256 33.5332014625  C 0.12518354048246128 33.24478945  0 32.84635195  0 32.40625  C 0 32.40625  0 1.59375  0 1.59375  C 0 1.1536480924999999  0.12518354048246128 0.7552105924999999  0.3275779419298256 0.46679856725  C 0.5299723456140402 0.17838654518749997  0.809577608771935 0  1.118421052631579 0  Z " stroke-width="2" stroke-dasharray="0" stroke="rgba(221, 221, 221, 1)" fill="none" transform="matrix(1 0 0 1 337 241 )" class="stroke" mask="url(#Clip805)" />
  </g>
</svg>