<?xml version="1.0" encoding="utf-8"?>
<svg version="1.1" xmlns:xlink="http://www.w3.org/1999/xlink" width="501px" height="30px" xmlns="http://www.w3.org/2000/svg">
  <defs>
    <pattern id="BGPattern" patternUnits="userSpaceOnUse" alignment="0 0" imageRepeat="None" />
    <mask fill="white" id="Clip108">
      <path d="M 1.6480263157894737 0  C 1.6480263157894737 0  499.3519736842105 0  499.3519736842105 0  C 499.8070640657895 0  500.21907064473686 0.1573998928125  500.51730407894735 0.41188108875000007  C 500.81553861184204 0.6663622874999999  501 1.0179247875  501 1.40625  C 501 1.40625  501 28.59375  501 28.59375  C 501 28.98207525  500.81553861184204 29.33363775  500.51730407894735 29.5881189375  C 500.21907064473686 29.842600124999997  499.8070640657895 30  499.3519736842105 30  C 499.3519736842105 30  1.6480263157894737 30  1.6480263157894737 30  C 1.1929364176315864 30  0.780929838684218 29.842600124999997  0.4826957320789489 29.5881189375  C 0.1844616287697444 29.33363775  0 28.98207525  0 28.59375  C 0 28.59375  0 1.40625  0 1.40625  C 0 1.0179247875  0.1844616287697444 0.6663622874999999  0.4826957320789489 0.41188108875000007  C 0.780929838684218 0.1573998928125  1.1929364176315864 0  1.6480263157894737 0  Z " fill-rule="evenodd" />
    </mask>
  </defs>
  <g transform="matrix(1 0 0 1 -181 -362 )">
    <path d="M 1.6480263157894737 0  C 1.6480263157894737 0  499.3519736842105 0  499.3519736842105 0  C 499.8070640657895 0  500.21907064473686 0.1573998928125  500.51730407894735 0.41188108875000007  C 500.81553861184204 0.6663622874999999  501 1.0179247875  501 1.40625  C 501 1.40625  501 28.59375  501 28.59375  C 501 28.98207525  500.81553861184204 29.33363775  500.51730407894735 29.5881189375  C 500.21907064473686 29.842600124999997  499.8070640657895 30  499.3519736842105 30  C 499.3519736842105 30  1.6480263157894737 30  1.6480263157894737 30  C 1.1929364176315864 30  0.780929838684218 29.842600124999997  0.4826957320789489 29.5881189375  C 0.1844616287697444 29.33363775  0 28.98207525  0 28.59375  C 0 28.59375  0 1.40625  0 1.40625  C 0 1.0179247875  0.1844616287697444 0.6663622874999999  0.4826957320789489 0.41188108875000007  C 0.780929838684218 0.1573998928125  1.1929364176315864 0  1.6480263157894737 0  Z " fill-rule="nonzero" fill="rgba(255, 255, 255, 1)" stroke="none" transform="matrix(1 0 0 1 181 362 )" class="fill" />
    <path d="M 1.6480263157894737 0  C 1.6480263157894737 0  499.3519736842105 0  499.3519736842105 0  C 499.8070640657895 0  500.21907064473686 0.1573998928125  500.51730407894735 0.41188108875000007  C 500.81553861184204 0.6663622874999999  501 1.0179247875  501 1.40625  C 501 1.40625  501 28.59375  501 28.59375  C 501 28.98207525  500.81553861184204 29.33363775  500.51730407894735 29.5881189375  C 500.21907064473686 29.842600124999997  499.8070640657895 30  499.3519736842105 30  C 499.3519736842105 30  1.6480263157894737 30  1.6480263157894737 30  C 1.1929364176315864 30  0.780929838684218 29.842600124999997  0.4826957320789489 29.5881189375  C 0.1844616287697444 29.33363775  0 28.98207525  0 28.59375  C 0 28.59375  0 1.40625  0 1.40625  C 0 1.0179247875  0.1844616287697444 0.6663622874999999  0.4826957320789489 0.41188108875000007  C 0.780929838684218 0.1573998928125  1.1929364176315864 0  1.6480263157894737 0  Z " stroke-width="2" stroke-dasharray="0" stroke="rgba(221, 221, 221, 1)" fill="none" transform="matrix(1 0 0 1 181 362 )" class="stroke" mask="url(#Clip108)" />
  </g>
</svg>