<?xml version="1.0" encoding="utf-8"?>
<svg version="1.1" xmlns:xlink="http://www.w3.org/1999/xlink" width="532px" height="34px" xmlns="http://www.w3.org/2000/svg">
  <defs>
    <pattern id="BGPattern" patternUnits="userSpaceOnUse" alignment="0 0" imageRepeat="None" />
    <mask fill="white" id="Clip808">
      <path d="M 1.75 0  C 1.75 0  530.25 0  530.25 0  C 530.7332496666667 0  531.1707496666667 0.17838654518749997  531.4874366666667 0.46679856725  C 531.8041248333333 0.7552105924999999  532 1.1536480924999999  532 1.59375  C 532 1.59375  532 32.40625  532 32.40625  C 532 32.84635195  531.8041248333333 33.24478945  531.4874366666667 33.5332014625  C 531.1707496666667 33.821613475  530.7332496666667 34  530.25 34  C 530.25 34  1.75 34  1.75 34  C 1.2667508466666746 34  0.8292508466666746 33.821613475  0.5125631326666683 33.5332014625  C 0.1958754221666747 33.24478945  0 32.84635195  0 32.40625  C 0 32.40625  0 1.59375  0 1.59375  C 0 1.1536480924999999  0.1958754221666747 0.7552105924999999  0.5125631326666683 0.46679856725  C 0.8292508466666746 0.17838654518749997  1.2667508466666746 0  1.75 0  Z " fill-rule="evenodd" />
    </mask>
  </defs>
  <g transform="matrix(1 0 0 1 -774 -343 )">
    <path d="M 1.75 0  C 1.75 0  530.25 0  530.25 0  C 530.7332496666667 0  531.1707496666667 0.17838654518749997  531.4874366666667 0.46679856725  C 531.8041248333333 0.7552105924999999  532 1.1536480924999999  532 1.59375  C 532 1.59375  532 32.40625  532 32.40625  C 532 32.84635195  531.8041248333333 33.24478945  531.4874366666667 33.5332014625  C 531.1707496666667 33.821613475  530.7332496666667 34  530.25 34  C 530.25 34  1.75 34  1.75 34  C 1.2667508466666746 34  0.8292508466666746 33.821613475  0.5125631326666683 33.5332014625  C 0.1958754221666747 33.24478945  0 32.84635195  0 32.40625  C 0 32.40625  0 1.59375  0 1.59375  C 0 1.1536480924999999  0.1958754221666747 0.7552105924999999  0.5125631326666683 0.46679856725  C 0.8292508466666746 0.17838654518749997  1.2667508466666746 0  1.75 0  Z " fill-rule="nonzero" fill="rgba(255, 255, 255, 1)" stroke="none" transform="matrix(1 0 0 1 774 343 )" class="fill" />
    <path d="M 1.75 0  C 1.75 0  530.25 0  530.25 0  C 530.7332496666667 0  531.1707496666667 0.17838654518749997  531.4874366666667 0.46679856725  C 531.8041248333333 0.7552105924999999  532 1.1536480924999999  532 1.59375  C 532 1.59375  532 32.40625  532 32.40625  C 532 32.84635195  531.8041248333333 33.24478945  531.4874366666667 33.5332014625  C 531.1707496666667 33.821613475  530.7332496666667 34  530.25 34  C 530.25 34  1.75 34  1.75 34  C 1.2667508466666746 34  0.8292508466666746 33.821613475  0.5125631326666683 33.5332014625  C 0.1958754221666747 33.24478945  0 32.84635195  0 32.40625  C 0 32.40625  0 1.59375  0 1.59375  C 0 1.1536480924999999  0.1958754221666747 0.7552105924999999  0.5125631326666683 0.46679856725  C 0.8292508466666746 0.17838654518749997  1.2667508466666746 0  1.75 0  Z " stroke-width="2" stroke-dasharray="0" stroke="rgba(221, 221, 221, 1)" fill="none" transform="matrix(1 0 0 1 774 343 )" class="stroke" mask="url(#Clip808)" />
  </g>
</svg>