<?xml version="1.0" encoding="utf-8"?>
<svg version="1.1" xmlns:xlink="http://www.w3.org/1999/xlink" width="532px" height="103px" xmlns="http://www.w3.org/2000/svg">
  <defs>
    <pattern id="BGPattern" patternUnits="userSpaceOnUse" alignment="0 0" imageRepeat="None" />
    <mask fill="white" id="Clip809">
      <path d="M 1.75 0  C 1.75 0  530.25 0  530.25 0  C 530.7332496666667 0  531.1707496666667 0.5404062986562499  531.4874366666667 1.4141250713750002  C 531.8041248333333 2.2878438537499997  532 3.4948751037499997  532 4.828125  C 532 4.828125  532 98.171875  532 98.171875  C 532 99.505125025  531.8041248333333 100.712156275  531.4874366666667 101.58587501875  C 531.1707496666667 102.45959376249999  530.7332496666667 103  530.25 103  C 530.25 103  1.75 103  1.75 103  C 1.2667508466666746 103  0.8292508466666746 102.45959376249999  0.5125631326666683 101.58587501875  C 0.1958754221666747 100.712156275  0 99.505125025  0 98.171875  C 0 98.171875  0 4.828125  0 4.828125  C 0 3.4948751037499997  0.1958754221666747 2.2878438537499997  0.5125631326666683 1.4141250713750002  C 0.8292508466666746 0.5404062986562499  1.2667508466666746 0  1.75 0  Z " fill-rule="evenodd" />
    </mask>
  </defs>
  <g transform="matrix(1 0 0 1 -145 -435 )">
    <path d="M 1.75 0  C 1.75 0  530.25 0  530.25 0  C 530.7332496666667 0  531.1707496666667 0.5404062986562499  531.4874366666667 1.4141250713750002  C 531.8041248333333 2.2878438537499997  532 3.4948751037499997  532 4.828125  C 532 4.828125  532 98.171875  532 98.171875  C 532 99.505125025  531.8041248333333 100.712156275  531.4874366666667 101.58587501875  C 531.1707496666667 102.45959376249999  530.7332496666667 103  530.25 103  C 530.25 103  1.75 103  1.75 103  C 1.2667508466666746 103  0.8292508466666746 102.45959376249999  0.5125631326666683 101.58587501875  C 0.1958754221666747 100.712156275  0 99.505125025  0 98.171875  C 0 98.171875  0 4.828125  0 4.828125  C 0 3.4948751037499997  0.1958754221666747 2.2878438537499997  0.5125631326666683 1.4141250713750002  C 0.8292508466666746 0.5404062986562499  1.2667508466666746 0  1.75 0  Z " fill-rule="nonzero" fill="rgba(255, 255, 255, 1)" stroke="none" transform="matrix(1 0 0 1 145 435 )" class="fill" />
    <path d="M 1.75 0  C 1.75 0  530.25 0  530.25 0  C 530.7332496666667 0  531.1707496666667 0.5404062986562499  531.4874366666667 1.4141250713750002  C 531.8041248333333 2.2878438537499997  532 3.4948751037499997  532 4.828125  C 532 4.828125  532 98.171875  532 98.171875  C 532 99.505125025  531.8041248333333 100.712156275  531.4874366666667 101.58587501875  C 531.1707496666667 102.45959376249999  530.7332496666667 103  530.25 103  C 530.25 103  1.75 103  1.75 103  C 1.2667508466666746 103  0.8292508466666746 102.45959376249999  0.5125631326666683 101.58587501875  C 0.1958754221666747 100.712156275  0 99.505125025  0 98.171875  C 0 98.171875  0 4.828125  0 4.828125  C 0 3.4948751037499997  0.1958754221666747 2.2878438537499997  0.5125631326666683 1.4141250713750002  C 0.8292508466666746 0.5404062986562499  1.2667508466666746 0  1.75 0  Z " stroke-width="2" stroke-dasharray="0" stroke="rgba(221, 221, 221, 1)" fill="none" transform="matrix(1 0 0 1 145 435 )" class="stroke" mask="url(#Clip809)" />
  </g>
</svg>