<?xml version="1.0" encoding="utf-8"?>
<svg version="1.1" xmlns:xlink="http://www.w3.org/1999/xlink" width="555px" height="35px" xmlns="http://www.w3.org/2000/svg">
  <defs>
    <pattern id="BGPattern" patternUnits="userSpaceOnUse" alignment="0 0" imageRepeat="None" />
    <mask fill="white" id="Clip2762">
      <path d="M 1.825657894736842 0  C 1.825657894736842 0  553.1743421052631 0  553.1743421052631 0  C 553.6784841447369 0  554.1348986184211 0.18363320828125  554.4652769736842 0.48052793687500006  C 554.7956565460526 0.7774226687499999  555 1.1875789187499999  555 1.640625  C 555 1.640625  555 33.359375  555 33.359375  C 555 33.812421125  554.7956565460526 34.222577375  554.4652769736842 34.519472093750004  C 554.1348986184211 34.8163668125  553.6784841447369 35  553.1743421052631 35  C 553.1743421052631 35  1.825657894736842 35  1.825657894736842 35  C 1.321516390789482 35  0.8651019171052714 34.8163668125  0.5347228169736858 34.519472093750004  C 0.20434372049342941 34.222577375  0 33.812421125  0 33.359375  C 0 33.359375  0 1.640625  0 1.640625  C 0 1.1875789187499999  0.20434372049342941 0.7774226687499999  0.5347228169736858 0.48052793687500006  C 0.8651019171052714 0.18363320828125  1.321516390789482 0  1.825657894736842 0  Z " fill-rule="evenodd" />
    </mask>
  </defs>
  <g transform="matrix(1 0 0 1 -182 -402 )">
    <path d="M 1.825657894736842 0  C 1.825657894736842 0  553.1743421052631 0  553.1743421052631 0  C 553.6784841447369 0  554.1348986184211 0.18363320828125  554.4652769736842 0.48052793687500006  C 554.7956565460526 0.7774226687499999  555 1.1875789187499999  555 1.640625  C 555 1.640625  555 33.359375  555 33.359375  C 555 33.812421125  554.7956565460526 34.222577375  554.4652769736842 34.519472093750004  C 554.1348986184211 34.8163668125  553.6784841447369 35  553.1743421052631 35  C 553.1743421052631 35  1.825657894736842 35  1.825657894736842 35  C 1.321516390789482 35  0.8651019171052714 34.8163668125  0.5347228169736858 34.519472093750004  C 0.20434372049342941 34.222577375  0 33.812421125  0 33.359375  C 0 33.359375  0 1.640625  0 1.640625  C 0 1.1875789187499999  0.20434372049342941 0.7774226687499999  0.5347228169736858 0.48052793687500006  C 0.8651019171052714 0.18363320828125  1.321516390789482 0  1.825657894736842 0  Z " fill-rule="nonzero" fill="rgba(255, 255, 255, 1)" stroke="none" transform="matrix(1 0 0 1 182 402 )" class="fill" />
    <path d="M 1.825657894736842 0  C 1.825657894736842 0  553.1743421052631 0  553.1743421052631 0  C 553.6784841447369 0  554.1348986184211 0.18363320828125  554.4652769736842 0.48052793687500006  C 554.7956565460526 0.7774226687499999  555 1.1875789187499999  555 1.640625  C 555 1.640625  555 33.359375  555 33.359375  C 555 33.812421125  554.7956565460526 34.222577375  554.4652769736842 34.519472093750004  C 554.1348986184211 34.8163668125  553.6784841447369 35  553.1743421052631 35  C 553.1743421052631 35  1.825657894736842 35  1.825657894736842 35  C 1.321516390789482 35  0.8651019171052714 34.8163668125  0.5347228169736858 34.519472093750004  C 0.20434372049342941 34.222577375  0 33.812421125  0 33.359375  C 0 33.359375  0 1.640625  0 1.640625  C 0 1.1875789187499999  0.20434372049342941 0.7774226687499999  0.5347228169736858 0.48052793687500006  C 0.8651019171052714 0.18363320828125  1.321516390789482 0  1.825657894736842 0  Z " stroke-width="2" stroke-dasharray="0" stroke="rgba(221, 221, 221, 1)" fill="none" transform="matrix(1 0 0 1 182 402 )" class="stroke" mask="url(#Clip2762)" />
  </g>
</svg>