<?xml version="1.0" encoding="utf-8"?>
<svg version="1.1" xmlns:xlink="http://www.w3.org/1999/xlink" width="320px" height="39px" xmlns="http://www.w3.org/2000/svg">
  <defs>
    <pattern id="BGPattern" patternUnits="userSpaceOnUse" alignment="0 0" imageRepeat="None" />
    <mask fill="white" id="Clip813">
      <path d="M 0 36.214285714285715  L 0 2.7857142857142856  C 0 1.2472060714285718  3.8702702702703147 0  8.64864864864865 0  L 311.35135135135135 0  C 316.12972972972966 0  320 1.2472060714285718  320 2.7857142857142856  L 320 36.214285714285715  C 320 37.752835714285716  316.12972972972966 39  311.35135135135135 39  L 8.64864864864865 39  C 3.8702702702703147 39  0 37.752835714285716  0 36.214285714285715  Z " fill-rule="evenodd" />
    </mask>
  </defs>
  <g transform="matrix(1 0 0 1 -5 -433 )">
    <path d="M 0 36.214285714285715  L 0 2.7857142857142856  C 0 1.2472060714285718  3.8702702702703147 0  8.64864864864865 0  L 311.35135135135135 0  C 316.12972972972966 0  320 1.2472060714285718  320 2.7857142857142856  L 320 36.214285714285715  C 320 37.752835714285716  316.12972972972966 39  311.35135135135135 39  L 8.64864864864865 39  C 3.8702702702703147 39  0 37.752835714285716  0 36.214285714285715  Z " fill-rule="nonzero" fill="rgba(0, 82, 217, 1)" stroke="none" transform="matrix(1 0 0 1 5 433 )" class="fill" />
    <path d="M 0 36.214285714285715  L 0 2.7857142857142856  C 0 1.2472060714285718  3.8702702702703147 0  8.64864864864865 0  L 311.35135135135135 0  C 316.12972972972966 0  320 1.2472060714285718  320 2.7857142857142856  L 320 36.214285714285715  C 320 37.752835714285716  316.12972972972966 39  311.35135135135135 39  L 8.64864864864865 39  C 3.8702702702703147 39  0 37.752835714285716  0 36.214285714285715  Z " stroke-width="0" stroke-dasharray="0" stroke="rgba(255, 255, 255, 0)" fill="none" transform="matrix(1 0 0 1 5 433 )" class="stroke" mask="url(#Clip813)" />
  </g>
</svg>