<?xml version="1.0" encoding="utf-8"?>
<svg version="1.1" xmlns:xlink="http://www.w3.org/1999/xlink" width="318px" height="39px" xmlns="http://www.w3.org/2000/svg">
  <defs>
    <pattern id="BGPattern" patternUnits="userSpaceOnUse" alignment="0 0" imageRepeat="None" />
    <mask fill="white" id="Clip2768">
      <path d="M 0 36.214285714285715  L 0 2.7857142857142856  C 0 1.2472060714285718  3.8460810810811252 0  8.594594594594595 0  L 309.4054054054054 0  C 314.15391891891886 0  318 1.2472060714285718  318 2.7857142857142856  L 318 36.214285714285715  C 318 37.752835714285716  314.15391891891886 39  309.4054054054054 39  L 8.594594594594595 39  C 3.8460810810811252 39  0 37.752835714285716  0 36.214285714285715  Z " fill-rule="evenodd" />
    </mask>
  </defs>
  <g transform="matrix(1 0 0 1 -45 -427 )">
    <path d="M 0 36.214285714285715  L 0 2.7857142857142856  C 0 1.2472060714285718  3.8460810810811252 0  8.594594594594595 0  L 309.4054054054054 0  C 314.15391891891886 0  318 1.2472060714285718  318 2.7857142857142856  L 318 36.214285714285715  C 318 37.752835714285716  314.15391891891886 39  309.4054054054054 39  L 8.594594594594595 39  C 3.8460810810811252 39  0 37.752835714285716  0 36.214285714285715  Z " fill-rule="nonzero" fill="rgba(0, 82, 217, 1)" stroke="none" transform="matrix(1 0 0 1 45 427 )" class="fill" />
    <path d="M 0 36.214285714285715  L 0 2.7857142857142856  C 0 1.2472060714285718  3.8460810810811252 0  8.594594594594595 0  L 309.4054054054054 0  C 314.15391891891886 0  318 1.2472060714285718  318 2.7857142857142856  L 318 36.214285714285715  C 318 37.752835714285716  314.15391891891886 39  309.4054054054054 39  L 8.594594594594595 39  C 3.8460810810811252 39  0 37.752835714285716  0 36.214285714285715  Z " stroke-width="0" stroke-dasharray="0" stroke="rgba(0, 0, 0, 1)" fill="none" transform="matrix(1 0 0 1 45 427 )" class="stroke" mask="url(#Clip2768)" />
  </g>
</svg>