<?xml version="1.0" encoding="utf-8"?>
<svg version="1.1" xmlns:xlink="http://www.w3.org/1999/xlink" width="5px" height="7px" xmlns="http://www.w3.org/2000/svg">
  <defs>
    <pattern id="BGPattern" patternUnits="userSpaceOnUse" alignment="0 0" imageRepeat="None" />
    <mask fill="white" id="Clip2788">
      <path d="M 4.233333333333273 0.7373333333333336  C 3.7999999999999545 0.3826666666666674  3.2583333333334012 0.2053333333333328  2.599999999999909 0.2053333333333328  C 1.8833333333333258 0.2053333333333328  1.2916666666666288 0.429333333333333  0.8499999999999848 0.8773333333333335  C 0.4083333333333409 1.3160000000000003  0.18333333333335605 1.913333333333334  0.18333333333335605 2.660000000000001  L 1.000000000000038 2.660000000000001  C 1.0083333333333637 2.072000000000001  1.1583333333334167 1.6240000000000006  1.441666666666682 1.325333333333334  C 1.6999999999999695 1.0079999999999996  2.0833333333333335 0.858666666666666  2.574999999999932 0.858666666666666  C 3.0333333333334167 0.858666666666666  3.399999999999939 0.9706666666666676  3.6583333333334167 1.1946666666666679  C 3.92500000000003 1.418666666666668  4.049999999999916 1.7266666666666657  4.049999999999916 2.137333333333334  C 4.049999999999916 2.5666666666666673  3.858333333333424 2.967999999999999  3.500000000000038 3.331999999999999  C 3.3083333333333558 3.5186666666666677  2.9416666666666442 3.7893333333333334  2.38333333333325 4.1626666666666665  C 1.6250000000000377 4.648  1.1083333333332728 5.049333333333333  0.8333333333333333 5.348000000000001  C 0.3500000000000606 5.842666666666666  0.1250000000000758 6.393333333333333  0.1250000000000758 7  L 4.88333333333325 7  L 4.88333333333325 6.318666666666665  L 1.13333333333325 6.318666666666665  C 1.2583333333333258 5.870666666666665  1.7833333333334167 5.357333333333335  2.6916666666666815 4.7879999999999985  C 3.433333333333242 4.3213333333333335  3.92500000000003 3.9573333333333345  4.174999999999993 3.714666666666666  C 4.633333333333288 3.2479999999999984  4.8749999999999245 2.7253333333333343  4.8749999999999245 2.1466666666666683  C 4.8749999999999245 1.5679999999999987  4.649999999999939 1.092  4.233333333333273 0.7373333333333336  Z " fill-rule="evenodd" />
    </mask>
  </defs>
  <g transform="matrix(1 0 0 1 -1612 -22 )">
    <path d="M 4.233333333333273 0.7373333333333336  C 3.7999999999999545 0.3826666666666674  3.2583333333334012 0.2053333333333328  2.599999999999909 0.2053333333333328  C 1.8833333333333258 0.2053333333333328  1.2916666666666288 0.429333333333333  0.8499999999999848 0.8773333333333335  C 0.4083333333333409 1.3160000000000003  0.18333333333335605 1.913333333333334  0.18333333333335605 2.660000000000001  L 1.000000000000038 2.660000000000001  C 1.0083333333333637 2.072000000000001  1.1583333333334167 1.6240000000000006  1.441666666666682 1.325333333333334  C 1.6999999999999695 1.0079999999999996  2.0833333333333335 0.858666666666666  2.574999999999932 0.858666666666666  C 3.0333333333334167 0.858666666666666  3.399999999999939 0.9706666666666676  3.6583333333334167 1.1946666666666679  C 3.92500000000003 1.418666666666668  4.049999999999916 1.7266666666666657  4.049999999999916 2.137333333333334  C 4.049999999999916 2.5666666666666673  3.858333333333424 2.967999999999999  3.500000000000038 3.331999999999999  C 3.3083333333333558 3.5186666666666677  2.9416666666666442 3.7893333333333334  2.38333333333325 4.1626666666666665  C 1.6250000000000377 4.648  1.1083333333332728 5.049333333333333  0.8333333333333333 5.348000000000001  C 0.3500000000000606 5.842666666666666  0.1250000000000758 6.393333333333333  0.1250000000000758 7  L 4.88333333333325 7  L 4.88333333333325 6.318666666666665  L 1.13333333333325 6.318666666666665  C 1.2583333333333258 5.870666666666665  1.7833333333334167 5.357333333333335  2.6916666666666815 4.7879999999999985  C 3.433333333333242 4.3213333333333335  3.92500000000003 3.9573333333333345  4.174999999999993 3.714666666666666  C 4.633333333333288 3.2479999999999984  4.8749999999999245 2.7253333333333343  4.8749999999999245 2.1466666666666683  C 4.8749999999999245 1.5679999999999987  4.649999999999939 1.092  4.233333333333273 0.7373333333333336  Z " fill-rule="nonzero" fill="rgba(255, 255, 255, 1)" stroke="none" transform="matrix(1 0 0 1 1612 22 )" class="fill" />
    <path d="M 4.233333333333273 0.7373333333333336  C 3.7999999999999545 0.3826666666666674  3.2583333333334012 0.2053333333333328  2.599999999999909 0.2053333333333328  C 1.8833333333333258 0.2053333333333328  1.2916666666666288 0.429333333333333  0.8499999999999848 0.8773333333333335  C 0.4083333333333409 1.3160000000000003  0.18333333333335605 1.913333333333334  0.18333333333335605 2.660000000000001  L 1.000000000000038 2.660000000000001  C 1.0083333333333637 2.072000000000001  1.1583333333334167 1.6240000000000006  1.441666666666682 1.325333333333334  C 1.6999999999999695 1.0079999999999996  2.0833333333333335 0.858666666666666  2.574999999999932 0.858666666666666  C 3.0333333333334167 0.858666666666666  3.399999999999939 0.9706666666666676  3.6583333333334167 1.1946666666666679  C 3.92500000000003 1.418666666666668  4.049999999999916 1.7266666666666657  4.049999999999916 2.137333333333334  C 4.049999999999916 2.5666666666666673  3.858333333333424 2.967999999999999  3.500000000000038 3.331999999999999  C 3.3083333333333558 3.5186666666666677  2.9416666666666442 3.7893333333333334  2.38333333333325 4.1626666666666665  C 1.6250000000000377 4.648  1.1083333333332728 5.049333333333333  0.8333333333333333 5.348000000000001  C 0.3500000000000606 5.842666666666666  0.1250000000000758 6.393333333333333  0.1250000000000758 7  L 4.88333333333325 7  L 4.88333333333325 6.318666666666665  L 1.13333333333325 6.318666666666665  C 1.2583333333333258 5.870666666666665  1.7833333333334167 5.357333333333335  2.6916666666666815 4.7879999999999985  C 3.433333333333242 4.3213333333333335  3.92500000000003 3.9573333333333345  4.174999999999993 3.714666666666666  C 4.633333333333288 3.2479999999999984  4.8749999999999245 2.7253333333333343  4.8749999999999245 2.1466666666666683  C 4.8749999999999245 1.5679999999999987  4.649999999999939 1.092  4.233333333333273 0.7373333333333336  Z " stroke-width="0" stroke-dasharray="0" stroke="rgba(255, 255, 255, 0)" fill="none" transform="matrix(1 0 0 1 1612 22 )" class="stroke" mask="url(#Clip2788)" />
  </g>
</svg>