<?xml version="1.0" encoding="utf-8"?>
<svg version="1.1" xmlns:xlink="http://www.w3.org/1999/xlink" width="14px" height="15px" xmlns="http://www.w3.org/2000/svg">
  <defs>
    <pattern id="BGPattern" patternUnits="userSpaceOnUse" alignment="0 0" imageRepeat="None" />
    <mask fill="white" id="Clip2789">
      <path d="M 12.767125000000028 14.507625  L 8.911000000000138 10.376249999999995  C 8.01762500000013 11.151656249999998  6.879250000000035 11.616093749999996  5.6393750000000225 11.616093749999996  C 2.7667500000000906 11.616093749999996  0.4375 9.120656250000009  0.4375 6.042468750000001  C 0.4375 2.964187499999998  2.7667500000000906 0.46875  5.6393750000000225 0.46875  C 8.512874999999994 0.46875  10.842125000000085 2.964187499999998  10.842125000000085 6.042468750000001  C 10.842125000000085 7.370531249999997  10.408124999999966 8.590124999999995  9.684499999999943 9.547593749999997  L 13.54062500000011 13.678968749999996  L 12.767125000000028 14.507625  Z M 5.6393750000000225 10.444218750000006  C 7.90825000000013 10.444218750000006  9.748375000000085 8.473499999999998  9.748375000000085 6.042468750000001  C 9.748375000000085 5.199090750471699  9.526924185191172 4.411120584218651  9.142945895487648 3.741612121979868  C 8.420066738023193 2.4811926501598998  7.121157909432994 1.640625  5.6393750000000225 1.640625  C 3.3704999999999137 1.640625  1.53125 3.611343749999999  1.53125 6.042468750000001  C 1.53125 8.473499999999998  3.3704999999999137 10.444218750000006  5.6393750000000225 10.444218750000006  Z " fill-rule="evenodd" />
    </mask>
  </defs>
  <g transform="matrix(1 0 0 1 -414 -28 )">
    <path d="M 12.767125000000028 14.507625  L 8.911000000000138 10.376249999999995  C 8.01762500000013 11.151656249999998  6.879250000000035 11.616093749999996  5.6393750000000225 11.616093749999996  C 2.7667500000000906 11.616093749999996  0.4375 9.120656250000009  0.4375 6.042468750000001  C 0.4375 2.964187499999998  2.7667500000000906 0.46875  5.6393750000000225 0.46875  C 8.512874999999994 0.46875  10.842125000000085 2.964187499999998  10.842125000000085 6.042468750000001  C 10.842125000000085 7.370531249999997  10.408124999999966 8.590124999999995  9.684499999999943 9.547593749999997  L 13.54062500000011 13.678968749999996  L 12.767125000000028 14.507625  Z M 5.6393750000000225 10.444218750000006  C 7.90825000000013 10.444218750000006  9.748375000000085 8.473499999999998  9.748375000000085 6.042468750000001  C 9.748375000000085 5.199090750471699  9.526924185191172 4.411120584218651  9.142945895487648 3.741612121979868  C 8.420066738023193 2.4811926501598998  7.121157909432994 1.640625  5.6393750000000225 1.640625  C 3.3704999999999137 1.640625  1.53125 3.611343749999999  1.53125 6.042468750000001  C 1.53125 8.473499999999998  3.3704999999999137 10.444218750000006  5.6393750000000225 10.444218750000006  Z " fill-rule="nonzero" fill="rgba(0, 0, 0, 1)" stroke="none" transform="matrix(1 0 0 1 414 28 )" class="fill" />
    <path d="M 12.767125000000028 14.507625  L 8.911000000000138 10.376249999999995  C 8.01762500000013 11.151656249999998  6.879250000000035 11.616093749999996  5.6393750000000225 11.616093749999996  C 2.7667500000000906 11.616093749999996  0.4375 9.120656250000009  0.4375 6.042468750000001  C 0.4375 2.964187499999998  2.7667500000000906 0.46875  5.6393750000000225 0.46875  C 8.512874999999994 0.46875  10.842125000000085 2.964187499999998  10.842125000000085 6.042468750000001  C 10.842125000000085 7.370531249999997  10.408124999999966 8.590124999999995  9.684499999999943 9.547593749999997  L 13.54062500000011 13.678968749999996  L 12.767125000000028 14.507625  Z " stroke-width="0" stroke-dasharray="0" stroke="rgba(255, 255, 255, 0)" fill="none" transform="matrix(1 0 0 1 414 28 )" class="stroke" mask="url(#Clip2789)" />
    <path d="M 5.6393750000000225 10.444218750000006  C 7.90825000000013 10.444218750000006  9.748375000000085 8.473499999999998  9.748375000000085 6.042468750000001  C 9.748375000000085 5.199090750471699  9.526924185191172 4.411120584218651  9.142945895487648 3.741612121979868  C 8.420066738023193 2.4811926501598998  7.121157909432994 1.640625  5.6393750000000225 1.640625  C 3.3704999999999137 1.640625  1.53125 3.611343749999999  1.53125 6.042468750000001  C 1.53125 8.473499999999998  3.3704999999999137 10.444218750000006  5.6393750000000225 10.444218750000006  Z " stroke-width="0" stroke-dasharray="0" stroke="rgba(255, 255, 255, 0)" fill="none" transform="matrix(1 0 0 1 414 28 )" class="stroke" mask="url(#Clip2789)" />
  </g>
</svg>