<?xml version="1.0" encoding="utf-8"?>
<svg version="1.1" xmlns:xlink="http://www.w3.org/1999/xlink" width="27px" height="26px" xmlns="http://www.w3.org/2000/svg">
  <defs>
    <pattern id="BGPattern" patternUnits="userSpaceOnUse" alignment="0 0" imageRepeat="None" />
    <mask fill="white" id="Clip2793">
      <path d="M 24.181107954545457 10.51171875  C 24.424005681818183 10.297309027777777  24.545454545454543 10.043402777777777  24.545454545454543 9.75  C 24.545454545454543 9.45659722222222  24.424005681818183 9.20269097222222  24.181107954545457 8.98828125  C 23.93821022727273 8.773871527777777  23.650568181818187 8.666666666666668  23.31818181818182 8.666666666666668  C 22.985795454545457 8.666666666666668  22.69815340909091 8.773871527777777  22.45525568181818 8.98828125  C 22.212357954545457 9.20269097222222  22.090909090909093 9.45659722222222  22.090909090909093 9.75  C 22.090909090909093 10.043402777777777  22.212357954545457 10.297309027777777  22.45525568181818 10.51171875  C 22.69815340909091 10.726128472222223  22.985795454545457 10.833333333333332  23.31818181818182 10.833333333333332  C 23.650568181818187 10.833333333333332  23.93821022727273 10.726128472222223  24.181107954545457 10.51171875  Z M 25.926136363636363 7.447916666666668  C 26.642045454545457 8.07986111111111  27 8.84722222222222  27 9.75  C 27 10.449652777777777  26.77308238636364 11.07595486111111  26.319247159090907 11.62890625  C 25.865411931818187 12.181857638888888  25.274147727272727 12.576822916666668  24.545454545454543 12.813802083333332  L 24.545454545454543 19.5  C 24.545454545454543 21.294270833333332  23.70490056818182 22.826171875  22.023792613636363 24.095703125  C 20.34268465909091 25.365234375  18.319602272727273 26  15.954545454545455 26  C 13.589488636363638 26  11.566406250000002 25.365234375  9.885298295454547 24.095703125  C 8.20419034090909 22.826171875  7.363636363636363 21.294270833333332  7.363636363636363 19.5  L 7.363636363636363 17.265625  C 5.267045454545455 17.039930555555554  3.515625000000001 16.317708333333336  2.1093750000000004 15.098958333333336  C 0.7031250000000002 13.880208333333336  0 12.458333333333332  0 10.833333333333332  L 0 2.166666666666668  C 0 1.8732638888888873  0.1214488636363639 1.6193576388888873  0.3643465909090912 1.4049479166666676  C 0.6072443181818185 1.1905381944444422  0.894886363636364 1.0833333333333324  1.2272727272727275 1.0833333333333324  C 1.3039772727272732 1.0833333333333324  1.4062500000000004 1.094618055555552  1.5340909090909094 1.1171875  C 1.7514204545454548 0.7786458333333324  2.0518465909090913 0.5078125  2.4353693181818183 0.3046875  C 2.8188920454545454 0.1015625  3.2343750000000004 0  3.6818181818181817 0  C 4.359375000000001 0  4.937855113636364 0.21158854166666763  5.417258522727273 0.634765625  C 5.896661931818182 1.0579427083333324  6.136363636363636 1.5685763888888873  6.136363636363636 2.166666666666668  C 6.136363636363636 2.764756944444442  5.896661931818182 3.275390625  5.417258522727273 3.698567708333332  C 4.937855113636364 4.121744791666668  4.359375000000001 4.333333333333332  3.6818181818181817 4.333333333333332  C 3.259943181818182 4.333333333333332  2.8508522727272734 4.231770833333332  2.4545454545454546 4.028645833333332  L 2.4545454545454546 10.833333333333332  C 2.4545454545454546 12.029513888888888  3.055397727272728 13.05078125  4.257102272727273 13.897135416666664  C 5.458806818181818 14.743489583333336  6.903409090909091 15.166666666666664  8.59090909090909 15.166666666666664  C 10.27840909090909 15.166666666666664  11.723011363636363 14.743489583333336  12.92471590909091 13.897135416666664  C 14.126420454545455 13.05078125  14.727272727272727 12.029513888888888  14.727272727272727 10.833333333333332  L 14.727272727272727 4.028645833333332  C 14.330965909090908 4.231770833333332  13.921875 4.333333333333332  13.5 4.333333333333332  C 12.822443181818183 4.333333333333332  12.243963068181818 4.121744791666668  11.76455965909091 3.698567708333332  C 11.28515625 3.275390625  11.045454545454547 2.764756944444442  11.045454545454547 2.166666666666668  C 11.045454545454547 1.5685763888888873  11.28515625 1.0579427083333324  11.76455965909091 0.634765625  C 12.243963068181818 0.21158854166666763  12.822443181818183 0  13.5 0  C 13.947443181818183 0  14.362926136363637 0.1015625  14.746448863636363 0.3046875  C 15.129971590909092 0.5078125  15.430397727272728 0.7786458333333324  15.647727272727273 1.1171875  C 15.775568181818183 1.094618055555552  15.877840909090908 1.0833333333333324  15.954545454545455 1.0833333333333324  C 16.286931818181824 1.0833333333333324  16.574573863636367 1.1905381944444422  16.817471590909093 1.4049479166666676  C 17.06036931818182 1.6193576388888873  17.18181818181818 1.8732638888888873  17.18181818181818 2.166666666666668  L 17.18181818181818 10.833333333333332  C 17.18181818181818 12.458333333333332  16.478693181818183 13.880208333333336  15.072443181818182 15.098958333333336  C 13.666193181818183 16.317708333333336  11.914772727272728 17.039930555555554  9.818181818181818 17.265625  L 9.818181818181818 19.5  C 9.818181818181818 20.696180555555557  10.419034090909092 21.717447916666668  11.620738636363637 22.563802083333332  C 12.822443181818183 23.41015625  14.267045454545455 23.833333333333332  15.954545454545455 23.833333333333332  C 17.642045454545457 23.833333333333332  19.086647727272727 23.41015625  20.288352272727273 22.563802083333332  C 21.49005681818182 21.717447916666668  22.090909090909093 20.696180555555557  22.090909090909093 19.5  L 22.090909090909093 12.813802083333332  C 21.362215909090907 12.576822916666668  20.770951704545457 12.181857638888888  20.317116477272727 11.62890625  C 19.863281250000004 11.07595486111111  19.636363636363637 10.449652777777777  19.636363636363637 9.75  C 19.636363636363637 8.84722222222222  19.994318181818183 8.07986111111111  20.710227272727273 7.447916666666668  C 21.426136363636367 6.81597222222222  22.295454545454547 6.5  23.31818181818182 6.5  C 24.340909090909093 6.5  25.210227272727273 6.81597222222222  25.926136363636363 7.447916666666668  Z " fill-rule="evenodd" />
    </mask>
  </defs>
  <g transform="matrix(1 0 0 1 -76 -304 )">
    <path d="M 24.181107954545457 10.51171875  C 24.424005681818183 10.297309027777777  24.545454545454543 10.043402777777777  24.545454545454543 9.75  C 24.545454545454543 9.45659722222222  24.424005681818183 9.20269097222222  24.181107954545457 8.98828125  C 23.93821022727273 8.773871527777777  23.650568181818187 8.666666666666668  23.31818181818182 8.666666666666668  C 22.985795454545457 8.666666666666668  22.69815340909091 8.773871527777777  22.45525568181818 8.98828125  C 22.212357954545457 9.20269097222222  22.090909090909093 9.45659722222222  22.090909090909093 9.75  C 22.090909090909093 10.043402777777777  22.212357954545457 10.297309027777777  22.45525568181818 10.51171875  C 22.69815340909091 10.726128472222223  22.985795454545457 10.833333333333332  23.31818181818182 10.833333333333332  C 23.650568181818187 10.833333333333332  23.93821022727273 10.726128472222223  24.181107954545457 10.51171875  Z M 25.926136363636363 7.447916666666668  C 26.642045454545457 8.07986111111111  27 8.84722222222222  27 9.75  C 27 10.449652777777777  26.77308238636364 11.07595486111111  26.319247159090907 11.62890625  C 25.865411931818187 12.181857638888888  25.274147727272727 12.576822916666668  24.545454545454543 12.813802083333332  L 24.545454545454543 19.5  C 24.545454545454543 21.294270833333332  23.70490056818182 22.826171875  22.023792613636363 24.095703125  C 20.34268465909091 25.365234375  18.319602272727273 26  15.954545454545455 26  C 13.589488636363638 26  11.566406250000002 25.365234375  9.885298295454547 24.095703125  C 8.20419034090909 22.826171875  7.363636363636363 21.294270833333332  7.363636363636363 19.5  L 7.363636363636363 17.265625  C 5.267045454545455 17.039930555555554  3.515625000000001 16.317708333333336  2.1093750000000004 15.098958333333336  C 0.7031250000000002 13.880208333333336  0 12.458333333333332  0 10.833333333333332  L 0 2.166666666666668  C 0 1.8732638888888873  0.1214488636363639 1.6193576388888873  0.3643465909090912 1.4049479166666676  C 0.6072443181818185 1.1905381944444422  0.894886363636364 1.0833333333333324  1.2272727272727275 1.0833333333333324  C 1.3039772727272732 1.0833333333333324  1.4062500000000004 1.094618055555552  1.5340909090909094 1.1171875  C 1.7514204545454548 0.7786458333333324  2.0518465909090913 0.5078125  2.4353693181818183 0.3046875  C 2.8188920454545454 0.1015625  3.2343750000000004 0  3.6818181818181817 0  C 4.359375000000001 0  4.937855113636364 0.21158854166666763  5.417258522727273 0.634765625  C 5.896661931818182 1.0579427083333324  6.136363636363636 1.5685763888888873  6.136363636363636 2.166666666666668  C 6.136363636363636 2.764756944444442  5.896661931818182 3.275390625  5.417258522727273 3.698567708333332  C 4.937855113636364 4.121744791666668  4.359375000000001 4.333333333333332  3.6818181818181817 4.333333333333332  C 3.259943181818182 4.333333333333332  2.8508522727272734 4.231770833333332  2.4545454545454546 4.028645833333332  L 2.4545454545454546 10.833333333333332  C 2.4545454545454546 12.029513888888888  3.055397727272728 13.05078125  4.257102272727273 13.897135416666664  C 5.458806818181818 14.743489583333336  6.903409090909091 15.166666666666664  8.59090909090909 15.166666666666664  C 10.27840909090909 15.166666666666664  11.723011363636363 14.743489583333336  12.92471590909091 13.897135416666664  C 14.126420454545455 13.05078125  14.727272727272727 12.029513888888888  14.727272727272727 10.833333333333332  L 14.727272727272727 4.028645833333332  C 14.330965909090908 4.231770833333332  13.921875 4.333333333333332  13.5 4.333333333333332  C 12.822443181818183 4.333333333333332  12.243963068181818 4.121744791666668  11.76455965909091 3.698567708333332  C 11.28515625 3.275390625  11.045454545454547 2.764756944444442  11.045454545454547 2.166666666666668  C 11.045454545454547 1.5685763888888873  11.28515625 1.0579427083333324  11.76455965909091 0.634765625  C 12.243963068181818 0.21158854166666763  12.822443181818183 0  13.5 0  C 13.947443181818183 0  14.362926136363637 0.1015625  14.746448863636363 0.3046875  C 15.129971590909092 0.5078125  15.430397727272728 0.7786458333333324  15.647727272727273 1.1171875  C 15.775568181818183 1.094618055555552  15.877840909090908 1.0833333333333324  15.954545454545455 1.0833333333333324  C 16.286931818181824 1.0833333333333324  16.574573863636367 1.1905381944444422  16.817471590909093 1.4049479166666676  C 17.06036931818182 1.6193576388888873  17.18181818181818 1.8732638888888873  17.18181818181818 2.166666666666668  L 17.18181818181818 10.833333333333332  C 17.18181818181818 12.458333333333332  16.478693181818183 13.880208333333336  15.072443181818182 15.098958333333336  C 13.666193181818183 16.317708333333336  11.914772727272728 17.039930555555554  9.818181818181818 17.265625  L 9.818181818181818 19.5  C 9.818181818181818 20.696180555555557  10.419034090909092 21.717447916666668  11.620738636363637 22.563802083333332  C 12.822443181818183 23.41015625  14.267045454545455 23.833333333333332  15.954545454545455 23.833333333333332  C 17.642045454545457 23.833333333333332  19.086647727272727 23.41015625  20.288352272727273 22.563802083333332  C 21.49005681818182 21.717447916666668  22.090909090909093 20.696180555555557  22.090909090909093 19.5  L 22.090909090909093 12.813802083333332  C 21.362215909090907 12.576822916666668  20.770951704545457 12.181857638888888  20.317116477272727 11.62890625  C 19.863281250000004 11.07595486111111  19.636363636363637 10.449652777777777  19.636363636363637 9.75  C 19.636363636363637 8.84722222222222  19.994318181818183 8.07986111111111  20.710227272727273 7.447916666666668  C 21.426136363636367 6.81597222222222  22.295454545454547 6.5  23.31818181818182 6.5  C 24.340909090909093 6.5  25.210227272727273 6.81597222222222  25.926136363636363 7.447916666666668  Z " fill-rule="nonzero" fill="rgba(0, 0, 0, 1)" stroke="none" transform="matrix(1 0 0 1 76 304 )" class="fill" />
    <path d="M 24.181107954545457 10.51171875  C 24.424005681818183 10.297309027777777  24.545454545454543 10.043402777777777  24.545454545454543 9.75  C 24.545454545454543 9.45659722222222  24.424005681818183 9.20269097222222  24.181107954545457 8.98828125  C 23.93821022727273 8.773871527777777  23.650568181818187 8.666666666666668  23.31818181818182 8.666666666666668  C 22.985795454545457 8.666666666666668  22.69815340909091 8.773871527777777  22.45525568181818 8.98828125  C 22.212357954545457 9.20269097222222  22.090909090909093 9.45659722222222  22.090909090909093 9.75  C 22.090909090909093 10.043402777777777  22.212357954545457 10.297309027777777  22.45525568181818 10.51171875  C 22.69815340909091 10.726128472222223  22.985795454545457 10.833333333333332  23.31818181818182 10.833333333333332  C 23.650568181818187 10.833333333333332  23.93821022727273 10.726128472222223  24.181107954545457 10.51171875  Z " stroke-width="0" stroke-dasharray="0" stroke="rgba(255, 255, 255, 0)" fill="none" transform="matrix(1 0 0 1 76 304 )" class="stroke" mask="url(#Clip2793)" />
    <path d="M 25.926136363636363 7.447916666666668  C 26.642045454545457 8.07986111111111  27 8.84722222222222  27 9.75  C 27 10.449652777777777  26.77308238636364 11.07595486111111  26.319247159090907 11.62890625  C 25.865411931818187 12.181857638888888  25.274147727272727 12.576822916666668  24.545454545454543 12.813802083333332  L 24.545454545454543 19.5  C 24.545454545454543 21.294270833333332  23.70490056818182 22.826171875  22.023792613636363 24.095703125  C 20.34268465909091 25.365234375  18.319602272727273 26  15.954545454545455 26  C 13.589488636363638 26  11.566406250000002 25.365234375  9.885298295454547 24.095703125  C 8.20419034090909 22.826171875  7.363636363636363 21.294270833333332  7.363636363636363 19.5  L 7.363636363636363 17.265625  C 5.267045454545455 17.039930555555554  3.515625000000001 16.317708333333336  2.1093750000000004 15.098958333333336  C 0.7031250000000002 13.880208333333336  0 12.458333333333332  0 10.833333333333332  L 0 2.166666666666668  C 0 1.8732638888888873  0.1214488636363639 1.6193576388888873  0.3643465909090912 1.4049479166666676  C 0.6072443181818185 1.1905381944444422  0.894886363636364 1.0833333333333324  1.2272727272727275 1.0833333333333324  C 1.3039772727272732 1.0833333333333324  1.4062500000000004 1.094618055555552  1.5340909090909094 1.1171875  C 1.7514204545454548 0.7786458333333324  2.0518465909090913 0.5078125  2.4353693181818183 0.3046875  C 2.8188920454545454 0.1015625  3.2343750000000004 0  3.6818181818181817 0  C 4.359375000000001 0  4.937855113636364 0.21158854166666763  5.417258522727273 0.634765625  C 5.896661931818182 1.0579427083333324  6.136363636363636 1.5685763888888873  6.136363636363636 2.166666666666668  C 6.136363636363636 2.764756944444442  5.896661931818182 3.275390625  5.417258522727273 3.698567708333332  C 4.937855113636364 4.121744791666668  4.359375000000001 4.333333333333332  3.6818181818181817 4.333333333333332  C 3.259943181818182 4.333333333333332  2.8508522727272734 4.231770833333332  2.4545454545454546 4.028645833333332  L 2.4545454545454546 10.833333333333332  C 2.4545454545454546 12.029513888888888  3.055397727272728 13.05078125  4.257102272727273 13.897135416666664  C 5.458806818181818 14.743489583333336  6.903409090909091 15.166666666666664  8.59090909090909 15.166666666666664  C 10.27840909090909 15.166666666666664  11.723011363636363 14.743489583333336  12.92471590909091 13.897135416666664  C 14.126420454545455 13.05078125  14.727272727272727 12.029513888888888  14.727272727272727 10.833333333333332  L 14.727272727272727 4.028645833333332  C 14.330965909090908 4.231770833333332  13.921875 4.333333333333332  13.5 4.333333333333332  C 12.822443181818183 4.333333333333332  12.243963068181818 4.121744791666668  11.76455965909091 3.698567708333332  C 11.28515625 3.275390625  11.045454545454547 2.764756944444442  11.045454545454547 2.166666666666668  C 11.045454545454547 1.5685763888888873  11.28515625 1.0579427083333324  11.76455965909091 0.634765625  C 12.243963068181818 0.21158854166666763  12.822443181818183 0  13.5 0  C 13.947443181818183 0  14.362926136363637 0.1015625  14.746448863636363 0.3046875  C 15.129971590909092 0.5078125  15.430397727272728 0.7786458333333324  15.647727272727273 1.1171875  C 15.775568181818183 1.094618055555552  15.877840909090908 1.0833333333333324  15.954545454545455 1.0833333333333324  C 16.286931818181824 1.0833333333333324  16.574573863636367 1.1905381944444422  16.817471590909093 1.4049479166666676  C 17.06036931818182 1.6193576388888873  17.18181818181818 1.8732638888888873  17.18181818181818 2.166666666666668  L 17.18181818181818 10.833333333333332  C 17.18181818181818 12.458333333333332  16.478693181818183 13.880208333333336  15.072443181818182 15.098958333333336  C 13.666193181818183 16.317708333333336  11.914772727272728 17.039930555555554  9.818181818181818 17.265625  L 9.818181818181818 19.5  C 9.818181818181818 20.696180555555557  10.419034090909092 21.717447916666668  11.620738636363637 22.563802083333332  C 12.822443181818183 23.41015625  14.267045454545455 23.833333333333332  15.954545454545455 23.833333333333332  C 17.642045454545457 23.833333333333332  19.086647727272727 23.41015625  20.288352272727273 22.563802083333332  C 21.49005681818182 21.717447916666668  22.090909090909093 20.696180555555557  22.090909090909093 19.5  L 22.090909090909093 12.813802083333332  C 21.362215909090907 12.576822916666668  20.770951704545457 12.181857638888888  20.317116477272727 11.62890625  C 19.863281250000004 11.07595486111111  19.636363636363637 10.449652777777777  19.636363636363637 9.75  C 19.636363636363637 8.84722222222222  19.994318181818183 8.07986111111111  20.710227272727273 7.447916666666668  C 21.426136363636367 6.81597222222222  22.295454545454547 6.5  23.31818181818182 6.5  C 24.340909090909093 6.5  25.210227272727273 6.81597222222222  25.926136363636363 7.447916666666668  Z " stroke-width="0" stroke-dasharray="0" stroke="rgba(255, 255, 255, 0)" fill="none" transform="matrix(1 0 0 1 76 304 )" class="stroke" mask="url(#Clip2793)" />
  </g>
</svg>