<?xml version="1.0" encoding="utf-8"?>
<svg version="1.1" xmlns:xlink="http://www.w3.org/1999/xlink" width="116px" height="118px" xmlns="http://www.w3.org/2000/svg">
  <defs>
    <pattern id="BGPattern" patternUnits="userSpaceOnUse" alignment="0 0" imageRepeat="None" />
    <mask fill="white" id="Clip811">
      <path d="M 0 2.0344827586206895  C 0 0.9108689568965551  0.8954304999999749 0  2 0  L 114 0  C 115.10456899999997 0  116 0.9108689568965551  116 2.0344827586206895  L 116 115.9655172413793  C 116 117.08913053448275  115.10456899999997 118  114 118  L 2 118  C 0.8954304999999749 118  0 117.08913053448275  0 115.9655172413793  L 0 2.0344827586206895  Z " fill-rule="evenodd" />
    </mask>
  </defs>
  <g transform="matrix(1 0 0 1 -104 -194 )">
    <path d="M 0 2.0344827586206895  C 0 0.9108689568965551  0.8954304999999749 0  2 0  L 114 0  C 115.10456899999997 0  116 0.9108689568965551  116 2.0344827586206895  L 116 115.9655172413793  C 116 117.08913053448275  115.10456899999997 118  114 118  L 2 118  C 0.8954304999999749 118  0 117.08913053448275  0 115.9655172413793  L 0 2.0344827586206895  Z " fill-rule="nonzero" fill="rgba(245, 245, 245, 1)" stroke="none" transform="matrix(1 0 0 1 104 194 )" class="fill" />
    <path d="M 0 2.0344827586206895  C 0 0.9108689568965551  0.8954304999999749 0  2 0  L 114 0  C 115.10456899999997 0  116 0.9108689568965551  116 2.0344827586206895  L 116 115.9655172413793  C 116 117.08913053448275  115.10456899999997 118  114 118  L 2 118  C 0.8954304999999749 118  0 117.08913053448275  0 115.9655172413793  L 0 2.0344827586206895  Z " stroke-width="2" stroke-dasharray="3,1" stroke="rgba(221, 221, 221, 1)" fill="none" transform="matrix(1 0 0 1 104 194 )" class="stroke" mask="url(#Clip811)" />
  </g>
</svg>