<?xml version="1.0" encoding="utf-8"?>
<svg version="1.1" xmlns:xlink="http://www.w3.org/1999/xlink" width="115px" height="118px" xmlns="http://www.w3.org/2000/svg">
  <defs>
    <pattern id="BGPattern" patternUnits="userSpaceOnUse" alignment="0 0" imageRepeat="None" />
    <mask fill="white" id="Clip543">
      <path d="M 0 2.0344827586206895  C 0 0.9108689568965551  0.8877112715516993 0  1.9827586206896552 0  L 113.01724137931033 0  C 114.11228823275859 0  115 0.9108689568965551  115 2.0344827586206895  L 115 115.9655172413793  C 115 117.08913053448275  114.11228823275859 118  113.01724137931033 118  L 1.9827586206896552 118  C 0.8877112715516993 118  0 117.08913053448275  0 115.9655172413793  L 0 2.0344827586206895  Z " fill-rule="evenodd" />
    </mask>
  </defs>
  <g transform="matrix(1 0 0 1 -114 -188 )">
    <path d="M 0 2.0344827586206895  C 0 0.9108689568965551  0.8877112715516993 0  1.9827586206896552 0  L 113.01724137931033 0  C 114.11228823275859 0  115 0.9108689568965551  115 2.0344827586206895  L 115 115.9655172413793  C 115 117.08913053448275  114.11228823275859 118  113.01724137931033 118  L 1.9827586206896552 118  C 0.8877112715516993 118  0 117.08913053448275  0 115.9655172413793  L 0 2.0344827586206895  Z " fill-rule="nonzero" fill="rgba(245, 245, 245, 1)" stroke="none" transform="matrix(1 0 0 1 114 188 )" class="fill" />
    <path d="M 0 2.0344827586206895  C 0 0.9108689568965551  0.8877112715516993 0  1.9827586206896552 0  L 113.01724137931033 0  C 114.11228823275859 0  115 0.9108689568965551  115 2.0344827586206895  L 115 115.9655172413793  C 115 117.08913053448275  114.11228823275859 118  113.01724137931033 118  L 1.9827586206896552 118  C 0.8877112715516993 118  0 117.08913053448275  0 115.9655172413793  L 0 2.0344827586206895  Z " stroke-width="2" stroke-dasharray="3,1" stroke="rgba(0, 0, 0, 1)" fill="none" transform="matrix(1 0 0 1 114 188 )" class="stroke" mask="url(#Clip543)" />
  </g>
</svg>