<?xml version="1.0" encoding="utf-8"?>
<svg version="1.1" xmlns:xlink="http://www.w3.org/1999/xlink" width="61px" height="56px" xmlns="http://www.w3.org/2000/svg">
  <defs>
    <pattern id="BGPattern" patternUnits="userSpaceOnUse" alignment="0 0" imageRepeat="None" />
    <mask fill="white" id="Clip645">
      <path d="M 6.777777777777754 0  C 3.033055555555542 0  0 2.784444444444432  0 6.222222222222225  L 0 49.7777777777778  C 0 53.21555555555557  3.033055555555542 56  6.777777777777754 56  L 54.22222222222224 56  C 57.96694444444446 56  61 53.21555555555557  61 49.7777777777778  L 61 6.222222222222225  C 61 2.784444444444432  57.96694444444446 0  54.22222222222224 0  L 6.777777777777754 0  Z M 30.5 9.333333333333325  C 36.108611111111124 9.333333333333325  40.666666666666686 13.517777777777777  40.666666666666686 18.666666666666675  C 40.666666666666686 23.831111111111106  36.108611111111124 28  30.5 28  C 24.89138888888888 28  20.333333333333314 23.831111111111106  20.333333333333314 18.666666666666675  C 20.333333333333314 13.517777777777777  24.89138888888888 9.333333333333325  30.5 9.333333333333325  Z M 10.166666666666686 46  L 10.166666666666686 43.55555555555555  C 10.166666666666686 37.33333333333335  23.722222222222246 33.91111111111114  30.5 33.91111111111114  C 37.27777777777776 33.91111111111114  50.833333333333314 37.33333333333335  50.833333333333314 43.55555555555555  L 50.833333333333314 46  L 10.166666666666686 46  Z " fill-rule="evenodd" />
    </mask>
  </defs>
  <g transform="matrix(1 0 0 1 -1612 -170 )">
    <path d="M 6.777777777777754 0  C 3.033055555555542 0  0 2.784444444444432  0 6.222222222222225  L 0 49.7777777777778  C 0 53.21555555555557  3.033055555555542 56  6.777777777777754 56  L 54.22222222222224 56  C 57.96694444444446 56  61 53.21555555555557  61 49.7777777777778  L 61 6.222222222222225  C 61 2.784444444444432  57.96694444444446 0  54.22222222222224 0  L 6.777777777777754 0  Z M 30.5 9.333333333333325  C 36.108611111111124 9.333333333333325  40.666666666666686 13.517777777777777  40.666666666666686 18.666666666666675  C 40.666666666666686 23.831111111111106  36.108611111111124 28  30.5 28  C 24.89138888888888 28  20.333333333333314 23.831111111111106  20.333333333333314 18.666666666666675  C 20.333333333333314 13.517777777777777  24.89138888888888 9.333333333333325  30.5 9.333333333333325  Z M 10.166666666666686 46  L 10.166666666666686 43.55555555555555  C 10.166666666666686 37.33333333333335  23.722222222222246 33.91111111111114  30.5 33.91111111111114  C 37.27777777777776 33.91111111111114  50.833333333333314 37.33333333333335  50.833333333333314 43.55555555555555  L 50.833333333333314 46  L 10.166666666666686 46  Z " fill-rule="nonzero" fill="rgba(0, 0, 0, 1)" stroke="none" transform="matrix(1 0 0 1 1612 170 )" class="fill" />
    <path d="M 6.777777777777754 0  C 3.033055555555542 0  0 2.784444444444432  0 6.222222222222225  L 0 49.7777777777778  C 0 53.21555555555557  3.033055555555542 56  6.777777777777754 56  L 54.22222222222224 56  C 57.96694444444446 56  61 53.21555555555557  61 49.7777777777778  L 61 6.222222222222225  C 61 2.784444444444432  57.96694444444446 0  54.22222222222224 0  L 6.777777777777754 0  Z " stroke-width="0" stroke-dasharray="0" stroke="rgba(255, 255, 255, 0)" fill="none" transform="matrix(1 0 0 1 1612 170 )" class="stroke" mask="url(#Clip645)" />
    <path d="M 30.5 9.333333333333325  C 36.108611111111124 9.333333333333325  40.666666666666686 13.517777777777777  40.666666666666686 18.666666666666675  C 40.666666666666686 23.831111111111106  36.108611111111124 28  30.5 28  C 24.89138888888888 28  20.333333333333314 23.831111111111106  20.333333333333314 18.666666666666675  C 20.333333333333314 13.517777777777777  24.89138888888888 9.333333333333325  30.5 9.333333333333325  Z " stroke-width="0" stroke-dasharray="0" stroke="rgba(255, 255, 255, 0)" fill="none" transform="matrix(1 0 0 1 1612 170 )" class="stroke" mask="url(#Clip645)" />
    <path d="M 10.166666666666686 46  L 10.166666666666686 43.55555555555555  C 10.166666666666686 37.33333333333335  23.722222222222246 33.91111111111114  30.5 33.91111111111114  C 37.27777777777776 33.91111111111114  50.833333333333314 37.33333333333335  50.833333333333314 43.55555555555555  L 50.833333333333314 46  L 10.166666666666686 46  Z " stroke-width="0" stroke-dasharray="0" stroke="rgba(255, 255, 255, 0)" fill="none" transform="matrix(1 0 0 1 1612 170 )" class="stroke" mask="url(#Clip645)" />
  </g>
</svg>