<?xml version="1.0" encoding="utf-8"?>
<svg version="1.1" xmlns:xlink="http://www.w3.org/1999/xlink" width="42px" height="44px" xmlns="http://www.w3.org/2000/svg">
  <defs>
    <pattern id="BGPattern" patternUnits="userSpaceOnUse" alignment="0 0" imageRepeat="None" />
    <mask fill="white" id="Clip932">
      <path d="M 42 22  C 42 9.844999999999995  32.602500000000006 0  21 0  C 9.397499999999996 0  0 9.844999999999995  0 22  C 0 34.155  9.397499999999996 44  21 44  C 32.602500000000006 44  42 34.155  42 22  Z M 14.699999999999985 13.199999999999992  C 14.699999999999985 9.558999999999997  17.524500000000003 6.600000000000016  21 6.600000000000016  C 24.475499999999997 6.600000000000016  27.300000000000015 9.558999999999997  27.300000000000015 13.199999999999992  C 27.300000000000015 16.852  24.475499999999997 19.800000000000008  21 19.800000000000008  C 17.524500000000003 19.800000000000008  14.699999999999985 16.852  14.699999999999985 13.199999999999992  Z M 33.599999999999994 30.755999999999993  C 30.88049999999999 35.024000000000015  26.260500000000015 37.84000000000002  21 37.84000000000002  C 15.739499999999987 37.84000000000002  11.119500000000011 35.024000000000015  8.400000000000007 30.755999999999993  C 8.452499999999997 26.38900000000001  16.81049999999999 23.979999999999997  21 23.979999999999997  C 25.18950000000001 23.979999999999997  33.53699999999999 26.38900000000001  33.599999999999994 30.755999999999993  Z " fill-rule="evenodd" />
    </mask>
  </defs>
  <g transform="matrix(1 0 0 1 -219 -2079 )">
    <path d="M 42 22  C 42 9.844999999999995  32.602500000000006 0  21 0  C 9.397499999999996 0  0 9.844999999999995  0 22  C 0 34.155  9.397499999999996 44  21 44  C 32.602500000000006 44  42 34.155  42 22  Z M 14.699999999999985 13.199999999999992  C 14.699999999999985 9.558999999999997  17.524500000000003 6.600000000000016  21 6.600000000000016  C 24.475499999999997 6.600000000000016  27.300000000000015 9.558999999999997  27.300000000000015 13.199999999999992  C 27.300000000000015 16.852  24.475499999999997 19.800000000000008  21 19.800000000000008  C 17.524500000000003 19.800000000000008  14.699999999999985 16.852  14.699999999999985 13.199999999999992  Z M 33.599999999999994 30.755999999999993  C 30.88049999999999 35.024000000000015  26.260500000000015 37.84000000000002  21 37.84000000000002  C 15.739499999999987 37.84000000000002  11.119500000000011 35.024000000000015  8.400000000000007 30.755999999999993  C 8.452499999999997 26.38900000000001  16.81049999999999 23.979999999999997  21 23.979999999999997  C 25.18950000000001 23.979999999999997  33.53699999999999 26.38900000000001  33.599999999999994 30.755999999999993  Z " fill-rule="nonzero" fill="rgba(0, 0, 0, 1)" stroke="none" transform="matrix(1 0 0 1 219 2079 )" class="fill" />
    <path d="M 42 22  C 42 9.844999999999995  32.602500000000006 0  21 0  C 9.397499999999996 0  0 9.844999999999995  0 22  C 0 34.155  9.397499999999996 44  21 44  C 32.602500000000006 44  42 34.155  42 22  Z " stroke-width="0" stroke-dasharray="0" stroke="rgba(255, 255, 255, 0)" fill="none" transform="matrix(1 0 0 1 219 2079 )" class="stroke" mask="url(#Clip932)" />
    <path d="M 14.699999999999985 13.199999999999992  C 14.699999999999985 9.558999999999997  17.524500000000003 6.600000000000016  21 6.600000000000016  C 24.475499999999997 6.600000000000016  27.300000000000015 9.558999999999997  27.300000000000015 13.199999999999992  C 27.300000000000015 16.852  24.475499999999997 19.800000000000008  21 19.800000000000008  C 17.524500000000003 19.800000000000008  14.699999999999985 16.852  14.699999999999985 13.199999999999992  Z " stroke-width="0" stroke-dasharray="0" stroke="rgba(255, 255, 255, 0)" fill="none" transform="matrix(1 0 0 1 219 2079 )" class="stroke" mask="url(#Clip932)" />
    <path d="M 33.599999999999994 30.755999999999993  C 30.88049999999999 35.024000000000015  26.260500000000015 37.84000000000002  21 37.84000000000002  C 15.739499999999987 37.84000000000002  11.119500000000011 35.024000000000015  8.400000000000007 30.755999999999993  C 8.452499999999997 26.38900000000001  16.81049999999999 23.979999999999997  21 23.979999999999997  C 25.18950000000001 23.979999999999997  33.53699999999999 26.38900000000001  33.599999999999994 30.755999999999993  Z " stroke-width="0" stroke-dasharray="0" stroke="rgba(255, 255, 255, 0)" fill="none" transform="matrix(1 0 0 1 219 2079 )" class="stroke" mask="url(#Clip932)" />
  </g>
</svg>