<?xml version="1.0" encoding="utf-8"?>
<svg version="1.1" xmlns:xlink="http://www.w3.org/1999/xlink" width="13px" height="11px" xmlns="http://www.w3.org/2000/svg">
  <defs>
    <pattern id="BGPattern" patternUnits="userSpaceOnUse" alignment="0 0" imageRepeat="None" />
    <mask fill="white" id="Clip942">
      <path d="M 1.2555826307142297 10.884226099999994  L 4.610475507857116 10.272801846153838  L 11.386820342857195 4.09790809153847  L 8.375111642857064 1.3535104846153951  L 1.5987668821427568 7.528404526923083  L 0.9277883921429456 10.585526007692298  C 0.8888035649999568 10.763148169230771  1.0606605471428208 10.919749923076921  1.2555826307142297 10.884226099999994  Z M 9.176078228571523 0.6235239830769196  L 12.187786928571443 3.3679210992307578  L 12.844386749999915 2.7696001384615316  L 9.832678049999995 0.025202827692298188  L 9.176078228571523 0.6235239830769196  Z M 8.375111642857064 2.550152507692318  L 10.073622464285677 4.09790809153847  L 4.152678474285738 9.49332348461539  L 2.0295404350000417 9.880262530769228  L 2.454168135714229 7.945568907692297  L 8.375111642857064 2.550152507692318  Z " fill-rule="evenodd" />
    </mask>
  </defs>
  <g transform="matrix(1 0 0 1 -1465 -252 )">
    <path d="M 1.2555826307142297 10.884226099999994  L 4.610475507857116 10.272801846153838  L 11.386820342857195 4.09790809153847  L 8.375111642857064 1.3535104846153951  L 1.5987668821427568 7.528404526923083  L 0.9277883921429456 10.585526007692298  C 0.8888035649999568 10.763148169230771  1.0606605471428208 10.919749923076921  1.2555826307142297 10.884226099999994  Z M 9.176078228571523 0.6235239830769196  L 12.187786928571443 3.3679210992307578  L 12.844386749999915 2.7696001384615316  L 9.832678049999995 0.025202827692298188  L 9.176078228571523 0.6235239830769196  Z M 8.375111642857064 2.550152507692318  L 10.073622464285677 4.09790809153847  L 4.152678474285738 9.49332348461539  L 2.0295404350000417 9.880262530769228  L 2.454168135714229 7.945568907692297  L 8.375111642857064 2.550152507692318  Z " fill-rule="nonzero" fill="rgba(0, 0, 0, 0.8980392156862745)" stroke="none" transform="matrix(1 0 0 1 1465 252 )" class="fill" />
    <path d="M 1.2555826307142297 10.884226099999994  L 4.610475507857116 10.272801846153838  L 11.386820342857195 4.09790809153847  L 8.375111642857064 1.3535104846153951  L 1.5987668821427568 7.528404526923083  L 0.9277883921429456 10.585526007692298  C 0.8888035649999568 10.763148169230771  1.0606605471428208 10.919749923076921  1.2555826307142297 10.884226099999994  Z " stroke-width="0" stroke-dasharray="0" stroke="rgba(255, 255, 255, 0)" fill="none" transform="matrix(1 0 0 1 1465 252 )" class="stroke" mask="url(#Clip942)" />
    <path d="M 9.176078228571523 0.6235239830769196  L 12.187786928571443 3.3679210992307578  L 12.844386749999915 2.7696001384615316  L 9.832678049999995 0.025202827692298188  L 9.176078228571523 0.6235239830769196  Z " stroke-width="0" stroke-dasharray="0" stroke="rgba(255, 255, 255, 0)" fill="none" transform="matrix(1 0 0 1 1465 252 )" class="stroke" mask="url(#Clip942)" />
    <path d="M 8.375111642857064 2.550152507692318  L 10.073622464285677 4.09790809153847  L 4.152678474285738 9.49332348461539  L 2.0295404350000417 9.880262530769228  L 2.454168135714229 7.945568907692297  L 8.375111642857064 2.550152507692318  Z " stroke-width="0" stroke-dasharray="0" stroke="rgba(255, 255, 255, 0)" fill="none" transform="matrix(1 0 0 1 1465 252 )" class="stroke" mask="url(#Clip942)" />
  </g>
</svg>