<?xml version="1.0" encoding="utf-8"?>
<svg version="1.1" xmlns:xlink="http://www.w3.org/1999/xlink" width="13px" height="12px" xmlns="http://www.w3.org/2000/svg">
  <defs>
    <pattern id="BGPattern" patternUnits="userSpaceOnUse" alignment="0 0" imageRepeat="None" />
    <mask fill="white" id="Clip867">
      <path d="M 1.2555826307142297 11.873701199999992  L 4.610475507857116 11.206692923076915  L 11.386820342857195 4.470445190769239  L 8.375111642857064 1.4765568923077037  L 1.5987668821427568 8.212804938461545  L 0.9277883921429456 11.547846553846144  C 0.8888035649999568 11.741616184615387  1.0606605471428208 11.91245446153846  1.2555826307142297 11.873701199999992  Z M 9.176078228571523 0.6802079815384576  L 12.187786928571443 3.6740957446153724  L 12.844386749999915 3.021381969230762  L 9.832678049999995 0.027493993846143476  L 9.176078228571523 0.6802079815384576  Z M 8.375111642857064 2.7819845538461654  L 10.073622464285677 4.470445190769239  L 4.152678474285738 10.356352892307697  L 2.0295404350000417 10.778468215384613  L 2.454168135714229 8.667893353846143  L 8.375111642857064 2.7819845538461654  Z " fill-rule="evenodd" />
    </mask>
  </defs>
  <g transform="matrix(1 0 0 1 -1617 -1605 )">
    <path d="M 1.2555826307142297 11.873701199999992  L 4.610475507857116 11.206692923076915  L 11.386820342857195 4.470445190769239  L 8.375111642857064 1.4765568923077037  L 1.5987668821427568 8.212804938461545  L 0.9277883921429456 11.547846553846144  C 0.8888035649999568 11.741616184615387  1.0606605471428208 11.91245446153846  1.2555826307142297 11.873701199999992  Z M 9.176078228571523 0.6802079815384576  L 12.187786928571443 3.6740957446153724  L 12.844386749999915 3.021381969230762  L 9.832678049999995 0.027493993846143476  L 9.176078228571523 0.6802079815384576  Z M 8.375111642857064 2.7819845538461654  L 10.073622464285677 4.470445190769239  L 4.152678474285738 10.356352892307697  L 2.0295404350000417 10.778468215384613  L 2.454168135714229 8.667893353846143  L 8.375111642857064 2.7819845538461654  Z " fill-rule="nonzero" fill="rgba(0, 0, 0, 0.8980392156862745)" stroke="none" transform="matrix(1 0 0 1 1617 1605 )" class="fill" />
    <path d="M 1.2555826307142297 11.873701199999992  L 4.610475507857116 11.206692923076915  L 11.386820342857195 4.470445190769239  L 8.375111642857064 1.4765568923077037  L 1.5987668821427568 8.212804938461545  L 0.9277883921429456 11.547846553846144  C 0.8888035649999568 11.741616184615387  1.0606605471428208 11.91245446153846  1.2555826307142297 11.873701199999992  Z " stroke-width="0" stroke-dasharray="0" stroke="rgba(255, 255, 255, 0)" fill="none" transform="matrix(1 0 0 1 1617 1605 )" class="stroke" mask="url(#Clip867)" />
    <path d="M 9.176078228571523 0.6802079815384576  L 12.187786928571443 3.6740957446153724  L 12.844386749999915 3.021381969230762  L 9.832678049999995 0.027493993846143476  L 9.176078228571523 0.6802079815384576  Z " stroke-width="0" stroke-dasharray="0" stroke="rgba(255, 255, 255, 0)" fill="none" transform="matrix(1 0 0 1 1617 1605 )" class="stroke" mask="url(#Clip867)" />
    <path d="M 8.375111642857064 2.7819845538461654  L 10.073622464285677 4.470445190769239  L 4.152678474285738 10.356352892307697  L 2.0295404350000417 10.778468215384613  L 2.454168135714229 8.667893353846143  L 8.375111642857064 2.7819845538461654  Z " stroke-width="0" stroke-dasharray="0" stroke="rgba(255, 255, 255, 0)" fill="none" transform="matrix(1 0 0 1 1617 1605 )" class="stroke" mask="url(#Clip867)" />
  </g>
</svg>