<?xml version="1.0" encoding="utf-8"?>
<svg version="1.1" xmlns:xlink="http://www.w3.org/1999/xlink" width="12px" height="10px" xmlns="http://www.w3.org/2000/svg">
  <defs>
    <pattern id="BGPattern" patternUnits="userSpaceOnUse" alignment="0 0" imageRepeat="None" />
    <mask fill="white" id="Clip168">
      <path d="M 1.1589993514285197 9.894750999999994  L 4.255823545714261 9.338910769230761  L 10.510911085714334 3.7253709923076994  L 7.730872285714213 1.2304640769230866  L 1.4757848142856216 6.844004115384621  L 0.8564200542857959 9.623205461538454  C 0.8204340599999602 9.784680153846155  0.9790712742856806 9.927045384615383  1.1589993514285197 9.894750999999994  Z M 8.470226057142945 0.5668399846153814  L 11.25026485714287 3.0617464538461436  L 11.856356999999921 2.5178183076923015  L 9.076318199999996 0.022911661538452897  L 8.470226057142945 0.5668399846153814  Z M 7.730872285714213 2.3183204615384714  L 9.298728428571394 3.7253709923076994  L 3.83324166857145 8.630294076923082  L 1.8734219400000387 8.982056846153844  L 2.2653859714285187 7.223244461538451  L 7.730872285714213 2.3183204615384714  Z " fill-rule="evenodd" />
    </mask>
  </defs>
  <g transform="matrix(1 0 0 1 -1386 -252 )">
    <path d="M 1.1589993514285197 9.894750999999994  L 4.255823545714261 9.338910769230761  L 10.510911085714334 3.7253709923076994  L 7.730872285714213 1.2304640769230866  L 1.4757848142856216 6.844004115384621  L 0.8564200542857959 9.623205461538454  C 0.8204340599999602 9.784680153846155  0.9790712742856806 9.927045384615383  1.1589993514285197 9.894750999999994  Z M 8.470226057142945 0.5668399846153814  L 11.25026485714287 3.0617464538461436  L 11.856356999999921 2.5178183076923015  L 9.076318199999996 0.022911661538452897  L 8.470226057142945 0.5668399846153814  Z M 7.730872285714213 2.3183204615384714  L 9.298728428571394 3.7253709923076994  L 3.83324166857145 8.630294076923082  L 1.8734219400000387 8.982056846153844  L 2.2653859714285187 7.223244461538451  L 7.730872285714213 2.3183204615384714  Z " fill-rule="nonzero" fill="rgba(0, 0, 0, 0.8980392156862745)" stroke="none" transform="matrix(1 0 0 1 1386 252 )" class="fill" />
    <path d="M 1.1589993514285197 9.894750999999994  L 4.255823545714261 9.338910769230761  L 10.510911085714334 3.7253709923076994  L 7.730872285714213 1.2304640769230866  L 1.4757848142856216 6.844004115384621  L 0.8564200542857959 9.623205461538454  C 0.8204340599999602 9.784680153846155  0.9790712742856806 9.927045384615383  1.1589993514285197 9.894750999999994  Z " stroke-width="0" stroke-dasharray="0" stroke="rgba(255, 255, 255, 0)" fill="none" transform="matrix(1 0 0 1 1386 252 )" class="stroke" mask="url(#Clip168)" />
    <path d="M 8.470226057142945 0.5668399846153814  L 11.25026485714287 3.0617464538461436  L 11.856356999999921 2.5178183076923015  L 9.076318199999996 0.022911661538452897  L 8.470226057142945 0.5668399846153814  Z " stroke-width="0" stroke-dasharray="0" stroke="rgba(255, 255, 255, 0)" fill="none" transform="matrix(1 0 0 1 1386 252 )" class="stroke" mask="url(#Clip168)" />
    <path d="M 7.730872285714213 2.3183204615384714  L 9.298728428571394 3.7253709923076994  L 3.83324166857145 8.630294076923082  L 1.8734219400000387 8.982056846153844  L 2.2653859714285187 7.223244461538451  L 7.730872285714213 2.3183204615384714  Z " stroke-width="0" stroke-dasharray="0" stroke="rgba(255, 255, 255, 0)" fill="none" transform="matrix(1 0 0 1 1386 252 )" class="stroke" mask="url(#Clip168)" />
  </g>
</svg>