<?xml version="1.0" encoding="utf-8"?>
<svg version="1.1" xmlns:xlink="http://www.w3.org/1999/xlink" width="8px" height="6px" xmlns="http://www.w3.org/2000/svg">
  <defs>
    <pattern id="BGPattern" patternUnits="userSpaceOnUse" alignment="0 0" imageRepeat="None" />
    <mask fill="white" id="Clip642">
      <path d="M 0 3  C 0 4.656854250000038  1.7908609999999499 6  4 6  C 6.20913900000005 6  8 4.656854250000038  8 3  C 8 1.3431457499999624  6.20913900000005 0  4 0  C 1.7908609999999499 0  0 1.3431457499999624  0 3  Z " fill-rule="evenodd" />
    </mask>
  </defs>
  <g transform="matrix(1 0 0 1 -800 -723 )">
    <path d="M 0 3  C 0 4.656854250000038  1.7908609999999499 6  4 6  C 6.20913900000005 6  8 4.656854250000038  8 3  C 8 1.3431457499999624  6.20913900000005 0  4 0  C 1.7908609999999499 0  0 1.3431457499999624  0 3  Z " fill-rule="nonzero" fill="rgba(0, 82, 217, 1)" stroke="none" transform="matrix(1 0 0 1 800 723 )" class="fill" />
    <path d="M 0 3  C 0 4.656854250000038  1.7908609999999499 6  4 6  C 6.20913900000005 6  8 4.656854250000038  8 3  C 8 1.3431457499999624  6.20913900000005 0  4 0  C 1.7908609999999499 0  0 1.3431457499999624  0 3  Z " stroke-width="0" stroke-dasharray="0" stroke="rgba(255, 255, 255, 0)" fill="none" transform="matrix(1 0 0 1 800 723 )" class="stroke" mask="url(#Clip642)" />
  </g>
</svg>