<?xml version="1.0" encoding="utf-8"?>
<svg version="1.1" xmlns:xlink="http://www.w3.org/1999/xlink" width="8px" height="7px" xmlns="http://www.w3.org/2000/svg">
  <defs>
    <pattern id="BGPattern" patternUnits="userSpaceOnUse" alignment="0 0" imageRepeat="None" />
    <mask fill="white" id="Clip904">
      <path d="M 0 3.5  C 0 5.432996625000044  1.7908609999999499 7  4 7  C 6.20913900000005 7  8 5.432996625000044  8 3.5  C 8 1.5670033749999561  6.20913900000005 0  4 0  C 1.7908609999999499 0  0 1.5670033749999561  0 3.5  Z " fill-rule="evenodd" />
    </mask>
  </defs>
  <g transform="matrix(1 0 0 1 -964 -2182 )">
    <path d="M 0 3.5  C 0 5.432996625000044  1.7908609999999499 7  4 7  C 6.20913900000005 7  8 5.432996625000044  8 3.5  C 8 1.5670033749999561  6.20913900000005 0  4 0  C 1.7908609999999499 0  0 1.5670033749999561  0 3.5  Z " fill-rule="nonzero" fill="rgba(187, 211, 251, 1)" stroke="none" transform="matrix(1 0 0 1 964 2182 )" class="fill" />
    <path d="M 0 3.5  C 0 5.432996625000044  1.7908609999999499 7  4 7  C 6.20913900000005 7  8 5.432996625000044  8 3.5  C 8 1.5670033749999561  6.20913900000005 0  4 0  C 1.7908609999999499 0  0 1.5670033749999561  0 3.5  Z " stroke-width="0" stroke-dasharray="0" stroke="rgba(255, 255, 255, 0)" fill="none" transform="matrix(1 0 0 1 964 2182 )" class="stroke" mask="url(#Clip904)" />
  </g>
</svg>