<?xml version="1.0" encoding="utf-8"?>
<svg version="1.1" xmlns:xlink="http://www.w3.org/1999/xlink" width="13px" height="11px" xmlns="http://www.w3.org/2000/svg">
  <defs>
    <pattern id="BGPattern" patternUnits="userSpaceOnUse" alignment="0 0" imageRepeat="None" />
    <mask fill="white" id="Clip2915">
      <path d="M 2.8874021713333 8.511298537499968  C 2.6412688293333 8.26448603750002  2.3422688293332765 7.759860899999964  1.8101354786666661 7.147298413750001  C 1.508535487333279 6.800798406874982  0.760602187800032 6.1483612781249946  0.5378688553333025 5.816986278125015  C 0.344602184506698 5.524111278124984  0.3654021943866534 5.392798585624966  0.4113355271133438 5.150111092500005  C 0.49280219126668884 4.718361078749965  1.050935593066659 4.382173516874971  1.6463355740000074 4.427548516874992  C 2.0961355653333382 4.461236016874977  2.4774689246666415 4.697048571874994  2.8206689246667036 4.9197985718749635  C 3.027802249333293 5.053861064999992  3.2826022839999722 5.314423640624987  3.4360022926666636 5.461548640624947  C 3.57726895933334 5.5962986406249655  3.6119355046666444 5.651986023749963  3.762735495999952 5.811486023750021  C 3.9620688379999747 6.0225485306249595  4.024469028666696 6.127048723124986  3.948202361999961 5.89467372312501  C 3.8866690200000296 5.55367372999995  3.7861354699999685 4.971361223124958  3.6405354699999632 4.456423716250015  C 3.529602128000018 4.065923702500015  3.5027355566666074 4.004736250625015  3.397002223333311 3.704986264375002  C 3.2852022319999685 3.385986271249969  3.2280022319999415 3.162548675000018  3.123135573999965 2.8242986681249604  C 3.050335574000011 2.585048674999996  2.9194688813333642 2.0962360925  2.883935547999984 1.8212360925000155  C 2.83453554799997 1.4451735993750034  2.808535487333279 0.8319236241250181  3.1127354959999516 0.5500486268750109  C 3.3510688380000375 0.329361120109958  3.897935435333291 0.2626736283874749  4.236802102000024 0.39879862756248485  C 4.680535461333329 0.576861129624973  4.932735322666698 1.0883611406249543  5.048001989333299 1.2925486337499663  C 5.255135322666661 1.6596736199999498  5.383402232000011 2.0838611956249835  5.4952022233333535 2.640736195625024  C 5.637335565333349 3.349548709375  5.899068751333349 4.333361037499969  5.907735418000008 4.5402985375  C 5.928535418000009 4.286611044374986  5.848802327333352 3.7524235374999506  5.90426900266666 3.5090485375  C 5.9545356606666475 3.2883610306249764  6.188535573999995 3.031923654374964  6.481468907333298 2.962486147499959  C 6.729335582666689 2.9040486475000122  7.019668820666644 2.8827361062500145  7.2753354700000274 2.9246736062499608  C 7.546602136666683 2.9686736062500145  7.832602370666609 3.1226736543750064  7.939202379333324 3.267736154375015  C 8.25293569533328 3.6967361612499587  8.259002223333324 4.573298551250012  8.272002223333311 4.526548551250023  C 8.346535556666655 4.268048558124967  8.333535903333313 3.6816109687500074  8.518135903333283 3.4375484756250003  C 8.639469236666704 3.2766734756249747  8.94886864733337 3.1316112437500223  9.113535340000006 3.1082362368750225  C 9.368335339999991 3.072486236875008  9.681202613333305 3.0614859824999883  9.949002613333278 3.1027359824999508  C 10.164802613333299 3.136423482500014  10.456868500000025 3.3399234687499586  10.535735166666699 3.4375484756250003  C 10.7246685 3.6740484824999626  10.832135686666605 4.342985975625005  10.864202353333303 4.5774234687500055  C 10.87720235333329 4.67436096874998  10.92833585999997 4.307923764374969  11.118135860000015 4.071423757500007  C 11.470002526666637 3.6321112575  12.715402353333275 3.5468612506249784  12.763069019999996 4.510736216249981  C 12.784735686666643 4.960361202499968  12.780401920000031 4.939735975624963  12.780401920000031 5.242235975625  C 12.780401920000031 5.597673489374969  12.770002006666617 5.811486388124997  12.745735340000033 6.068611401874946  C 12.718868673333311 6.343611401875009  12.644335599999977 6.965111147499961  12.536002266666644 7.266236174999975  C 12.461468933333299 7.473173675000005  12.214468586666682 7.938611037499989  11.970935253333293 8.217736037499954  C 11.350401919999952 8.790652543749957  11.006335253333342 9.206131687499962  10.938735253333364 9.464173331250016  C 10.836468586666653 9.850548331250025  10.870269193333298 9.85329846874999  10.850335859999943 10.127610968749991  C 10.837046999999984 10.310027612499958  10.872002353333317 10.521319256250024  10.955202006666672 10.761485899999954  C 10.491824113333367 10.809152956249996  10.13533516666661 10.817173950000011  9.8857351666667 10.785548949999978  C 9.546868499999967 10.742236449999986  9.127401833333368 10.207361106250012  9.019068465333339 10.043736106249973  C 8.870001798666651 9.81823610624999  8.55193582533331 9.86154881249999  8.428002483333277 10.027923812499964  C 8.233002492000029 10.291236243750014  7.813535313999986 10.763548743750022  7.5171353053333245 10.793111243749948  C 6.938201989333334 10.85086124374999  5.7370020586666515 10.814423399999953  4.796668690666691 10.806860899999975  C 4.903557715333303 10.343485968749967  4.83798001266667 10.032277681250015  4.599935565333348 9.873236037499964  C 4.335602223333285 9.695173537499954  3.8806021973332845 9.334236381250008  3.608468855333308 9.144486381249962  L 2.8874021713333 8.511298537499968  Z " fill-rule="evenodd" />
    </mask>
  </defs>
  <g transform="matrix(1 0 0 1 -768 -690 )">
    <path d="M 2.8874021713333 8.511298537499968  C 2.6412688293333 8.26448603750002  2.3422688293332765 7.759860899999964  1.8101354786666661 7.147298413750001  C 1.508535487333279 6.800798406874982  0.760602187800032 6.1483612781249946  0.5378688553333025 5.816986278125015  C 0.344602184506698 5.524111278124984  0.3654021943866534 5.392798585624966  0.4113355271133438 5.150111092500005  C 0.49280219126668884 4.718361078749965  1.050935593066659 4.382173516874971  1.6463355740000074 4.427548516874992  C 2.0961355653333382 4.461236016874977  2.4774689246666415 4.697048571874994  2.8206689246667036 4.9197985718749635  C 3.027802249333293 5.053861064999992  3.2826022839999722 5.314423640624987  3.4360022926666636 5.461548640624947  C 3.57726895933334 5.5962986406249655  3.6119355046666444 5.651986023749963  3.762735495999952 5.811486023750021  C 3.9620688379999747 6.0225485306249595  4.024469028666696 6.127048723124986  3.948202361999961 5.89467372312501  C 3.8866690200000296 5.55367372999995  3.7861354699999685 4.971361223124958  3.6405354699999632 4.456423716250015  C 3.529602128000018 4.065923702500015  3.5027355566666074 4.004736250625015  3.397002223333311 3.704986264375002  C 3.2852022319999685 3.385986271249969  3.2280022319999415 3.162548675000018  3.123135573999965 2.8242986681249604  C 3.050335574000011 2.585048674999996  2.9194688813333642 2.0962360925  2.883935547999984 1.8212360925000155  C 2.83453554799997 1.4451735993750034  2.808535487333279 0.8319236241250181  3.1127354959999516 0.5500486268750109  C 3.3510688380000375 0.329361120109958  3.897935435333291 0.2626736283874749  4.236802102000024 0.39879862756248485  C 4.680535461333329 0.576861129624973  4.932735322666698 1.0883611406249543  5.048001989333299 1.2925486337499663  C 5.255135322666661 1.6596736199999498  5.383402232000011 2.0838611956249835  5.4952022233333535 2.640736195625024  C 5.637335565333349 3.349548709375  5.899068751333349 4.333361037499969  5.907735418000008 4.5402985375  C 5.928535418000009 4.286611044374986  5.848802327333352 3.7524235374999506  5.90426900266666 3.5090485375  C 5.9545356606666475 3.2883610306249764  6.188535573999995 3.031923654374964  6.481468907333298 2.962486147499959  C 6.729335582666689 2.9040486475000122  7.019668820666644 2.8827361062500145  7.2753354700000274 2.9246736062499608  C 7.546602136666683 2.9686736062500145  7.832602370666609 3.1226736543750064  7.939202379333324 3.267736154375015  C 8.25293569533328 3.6967361612499587  8.259002223333324 4.573298551250012  8.272002223333311 4.526548551250023  C 8.346535556666655 4.268048558124967  8.333535903333313 3.6816109687500074  8.518135903333283 3.4375484756250003  C 8.639469236666704 3.2766734756249747  8.94886864733337 3.1316112437500223  9.113535340000006 3.1082362368750225  C 9.368335339999991 3.072486236875008  9.681202613333305 3.0614859824999883  9.949002613333278 3.1027359824999508  C 10.164802613333299 3.136423482500014  10.456868500000025 3.3399234687499586  10.535735166666699 3.4375484756250003  C 10.7246685 3.6740484824999626  10.832135686666605 4.342985975625005  10.864202353333303 4.5774234687500055  C 10.87720235333329 4.67436096874998  10.92833585999997 4.307923764374969  11.118135860000015 4.071423757500007  C 11.470002526666637 3.6321112575  12.715402353333275 3.5468612506249784  12.763069019999996 4.510736216249981  C 12.784735686666643 4.960361202499968  12.780401920000031 4.939735975624963  12.780401920000031 5.242235975625  C 12.780401920000031 5.597673489374969  12.770002006666617 5.811486388124997  12.745735340000033 6.068611401874946  C 12.718868673333311 6.343611401875009  12.644335599999977 6.965111147499961  12.536002266666644 7.266236174999975  C 12.461468933333299 7.473173675000005  12.214468586666682 7.938611037499989  11.970935253333293 8.217736037499954  C 11.350401919999952 8.790652543749957  11.006335253333342 9.206131687499962  10.938735253333364 9.464173331250016  C 10.836468586666653 9.850548331250025  10.870269193333298 9.85329846874999  10.850335859999943 10.127610968749991  C 10.837046999999984 10.310027612499958  10.872002353333317 10.521319256250024  10.955202006666672 10.761485899999954  C 10.491824113333367 10.809152956249996  10.13533516666661 10.817173950000011  9.8857351666667 10.785548949999978  C 9.546868499999967 10.742236449999986  9.127401833333368 10.207361106250012  9.019068465333339 10.043736106249973  C 8.870001798666651 9.81823610624999  8.55193582533331 9.86154881249999  8.428002483333277 10.027923812499964  C 8.233002492000029 10.291236243750014  7.813535313999986 10.763548743750022  7.5171353053333245 10.793111243749948  C 6.938201989333334 10.85086124374999  5.7370020586666515 10.814423399999953  4.796668690666691 10.806860899999975  C 4.903557715333303 10.343485968749967  4.83798001266667 10.032277681250015  4.599935565333348 9.873236037499964  C 4.335602223333285 9.695173537499954  3.8806021973332845 9.334236381250008  3.608468855333308 9.144486381249962  L 2.8874021713333 8.511298537499968  Z " fill-rule="nonzero" fill="rgba(255, 255, 255, 1)" stroke="none" transform="matrix(1 0 0 1 768 690 )" class="fill" />
    <path d="M 2.8874021713333 8.511298537499968  C 2.6412688293333 8.26448603750002  2.3422688293332765 7.759860899999964  1.8101354786666661 7.147298413750001  C 1.508535487333279 6.800798406874982  0.760602187800032 6.1483612781249946  0.5378688553333025 5.816986278125015  C 0.344602184506698 5.524111278124984  0.3654021943866534 5.392798585624966  0.4113355271133438 5.150111092500005  C 0.49280219126668884 4.718361078749965  1.050935593066659 4.382173516874971  1.6463355740000074 4.427548516874992  C 2.0961355653333382 4.461236016874977  2.4774689246666415 4.697048571874994  2.8206689246667036 4.9197985718749635  C 3.027802249333293 5.053861064999992  3.2826022839999722 5.314423640624987  3.4360022926666636 5.461548640624947  C 3.57726895933334 5.5962986406249655  3.6119355046666444 5.651986023749963  3.762735495999952 5.811486023750021  C 3.9620688379999747 6.0225485306249595  4.024469028666696 6.127048723124986  3.948202361999961 5.89467372312501  C 3.8866690200000296 5.55367372999995  3.7861354699999685 4.971361223124958  3.6405354699999632 4.456423716250015  C 3.529602128000018 4.065923702500015  3.5027355566666074 4.004736250625015  3.397002223333311 3.704986264375002  C 3.2852022319999685 3.385986271249969  3.2280022319999415 3.162548675000018  3.123135573999965 2.8242986681249604  C 3.050335574000011 2.585048674999996  2.9194688813333642 2.0962360925  2.883935547999984 1.8212360925000155  C 2.83453554799997 1.4451735993750034  2.808535487333279 0.8319236241250181  3.1127354959999516 0.5500486268750109  C 3.3510688380000375 0.329361120109958  3.897935435333291 0.2626736283874749  4.236802102000024 0.39879862756248485  C 4.680535461333329 0.576861129624973  4.932735322666698 1.0883611406249543  5.048001989333299 1.2925486337499663  C 5.255135322666661 1.6596736199999498  5.383402232000011 2.0838611956249835  5.4952022233333535 2.640736195625024  C 5.637335565333349 3.349548709375  5.899068751333349 4.333361037499969  5.907735418000008 4.5402985375  C 5.928535418000009 4.286611044374986  5.848802327333352 3.7524235374999506  5.90426900266666 3.5090485375  C 5.9545356606666475 3.2883610306249764  6.188535573999995 3.031923654374964  6.481468907333298 2.962486147499959  C 6.729335582666689 2.9040486475000122  7.019668820666644 2.8827361062500145  7.2753354700000274 2.9246736062499608  C 7.546602136666683 2.9686736062500145  7.832602370666609 3.1226736543750064  7.939202379333324 3.267736154375015  C 8.25293569533328 3.6967361612499587  8.259002223333324 4.573298551250012  8.272002223333311 4.526548551250023  C 8.346535556666655 4.268048558124967  8.333535903333313 3.6816109687500074  8.518135903333283 3.4375484756250003  C 8.639469236666704 3.2766734756249747  8.94886864733337 3.1316112437500223  9.113535340000006 3.1082362368750225  C 9.368335339999991 3.072486236875008  9.681202613333305 3.0614859824999883  9.949002613333278 3.1027359824999508  C 10.164802613333299 3.136423482500014  10.456868500000025 3.3399234687499586  10.535735166666699 3.4375484756250003  C 10.7246685 3.6740484824999626  10.832135686666605 4.342985975625005  10.864202353333303 4.5774234687500055  C 10.87720235333329 4.67436096874998  10.92833585999997 4.307923764374969  11.118135860000015 4.071423757500007  C 11.470002526666637 3.6321112575  12.715402353333275 3.5468612506249784  12.763069019999996 4.510736216249981  C 12.784735686666643 4.960361202499968  12.780401920000031 4.939735975624963  12.780401920000031 5.242235975625  C 12.780401920000031 5.597673489374969  12.770002006666617 5.811486388124997  12.745735340000033 6.068611401874946  C 12.718868673333311 6.343611401875009  12.644335599999977 6.965111147499961  12.536002266666644 7.266236174999975  C 12.461468933333299 7.473173675000005  12.214468586666682 7.938611037499989  11.970935253333293 8.217736037499954  C 11.350401919999952 8.790652543749957  11.006335253333342 9.206131687499962  10.938735253333364 9.464173331250016  C 10.836468586666653 9.850548331250025  10.870269193333298 9.85329846874999  10.850335859999943 10.127610968749991  C 10.837046999999984 10.310027612499958  10.872002353333317 10.521319256250024  10.955202006666672 10.761485899999954  C 10.491824113333367 10.809152956249996  10.13533516666661 10.817173950000011  9.8857351666667 10.785548949999978  C 9.546868499999967 10.742236449999986  9.127401833333368 10.207361106250012  9.019068465333339 10.043736106249973  C 8.870001798666651 9.81823610624999  8.55193582533331 9.86154881249999  8.428002483333277 10.027923812499964  C 8.233002492000029 10.291236243750014  7.813535313999986 10.763548743750022  7.5171353053333245 10.793111243749948  C 6.938201989333334 10.85086124374999  5.7370020586666515 10.814423399999953  4.796668690666691 10.806860899999975  C 4.903557715333303 10.343485968749967  4.83798001266667 10.032277681250015  4.599935565333348 9.873236037499964  C 4.335602223333285 9.695173537499954  3.8806021973332845 9.334236381250008  3.608468855333308 9.144486381249962  L 2.8874021713333 8.511298537499968  Z " stroke-width="0" stroke-dasharray="0" stroke="rgba(255, 255, 255, 0)" fill="none" transform="matrix(1 0 0 1 768 690 )" class="stroke" mask="url(#Clip2915)" />
  </g>
</svg>