<?xml version="1.0" encoding="utf-8"?>
<svg version="1.1" xmlns:xlink="http://www.w3.org/1999/xlink" width="14px" height="13px" xmlns="http://www.w3.org/2000/svg">
  <defs>
    <pattern id="BGPattern" patternUnits="userSpaceOnUse" alignment="0 0" imageRepeat="None" />
    <mask fill="white" id="Clip956">
      <path d="M 3.1095100306666303 10.058807362499962  C 2.844443354666631 9.767119862500024  2.5224433546666054 9.170744699999958  1.9493766693333328 8.44680721625  C 1.6245766786666083 8.037307208124979  0.8191100484000344 7.266245146874994  0.5792433826666334 6.874620146875017  C 0.37111004485336707 6.528495146874981  0.3935100554933191 6.37330741937496  0.442976721506678 6.086494927500006  C 0.5307100521333572 5.576244911249958  1.131776792533325 5.178932338124966  1.7729767720000078 5.232557338124991  C 2.2573767626666723 5.272369838124973  2.668043457333306 5.551057403124993  3.037643457333373 5.814307403124957  C 3.2607101146666233 5.972744894999991  3.53511015199997 6.280682484374985  3.7003101613333302 6.454557484374938  C 3.852443494666674 6.613807484374959  3.8897766973333097 6.679619846249956  4.052176687999948 6.868119846250025  C 4.266843363999973 7.117557354374952  4.334043569333366 7.241057581874983  4.251910235999958 6.9664325818750115  C 4.185643560000032 6.563432589999941  4.077376659999967 5.875245081874951  3.92057665999996 5.266682573750018  C 3.8011099840000195 4.805182557500018  3.7721767533332695 4.732870114375018  3.6583100866666425 4.378620130625002  C 3.537910095999966 4.0016201387499635  3.4763100959999367 3.737557525000021  3.3633767719999623 3.3378075168749533  C 3.284976772000012 3.055057524999995  3.1440434106667 2.4773699275  3.105776743999983 2.1523699275000183  C 3.0525767439999676 1.707932435625004  3.0245766786666084 0.9831824648750214  3.3521766879999477 0.6500574681250129  C 3.6088433640000406 0.38924496012995036  4.1977766226666215 0.3104324699124703  4.562709956000027 0.4713074689374821  C 5.0405766506666625 0.6817449713749681  5.312176501333367 1.286244984374946  5.43630983466663 1.5275574762499602  C 5.659376501333327 1.9614324599999406  5.797510096000011 2.4627450493749805  5.917910086666688 3.1208700493750285  C 6.0709767626666835 3.958557565625  6.352843270666684 5.121244862499964  6.362176604000009 5.3658073625  C 6.38457660400001 5.0659948706249835  6.298710198666686 4.434682362499942  6.358443541333327 4.1470573625  C 6.412576865333313 3.886244854374972  6.664576771999995 3.5831825006249574  6.980043438666629 3.5011199924999516  C 7.246976781333357 3.4320574925000145  7.55964334533331 3.406869943750017  7.83497666000003 3.4564324437499536  C 8.12710999333335 3.508432443750017  8.435110245333272 3.6904325006250076  8.549910254666656 3.861870000625018  C 8.88777690266661 4.368870008749951  8.894310086666655 5.404807378750014  8.908310086666644 5.349557378750028  C 8.988576753333321 5.044057386874961  8.974577126666645 4.350994781250009  9.173377126666612 4.062557289375  C 9.304043793333374 3.87243228937497  9.637243158666706 3.7009951062500264  9.814576520000006 3.6733700981250266  C 10.08897651999999 3.6311200981250096  10.425910506666636 3.618119797499986  10.714310506666607 3.666869797499942  C 10.94671050666663 3.7066822975000164  11.261243000000029 3.947182281249951  11.34617633333337 4.062557289375  C 11.549643 4.342057297499956  11.665376893333269 5.132619789375006  11.699910226666633 5.4096822812500065  C 11.713910226666622 5.524244781249976  11.768977079999969 5.091182630624964  11.973377080000017 4.811682622500008  C 12.352310413333301 4.2924951225  13.693510226666604 4.191745114374974  13.744843559999996 5.330870073749978  C 13.768176893333308 5.862245057499962  13.763509760000034 5.837869789374956  13.763509760000034 6.195369789375  C 13.763509760000034 6.615432305624964  13.752309853333282 6.868120276874997  13.726176520000037 7.171995293124937  C 13.697243186666643 7.496995293125011  13.616976799999975 8.231494992499954  13.500310133333308 8.58737002499997  C 13.420043466666629 8.831932525000006  13.154043093333348 9.381994862499987  12.891776426666624 9.711869862499945  C 12.22350975999995 10.388953006249949  11.852976426666675 10.879973812499955  11.7801764266667 11.18493211875002  C 11.67004309333332 11.641557118750029  11.706443746666627 11.644807281249989  11.684977079999939 11.96899478124999  C 11.670665999999983 12.18457808749995  11.708310226666647 12.434286393750028  11.797909853333339 12.718119699999946  C 11.298887506666702 12.774453493749995  10.914976333333273 12.783932850000014  10.64617633333337 12.746557849999974  C 10.281242999999964 12.695370349999983  9.829509666666702 12.063244943750014  9.712842962666672 11.869869943749968  C 9.552309629333315 11.603369943749989  9.20977704266664 11.654557687499988  9.076310366666606 11.851182687499957  C 8.866310376000031 12.162370106250016  8.414576491999984 12.720557606250026  8.095376482666659 12.755495106249938  C 7.4719098346666675 12.823745106249987  6.178309909333317 12.780682199999944  5.16564320533336 12.77174469999997  C 5.280754462666634 12.22411978124996  5.210132321333337 11.856328168750018  4.953776762666681 11.668369862499958  C 4.669110086666614 11.457932362499946  4.179110058666614 11.03137026875001  3.886043382666639 10.807120268749955  L 3.1095100306666303 10.058807362499962  Z " fill-rule="evenodd" />
    </mask>
  </defs>
  <g transform="matrix(1 0 0 1 -810 -730 )">
    <path d="M 3.1095100306666303 10.058807362499962  C 2.844443354666631 9.767119862500024  2.5224433546666054 9.170744699999958  1.9493766693333328 8.44680721625  C 1.6245766786666083 8.037307208124979  0.8191100484000344 7.266245146874994  0.5792433826666334 6.874620146875017  C 0.37111004485336707 6.528495146874981  0.3935100554933191 6.37330741937496  0.442976721506678 6.086494927500006  C 0.5307100521333572 5.576244911249958  1.131776792533325 5.178932338124966  1.7729767720000078 5.232557338124991  C 2.2573767626666723 5.272369838124973  2.668043457333306 5.551057403124993  3.037643457333373 5.814307403124957  C 3.2607101146666233 5.972744894999991  3.53511015199997 6.280682484374985  3.7003101613333302 6.454557484374938  C 3.852443494666674 6.613807484374959  3.8897766973333097 6.679619846249956  4.052176687999948 6.868119846250025  C 4.266843363999973 7.117557354374952  4.334043569333366 7.241057581874983  4.251910235999958 6.9664325818750115  C 4.185643560000032 6.563432589999941  4.077376659999967 5.875245081874951  3.92057665999996 5.266682573750018  C 3.8011099840000195 4.805182557500018  3.7721767533332695 4.732870114375018  3.6583100866666425 4.378620130625002  C 3.537910095999966 4.0016201387499635  3.4763100959999367 3.737557525000021  3.3633767719999623 3.3378075168749533  C 3.284976772000012 3.055057524999995  3.1440434106667 2.4773699275  3.105776743999983 2.1523699275000183  C 3.0525767439999676 1.707932435625004  3.0245766786666084 0.9831824648750214  3.3521766879999477 0.6500574681250129  C 3.6088433640000406 0.38924496012995036  4.1977766226666215 0.3104324699124703  4.562709956000027 0.4713074689374821  C 5.0405766506666625 0.6817449713749681  5.312176501333367 1.286244984374946  5.43630983466663 1.5275574762499602  C 5.659376501333327 1.9614324599999406  5.797510096000011 2.4627450493749805  5.917910086666688 3.1208700493750285  C 6.0709767626666835 3.958557565625  6.352843270666684 5.121244862499964  6.362176604000009 5.3658073625  C 6.38457660400001 5.0659948706249835  6.298710198666686 4.434682362499942  6.358443541333327 4.1470573625  C 6.412576865333313 3.886244854374972  6.664576771999995 3.5831825006249574  6.980043438666629 3.5011199924999516  C 7.246976781333357 3.4320574925000145  7.55964334533331 3.406869943750017  7.83497666000003 3.4564324437499536  C 8.12710999333335 3.508432443750017  8.435110245333272 3.6904325006250076  8.549910254666656 3.861870000625018  C 8.88777690266661 4.368870008749951  8.894310086666655 5.404807378750014  8.908310086666644 5.349557378750028  C 8.988576753333321 5.044057386874961  8.974577126666645 4.350994781250009  9.173377126666612 4.062557289375  C 9.304043793333374 3.87243228937497  9.637243158666706 3.7009951062500264  9.814576520000006 3.6733700981250266  C 10.08897651999999 3.6311200981250096  10.425910506666636 3.618119797499986  10.714310506666607 3.666869797499942  C 10.94671050666663 3.7066822975000164  11.261243000000029 3.947182281249951  11.34617633333337 4.062557289375  C 11.549643 4.342057297499956  11.665376893333269 5.132619789375006  11.699910226666633 5.4096822812500065  C 11.713910226666622 5.524244781249976  11.768977079999969 5.091182630624964  11.973377080000017 4.811682622500008  C 12.352310413333301 4.2924951225  13.693510226666604 4.191745114374974  13.744843559999996 5.330870073749978  C 13.768176893333308 5.862245057499962  13.763509760000034 5.837869789374956  13.763509760000034 6.195369789375  C 13.763509760000034 6.615432305624964  13.752309853333282 6.868120276874997  13.726176520000037 7.171995293124937  C 13.697243186666643 7.496995293125011  13.616976799999975 8.231494992499954  13.500310133333308 8.58737002499997  C 13.420043466666629 8.831932525000006  13.154043093333348 9.381994862499987  12.891776426666624 9.711869862499945  C 12.22350975999995 10.388953006249949  11.852976426666675 10.879973812499955  11.7801764266667 11.18493211875002  C 11.67004309333332 11.641557118750029  11.706443746666627 11.644807281249989  11.684977079999939 11.96899478124999  C 11.670665999999983 12.18457808749995  11.708310226666647 12.434286393750028  11.797909853333339 12.718119699999946  C 11.298887506666702 12.774453493749995  10.914976333333273 12.783932850000014  10.64617633333337 12.746557849999974  C 10.281242999999964 12.695370349999983  9.829509666666702 12.063244943750014  9.712842962666672 11.869869943749968  C 9.552309629333315 11.603369943749989  9.20977704266664 11.654557687499988  9.076310366666606 11.851182687499957  C 8.866310376000031 12.162370106250016  8.414576491999984 12.720557606250026  8.095376482666659 12.755495106249938  C 7.4719098346666675 12.823745106249987  6.178309909333317 12.780682199999944  5.16564320533336 12.77174469999997  C 5.280754462666634 12.22411978124996  5.210132321333337 11.856328168750018  4.953776762666681 11.668369862499958  C 4.669110086666614 11.457932362499946  4.179110058666614 11.03137026875001  3.886043382666639 10.807120268749955  L 3.1095100306666303 10.058807362499962  Z " fill-rule="nonzero" fill="rgba(255, 255, 255, 1)" stroke="none" transform="matrix(1 0 0 1 810 730 )" class="fill" />
    <path d="M 3.1095100306666303 10.058807362499962  C 2.844443354666631 9.767119862500024  2.5224433546666054 9.170744699999958  1.9493766693333328 8.44680721625  C 1.6245766786666083 8.037307208124979  0.8191100484000344 7.266245146874994  0.5792433826666334 6.874620146875017  C 0.37111004485336707 6.528495146874981  0.3935100554933191 6.37330741937496  0.442976721506678 6.086494927500006  C 0.5307100521333572 5.576244911249958  1.131776792533325 5.178932338124966  1.7729767720000078 5.232557338124991  C 2.2573767626666723 5.272369838124973  2.668043457333306 5.551057403124993  3.037643457333373 5.814307403124957  C 3.2607101146666233 5.972744894999991  3.53511015199997 6.280682484374985  3.7003101613333302 6.454557484374938  C 3.852443494666674 6.613807484374959  3.8897766973333097 6.679619846249956  4.052176687999948 6.868119846250025  C 4.266843363999973 7.117557354374952  4.334043569333366 7.241057581874983  4.251910235999958 6.9664325818750115  C 4.185643560000032 6.563432589999941  4.077376659999967 5.875245081874951  3.92057665999996 5.266682573750018  C 3.8011099840000195 4.805182557500018  3.7721767533332695 4.732870114375018  3.6583100866666425 4.378620130625002  C 3.537910095999966 4.0016201387499635  3.4763100959999367 3.737557525000021  3.3633767719999623 3.3378075168749533  C 3.284976772000012 3.055057524999995  3.1440434106667 2.4773699275  3.105776743999983 2.1523699275000183  C 3.0525767439999676 1.707932435625004  3.0245766786666084 0.9831824648750214  3.3521766879999477 0.6500574681250129  C 3.6088433640000406 0.38924496012995036  4.1977766226666215 0.3104324699124703  4.562709956000027 0.4713074689374821  C 5.0405766506666625 0.6817449713749681  5.312176501333367 1.286244984374946  5.43630983466663 1.5275574762499602  C 5.659376501333327 1.9614324599999406  5.797510096000011 2.4627450493749805  5.917910086666688 3.1208700493750285  C 6.0709767626666835 3.958557565625  6.352843270666684 5.121244862499964  6.362176604000009 5.3658073625  C 6.38457660400001 5.0659948706249835  6.298710198666686 4.434682362499942  6.358443541333327 4.1470573625  C 6.412576865333313 3.886244854374972  6.664576771999995 3.5831825006249574  6.980043438666629 3.5011199924999516  C 7.246976781333357 3.4320574925000145  7.55964334533331 3.406869943750017  7.83497666000003 3.4564324437499536  C 8.12710999333335 3.508432443750017  8.435110245333272 3.6904325006250076  8.549910254666656 3.861870000625018  C 8.88777690266661 4.368870008749951  8.894310086666655 5.404807378750014  8.908310086666644 5.349557378750028  C 8.988576753333321 5.044057386874961  8.974577126666645 4.350994781250009  9.173377126666612 4.062557289375  C 9.304043793333374 3.87243228937497  9.637243158666706 3.7009951062500264  9.814576520000006 3.6733700981250266  C 10.08897651999999 3.6311200981250096  10.425910506666636 3.618119797499986  10.714310506666607 3.666869797499942  C 10.94671050666663 3.7066822975000164  11.261243000000029 3.947182281249951  11.34617633333337 4.062557289375  C 11.549643 4.342057297499956  11.665376893333269 5.132619789375006  11.699910226666633 5.4096822812500065  C 11.713910226666622 5.524244781249976  11.768977079999969 5.091182630624964  11.973377080000017 4.811682622500008  C 12.352310413333301 4.2924951225  13.693510226666604 4.191745114374974  13.744843559999996 5.330870073749978  C 13.768176893333308 5.862245057499962  13.763509760000034 5.837869789374956  13.763509760000034 6.195369789375  C 13.763509760000034 6.615432305624964  13.752309853333282 6.868120276874997  13.726176520000037 7.171995293124937  C 13.697243186666643 7.496995293125011  13.616976799999975 8.231494992499954  13.500310133333308 8.58737002499997  C 13.420043466666629 8.831932525000006  13.154043093333348 9.381994862499987  12.891776426666624 9.711869862499945  C 12.22350975999995 10.388953006249949  11.852976426666675 10.879973812499955  11.7801764266667 11.18493211875002  C 11.67004309333332 11.641557118750029  11.706443746666627 11.644807281249989  11.684977079999939 11.96899478124999  C 11.670665999999983 12.18457808749995  11.708310226666647 12.434286393750028  11.797909853333339 12.718119699999946  C 11.298887506666702 12.774453493749995  10.914976333333273 12.783932850000014  10.64617633333337 12.746557849999974  C 10.281242999999964 12.695370349999983  9.829509666666702 12.063244943750014  9.712842962666672 11.869869943749968  C 9.552309629333315 11.603369943749989  9.20977704266664 11.654557687499988  9.076310366666606 11.851182687499957  C 8.866310376000031 12.162370106250016  8.414576491999984 12.720557606250026  8.095376482666659 12.755495106249938  C 7.4719098346666675 12.823745106249987  6.178309909333317 12.780682199999944  5.16564320533336 12.77174469999997  C 5.280754462666634 12.22411978124996  5.210132321333337 11.856328168750018  4.953776762666681 11.668369862499958  C 4.669110086666614 11.457932362499946  4.179110058666614 11.03137026875001  3.886043382666639 10.807120268749955  L 3.1095100306666303 10.058807362499962  Z " stroke-width="0" stroke-dasharray="0" stroke="rgba(255, 255, 255, 0)" fill="none" transform="matrix(1 0 0 1 810 730 )" class="stroke" mask="url(#Clip956)" />
  </g>
</svg>