<?xml version="1.0" encoding="utf-8"?>
<svg version="1.1" xmlns:xlink="http://www.w3.org/1999/xlink" width="14px" height="14px" xmlns="http://www.w3.org/2000/svg">
  <defs>
    <pattern id="BGPattern" patternUnits="userSpaceOnUse" alignment="0 0" imageRepeat="None" />
    <mask fill="white" id="Clip892">
      <path d="M 3.1095100306666303 10.83256177499996  C 2.844443354666631 10.518436775000026  2.5224433546666054 9.876186599999954  1.9493766693333328 9.0965616175  C 1.6245766786666083 8.655561608749977  0.8191100484000344 7.825187081249993  0.5792433826666334 7.4034370812500185  C 0.37111004485336707 7.0306870812499795  0.3935100554933191 6.863561836249957  0.442976721506678 6.554686845000006  C 0.5307100521333572 6.005186827499955  1.131776792533325 5.577311748749963  1.7729767720000078 5.63506174874999  C 2.2573767626666723 5.677936748749971  2.668043457333306 5.9780618187499925  3.037643457333373 6.2615618187499535  C 3.2607101146666233 6.43218680999999  3.53511015199997 6.763811906249984  3.7003101613333302 6.951061906249933  C 3.852443494666674 7.122561906249956  3.8897766973333097 7.193436757499953  4.052176687999948 7.396436757500027  C 4.266843363999973 7.6650617662499485  4.334043569333366 7.798062011249982  4.251910235999958 7.502312011250012  C 4.185643560000032 7.0683120199999365  4.077376659999967 6.327187011249947  3.92057665999996 5.671812002500019  C 3.8011099840000195 5.174811985000019  3.7721767533332695 5.096937046250019  3.6583100866666425 4.715437063750002  C 3.537910095999966 4.309437072499961  3.4763100959999367 4.025061950000023  3.3633767719999623 3.5945619412499497  C 3.284976772000012 3.290061949999995  3.1440434106667 2.667936845  3.105776743999983 2.3179368450000197  C 3.0525767439999676 1.8393118537500044  3.0245766786666084 1.058811885250023  3.3521766879999477 0.7000618887500138  C 3.6088433640000406 0.41918688013994654  4.1977766226666215 0.334311890674968  4.562709956000027 0.5075618896249807  C 5.0405766506666625 0.7341868922499657  5.312176501333367 1.3851869062499418  5.43630983466663 1.6450618974999571  C 5.659376501333327 2.112311879999936  5.797510096000011 2.652186976249979  5.917910086666688 3.3609369762500307  C 6.0709767626666835 4.26306199375  6.352843270666684 5.515186774999961  6.362176604000009 5.778561775  C 6.38457660400001 5.455686783749982  6.298710198666686 4.775811774999937  6.358443541333327 4.466061775  C 6.412576865333313 4.18518676624997  6.664576771999995 3.858811923749954  6.980043438666629 3.770436914999948  C 7.246976781333357 3.6960619150000156  7.55964334533331 3.6689368625000185  7.83497666000003 3.72231186249995  C 8.12710999333335 3.7783118625000185  8.435110245333272 3.974311923750008  8.549910254666656 4.158936923750019  C 8.88777690266661 4.7049369324999475  8.894310086666655 5.8205617925000155  8.908310086666644 5.76106179250003  C 8.988576753333321 5.432061801249958  8.974577126666645 4.685686687500009  9.173377126666612 4.37506169625  C 9.304043793333374 4.170311696249968  9.637243158666706 3.9856870375000284  9.814576520000006 3.9559370287500286  C 10.08897651999999 3.9104370287500103  10.425910506666636 3.896436704999985  10.714310506666607 3.9489367049999373  C 10.94671050666663 3.9918117050000177  11.261243000000029 4.250811687499947  11.34617633333337 4.37506169625  C 11.549643 4.676061704999952  11.665376893333269 5.527436696250007  11.699910226666633 5.825811687500007  C 11.713910226666622 5.949186687499974  11.768977079999969 5.482812063749961  11.973377080000017 5.181812055000009  C 12.352310413333301 4.622687055  13.693510226666604 4.5141870462499725  13.744843559999996 5.740937002499976  C 13.768176893333308 6.313186984999959  13.763509760000034 6.286936696249953  13.763509760000034 6.67193669625  C 13.763509760000034 7.124311713749961  13.752309853333282 7.396437221249997  13.726176520000037 7.723687238749932  C 13.697243186666643 8.073687238750011  13.616976799999975 8.86468691499995  13.500310133333308 9.247936949999968  C 13.420043466666629 9.511311950000007  13.154043093333348 10.103686774999986  12.891776426666624 10.458936774999941  C 12.22350975999995 11.188103237499945  11.852976426666675 11.716894874999952  11.7801764266667 12.045311512500021  C 11.67004309333332 12.537061512500031  11.706443746666627 12.540561687499988  11.684977079999939 12.889686687499989  C 11.670665999999983 13.121853324999947  11.708310226666647 13.39076996250003  11.797909853333339 13.696436599999942  C 11.298887506666702 13.757103762499995  10.914976333333273 13.767312300000015  10.64617633333337 13.727062299999972  C 10.281242999999964 13.671937299999982  9.829509666666702 12.991186862500015  9.712842962666672 12.782936862499966  C 9.552309629333315 12.495936862499988  9.20977704266664 12.551062124999987  9.076310366666606 12.762812124999954  C 8.866310376000031 13.097937037500017  8.414576491999984 13.699062037500028  8.095376482666659 13.736687037499934  C 7.4719098346666675 13.810187037499986  6.178309909333317 13.76381159999994  5.16564320533336 13.754186599999969  C 5.280754462666634 13.164436687499958  5.210132321333337 12.76835341250002  4.953776762666681 12.565936774999955  C 4.669110086666614 12.339311774999942  4.179110058666614 11.87993721250001  3.886043382666639 11.638437212499952  L 3.1095100306666303 10.83256177499996  Z " fill-rule="evenodd" />
    </mask>
  </defs>
  <g transform="matrix(1 0 0 1 -930 -2116 )">
    <path d="M 3.1095100306666303 10.83256177499996  C 2.844443354666631 10.518436775000026  2.5224433546666054 9.876186599999954  1.9493766693333328 9.0965616175  C 1.6245766786666083 8.655561608749977  0.8191100484000344 7.825187081249993  0.5792433826666334 7.4034370812500185  C 0.37111004485336707 7.0306870812499795  0.3935100554933191 6.863561836249957  0.442976721506678 6.554686845000006  C 0.5307100521333572 6.005186827499955  1.131776792533325 5.577311748749963  1.7729767720000078 5.63506174874999  C 2.2573767626666723 5.677936748749971  2.668043457333306 5.9780618187499925  3.037643457333373 6.2615618187499535  C 3.2607101146666233 6.43218680999999  3.53511015199997 6.763811906249984  3.7003101613333302 6.951061906249933  C 3.852443494666674 7.122561906249956  3.8897766973333097 7.193436757499953  4.052176687999948 7.396436757500027  C 4.266843363999973 7.6650617662499485  4.334043569333366 7.798062011249982  4.251910235999958 7.502312011250012  C 4.185643560000032 7.0683120199999365  4.077376659999967 6.327187011249947  3.92057665999996 5.671812002500019  C 3.8011099840000195 5.174811985000019  3.7721767533332695 5.096937046250019  3.6583100866666425 4.715437063750002  C 3.537910095999966 4.309437072499961  3.4763100959999367 4.025061950000023  3.3633767719999623 3.5945619412499497  C 3.284976772000012 3.290061949999995  3.1440434106667 2.667936845  3.105776743999983 2.3179368450000197  C 3.0525767439999676 1.8393118537500044  3.0245766786666084 1.058811885250023  3.3521766879999477 0.7000618887500138  C 3.6088433640000406 0.41918688013994654  4.1977766226666215 0.334311890674968  4.562709956000027 0.5075618896249807  C 5.0405766506666625 0.7341868922499657  5.312176501333367 1.3851869062499418  5.43630983466663 1.6450618974999571  C 5.659376501333327 2.112311879999936  5.797510096000011 2.652186976249979  5.917910086666688 3.3609369762500307  C 6.0709767626666835 4.26306199375  6.352843270666684 5.515186774999961  6.362176604000009 5.778561775  C 6.38457660400001 5.455686783749982  6.298710198666686 4.775811774999937  6.358443541333327 4.466061775  C 6.412576865333313 4.18518676624997  6.664576771999995 3.858811923749954  6.980043438666629 3.770436914999948  C 7.246976781333357 3.6960619150000156  7.55964334533331 3.6689368625000185  7.83497666000003 3.72231186249995  C 8.12710999333335 3.7783118625000185  8.435110245333272 3.974311923750008  8.549910254666656 4.158936923750019  C 8.88777690266661 4.7049369324999475  8.894310086666655 5.8205617925000155  8.908310086666644 5.76106179250003  C 8.988576753333321 5.432061801249958  8.974577126666645 4.685686687500009  9.173377126666612 4.37506169625  C 9.304043793333374 4.170311696249968  9.637243158666706 3.9856870375000284  9.814576520000006 3.9559370287500286  C 10.08897651999999 3.9104370287500103  10.425910506666636 3.896436704999985  10.714310506666607 3.9489367049999373  C 10.94671050666663 3.9918117050000177  11.261243000000029 4.250811687499947  11.34617633333337 4.37506169625  C 11.549643 4.676061704999952  11.665376893333269 5.527436696250007  11.699910226666633 5.825811687500007  C 11.713910226666622 5.949186687499974  11.768977079999969 5.482812063749961  11.973377080000017 5.181812055000009  C 12.352310413333301 4.622687055  13.693510226666604 4.5141870462499725  13.744843559999996 5.740937002499976  C 13.768176893333308 6.313186984999959  13.763509760000034 6.286936696249953  13.763509760000034 6.67193669625  C 13.763509760000034 7.124311713749961  13.752309853333282 7.396437221249997  13.726176520000037 7.723687238749932  C 13.697243186666643 8.073687238750011  13.616976799999975 8.86468691499995  13.500310133333308 9.247936949999968  C 13.420043466666629 9.511311950000007  13.154043093333348 10.103686774999986  12.891776426666624 10.458936774999941  C 12.22350975999995 11.188103237499945  11.852976426666675 11.716894874999952  11.7801764266667 12.045311512500021  C 11.67004309333332 12.537061512500031  11.706443746666627 12.540561687499988  11.684977079999939 12.889686687499989  C 11.670665999999983 13.121853324999947  11.708310226666647 13.39076996250003  11.797909853333339 13.696436599999942  C 11.298887506666702 13.757103762499995  10.914976333333273 13.767312300000015  10.64617633333337 13.727062299999972  C 10.281242999999964 13.671937299999982  9.829509666666702 12.991186862500015  9.712842962666672 12.782936862499966  C 9.552309629333315 12.495936862499988  9.20977704266664 12.551062124999987  9.076310366666606 12.762812124999954  C 8.866310376000031 13.097937037500017  8.414576491999984 13.699062037500028  8.095376482666659 13.736687037499934  C 7.4719098346666675 13.810187037499986  6.178309909333317 13.76381159999994  5.16564320533336 13.754186599999969  C 5.280754462666634 13.164436687499958  5.210132321333337 12.76835341250002  4.953776762666681 12.565936774999955  C 4.669110086666614 12.339311774999942  4.179110058666614 11.87993721250001  3.886043382666639 11.638437212499952  L 3.1095100306666303 10.83256177499996  Z " fill-rule="nonzero" fill="rgba(255, 255, 255, 1)" stroke="none" transform="matrix(1 0 0 1 930 2116 )" class="fill" />
    <path d="M 3.1095100306666303 10.83256177499996  C 2.844443354666631 10.518436775000026  2.5224433546666054 9.876186599999954  1.9493766693333328 9.0965616175  C 1.6245766786666083 8.655561608749977  0.8191100484000344 7.825187081249993  0.5792433826666334 7.4034370812500185  C 0.37111004485336707 7.0306870812499795  0.3935100554933191 6.863561836249957  0.442976721506678 6.554686845000006  C 0.5307100521333572 6.005186827499955  1.131776792533325 5.577311748749963  1.7729767720000078 5.63506174874999  C 2.2573767626666723 5.677936748749971  2.668043457333306 5.9780618187499925  3.037643457333373 6.2615618187499535  C 3.2607101146666233 6.43218680999999  3.53511015199997 6.763811906249984  3.7003101613333302 6.951061906249933  C 3.852443494666674 7.122561906249956  3.8897766973333097 7.193436757499953  4.052176687999948 7.396436757500027  C 4.266843363999973 7.6650617662499485  4.334043569333366 7.798062011249982  4.251910235999958 7.502312011250012  C 4.185643560000032 7.0683120199999365  4.077376659999967 6.327187011249947  3.92057665999996 5.671812002500019  C 3.8011099840000195 5.174811985000019  3.7721767533332695 5.096937046250019  3.6583100866666425 4.715437063750002  C 3.537910095999966 4.309437072499961  3.4763100959999367 4.025061950000023  3.3633767719999623 3.5945619412499497  C 3.284976772000012 3.290061949999995  3.1440434106667 2.667936845  3.105776743999983 2.3179368450000197  C 3.0525767439999676 1.8393118537500044  3.0245766786666084 1.058811885250023  3.3521766879999477 0.7000618887500138  C 3.6088433640000406 0.41918688013994654  4.1977766226666215 0.334311890674968  4.562709956000027 0.5075618896249807  C 5.0405766506666625 0.7341868922499657  5.312176501333367 1.3851869062499418  5.43630983466663 1.6450618974999571  C 5.659376501333327 2.112311879999936  5.797510096000011 2.652186976249979  5.917910086666688 3.3609369762500307  C 6.0709767626666835 4.26306199375  6.352843270666684 5.515186774999961  6.362176604000009 5.778561775  C 6.38457660400001 5.455686783749982  6.298710198666686 4.775811774999937  6.358443541333327 4.466061775  C 6.412576865333313 4.18518676624997  6.664576771999995 3.858811923749954  6.980043438666629 3.770436914999948  C 7.246976781333357 3.6960619150000156  7.55964334533331 3.6689368625000185  7.83497666000003 3.72231186249995  C 8.12710999333335 3.7783118625000185  8.435110245333272 3.974311923750008  8.549910254666656 4.158936923750019  C 8.88777690266661 4.7049369324999475  8.894310086666655 5.8205617925000155  8.908310086666644 5.76106179250003  C 8.988576753333321 5.432061801249958  8.974577126666645 4.685686687500009  9.173377126666612 4.37506169625  C 9.304043793333374 4.170311696249968  9.637243158666706 3.9856870375000284  9.814576520000006 3.9559370287500286  C 10.08897651999999 3.9104370287500103  10.425910506666636 3.896436704999985  10.714310506666607 3.9489367049999373  C 10.94671050666663 3.9918117050000177  11.261243000000029 4.250811687499947  11.34617633333337 4.37506169625  C 11.549643 4.676061704999952  11.665376893333269 5.527436696250007  11.699910226666633 5.825811687500007  C 11.713910226666622 5.949186687499974  11.768977079999969 5.482812063749961  11.973377080000017 5.181812055000009  C 12.352310413333301 4.622687055  13.693510226666604 4.5141870462499725  13.744843559999996 5.740937002499976  C 13.768176893333308 6.313186984999959  13.763509760000034 6.286936696249953  13.763509760000034 6.67193669625  C 13.763509760000034 7.124311713749961  13.752309853333282 7.396437221249997  13.726176520000037 7.723687238749932  C 13.697243186666643 8.073687238750011  13.616976799999975 8.86468691499995  13.500310133333308 9.247936949999968  C 13.420043466666629 9.511311950000007  13.154043093333348 10.103686774999986  12.891776426666624 10.458936774999941  C 12.22350975999995 11.188103237499945  11.852976426666675 11.716894874999952  11.7801764266667 12.045311512500021  C 11.67004309333332 12.537061512500031  11.706443746666627 12.540561687499988  11.684977079999939 12.889686687499989  C 11.670665999999983 13.121853324999947  11.708310226666647 13.39076996250003  11.797909853333339 13.696436599999942  C 11.298887506666702 13.757103762499995  10.914976333333273 13.767312300000015  10.64617633333337 13.727062299999972  C 10.281242999999964 13.671937299999982  9.829509666666702 12.991186862500015  9.712842962666672 12.782936862499966  C 9.552309629333315 12.495936862499988  9.20977704266664 12.551062124999987  9.076310366666606 12.762812124999954  C 8.866310376000031 13.097937037500017  8.414576491999984 13.699062037500028  8.095376482666659 13.736687037499934  C 7.4719098346666675 13.810187037499986  6.178309909333317 13.76381159999994  5.16564320533336 13.754186599999969  C 5.280754462666634 13.164436687499958  5.210132321333337 12.76835341250002  4.953776762666681 12.565936774999955  C 4.669110086666614 12.339311774999942  4.179110058666614 11.87993721250001  3.886043382666639 11.638437212499952  L 3.1095100306666303 10.83256177499996  Z " stroke-width="0" stroke-dasharray="0" stroke="rgba(255, 255, 255, 0)" fill="none" transform="matrix(1 0 0 1 930 2116 )" class="stroke" mask="url(#Clip892)" />
  </g>
</svg>