<?xml version="1.0" encoding="utf-8"?>
<svg version="1.1" xmlns:xlink="http://www.w3.org/1999/xlink" width="2px" height="9px" xmlns="http://www.w3.org/2000/svg">
  <defs>
    <pattern id="BGPattern" patternUnits="userSpaceOnUse" alignment="0 0" imageRepeat="None" />
    <mask fill="white" id="Clip2929">
      <path d="M 1 1.5  C 1.552246089999926 1.5  2 1.1642074575000052  2 0.75  C 2 0.3357925424999948  1.552246089999926 0  1 0  C 0.44775391000007403 0  0 0.3357925424999948  0 0.75  C 0 1.1642074575000052  0.44775391000007403 1.5  1 1.5  Z M 1 5.25  C 1.552246089999926 5.25  2 4.914207457500005  2 4.5  C 2 4.085792542499995  1.552246089999926 3.75  1 3.75  C 0.44775391000007403 3.75  0 4.085792542499995  0 4.5  C 0 4.914207457500005  0.44775391000007403 5.25  1 5.25  Z M 2 8.25  C 2 8.66420745  1.552246089999926 9  1 9  C 0.44775391000007403 9  0 8.66420745  0 8.25  C 0 7.835792550000001  0.44775391000007403 7.5  1 7.5  C 1.552246089999926 7.5  2 7.835792550000001  2 8.25  Z " fill-rule="evenodd" />
    </mask>
  </defs>
  <g transform="matrix(1 0 0 1 -1766 -145 )">
    <path d="M 1 1.5  C 1.552246089999926 1.5  2 1.1642074575000052  2 0.75  C 2 0.3357925424999948  1.552246089999926 0  1 0  C 0.44775391000007403 0  0 0.3357925424999948  0 0.75  C 0 1.1642074575000052  0.44775391000007403 1.5  1 1.5  Z M 1 5.25  C 1.552246089999926 5.25  2 4.914207457500005  2 4.5  C 2 4.085792542499995  1.552246089999926 3.75  1 3.75  C 0.44775391000007403 3.75  0 4.085792542499995  0 4.5  C 0 4.914207457500005  0.44775391000007403 5.25  1 5.25  Z M 2 8.25  C 2 8.66420745  1.552246089999926 9  1 9  C 0.44775391000007403 9  0 8.66420745  0 8.25  C 0 7.835792550000001  0.44775391000007403 7.5  1 7.5  C 1.552246089999926 7.5  2 7.835792550000001  2 8.25  Z " fill-rule="nonzero" fill="rgba(255, 255, 255, 1)" stroke="none" transform="matrix(1 0 0 1 1766 145 )" class="fill" />
    <path d="M 1 1.5  C 1.552246089999926 1.5  2 1.1642074575000052  2 0.75  C 2 0.3357925424999948  1.552246089999926 0  1 0  C 0.44775391000007403 0  0 0.3357925424999948  0 0.75  C 0 1.1642074575000052  0.44775391000007403 1.5  1 1.5  Z " stroke-width="0" stroke-dasharray="0" stroke="rgba(255, 255, 255, 0)" fill="none" transform="matrix(1 0 0 1 1766 145 )" class="stroke" mask="url(#Clip2929)" />
    <path d="M 1 5.25  C 1.552246089999926 5.25  2 4.914207457500005  2 4.5  C 2 4.085792542499995  1.552246089999926 3.75  1 3.75  C 0.44775391000007403 3.75  0 4.085792542499995  0 4.5  C 0 4.914207457500005  0.44775391000007403 5.25  1 5.25  Z " stroke-width="0" stroke-dasharray="0" stroke="rgba(255, 255, 255, 0)" fill="none" transform="matrix(1 0 0 1 1766 145 )" class="stroke" mask="url(#Clip2929)" />
    <path d="M 2 8.25  C 2 8.66420745  1.552246089999926 9  1 9  C 0.44775391000007403 9  0 8.66420745  0 8.25  C 0 7.835792550000001  0.44775391000007403 7.5  1 7.5  C 1.552246089999926 7.5  2 7.835792550000001  2 8.25  Z " stroke-width="0" stroke-dasharray="0" stroke="rgba(255, 255, 255, 0)" fill="none" transform="matrix(1 0 0 1 1766 145 )" class="stroke" mask="url(#Clip2929)" />
  </g>
</svg>