<?xml version="1.0" encoding="utf-8"?>
<svg version="1.1" xmlns:xlink="http://www.w3.org/1999/xlink" width="2px" height="11px" xmlns="http://www.w3.org/2000/svg">
  <defs>
    <pattern id="BGPattern" patternUnits="userSpaceOnUse" alignment="0 0" imageRepeat="None" />
    <mask fill="white" id="Clip966">
      <path d="M 1 1.8333333333333333  C 1.552246089999926 1.8333333333333333  2 1.4229202258333398  2 0.9166666666666666  C 2 0.41041310749999366  1.552246089999926 0  1 0  C 0.44775391000007403 0  0 0.41041310749999366  0 0.9166666666666666  C 0 1.4229202258333398  0.44775391000007403 1.8333333333333333  1 1.8333333333333333  Z M 1 6.416666666666667  C 1.552246089999926 6.416666666666667  2 6.006253559166673  2 5.5  C 2 4.993746440833327  1.552246089999926 4.583333333333334  1 4.583333333333334  C 0.44775391000007403 4.583333333333334  0 4.993746440833327  0 5.5  C 0 6.006253559166673  0.44775391000007403 6.416666666666667  1 6.416666666666667  Z M 2 10.083333333333332  C 2 10.589586883333332  1.552246089999926 11  1 11  C 0.44775391000007403 11  0 10.589586883333332  0 10.083333333333332  C 0 9.577079783333335  0.44775391000007403 9.166666666666668  1 9.166666666666668  C 1.552246089999926 9.166666666666668  2 9.577079783333335  2 10.083333333333332  Z " fill-rule="evenodd" />
    </mask>
  </defs>
  <g transform="matrix(1 0 0 1 -1854 -167 )">
    <path d="M 1 1.8333333333333333  C 1.552246089999926 1.8333333333333333  2 1.4229202258333398  2 0.9166666666666666  C 2 0.41041310749999366  1.552246089999926 0  1 0  C 0.44775391000007403 0  0 0.41041310749999366  0 0.9166666666666666  C 0 1.4229202258333398  0.44775391000007403 1.8333333333333333  1 1.8333333333333333  Z M 1 6.416666666666667  C 1.552246089999926 6.416666666666667  2 6.006253559166673  2 5.5  C 2 4.993746440833327  1.552246089999926 4.583333333333334  1 4.583333333333334  C 0.44775391000007403 4.583333333333334  0 4.993746440833327  0 5.5  C 0 6.006253559166673  0.44775391000007403 6.416666666666667  1 6.416666666666667  Z M 2 10.083333333333332  C 2 10.589586883333332  1.552246089999926 11  1 11  C 0.44775391000007403 11  0 10.589586883333332  0 10.083333333333332  C 0 9.577079783333335  0.44775391000007403 9.166666666666668  1 9.166666666666668  C 1.552246089999926 9.166666666666668  2 9.577079783333335  2 10.083333333333332  Z " fill-rule="nonzero" fill="rgba(255, 255, 255, 1)" stroke="none" transform="matrix(1 0 0 1 1854 167 )" class="fill" />
    <path d="M 1 1.8333333333333333  C 1.552246089999926 1.8333333333333333  2 1.4229202258333398  2 0.9166666666666666  C 2 0.41041310749999366  1.552246089999926 0  1 0  C 0.44775391000007403 0  0 0.41041310749999366  0 0.9166666666666666  C 0 1.4229202258333398  0.44775391000007403 1.8333333333333333  1 1.8333333333333333  Z " stroke-width="0" stroke-dasharray="0" stroke="rgba(255, 255, 255, 0)" fill="none" transform="matrix(1 0 0 1 1854 167 )" class="stroke" mask="url(#Clip966)" />
    <path d="M 1 6.416666666666667  C 1.552246089999926 6.416666666666667  2 6.006253559166673  2 5.5  C 2 4.993746440833327  1.552246089999926 4.583333333333334  1 4.583333333333334  C 0.44775391000007403 4.583333333333334  0 4.993746440833327  0 5.5  C 0 6.006253559166673  0.44775391000007403 6.416666666666667  1 6.416666666666667  Z " stroke-width="0" stroke-dasharray="0" stroke="rgba(255, 255, 255, 0)" fill="none" transform="matrix(1 0 0 1 1854 167 )" class="stroke" mask="url(#Clip966)" />
    <path d="M 2 10.083333333333332  C 2 10.589586883333332  1.552246089999926 11  1 11  C 0.44775391000007403 11  0 10.589586883333332  0 10.083333333333332  C 0 9.577079783333335  0.44775391000007403 9.166666666666668  1 9.166666666666668  C 1.552246089999926 9.166666666666668  2 9.577079783333335  2 10.083333333333332  Z " stroke-width="0" stroke-dasharray="0" stroke="rgba(255, 255, 255, 0)" fill="none" transform="matrix(1 0 0 1 1854 167 )" class="stroke" mask="url(#Clip966)" />
  </g>
</svg>