<?xml version="1.0" encoding="utf-8"?>
<svg version="1.1" xmlns:xlink="http://www.w3.org/1999/xlink" width="1178px" height="346px" xmlns="http://www.w3.org/2000/svg">
  <defs>
    <pattern id="BGPattern" patternUnits="userSpaceOnUse" alignment="0 0" imageRepeat="None" />
    <mask fill="white" id="Clip866">
      <path d="M 1171.1272430668841 0  C 1172.7138188417618 0  1174 1.2482495828804263  1174 2.7880434782608696  L 1174 339.2119565217391  C 1174 340.7517501847827  1172.7138188417618 342  1171.1272430668841 342  L 2.8727569331158236 342  C 1.286177088499203 342  0 340.7517501847827  0 339.2119565217391  L 0 2.7880434782608696  C 0 1.2482495828804263  1.286177088499203 0  2.8727569331158236 0  L 1171.1272430668841 0  Z " fill-rule="evenodd" />
    </mask>
  </defs>
  <g transform="matrix(1 0 0 1 -493 -1569 )">
    <path d="M 1171.1272430668841 0  C 1172.7138188417618 0  1174 1.2482495828804263  1174 2.7880434782608696  L 1174 339.2119565217391  C 1174 340.7517501847827  1172.7138188417618 342  1171.1272430668841 342  L 2.8727569331158236 342  C 1.286177088499203 342  0 340.7517501847827  0 339.2119565217391  L 0 2.7880434782608696  C 0 1.2482495828804263  1.286177088499203 0  2.8727569331158236 0  L 1171.1272430668841 0  Z " fill-rule="nonzero" fill="rgba(255, 255, 255, 0.9921568627450981)" stroke="none" transform="matrix(1 0 0 1 495 1570 )" class="fill" />
    <path d="M 1171.1272430668841 0  C 1172.7138188417618 0  1174 1.2482495828804263  1174 2.7880434782608696  L 1174 339.2119565217391  C 1174 340.7517501847827  1172.7138188417618 342  1171.1272430668841 342  L 2.8727569331158236 342  C 1.286177088499203 342  0 340.7517501847827  0 339.2119565217391  L 0 2.7880434782608696  C 0 1.2482495828804263  1.286177088499203 0  2.8727569331158236 0  L 1171.1272430668841 0  Z " stroke-width="0" stroke-dasharray="0" stroke="rgba(255, 255, 255, 0)" fill="none" transform="matrix(1 0 0 1 495 1570 )" class="stroke" mask="url(#Clip866)" />
  </g>
  <style>svg { filter: drop-shadow(0px 1px 1px rgba(0, 0, 0, 0.09803921568627451)); }</style>
</svg>