<?xml version="1.0" encoding="utf-8"?>
<svg version="1.1" xmlns:xlink="http://www.w3.org/1999/xlink" width="1178px" height="80px" xmlns="http://www.w3.org/2000/svg">
  <defs>
    <pattern id="BGPattern" patternUnits="userSpaceOnUse" alignment="0 0" imageRepeat="None" />
    <mask fill="white" id="Clip865">
      <path d="M 1171.1272430668841 0  C 1172.7138188417618 0  1174 1.1095551847826128  1174 2.4782608695652173  L 1174 73.52173913043478  C 1174 74.89044477391303  1172.7138188417618 76  1171.1272430668841 76  L 2.8727569331158236 76  C 1.286177088499203 76  0 74.89044477391303  0 73.52173913043478  L 0 2.4782608695652173  C 0 1.1095551847826128  1.286177088499203 0  2.8727569331158236 0  L 1171.1272430668841 0  Z " fill-rule="evenodd" />
    </mask>
  </defs>
  <g transform="matrix(1 0 0 1 -493 -1477 )">
    <path d="M 1171.1272430668841 0  C 1172.7138188417618 0  1174 1.1095551847826128  1174 2.4782608695652173  L 1174 73.52173913043478  C 1174 74.89044477391303  1172.7138188417618 76  1171.1272430668841 76  L 2.8727569331158236 76  C 1.286177088499203 76  0 74.89044477391303  0 73.52173913043478  L 0 2.4782608695652173  C 0 1.1095551847826128  1.286177088499203 0  2.8727569331158236 0  L 1171.1272430668841 0  Z " fill-rule="nonzero" fill="rgba(255, 255, 255, 1)" stroke="none" transform="matrix(1 0 0 1 495 1478 )" class="fill" />
    <path d="M 1171.1272430668841 0  C 1172.7138188417618 0  1174 1.1095551847826128  1174 2.4782608695652173  L 1174 73.52173913043478  C 1174 74.89044477391303  1172.7138188417618 76  1171.1272430668841 76  L 2.8727569331158236 76  C 1.286177088499203 76  0 74.89044477391303  0 73.52173913043478  L 0 2.4782608695652173  C 0 1.1095551847826128  1.286177088499203 0  2.8727569331158236 0  L 1171.1272430668841 0  Z " stroke-width="0" stroke-dasharray="0" stroke="rgba(255, 255, 255, 0)" fill="none" transform="matrix(1 0 0 1 495 1478 )" class="stroke" mask="url(#Clip865)" />
  </g>
  <style>svg { filter: drop-shadow(0px 1px 1px rgba(0, 0, 0, 0.09803921568627451)); }</style>
</svg>