<?xml version="1.0" encoding="utf-8"?>
<svg version="1.1" xmlns:xlink="http://www.w3.org/1999/xlink" width="1059px" height="282px" xmlns="http://www.w3.org/2000/svg">
  <defs>
    <pattern id="BGPattern" patternUnits="userSpaceOnUse" alignment="0 0" imageRepeat="None" />
    <mask fill="white" id="Clip598">
      <path d="M 1052.4184339314845 0  C 1053.8441898450246 0  1055 1.0146590176630366  1055 2.266304347826087  L 1055 275.73369565217394  C 1055 276.9853407934783  1053.8441898450246 278  1052.4184339314845 278  L 2.5815660685154973 278  C 1.1558064977569498 278  0 276.9853407934783  0 275.73369565217394  L 0 2.266304347826087  C 0 1.0146590176630366  1.1558064977569498 0  2.5815660685154973 0  L 1052.4184339314845 0  Z " fill-rule="evenodd" />
    </mask>
  </defs>
  <g transform="matrix(1 0 0 1 -376 -223 )">
    <path d="M 1052.4184339314845 0  C 1053.8441898450246 0  1055 1.0146590176630366  1055 2.266304347826087  L 1055 275.73369565217394  C 1055 276.9853407934783  1053.8441898450246 278  1052.4184339314845 278  L 2.5815660685154973 278  C 1.1558064977569498 278  0 276.9853407934783  0 275.73369565217394  L 0 2.266304347826087  C 0 1.0146590176630366  1.1558064977569498 0  2.5815660685154973 0  L 1052.4184339314845 0  Z " fill-rule="nonzero" fill="rgba(255, 255, 255, 0.9921568627450981)" stroke="none" transform="matrix(1 0 0 1 378 224 )" class="fill" />
    <path d="M 1052.4184339314845 0  C 1053.8441898450246 0  1055 1.0146590176630366  1055 2.266304347826087  L 1055 275.73369565217394  C 1055 276.9853407934783  1053.8441898450246 278  1052.4184339314845 278  L 2.5815660685154973 278  C 1.1558064977569498 278  0 276.9853407934783  0 275.73369565217394  L 0 2.266304347826087  C 0 1.0146590176630366  1.1558064977569498 0  2.5815660685154973 0  L 1052.4184339314845 0  Z " stroke-width="0" stroke-dasharray="0" stroke="rgba(255, 255, 255, 0.9921568627450981)" fill="none" transform="matrix(1 0 0 1 378 224 )" class="stroke" mask="url(#Clip598)" />
  </g>
  <style>svg { filter: drop-shadow(0px 1px 1px rgba(0, 0, 0, 0.09803921568627451)); }</style>
</svg>