<?xml version="1.0" encoding="utf-8"?>
<svg version="1.1" xmlns:xlink="http://www.w3.org/1999/xlink" width="357px" height="253px" xmlns="http://www.w3.org/2000/svg">
  <defs>
    <pattern id="BGPattern" patternUnits="userSpaceOnUse" alignment="0 0" imageRepeat="None" />
    <mask fill="white" id="Clip965">
      <path d="M 350.3391959798995 0  C 351.80871369346744 0  353 1.185969163829789  353 2.648936170212766  L 353 246.35106382978725  C 353 247.81403065957448  351.80871369346744 249  350.3391959798995 249  L 2.6608040201005023 249  C 1.1912863065325952 249  0 247.81403065957448  0 246.35106382978725  L 0 2.648936170212766  C 0 1.185969163829789  1.1912863065325952 0  2.6608040201005023 0  L 350.3391959798995 0  Z " fill-rule="evenodd" />
    </mask>
  </defs>
  <g transform="matrix(1 0 0 1 -1542 -136 )">
    <path d="M 350.3391959798995 0  C 351.80871369346744 0  353 1.185969163829789  353 2.648936170212766  L 353 246.35106382978725  C 353 247.81403065957448  351.80871369346744 249  350.3391959798995 249  L 2.6608040201005023 249  C 1.1912863065325952 249  0 247.81403065957448  0 246.35106382978725  L 0 2.648936170212766  C 0 1.185969163829789  1.1912863065325952 0  2.6608040201005023 0  L 350.3391959798995 0  Z " fill-rule="nonzero" fill="rgba(129, 211, 248, 0.792156862745098)" stroke="none" transform="matrix(1 0 0 1 1544 137 )" class="fill" />
    <path d="M 350.3391959798995 0  C 351.80871369346744 0  353 1.185969163829789  353 2.648936170212766  L 353 246.35106382978725  C 353 247.81403065957448  351.80871369346744 249  350.3391959798995 249  L 2.6608040201005023 249  C 1.1912863065325952 249  0 247.81403065957448  0 246.35106382978725  L 0 2.648936170212766  C 0 1.185969163829789  1.1912863065325952 0  2.6608040201005023 0  L 350.3391959798995 0  Z " stroke-width="0" stroke-dasharray="0" stroke="rgba(255, 255, 255, 0)" fill="none" transform="matrix(1 0 0 1 1544 137 )" class="stroke" mask="url(#Clip965)" />
  </g>
  <style>svg { filter: drop-shadow(0px 1px 1px rgba(0, 0, 0, 0.09803921568627451)); }</style>
</svg>