<?xml version="1.0" encoding="utf-8"?>
<svg version="1.1" xmlns:xlink="http://www.w3.org/1999/xlink" width="1059px" height="365px" xmlns="http://www.w3.org/2000/svg">
  <defs>
    <pattern id="BGPattern" patternUnits="userSpaceOnUse" alignment="0 0" imageRepeat="None" />
    <mask fill="white" id="Clip2886">
      <path d="M 1052.4184339314845 0  C 1053.8441898450246 0  1055 0.8995838701299016  1055 2.0092764378478662  L 1055 358.99072356215214  C 1055 360.10041345083494  1053.8441898450246 361  1052.4184339314845 361  L 2.5815660685154973 361  C 1.1558067128874305 361  0 360.10041345083494  0 358.99072356215214  L 0 2.0092764378478662  C 0 0.8995838701299016  1.1558067128874305 0  2.5815660685154973 0  L 1052.4184339314845 0  Z " fill-rule="evenodd" />
    </mask>
  </defs>
  <g transform="matrix(1 0 0 1 -376 -533 )">
    <path d="M 1052.4184339314845 0  C 1053.8441898450246 0  1055 0.8995838701299016  1055 2.0092764378478662  L 1055 358.99072356215214  C 1055 360.10041345083494  1053.8441898450246 361  1052.4184339314845 361  L 2.5815660685154973 361  C 1.1558067128874305 361  0 360.10041345083494  0 358.99072356215214  L 0 2.0092764378478662  C 0 0.8995838701299016  1.1558067128874305 0  2.5815660685154973 0  L 1052.4184339314845 0  Z " fill-rule="nonzero" fill="rgba(255, 255, 255, 1)" stroke="none" transform="matrix(1 0 0 1 378 534 )" class="fill" />
    <path d="M 1052.4184339314845 0  C 1053.8441898450246 0  1055 0.8995838701299016  1055 2.0092764378478662  L 1055 358.99072356215214  C 1055 360.10041345083494  1053.8441898450246 361  1052.4184339314845 361  L 2.5815660685154973 361  C 1.1558067128874305 361  0 360.10041345083494  0 358.99072356215214  L 0 2.0092764378478662  C 0 0.8995838701299016  1.1558067128874305 0  2.5815660685154973 0  L 1052.4184339314845 0  Z " stroke-width="0" stroke-dasharray="0" stroke="rgba(255, 255, 255, 0)" fill="none" transform="matrix(1 0 0 1 378 534 )" class="stroke" mask="url(#Clip2886)" />
  </g>
  <style>svg { filter: drop-shadow(0px 1px 1px rgba(0, 0, 0, 0.09803921568627451)); }</style>
</svg>