<?xml version="1.0" encoding="utf-8"?>
<svg version="1.1" xmlns:xlink="http://www.w3.org/1999/xlink" width="1122px" height="323px" xmlns="http://www.w3.org/2000/svg">
  <defs>
    <pattern id="BGPattern" patternUnits="userSpaceOnUse" alignment="0 0" imageRepeat="None" />
    <mask fill="white" id="Clip941">
      <path d="M 1115.2642740619901 0  C 1116.7751699021208 0  1118 1.1643029735054269  1118 2.6005434782608696  L 1118 316.3994565217391  C 1118 317.83569680978263  1116.7751699021208 319  1115.2642740619901 319  L 2.7357259380097876 319  C 1.2248262222675543 319  0 317.83569680978263  0 316.3994565217391  L 0 2.6005434782608696  C 0 1.1643029735054269  1.2248262222675543 0  2.7357259380097876 0  L 1115.2642740619901 0  Z " fill-rule="evenodd" />
    </mask>
  </defs>
  <g transform="matrix(1 0 0 1 -394 -219 )">
    <path d="M 1115.2642740619901 0  C 1116.7751699021208 0  1118 1.1643029735054269  1118 2.6005434782608696  L 1118 316.3994565217391  C 1118 317.83569680978263  1116.7751699021208 319  1115.2642740619901 319  L 2.7357259380097876 319  C 1.2248262222675543 319  0 317.83569680978263  0 316.3994565217391  L 0 2.6005434782608696  C 0 1.1643029735054269  1.2248262222675543 0  2.7357259380097876 0  L 1115.2642740619901 0  Z " fill-rule="nonzero" fill="rgba(255, 255, 255, 0.9921568627450981)" stroke="none" transform="matrix(1 0 0 1 396 220 )" class="fill" />
    <path d="M 1115.2642740619901 0  C 1116.7751699021208 0  1118 1.1643029735054269  1118 2.6005434782608696  L 1118 316.3994565217391  C 1118 317.83569680978263  1116.7751699021208 319  1115.2642740619901 319  L 2.7357259380097876 319  C 1.2248262222675543 319  0 317.83569680978263  0 316.3994565217391  L 0 2.6005434782608696  C 0 1.1643029735054269  1.2248262222675543 0  2.7357259380097876 0  L 1115.2642740619901 0  Z " stroke-width="0" stroke-dasharray="0" stroke="rgba(255, 255, 255, 0)" fill="none" transform="matrix(1 0 0 1 396 220 )" class="stroke" mask="url(#Clip941)" />
  </g>
  <style>svg { filter: drop-shadow(0px 1px 1px rgba(0, 0, 0, 0.09803921568627451)); }</style>
</svg>