<?xml version="1.0" encoding="utf-8"?>
<svg version="1.1" xmlns:xlink="http://www.w3.org/1999/xlink" width="1494px" height="872px" xmlns="http://www.w3.org/2000/svg">
  <defs>
    <pattern id="BGPattern" patternUnits="userSpaceOnUse" alignment="0 0" imageRepeat="None" />
    <mask fill="white" id="Clip596">
      <path d="M 0 872  L 0 67.36443381180231  L 0 60.26856240126382  L 0 0  L 1494 0  L 1494 509.8725348725349  L 1494 872  L 0 872  Z " fill-rule="evenodd" />
    </mask>
  </defs>
  <g transform="matrix(1 0 0 1 -349 -81 )">
    <path d="M 0 872  L 0 67.36443381180231  L 0 60.26856240126382  L 0 0  L 1494 0  L 1494 509.8725348725349  L 1494 872  L 0 872  Z " fill-rule="nonzero" fill="rgba(242, 242, 242, 0.5764705882352941)" stroke="none" transform="matrix(1 0 0 1 349 81 )" class="fill" />
    <path d="M 0 872  L 0 67.36443381180231  L 0 60.26856240126382  L 0 0  L 1494 0  L 1494 509.8725348725349  L 1494 872  L 0 872  Z " stroke-width="0" stroke-dasharray="0" stroke="rgba(0, 0, 0, 1)" fill="none" transform="matrix(1 0 0 1 349 81 )" class="stroke" mask="url(#Clip596)" />
  </g>
</svg>