<?xml version="1.0" encoding="utf-8"?>
<svg version="1.1" xmlns:xlink="http://www.w3.org/1999/xlink" width="374px" height="505px" xmlns="http://www.w3.org/2000/svg">
  <defs>
    <pattern id="BGPattern" patternUnits="userSpaceOnUse" alignment="0 0" imageRepeat="None" />
    <mask fill="white" id="Clip868">
      <path d="M 367.2110552763819 0  C 368.7513466834171 0  370 1.7343196411082724  370 3.8737113402061856  L 370 497.12628865979383  C 370 499.2656800360826  368.7513466834171 501  367.2110552763819 501  L 2.78894472361809 501  C 1.248653084170925 501  0 499.2656800360826  0 497.12628865979383  L 0 3.8737113402061856  C 0 1.7343196411082724  1.248653084170925 0  2.78894472361809 0  L 367.2110552763819 0  Z " fill-rule="evenodd" />
    </mask>
  </defs>
  <g transform="matrix(1 0 0 1 -1699 -1775 )">
    <path d="M 367.2110552763819 0  C 368.7513466834171 0  370 1.7343196411082724  370 3.8737113402061856  L 370 497.12628865979383  C 370 499.2656800360826  368.7513466834171 501  367.2110552763819 501  L 2.78894472361809 501  C 1.248653084170925 501  0 499.2656800360826  0 497.12628865979383  L 0 3.8737113402061856  C 0 1.7343196411082724  1.248653084170925 0  2.78894472361809 0  L 367.2110552763819 0  Z " fill-rule="nonzero" fill="rgba(255, 255, 255, 1)" stroke="none" transform="matrix(1 0 0 1 1701 1776 )" class="fill" />
    <path d="M 367.2110552763819 0  C 368.7513466834171 0  370 1.7343196411082724  370 3.8737113402061856  L 370 497.12628865979383  C 370 499.2656800360826  368.7513466834171 501  367.2110552763819 501  L 2.78894472361809 501  C 1.248653084170925 501  0 499.2656800360826  0 497.12628865979383  L 0 3.8737113402061856  C 0 1.7343196411082724  1.248653084170925 0  2.78894472361809 0  L 367.2110552763819 0  Z " stroke-width="0" stroke-dasharray="0" stroke="rgba(255, 255, 255, 0)" fill="none" transform="matrix(1 0 0 1 1701 1776 )" class="stroke" mask="url(#Clip868)" />
  </g>
  <style>svg { filter: drop-shadow(0px 1px 1px rgba(0, 0, 0, 0.09803921568627451)); }</style>
</svg>