<?xml version="1.0" encoding="utf-8"?>
<svg version="1.1" xmlns:xlink="http://www.w3.org/1999/xlink" width="1122px" height="419px" xmlns="http://www.w3.org/2000/svg">
  <defs>
    <pattern id="BGPattern" patternUnits="userSpaceOnUse" alignment="0 0" imageRepeat="None" />
    <mask fill="white" id="Clip944">
      <path d="M 1115.2642740619901 0  C 1116.7751699021208 0  1118 1.0341476623376984  1118 2.3098330241187384  L 1118 412.69016697588125  C 1118 413.96584925788505  1116.7751699021208 415  1115.2642740619901 415  L 2.7357259380097876 415  C 1.2248264502446893 415  0 413.96584925788505  0 412.69016697588125  L 0 2.3098330241187384  C 0 1.0341476623376984  1.2248264502446893 0  2.7357259380097876 0  L 1115.2642740619901 0  Z " fill-rule="evenodd" />
    </mask>
  </defs>
  <g transform="matrix(1 0 0 1 -394 -550 )">
    <path d="M 1115.2642740619901 0  C 1116.7751699021208 0  1118 1.0341476623376984  1118 2.3098330241187384  L 1118 412.69016697588125  C 1118 413.96584925788505  1116.7751699021208 415  1115.2642740619901 415  L 2.7357259380097876 415  C 1.2248264502446893 415  0 413.96584925788505  0 412.69016697588125  L 0 2.3098330241187384  C 0 1.0341476623376984  1.2248264502446893 0  2.7357259380097876 0  L 1115.2642740619901 0  Z " fill-rule="nonzero" fill="rgba(255, 255, 255, 1)" stroke="none" transform="matrix(1 0 0 1 396 551 )" class="fill" />
    <path d="M 1115.2642740619901 0  C 1116.7751699021208 0  1118 1.0341476623376984  1118 2.3098330241187384  L 1118 412.69016697588125  C 1118 413.96584925788505  1116.7751699021208 415  1115.2642740619901 415  L 2.7357259380097876 415  C 1.2248264502446893 415  0 413.96584925788505  0 412.69016697588125  L 0 2.3098330241187384  C 0 1.0341476623376984  1.2248264502446893 0  2.7357259380097876 0  L 1115.2642740619901 0  Z " stroke-width="0" stroke-dasharray="0" stroke="rgba(255, 255, 255, 0)" fill="none" transform="matrix(1 0 0 1 396 551 )" class="stroke" mask="url(#Clip944)" />
  </g>
  <style>svg { filter: drop-shadow(0px 1px 1px rgba(0, 0, 0, 0.09803921568627451)); }</style>
</svg>