<?xml version="1.0" encoding="utf-8"?>
<svg version="1.1" xmlns:xlink="http://www.w3.org/1999/xlink" width="1178px" height="448px" xmlns="http://www.w3.org/2000/svg">
  <defs>
    <pattern id="BGPattern" patternUnits="userSpaceOnUse" alignment="0 0" imageRepeat="None" />
    <mask fill="white" id="Clip869">
      <path d="M 1171.1272430668841 0  C 1172.7138188417618 0  1174 1.1064134025974413  1174 2.471243042671614  L 1174 441.52875695732837  C 1174 442.89358330241197  1172.7138188417618 444  1171.1272430668841 444  L 2.8727569331158236 444  C 1.2861773278955861 444  0 442.89358330241197  0 441.52875695732837  L 0 2.471243042671614  C 0 1.1064134025974413  1.2861773278955861 0  2.8727569331158236 0  L 1171.1272430668841 0  Z " fill-rule="evenodd" />
    </mask>
  </defs>
  <g transform="matrix(1 0 0 1 -493 -1923 )">
    <path d="M 1171.1272430668841 0  C 1172.7138188417618 0  1174 1.1064134025974413  1174 2.471243042671614  L 1174 441.52875695732837  C 1174 442.89358330241197  1172.7138188417618 444  1171.1272430668841 444  L 2.8727569331158236 444  C 1.2861773278955861 444  0 442.89358330241197  0 441.52875695732837  L 0 2.471243042671614  C 0 1.1064134025974413  1.2861773278955861 0  2.8727569331158236 0  L 1171.1272430668841 0  Z " fill-rule="nonzero" fill="rgba(255, 255, 255, 1)" stroke="none" transform="matrix(1 0 0 1 495 1924 )" class="fill" />
    <path d="M 1171.1272430668841 0  C 1172.7138188417618 0  1174 1.1064134025974413  1174 2.471243042671614  L 1174 441.52875695732837  C 1174 442.89358330241197  1172.7138188417618 444  1171.1272430668841 444  L 2.8727569331158236 444  C 1.2861773278955861 444  0 442.89358330241197  0 441.52875695732837  L 0 2.471243042671614  C 0 1.1064134025974413  1.2861773278955861 0  2.8727569331158236 0  L 1171.1272430668841 0  Z " stroke-width="0" stroke-dasharray="0" stroke="rgba(255, 255, 255, 0)" fill="none" transform="matrix(1 0 0 1 495 1924 )" class="stroke" mask="url(#Clip869)" />
  </g>
  <style>svg { filter: drop-shadow(0px 1px 1px rgba(0, 0, 0, 0.09803921568627451)); }</style>
</svg>