<?xml version="1.0" encoding="utf-8"?>
<svg version="1.1" xmlns:xlink="http://www.w3.org/1999/xlink" width="1122px" height="75px" xmlns="http://www.w3.org/2000/svg">
  <defs>
    <pattern id="BGPattern" patternUnits="userSpaceOnUse" alignment="0 0" imageRepeat="None" />
    <mask fill="white" id="Clip940">
      <path d="M 1115.2642740619901 0  C 1116.7751699021208 0  1118 1.0365581331521778  1118 2.3152173913043477  L 1118 68.68478260869566  C 1118 69.96344182826087  1116.7751699021208 71  1115.2642740619901 71  L 2.7357259380097876 71  C 1.2248262222675543 71  0 69.96344182826087  0 68.68478260869566  L 0 2.3152173913043477  C 0 1.0365581331521778  1.2248262222675543 0  2.7357259380097876 0  L 1115.2642740619901 0  Z " fill-rule="evenodd" />
    </mask>
  </defs>
  <g transform="matrix(1 0 0 1 -394 -133 )">
    <path d="M 1115.2642740619901 0  C 1116.7751699021208 0  1118 1.0365581331521778  1118 2.3152173913043477  L 1118 68.68478260869566  C 1118 69.96344182826087  1116.7751699021208 71  1115.2642740619901 71  L 2.7357259380097876 71  C 1.2248262222675543 71  0 69.96344182826087  0 68.68478260869566  L 0 2.3152173913043477  C 0 1.0365581331521778  1.2248262222675543 0  2.7357259380097876 0  L 1115.2642740619901 0  Z " fill-rule="nonzero" fill="rgba(255, 255, 255, 1)" stroke="none" transform="matrix(1 0 0 1 396 134 )" class="fill" />
    <path d="M 1115.2642740619901 0  C 1116.7751699021208 0  1118 1.0365581331521778  1118 2.3152173913043477  L 1118 68.68478260869566  C 1118 69.96344182826087  1116.7751699021208 71  1115.2642740619901 71  L 2.7357259380097876 71  C 1.2248262222675543 71  0 69.96344182826087  0 68.68478260869566  L 0 2.3152173913043477  C 0 1.0365581331521778  1.2248262222675543 0  2.7357259380097876 0  L 1115.2642740619901 0  Z " stroke-width="0" stroke-dasharray="0" stroke="rgba(255, 255, 255, 0)" fill="none" transform="matrix(1 0 0 1 396 134 )" class="stroke" mask="url(#Clip940)" />
  </g>
  <style>svg { filter: drop-shadow(0px 1px 1px rgba(0, 0, 0, 0.09803921568627451)); }</style>
</svg>