<?xml version="1.0" encoding="utf-8"?>
<svg version="1.1" xmlns:xlink="http://www.w3.org/1999/xlink" width="374px" height="271px" xmlns="http://www.w3.org/2000/svg">
  <defs>
    <pattern id="BGPattern" patternUnits="userSpaceOnUse" alignment="0 0" imageRepeat="None" />
    <mask fill="white" id="Clip925">
      <path d="M 367.2110552763819 0  C 368.75134296482423 0  370 1.271701874468087  370 2.8404255319148937  L 370 264.1595744680851  C 370 265.72829793617024  368.75134296482423 267  367.2110552763819 267  L 2.78894472361809 267  C 1.248657035175808 267  0 265.72829793617024  0 264.1595744680851  L 0 2.8404255319148937  C 0 1.271701874468087  1.248657035175808 0  2.78894472361809 0  L 367.2110552763819 0  Z " fill-rule="evenodd" />
    </mask>
  </defs>
  <g transform="matrix(1 0 0 1 -1699 -1480 )">
    <path d="M 367.2110552763819 0  C 368.75134296482423 0  370 1.271701874468087  370 2.8404255319148937  L 370 264.1595744680851  C 370 265.72829793617024  368.75134296482423 267  367.2110552763819 267  L 2.78894472361809 267  C 1.248657035175808 267  0 265.72829793617024  0 264.1595744680851  L 0 2.8404255319148937  C 0 1.271701874468087  1.248657035175808 0  2.78894472361809 0  L 367.2110552763819 0  Z " fill-rule="nonzero" fill="rgba(129, 211, 248, 0.792156862745098)" stroke="none" transform="matrix(1 0 0 1 1701 1481 )" class="fill" />
    <path d="M 367.2110552763819 0  C 368.75134296482423 0  370 1.271701874468087  370 2.8404255319148937  L 370 264.1595744680851  C 370 265.72829793617024  368.75134296482423 267  367.2110552763819 267  L 2.78894472361809 267  C 1.248657035175808 267  0 265.72829793617024  0 264.1595744680851  L 0 2.8404255319148937  C 0 1.271701874468087  1.248657035175808 0  2.78894472361809 0  L 367.2110552763819 0  Z " stroke-width="0" stroke-dasharray="0" stroke="rgba(255, 255, 255, 0)" fill="none" transform="matrix(1 0 0 1 1701 1481 )" class="stroke" mask="url(#Clip925)" />
  </g>
  <style>svg { filter: drop-shadow(0px 1px 1px rgba(0, 0, 0, 0.09803921568627451)); }</style>
</svg>