<?xml version="1.0" encoding="utf-8"?>
<svg version="1.1" xmlns:xlink="http://www.w3.org/1999/xlink" width="1059px" height="66px" xmlns="http://www.w3.org/2000/svg">
  <defs>
    <pattern id="BGPattern" patternUnits="userSpaceOnUse" alignment="0 0" imageRepeat="None" />
    <mask fill="white" id="Clip2882">
      <path d="M 1052.4184339314845 0  C 1053.8441898450246 0  1055 0.9051634402173947  1055 2.0217391304347827  L 1055 59.97826086956522  C 1055 61.09483652608695  1053.8441898450246 62  1052.4184339314845 62  L 2.5815660685154973 62  C 1.1558064977569498 62  0 61.09483652608695  0 59.97826086956522  L 0 2.0217391304347827  C 0 0.9051634402173947  1.1558064977569498 0  2.5815660685154973 0  L 1052.4184339314845 0  Z " fill-rule="evenodd" />
    </mask>
  </defs>
  <g transform="matrix(1 0 0 1 -376 -144 )">
    <path d="M 1052.4184339314845 0  C 1053.8441898450246 0  1055 0.9051634402173947  1055 2.0217391304347827  L 1055 59.97826086956522  C 1055 61.09483652608695  1053.8441898450246 62  1052.4184339314845 62  L 2.5815660685154973 62  C 1.1558064977569498 62  0 61.09483652608695  0 59.97826086956522  L 0 2.0217391304347827  C 0 0.9051634402173947  1.1558064977569498 0  2.5815660685154973 0  L 1052.4184339314845 0  Z " fill-rule="nonzero" fill="rgba(255, 255, 255, 1)" stroke="none" transform="matrix(1 0 0 1 378 145 )" class="fill" />
    <path d="M 1052.4184339314845 0  C 1053.8441898450246 0  1055 0.9051634402173947  1055 2.0217391304347827  L 1055 59.97826086956522  C 1055 61.09483652608695  1053.8441898450246 62  1052.4184339314845 62  L 2.5815660685154973 62  C 1.1558064977569498 62  0 61.09483652608695  0 59.97826086956522  L 0 2.0217391304347827  C 0 0.9051634402173947  1.1558064977569498 0  2.5815660685154973 0  L 1052.4184339314845 0  Z " stroke-width="0" stroke-dasharray="0" stroke="rgba(0, 0, 0, 1)" fill="none" transform="matrix(1 0 0 1 378 145 )" class="stroke" mask="url(#Clip2882)" />
  </g>
  <style>svg { filter: drop-shadow(0px 1px 1px rgba(0, 0, 0, 0.09803921568627451)); }</style>
</svg>