<?xml version="1.0" encoding="utf-8"?>
<svg version="1.1" xmlns:xlink="http://www.w3.org/1999/xlink" width="357px" height="472px" xmlns="http://www.w3.org/2000/svg">
  <defs>
    <pattern id="BGPattern" patternUnits="userSpaceOnUse" alignment="0 0" imageRepeat="None" />
    <mask fill="white" id="Clip943">
      <path d="M 350.3391959798995 0  C 351.80871724120607 0  353 1.6200830180412604  353 3.618556701030928  L 353 464.3814432989691  C 353 466.37991668041246  351.80871724120607 468  350.3391959798995 468  L 2.6608040201005023 468  C 1.191282537060369 468  0 466.37991668041246  0 464.3814432989691  L 0 3.618556701030928  C 0 1.6200830180412604  1.191282537060369 0  2.6608040201005023 0  L 350.3391959798995 0  Z " fill-rule="evenodd" />
    </mask>
  </defs>
  <g transform="matrix(1 0 0 1 -1542 -411 )">
    <path d="M 350.3391959798995 0  C 351.80871724120607 0  353 1.6200830180412604  353 3.618556701030928  L 353 464.3814432989691  C 353 466.37991668041246  351.80871724120607 468  350.3391959798995 468  L 2.6608040201005023 468  C 1.191282537060369 468  0 466.37991668041246  0 464.3814432989691  L 0 3.618556701030928  C 0 1.6200830180412604  1.191282537060369 0  2.6608040201005023 0  L 350.3391959798995 0  Z " fill-rule="nonzero" fill="rgba(255, 255, 255, 1)" stroke="none" transform="matrix(1 0 0 1 1544 412 )" class="fill" />
    <path d="M 350.3391959798995 0  C 351.80871724120607 0  353 1.6200830180412604  353 3.618556701030928  L 353 464.3814432989691  C 353 466.37991668041246  351.80871724120607 468  350.3391959798995 468  L 2.6608040201005023 468  C 1.191282537060369 468  0 466.37991668041246  0 464.3814432989691  L 0 3.618556701030928  C 0 1.6200830180412604  1.191282537060369 0  2.6608040201005023 0  L 350.3391959798995 0  Z " stroke-width="0" stroke-dasharray="0" stroke="rgba(255, 255, 255, 0)" fill="none" transform="matrix(1 0 0 1 1544 412 )" class="stroke" mask="url(#Clip943)" />
  </g>
  <style>svg { filter: drop-shadow(0px 1px 1px rgba(0, 0, 0, 0.09803921568627451)); }</style>
</svg>