<?xml version="1.0" encoding="utf-8"?>
<svg version="1.1" xmlns:xlink="http://www.w3.org/1999/xlink" width="339px" height="412px" xmlns="http://www.w3.org/2000/svg">
  <defs>
    <pattern id="BGPattern" patternUnits="userSpaceOnUse" alignment="0 0" imageRepeat="None" />
    <mask fill="white" id="Clip600">
      <path d="M 332.4748743718593 0  C 333.8694625376885 0  335 1.4123800670103295  335 3.1546391752577323  L 335 404.8453608247423  C 335 406.58761967010315  333.8694625376885 408  332.4748743718593 408  L 2.5251256281407035 408  C 1.130537251884486 408  0 406.58761967010315  0 404.8453608247423  L 0 3.1546391752577323  C 0 1.4123800670103295  1.130537251884486 0  2.5251256281407035 0  L 332.4748743718593 0  Z " fill-rule="evenodd" />
    </mask>
  </defs>
  <g transform="matrix(1 0 0 1 -1468 -358 )">
    <path d="M 332.4748743718593 0  C 333.8694625376885 0  335 1.4123800670103295  335 3.1546391752577323  L 335 404.8453608247423  C 335 406.58761967010315  333.8694625376885 408  332.4748743718593 408  L 2.5251256281407035 408  C 1.130537251884486 408  0 406.58761967010315  0 404.8453608247423  L 0 3.1546391752577323  C 0 1.4123800670103295  1.130537251884486 0  2.5251256281407035 0  L 332.4748743718593 0  Z " fill-rule="nonzero" fill="rgba(255, 255, 255, 1)" stroke="none" transform="matrix(1 0 0 1 1470 359 )" class="fill" />
    <path d="M 332.4748743718593 0  C 333.8694625376885 0  335 1.4123800670103295  335 3.1546391752577323  L 335 404.8453608247423  C 335 406.58761967010315  333.8694625376885 408  332.4748743718593 408  L 2.5251256281407035 408  C 1.130537251884486 408  0 406.58761967010315  0 404.8453608247423  L 0 3.1546391752577323  C 0 1.4123800670103295  1.130537251884486 0  2.5251256281407035 0  L 332.4748743718593 0  Z " stroke-width="0" stroke-dasharray="0" stroke="rgba(250, 205, 145, 1)" fill="none" transform="matrix(1 0 0 1 1470 359 )" class="stroke" mask="url(#Clip600)" />
  </g>
  <style>svg { filter: drop-shadow(0px 1px 1px rgba(0, 0, 0, 0.09803921568627451)); }</style>
</svg>