<?xml version="1.0" encoding="utf-8"?>
<svg version="1.1" xmlns:xlink="http://www.w3.org/1999/xlink" width="15px" height="14px" xmlns="http://www.w3.org/2000/svg">
  <defs>
    <pattern id="BGPattern" patternUnits="userSpaceOnUse" alignment="0 0" imageRepeat="None" />
    <mask fill="white" id="Clip957">
      <path d="M 2.7718292718749638 10.504175788235257  C 2.505579262499964 10.208528729411789  2.1821417624999384 9.604057976470544  1.6065167437499994 8.870293287058825  C 1.2802667531249412 8.455234455294097  0.4712042896875346 7.673705488235287  0.2302667906249667 7.276764311764723  C 0.02120428612503389 6.925940782352922  0.043704296812485666 6.150999375294077  0.09339179615626136 5.860293501176477  C 0.18151679343752392 5.343117014117604  0.7852668674999919 4.940411057647024  1.429329346875008 4.994763998823521  C 1.9158918375000056 5.0351169399999725  2.3283918656249725 5.31758759411764  2.69964186562504 5.584411123529367  C 2.9237043562499565 5.744999350588227  3.19932939374997 6.057117088235279  3.365266903124997 6.233352382352878  C 3.5180794031250073 6.394764147058782  3.5555792718749757 7.07911694823525  3.718704262499948 7.27017577176473  C 3.9343292718749723 7.522999309411716  4.001829478125032 7.648176010588218  3.9193294781249577 7.369823069411777  C 3.852766968750032 6.961352489411706  3.7440167343749664 5.646176010588186  3.5865167343749604 5.029352472941195  C 3.4665167250000195 4.561587750588253  3.437454328124936 4.488293690588254  3.323079328124976 4.129234883529414  C 3.2021418374999655 3.747117244705845  3.1402668374999365 3.4794700705882566  3.026829346874962 3.0742935917646586  C 2.948079346875012 2.7877053647058774  2.8065168187500333 2.202175854117647  2.768079318749983 1.8727640894117832  C 2.7146418187499677 1.4222935094117688  2.686516753124941 0.6877053037647275  3.015579262499948 0.3500582482353071  C 3.2733917718750405 0.0857052989552438  3.8649541968749546 0.005822955929381672  4.231516696875026 0.1688817784705701  C 4.711516724999996 0.382175898588203  4.9843290750000335 0.9948817941175923  5.109016574999963 1.2394700211764302  C 5.3330790749999935 1.679234710588175  5.4718293375000115 2.1873524482352744  5.592766828125022 2.854411271764735  C 5.7465168375000175 3.7034701117647058  6.029641678125017 4.881940494117611  6.039016678125009 5.129822847058824  C 6.06151667812501 4.825940502352925  5.975266940625019 4.186058141176411  6.035266949999993 3.8945287294117645  C 6.089641940624979 3.630175779999972  6.342766846874994 3.3229994576470157  6.659641846874962 3.2398229788234802  C 6.927766856250024 3.169822978823544  7.944954253124976 3.1442935176470765  8.22151673437503 3.1945288117646586  C 8.514954234375018 3.2472346941176644  8.824329487499938 3.4317053400000077  8.93964199687499 3.605470045882371  C 9.279016978124943 4.1193524070587735  9.285579328124989 5.169352275294132  9.299641828124976 5.113352275294146  C 9.380266828124988 4.803705224705843  9.366204703124978 4.101234529411773  9.565892203124946 3.8088815964705884  C 9.69714220312504 3.6161757141176167  10.03182906562504 3.4424113294117915  10.209954093750007 3.4144113211764977  C 10.48557909374999 3.371587791764716  10.824017249999969 3.3584110164705745  11.11370474999994 3.407822781176412  C 11.347142249999962 3.448175722352958  11.663078906250028 3.691940411764656  11.748391406250036 3.8088815964705884  C 11.95276640625 4.092175722352897  12.069016968749935 4.893469831764713  12.103704468749967 5.174293352941183  C 12.117766968749955 5.290410999999976  12.173079656249968 4.851470177647022  12.378392156250015 4.5681760517647145  C 12.759017156249968 4.041940757647058  14.106204468749937 3.939823102352915  14.157766968749996 5.0944112964705655  C 14.181204468749975 5.632999515294079  14.176516500000034 5.608293361176425  14.176516500000034 5.970646302352941  C 14.176516500000034 6.396411024705845  14.165266593749948 7.270176208235291  14.139016593750036 7.5781762247058175  C 14.109954093749977 7.907587989411775  14.029329374999975 8.65205827294113  13.912141874999975 9.012764188235264  C 13.831516874999963 9.260646541176477  13.564329000000015 9.818175788235282  13.300891499999956 10.15252872941171  C 12.629641499999948 10.838803047058772  12.25745400000001 11.336489294117602  12.184329000000034 11.645587305882373  C 12.073703999999985 12.108410835294148  12.11026715624996 12.111705117647046  12.088704656249938 12.440293352941167  C 12.074329687499983 12.658803129411716  12.112141968749981 12.911901141176498  12.202141593750007 13.199587388235239  C 11.700891468750036 13.256685894117641  11.31526640624994 13.266293929411779  11.045266406250036 13.228411576470561  C 10.678703906249964 13.176529223529394  10.224953906250036 12.53582292941178  10.107766368750006 12.339822929411731  C 9.946516368749982 12.06970528235293  9.602454618749974 12.121587882352928  9.468392109374939 12.320881999999957  C 9.257454618750032 12.636293682352958  8.803704065624984 13.20205838823532  8.483079056249991 13.237470152941114  C 7.856829075 13.3066466235294  5.854329149999984 13.26299915294112  4.837141612500027 13.253940329411735  C 4.952766759374967 12.698881588235254  4.8818293406250035 12.326097329411782  4.624329337500015 12.135587552941134  C 4.338391828124948 11.922293435294064  3.846204299999947 11.489940905882362  3.5518292906249727 11.262646788235248  C 3.5518292906249727 11.262646788235248  2.7718292718749638 10.504175788235257  2.7718292718749638 10.504175788235257  Z " fill-rule="evenodd" />
    </mask>
  </defs>
  <g transform="matrix(1 0 0 1 -810 -730 )">
    <path d="M 2.7718292718749638 10.504175788235257  C 2.505579262499964 10.208528729411789  2.1821417624999384 9.604057976470544  1.6065167437499994 8.870293287058825  C 1.2802667531249412 8.455234455294097  0.4712042896875346 7.673705488235287  0.2302667906249667 7.276764311764723  C 0.02120428612503389 6.925940782352922  0.043704296812485666 6.150999375294077  0.09339179615626136 5.860293501176477  C 0.18151679343752392 5.343117014117604  0.7852668674999919 4.940411057647024  1.429329346875008 4.994763998823521  C 1.9158918375000056 5.0351169399999725  2.3283918656249725 5.31758759411764  2.69964186562504 5.584411123529367  C 2.9237043562499565 5.744999350588227  3.19932939374997 6.057117088235279  3.365266903124997 6.233352382352878  C 3.5180794031250073 6.394764147058782  3.5555792718749757 7.07911694823525  3.718704262499948 7.27017577176473  C 3.9343292718749723 7.522999309411716  4.001829478125032 7.648176010588218  3.9193294781249577 7.369823069411777  C 3.852766968750032 6.961352489411706  3.7440167343749664 5.646176010588186  3.5865167343749604 5.029352472941195  C 3.4665167250000195 4.561587750588253  3.437454328124936 4.488293690588254  3.323079328124976 4.129234883529414  C 3.2021418374999655 3.747117244705845  3.1402668374999365 3.4794700705882566  3.026829346874962 3.0742935917646586  C 2.948079346875012 2.7877053647058774  2.8065168187500333 2.202175854117647  2.768079318749983 1.8727640894117832  C 2.7146418187499677 1.4222935094117688  2.686516753124941 0.6877053037647275  3.015579262499948 0.3500582482353071  C 3.2733917718750405 0.0857052989552438  3.8649541968749546 0.005822955929381672  4.231516696875026 0.1688817784705701  C 4.711516724999996 0.382175898588203  4.9843290750000335 0.9948817941175923  5.109016574999963 1.2394700211764302  C 5.3330790749999935 1.679234710588175  5.4718293375000115 2.1873524482352744  5.592766828125022 2.854411271764735  C 5.7465168375000175 3.7034701117647058  6.029641678125017 4.881940494117611  6.039016678125009 5.129822847058824  C 6.06151667812501 4.825940502352925  5.975266940625019 4.186058141176411  6.035266949999993 3.8945287294117645  C 6.089641940624979 3.630175779999972  6.342766846874994 3.3229994576470157  6.659641846874962 3.2398229788234802  C 6.927766856250024 3.169822978823544  7.944954253124976 3.1442935176470765  8.22151673437503 3.1945288117646586  C 8.514954234375018 3.2472346941176644  8.824329487499938 3.4317053400000077  8.93964199687499 3.605470045882371  C 9.279016978124943 4.1193524070587735  9.285579328124989 5.169352275294132  9.299641828124976 5.113352275294146  C 9.380266828124988 4.803705224705843  9.366204703124978 4.101234529411773  9.565892203124946 3.8088815964705884  C 9.69714220312504 3.6161757141176167  10.03182906562504 3.4424113294117915  10.209954093750007 3.4144113211764977  C 10.48557909374999 3.371587791764716  10.824017249999969 3.3584110164705745  11.11370474999994 3.407822781176412  C 11.347142249999962 3.448175722352958  11.663078906250028 3.691940411764656  11.748391406250036 3.8088815964705884  C 11.95276640625 4.092175722352897  12.069016968749935 4.893469831764713  12.103704468749967 5.174293352941183  C 12.117766968749955 5.290410999999976  12.173079656249968 4.851470177647022  12.378392156250015 4.5681760517647145  C 12.759017156249968 4.041940757647058  14.106204468749937 3.939823102352915  14.157766968749996 5.0944112964705655  C 14.181204468749975 5.632999515294079  14.176516500000034 5.608293361176425  14.176516500000034 5.970646302352941  C 14.176516500000034 6.396411024705845  14.165266593749948 7.270176208235291  14.139016593750036 7.5781762247058175  C 14.109954093749977 7.907587989411775  14.029329374999975 8.65205827294113  13.912141874999975 9.012764188235264  C 13.831516874999963 9.260646541176477  13.564329000000015 9.818175788235282  13.300891499999956 10.15252872941171  C 12.629641499999948 10.838803047058772  12.25745400000001 11.336489294117602  12.184329000000034 11.645587305882373  C 12.073703999999985 12.108410835294148  12.11026715624996 12.111705117647046  12.088704656249938 12.440293352941167  C 12.074329687499983 12.658803129411716  12.112141968749981 12.911901141176498  12.202141593750007 13.199587388235239  C 11.700891468750036 13.256685894117641  11.31526640624994 13.266293929411779  11.045266406250036 13.228411576470561  C 10.678703906249964 13.176529223529394  10.224953906250036 12.53582292941178  10.107766368750006 12.339822929411731  C 9.946516368749982 12.06970528235293  9.602454618749974 12.121587882352928  9.468392109374939 12.320881999999957  C 9.257454618750032 12.636293682352958  8.803704065624984 13.20205838823532  8.483079056249991 13.237470152941114  C 7.856829075 13.3066466235294  5.854329149999984 13.26299915294112  4.837141612500027 13.253940329411735  C 4.952766759374967 12.698881588235254  4.8818293406250035 12.326097329411782  4.624329337500015 12.135587552941134  C 4.338391828124948 11.922293435294064  3.846204299999947 11.489940905882362  3.5518292906249727 11.262646788235248  C 3.5518292906249727 11.262646788235248  2.7718292718749638 10.504175788235257  2.7718292718749638 10.504175788235257  Z " fill-rule="nonzero" fill="rgba(255, 255, 255, 0)" stroke="none" transform="matrix(1 0 0 1 810 730 )" class="fill" />
    <path d="M 2.7718292718749638 10.504175788235257  C 2.505579262499964 10.208528729411789  2.1821417624999384 9.604057976470544  1.6065167437499994 8.870293287058825  C 1.2802667531249412 8.455234455294097  0.4712042896875346 7.673705488235287  0.2302667906249667 7.276764311764723  C 0.02120428612503389 6.925940782352922  0.043704296812485666 6.150999375294077  0.09339179615626136 5.860293501176477  C 0.18151679343752392 5.343117014117604  0.7852668674999919 4.940411057647024  1.429329346875008 4.994763998823521  C 1.9158918375000056 5.0351169399999725  2.3283918656249725 5.31758759411764  2.69964186562504 5.584411123529367  C 2.9237043562499565 5.744999350588227  3.19932939374997 6.057117088235279  3.365266903124997 6.233352382352878  C 3.5180794031250073 6.394764147058782  3.5555792718749757 7.07911694823525  3.718704262499948 7.27017577176473  C 3.9343292718749723 7.522999309411716  4.001829478125032 7.648176010588218  3.9193294781249577 7.369823069411777  C 3.852766968750032 6.961352489411706  3.7440167343749664 5.646176010588186  3.5865167343749604 5.029352472941195  C 3.4665167250000195 4.561587750588253  3.437454328124936 4.488293690588254  3.323079328124976 4.129234883529414  C 3.2021418374999655 3.747117244705845  3.1402668374999365 3.4794700705882566  3.026829346874962 3.0742935917646586  C 2.948079346875012 2.7877053647058774  2.8065168187500333 2.202175854117647  2.768079318749983 1.8727640894117832  C 2.7146418187499677 1.4222935094117688  2.686516753124941 0.6877053037647275  3.015579262499948 0.3500582482353071  C 3.2733917718750405 0.0857052989552438  3.8649541968749546 0.005822955929381672  4.231516696875026 0.1688817784705701  C 4.711516724999996 0.382175898588203  4.9843290750000335 0.9948817941175923  5.109016574999963 1.2394700211764302  C 5.3330790749999935 1.679234710588175  5.4718293375000115 2.1873524482352744  5.592766828125022 2.854411271764735  C 5.7465168375000175 3.7034701117647058  6.029641678125017 4.881940494117611  6.039016678125009 5.129822847058824  C 6.06151667812501 4.825940502352925  5.975266940625019 4.186058141176411  6.035266949999993 3.8945287294117645  C 6.089641940624979 3.630175779999972  6.342766846874994 3.3229994576470157  6.659641846874962 3.2398229788234802  C 6.927766856250024 3.169822978823544  7.944954253124976 3.1442935176470765  8.22151673437503 3.1945288117646586  C 8.514954234375018 3.2472346941176644  8.824329487499938 3.4317053400000077  8.93964199687499 3.605470045882371  C 9.279016978124943 4.1193524070587735  9.285579328124989 5.169352275294132  9.299641828124976 5.113352275294146  C 9.380266828124988 4.803705224705843  9.366204703124978 4.101234529411773  9.565892203124946 3.8088815964705884  C 9.69714220312504 3.6161757141176167  10.03182906562504 3.4424113294117915  10.209954093750007 3.4144113211764977  C 10.48557909374999 3.371587791764716  10.824017249999969 3.3584110164705745  11.11370474999994 3.407822781176412  C 11.347142249999962 3.448175722352958  11.663078906250028 3.691940411764656  11.748391406250036 3.8088815964705884  C 11.95276640625 4.092175722352897  12.069016968749935 4.893469831764713  12.103704468749967 5.174293352941183  C 12.117766968749955 5.290410999999976  12.173079656249968 4.851470177647022  12.378392156250015 4.5681760517647145  C 12.759017156249968 4.041940757647058  14.106204468749937 3.939823102352915  14.157766968749996 5.0944112964705655  C 14.181204468749975 5.632999515294079  14.176516500000034 5.608293361176425  14.176516500000034 5.970646302352941  C 14.176516500000034 6.396411024705845  14.165266593749948 7.270176208235291  14.139016593750036 7.5781762247058175  C 14.109954093749977 7.907587989411775  14.029329374999975 8.65205827294113  13.912141874999975 9.012764188235264  C 13.831516874999963 9.260646541176477  13.564329000000015 9.818175788235282  13.300891499999956 10.15252872941171  C 12.629641499999948 10.838803047058772  12.25745400000001 11.336489294117602  12.184329000000034 11.645587305882373  C 12.073703999999985 12.108410835294148  12.11026715624996 12.111705117647046  12.088704656249938 12.440293352941167  C 12.074329687499983 12.658803129411716  12.112141968749981 12.911901141176498  12.202141593750007 13.199587388235239  C 11.700891468750036 13.256685894117641  11.31526640624994 13.266293929411779  11.045266406250036 13.228411576470561  C 10.678703906249964 13.176529223529394  10.224953906250036 12.53582292941178  10.107766368750006 12.339822929411731  C 9.946516368749982 12.06970528235293  9.602454618749974 12.121587882352928  9.468392109374939 12.320881999999957  C 9.257454618750032 12.636293682352958  8.803704065624984 13.20205838823532  8.483079056249991 13.237470152941114  C 7.856829075 13.3066466235294  5.854329149999984 13.26299915294112  4.837141612500027 13.253940329411735  C 4.952766759374967 12.698881588235254  4.8818293406250035 12.326097329411782  4.624329337500015 12.135587552941134  C 4.338391828124948 11.922293435294064  3.846204299999947 11.489940905882362  3.5518292906249727 11.262646788235248  C 3.5518292906249727 11.262646788235248  2.7718292718749638 10.504175788235257  2.7718292718749638 10.504175788235257  Z " stroke-width="1.5" stroke-dasharray="0" stroke="rgba(0, 0, 0, 1)" fill="none" transform="matrix(1 0 0 1 810 730 )" class="stroke" mask="url(#Clip957)" />
  </g>
</svg>