<?xml version="1.0" encoding="utf-8"?>
<svg version="1.1" xmlns:xlink="http://www.w3.org/1999/xlink" width="14px" height="12px" xmlns="http://www.w3.org/2000/svg">
  <defs>
    <pattern id="BGPattern" patternUnits="userSpaceOnUse" alignment="0 0" imageRepeat="None" />
    <mask fill="white" id="Clip631">
      <path d="M 2.587040653749966 9.003579247058791  C 2.3385406449999664 8.750167482352962  2.0366656449999425 8.23204969411761  1.4994156274999995 7.603108531764707  C 1.1949156362499451 7.247343818823511  0.4397906703750323 6.577461847058817  0.2149156712499689 6.237226552941191  C 0.01979066705003163 5.9365206705882185  0.04079067702498662 5.272285178823495  0.0871656764125106 5.023108715294123  C 0.16941567387502232 4.579814583529375  0.7329157429999924 4.2346380494117355  1.3340407237500074 4.281226284705875  C 1.7881657150000052 4.315814519999977  2.1731657412499743 4.557932223529406  2.519665741250037 4.786638105882315  C 2.7287907324999594 4.924285157647051  2.986040767499972 5.191814647058811  3.1409157762499973 5.342873470588181  C 3.283540776250007 5.481226411764671  3.3185406537499773 6.067814527058786  3.4707906449999513 6.231579232941198  C 3.672040653749974 6.4482851223529  3.7350408462500297 6.555579437647044  3.6580408462499605 6.316991202352952  C 3.59591583750003 5.96687356235289  3.4944156187499686 4.839579437647016  3.347415618749963 4.3108735482353095  C 3.235415610000018 3.909932357647074  3.20829070624994 3.8471088776470745  3.1015407062499776 3.5393441858823547  C 2.988665714999968 3.2118147811764386  2.9309157149999407 2.982402917647077  2.8250407237499644 2.6351087929411356  C 2.7515407237500114 2.3894617411764663  2.619415697500031 1.8875793035294115  2.583540697499984 1.605226362352957  C 2.53366569749997 1.2191087223529447  2.507415636249945 0.589461688941195  2.8145406449999513 0.3000499270588347  C 3.055165653750038 0.0734616848187804  3.6072905837499576 0.004991105082327148  3.9494155837500244 0.1447558101176315  C 4.397415609999996 0.3275793416470312  4.652040470000031 0.8527558235293647  4.768415469999965 1.062402875294083  C 4.977540469999994 1.4393440376470072  5.107040715000011 1.8748735270588064  5.2199157062500205 2.4466382329412015  C 5.363415715000016 3.1744029529411764  5.627665566250016 4.1845204235293805  5.636415566250008 4.396991011764706  C 5.657415566250009 4.136520430588221  5.576915811250018 3.5880498352940666  5.632915819999994 3.338167482352941  C 5.6836658112499805 3.111579239999976  5.919915723749995 2.8482852494117274  6.215665723749964 2.77699112470584  C 6.465915732500022 2.7169911247058947  7.415290636249978 2.6951087294117797  7.6734156187500275 2.7381675529411362  C 7.947290618750017 2.783344023529427  8.236040854999942 2.9414617200000066  8.34366586374999 3.090402896470604  C 8.660415846249947 3.5308734917646634  8.66654070624999 4.4308733788235415  8.679665706249978 4.382873378823554  C 8.754915706249989 4.117461621176437  8.74179105624998 3.5153438823529486  8.92816605624995 3.2647556541176472  C 9.050666056250037 3.0995791835293858  9.363040461250037 2.950638282352964  9.529290487500006 2.926638275294141  C 9.786540487499991 2.889932392941185  10.10241609999997 2.878638014117635  10.372791099999944 2.920990955294067  C 10.590666099999964 2.9555791905882494  10.885540312500027 3.1645203529411337  10.965165312500034 3.2647556541176472  C 11.1559153125 3.507579190588197  11.26441583749994 4.194402712941182  11.29679083749997 4.4351085882353  C 11.309915837499958 4.53463799999998  11.36154101249997 4.1584030094117335  11.553166012500014 3.9155794729411837  C 11.90841601249997 3.4645206494117646  13.16579083749994 3.376991230588213  13.213915837499997 4.366638254117627  C 13.235790837499977 4.828285298823497  13.231415400000031 4.807108595294079  13.231415400000031 5.117696830588235  C 13.231415400000031 5.482638021176439  13.220915487499951 6.231579607058821  13.196415487500033 6.495579621176415  C 13.169290487499978 6.77793256235295  13.094040749999976 7.416049948235255  12.984665749999976 7.725226447058798  C 12.909415749999965 7.937697035294123  12.660040400000014 8.415579247058812  12.414165399999959 8.702167482352895  C 11.787665399999952 9.290402611764662  11.44029040000001 9.716990823529372  11.372040400000031 9.981931976470605  C 11.268790399999986 10.378637858823556  11.302916012499963 10.381461529411755  11.282791012499942 10.663108588235286  C 11.269374374999984 10.850402682352899  11.304665837499982 11.067343835294142  11.388665487500006 11.313932047058776  C 10.920832037500034 11.362873623529406  10.560915312499944 11.371109082352953  10.308915312500034 11.338638494117625  C 9.966790312499967 11.294167905882338  9.543290312500034 10.744991082352954  9.433915277500006 10.576991082352913  C 9.283415277499984 10.345461670588225  8.962290977499975 10.389932470588224  8.837165968749943 10.560755999999962  C 8.64029097750003 10.831108870588249  8.216790461249985 11.316050047058846  7.917540452499992 11.34640298823524  C 7.33304047 11.405697105882343  5.464040539999985 11.368284988235246  4.514665505000025 11.360520282352915  C 4.622582308749969 10.884755647058789  4.556374051250003 10.565226282352956  4.316040715000014 10.401932188235257  C 4.049165706249951 10.219108658823483  3.5897906799999504 9.848520776470597  3.3150406712499745 9.653697247058783  C 3.3150406712499745 9.653697247058783  2.587040653749966 9.003579247058791  2.587040653749966 9.003579247058791  Z " fill-rule="evenodd" />
    </mask>
  </defs>
  <g transform="matrix(1 0 0 1 -768 -690 )">
    <path d="M 2.587040653749966 9.003579247058791  C 2.3385406449999664 8.750167482352962  2.0366656449999425 8.23204969411761  1.4994156274999995 7.603108531764707  C 1.1949156362499451 7.247343818823511  0.4397906703750323 6.577461847058817  0.2149156712499689 6.237226552941191  C 0.01979066705003163 5.9365206705882185  0.04079067702498662 5.272285178823495  0.0871656764125106 5.023108715294123  C 0.16941567387502232 4.579814583529375  0.7329157429999924 4.2346380494117355  1.3340407237500074 4.281226284705875  C 1.7881657150000052 4.315814519999977  2.1731657412499743 4.557932223529406  2.519665741250037 4.786638105882315  C 2.7287907324999594 4.924285157647051  2.986040767499972 5.191814647058811  3.1409157762499973 5.342873470588181  C 3.283540776250007 5.481226411764671  3.3185406537499773 6.067814527058786  3.4707906449999513 6.231579232941198  C 3.672040653749974 6.4482851223529  3.7350408462500297 6.555579437647044  3.6580408462499605 6.316991202352952  C 3.59591583750003 5.96687356235289  3.4944156187499686 4.839579437647016  3.347415618749963 4.3108735482353095  C 3.235415610000018 3.909932357647074  3.20829070624994 3.8471088776470745  3.1015407062499776 3.5393441858823547  C 2.988665714999968 3.2118147811764386  2.9309157149999407 2.982402917647077  2.8250407237499644 2.6351087929411356  C 2.7515407237500114 2.3894617411764663  2.619415697500031 1.8875793035294115  2.583540697499984 1.605226362352957  C 2.53366569749997 1.2191087223529447  2.507415636249945 0.589461688941195  2.8145406449999513 0.3000499270588347  C 3.055165653750038 0.0734616848187804  3.6072905837499576 0.004991105082327148  3.9494155837500244 0.1447558101176315  C 4.397415609999996 0.3275793416470312  4.652040470000031 0.8527558235293647  4.768415469999965 1.062402875294083  C 4.977540469999994 1.4393440376470072  5.107040715000011 1.8748735270588064  5.2199157062500205 2.4466382329412015  C 5.363415715000016 3.1744029529411764  5.627665566250016 4.1845204235293805  5.636415566250008 4.396991011764706  C 5.657415566250009 4.136520430588221  5.576915811250018 3.5880498352940666  5.632915819999994 3.338167482352941  C 5.6836658112499805 3.111579239999976  5.919915723749995 2.8482852494117274  6.215665723749964 2.77699112470584  C 6.465915732500022 2.7169911247058947  7.415290636249978 2.6951087294117797  7.6734156187500275 2.7381675529411362  C 7.947290618750017 2.783344023529427  8.236040854999942 2.9414617200000066  8.34366586374999 3.090402896470604  C 8.660415846249947 3.5308734917646634  8.66654070624999 4.4308733788235415  8.679665706249978 4.382873378823554  C 8.754915706249989 4.117461621176437  8.74179105624998 3.5153438823529486  8.92816605624995 3.2647556541176472  C 9.050666056250037 3.0995791835293858  9.363040461250037 2.950638282352964  9.529290487500006 2.926638275294141  C 9.786540487499991 2.889932392941185  10.10241609999997 2.878638014117635  10.372791099999944 2.920990955294067  C 10.590666099999964 2.9555791905882494  10.885540312500027 3.1645203529411337  10.965165312500034 3.2647556541176472  C 11.1559153125 3.507579190588197  11.26441583749994 4.194402712941182  11.29679083749997 4.4351085882353  C 11.309915837499958 4.53463799999998  11.36154101249997 4.1584030094117335  11.553166012500014 3.9155794729411837  C 11.90841601249997 3.4645206494117646  13.16579083749994 3.376991230588213  13.213915837499997 4.366638254117627  C 13.235790837499977 4.828285298823497  13.231415400000031 4.807108595294079  13.231415400000031 5.117696830588235  C 13.231415400000031 5.482638021176439  13.220915487499951 6.231579607058821  13.196415487500033 6.495579621176415  C 13.169290487499978 6.77793256235295  13.094040749999976 7.416049948235255  12.984665749999976 7.725226447058798  C 12.909415749999965 7.937697035294123  12.660040400000014 8.415579247058812  12.414165399999959 8.702167482352895  C 11.787665399999952 9.290402611764662  11.44029040000001 9.716990823529372  11.372040400000031 9.981931976470605  C 11.268790399999986 10.378637858823556  11.302916012499963 10.381461529411755  11.282791012499942 10.663108588235286  C 11.269374374999984 10.850402682352899  11.304665837499982 11.067343835294142  11.388665487500006 11.313932047058776  C 10.920832037500034 11.362873623529406  10.560915312499944 11.371109082352953  10.308915312500034 11.338638494117625  C 9.966790312499967 11.294167905882338  9.543290312500034 10.744991082352954  9.433915277500006 10.576991082352913  C 9.283415277499984 10.345461670588225  8.962290977499975 10.389932470588224  8.837165968749943 10.560755999999962  C 8.64029097750003 10.831108870588249  8.216790461249985 11.316050047058846  7.917540452499992 11.34640298823524  C 7.33304047 11.405697105882343  5.464040539999985 11.368284988235246  4.514665505000025 11.360520282352915  C 4.622582308749969 10.884755647058789  4.556374051250003 10.565226282352956  4.316040715000014 10.401932188235257  C 4.049165706249951 10.219108658823483  3.5897906799999504 9.848520776470597  3.3150406712499745 9.653697247058783  C 3.3150406712499745 9.653697247058783  2.587040653749966 9.003579247058791  2.587040653749966 9.003579247058791  Z " fill-rule="nonzero" fill="rgba(255, 255, 255, 0)" stroke="none" transform="matrix(1 0 0 1 768 690 )" class="fill" />
    <path d="M 2.587040653749966 9.003579247058791  C 2.3385406449999664 8.750167482352962  2.0366656449999425 8.23204969411761  1.4994156274999995 7.603108531764707  C 1.1949156362499451 7.247343818823511  0.4397906703750323 6.577461847058817  0.2149156712499689 6.237226552941191  C 0.01979066705003163 5.9365206705882185  0.04079067702498662 5.272285178823495  0.0871656764125106 5.023108715294123  C 0.16941567387502232 4.579814583529375  0.7329157429999924 4.2346380494117355  1.3340407237500074 4.281226284705875  C 1.7881657150000052 4.315814519999977  2.1731657412499743 4.557932223529406  2.519665741250037 4.786638105882315  C 2.7287907324999594 4.924285157647051  2.986040767499972 5.191814647058811  3.1409157762499973 5.342873470588181  C 3.283540776250007 5.481226411764671  3.3185406537499773 6.067814527058786  3.4707906449999513 6.231579232941198  C 3.672040653749974 6.4482851223529  3.7350408462500297 6.555579437647044  3.6580408462499605 6.316991202352952  C 3.59591583750003 5.96687356235289  3.4944156187499686 4.839579437647016  3.347415618749963 4.3108735482353095  C 3.235415610000018 3.909932357647074  3.20829070624994 3.8471088776470745  3.1015407062499776 3.5393441858823547  C 2.988665714999968 3.2118147811764386  2.9309157149999407 2.982402917647077  2.8250407237499644 2.6351087929411356  C 2.7515407237500114 2.3894617411764663  2.619415697500031 1.8875793035294115  2.583540697499984 1.605226362352957  C 2.53366569749997 1.2191087223529447  2.507415636249945 0.589461688941195  2.8145406449999513 0.3000499270588347  C 3.055165653750038 0.0734616848187804  3.6072905837499576 0.004991105082327148  3.9494155837500244 0.1447558101176315  C 4.397415609999996 0.3275793416470312  4.652040470000031 0.8527558235293647  4.768415469999965 1.062402875294083  C 4.977540469999994 1.4393440376470072  5.107040715000011 1.8748735270588064  5.2199157062500205 2.4466382329412015  C 5.363415715000016 3.1744029529411764  5.627665566250016 4.1845204235293805  5.636415566250008 4.396991011764706  C 5.657415566250009 4.136520430588221  5.576915811250018 3.5880498352940666  5.632915819999994 3.338167482352941  C 5.6836658112499805 3.111579239999976  5.919915723749995 2.8482852494117274  6.215665723749964 2.77699112470584  C 6.465915732500022 2.7169911247058947  7.415290636249978 2.6951087294117797  7.6734156187500275 2.7381675529411362  C 7.947290618750017 2.783344023529427  8.236040854999942 2.9414617200000066  8.34366586374999 3.090402896470604  C 8.660415846249947 3.5308734917646634  8.66654070624999 4.4308733788235415  8.679665706249978 4.382873378823554  C 8.754915706249989 4.117461621176437  8.74179105624998 3.5153438823529486  8.92816605624995 3.2647556541176472  C 9.050666056250037 3.0995791835293858  9.363040461250037 2.950638282352964  9.529290487500006 2.926638275294141  C 9.786540487499991 2.889932392941185  10.10241609999997 2.878638014117635  10.372791099999944 2.920990955294067  C 10.590666099999964 2.9555791905882494  10.885540312500027 3.1645203529411337  10.965165312500034 3.2647556541176472  C 11.1559153125 3.507579190588197  11.26441583749994 4.194402712941182  11.29679083749997 4.4351085882353  C 11.309915837499958 4.53463799999998  11.36154101249997 4.1584030094117335  11.553166012500014 3.9155794729411837  C 11.90841601249997 3.4645206494117646  13.16579083749994 3.376991230588213  13.213915837499997 4.366638254117627  C 13.235790837499977 4.828285298823497  13.231415400000031 4.807108595294079  13.231415400000031 5.117696830588235  C 13.231415400000031 5.482638021176439  13.220915487499951 6.231579607058821  13.196415487500033 6.495579621176415  C 13.169290487499978 6.77793256235295  13.094040749999976 7.416049948235255  12.984665749999976 7.725226447058798  C 12.909415749999965 7.937697035294123  12.660040400000014 8.415579247058812  12.414165399999959 8.702167482352895  C 11.787665399999952 9.290402611764662  11.44029040000001 9.716990823529372  11.372040400000031 9.981931976470605  C 11.268790399999986 10.378637858823556  11.302916012499963 10.381461529411755  11.282791012499942 10.663108588235286  C 11.269374374999984 10.850402682352899  11.304665837499982 11.067343835294142  11.388665487500006 11.313932047058776  C 10.920832037500034 11.362873623529406  10.560915312499944 11.371109082352953  10.308915312500034 11.338638494117625  C 9.966790312499967 11.294167905882338  9.543290312500034 10.744991082352954  9.433915277500006 10.576991082352913  C 9.283415277499984 10.345461670588225  8.962290977499975 10.389932470588224  8.837165968749943 10.560755999999962  C 8.64029097750003 10.831108870588249  8.216790461249985 11.316050047058846  7.917540452499992 11.34640298823524  C 7.33304047 11.405697105882343  5.464040539999985 11.368284988235246  4.514665505000025 11.360520282352915  C 4.622582308749969 10.884755647058789  4.556374051250003 10.565226282352956  4.316040715000014 10.401932188235257  C 4.049165706249951 10.219108658823483  3.5897906799999504 9.848520776470597  3.3150406712499745 9.653697247058783  C 3.3150406712499745 9.653697247058783  2.587040653749966 9.003579247058791  2.587040653749966 9.003579247058791  Z " stroke-width="1.5" stroke-dasharray="0" stroke="rgba(0, 0, 0, 1)" fill="none" transform="matrix(1 0 0 1 768 690 )" class="stroke" mask="url(#Clip631)" />
  </g>
</svg>