<?xml version="1.0" encoding="utf-8"?>
<svg version="1.1" xmlns:xlink="http://www.w3.org/1999/xlink" width="15px" height="15px" xmlns="http://www.w3.org/2000/svg">
  <defs>
    <pattern id="BGPattern" patternUnits="userSpaceOnUse" alignment="0 0" imageRepeat="None" />
    <mask fill="white" id="Clip893">
      <path d="M 2.7718292718749638 11.25447405882349  C 2.505579262499964 10.937709352941202  2.1821417624999384 10.290062117647011  1.6065167437499994 9.503885664705884  C 1.2802667531249412 9.05917977352939  0.4712042896875346 8.22182730882352  0.2302667906249667 7.79653319117649  C 0.02120428612503389 7.420650838235273  0.043704296812485666 6.5903564735293685  0.09339179615626136 6.2788858941176535  C 0.18151679343752392 5.724768229411719  0.7852668674999919 5.293297561764669  1.429329346875008 5.351532855882343  C 1.9158918375000056 5.394768149999971  2.3283918656249725 5.697415279411757  2.69964186562504 5.983297632352894  C 2.9237043562499565 6.155356447058814  3.19932939374997 6.489768308823514  3.365266903124997 6.678591838235226  C 3.5180794031250073 6.851533014705838  3.5555792718749757 7.584768158823482  3.718704262499948 7.789474041176497  C 3.9343292718749723 8.060356402941125  4.001829478125032 8.194474297058804  3.9193294781249577 7.896239002941189  C 3.852766968750032 7.458591952941113  3.7440167343749664 6.0494742970587705  3.5865167343749604 5.388591935294137  C 3.4665167250000195 4.887415447058842  3.437454328124936 4.808886097058844  3.323079328124976 4.424180232352944  C 3.2021418374999655 4.0147684764705485  3.1402668374999365 3.7280036470588467  3.026829346874962 3.2938859911764196  C 2.948079346875012 2.986827176470583  2.8065168187500333 2.3594741294117645  2.768079318749983 2.006532952941196  C 2.7146418187499677 1.5238859029411809  2.686516753124941 0.7368271111764937  3.015579262499948 0.37506240882354336  C 3.2733917718750405 0.09182710602347549  3.8649541968749546 0.006238881352908935  4.231516696875026 0.1809447626470394  C 4.711516724999996 0.40947417705878897  4.9843290750000335 1.0659447794117058  5.109016574999963 1.3280035941176038  C 5.3330790749999935 1.799180047058759  5.4718293375000115 2.343591908823508  5.592766828125022 3.0582977911765017  C 5.7465168375000175 3.9680036911764702  6.029641678125017 5.230650529411726  6.039016678125009 5.496238764705883  C 6.06151667812501 5.170650538235277  5.975266940625019 4.485062294117583  6.035266949999993 4.172709352941176  C 6.089641940624979 3.88947404999997  6.342766846874994 3.5603565617646593  6.659641846874962 3.4712389058823003  C 6.927766856250024 3.3962389058823685  7.944954253124976 3.3688859117647247  8.22151673437503 3.42270944117642  C 8.514954234375018 3.4791800294117836  8.824329487499938 3.6768271500000083  8.93964199687499 3.863003620588255  C 9.279016978124943 4.413591864705829  9.285579328124989 5.538591723529427  9.299641828124976 5.478591723529442  C 9.380266828124988 5.146827026470547  9.366204703124978 4.3941798529411855  9.565892203124946 4.080944567647059  C 9.69714220312504 3.874473979411732  10.03182906562504 3.688297852941205  10.209954093750007 3.6582978441176763  C 10.48557909374999 3.612415491176481  10.824017249999969 3.598297517647044  11.11370474999994 3.651238694117584  C 11.347142249999962 3.6944739882353117  11.663078906250028 3.955650441176417  11.748391406250036 4.080944567647059  C 11.95276640625 4.384473988235246  12.069016968749935 5.243003391176478  12.103704468749967 5.5438857352941255  C 12.117766968749955 5.668297499999975  12.173079656249968 5.198003761764667  12.378392156250015 4.89447434117648  C 12.759017156249968 4.330650811764706  14.106204468749937 4.221239038235266  14.157766968749996 5.4582978176470345  C 14.181204468749975 6.0353566235293705  14.176516500000034 6.008885744117599  14.176516500000034 6.397121038235294  C 14.176516500000034 6.8532975264705485  14.165266593749948 7.789474508823527  14.139016593750036 8.119474526470519  C 14.109954093749977 8.472415702941188  14.029329374999975 9.270062435294069  13.912141874999975 9.656533058823499  C 13.831516874999963 9.922121294117655  13.564329000000015 10.519474058823516  13.300891499999956 10.877709352941118  C 12.629641499999948 11.613003264705828  12.25745400000001 12.146238529411715  12.184329000000034 12.477414970588256  C 12.073703999999985 12.973297323529444  12.11026715624996 12.976826911764693  12.088704656249938 13.328885735294108  C 12.074329687499983 13.563003352941124  12.112141968749981 13.834179794117677  12.202141593750007 14.14241505882347  C 11.700891468750036 14.203592029411759  11.31526640624994 14.213886352941191  11.045266406250036 14.173298117647029  C 10.678703906249964 14.117709882352923  10.224953906250036 13.431238852941192  10.107766368750006 13.221238852941141  C 9.946516368749982 12.93182708823528  9.602454618749974 12.98741558823528  9.468392109374939 13.200944999999955  C 9.257454618750032 13.538886088235312  8.803704065624984 14.145062558823557  8.483079056249991 14.18300373529405  C 7.856829075 14.257121382352928  5.854329149999984 14.210356235294057  4.837141612500027 14.200650352941146  C 4.952766759374967 13.605944558823488  4.8818293406250035 13.206532852941194  4.624329337500015 13.002415235294073  C 4.338391828124948 12.773885823529355  3.846204299999947 12.310650970588245  3.5518292906249727 12.06712155882348  C 3.5518292906249727 12.06712155882348  2.7718292718749638 11.25447405882349  2.7718292718749638 11.25447405882349  Z " fill-rule="evenodd" />
    </mask>
  </defs>
  <g transform="matrix(1 0 0 1 -930 -2116 )">
    <path d="M 2.7718292718749638 11.25447405882349  C 2.505579262499964 10.937709352941202  2.1821417624999384 10.290062117647011  1.6065167437499994 9.503885664705884  C 1.2802667531249412 9.05917977352939  0.4712042896875346 8.22182730882352  0.2302667906249667 7.79653319117649  C 0.02120428612503389 7.420650838235273  0.043704296812485666 6.5903564735293685  0.09339179615626136 6.2788858941176535  C 0.18151679343752392 5.724768229411719  0.7852668674999919 5.293297561764669  1.429329346875008 5.351532855882343  C 1.9158918375000056 5.394768149999971  2.3283918656249725 5.697415279411757  2.69964186562504 5.983297632352894  C 2.9237043562499565 6.155356447058814  3.19932939374997 6.489768308823514  3.365266903124997 6.678591838235226  C 3.5180794031250073 6.851533014705838  3.5555792718749757 7.584768158823482  3.718704262499948 7.789474041176497  C 3.9343292718749723 8.060356402941125  4.001829478125032 8.194474297058804  3.9193294781249577 7.896239002941189  C 3.852766968750032 7.458591952941113  3.7440167343749664 6.0494742970587705  3.5865167343749604 5.388591935294137  C 3.4665167250000195 4.887415447058842  3.437454328124936 4.808886097058844  3.323079328124976 4.424180232352944  C 3.2021418374999655 4.0147684764705485  3.1402668374999365 3.7280036470588467  3.026829346874962 3.2938859911764196  C 2.948079346875012 2.986827176470583  2.8065168187500333 2.3594741294117645  2.768079318749983 2.006532952941196  C 2.7146418187499677 1.5238859029411809  2.686516753124941 0.7368271111764937  3.015579262499948 0.37506240882354336  C 3.2733917718750405 0.09182710602347549  3.8649541968749546 0.006238881352908935  4.231516696875026 0.1809447626470394  C 4.711516724999996 0.40947417705878897  4.9843290750000335 1.0659447794117058  5.109016574999963 1.3280035941176038  C 5.3330790749999935 1.799180047058759  5.4718293375000115 2.343591908823508  5.592766828125022 3.0582977911765017  C 5.7465168375000175 3.9680036911764702  6.029641678125017 5.230650529411726  6.039016678125009 5.496238764705883  C 6.06151667812501 5.170650538235277  5.975266940625019 4.485062294117583  6.035266949999993 4.172709352941176  C 6.089641940624979 3.88947404999997  6.342766846874994 3.5603565617646593  6.659641846874962 3.4712389058823003  C 6.927766856250024 3.3962389058823685  7.944954253124976 3.3688859117647247  8.22151673437503 3.42270944117642  C 8.514954234375018 3.4791800294117836  8.824329487499938 3.6768271500000083  8.93964199687499 3.863003620588255  C 9.279016978124943 4.413591864705829  9.285579328124989 5.538591723529427  9.299641828124976 5.478591723529442  C 9.380266828124988 5.146827026470547  9.366204703124978 4.3941798529411855  9.565892203124946 4.080944567647059  C 9.69714220312504 3.874473979411732  10.03182906562504 3.688297852941205  10.209954093750007 3.6582978441176763  C 10.48557909374999 3.612415491176481  10.824017249999969 3.598297517647044  11.11370474999994 3.651238694117584  C 11.347142249999962 3.6944739882353117  11.663078906250028 3.955650441176417  11.748391406250036 4.080944567647059  C 11.95276640625 4.384473988235246  12.069016968749935 5.243003391176478  12.103704468749967 5.5438857352941255  C 12.117766968749955 5.668297499999975  12.173079656249968 5.198003761764667  12.378392156250015 4.89447434117648  C 12.759017156249968 4.330650811764706  14.106204468749937 4.221239038235266  14.157766968749996 5.4582978176470345  C 14.181204468749975 6.0353566235293705  14.176516500000034 6.008885744117599  14.176516500000034 6.397121038235294  C 14.176516500000034 6.8532975264705485  14.165266593749948 7.789474508823527  14.139016593750036 8.119474526470519  C 14.109954093749977 8.472415702941188  14.029329374999975 9.270062435294069  13.912141874999975 9.656533058823499  C 13.831516874999963 9.922121294117655  13.564329000000015 10.519474058823516  13.300891499999956 10.877709352941118  C 12.629641499999948 11.613003264705828  12.25745400000001 12.146238529411715  12.184329000000034 12.477414970588256  C 12.073703999999985 12.973297323529444  12.11026715624996 12.976826911764693  12.088704656249938 13.328885735294108  C 12.074329687499983 13.563003352941124  12.112141968749981 13.834179794117677  12.202141593750007 14.14241505882347  C 11.700891468750036 14.203592029411759  11.31526640624994 14.213886352941191  11.045266406250036 14.173298117647029  C 10.678703906249964 14.117709882352923  10.224953906250036 13.431238852941192  10.107766368750006 13.221238852941141  C 9.946516368749982 12.93182708823528  9.602454618749974 12.98741558823528  9.468392109374939 13.200944999999955  C 9.257454618750032 13.538886088235312  8.803704065624984 14.145062558823557  8.483079056249991 14.18300373529405  C 7.856829075 14.257121382352928  5.854329149999984 14.210356235294057  4.837141612500027 14.200650352941146  C 4.952766759374967 13.605944558823488  4.8818293406250035 13.206532852941194  4.624329337500015 13.002415235294073  C 4.338391828124948 12.773885823529355  3.846204299999947 12.310650970588245  3.5518292906249727 12.06712155882348  C 3.5518292906249727 12.06712155882348  2.7718292718749638 11.25447405882349  2.7718292718749638 11.25447405882349  Z " fill-rule="nonzero" fill="rgba(255, 255, 255, 0)" stroke="none" transform="matrix(1 0 0 1 930 2116 )" class="fill" />
    <path d="M 2.7718292718749638 11.25447405882349  C 2.505579262499964 10.937709352941202  2.1821417624999384 10.290062117647011  1.6065167437499994 9.503885664705884  C 1.2802667531249412 9.05917977352939  0.4712042896875346 8.22182730882352  0.2302667906249667 7.79653319117649  C 0.02120428612503389 7.420650838235273  0.043704296812485666 6.5903564735293685  0.09339179615626136 6.2788858941176535  C 0.18151679343752392 5.724768229411719  0.7852668674999919 5.293297561764669  1.429329346875008 5.351532855882343  C 1.9158918375000056 5.394768149999971  2.3283918656249725 5.697415279411757  2.69964186562504 5.983297632352894  C 2.9237043562499565 6.155356447058814  3.19932939374997 6.489768308823514  3.365266903124997 6.678591838235226  C 3.5180794031250073 6.851533014705838  3.5555792718749757 7.584768158823482  3.718704262499948 7.789474041176497  C 3.9343292718749723 8.060356402941125  4.001829478125032 8.194474297058804  3.9193294781249577 7.896239002941189  C 3.852766968750032 7.458591952941113  3.7440167343749664 6.0494742970587705  3.5865167343749604 5.388591935294137  C 3.4665167250000195 4.887415447058842  3.437454328124936 4.808886097058844  3.323079328124976 4.424180232352944  C 3.2021418374999655 4.0147684764705485  3.1402668374999365 3.7280036470588467  3.026829346874962 3.2938859911764196  C 2.948079346875012 2.986827176470583  2.8065168187500333 2.3594741294117645  2.768079318749983 2.006532952941196  C 2.7146418187499677 1.5238859029411809  2.686516753124941 0.7368271111764937  3.015579262499948 0.37506240882354336  C 3.2733917718750405 0.09182710602347549  3.8649541968749546 0.006238881352908935  4.231516696875026 0.1809447626470394  C 4.711516724999996 0.40947417705878897  4.9843290750000335 1.0659447794117058  5.109016574999963 1.3280035941176038  C 5.3330790749999935 1.799180047058759  5.4718293375000115 2.343591908823508  5.592766828125022 3.0582977911765017  C 5.7465168375000175 3.9680036911764702  6.029641678125017 5.230650529411726  6.039016678125009 5.496238764705883  C 6.06151667812501 5.170650538235277  5.975266940625019 4.485062294117583  6.035266949999993 4.172709352941176  C 6.089641940624979 3.88947404999997  6.342766846874994 3.5603565617646593  6.659641846874962 3.4712389058823003  C 6.927766856250024 3.3962389058823685  7.944954253124976 3.3688859117647247  8.22151673437503 3.42270944117642  C 8.514954234375018 3.4791800294117836  8.824329487499938 3.6768271500000083  8.93964199687499 3.863003620588255  C 9.279016978124943 4.413591864705829  9.285579328124989 5.538591723529427  9.299641828124976 5.478591723529442  C 9.380266828124988 5.146827026470547  9.366204703124978 4.3941798529411855  9.565892203124946 4.080944567647059  C 9.69714220312504 3.874473979411732  10.03182906562504 3.688297852941205  10.209954093750007 3.6582978441176763  C 10.48557909374999 3.612415491176481  10.824017249999969 3.598297517647044  11.11370474999994 3.651238694117584  C 11.347142249999962 3.6944739882353117  11.663078906250028 3.955650441176417  11.748391406250036 4.080944567647059  C 11.95276640625 4.384473988235246  12.069016968749935 5.243003391176478  12.103704468749967 5.5438857352941255  C 12.117766968749955 5.668297499999975  12.173079656249968 5.198003761764667  12.378392156250015 4.89447434117648  C 12.759017156249968 4.330650811764706  14.106204468749937 4.221239038235266  14.157766968749996 5.4582978176470345  C 14.181204468749975 6.0353566235293705  14.176516500000034 6.008885744117599  14.176516500000034 6.397121038235294  C 14.176516500000034 6.8532975264705485  14.165266593749948 7.789474508823527  14.139016593750036 8.119474526470519  C 14.109954093749977 8.472415702941188  14.029329374999975 9.270062435294069  13.912141874999975 9.656533058823499  C 13.831516874999963 9.922121294117655  13.564329000000015 10.519474058823516  13.300891499999956 10.877709352941118  C 12.629641499999948 11.613003264705828  12.25745400000001 12.146238529411715  12.184329000000034 12.477414970588256  C 12.073703999999985 12.973297323529444  12.11026715624996 12.976826911764693  12.088704656249938 13.328885735294108  C 12.074329687499983 13.563003352941124  12.112141968749981 13.834179794117677  12.202141593750007 14.14241505882347  C 11.700891468750036 14.203592029411759  11.31526640624994 14.213886352941191  11.045266406250036 14.173298117647029  C 10.678703906249964 14.117709882352923  10.224953906250036 13.431238852941192  10.107766368750006 13.221238852941141  C 9.946516368749982 12.93182708823528  9.602454618749974 12.98741558823528  9.468392109374939 13.200944999999955  C 9.257454618750032 13.538886088235312  8.803704065624984 14.145062558823557  8.483079056249991 14.18300373529405  C 7.856829075 14.257121382352928  5.854329149999984 14.210356235294057  4.837141612500027 14.200650352941146  C 4.952766759374967 13.605944558823488  4.8818293406250035 13.206532852941194  4.624329337500015 13.002415235294073  C 4.338391828124948 12.773885823529355  3.846204299999947 12.310650970588245  3.5518292906249727 12.06712155882348  C 3.5518292906249727 12.06712155882348  2.7718292718749638 11.25447405882349  2.7718292718749638 11.25447405882349  Z " stroke-width="1.5" stroke-dasharray="0" stroke="rgba(0, 0, 0, 1)" fill="none" transform="matrix(1 0 0 1 930 2116 )" class="stroke" mask="url(#Clip893)" />
  </g>
</svg>