<?xml version="1.0" encoding="utf-8"?>
<svg version="1.1" xmlns:xlink="http://www.w3.org/1999/xlink" width="16px" height="11px" xmlns="http://www.w3.org/2000/svg">
  <defs>
    <pattern id="BGPattern" patternUnits="userSpaceOnUse" alignment="0 0" imageRepeat="None" />
    <mask fill="white" id="Clip2864">
      <path d="M 0.7733333333332363 9.427785714285715  L 0.7733333333332363 1.5706428571428563  C 0.7733333333332363 1.028264285714287  1.2711111111111677 0.588499999999999  1.8844444444443473 0.588499999999999  L 14.10666666666657 0.588499999999999  C 14.719999999999951 0.588499999999999  15.21777777777768 1.028264285714287  15.21777777777768 1.5706428571428563  L 15.21777777777768 9.427785714285715  C 15.21777777777768 9.970242857142857  14.719999999999951 10.409928571428573  14.10666666666657 10.409928571428573  L 1.8844444444443473 10.409928571428573  C 1.2711111111111677 10.409928571428573  0.7733333333332363 9.970242857142857  0.7733333333332363 9.427785714285715  Z M 8 4.909064285714287  L 13.662222222222125 1.5706428571428563  L 2.337777777777875 1.5706428571428563  L 8 4.909064285714287  Z M 8 6.089442857142856  L 1.8844444444443473 2.488199999999999  L 1.8844444444443473 9.427785714285715  L 14.10666666666657 9.427785714285715  L 14.10666666666657 2.488199999999999  L 8 6.089442857142856  Z " fill-rule="evenodd" />
    </mask>
  </defs>
  <g transform="matrix(1 0 0 1 -1597 -29 )">
    <path d="M 0.7733333333332363 9.427785714285715  L 0.7733333333332363 1.5706428571428563  C 0.7733333333332363 1.028264285714287  1.2711111111111677 0.588499999999999  1.8844444444443473 0.588499999999999  L 14.10666666666657 0.588499999999999  C 14.719999999999951 0.588499999999999  15.21777777777768 1.028264285714287  15.21777777777768 1.5706428571428563  L 15.21777777777768 9.427785714285715  C 15.21777777777768 9.970242857142857  14.719999999999951 10.409928571428573  14.10666666666657 10.409928571428573  L 1.8844444444443473 10.409928571428573  C 1.2711111111111677 10.409928571428573  0.7733333333332363 9.970242857142857  0.7733333333332363 9.427785714285715  Z M 8 4.909064285714287  L 13.662222222222125 1.5706428571428563  L 2.337777777777875 1.5706428571428563  L 8 4.909064285714287  Z M 8 6.089442857142856  L 1.8844444444443473 2.488199999999999  L 1.8844444444443473 9.427785714285715  L 14.10666666666657 9.427785714285715  L 14.10666666666657 2.488199999999999  L 8 6.089442857142856  Z " fill-rule="nonzero" fill="rgba(0, 0, 0, 1)" stroke="none" transform="matrix(1 0 0 1 1597 29 )" class="fill" />
    <path d="M 0.7733333333332363 9.427785714285715  L 0.7733333333332363 1.5706428571428563  C 0.7733333333332363 1.028264285714287  1.2711111111111677 0.588499999999999  1.8844444444443473 0.588499999999999  L 14.10666666666657 0.588499999999999  C 14.719999999999951 0.588499999999999  15.21777777777768 1.028264285714287  15.21777777777768 1.5706428571428563  L 15.21777777777768 9.427785714285715  C 15.21777777777768 9.970242857142857  14.719999999999951 10.409928571428573  14.10666666666657 10.409928571428573  L 1.8844444444443473 10.409928571428573  C 1.2711111111111677 10.409928571428573  0.7733333333332363 9.970242857142857  0.7733333333332363 9.427785714285715  Z " stroke-width="0" stroke-dasharray="0" stroke="rgba(255, 255, 255, 0)" fill="none" transform="matrix(1 0 0 1 1597 29 )" class="stroke" mask="url(#Clip2864)" />
    <path d="M 8 4.909064285714287  L 13.662222222222125 1.5706428571428563  L 2.337777777777875 1.5706428571428563  L 8 4.909064285714287  Z " stroke-width="0" stroke-dasharray="0" stroke="rgba(255, 255, 255, 0)" fill="none" transform="matrix(1 0 0 1 1597 29 )" class="stroke" mask="url(#Clip2864)" />
    <path d="M 8 6.089442857142856  L 1.8844444444443473 2.488199999999999  L 1.8844444444443473 9.427785714285715  L 14.10666666666657 9.427785714285715  L 14.10666666666657 2.488199999999999  L 8 6.089442857142856  Z " stroke-width="0" stroke-dasharray="0" stroke="rgba(255, 255, 255, 0)" fill="none" transform="matrix(1 0 0 1 1597 29 )" class="stroke" mask="url(#Clip2864)" />
  </g>
</svg>