<?xml version="1.0" encoding="utf-8"?>
<svg version="1.1" xmlns:xlink="http://www.w3.org/1999/xlink" width="18px" height="16px" xmlns="http://www.w3.org/2000/svg">
  <defs>
    <pattern id="BGPattern" patternUnits="userSpaceOnUse" alignment="0 0" imageRepeat="None" />
    <mask fill="white" id="Clip2866">
      <path d="M 0.25 8  C 0.25 12.29555555555556  4.170000000000073 15.777777777777779  9 15.777777777777779  C 13.829999999999927 15.777777777777779  17.75 12.29555555555556  17.75 8  C 17.75 3.704444444444445  13.829999999999927 0.2222222222222222  9 0.2222222222222222  C 4.170000000000073 0.2222222222222222  0.25 3.704444444444445  0.25 8  Z M 16.5 8  C 16.5 9.366311111111113  16.039999999999964 10.636622222222222  15.240000000000009 11.693955555555558  C 13.339999999999918 10.751644444444443  11.230000000000018 10.222222222222221  9 10.222222222222221  C 6.769999999999982 10.222222222222221  4.660000000000082 10.751644444444443  2.759999999999991 11.693955555555558  C 1.9600000000000364 10.63653333333333  1.5 9.366311111111113  1.5 8  C 1.5 4.318133333333334  4.8599999999999 1.3333333333333333  9 1.3333333333333333  C 13.1400000000001 1.3333333333333333  16.5 4.318133333333334  16.5 8  Z M 9 11.333333333333334  C 10.930000000000064 11.333333333333334  12.769999999999982 11.77511111111111  14.450000000000045 12.57617777777778  C 13.089999999999918 13.863377777777778  11.150000000000091 14.666666666666666  9 14.666666666666666  C 6.849999999999909 14.666666666666666  4.910000000000082 13.863377777777778  3.5499999999999545 12.57617777777778  C 5.230000000000018 11.77511111111111  7.069999999999936 11.333333333333334  9 11.333333333333334  Z " fill-rule="evenodd" />
    </mask>
  </defs>
  <g transform="matrix(1 0 0 1 -1461 -28 )">
    <path d="M 0.25 8  C 0.25 12.29555555555556  4.170000000000073 15.777777777777779  9 15.777777777777779  C 13.829999999999927 15.777777777777779  17.75 12.29555555555556  17.75 8  C 17.75 3.704444444444445  13.829999999999927 0.2222222222222222  9 0.2222222222222222  C 4.170000000000073 0.2222222222222222  0.25 3.704444444444445  0.25 8  Z M 16.5 8  C 16.5 9.366311111111113  16.039999999999964 10.636622222222222  15.240000000000009 11.693955555555558  C 13.339999999999918 10.751644444444443  11.230000000000018 10.222222222222221  9 10.222222222222221  C 6.769999999999982 10.222222222222221  4.660000000000082 10.751644444444443  2.759999999999991 11.693955555555558  C 1.9600000000000364 10.63653333333333  1.5 9.366311111111113  1.5 8  C 1.5 4.318133333333334  4.8599999999999 1.3333333333333333  9 1.3333333333333333  C 13.1400000000001 1.3333333333333333  16.5 4.318133333333334  16.5 8  Z M 9 11.333333333333334  C 10.930000000000064 11.333333333333334  12.769999999999982 11.77511111111111  14.450000000000045 12.57617777777778  C 13.089999999999918 13.863377777777778  11.150000000000091 14.666666666666666  9 14.666666666666666  C 6.849999999999909 14.666666666666666  4.910000000000082 13.863377777777778  3.5499999999999545 12.57617777777778  C 5.230000000000018 11.77511111111111  7.069999999999936 11.333333333333334  9 11.333333333333334  Z " fill-rule="nonzero" fill="rgba(0, 0, 0, 1)" stroke="none" transform="matrix(1 0 0 1 1461 28 )" class="fill" />
    <path d="M 0.25 8  C 0.25 12.29555555555556  4.170000000000073 15.777777777777779  9 15.777777777777779  C 13.829999999999927 15.777777777777779  17.75 12.29555555555556  17.75 8  C 17.75 3.704444444444445  13.829999999999927 0.2222222222222222  9 0.2222222222222222  C 4.170000000000073 0.2222222222222222  0.25 3.704444444444445  0.25 8  Z " stroke-width="0" stroke-dasharray="0" stroke="rgba(255, 255, 255, 0)" fill="none" transform="matrix(1 0 0 1 1461 28 )" class="stroke" mask="url(#Clip2866)" />
    <path d="M 16.5 8  C 16.5 9.366311111111113  16.039999999999964 10.636622222222222  15.240000000000009 11.693955555555558  C 13.339999999999918 10.751644444444443  11.230000000000018 10.222222222222221  9 10.222222222222221  C 6.769999999999982 10.222222222222221  4.660000000000082 10.751644444444443  2.759999999999991 11.693955555555558  C 1.9600000000000364 10.63653333333333  1.5 9.366311111111113  1.5 8  C 1.5 4.318133333333334  4.8599999999999 1.3333333333333333  9 1.3333333333333333  C 13.1400000000001 1.3333333333333333  16.5 4.318133333333334  16.5 8  Z " stroke-width="0" stroke-dasharray="0" stroke="rgba(255, 255, 255, 0)" fill="none" transform="matrix(1 0 0 1 1461 28 )" class="stroke" mask="url(#Clip2866)" />
    <path d="M 9 11.333333333333334  C 10.930000000000064 11.333333333333334  12.769999999999982 11.77511111111111  14.450000000000045 12.57617777777778  C 13.089999999999918 13.863377777777778  11.150000000000091 14.666666666666666  9 14.666666666666666  C 6.849999999999909 14.666666666666666  4.910000000000082 13.863377777777778  3.5499999999999545 12.57617777777778  C 5.230000000000018 11.77511111111111  7.069999999999936 11.333333333333334  9 11.333333333333334  Z " stroke-width="0" stroke-dasharray="0" stroke="rgba(255, 255, 255, 0)" fill="none" transform="matrix(1 0 0 1 1461 28 )" class="stroke" mask="url(#Clip2866)" />
  </g>
</svg>