<?xml version="1.0" encoding="utf-8"?>
<svg version="1.1" xmlns:xlink="http://www.w3.org/1999/xlink" width="14px" height="14px" xmlns="http://www.w3.org/2000/svg">
  <defs>
    <pattern id="BGPattern" patternUnits="userSpaceOnUse" alignment="0 0" imageRepeat="None" />
    <mask fill="white" id="Clip2869">
      <path d="M 0.36750000000006366 3.71871111111111  L 7 0.4375  L 13.632499999999936 3.71871111111111  L 13.632499999999936 10.281288888888891  L 7 13.5625  L 0.36750000000006366 10.281288888888891  L 0.36750000000006366 3.71871111111111  Z M 7 1.5502666666666678  L 1.4612500000000637 4.290222222222221  L 1.4612500000000637 9.70977777777778  L 7 12.44973333333333  L 12.538749999999936 9.70977777777778  L 12.538749999999936 4.290222222222221  L 7 1.5502666666666678  Z " fill-rule="evenodd" />
    </mask>
  </defs>
  <g transform="matrix(1 0 0 1 -1807 -27 )">
    <path d="M 0.36750000000006366 3.71871111111111  L 7 0.4375  L 13.632499999999936 3.71871111111111  L 13.632499999999936 10.281288888888891  L 7 13.5625  L 0.36750000000006366 10.281288888888891  L 0.36750000000006366 3.71871111111111  Z M 7 1.5502666666666678  L 1.4612500000000637 4.290222222222221  L 1.4612500000000637 9.70977777777778  L 7 12.44973333333333  L 12.538749999999936 9.70977777777778  L 12.538749999999936 4.290222222222221  L 7 1.5502666666666678  Z " fill-rule="nonzero" fill="rgba(0, 0, 0, 0.8980392156862745)" stroke="none" transform="matrix(1 0 0 1 1807 27 )" class="fill" />
    <path d="M 0.36750000000006366 3.71871111111111  L 7 0.4375  L 13.632499999999936 3.71871111111111  L 13.632499999999936 10.281288888888891  L 7 13.5625  L 0.36750000000006366 10.281288888888891  L 0.36750000000006366 3.71871111111111  Z " stroke-width="0" stroke-dasharray="0" stroke="rgba(255, 255, 255, 0)" fill="none" transform="matrix(1 0 0 1 1807 27 )" class="stroke" mask="url(#Clip2869)" />
    <path d="M 7 1.5502666666666678  L 1.4612500000000637 4.290222222222221  L 1.4612500000000637 9.70977777777778  L 7 12.44973333333333  L 12.538749999999936 9.70977777777778  L 12.538749999999936 4.290222222222221  L 7 1.5502666666666678  Z " stroke-width="0" stroke-dasharray="0" stroke="rgba(255, 255, 255, 0)" fill="none" transform="matrix(1 0 0 1 1807 27 )" class="stroke" mask="url(#Clip2869)" />
  </g>
</svg>