<?xml version="1.0" encoding="utf-8"?>
<svg version="1.1" xmlns:xlink="http://www.w3.org/1999/xlink" width="9px" height="5px" xmlns="http://www.w3.org/2000/svg">
  <defs>
    <pattern id="BGPattern" patternUnits="userSpaceOnUse" alignment="0 0" imageRepeat="None" />
    <mask fill="white" id="Clip2867">
      <path d="M 4.5 4.932833333333336  L 0.4859999999999673 1.216500000000001  L 1.3140000000000327 0.4504166666666679  L 4.5 3.4007499999999995  L 7.685999999999967 0.4504166666666679  L 8.514000000000033 1.216500000000001  L 4.5 4.932833333333336  Z " fill-rule="evenodd" />
    </mask>
  </defs>
  <g transform="matrix(1 0 0 1 -1572 -35 )">
    <path d="M 4.5 4.932833333333336  L 0.4859999999999673 1.216500000000001  L 1.3140000000000327 0.4504166666666679  L 4.5 3.4007499999999995  L 7.685999999999967 0.4504166666666679  L 8.514000000000033 1.216500000000001  L 4.5 4.932833333333336  Z " fill-rule="nonzero" fill="rgba(0, 0, 0, 1)" stroke="none" transform="matrix(1 0 0 1 1572 35 )" class="fill" />
    <path d="M 4.5 4.932833333333336  L 0.4859999999999673 1.216500000000001  L 1.3140000000000327 0.4504166666666679  L 4.5 3.4007499999999995  L 7.685999999999967 0.4504166666666679  L 8.514000000000033 1.216500000000001  L 4.5 4.932833333333336  Z " stroke-width="0" stroke-dasharray="0" stroke="rgba(255, 255, 255, 0)" fill="none" transform="matrix(1 0 0 1 1572 35 )" class="stroke" mask="url(#Clip2867)" />
  </g>
</svg>