<?xml version="1.0" encoding="utf-8"?>
<svg version="1.1" xmlns:xlink="http://www.w3.org/1999/xlink" width="13px" height="14px" xmlns="http://www.w3.org/2000/svg">
  <defs>
    <pattern id="BGPattern" patternUnits="userSpaceOnUse" alignment="0 0" imageRepeat="None" />
    <mask fill="white" id="Clip2874">
      <path d="M 9.646000000000095 13.319444444444443  L 4.229333333333428 13.319444444444443  L 4.229333333333428 11.563766666666666  L 3.241333333333341 11.563766666666666  C 2.4613333333332625 11.563766666666666  1.82866666666658 10.993733333333331  1.82866666666658 10.290544444444443  C 1.82866666666658 10.043833333333332  1.6033333333332545 9.843711111111109  1.3259999999999763 9.843711111111109  L 0.5373333333332387 9.843711111111109  L 0.5373333333332387 9.017400000000002  L 1.3259999999999763 9.017400000000002  C 1.3866666666665879 9.017400000000002  1.4473333333333964 9.020822222222222  1.5080000000000078 9.027433333333331  C 1.542666666666643 9.031788888888887  1.585999999999937 9.037466666666667  1.620666666666572 9.04438888888889  C 2.0800000000000787 9.130411111111112  2.4526666666666035 9.414377777777776  2.6346666666666354 9.791988888888888  C 2.703999999999905 9.945133333333334  2.7473333333333962 10.113599999999998  2.7473333333333962 10.290544444444443  C 2.7473333333333962 10.506066666666669  2.9119999999999133 10.685966666666666  3.1460000000000945 10.728044444444443  C 3.172000000000071 10.734188888888887  3.206666666666706 10.737377777777777  3.241333333333341 10.737377777777777  L 4.229333333333428 10.737377777777777  L 4.229333333333428 10.366611111111109  C 4.229333333333428 10.24442222222222  4.238000000000087 10.123633333333334  4.264000000000063 10.005566666666667  C 4.298666666666699 9.824577777777776  4.367999999999968 9.650122222222222  4.463333333333412 9.487255555555553  C 4.108000000000008 9.37992222222222  3.7786666666665805 9.25011111111111  3.466666666666667 9.100622222222224  L 3.4406666666666905 9.089655555555556  C 2.9033333333332547 8.827855555555555  2.4266666666666272 8.506477777777778  2.0453333333332466 8.139755555555556  C 1.3693333333332702 7.486422222222221  0.9619999999999134 6.689122222222222  0.9619999999999134 5.8285888888888895  C 0.9619999999999134 5.007255555555554  1.3259999999999763 4.243477777777777  1.9586666666666588 3.6074888888888896  L 1.906666666666706 3.3940666666666672  C 1.6986666666666983 2.4577777777777783  1.906666666666706 1.4840777777777787  2.4960000000000946 0.6873222222222231  C 3.5533333333332546 0.6288333333333322  4.601999999999953 0.951844444444445  5.399333333333349 1.5851111111111114  L 5.78066666666673 1.8872777777777783  C 6.144666666666596 1.8403777777777772  6.517333333333317 1.8157222222222211  6.898666666666697 1.8157222222222211  C 7.323333333333372 1.8157222222222211  7.739333333333389 1.8455888888888898  8.138000000000087 1.9022888888888876  L 8.536666666666589 1.5851888888888888  C 9.333999999999984 0.951844444444445  10.374000000000024 0.6289111111111099  11.440000000000039 0.6874000000000007  C 12.029333333333428 1.4840777777777787  12.237333333333238 2.4578555555555557  12.029333333333428 3.3941444444444455  L 11.951333333333302 3.71731111111111  C 12.514666666666715 4.33058888888889  12.835333333333287 5.054  12.835333333333287 5.8285888888888895  C 12.835333333333287 7.170644444444445  11.864666666666714 8.358777777777778  10.365333333333366 9.087322222222223  C 10.053333333333255 9.238444444444443  9.724000000000023 9.369811111111112  9.36866666666662 9.47862222222222  C 9.49000000000004 9.673455555555556  9.576666666666627 9.886100000000003  9.611333333333262 10.107377777777774  C 9.62866666666658 10.209344444444444  9.646000000000095 10.313177777777778  9.646000000000095 10.417944444444444  L 9.646000000000095 13.319444444444443  Z M 6.898666666666697 2.7879444444444434  C 6.569333333333271 2.7879444444444434  6.248666666666698 2.8092555555555547  5.936666666666588 2.849622222222221  L 5.433999999999984 2.91378888888889  L 4.680000000000079 2.3131111111111116  C 4.246666666666745 1.9649777777777768  3.700666666666651 1.745333333333333  3.12866666666658 1.6762666666666672  C 2.9119999999999133 2.1551444444444456  2.8513333333333017 2.6853555555555557  2.9726666666667216 3.2000888888888888  L 3.12866666666658 3.8883444444444457  L 2.764666666666714 4.251411111111112  C 2.288000000000087 4.736899999999999  2.0453333333332466 5.278388888888889  2.0453333333332466 5.8285888888888895  C 2.0453333333332466 6.896322222222224  3.0160000000000156 8.01842222222222  4.8099999999999605 8.566833333333332  L 5.988666666666737 8.927800000000001  L 5.425333333333326 9.92693333333333  C 5.347333333333396 10.061566666666668  5.312666666666761 10.211755555555552  5.312666666666761 10.366611111111109  L 5.312666666666761 12.347222222222221  L 8.562666666666761 12.347222222222221  L 8.562666666666761 10.417944444444444  C 8.562666666666761 10.251888888888885  8.51066666666661 10.090655555555557  8.424000000000023 9.948244444444441  L 7.8 8.936588888888888  L 9.022000000000071 8.559600000000003  C 10.798666666666698 8.008  11.751999999999953 6.89157777777778  11.751999999999953 5.8285888888888895  C 11.751999999999953 5.3088000000000015  11.543999999999945 4.798577777777776  11.119333333333271 4.335099999999999  L 10.79000000000004 3.9773222222222238  L 10.963333333333411 3.200166666666666  C 11.084666666666635 2.685433333333333  11.024000000000024 2.155222222222223  10.798666666666698 1.6763444444444446  C 10.226666666666627 1.745333333333333  9.689333333333389 1.9650555555555547  9.256000000000055 2.313188888888889  L 8.467333333333317 2.934555555555555  L 7.964666666666715 2.862455555555555  C 7.626666666666628 2.8138444444444435  7.27133333333342 2.7879444444444434  6.898666666666697 2.7879444444444434  Z " fill-rule="evenodd" />
    </mask>
  </defs>
  <g transform="matrix(1 0 0 1 -1722 -27 )">
    <path d="M 9.646000000000095 13.319444444444443  L 4.229333333333428 13.319444444444443  L 4.229333333333428 11.563766666666666  L 3.241333333333341 11.563766666666666  C 2.4613333333332625 11.563766666666666  1.82866666666658 10.993733333333331  1.82866666666658 10.290544444444443  C 1.82866666666658 10.043833333333332  1.6033333333332545 9.843711111111109  1.3259999999999763 9.843711111111109  L 0.5373333333332387 9.843711111111109  L 0.5373333333332387 9.017400000000002  L 1.3259999999999763 9.017400000000002  C 1.3866666666665879 9.017400000000002  1.4473333333333964 9.020822222222222  1.5080000000000078 9.027433333333331  C 1.542666666666643 9.031788888888887  1.585999999999937 9.037466666666667  1.620666666666572 9.04438888888889  C 2.0800000000000787 9.130411111111112  2.4526666666666035 9.414377777777776  2.6346666666666354 9.791988888888888  C 2.703999999999905 9.945133333333334  2.7473333333333962 10.113599999999998  2.7473333333333962 10.290544444444443  C 2.7473333333333962 10.506066666666669  2.9119999999999133 10.685966666666666  3.1460000000000945 10.728044444444443  C 3.172000000000071 10.734188888888887  3.206666666666706 10.737377777777777  3.241333333333341 10.737377777777777  L 4.229333333333428 10.737377777777777  L 4.229333333333428 10.366611111111109  C 4.229333333333428 10.24442222222222  4.238000000000087 10.123633333333334  4.264000000000063 10.005566666666667  C 4.298666666666699 9.824577777777776  4.367999999999968 9.650122222222222  4.463333333333412 9.487255555555553  C 4.108000000000008 9.37992222222222  3.7786666666665805 9.25011111111111  3.466666666666667 9.100622222222224  L 3.4406666666666905 9.089655555555556  C 2.9033333333332547 8.827855555555555  2.4266666666666272 8.506477777777778  2.0453333333332466 8.139755555555556  C 1.3693333333332702 7.486422222222221  0.9619999999999134 6.689122222222222  0.9619999999999134 5.8285888888888895  C 0.9619999999999134 5.007255555555554  1.3259999999999763 4.243477777777777  1.9586666666666588 3.6074888888888896  L 1.906666666666706 3.3940666666666672  C 1.6986666666666983 2.4577777777777783  1.906666666666706 1.4840777777777787  2.4960000000000946 0.6873222222222231  C 3.5533333333332546 0.6288333333333322  4.601999999999953 0.951844444444445  5.399333333333349 1.5851111111111114  L 5.78066666666673 1.8872777777777783  C 6.144666666666596 1.8403777777777772  6.517333333333317 1.8157222222222211  6.898666666666697 1.8157222222222211  C 7.323333333333372 1.8157222222222211  7.739333333333389 1.8455888888888898  8.138000000000087 1.9022888888888876  L 8.536666666666589 1.5851888888888888  C 9.333999999999984 0.951844444444445  10.374000000000024 0.6289111111111099  11.440000000000039 0.6874000000000007  C 12.029333333333428 1.4840777777777787  12.237333333333238 2.4578555555555557  12.029333333333428 3.3941444444444455  L 11.951333333333302 3.71731111111111  C 12.514666666666715 4.33058888888889  12.835333333333287 5.054  12.835333333333287 5.8285888888888895  C 12.835333333333287 7.170644444444445  11.864666666666714 8.358777777777778  10.365333333333366 9.087322222222223  C 10.053333333333255 9.238444444444443  9.724000000000023 9.369811111111112  9.36866666666662 9.47862222222222  C 9.49000000000004 9.673455555555556  9.576666666666627 9.886100000000003  9.611333333333262 10.107377777777774  C 9.62866666666658 10.209344444444444  9.646000000000095 10.313177777777778  9.646000000000095 10.417944444444444  L 9.646000000000095 13.319444444444443  Z M 6.898666666666697 2.7879444444444434  C 6.569333333333271 2.7879444444444434  6.248666666666698 2.8092555555555547  5.936666666666588 2.849622222222221  L 5.433999999999984 2.91378888888889  L 4.680000000000079 2.3131111111111116  C 4.246666666666745 1.9649777777777768  3.700666666666651 1.745333333333333  3.12866666666658 1.6762666666666672  C 2.9119999999999133 2.1551444444444456  2.8513333333333017 2.6853555555555557  2.9726666666667216 3.2000888888888888  L 3.12866666666658 3.8883444444444457  L 2.764666666666714 4.251411111111112  C 2.288000000000087 4.736899999999999  2.0453333333332466 5.278388888888889  2.0453333333332466 5.8285888888888895  C 2.0453333333332466 6.896322222222224  3.0160000000000156 8.01842222222222  4.8099999999999605 8.566833333333332  L 5.988666666666737 8.927800000000001  L 5.425333333333326 9.92693333333333  C 5.347333333333396 10.061566666666668  5.312666666666761 10.211755555555552  5.312666666666761 10.366611111111109  L 5.312666666666761 12.347222222222221  L 8.562666666666761 12.347222222222221  L 8.562666666666761 10.417944444444444  C 8.562666666666761 10.251888888888885  8.51066666666661 10.090655555555557  8.424000000000023 9.948244444444441  L 7.8 8.936588888888888  L 9.022000000000071 8.559600000000003  C 10.798666666666698 8.008  11.751999999999953 6.89157777777778  11.751999999999953 5.8285888888888895  C 11.751999999999953 5.3088000000000015  11.543999999999945 4.798577777777776  11.119333333333271 4.335099999999999  L 10.79000000000004 3.9773222222222238  L 10.963333333333411 3.200166666666666  C 11.084666666666635 2.685433333333333  11.024000000000024 2.155222222222223  10.798666666666698 1.6763444444444446  C 10.226666666666627 1.745333333333333  9.689333333333389 1.9650555555555547  9.256000000000055 2.313188888888889  L 8.467333333333317 2.934555555555555  L 7.964666666666715 2.862455555555555  C 7.626666666666628 2.8138444444444435  7.27133333333342 2.7879444444444434  6.898666666666697 2.7879444444444434  Z " fill-rule="nonzero" fill="rgba(0, 0, 0, 0.8980392156862745)" stroke="none" transform="matrix(1 0 0 1 1722 27 )" class="fill" />
    <path d="M 9.646000000000095 13.319444444444443  L 4.229333333333428 13.319444444444443  L 4.229333333333428 11.563766666666666  L 3.241333333333341 11.563766666666666  C 2.4613333333332625 11.563766666666666  1.82866666666658 10.993733333333331  1.82866666666658 10.290544444444443  C 1.82866666666658 10.043833333333332  1.6033333333332545 9.843711111111109  1.3259999999999763 9.843711111111109  L 0.5373333333332387 9.843711111111109  L 0.5373333333332387 9.017400000000002  L 1.3259999999999763 9.017400000000002  C 1.3866666666665879 9.017400000000002  1.4473333333333964 9.020822222222222  1.5080000000000078 9.027433333333331  C 1.542666666666643 9.031788888888887  1.585999999999937 9.037466666666667  1.620666666666572 9.04438888888889  C 2.0800000000000787 9.130411111111112  2.4526666666666035 9.414377777777776  2.6346666666666354 9.791988888888888  C 2.703999999999905 9.945133333333334  2.7473333333333962 10.113599999999998  2.7473333333333962 10.290544444444443  C 2.7473333333333962 10.506066666666669  2.9119999999999133 10.685966666666666  3.1460000000000945 10.728044444444443  C 3.172000000000071 10.734188888888887  3.206666666666706 10.737377777777777  3.241333333333341 10.737377777777777  L 4.229333333333428 10.737377777777777  L 4.229333333333428 10.366611111111109  C 4.229333333333428 10.24442222222222  4.238000000000087 10.123633333333334  4.264000000000063 10.005566666666667  C 4.298666666666699 9.824577777777776  4.367999999999968 9.650122222222222  4.463333333333412 9.487255555555553  C 4.108000000000008 9.37992222222222  3.7786666666665805 9.25011111111111  3.466666666666667 9.100622222222224  L 3.4406666666666905 9.089655555555556  C 2.9033333333332547 8.827855555555555  2.4266666666666272 8.506477777777778  2.0453333333332466 8.139755555555556  C 1.3693333333332702 7.486422222222221  0.9619999999999134 6.689122222222222  0.9619999999999134 5.8285888888888895  C 0.9619999999999134 5.007255555555554  1.3259999999999763 4.243477777777777  1.9586666666666588 3.6074888888888896  L 1.906666666666706 3.3940666666666672  C 1.6986666666666983 2.4577777777777783  1.906666666666706 1.4840777777777787  2.4960000000000946 0.6873222222222231  C 3.5533333333332546 0.6288333333333322  4.601999999999953 0.951844444444445  5.399333333333349 1.5851111111111114  L 5.78066666666673 1.8872777777777783  C 6.144666666666596 1.8403777777777772  6.517333333333317 1.8157222222222211  6.898666666666697 1.8157222222222211  C 7.323333333333372 1.8157222222222211  7.739333333333389 1.8455888888888898  8.138000000000087 1.9022888888888876  L 8.536666666666589 1.5851888888888888  C 9.333999999999984 0.951844444444445  10.374000000000024 0.6289111111111099  11.440000000000039 0.6874000000000007  C 12.029333333333428 1.4840777777777787  12.237333333333238 2.4578555555555557  12.029333333333428 3.3941444444444455  L 11.951333333333302 3.71731111111111  C 12.514666666666715 4.33058888888889  12.835333333333287 5.054  12.835333333333287 5.8285888888888895  C 12.835333333333287 7.170644444444445  11.864666666666714 8.358777777777778  10.365333333333366 9.087322222222223  C 10.053333333333255 9.238444444444443  9.724000000000023 9.369811111111112  9.36866666666662 9.47862222222222  C 9.49000000000004 9.673455555555556  9.576666666666627 9.886100000000003  9.611333333333262 10.107377777777774  C 9.62866666666658 10.209344444444444  9.646000000000095 10.313177777777778  9.646000000000095 10.417944444444444  L 9.646000000000095 13.319444444444443  Z " stroke-width="0" stroke-dasharray="0" stroke="rgba(255, 255, 255, 0)" fill="none" transform="matrix(1 0 0 1 1722 27 )" class="stroke" mask="url(#Clip2874)" />
    <path d="M 6.898666666666697 2.7879444444444434  C 6.569333333333271 2.7879444444444434  6.248666666666698 2.8092555555555547  5.936666666666588 2.849622222222221  L 5.433999999999984 2.91378888888889  L 4.680000000000079 2.3131111111111116  C 4.246666666666745 1.9649777777777768  3.700666666666651 1.745333333333333  3.12866666666658 1.6762666666666672  C 2.9119999999999133 2.1551444444444456  2.8513333333333017 2.6853555555555557  2.9726666666667216 3.2000888888888888  L 3.12866666666658 3.8883444444444457  L 2.764666666666714 4.251411111111112  C 2.288000000000087 4.736899999999999  2.0453333333332466 5.278388888888889  2.0453333333332466 5.8285888888888895  C 2.0453333333332466 6.896322222222224  3.0160000000000156 8.01842222222222  4.8099999999999605 8.566833333333332  L 5.988666666666737 8.927800000000001  L 5.425333333333326 9.92693333333333  C 5.347333333333396 10.061566666666668  5.312666666666761 10.211755555555552  5.312666666666761 10.366611111111109  L 5.312666666666761 12.347222222222221  L 8.562666666666761 12.347222222222221  L 8.562666666666761 10.417944444444444  C 8.562666666666761 10.251888888888885  8.51066666666661 10.090655555555557  8.424000000000023 9.948244444444441  L 7.8 8.936588888888888  L 9.022000000000071 8.559600000000003  C 10.798666666666698 8.008  11.751999999999953 6.89157777777778  11.751999999999953 5.8285888888888895  C 11.751999999999953 5.3088000000000015  11.543999999999945 4.798577777777776  11.119333333333271 4.335099999999999  L 10.79000000000004 3.9773222222222238  L 10.963333333333411 3.200166666666666  C 11.084666666666635 2.685433333333333  11.024000000000024 2.155222222222223  10.798666666666698 1.6763444444444446  C 10.226666666666627 1.745333333333333  9.689333333333389 1.9650555555555547  9.256000000000055 2.313188888888889  L 8.467333333333317 2.934555555555555  L 7.964666666666715 2.862455555555555  C 7.626666666666628 2.8138444444444435  7.27133333333342 2.7879444444444434  6.898666666666697 2.7879444444444434  Z " stroke-width="0" stroke-dasharray="0" stroke="rgba(255, 255, 255, 0)" fill="none" transform="matrix(1 0 0 1 1722 27 )" class="stroke" mask="url(#Clip2874)" />
  </g>
</svg>