<?xml version="1.0" encoding="utf-8"?>
<svg version="1.1" xmlns:xlink="http://www.w3.org/1999/xlink" width="17px" height="16px" xmlns="http://www.w3.org/2000/svg">
  <defs>
    <pattern id="BGPattern" patternUnits="userSpaceOnUse" alignment="0 0" imageRepeat="None" />
    <mask fill="white" id="Clip2878">
      <path d="M 0 8  C 0 3.58176  3.808000000000016 0  8.5 0  C 13.191999999999986 0  17 3.58176  17 8  C 17 12.41824  13.191999999999986 16  8.5 16  C 3.808000000000016 16  0 12.41824  0 8  Z " fill-rule="evenodd" />
    </mask>
  </defs>
  <g transform="matrix(1 0 0 1 -1603 -18 )">
    <path d="M 0 8  C 0 3.58176  3.808000000000016 0  8.5 0  C 13.191999999999986 0  17 3.58176  17 8  C 17 12.41824  13.191999999999986 16  8.5 16  C 3.808000000000016 16  0 12.41824  0 8  Z " fill-rule="nonzero" fill="rgba(227, 77, 89, 1)" stroke="none" transform="matrix(1 0 0 1 1603 18 )" class="fill" />
    <path d="M 0 8  C 0 3.58176  3.808000000000016 0  8.5 0  C 13.191999999999986 0  17 3.58176  17 8  C 17 12.41824  13.191999999999986 16  8.5 16  C 3.808000000000016 16  0 12.41824  0 8  Z " stroke-width="0" stroke-dasharray="0" stroke="rgba(255, 255, 255, 0)" fill="none" transform="matrix(1 0 0 1 1603 18 )" class="stroke" mask="url(#Clip2878)" />
  </g>
</svg>