<?xml version="1.0" encoding="utf-8"?>
<svg version="1.1" xmlns:xlink="http://www.w3.org/1999/xlink" width="11px" height="11px" xmlns="http://www.w3.org/2000/svg">
  <defs>
    <pattern id="BGPattern" patternUnits="userSpaceOnUse" alignment="0 0" imageRepeat="None" />
    <mask fill="white" id="Clip891">
      <path d="M 7.333333333333333 1.6923076923076925  L 3.6666666666666665 1.6923076923076925  L 3.6666666666666665 0.42307692307692313  L 2.75 0.42307692307692313  L 2.75 1.6923076923076925  L 0.9166666666666666 1.6923076923076925  C 0.41040567333334366 1.6923076923076925  0 2.071143393846114  0 2.5384615384615388  L 0 10.153846153846155  C 0 10.621163553846179  0.4104054533333776 11  0.9166666666666666 11  L 10.083333333333332 11  C 10.589593850000028 11  11 10.621164400000024  11 10.153846153846155  L 11 2.5384615384615388  C 11 2.071143698461548  10.58959476666659 1.6923076923076925  10.083333333333332 1.6923076923076925  L 8.25 1.6923076923076925  L 8.25 0.42307692307692313  L 7.333333333333333 0.42307692307692313  L 7.333333333333333 1.6923076923076925  Z M 0.9166666666666666 2.5384615384615388  L 2.75 2.5384615384615388  L 2.75 3.384615384615385  L 3.6666666666666665 3.384615384615385  L 3.6666666666666665 2.5384615384615388  L 7.333333333333333 2.5384615384615388  L 7.333333333333333 3.384615384615385  L 8.25 3.384615384615385  L 8.25 2.5384615384615388  L 10.083333333333332 2.5384615384615388  L 10.083333333333332 4.230769230769231  L 0.9166666666666666 4.230769230769231  L 0.9166666666666666 2.5384615384615388  Z M 10.083333333333332 10.153846153846155  L 0.9166666666666666 10.153846153846155  L 0.9166666666666666 5.0769230769230775  L 10.083333333333332 5.0769230769230775  L 10.083333333333332 10.153846153846155  Z " fill-rule="evenodd" />
    </mask>
  </defs>
  <g transform="matrix(1 0 0 1 -1617 -2018 )">
    <path d="M 7.333333333333333 1.6923076923076925  L 3.6666666666666665 1.6923076923076925  L 3.6666666666666665 0.42307692307692313  L 2.75 0.42307692307692313  L 2.75 1.6923076923076925  L 0.9166666666666666 1.6923076923076925  C 0.41040567333334366 1.6923076923076925  0 2.071143393846114  0 2.5384615384615388  L 0 10.153846153846155  C 0 10.621163553846179  0.4104054533333776 11  0.9166666666666666 11  L 10.083333333333332 11  C 10.589593850000028 11  11 10.621164400000024  11 10.153846153846155  L 11 2.5384615384615388  C 11 2.071143698461548  10.58959476666659 1.6923076923076925  10.083333333333332 1.6923076923076925  L 8.25 1.6923076923076925  L 8.25 0.42307692307692313  L 7.333333333333333 0.42307692307692313  L 7.333333333333333 1.6923076923076925  Z M 0.9166666666666666 2.5384615384615388  L 2.75 2.5384615384615388  L 2.75 3.384615384615385  L 3.6666666666666665 3.384615384615385  L 3.6666666666666665 2.5384615384615388  L 7.333333333333333 2.5384615384615388  L 7.333333333333333 3.384615384615385  L 8.25 3.384615384615385  L 8.25 2.5384615384615388  L 10.083333333333332 2.5384615384615388  L 10.083333333333332 4.230769230769231  L 0.9166666666666666 4.230769230769231  L 0.9166666666666666 2.5384615384615388  Z M 10.083333333333332 10.153846153846155  L 0.9166666666666666 10.153846153846155  L 0.9166666666666666 5.0769230769230775  L 10.083333333333332 5.0769230769230775  L 10.083333333333332 10.153846153846155  Z " fill-rule="nonzero" fill="rgba(0, 0, 0, 0.8980392156862745)" stroke="none" transform="matrix(1 0 0 1 1617 2018 )" class="fill" />
    <path d="M 7.333333333333333 1.6923076923076925  L 3.6666666666666665 1.6923076923076925  L 3.6666666666666665 0.42307692307692313  L 2.75 0.42307692307692313  L 2.75 1.6923076923076925  L 0.9166666666666666 1.6923076923076925  C 0.41040567333334366 1.6923076923076925  0 2.071143393846114  0 2.5384615384615388  L 0 10.153846153846155  C 0 10.621163553846179  0.4104054533333776 11  0.9166666666666666 11  L 10.083333333333332 11  C 10.589593850000028 11  11 10.621164400000024  11 10.153846153846155  L 11 2.5384615384615388  C 11 2.071143698461548  10.58959476666659 1.6923076923076925  10.083333333333332 1.6923076923076925  L 8.25 1.6923076923076925  L 8.25 0.42307692307692313  L 7.333333333333333 0.42307692307692313  L 7.333333333333333 1.6923076923076925  Z " stroke-width="0" stroke-dasharray="0" stroke="rgba(255, 255, 255, 0)" fill="none" transform="matrix(1 0 0 1 1617 2018 )" class="stroke" mask="url(#Clip891)" />
    <path d="M 0.9166666666666666 2.5384615384615388  L 2.75 2.5384615384615388  L 2.75 3.384615384615385  L 3.6666666666666665 3.384615384615385  L 3.6666666666666665 2.5384615384615388  L 7.333333333333333 2.5384615384615388  L 7.333333333333333 3.384615384615385  L 8.25 3.384615384615385  L 8.25 2.5384615384615388  L 10.083333333333332 2.5384615384615388  L 10.083333333333332 4.230769230769231  L 0.9166666666666666 4.230769230769231  L 0.9166666666666666 2.5384615384615388  Z " stroke-width="0" stroke-dasharray="0" stroke="rgba(255, 255, 255, 0)" fill="none" transform="matrix(1 0 0 1 1617 2018 )" class="stroke" mask="url(#Clip891)" />
    <path d="M 10.083333333333332 10.153846153846155  L 0.9166666666666666 10.153846153846155  L 0.9166666666666666 5.0769230769230775  L 10.083333333333332 5.0769230769230775  L 10.083333333333332 10.153846153846155  Z " stroke-width="0" stroke-dasharray="0" stroke="rgba(255, 255, 255, 0)" fill="none" transform="matrix(1 0 0 1 1617 2018 )" class="stroke" mask="url(#Clip891)" />
  </g>
</svg>