<?xml version="1.0" encoding="utf-8"?>
<svg version="1.1" xmlns:xlink="http://www.w3.org/1999/xlink" width="11px" height="9px" xmlns="http://www.w3.org/2000/svg">
  <defs>
    <pattern id="BGPattern" patternUnits="userSpaceOnUse" alignment="0 0" imageRepeat="None" />
    <mask fill="white" id="Clip629">
      <path d="M 7.333333333333333 1.3846153846153846  L 3.6666666666666665 1.3846153846153846  L 3.6666666666666665 0.34615384615384615  L 2.75 0.34615384615384615  L 2.75 1.3846153846153846  L 0.9166666666666666 1.3846153846153846  C 0.41040567333334366 1.3846153846153846  0 1.6945718676922752  0 2.076923076923077  L 0 8.307692307692308  C 0 8.690042907692328  0.4104054533333776 9  0.9166666666666666 9  L 10.083333333333332 9  C 10.589593850000028 9  11 8.69004360000002  11 8.307692307692308  L 11 2.076923076923077  C 11 1.6945721169230847  10.58959476666659 1.3846153846153846  10.083333333333332 1.3846153846153846  L 8.25 1.3846153846153846  L 8.25 0.34615384615384615  L 7.333333333333333 0.34615384615384615  L 7.333333333333333 1.3846153846153846  Z M 0.9166666666666666 2.076923076923077  L 2.75 2.076923076923077  L 2.75 2.769230769230769  L 3.6666666666666665 2.769230769230769  L 3.6666666666666665 2.076923076923077  L 7.333333333333333 2.076923076923077  L 7.333333333333333 2.769230769230769  L 8.25 2.769230769230769  L 8.25 2.076923076923077  L 10.083333333333332 2.076923076923077  L 10.083333333333332 3.4615384615384617  L 0.9166666666666666 3.4615384615384617  L 0.9166666666666666 2.076923076923077  Z M 10.083333333333332 8.307692307692308  L 0.9166666666666666 8.307692307692308  L 0.9166666666666666 4.153846153846154  L 10.083333333333332 4.153846153846154  L 10.083333333333332 8.307692307692308  Z " fill-rule="evenodd" />
    </mask>
  </defs>
  <g transform="matrix(1 0 0 1 -1386 -604 )">
    <path d="M 7.333333333333333 1.3846153846153846  L 3.6666666666666665 1.3846153846153846  L 3.6666666666666665 0.34615384615384615  L 2.75 0.34615384615384615  L 2.75 1.3846153846153846  L 0.9166666666666666 1.3846153846153846  C 0.41040567333334366 1.3846153846153846  0 1.6945718676922752  0 2.076923076923077  L 0 8.307692307692308  C 0 8.690042907692328  0.4104054533333776 9  0.9166666666666666 9  L 10.083333333333332 9  C 10.589593850000028 9  11 8.69004360000002  11 8.307692307692308  L 11 2.076923076923077  C 11 1.6945721169230847  10.58959476666659 1.3846153846153846  10.083333333333332 1.3846153846153846  L 8.25 1.3846153846153846  L 8.25 0.34615384615384615  L 7.333333333333333 0.34615384615384615  L 7.333333333333333 1.3846153846153846  Z M 0.9166666666666666 2.076923076923077  L 2.75 2.076923076923077  L 2.75 2.769230769230769  L 3.6666666666666665 2.769230769230769  L 3.6666666666666665 2.076923076923077  L 7.333333333333333 2.076923076923077  L 7.333333333333333 2.769230769230769  L 8.25 2.769230769230769  L 8.25 2.076923076923077  L 10.083333333333332 2.076923076923077  L 10.083333333333332 3.4615384615384617  L 0.9166666666666666 3.4615384615384617  L 0.9166666666666666 2.076923076923077  Z M 10.083333333333332 8.307692307692308  L 0.9166666666666666 8.307692307692308  L 0.9166666666666666 4.153846153846154  L 10.083333333333332 4.153846153846154  L 10.083333333333332 8.307692307692308  Z " fill-rule="nonzero" fill="rgba(0, 0, 0, 0.8980392156862745)" stroke="none" transform="matrix(1 0 0 1 1386 604 )" class="fill" />
    <path d="M 7.333333333333333 1.3846153846153846  L 3.6666666666666665 1.3846153846153846  L 3.6666666666666665 0.34615384615384615  L 2.75 0.34615384615384615  L 2.75 1.3846153846153846  L 0.9166666666666666 1.3846153846153846  C 0.41040567333334366 1.3846153846153846  0 1.6945718676922752  0 2.076923076923077  L 0 8.307692307692308  C 0 8.690042907692328  0.4104054533333776 9  0.9166666666666666 9  L 10.083333333333332 9  C 10.589593850000028 9  11 8.69004360000002  11 8.307692307692308  L 11 2.076923076923077  C 11 1.6945721169230847  10.58959476666659 1.3846153846153846  10.083333333333332 1.3846153846153846  L 8.25 1.3846153846153846  L 8.25 0.34615384615384615  L 7.333333333333333 0.34615384615384615  L 7.333333333333333 1.3846153846153846  Z " stroke-width="0" stroke-dasharray="0" stroke="rgba(255, 255, 255, 0)" fill="none" transform="matrix(1 0 0 1 1386 604 )" class="stroke" mask="url(#Clip629)" />
    <path d="M 0.9166666666666666 2.076923076923077  L 2.75 2.076923076923077  L 2.75 2.769230769230769  L 3.6666666666666665 2.769230769230769  L 3.6666666666666665 2.076923076923077  L 7.333333333333333 2.076923076923077  L 7.333333333333333 2.769230769230769  L 8.25 2.769230769230769  L 8.25 2.076923076923077  L 10.083333333333332 2.076923076923077  L 10.083333333333332 3.4615384615384617  L 0.9166666666666666 3.4615384615384617  L 0.9166666666666666 2.076923076923077  Z " stroke-width="0" stroke-dasharray="0" stroke="rgba(255, 255, 255, 0)" fill="none" transform="matrix(1 0 0 1 1386 604 )" class="stroke" mask="url(#Clip629)" />
    <path d="M 10.083333333333332 8.307692307692308  L 0.9166666666666666 8.307692307692308  L 0.9166666666666666 4.153846153846154  L 10.083333333333332 4.153846153846154  L 10.083333333333332 8.307692307692308  Z " stroke-width="0" stroke-dasharray="0" stroke="rgba(255, 255, 255, 0)" fill="none" transform="matrix(1 0 0 1 1386 604 )" class="stroke" mask="url(#Clip629)" />
  </g>
</svg>