<?xml version="1.0" encoding="utf-8"?>
<svg version="1.1" xmlns:xlink="http://www.w3.org/1999/xlink" width="8px" height="8px" xmlns="http://www.w3.org/2000/svg">
  <defs>
    <pattern id="BGPattern" patternUnits="userSpaceOnUse" alignment="0 0" imageRepeat="None" />
    <mask fill="white" id="Clip908">
      <path d="M 0.5299999999999727 3.7749999999999986  C 0.5299999999999727 5.694199999999999  2.0799999999999272 7.25  4 7.25  C 5.920000000000073 7.25  7.470000000000027 5.694199999999999  7.470000000000027 3.7749999999999986  C 7.470000000000027 1.8557999999999986  5.920000000000073 0.3000000000000007  4 0.3000000000000007  C 2.0799999999999272 0.3000000000000007  0.5299999999999727 1.8557999999999986  0.5299999999999727 3.7749999999999986  Z M 6.220000000000027 3.7749999999999986  C 6.220000000000027 5.003799999999998  5.230000000000018 6  4 6  C 2.769999999999982 6  1.7799999999999727 5.003799999999998  1.7799999999999727 3.7749999999999986  C 1.7799999999999727 2.546199999999999  2.769999999999982 1.5500000000000007  4 1.5500000000000007  C 5.230000000000018 1.5500000000000007  6.220000000000027 2.546199999999999  6.220000000000027 3.7749999999999986  Z " fill-rule="evenodd" />
    </mask>
  </defs>
  <g transform="matrix(1 0 0 1 -1656 -1428 )">
    <path d="M 0.5299999999999727 3.7749999999999986  C 0.5299999999999727 5.694199999999999  2.0799999999999272 7.25  4 7.25  C 5.920000000000073 7.25  7.470000000000027 5.694199999999999  7.470000000000027 3.7749999999999986  C 7.470000000000027 1.8557999999999986  5.920000000000073 0.3000000000000007  4 0.3000000000000007  C 2.0799999999999272 0.3000000000000007  0.5299999999999727 1.8557999999999986  0.5299999999999727 3.7749999999999986  Z M 6.220000000000027 3.7749999999999986  C 6.220000000000027 5.003799999999998  5.230000000000018 6  4 6  C 2.769999999999982 6  1.7799999999999727 5.003799999999998  1.7799999999999727 3.7749999999999986  C 1.7799999999999727 2.546199999999999  2.769999999999982 1.5500000000000007  4 1.5500000000000007  C 5.230000000000018 1.5500000000000007  6.220000000000027 2.546199999999999  6.220000000000027 3.7749999999999986  Z " fill-rule="nonzero" fill="rgba(0, 0, 0, 1)" stroke="none" transform="matrix(1 0 0 1 1656 1428 )" class="fill" />
    <path d="M 0.5299999999999727 3.7749999999999986  C 0.5299999999999727 5.694199999999999  2.0799999999999272 7.25  4 7.25  C 5.920000000000073 7.25  7.470000000000027 5.694199999999999  7.470000000000027 3.7749999999999986  C 7.470000000000027 1.8557999999999986  5.920000000000073 0.3000000000000007  4 0.3000000000000007  C 2.0799999999999272 0.3000000000000007  0.5299999999999727 1.8557999999999986  0.5299999999999727 3.7749999999999986  Z " stroke-width="0" stroke-dasharray="0" stroke="rgba(255, 255, 255, 0)" fill="none" transform="matrix(1 0 0 1 1656 1428 )" class="stroke" mask="url(#Clip908)" />
    <path d="M 6.220000000000027 3.7749999999999986  C 6.220000000000027 5.003799999999998  5.230000000000018 6  4 6  C 2.769999999999982 6  1.7799999999999727 5.003799999999998  1.7799999999999727 3.7749999999999986  C 1.7799999999999727 2.546199999999999  2.769999999999982 1.5500000000000007  4 1.5500000000000007  C 5.230000000000018 1.5500000000000007  6.220000000000027 2.546199999999999  6.220000000000027 3.7749999999999986  Z " stroke-width="0" stroke-dasharray="0" stroke="rgba(255, 255, 255, 0)" fill="none" transform="matrix(1 0 0 1 1656 1428 )" class="stroke" mask="url(#Clip908)" />
  </g>
</svg>