<?xml version="1.0" encoding="utf-8"?>
<svg version="1.1" xmlns:xlink="http://www.w3.org/1999/xlink" width="10px" height="6px" xmlns="http://www.w3.org/2000/svg">
  <defs>
    <pattern id="BGPattern" patternUnits="userSpaceOnUse" alignment="0 0" imageRepeat="None" />
    <mask fill="white" id="Clip910">
      <path d="M 5 5.919400000000003  L 0.5399999999999636 1.4598000000000013  L 1.4600000000000364 0.5405000000000015  L 5 4.0809  L 8.539999999999964 0.5405000000000015  L 9.460000000000036 1.4598000000000013  L 5 5.919400000000003  Z " fill-rule="evenodd" />
    </mask>
  </defs>
  <g transform="matrix(1 0 0 1 -1773 -1431 )">
    <path d="M 5 5.919400000000003  L 0.5399999999999636 1.4598000000000013  L 1.4600000000000364 0.5405000000000015  L 5 4.0809  L 8.539999999999964 0.5405000000000015  L 9.460000000000036 1.4598000000000013  L 5 5.919400000000003  Z " fill-rule="nonzero" fill="rgba(0, 0, 0, 1)" stroke="none" transform="matrix(1 0 0 1 1773 1431 )" class="fill" />
    <path d="M 5 5.919400000000003  L 0.5399999999999636 1.4598000000000013  L 1.4600000000000364 0.5405000000000015  L 5 4.0809  L 8.539999999999964 0.5405000000000015  L 9.460000000000036 1.4598000000000013  L 5 5.919400000000003  Z " stroke-width="0" stroke-dasharray="0" stroke="rgba(255, 255, 255, 0)" fill="none" transform="matrix(1 0 0 1 1773 1431 )" class="stroke" mask="url(#Clip910)" />
  </g>
</svg>