<?xml version="1.0" encoding="utf-8"?>
<svg version="1.1" xmlns:xlink="http://www.w3.org/1999/xlink" width="15px" height="18px" xmlns="http://www.w3.org/2000/svg">
  <defs>
    <pattern id="BGPattern" patternUnits="userSpaceOnUse" alignment="0 0" imageRepeat="None" />
    <mask fill="white" id="Clip912">
      <path d="M 0.3937500000000682 4.781199999999998  L 7.5 0.5625  L 14.606249999999932 4.781199999999998  L 14.606249999999932 13.218800000000002  L 7.5 17.4375  L 0.3937500000000682 13.218800000000002  L 0.3937500000000682 4.781199999999998  Z M 7.5 1.9932000000000016  L 1.5656250000000682 5.515999999999998  L 1.5656250000000682 12.484000000000002  L 7.5 16.0068  L 13.434374999999932 12.484000000000002  L 13.434374999999932 5.515999999999998  L 7.5 1.9932000000000016  Z " fill-rule="evenodd" />
    </mask>
  </defs>
  <g transform="matrix(1 0 0 1 -2036 -1425 )">
    <path d="M 0.3937500000000682 4.781199999999998  L 7.5 0.5625  L 14.606249999999932 4.781199999999998  L 14.606249999999932 13.218800000000002  L 7.5 17.4375  L 0.3937500000000682 13.218800000000002  L 0.3937500000000682 4.781199999999998  Z M 7.5 1.9932000000000016  L 1.5656250000000682 5.515999999999998  L 1.5656250000000682 12.484000000000002  L 7.5 16.0068  L 13.434374999999932 12.484000000000002  L 13.434374999999932 5.515999999999998  L 7.5 1.9932000000000016  Z " fill-rule="nonzero" fill="rgba(0, 0, 0, 0.8980392156862745)" stroke="none" transform="matrix(1 0 0 1 2036 1425 )" class="fill" />
    <path d="M 0.3937500000000682 4.781199999999998  L 7.5 0.5625  L 14.606249999999932 4.781199999999998  L 14.606249999999932 13.218800000000002  L 7.5 17.4375  L 0.3937500000000682 13.218800000000002  L 0.3937500000000682 4.781199999999998  Z " stroke-width="0" stroke-dasharray="0" stroke="rgba(255, 255, 255, 0)" fill="none" transform="matrix(1 0 0 1 2036 1425 )" class="stroke" mask="url(#Clip912)" />
    <path d="M 7.5 1.9932000000000016  L 1.5656250000000682 5.515999999999998  L 1.5656250000000682 12.484000000000002  L 7.5 16.0068  L 13.434374999999932 12.484000000000002  L 13.434374999999932 5.515999999999998  L 7.5 1.9932000000000016  Z " stroke-width="0" stroke-dasharray="0" stroke="rgba(255, 255, 255, 0)" fill="none" transform="matrix(1 0 0 1 2036 1425 )" class="stroke" mask="url(#Clip912)" />
  </g>
</svg>