<?xml version="1.0" encoding="utf-8"?>
<svg version="1.1" xmlns:xlink="http://www.w3.org/1999/xlink" width="8px" height="8px" xmlns="http://www.w3.org/2000/svg">
  <defs>
    <pattern id="BGPattern" patternUnits="userSpaceOnUse" alignment="0 0" imageRepeat="None" />
    <mask fill="white" id="Clip915">
      <path d="M 7.029999999999973 3.0389000000000017  C 7.029999999999973 1.3668000000000013  5.670000000000073 0.007600000000000051  4 0.007600000000000051  C 2.3299999999999272 0.007600000000000051  0.9700000000000273 1.3668000000000013  0.9700000000000273 3.0389000000000017  L 2.2200000000000273 3.0389000000000017  C 2.2200000000000273 2.0572000000000017  3.019999999999982 1.2576  4 1.2576  C 4.980000000000018 1.2576  5.779999999999973 2.0572000000000017  5.779999999999973 3.0389000000000017  C 5.779999999999973 3.7110999999999983  5.230000000000018 4.385100000000001  4.5 4.6797  L 4.5 4.681000000000001  C 3.839999999999918 4.9542  3.369999999999891 5.6052000000000035  3.369999999999891 6.365600000000001  L 3.369999999999891 7.5  L 4.619999999999891 7.5  L 4.619999999999891 6.365600000000001  C 4.619999999999891 6.122799999999998  4.769999999999982 5.921599999999998  4.970000000000027 5.837000000000003  C 6.009999999999991 5.4161  7.029999999999973 4.3734  7.029999999999973 3.0389000000000017  Z " fill-rule="evenodd" />
    </mask>
  </defs>
  <g transform="matrix(1 0 0 1 -1995 -1429 )">
    <path d="M 7.029999999999973 3.0389000000000017  C 7.029999999999973 1.3668000000000013  5.670000000000073 0.007600000000000051  4 0.007600000000000051  C 2.3299999999999272 0.007600000000000051  0.9700000000000273 1.3668000000000013  0.9700000000000273 3.0389000000000017  L 2.2200000000000273 3.0389000000000017  C 2.2200000000000273 2.0572000000000017  3.019999999999982 1.2576  4 1.2576  C 4.980000000000018 1.2576  5.779999999999973 2.0572000000000017  5.779999999999973 3.0389000000000017  C 5.779999999999973 3.7110999999999983  5.230000000000018 4.385100000000001  4.5 4.6797  L 4.5 4.681000000000001  C 3.839999999999918 4.9542  3.369999999999891 5.6052000000000035  3.369999999999891 6.365600000000001  L 3.369999999999891 7.5  L 4.619999999999891 7.5  L 4.619999999999891 6.365600000000001  C 4.619999999999891 6.122799999999998  4.769999999999982 5.921599999999998  4.970000000000027 5.837000000000003  C 6.009999999999991 5.4161  7.029999999999973 4.3734  7.029999999999973 3.0389000000000017  Z " fill-rule="nonzero" fill="rgba(0, 0, 0, 0.8980392156862745)" stroke="none" transform="matrix(1 0 0 1 1995 1429 )" class="fill" />
    <path d="M 7.029999999999973 3.0389000000000017  C 7.029999999999973 1.3668000000000013  5.670000000000073 0.007600000000000051  4 0.007600000000000051  C 2.3299999999999272 0.007600000000000051  0.9700000000000273 1.3668000000000013  0.9700000000000273 3.0389000000000017  L 2.2200000000000273 3.0389000000000017  C 2.2200000000000273 2.0572000000000017  3.019999999999982 1.2576  4 1.2576  C 4.980000000000018 1.2576  5.779999999999973 2.0572000000000017  5.779999999999973 3.0389000000000017  C 5.779999999999973 3.7110999999999983  5.230000000000018 4.385100000000001  4.5 4.6797  L 4.5 4.681000000000001  C 3.839999999999918 4.9542  3.369999999999891 5.6052000000000035  3.369999999999891 6.365600000000001  L 3.369999999999891 7.5  L 4.619999999999891 7.5  L 4.619999999999891 6.365600000000001  C 4.619999999999891 6.122799999999998  4.769999999999982 5.921599999999998  4.970000000000027 5.837000000000003  C 6.009999999999991 5.4161  7.029999999999973 4.3734  7.029999999999973 3.0389000000000017  Z " stroke-width="0" stroke-dasharray="0" stroke="rgba(255, 255, 255, 0)" fill="none" transform="matrix(1 0 0 1 1995 1429 )" class="stroke" mask="url(#Clip915)" />
  </g>
</svg>