<?xml version="1.0" encoding="utf-8"?>
<svg version="1.1" xmlns:xlink="http://www.w3.org/1999/xlink" width="17px" height="18px" xmlns="http://www.w3.org/2000/svg">
  <defs>
    <pattern id="BGPattern" patternUnits="userSpaceOnUse" alignment="0 0" imageRepeat="None" />
    <mask fill="white" id="Clip916">
      <path d="M 8.5 17.75  C 13.061666666666598 17.75  16.76388888888889 13.832500000000003  16.76388888888889 9  C 16.76388888888889 4.1675  13.061666666666598 0.25  8.5 0.25  C 3.9383333333334023 0.25  0.2361111111111111 4.1675  0.2361111111111111 9  C 0.2361111111111111 13.832500000000003  3.9383333333334023 17.75  8.5 17.75  Z M 8.5 1.5  C 12.410000000000094 1.5  15.583333333333332 4.857900000000001  15.583333333333332 9  C 15.583333333333332 13.1421  12.410000000000094 16.5  8.5 16.5  C 4.589999999999906 16.5  1.4166666666666665 13.1421  1.4166666666666665 9  C 1.4166666666666665 4.857900000000001  4.589999999999906 1.5  8.5 1.5  Z " fill-rule="evenodd" />
    </mask>
  </defs>
  <g transform="matrix(1 0 0 1 -1990 -1425 )">
    <path d="M 8.5 17.75  C 13.061666666666598 17.75  16.76388888888889 13.832500000000003  16.76388888888889 9  C 16.76388888888889 4.1675  13.061666666666598 0.25  8.5 0.25  C 3.9383333333334023 0.25  0.2361111111111111 4.1675  0.2361111111111111 9  C 0.2361111111111111 13.832500000000003  3.9383333333334023 17.75  8.5 17.75  Z M 8.5 1.5  C 12.410000000000094 1.5  15.583333333333332 4.857900000000001  15.583333333333332 9  C 15.583333333333332 13.1421  12.410000000000094 16.5  8.5 16.5  C 4.589999999999906 16.5  1.4166666666666665 13.1421  1.4166666666666665 9  C 1.4166666666666665 4.857900000000001  4.589999999999906 1.5  8.5 1.5  Z " fill-rule="nonzero" fill="rgba(0, 0, 0, 0.8980392156862745)" stroke="none" transform="matrix(1 0 0 1 1990 1425 )" class="fill" />
    <path d="M 8.5 17.75  C 13.061666666666598 17.75  16.76388888888889 13.832500000000003  16.76388888888889 9  C 16.76388888888889 4.1675  13.061666666666598 0.25  8.5 0.25  C 3.9383333333334023 0.25  0.2361111111111111 4.1675  0.2361111111111111 9  C 0.2361111111111111 13.832500000000003  3.9383333333334023 17.75  8.5 17.75  Z " stroke-width="0" stroke-dasharray="0" stroke="rgba(255, 255, 255, 0)" fill="none" transform="matrix(1 0 0 1 1990 1425 )" class="stroke" mask="url(#Clip916)" />
    <path d="M 8.5 1.5  C 12.410000000000094 1.5  15.583333333333332 4.857900000000001  15.583333333333332 9  C 15.583333333333332 13.1421  12.410000000000094 16.5  8.5 16.5  C 4.589999999999906 16.5  1.4166666666666665 13.1421  1.4166666666666665 9  C 1.4166666666666665 4.857900000000001  4.589999999999906 1.5  8.5 1.5  Z " stroke-width="0" stroke-dasharray="0" stroke="rgba(255, 255, 255, 0)" fill="none" transform="matrix(1 0 0 1 1990 1425 )" class="stroke" mask="url(#Clip916)" />
  </g>
</svg>