<?xml version="1.0" encoding="utf-8"?>
<svg version="1.1" xmlns:xlink="http://www.w3.org/1999/xlink" width="19px" height="20px" xmlns="http://www.w3.org/2000/svg">
  <defs>
    <pattern id="BGPattern" patternUnits="userSpaceOnUse" alignment="0 0" imageRepeat="None" />
    <mask fill="white" id="Clip921">
      <path d="M 0 10  C 0 4.4772  4.256000000000017 0  9.5 0  C 14.743999999999984 0  19 4.4772  19 10  C 19 15.5228  14.743999999999984 20  9.5 20  C 4.256000000000017 20  0 15.5228  0 10  Z " fill-rule="evenodd" />
    </mask>
  </defs>
  <g transform="matrix(1 0 0 1 -1815 -1414 )">
    <path d="M 0 10  C 0 4.4772  4.256000000000017 0  9.5 0  C 14.743999999999984 0  19 4.4772  19 10  C 19 15.5228  14.743999999999984 20  9.5 20  C 4.256000000000017 20  0 15.5228  0 10  Z " fill-rule="nonzero" fill="rgba(227, 77, 89, 1)" stroke="none" transform="matrix(1 0 0 1 1815 1414 )" class="fill" />
    <path d="M 0 10  C 0 4.4772  4.256000000000017 0  9.5 0  C 14.743999999999984 0  19 4.4772  19 10  C 19 15.5228  14.743999999999984 20  9.5 20  C 4.256000000000017 20  0 15.5228  0 10  Z " stroke-width="0" stroke-dasharray="0" stroke="rgba(255, 255, 255, 0)" fill="none" transform="matrix(1 0 0 1 1815 1414 )" class="stroke" mask="url(#Clip921)" />
  </g>
</svg>