<?xml version="1.0" encoding="utf-8"?>
<svg version="1.1" xmlns:xlink="http://www.w3.org/1999/xlink" width="6px" height="9px" xmlns="http://www.w3.org/2000/svg">
  <defs>
    <pattern id="BGPattern" patternUnits="userSpaceOnUse" alignment="0 0" imageRepeat="None" />
    <mask fill="white" id="Clip922">
      <path d="M 5.079999999999927 0.9480000000000004  C 4.559999999999945 0.4920000000000009  3.910000000000082 0.26399999999999935  3.119999999999891 0.26399999999999935  C 2.259999999999991 0.26399999999999935  1.5499999999999545 0.5519999999999996  1.0199999999999818 1.1280000000000001  C 0.4900000000000091 1.6920000000000002  0.22000000000002728 2.460000000000001  0.22000000000002728 3.4200000000000017  L 1.2000000000000455 3.4200000000000017  C 1.2100000000000364 2.6640000000000015  1.3900000000001 2.088000000000001  1.7300000000000182 1.7040000000000006  C 2.0399999999999636 1.2959999999999994  2.5 1.1039999999999992  3.089999999999918 1.1039999999999992  C 3.6400000000001 1.1039999999999992  4.079999999999927 1.248000000000001  4.3900000000001 1.5360000000000014  C 4.710000000000036 1.8240000000000016  4.8599999999999 2.219999999999999  4.8599999999999 2.748000000000001  C 4.8599999999999 3.3000000000000007  4.630000000000109 3.815999999999999  4.2000000000000455 4.283999999999999  C 3.9700000000000273 4.524000000000001  3.5299999999999727 4.872  2.8599999999999 5.352  C 1.9500000000000455 5.975999999999999  1.3299999999999272 6.492000000000001  1 6.876000000000001  C 0.42000000000007276 7.5120000000000005  0.15000000000009095 8.219999999999999  0.15000000000009095 9  L 5.8599999999999 9  L 5.8599999999999 8.123999999999999  L 1.3599999999999 8.123999999999999  C 1.509999999999991 7.547999999999998  2.1400000000001 6.888000000000002  3.230000000000018 6.155999999999999  C 4.119999999999891 5.556000000000001  4.710000000000036 5.088000000000001  5.009999999999991 4.776  C 5.559999999999945 4.175999999999998  5.849999999999909 3.5040000000000013  5.849999999999909 2.7600000000000016  C 5.849999999999909 2.0159999999999982  5.579999999999927 1.404  5.079999999999927 0.9480000000000004  Z " fill-rule="evenodd" />
    </mask>
  </defs>
  <g transform="matrix(1 0 0 1 -1822 -1419 )">
    <path d="M 5.079999999999927 0.9480000000000004  C 4.559999999999945 0.4920000000000009  3.910000000000082 0.26399999999999935  3.119999999999891 0.26399999999999935  C 2.259999999999991 0.26399999999999935  1.5499999999999545 0.5519999999999996  1.0199999999999818 1.1280000000000001  C 0.4900000000000091 1.6920000000000002  0.22000000000002728 2.460000000000001  0.22000000000002728 3.4200000000000017  L 1.2000000000000455 3.4200000000000017  C 1.2100000000000364 2.6640000000000015  1.3900000000001 2.088000000000001  1.7300000000000182 1.7040000000000006  C 2.0399999999999636 1.2959999999999994  2.5 1.1039999999999992  3.089999999999918 1.1039999999999992  C 3.6400000000001 1.1039999999999992  4.079999999999927 1.248000000000001  4.3900000000001 1.5360000000000014  C 4.710000000000036 1.8240000000000016  4.8599999999999 2.219999999999999  4.8599999999999 2.748000000000001  C 4.8599999999999 3.3000000000000007  4.630000000000109 3.815999999999999  4.2000000000000455 4.283999999999999  C 3.9700000000000273 4.524000000000001  3.5299999999999727 4.872  2.8599999999999 5.352  C 1.9500000000000455 5.975999999999999  1.3299999999999272 6.492000000000001  1 6.876000000000001  C 0.42000000000007276 7.5120000000000005  0.15000000000009095 8.219999999999999  0.15000000000009095 9  L 5.8599999999999 9  L 5.8599999999999 8.123999999999999  L 1.3599999999999 8.123999999999999  C 1.509999999999991 7.547999999999998  2.1400000000001 6.888000000000002  3.230000000000018 6.155999999999999  C 4.119999999999891 5.556000000000001  4.710000000000036 5.088000000000001  5.009999999999991 4.776  C 5.559999999999945 4.175999999999998  5.849999999999909 3.5040000000000013  5.849999999999909 2.7600000000000016  C 5.849999999999909 2.0159999999999982  5.579999999999927 1.404  5.079999999999927 0.9480000000000004  Z " fill-rule="nonzero" fill="rgba(255, 255, 255, 1)" stroke="none" transform="matrix(1 0 0 1 1822 1419 )" class="fill" />
    <path d="M 5.079999999999927 0.9480000000000004  C 4.559999999999945 0.4920000000000009  3.910000000000082 0.26399999999999935  3.119999999999891 0.26399999999999935  C 2.259999999999991 0.26399999999999935  1.5499999999999545 0.5519999999999996  1.0199999999999818 1.1280000000000001  C 0.4900000000000091 1.6920000000000002  0.22000000000002728 2.460000000000001  0.22000000000002728 3.4200000000000017  L 1.2000000000000455 3.4200000000000017  C 1.2100000000000364 2.6640000000000015  1.3900000000001 2.088000000000001  1.7300000000000182 1.7040000000000006  C 2.0399999999999636 1.2959999999999994  2.5 1.1039999999999992  3.089999999999918 1.1039999999999992  C 3.6400000000001 1.1039999999999992  4.079999999999927 1.248000000000001  4.3900000000001 1.5360000000000014  C 4.710000000000036 1.8240000000000016  4.8599999999999 2.219999999999999  4.8599999999999 2.748000000000001  C 4.8599999999999 3.3000000000000007  4.630000000000109 3.815999999999999  4.2000000000000455 4.283999999999999  C 3.9700000000000273 4.524000000000001  3.5299999999999727 4.872  2.8599999999999 5.352  C 1.9500000000000455 5.975999999999999  1.3299999999999272 6.492000000000001  1 6.876000000000001  C 0.42000000000007276 7.5120000000000005  0.15000000000009095 8.219999999999999  0.15000000000009095 9  L 5.8599999999999 9  L 5.8599999999999 8.123999999999999  L 1.3599999999999 8.123999999999999  C 1.509999999999991 7.547999999999998  2.1400000000001 6.888000000000002  3.230000000000018 6.155999999999999  C 4.119999999999891 5.556000000000001  4.710000000000036 5.088000000000001  5.009999999999991 4.776  C 5.559999999999945 4.175999999999998  5.849999999999909 3.5040000000000013  5.849999999999909 2.7600000000000016  C 5.849999999999909 2.0159999999999982  5.579999999999927 1.404  5.079999999999927 0.9480000000000004  Z " stroke-width="0" stroke-dasharray="0" stroke="rgba(255, 255, 255, 0)" fill="none" transform="matrix(1 0 0 1 1822 1419 )" class="stroke" mask="url(#Clip922)" />
  </g>
</svg>