<?xml version="1.0" encoding="utf-8"?>
<svg version="1.1" xmlns:xlink="http://www.w3.org/1999/xlink" width="10px" height="5px" xmlns="http://www.w3.org/2000/svg">
  <defs>
    <pattern id="BGPattern" patternUnits="userSpaceOnUse" alignment="0 0" imageRepeat="None" />
    <mask fill="white" id="Clip647">
      <path d="M 4.99966 4.932833333333333  L 0.5400399999999999 1.2164749999999998  L 1.4592799999999997 0.45044166666666696  L 4.99966 3.400758333333333  L 8.54 0.45044166666666696  L 9.4593 1.2164749999999998  L 4.99966 4.932833333333333  Z " fill-rule="evenodd" />
    </mask>
  </defs>
  <g transform="matrix(1 0 0 1 -1666 -495 )">
    <path d="M 4.99966 4.932833333333333  L 0.5400399999999999 1.2164749999999998  L 1.4592799999999997 0.45044166666666696  L 4.99966 3.400758333333333  L 8.54 0.45044166666666696  L 9.4593 1.2164749999999998  L 4.99966 4.932833333333333  Z " fill-rule="nonzero" fill="rgba(0, 0, 0, 0.4)" stroke="none" transform="matrix(1 0 0 1 1666 495 )" class="fill" />
    <path d="M 4.99966 4.932833333333333  L 0.5400399999999999 1.2164749999999998  L 1.4592799999999997 0.45044166666666696  L 4.99966 3.400758333333333  L 8.54 0.45044166666666696  L 9.4593 1.2164749999999998  L 4.99966 4.932833333333333  Z " stroke-width="0" stroke-dasharray="0" stroke="rgba(0, 0, 0, 1)" fill="none" transform="matrix(1 0 0 1 1666 495 )" class="stroke" mask="url(#Clip647)" />
  </g>
</svg>