<?xml version="1.0" encoding="utf-8"?>
<svg version="1.1" xmlns:xlink="http://www.w3.org/1999/xlink" width="305px" height="134px" xmlns="http://www.w3.org/2000/svg">
  <defs>
    <pattern id="BGPattern" patternUnits="userSpaceOnUse" alignment="0 0" imageRepeat="None" />
    <mask fill="white" id="Clip928">
      <path d="M 304.046875 25.811475409836074  C 304.046875 25.811475409836074  263.0625 2.745901639344264  239.234375 2.1967213114753985  C 158.26234976546795 0.33051306527447083  142.96875 46.13114754098362  88.640625 52.17213114754098  C 34.3125 58.21311475409834  0.953125 25.811475409836074  0.953125 25.811475409836074  L 0.953125 103.79508196721314  C 0.953125 103.79508196721314  38.125 137.84426229508196  88.640625 131.8032786885246  C 139.15625 125.76229508196724  197.296875 80.72950819672128  239.234375 80.18032786885246  C 281.171875 79.63114754098362  304.046875 103.79508196721314  304.046875 103.79508196721314  L 304.046875 25.811475409836074  Z " fill-rule="evenodd" />
    </mask>
  </defs>
  <g transform="matrix(1 0 0 1 -160 -2014 )">
    <path d="M 304.046875 25.811475409836074  C 304.046875 25.811475409836074  263.0625 2.745901639344264  239.234375 2.1967213114753985  C 158.26234976546795 0.33051306527447083  142.96875 46.13114754098362  88.640625 52.17213114754098  C 34.3125 58.21311475409834  0.953125 25.811475409836074  0.953125 25.811475409836074  L 0.953125 103.79508196721314  C 0.953125 103.79508196721314  38.125 137.84426229508196  88.640625 131.8032786885246  C 139.15625 125.76229508196724  197.296875 80.72950819672128  239.234375 80.18032786885246  C 281.171875 79.63114754098362  304.046875 103.79508196721314  304.046875 103.79508196721314  L 304.046875 25.811475409836074  Z " fill-rule="nonzero" fill="rgba(129, 211, 248, 0.7529411764705882)" stroke="none" transform="matrix(1 0 0 1 160 2014 )" class="fill" />
    <path d="M 304.046875 25.811475409836074  C 304.046875 25.811475409836074  263.0625 2.745901639344264  239.234375 2.1967213114753985  C 158.26234976546795 0.33051306527447083  142.96875 46.13114754098362  88.640625 52.17213114754098  C 34.3125 58.21311475409834  0.953125 25.811475409836074  0.953125 25.811475409836074  L 0.953125 103.79508196721314  C 0.953125 103.79508196721314  38.125 137.84426229508196  88.640625 131.8032786885246  C 139.15625 125.76229508196724  197.296875 80.72950819672128  239.234375 80.18032786885246  C 281.171875 79.63114754098362  304.046875 103.79508196721314  304.046875 103.79508196721314  L 304.046875 25.811475409836074  Z " stroke-width="2" stroke-dasharray="0" stroke="rgba(255, 255, 255, 1)" fill="none" transform="matrix(1 0 0 1 160 2014 )" class="stroke" mask="url(#Clip928)" />
  </g>
</svg>