<?xml version="1.0" encoding="utf-8"?>
<svg version="1.1" xmlns:xlink="http://www.w3.org/1999/xlink" width="202px" height="214px" xmlns="http://www.w3.org/2000/svg">
  <defs>
    <pattern id="BGPattern" patternUnits="userSpaceOnUse" alignment="0 0" imageRepeat="None" />
    <mask fill="white" id="Clip929">
      <path d="M 0 107  C 0 47.07999999999999  44.44 0  101 0  C 157.56 0  202 47.07999999999999  202 107  C 202 166.92000000000002  157.56 214  101 214  C 44.44 214  0 166.92000000000002  0 107  Z " fill-rule="evenodd" />
    </mask>
  </defs>
  <g transform="matrix(1 0 0 1 -159 -1415 )">
    <path d="M 0 107  C 0 47.07999999999999  44.44 0  101 0  C 157.56 0  202 47.07999999999999  202 107  C 202 166.92000000000002  157.56 214  101 214  C 44.44 214  0 166.92000000000002  0 107  Z " fill-rule="nonzero" fill="rgba(129, 211, 248, 0.9764705882352941)" stroke="none" transform="matrix(1 0 0 1 159 1415 )" class="fill" />
    <path d="M 0 107  C 0 47.07999999999999  44.44 0  101 0  C 157.56 0  202 47.07999999999999  202 107  C 202 166.92000000000002  157.56 214  101 214  C 44.44 214  0 166.92000000000002  0 107  Z " stroke-width="2" stroke-dasharray="0" stroke="rgba(255, 255, 255, 1)" fill="none" transform="matrix(1 0 0 1 159 1415 )" class="stroke" mask="url(#Clip929)" />
  </g>
</svg>