<?xml version="1.0" encoding="utf-8"?>
<svg version="1.1" xmlns:xlink="http://www.w3.org/1999/xlink" width="34px" height="35px" xmlns="http://www.w3.org/2000/svg">
  <defs>
    <pattern id="BGPattern" patternUnits="userSpaceOnUse" alignment="0 0" imageRepeat="None" />
    <mask fill="white" id="Clip931">
      <path d="M 30.450284090909093 14.150390625  C 30.756155303030305 13.861762152777777  30.909090909090907 13.519965277777777  30.909090909090907 13.125  C 30.909090909090907 12.730034722222218  30.756155303030305 12.388237847222218  30.450284090909093 12.099609375  C 30.144412878787882 11.810980902777777  29.782196969696976 11.666666666666668  29.363636363636363 11.666666666666668  C 28.94507575757576 11.666666666666668  28.582859848484848 11.810980902777777  28.276988636363637 12.099609375  C 27.971117424242426 12.388237847222218  27.81818181818182 12.730034722222218  27.81818181818182 13.125  C 27.81818181818182 13.519965277777777  27.971117424242426 13.861762152777777  28.276988636363637 14.150390625  C 28.582859848484848 14.439019097222223  28.94507575757576 14.583333333333332  29.363636363636363 14.583333333333332  C 29.782196969696976 14.583333333333332  30.144412878787882 14.439019097222223  30.450284090909093 14.150390625  Z M 32.64772727272727 10.026041666666668  C 33.54924242424243 10.876736111111109  34 11.909722222222218  34 13.125  C 34 14.066840277777777  33.7142518939394 14.909939236111109  33.14275568181818 15.654296875  C 32.571259469696976 16.398654513888886  31.826704545454543 16.930338541666668  30.909090909090907 17.249348958333332  L 30.909090909090907 26.25  C 30.909090909090907 28.665364583333332  29.850615530303035 30.7275390625  27.733664772727273 32.4365234375  C 25.61671401515152 34.1455078125  23.06912878787879 35  20.090909090909093 35  C 17.112689393939398 35  14.56510416666667 34.1455078125  12.44815340909091 32.4365234375  C 10.33120265151515 30.7275390625  9.272727272727272 28.665364583333332  9.272727272727272 26.25  L 9.272727272727272 23.2421875  C 6.632575757575759 22.938368055555554  4.427083333333335 21.966145833333336  2.6562500000000004 20.325520833333336  C 0.885416666666667 18.684895833333336  0 16.770833333333332  0 14.583333333333332  L 0 2.916666666666668  C 0 2.5217013888888866  0.1529356060606064 2.1799045138888866  0.45880681818181857 1.8912760416666679  C 0.7646780303030307 1.6026475694444415  1.12689393939394 1.4583333333333321  1.5454545454545456 1.4583333333333321  C 1.642045454545455 1.4583333333333321  1.770833333333334 1.473524305555551  1.9318181818181823 1.50390625  C 2.2054924242424248 1.0481770833333321  2.5838068181818183 0.68359375  3.066761363636364 0.41015625  C 3.549715909090909 0.13671875  4.072916666666667 0  4.636363636363636 0  C 5.489583333333335 0  6.218039772727273 0.28483072916666796  6.821732954545455 0.8544921875  C 7.425426136363636 1.4241536458333321  7.727272727272727 2.1115451388888866  7.727272727272727 2.916666666666668  C 7.727272727272727 3.7217881944444415  7.425426136363636 4.4091796875  6.821732954545455 4.978841145833332  C 6.218039772727273 5.548502604166668  5.489583333333335 5.833333333333332  4.636363636363636 5.833333333333332  C 4.105113636363637 5.833333333333332  3.589962121212122 5.696614583333332  3.090909090909091 5.423177083333332  L 3.090909090909091 14.583333333333332  C 3.090909090909091 16.193576388888886  3.84753787878788 17.568359375  5.360795454545455 18.707682291666664  C 6.87405303030303 19.847005208333336  8.693181818181818 20.416666666666664  10.818181818181818 20.416666666666664  C 12.943181818181818 20.416666666666664  14.762310606060607 19.847005208333336  16.275568181818183 18.707682291666664  C 17.788825757575758 17.568359375  18.545454545454543 16.193576388888886  18.545454545454543 14.583333333333332  L 18.545454545454543 5.423177083333332  C 18.046401515151516 5.696614583333332  17.53125 5.833333333333332  17 5.833333333333332  C 16.146780303030305 5.833333333333332  15.418323863636363 5.548502604166668  14.814630681818182 4.978841145833332  C 14.2109375 4.4091796875  13.90909090909091 3.7217881944444415  13.90909090909091 2.916666666666668  C 13.90909090909091 2.1115451388888866  14.2109375 1.4241536458333321  14.814630681818182 0.8544921875  C 15.418323863636363 0.28483072916666796  16.146780303030305 0  17 0  C 17.56344696969697 0  18.086647727272727 0.13671875  18.569602272727273 0.41015625  C 19.05255681818182 0.68359375  19.430871212121215 1.0481770833333321  19.704545454545457 1.50390625  C 19.865530303030305 1.473524305555551  19.99431818181818 1.4583333333333321  20.090909090909093 1.4583333333333321  C 20.509469696969703 1.4583333333333321  20.87168560606061 1.6026475694444415  21.17755681818182 1.8912760416666679  C 21.483428030303035 2.1799045138888866  21.636363636363637 2.5217013888888866  21 2.916666666666668  L 21 14.583333333333332  C 21.636363636363637 16.770833333333332  20.75094696969697 18.684895833333336  18.980113636363637 20.325520833333336  C 17.209280303030305 21.966145833333336  15.00378787878788 22.938368055555554  12.363636363636363 23.2421875  L 12.363636363636363 26.25  C 12.363636363636363 27.860243055555557  13.120265151515152 29.235026041666668  14.633522727272728 30.374348958333332  C 16.146780303030305 31.513671875  17.965909090909093 32.08333333333333  20.090909090909093 32.08333333333333  C 22.215909090909093 32.08333333333333  24.03503787878788 31.513671875  25.548295454545457 30.374348958333332  C 27.061553030303035 29.235026041666668  27.81818181818182 27.860243055555557  27.81818181818182 26.25  L 27.81818181818182 17.249348958333332  C 26.90056818181818 16.930338541666668  26.15601325757576 16.398654513888886  25.584517045454543 15.654296875  C 25.01302083333334 14.909939236111109  24.727272727272727 14.066840277777777  24.727272727272727 13.125  C 24.727272727272727 11.909722222222218  25.178030303030305 10.876736111111109  26.079545454545457 10.026041666666668  C 26.98106060606061 9.175347222222218  28.075757575757578 8.75  29.363636363636363 8.75  C 30.651515151515156 8.75  31.74621212121212 9.175347222222218  32.64772727272727 10.026041666666668  Z " fill-rule="evenodd" />
    </mask>
  </defs>
  <g transform="matrix(1 0 0 1 -223 -1665 )">
    <path d="M 30.450284090909093 14.150390625  C 30.756155303030305 13.861762152777777  30.909090909090907 13.519965277777777  30.909090909090907 13.125  C 30.909090909090907 12.730034722222218  30.756155303030305 12.388237847222218  30.450284090909093 12.099609375  C 30.144412878787882 11.810980902777777  29.782196969696976 11.666666666666668  29.363636363636363 11.666666666666668  C 28.94507575757576 11.666666666666668  28.582859848484848 11.810980902777777  28.276988636363637 12.099609375  C 27.971117424242426 12.388237847222218  27.81818181818182 12.730034722222218  27.81818181818182 13.125  C 27.81818181818182 13.519965277777777  27.971117424242426 13.861762152777777  28.276988636363637 14.150390625  C 28.582859848484848 14.439019097222223  28.94507575757576 14.583333333333332  29.363636363636363 14.583333333333332  C 29.782196969696976 14.583333333333332  30.144412878787882 14.439019097222223  30.450284090909093 14.150390625  Z M 32.64772727272727 10.026041666666668  C 33.54924242424243 10.876736111111109  34 11.909722222222218  34 13.125  C 34 14.066840277777777  33.7142518939394 14.909939236111109  33.14275568181818 15.654296875  C 32.571259469696976 16.398654513888886  31.826704545454543 16.930338541666668  30.909090909090907 17.249348958333332  L 30.909090909090907 26.25  C 30.909090909090907 28.665364583333332  29.850615530303035 30.7275390625  27.733664772727273 32.4365234375  C 25.61671401515152 34.1455078125  23.06912878787879 35  20.090909090909093 35  C 17.112689393939398 35  14.56510416666667 34.1455078125  12.44815340909091 32.4365234375  C 10.33120265151515 30.7275390625  9.272727272727272 28.665364583333332  9.272727272727272 26.25  L 9.272727272727272 23.2421875  C 6.632575757575759 22.938368055555554  4.427083333333335 21.966145833333336  2.6562500000000004 20.325520833333336  C 0.885416666666667 18.684895833333336  0 16.770833333333332  0 14.583333333333332  L 0 2.916666666666668  C 0 2.5217013888888866  0.1529356060606064 2.1799045138888866  0.45880681818181857 1.8912760416666679  C 0.7646780303030307 1.6026475694444415  1.12689393939394 1.4583333333333321  1.5454545454545456 1.4583333333333321  C 1.642045454545455 1.4583333333333321  1.770833333333334 1.473524305555551  1.9318181818181823 1.50390625  C 2.2054924242424248 1.0481770833333321  2.5838068181818183 0.68359375  3.066761363636364 0.41015625  C 3.549715909090909 0.13671875  4.072916666666667 0  4.636363636363636 0  C 5.489583333333335 0  6.218039772727273 0.28483072916666796  6.821732954545455 0.8544921875  C 7.425426136363636 1.4241536458333321  7.727272727272727 2.1115451388888866  7.727272727272727 2.916666666666668  C 7.727272727272727 3.7217881944444415  7.425426136363636 4.4091796875  6.821732954545455 4.978841145833332  C 6.218039772727273 5.548502604166668  5.489583333333335 5.833333333333332  4.636363636363636 5.833333333333332  C 4.105113636363637 5.833333333333332  3.589962121212122 5.696614583333332  3.090909090909091 5.423177083333332  L 3.090909090909091 14.583333333333332  C 3.090909090909091 16.193576388888886  3.84753787878788 17.568359375  5.360795454545455 18.707682291666664  C 6.87405303030303 19.847005208333336  8.693181818181818 20.416666666666664  10.818181818181818 20.416666666666664  C 12.943181818181818 20.416666666666664  14.762310606060607 19.847005208333336  16.275568181818183 18.707682291666664  C 17.788825757575758 17.568359375  18.545454545454543 16.193576388888886  18.545454545454543 14.583333333333332  L 18.545454545454543 5.423177083333332  C 18.046401515151516 5.696614583333332  17.53125 5.833333333333332  17 5.833333333333332  C 16.146780303030305 5.833333333333332  15.418323863636363 5.548502604166668  14.814630681818182 4.978841145833332  C 14.2109375 4.4091796875  13.90909090909091 3.7217881944444415  13.90909090909091 2.916666666666668  C 13.90909090909091 2.1115451388888866  14.2109375 1.4241536458333321  14.814630681818182 0.8544921875  C 15.418323863636363 0.28483072916666796  16.146780303030305 0  17 0  C 17.56344696969697 0  18.086647727272727 0.13671875  18.569602272727273 0.41015625  C 19.05255681818182 0.68359375  19.430871212121215 1.0481770833333321  19.704545454545457 1.50390625  C 19.865530303030305 1.473524305555551  19.99431818181818 1.4583333333333321  20.090909090909093 1.4583333333333321  C 20.509469696969703 1.4583333333333321  20.87168560606061 1.6026475694444415  21.17755681818182 1.8912760416666679  C 21.483428030303035 2.1799045138888866  21.636363636363637 2.5217013888888866  21 2.916666666666668  L 21 14.583333333333332  C 21.636363636363637 16.770833333333332  20.75094696969697 18.684895833333336  18.980113636363637 20.325520833333336  C 17.209280303030305 21.966145833333336  15.00378787878788 22.938368055555554  12.363636363636363 23.2421875  L 12.363636363636363 26.25  C 12.363636363636363 27.860243055555557  13.120265151515152 29.235026041666668  14.633522727272728 30.374348958333332  C 16.146780303030305 31.513671875  17.965909090909093 32.08333333333333  20.090909090909093 32.08333333333333  C 22.215909090909093 32.08333333333333  24.03503787878788 31.513671875  25.548295454545457 30.374348958333332  C 27.061553030303035 29.235026041666668  27.81818181818182 27.860243055555557  27.81818181818182 26.25  L 27.81818181818182 17.249348958333332  C 26.90056818181818 16.930338541666668  26.15601325757576 16.398654513888886  25.584517045454543 15.654296875  C 25.01302083333334 14.909939236111109  24.727272727272727 14.066840277777777  24.727272727272727 13.125  C 24.727272727272727 11.909722222222218  25.178030303030305 10.876736111111109  26.079545454545457 10.026041666666668  C 26.98106060606061 9.175347222222218  28.075757575757578 8.75  29.363636363636363 8.75  C 30.651515151515156 8.75  31.74621212121212 9.175347222222218  32.64772727272727 10.026041666666668  Z " fill-rule="nonzero" fill="rgba(0, 0, 0, 1)" stroke="none" transform="matrix(1 0 0 1 223 1665 )" class="fill" />
    <path d="M 30.450284090909093 14.150390625  C 30.756155303030305 13.861762152777777  30.909090909090907 13.519965277777777  30.909090909090907 13.125  C 30.909090909090907 12.730034722222218  30.756155303030305 12.388237847222218  30.450284090909093 12.099609375  C 30.144412878787882 11.810980902777777  29.782196969696976 11.666666666666668  29.363636363636363 11.666666666666668  C 28.94507575757576 11.666666666666668  28.582859848484848 11.810980902777777  28.276988636363637 12.099609375  C 27.971117424242426 12.388237847222218  27.81818181818182 12.730034722222218  27.81818181818182 13.125  C 27.81818181818182 13.519965277777777  27.971117424242426 13.861762152777777  28.276988636363637 14.150390625  C 28.582859848484848 14.439019097222223  28.94507575757576 14.583333333333332  29.363636363636363 14.583333333333332  C 29.782196969696976 14.583333333333332  30.144412878787882 14.439019097222223  30.450284090909093 14.150390625  Z " stroke-width="0" stroke-dasharray="0" stroke="rgba(255, 255, 255, 0)" fill="none" transform="matrix(1 0 0 1 223 1665 )" class="stroke" mask="url(#Clip931)" />
    <path d="M 32.64772727272727 10.026041666666668  C 33.54924242424243 10.876736111111109  34 11.909722222222218  34 13.125  C 34 14.066840277777777  33.7142518939394 14.909939236111109  33.14275568181818 15.654296875  C 32.571259469696976 16.398654513888886  31.826704545454543 16.930338541666668  30.909090909090907 17.249348958333332  L 30.909090909090907 26.25  C 30.909090909090907 28.665364583333332  29.850615530303035 30.7275390625  27.733664772727273 32.4365234375  C 25.61671401515152 34.1455078125  23.06912878787879 35  20.090909090909093 35  C 17.112689393939398 35  14.56510416666667 34.1455078125  12.44815340909091 32.4365234375  C 10.33120265151515 30.7275390625  9.272727272727272 28.665364583333332  9.272727272727272 26.25  L 9.272727272727272 23.2421875  C 6.632575757575759 22.938368055555554  4.427083333333335 21.966145833333336  2.6562500000000004 20.325520833333336  C 0.885416666666667 18.684895833333336  0 16.770833333333332  0 14.583333333333332  L 0 2.916666666666668  C 0 2.5217013888888866  0.1529356060606064 2.1799045138888866  0.45880681818181857 1.8912760416666679  C 0.7646780303030307 1.6026475694444415  1.12689393939394 1.4583333333333321  1.5454545454545456 1.4583333333333321  C 1.642045454545455 1.4583333333333321  1.770833333333334 1.473524305555551  1.9318181818181823 1.50390625  C 2.2054924242424248 1.0481770833333321  2.5838068181818183 0.68359375  3.066761363636364 0.41015625  C 3.549715909090909 0.13671875  4.072916666666667 0  4.636363636363636 0  C 5.489583333333335 0  6.218039772727273 0.28483072916666796  6.821732954545455 0.8544921875  C 7.425426136363636 1.4241536458333321  7.727272727272727 2.1115451388888866  7.727272727272727 2.916666666666668  C 7.727272727272727 3.7217881944444415  7.425426136363636 4.4091796875  6.821732954545455 4.978841145833332  C 6.218039772727273 5.548502604166668  5.489583333333335 5.833333333333332  4.636363636363636 5.833333333333332  C 4.105113636363637 5.833333333333332  3.589962121212122 5.696614583333332  3.090909090909091 5.423177083333332  L 3.090909090909091 14.583333333333332  C 3.090909090909091 16.193576388888886  3.84753787878788 17.568359375  5.360795454545455 18.707682291666664  C 6.87405303030303 19.847005208333336  8.693181818181818 20.416666666666664  10.818181818181818 20.416666666666664  C 12.943181818181818 20.416666666666664  14.762310606060607 19.847005208333336  16.275568181818183 18.707682291666664  C 17.788825757575758 17.568359375  18.545454545454543 16.193576388888886  18.545454545454543 14.583333333333332  L 18.545454545454543 5.423177083333332  C 18.046401515151516 5.696614583333332  17.53125 5.833333333333332  17 5.833333333333332  C 16.146780303030305 5.833333333333332  15.418323863636363 5.548502604166668  14.814630681818182 4.978841145833332  C 14.2109375 4.4091796875  13.90909090909091 3.7217881944444415  13.90909090909091 2.916666666666668  C 13.90909090909091 2.1115451388888866  14.2109375 1.4241536458333321  14.814630681818182 0.8544921875  C 15.418323863636363 0.28483072916666796  16.146780303030305 0  17 0  C 17.56344696969697 0  18.086647727272727 0.13671875  18.569602272727273 0.41015625  C 19.05255681818182 0.68359375  19.430871212121215 1.0481770833333321  19.704545454545457 1.50390625  C 19.865530303030305 1.473524305555551  19.99431818181818 1.4583333333333321  20.090909090909093 1.4583333333333321  C 20.509469696969703 1.4583333333333321  20.87168560606061 1.6026475694444415  21.17755681818182 1.8912760416666679  C 21.483428030303035 2.1799045138888866  21.636363636363637 2.5217013888888866  21 2.916666666666668  L 21 14.583333333333332  C 21.636363636363637 16.770833333333332  20.75094696969697 18.684895833333336  18.980113636363637 20.325520833333336  C 17.209280303030305 21.966145833333336  15.00378787878788 22.938368055555554  12.363636363636363 23.2421875  L 12.363636363636363 26.25  C 12.363636363636363 27.860243055555557  13.120265151515152 29.235026041666668  14.633522727272728 30.374348958333332  C 16.146780303030305 31.513671875  17.965909090909093 32.08333333333333  20.090909090909093 32.08333333333333  C 22.215909090909093 32.08333333333333  24.03503787878788 31.513671875  25.548295454545457 30.374348958333332  C 27.061553030303035 29.235026041666668  27.81818181818182 27.860243055555557  27.81818181818182 26.25  L 27.81818181818182 17.249348958333332  C 26.90056818181818 16.930338541666668  26.15601325757576 16.398654513888886  25.584517045454543 15.654296875  C 25.01302083333334 14.909939236111109  24.727272727272727 14.066840277777777  24.727272727272727 13.125  C 24.727272727272727 11.909722222222218  25.178030303030305 10.876736111111109  26.079545454545457 10.026041666666668  C 26.98106060606061 9.175347222222218  28.075757575757578 8.75  29.363636363636363 8.75  C 30.651515151515156 8.75  31.74621212121212 9.175347222222218  32.64772727272727 10.026041666666668  Z " stroke-width="0" stroke-dasharray="0" stroke="rgba(255, 255, 255, 0)" fill="none" transform="matrix(1 0 0 1 223 1665 )" class="stroke" mask="url(#Clip931)" />
  </g>
</svg>