<?xml version="1.0" encoding="utf-8"?>
<svg version="1.1" xmlns:xlink="http://www.w3.org/1999/xlink" width="38px" height="32px" xmlns="http://www.w3.org/2000/svg">
  <defs>
    <pattern id="BGPattern" patternUnits="userSpaceOnUse" alignment="0 0" imageRepeat="None" />
    <mask fill="white" id="Clip933">
      <path d="M 3 29  L 38 29  L 38 32  L 0 32  L 0 0  L 3 0  L 3 29  Z M 35.4580078125 2.854166666666668  C 35.56933593750001 2.979166666666668  35.62500000000001 3.1388888888888857  35.625 3.333333333333332  L 35.625 12.395833333333332  C 35.62500000000001 12.687499999999996  35.50439453125001 12.89236111111111  35.26318359375 13.010416666666668  C 35.02197265625001 13.128472222222221  34.80240885416667 13.07638888888889  34.6044921875 12.854166666666668  L 32.359375 10.333333333333332  L 20.6142578125 23.520833333333336  C 20.490559895833336 23.65972222222222  20.348307291666668 23.729166666666664  20.1875 23.729166666666664  C 20.026692708333336 23.729166666666664  19.884440104166668 23.65972222222222  19.7607421875 23.520833333333336  L 15.4375 18.666666666666664  L 7.71875 27.333333333333332  L 4.15625 23.333333333333336  L 15.0107421875 11.145833333333332  C 15.134440104166668 11.006944444444443  15.276692708333336 10.9375  15.4375 10.9375  C 15.598307291666668 10.9375  15.740559895833334 11.006944444444443  15.8642578125 11.145833333333332  L 20.1875 16  L 28.796875 6.333333333333332  L 26.5517578125 3.8125  C 26.353841145833336 3.590277777777775  26.307454427083336 3.34375  26.41259765625 3.072916666666668  C 26.517740885416668 2.802083333333332  26.7001953125 2.666666666666668  26.9599609375 2.666666666666668  L 35.03125 2.666666666666668  C 35.204427083333336 2.666666666666668  35.34667968750001 2.729166666666668  35.4580078125 2.854166666666668  Z " fill-rule="evenodd" />
    </mask>
  </defs>
  <g transform="matrix(1 0 0 1 -219 -1951 )">
    <path d="M 3 29  L 38 29  L 38 32  L 0 32  L 0 0  L 3 0  L 3 29  Z M 35.4580078125 2.854166666666668  C 35.56933593750001 2.979166666666668  35.62500000000001 3.1388888888888857  35.625 3.333333333333332  L 35.625 12.395833333333332  C 35.62500000000001 12.687499999999996  35.50439453125001 12.89236111111111  35.26318359375 13.010416666666668  C 35.02197265625001 13.128472222222221  34.80240885416667 13.07638888888889  34.6044921875 12.854166666666668  L 32.359375 10.333333333333332  L 20.6142578125 23.520833333333336  C 20.490559895833336 23.65972222222222  20.348307291666668 23.729166666666664  20.1875 23.729166666666664  C 20.026692708333336 23.729166666666664  19.884440104166668 23.65972222222222  19.7607421875 23.520833333333336  L 15.4375 18.666666666666664  L 7.71875 27.333333333333332  L 4.15625 23.333333333333336  L 15.0107421875 11.145833333333332  C 15.134440104166668 11.006944444444443  15.276692708333336 10.9375  15.4375 10.9375  C 15.598307291666668 10.9375  15.740559895833334 11.006944444444443  15.8642578125 11.145833333333332  L 20.1875 16  L 28.796875 6.333333333333332  L 26.5517578125 3.8125  C 26.353841145833336 3.590277777777775  26.307454427083336 3.34375  26.41259765625 3.072916666666668  C 26.517740885416668 2.802083333333332  26.7001953125 2.666666666666668  26.9599609375 2.666666666666668  L 35.03125 2.666666666666668  C 35.204427083333336 2.666666666666668  35.34667968750001 2.729166666666668  35.4580078125 2.854166666666668  Z " fill-rule="nonzero" fill="rgba(0, 0, 0, 1)" stroke="none" transform="matrix(1 0 0 1 219 1951 )" class="fill" />
    <path d="M 3 29  L 38 29  L 38 32  L 0 32  L 0 0  L 3 0  L 3 29  Z " stroke-width="0" stroke-dasharray="0" stroke="rgba(255, 255, 255, 0)" fill="none" transform="matrix(1 0 0 1 219 1951 )" class="stroke" mask="url(#Clip933)" />
    <path d="M 35.4580078125 2.854166666666668  C 35.56933593750001 2.979166666666668  35.62500000000001 3.1388888888888857  35.625 3.333333333333332  L 35.625 12.395833333333332  C 35.62500000000001 12.687499999999996  35.50439453125001 12.89236111111111  35.26318359375 13.010416666666668  C 35.02197265625001 13.128472222222221  34.80240885416667 13.07638888888889  34.6044921875 12.854166666666668  L 32.359375 10.333333333333332  L 20.6142578125 23.520833333333336  C 20.490559895833336 23.65972222222222  20.348307291666668 23.729166666666664  20.1875 23.729166666666664  C 20.026692708333336 23.729166666666664  19.884440104166668 23.65972222222222  19.7607421875 23.520833333333336  L 15.4375 18.666666666666664  L 7.71875 27.333333333333332  L 4.15625 23.333333333333336  L 15.0107421875 11.145833333333332  C 15.134440104166668 11.006944444444443  15.276692708333336 10.9375  15.4375 10.9375  C 15.598307291666668 10.9375  15.740559895833334 11.006944444444443  15.8642578125 11.145833333333332  L 20.1875 16  L 28.796875 6.333333333333332  L 26.5517578125 3.8125  C 26.353841145833336 3.590277777777775  26.307454427083336 3.34375  26.41259765625 3.072916666666668  C 26.517740885416668 2.802083333333332  26.7001953125 2.666666666666668  26.9599609375 2.666666666666668  L 35.03125 2.666666666666668  C 35.204427083333336 2.666666666666668  35.34667968750001 2.729166666666668  35.4580078125 2.854166666666668  Z " stroke-width="0" stroke-dasharray="0" stroke="rgba(255, 255, 255, 0)" fill="none" transform="matrix(1 0 0 1 219 1951 )" class="stroke" mask="url(#Clip933)" />
  </g>
</svg>