<?xml version="1.0" encoding="utf-8"?>
<svg version="1.1" xmlns:xlink="http://www.w3.org/1999/xlink" width="12px" height="12px" xmlns="http://www.w3.org/2000/svg">
  <defs>
    <pattern id="BGPattern" patternUnits="userSpaceOnUse" alignment="0 0" imageRepeat="None" />
    <mask fill="white" id="Clip651">
      <path d="M 8 0.46153846153846156  L 8 1.8461538461538463  L 4 1.8461538461538463  L 4 0.46153846153846156  L 3 0.46153846153846156  L 3 1.8461538461538463  L 1 1.8461538461538463  C 0.4477199999999999 1.8461538461538463  0 2.2594246153846154  0 2.769230769230769  L 0 11.076923076923077  C 0 11.586738461538461  0.4477199999999999 12  1 12  L 11 12  C 11.5523 12  12 11.586738461538461  12 11.076923076923077  L 12 2.769230769230769  C 12 2.259433846153846  11.5523 1.8461538461538463  11 1.8461538461538463  L 9 1.8461538461538463  L 9 0.46153846153846156  L 8 0.46153846153846156  Z M 3 2.769230769230769  L 3 3.6923076923076925  L 4 3.6923076923076925  L 4 2.769230769230769  L 8 2.769230769230769  L 8 3.6923076923076925  L 9 3.6923076923076925  L 9 2.769230769230769  L 11 2.769230769230769  L 11 4.615384615384616  L 1 4.615384615384616  L 1 2.769230769230769  L 3 2.769230769230769  Z M 1 11.076923076923077  L 1 5.538461538461538  L 11 5.538461538461538  L 11 11.076923076923077  L 1 11.076923076923077  Z " fill-rule="evenodd" />
    </mask>
  </defs>
  <g transform="matrix(1 0 0 1 -1727 -443 )">
    <path d="M 8 0.46153846153846156  L 8 1.8461538461538463  L 4 1.8461538461538463  L 4 0.46153846153846156  L 3 0.46153846153846156  L 3 1.8461538461538463  L 1 1.8461538461538463  C 0.4477199999999999 1.8461538461538463  0 2.2594246153846154  0 2.769230769230769  L 0 11.076923076923077  C 0 11.586738461538461  0.4477199999999999 12  1 12  L 11 12  C 11.5523 12  12 11.586738461538461  12 11.076923076923077  L 12 2.769230769230769  C 12 2.259433846153846  11.5523 1.8461538461538463  11 1.8461538461538463  L 9 1.8461538461538463  L 9 0.46153846153846156  L 8 0.46153846153846156  Z M 3 2.769230769230769  L 3 3.6923076923076925  L 4 3.6923076923076925  L 4 2.769230769230769  L 8 2.769230769230769  L 8 3.6923076923076925  L 9 3.6923076923076925  L 9 2.769230769230769  L 11 2.769230769230769  L 11 4.615384615384616  L 1 4.615384615384616  L 1 2.769230769230769  L 3 2.769230769230769  Z M 1 11.076923076923077  L 1 5.538461538461538  L 11 5.538461538461538  L 11 11.076923076923077  L 1 11.076923076923077  Z " fill-rule="nonzero" fill="rgba(0, 82, 217, 1)" stroke="none" transform="matrix(1 0 0 1 1727 443 )" class="fill" />
    <path d="M 8 0.46153846153846156  L 8 1.8461538461538463  L 4 1.8461538461538463  L 4 0.46153846153846156  L 3 0.46153846153846156  L 3 1.8461538461538463  L 1 1.8461538461538463  C 0.4477199999999999 1.8461538461538463  0 2.2594246153846154  0 2.769230769230769  L 0 11.076923076923077  C 0 11.586738461538461  0.4477199999999999 12  1 12  L 11 12  C 11.5523 12  12 11.586738461538461  12 11.076923076923077  L 12 2.769230769230769  C 12 2.259433846153846  11.5523 1.8461538461538463  11 1.8461538461538463  L 9 1.8461538461538463  L 9 0.46153846153846156  L 8 0.46153846153846156  Z " stroke-width="2" stroke-dasharray="0" stroke="rgba(0, 0, 0, 1)" fill="none" transform="matrix(1 0 0 1 1727 443 )" class="stroke" mask="url(#Clip651)" />
    <path d="M 3 2.769230769230769  L 3 3.6923076923076925  L 4 3.6923076923076925  L 4 2.769230769230769  L 8 2.769230769230769  L 8 3.6923076923076925  L 9 3.6923076923076925  L 9 2.769230769230769  L 11 2.769230769230769  L 11 4.615384615384616  L 1 4.615384615384616  L 1 2.769230769230769  L 3 2.769230769230769  Z " stroke-width="2" stroke-dasharray="0" stroke="rgba(0, 0, 0, 1)" fill="none" transform="matrix(1 0 0 1 1727 443 )" class="stroke" mask="url(#Clip651)" />
    <path d="M 1 11.076923076923077  L 1 5.538461538461538  L 11 5.538461538461538  L 11 11.076923076923077  L 1 11.076923076923077  Z " stroke-width="2" stroke-dasharray="0" stroke="rgba(0, 0, 0, 1)" fill="none" transform="matrix(1 0 0 1 1727 443 )" class="stroke" mask="url(#Clip651)" />
  </g>
</svg>