<?xml version="1.0" encoding="utf-8"?>
<svg version="1.1" xmlns:xlink="http://www.w3.org/1999/xlink" width="29px" height="26px" xmlns="http://www.w3.org/2000/svg">
  <defs>
    <pattern id="BGPattern" patternUnits="userSpaceOnUse" alignment="0 0" imageRepeat="None" />
    <mask fill="white" id="Clip223">
      <path d="M 25.972301136363637 10.51171875  C 26.23319128787879 10.297309027777777  26.363636363636363 10.043402777777777  26.363636363636363 9.75  C 26.363636363636363 9.45659722222222  26.23319128787879 9.20269097222222  25.972301136363637 8.98828125  C 25.711410984848488 8.773871527777777  25.402462121212125 8.666666666666668  25.045454545454547 8.666666666666668  C 24.688446969696972 8.666666666666668  24.379498106060606 8.773871527777777  24.118607954545453 8.98828125  C 23.857717803030305 9.20269097222222  23.72727272727273 9.45659722222222  23.72727272727273 9.75  C 23.72727272727273 10.043402777777777  23.857717803030305 10.297309027777777  24.118607954545453 10.51171875  C 24.379498106060606 10.726128472222223  24.688446969696972 10.833333333333332  25.045454545454547 10.833333333333332  C 25.402462121212125 10.833333333333332  25.711410984848488 10.726128472222223  25.972301136363637 10.51171875  Z M 27.84659090909091 7.447916666666668  C 28.615530303030305 8.07986111111111  29 8.84722222222222  29 9.75  C 29 10.449652777777777  28.756273674242426 11.07595486111111  28.26882102272727 11.62890625  C 27.781368371212125 12.181857638888888  27.146306818181817 12.576822916666668  26.363636363636363 12.813802083333332  L 26.363636363636363 19.5  C 26.363636363636363 21.294270833333332  25.460819128787882 22.826171875  23.65518465909091 24.095703125  C 21.84955018939394 25.365234375  19.67660984848485 26  17.136363636363637 26  C 14.596117424242427 26  12.423177083333336 25.365234375  10.617542613636365 24.095703125  C 8.811908143939393 22.826171875  7.909090909090908 21.294270833333332  7.909090909090908 19.5  L 7.909090909090908 17.265625  C 5.657196969696971 17.039930555555554  3.776041666666668 16.317708333333336  2.2656250000000004 15.098958333333336  C 0.7552083333333336 13.880208333333336  0 12.458333333333332  0 10.833333333333332  L 0 2.166666666666668  C 0 1.8732638888888873  0.13044507575757605 1.6193576388888873  0.39133522727272757 1.4049479166666676  C 0.6522253787878791 1.1905381944444422  0.9611742424242428 1.0833333333333324  1.3181818181818183 1.0833333333333324  C 1.400568181818182 1.0833333333333324  1.5104166666666672 1.094618055555552  1.6477272727272732 1.1171875  C 1.8811553030303034 0.7786458333333324  2.2038352272727275 0.5078125  2.615767045454546 0.3046875  C 3.0276988636363638 0.1015625  3.473958333333334 0  3.954545454545454 0  C 4.682291666666668 0  5.303622159090909 0.21158854166666763  5.8185369318181825 0.634765625  C 6.333451704545454 1.0579427083333324  6.590909090909091 1.5685763888888873  6.590909090909091 2.166666666666668  C 6.590909090909091 2.764756944444442  6.333451704545454 3.275390625  5.8185369318181825 3.698567708333332  C 5.303622159090909 4.121744791666668  4.682291666666668 4.333333333333332  3.954545454545454 4.333333333333332  C 3.5014204545454546 4.333333333333332  3.0620265151515156 4.231770833333332  2.6363636363636362 4.028645833333332  L 2.6363636363636362 10.833333333333332  C 2.6363636363636362 12.029513888888888  3.2817234848484858 13.05078125  4.5724431818181825 13.897135416666664  C 5.863162878787879 14.743489583333336  7.4147727272727275 15.166666666666664  9.227272727272727 15.166666666666664  C 11.039772727272727 15.166666666666664  12.591382575757576 14.743489583333336  13.882102272727273 13.897135416666664  C 15.172821969696969 13.05078125  15.818181818181817 12.029513888888888  15.818181818181817 10.833333333333332  L 15.818181818181817 4.028645833333332  C 15.39251893939394 4.231770833333332  14.953125 4.333333333333332  14.5 4.333333333333332  C 13.772253787878789 4.333333333333332  13.150923295454545 4.121744791666668  12.636008522727273 3.698567708333332  C 12.12109375 3.275390625  11.863636363636365 2.764756944444442  11.863636363636365 2.166666666666668  C 11.863636363636365 1.5685763888888873  12.12109375 1.0579427083333324  12.636008522727273 0.634765625  C 13.150923295454545 0.21158854166666763  13.772253787878789 0  14.5 0  C 14.980587121212121 0  15.426846590909092 0.1015625  15.838778409090908 0.3046875  C 16.25071022727273 0.5078125  16.573390151515152 0.7786458333333324  16.806818181818183 1.1171875  C 16.94412878787879 1.094618055555552  17.05397727272727 1.0833333333333324  17.136363636363637 1.0833333333333324  C 17.493371212121218 1.0833333333333324  17.802320075757578 1.1905381944444422  18.06321022727273 1.4049479166666676  C 18.324100378787882 1.6193576388888873  18.454545454545453 1.8732638888888873  18.454545454545453 2.166666666666668  L 18.454545454545453 10.833333333333332  C 18.454545454545453 12.458333333333332  17.69933712121212 13.880208333333336  16.188920454545453 15.098958333333336  C 14.678503787878789 16.317708333333336  12.797348484848486 17.039930555555554  10.545454545454545 17.265625  L 10.545454545454545 19.5  C 10.545454545454545 20.696180555555557  11.190814393939394 21.717447916666668  12.481534090909092 22.563802083333332  C 13.772253787878789 23.41015625  15.323863636363637 23.833333333333332  17.136363636363637 23.833333333333332  C 18.948863636363637 23.833333333333332  20.500473484848484 23.41015625  21.791193181818183 22.563802083333332  C 23.081912878787882 21.717447916666668  23.72727272727273 20.696180555555557  23.72727272727273 19.5  L 23.72727272727273 12.813802083333332  C 22.94460227272727 12.576822916666668  22.309540719696972 12.181857638888888  21.822088068181817 11.62890625  C 21.33463541666667 11.07595486111111  21.09090909090909 10.449652777777777  21.09090909090909 9.75  C 21.09090909090909 8.84722222222222  21.47537878787879 8.07986111111111  22.244318181818183 7.447916666666668  C 23.013257575757578 6.81597222222222  23.9469696969697 6.5  25.045454545454547 6.5  C 26.143939393939398 6.5  27.077651515151516 6.81597222222222  27.84659090909091 7.447916666666668  Z " fill-rule="evenodd" />
    </mask>
  </defs>
  <g transform="matrix(1 0 0 1 -80 -304 )">
    <path d="M 25.972301136363637 10.51171875  C 26.23319128787879 10.297309027777777  26.363636363636363 10.043402777777777  26.363636363636363 9.75  C 26.363636363636363 9.45659722222222  26.23319128787879 9.20269097222222  25.972301136363637 8.98828125  C 25.711410984848488 8.773871527777777  25.402462121212125 8.666666666666668  25.045454545454547 8.666666666666668  C 24.688446969696972 8.666666666666668  24.379498106060606 8.773871527777777  24.118607954545453 8.98828125  C 23.857717803030305 9.20269097222222  23.72727272727273 9.45659722222222  23.72727272727273 9.75  C 23.72727272727273 10.043402777777777  23.857717803030305 10.297309027777777  24.118607954545453 10.51171875  C 24.379498106060606 10.726128472222223  24.688446969696972 10.833333333333332  25.045454545454547 10.833333333333332  C 25.402462121212125 10.833333333333332  25.711410984848488 10.726128472222223  25.972301136363637 10.51171875  Z M 27.84659090909091 7.447916666666668  C 28.615530303030305 8.07986111111111  29 8.84722222222222  29 9.75  C 29 10.449652777777777  28.756273674242426 11.07595486111111  28.26882102272727 11.62890625  C 27.781368371212125 12.181857638888888  27.146306818181817 12.576822916666668  26.363636363636363 12.813802083333332  L 26.363636363636363 19.5  C 26.363636363636363 21.294270833333332  25.460819128787882 22.826171875  23.65518465909091 24.095703125  C 21.84955018939394 25.365234375  19.67660984848485 26  17.136363636363637 26  C 14.596117424242427 26  12.423177083333336 25.365234375  10.617542613636365 24.095703125  C 8.811908143939393 22.826171875  7.909090909090908 21.294270833333332  7.909090909090908 19.5  L 7.909090909090908 17.265625  C 5.657196969696971 17.039930555555554  3.776041666666668 16.317708333333336  2.2656250000000004 15.098958333333336  C 0.7552083333333336 13.880208333333336  0 12.458333333333332  0 10.833333333333332  L 0 2.166666666666668  C 0 1.8732638888888873  0.13044507575757605 1.6193576388888873  0.39133522727272757 1.4049479166666676  C 0.6522253787878791 1.1905381944444422  0.9611742424242428 1.0833333333333324  1.3181818181818183 1.0833333333333324  C 1.400568181818182 1.0833333333333324  1.5104166666666672 1.094618055555552  1.6477272727272732 1.1171875  C 1.8811553030303034 0.7786458333333324  2.2038352272727275 0.5078125  2.615767045454546 0.3046875  C 3.0276988636363638 0.1015625  3.473958333333334 0  3.954545454545454 0  C 4.682291666666668 0  5.303622159090909 0.21158854166666763  5.8185369318181825 0.634765625  C 6.333451704545454 1.0579427083333324  6.590909090909091 1.5685763888888873  6.590909090909091 2.166666666666668  C 6.590909090909091 2.764756944444442  6.333451704545454 3.275390625  5.8185369318181825 3.698567708333332  C 5.303622159090909 4.121744791666668  4.682291666666668 4.333333333333332  3.954545454545454 4.333333333333332  C 3.5014204545454546 4.333333333333332  3.0620265151515156 4.231770833333332  2.6363636363636362 4.028645833333332  L 2.6363636363636362 10.833333333333332  C 2.6363636363636362 12.029513888888888  3.2817234848484858 13.05078125  4.5724431818181825 13.897135416666664  C 5.863162878787879 14.743489583333336  7.4147727272727275 15.166666666666664  9.227272727272727 15.166666666666664  C 11.039772727272727 15.166666666666664  12.591382575757576 14.743489583333336  13.882102272727273 13.897135416666664  C 15.172821969696969 13.05078125  15.818181818181817 12.029513888888888  15.818181818181817 10.833333333333332  L 15.818181818181817 4.028645833333332  C 15.39251893939394 4.231770833333332  14.953125 4.333333333333332  14.5 4.333333333333332  C 13.772253787878789 4.333333333333332  13.150923295454545 4.121744791666668  12.636008522727273 3.698567708333332  C 12.12109375 3.275390625  11.863636363636365 2.764756944444442  11.863636363636365 2.166666666666668  C 11.863636363636365 1.5685763888888873  12.12109375 1.0579427083333324  12.636008522727273 0.634765625  C 13.150923295454545 0.21158854166666763  13.772253787878789 0  14.5 0  C 14.980587121212121 0  15.426846590909092 0.1015625  15.838778409090908 0.3046875  C 16.25071022727273 0.5078125  16.573390151515152 0.7786458333333324  16.806818181818183 1.1171875  C 16.94412878787879 1.094618055555552  17.05397727272727 1.0833333333333324  17.136363636363637 1.0833333333333324  C 17.493371212121218 1.0833333333333324  17.802320075757578 1.1905381944444422  18.06321022727273 1.4049479166666676  C 18.324100378787882 1.6193576388888873  18.454545454545453 1.8732638888888873  18.454545454545453 2.166666666666668  L 18.454545454545453 10.833333333333332  C 18.454545454545453 12.458333333333332  17.69933712121212 13.880208333333336  16.188920454545453 15.098958333333336  C 14.678503787878789 16.317708333333336  12.797348484848486 17.039930555555554  10.545454545454545 17.265625  L 10.545454545454545 19.5  C 10.545454545454545 20.696180555555557  11.190814393939394 21.717447916666668  12.481534090909092 22.563802083333332  C 13.772253787878789 23.41015625  15.323863636363637 23.833333333333332  17.136363636363637 23.833333333333332  C 18.948863636363637 23.833333333333332  20.500473484848484 23.41015625  21.791193181818183 22.563802083333332  C 23.081912878787882 21.717447916666668  23.72727272727273 20.696180555555557  23.72727272727273 19.5  L 23.72727272727273 12.813802083333332  C 22.94460227272727 12.576822916666668  22.309540719696972 12.181857638888888  21.822088068181817 11.62890625  C 21.33463541666667 11.07595486111111  21.09090909090909 10.449652777777777  21.09090909090909 9.75  C 21.09090909090909 8.84722222222222  21.47537878787879 8.07986111111111  22.244318181818183 7.447916666666668  C 23.013257575757578 6.81597222222222  23.9469696969697 6.5  25.045454545454547 6.5  C 26.143939393939398 6.5  27.077651515151516 6.81597222222222  27.84659090909091 7.447916666666668  Z " fill-rule="nonzero" fill="rgba(0, 0, 0, 1)" stroke="none" transform="matrix(1 0 0 1 80 304 )" class="fill" />
    <path d="M 25.972301136363637 10.51171875  C 26.23319128787879 10.297309027777777  26.363636363636363 10.043402777777777  26.363636363636363 9.75  C 26.363636363636363 9.45659722222222  26.23319128787879 9.20269097222222  25.972301136363637 8.98828125  C 25.711410984848488 8.773871527777777  25.402462121212125 8.666666666666668  25.045454545454547 8.666666666666668  C 24.688446969696972 8.666666666666668  24.379498106060606 8.773871527777777  24.118607954545453 8.98828125  C 23.857717803030305 9.20269097222222  23.72727272727273 9.45659722222222  23.72727272727273 9.75  C 23.72727272727273 10.043402777777777  23.857717803030305 10.297309027777777  24.118607954545453 10.51171875  C 24.379498106060606 10.726128472222223  24.688446969696972 10.833333333333332  25.045454545454547 10.833333333333332  C 25.402462121212125 10.833333333333332  25.711410984848488 10.726128472222223  25.972301136363637 10.51171875  Z " stroke-width="0" stroke-dasharray="0" stroke="rgba(255, 255, 255, 0)" fill="none" transform="matrix(1 0 0 1 80 304 )" class="stroke" mask="url(#Clip223)" />
    <path d="M 27.84659090909091 7.447916666666668  C 28.615530303030305 8.07986111111111  29 8.84722222222222  29 9.75  C 29 10.449652777777777  28.756273674242426 11.07595486111111  28.26882102272727 11.62890625  C 27.781368371212125 12.181857638888888  27.146306818181817 12.576822916666668  26.363636363636363 12.813802083333332  L 26.363636363636363 19.5  C 26.363636363636363 21.294270833333332  25.460819128787882 22.826171875  23.65518465909091 24.095703125  C 21.84955018939394 25.365234375  19.67660984848485 26  17.136363636363637 26  C 14.596117424242427 26  12.423177083333336 25.365234375  10.617542613636365 24.095703125  C 8.811908143939393 22.826171875  7.909090909090908 21.294270833333332  7.909090909090908 19.5  L 7.909090909090908 17.265625  C 5.657196969696971 17.039930555555554  3.776041666666668 16.317708333333336  2.2656250000000004 15.098958333333336  C 0.7552083333333336 13.880208333333336  0 12.458333333333332  0 10.833333333333332  L 0 2.166666666666668  C 0 1.8732638888888873  0.13044507575757605 1.6193576388888873  0.39133522727272757 1.4049479166666676  C 0.6522253787878791 1.1905381944444422  0.9611742424242428 1.0833333333333324  1.3181818181818183 1.0833333333333324  C 1.400568181818182 1.0833333333333324  1.5104166666666672 1.094618055555552  1.6477272727272732 1.1171875  C 1.8811553030303034 0.7786458333333324  2.2038352272727275 0.5078125  2.615767045454546 0.3046875  C 3.0276988636363638 0.1015625  3.473958333333334 0  3.954545454545454 0  C 4.682291666666668 0  5.303622159090909 0.21158854166666763  5.8185369318181825 0.634765625  C 6.333451704545454 1.0579427083333324  6.590909090909091 1.5685763888888873  6.590909090909091 2.166666666666668  C 6.590909090909091 2.764756944444442  6.333451704545454 3.275390625  5.8185369318181825 3.698567708333332  C 5.303622159090909 4.121744791666668  4.682291666666668 4.333333333333332  3.954545454545454 4.333333333333332  C 3.5014204545454546 4.333333333333332  3.0620265151515156 4.231770833333332  2.6363636363636362 4.028645833333332  L 2.6363636363636362 10.833333333333332  C 2.6363636363636362 12.029513888888888  3.2817234848484858 13.05078125  4.5724431818181825 13.897135416666664  C 5.863162878787879 14.743489583333336  7.4147727272727275 15.166666666666664  9.227272727272727 15.166666666666664  C 11.039772727272727 15.166666666666664  12.591382575757576 14.743489583333336  13.882102272727273 13.897135416666664  C 15.172821969696969 13.05078125  15.818181818181817 12.029513888888888  15.818181818181817 10.833333333333332  L 15.818181818181817 4.028645833333332  C 15.39251893939394 4.231770833333332  14.953125 4.333333333333332  14.5 4.333333333333332  C 13.772253787878789 4.333333333333332  13.150923295454545 4.121744791666668  12.636008522727273 3.698567708333332  C 12.12109375 3.275390625  11.863636363636365 2.764756944444442  11.863636363636365 2.166666666666668  C 11.863636363636365 1.5685763888888873  12.12109375 1.0579427083333324  12.636008522727273 0.634765625  C 13.150923295454545 0.21158854166666763  13.772253787878789 0  14.5 0  C 14.980587121212121 0  15.426846590909092 0.1015625  15.838778409090908 0.3046875  C 16.25071022727273 0.5078125  16.573390151515152 0.7786458333333324  16.806818181818183 1.1171875  C 16.94412878787879 1.094618055555552  17.05397727272727 1.0833333333333324  17.136363636363637 1.0833333333333324  C 17.493371212121218 1.0833333333333324  17.802320075757578 1.1905381944444422  18.06321022727273 1.4049479166666676  C 18.324100378787882 1.6193576388888873  18.454545454545453 1.8732638888888873  18.454545454545453 2.166666666666668  L 18.454545454545453 10.833333333333332  C 18.454545454545453 12.458333333333332  17.69933712121212 13.880208333333336  16.188920454545453 15.098958333333336  C 14.678503787878789 16.317708333333336  12.797348484848486 17.039930555555554  10.545454545454545 17.265625  L 10.545454545454545 19.5  C 10.545454545454545 20.696180555555557  11.190814393939394 21.717447916666668  12.481534090909092 22.563802083333332  C 13.772253787878789 23.41015625  15.323863636363637 23.833333333333332  17.136363636363637 23.833333333333332  C 18.948863636363637 23.833333333333332  20.500473484848484 23.41015625  21.791193181818183 22.563802083333332  C 23.081912878787882 21.717447916666668  23.72727272727273 20.696180555555557  23.72727272727273 19.5  L 23.72727272727273 12.813802083333332  C 22.94460227272727 12.576822916666668  22.309540719696972 12.181857638888888  21.822088068181817 11.62890625  C 21.33463541666667 11.07595486111111  21.09090909090909 10.449652777777777  21.09090909090909 9.75  C 21.09090909090909 8.84722222222222  21.47537878787879 8.07986111111111  22.244318181818183 7.447916666666668  C 23.013257575757578 6.81597222222222  23.9469696969697 6.5  25.045454545454547 6.5  C 26.143939393939398 6.5  27.077651515151516 6.81597222222222  27.84659090909091 7.447916666666668  Z " stroke-width="0" stroke-dasharray="0" stroke="rgba(255, 255, 255, 0)" fill="none" transform="matrix(1 0 0 1 80 304 )" class="stroke" mask="url(#Clip223)" />
  </g>
</svg>