<?xml version="1.0" encoding="utf-8"?>
<svg version="1.1" xmlns:xlink="http://www.w3.org/1999/xlink" width="11px" height="11px" xmlns="http://www.w3.org/2000/svg">
  <defs>
    <pattern id="BGPattern" patternUnits="userSpaceOnUse" alignment="0 0" imageRepeat="None" />
    <mask fill="white" id="Clip938">
      <path d="M 8.622395833333323 5.347222222222226  C 8.622395833333323 7.156048472222219  7.156048472222219 8.622395833333323  5.347222222222226 8.622395833333323  C 3.538395972222202 8.622395833333323  2.0720486111110974 7.156048472222219  2.0720486111110974 5.347222222222226  C 2.0720486111110974 3.538395972222202  3.538395972222202 2.0720486111110974  5.347222222222226 2.0720486111110974  C 7.156048472222219 2.0720486111110974  8.622395833333323 3.538395972222202  8.622395833333323 5.347222222222226  Z M 0.6684027777777743 5.347222222222226  C 0.6684027777777743 7.931267361111091  2.7631770833333293 10.026041666666677  5.347222222222226 10.026041666666677  C 7.931267361111091 10.026041666666677  10.026041666666677 7.931267361111091  10.026041666666677 5.347222222222226  C 10.026041666666677 2.7631770833333293  7.931267361111091 0.6684027777777743  5.347222222222226 0.6684027777777743  C 2.7631770833333293 0.6684027777777743  0.6684027777777743 2.7631770833333293  0.6684027777777743 5.347222222222226  Z " fill-rule="evenodd" />
    </mask>
  </defs>
  <g transform="matrix(1 0 0 1 -1996 -1940 )">
    <path d="M 8.622395833333323 5.347222222222226  C 8.622395833333323 7.156048472222219  7.156048472222219 8.622395833333323  5.347222222222226 8.622395833333323  C 3.538395972222202 8.622395833333323  2.0720486111110974 7.156048472222219  2.0720486111110974 5.347222222222226  C 2.0720486111110974 3.538395972222202  3.538395972222202 2.0720486111110974  5.347222222222226 2.0720486111110974  C 7.156048472222219 2.0720486111110974  8.622395833333323 3.538395972222202  8.622395833333323 5.347222222222226  Z M 0.6684027777777743 5.347222222222226  C 0.6684027777777743 7.931267361111091  2.7631770833333293 10.026041666666677  5.347222222222226 10.026041666666677  C 7.931267361111091 10.026041666666677  10.026041666666677 7.931267361111091  10.026041666666677 5.347222222222226  C 10.026041666666677 2.7631770833333293  7.931267361111091 0.6684027777777743  5.347222222222226 0.6684027777777743  C 2.7631770833333293 0.6684027777777743  0.6684027777777743 2.7631770833333293  0.6684027777777743 5.347222222222226  Z " fill-rule="nonzero" fill="rgba(0, 0, 0, 0.8980392156862745)" stroke="none" transform="matrix(1 0 0 1 1996 1940 )" class="fill" />
    <path d="M 8.622395833333323 5.347222222222226  C 8.622395833333323 7.156048472222219  7.156048472222219 8.622395833333323  5.347222222222226 8.622395833333323  C 3.538395972222202 8.622395833333323  2.0720486111110974 7.156048472222219  2.0720486111110974 5.347222222222226  C 2.0720486111110974 3.538395972222202  3.538395972222202 2.0720486111110974  5.347222222222226 2.0720486111110974  C 7.156048472222219 2.0720486111110974  8.622395833333323 3.538395972222202  8.622395833333323 5.347222222222226  Z " stroke-width="0" stroke-dasharray="0" stroke="rgba(255, 255, 255, 0)" fill="none" transform="matrix(1 0 0 1 1996 1940 )" class="stroke" mask="url(#Clip938)" />
    <path d="M 0.6684027777777743 5.347222222222226  C 0.6684027777777743 7.931267361111091  2.7631770833333293 10.026041666666677  5.347222222222226 10.026041666666677  C 7.931267361111091 10.026041666666677  10.026041666666677 7.931267361111091  10.026041666666677 5.347222222222226  C 10.026041666666677 2.7631770833333293  7.931267361111091 0.6684027777777743  5.347222222222226 0.6684027777777743  C 2.7631770833333293 0.6684027777777743  0.6684027777777743 2.7631770833333293  0.6684027777777743 5.347222222222226  Z " stroke-width="0" stroke-dasharray="0" stroke="rgba(255, 255, 255, 0)" fill="none" transform="matrix(1 0 0 1 1996 1940 )" class="stroke" mask="url(#Clip938)" />
  </g>
</svg>