<?xml version="1.0" encoding="utf-8"?>
<svg version="1.1" xmlns:xlink="http://www.w3.org/1999/xlink" width="13px" height="15px" xmlns="http://www.w3.org/2000/svg">
  <defs>
    <pattern id="BGPattern" patternUnits="userSpaceOnUse" alignment="0 0" imageRepeat="None" />
    <mask fill="white" id="Clip939">
      <path d="M 8.666666666666666 0.576923076923077  L 8.666666666666666 2.307692307692308  L 4.333333333333333 2.307692307692308  L 4.333333333333333 0.576923076923077  L 3.25 0.576923076923077  L 3.25 2.307692307692308  L 1.0833333333333333 2.307692307692308  C 0.48502999999999985 2.307692307692308  0 2.824280769230769  0 3.4615384615384617  L 0 13.846153846153847  C 0 14.483423076923078  0.48502999999999985 15  1.0833333333333333 15  L 11.916666666666666 15  C 12.514991666666667 15  13 14.483423076923078  13 13.846153846153847  L 13 3.4615384615384617  C 13 2.8242923076923074  12.514991666666667 2.307692307692308  11.916666666666666 2.307692307692308  L 9.75 2.307692307692308  L 9.75 0.576923076923077  L 8.666666666666666 0.576923076923077  Z M 3.25 3.4615384615384617  L 3.25 4.615384615384616  L 4.333333333333333 4.615384615384616  L 4.333333333333333 3.4615384615384617  L 8.666666666666666 3.4615384615384617  L 8.666666666666666 4.615384615384616  L 9.75 4.615384615384616  L 9.75 3.4615384615384617  L 11.916666666666666 3.4615384615384617  L 11.916666666666666 6  L 1.0833333333333333 6  L 1.0833333333333333 3.4615384615384617  L 3.25 3.4615384615384617  Z M 1.0833333333333333 13.846153846153847  L 1.0833333333333333 7  L 11.916666666666666 7  L 11.916666666666666 13.846153846153847  L 1.0833333333333333 13.846153846153847  Z " fill-rule="evenodd" />
    </mask>
  </defs>
  <g transform="matrix(1 0 0 1 -1988 -1878 )">
    <path d="M 8.666666666666666 0.576923076923077  L 8.666666666666666 2.307692307692308  L 4.333333333333333 2.307692307692308  L 4.333333333333333 0.576923076923077  L 3.25 0.576923076923077  L 3.25 2.307692307692308  L 1.0833333333333333 2.307692307692308  C 0.48502999999999985 2.307692307692308  0 2.824280769230769  0 3.4615384615384617  L 0 13.846153846153847  C 0 14.483423076923078  0.48502999999999985 15  1.0833333333333333 15  L 11.916666666666666 15  C 12.514991666666667 15  13 14.483423076923078  13 13.846153846153847  L 13 3.4615384615384617  C 13 2.8242923076923074  12.514991666666667 2.307692307692308  11.916666666666666 2.307692307692308  L 9.75 2.307692307692308  L 9.75 0.576923076923077  L 8.666666666666666 0.576923076923077  Z M 3.25 3.4615384615384617  L 3.25 4.615384615384616  L 4.333333333333333 4.615384615384616  L 4.333333333333333 3.4615384615384617  L 8.666666666666666 3.4615384615384617  L 8.666666666666666 4.615384615384616  L 9.75 4.615384615384616  L 9.75 3.4615384615384617  L 11.916666666666666 3.4615384615384617  L 11.916666666666666 6  L 1.0833333333333333 6  L 1.0833333333333333 3.4615384615384617  L 3.25 3.4615384615384617  Z M 1.0833333333333333 13.846153846153847  L 1.0833333333333333 7  L 11.916666666666666 7  L 11.916666666666666 13.846153846153847  L 1.0833333333333333 13.846153846153847  Z " fill-rule="nonzero" fill="rgba(0, 82, 217, 1)" stroke="none" transform="matrix(1 0 0 1 1988 1878 )" class="fill" />
    <path d="M 8.666666666666666 0.576923076923077  L 8.666666666666666 2.307692307692308  L 4.333333333333333 2.307692307692308  L 4.333333333333333 0.576923076923077  L 3.25 0.576923076923077  L 3.25 2.307692307692308  L 1.0833333333333333 2.307692307692308  C 0.48502999999999985 2.307692307692308  0 2.824280769230769  0 3.4615384615384617  L 0 13.846153846153847  C 0 14.483423076923078  0.48502999999999985 15  1.0833333333333333 15  L 11.916666666666666 15  C 12.514991666666667 15  13 14.483423076923078  13 13.846153846153847  L 13 3.4615384615384617  C 13 2.8242923076923074  12.514991666666667 2.307692307692308  11.916666666666666 2.307692307692308  L 9.75 2.307692307692308  L 9.75 0.576923076923077  L 8.666666666666666 0.576923076923077  Z " stroke-width="2" stroke-dasharray="0" stroke="rgba(0, 82, 217, 1)" fill="none" transform="matrix(1 0 0 1 1988 1878 )" class="stroke" mask="url(#Clip939)" />
    <path d="M 3.25 3.4615384615384617  L 3.25 4.615384615384616  L 4.333333333333333 4.615384615384616  L 4.333333333333333 3.4615384615384617  L 8.666666666666666 3.4615384615384617  L 8.666666666666666 4.615384615384616  L 9.75 4.615384615384616  L 9.75 3.4615384615384617  L 11.916666666666666 3.4615384615384617  L 11.916666666666666 6  L 1.0833333333333333 6  L 1.0833333333333333 3.4615384615384617  L 3.25 3.4615384615384617  Z " stroke-width="2" stroke-dasharray="0" stroke="rgba(0, 82, 217, 1)" fill="none" transform="matrix(1 0 0 1 1988 1878 )" class="stroke" mask="url(#Clip939)" />
    <path d="M 1.0833333333333333 13.846153846153847  L 1.0833333333333333 7  L 11.916666666666666 7  L 11.916666666666666 13.846153846153847  L 1.0833333333333333 13.846153846153847  Z " stroke-width="2" stroke-dasharray="0" stroke="rgba(0, 82, 217, 1)" fill="none" transform="matrix(1 0 0 1 1988 1878 )" class="stroke" mask="url(#Clip939)" />
  </g>
</svg>