<?xml version="1.0" encoding="utf-8"?>
<svg version="1.1" xmlns:xlink="http://www.w3.org/1999/xlink" width="10px" height="9px" xmlns="http://www.w3.org/2000/svg">
  <defs>
    <pattern id="BGPattern" patternUnits="userSpaceOnUse" alignment="0 0" imageRepeat="None" />
    <mask fill="white" id="Clip2935">
      <path d="M 7.838541666666657 4.375000000000003  C 7.838541666666657 5.8549487499999975  6.505498611111108 7.054687499999992  4.861111111111114 7.054687499999992  C 3.2167236111110924 7.054687499999992  1.883680555555543 5.8549487499999975  1.883680555555543 4.375000000000003  C 1.883680555555543 2.8950512499999834  3.2167236111110924 1.6953124999999887  4.861111111111114 1.6953124999999887  C 6.505498611111108 1.6953124999999887  7.838541666666657 2.8950512499999834  7.838541666666657 4.375000000000003  Z M 0.6076388888888857 4.375000000000003  C 0.6076388888888857 6.489218749999984  2.511979166666663 8.203125000000009  4.861111111111114 8.203125000000009  C 7.210243055555537 8.203125000000009  9.114583333333343 6.489218749999984  9.114583333333343 4.375000000000003  C 9.114583333333343 2.260781249999997  7.210243055555537 0.5468749999999972  4.861111111111114 0.5468749999999972  C 2.511979166666663 0.5468749999999972  0.6076388888888857 2.260781249999997  0.6076388888888857 4.375000000000003  Z " fill-rule="evenodd" />
    </mask>
  </defs>
  <g transform="matrix(1 0 0 1 -1735 -493 )">
    <path d="M 7.838541666666657 4.375000000000003  C 7.838541666666657 5.8549487499999975  6.505498611111108 7.054687499999992  4.861111111111114 7.054687499999992  C 3.2167236111110924 7.054687499999992  1.883680555555543 5.8549487499999975  1.883680555555543 4.375000000000003  C 1.883680555555543 2.8950512499999834  3.2167236111110924 1.6953124999999887  4.861111111111114 1.6953124999999887  C 6.505498611111108 1.6953124999999887  7.838541666666657 2.8950512499999834  7.838541666666657 4.375000000000003  Z M 0.6076388888888857 4.375000000000003  C 0.6076388888888857 6.489218749999984  2.511979166666663 8.203125000000009  4.861111111111114 8.203125000000009  C 7.210243055555537 8.203125000000009  9.114583333333343 6.489218749999984  9.114583333333343 4.375000000000003  C 9.114583333333343 2.260781249999997  7.210243055555537 0.5468749999999972  4.861111111111114 0.5468749999999972  C 2.511979166666663 0.5468749999999972  0.6076388888888857 2.260781249999997  0.6076388888888857 4.375000000000003  Z " fill-rule="nonzero" fill="rgba(0, 0, 0, 0.8980392156862745)" stroke="none" transform="matrix(1 0 0 1 1735 493 )" class="fill" />
    <path d="M 7.838541666666657 4.375000000000003  C 7.838541666666657 5.8549487499999975  6.505498611111108 7.054687499999992  4.861111111111114 7.054687499999992  C 3.2167236111110924 7.054687499999992  1.883680555555543 5.8549487499999975  1.883680555555543 4.375000000000003  C 1.883680555555543 2.8950512499999834  3.2167236111110924 1.6953124999999887  4.861111111111114 1.6953124999999887  C 6.505498611111108 1.6953124999999887  7.838541666666657 2.8950512499999834  7.838541666666657 4.375000000000003  Z " stroke-width="0" stroke-dasharray="0" stroke="rgba(0, 0, 0, 1)" fill="none" transform="matrix(1 0 0 1 1735 493 )" class="stroke" mask="url(#Clip2935)" />
    <path d="M 0.6076388888888857 4.375000000000003  C 0.6076388888888857 6.489218749999984  2.511979166666663 8.203125000000009  4.861111111111114 8.203125000000009  C 7.210243055555537 8.203125000000009  9.114583333333343 6.489218749999984  9.114583333333343 4.375000000000003  C 9.114583333333343 2.260781249999997  7.210243055555537 0.5468749999999972  4.861111111111114 0.5468749999999972  C 2.511979166666663 0.5468749999999972  0.6076388888888857 2.260781249999997  0.6076388888888857 4.375000000000003  Z " stroke-width="0" stroke-dasharray="0" stroke="rgba(0, 0, 0, 1)" fill="none" transform="matrix(1 0 0 1 1735 493 )" class="stroke" mask="url(#Clip2935)" />
  </g>
</svg>