<?xml version="1.0" encoding="utf-8"?>
<svg version="1.1" xmlns:xlink="http://www.w3.org/1999/xlink" width="12px" height="11px" xmlns="http://www.w3.org/2000/svg">
  <defs>
    <pattern id="BGPattern" patternUnits="userSpaceOnUse" alignment="0 0" imageRepeat="None" />
    <mask fill="white" id="Clip955">
      <path d="M 8 1.6923076923076925  L 4 1.6923076923076925  L 4 0.42307692307692313  L 3 0.42307692307692313  L 3 1.6923076923076925  L 1 1.6923076923076925  C 0.44771528000001126 1.6923076923076925  0 2.071143393846114  0 2.5384615384615388  L 0 10.153846153846155  C 0 10.621163553846179  0.44771504000004825 11  1 11  L 11 11  C 11.552284200000031 11  12 10.621164400000024  12 10.153846153846155  L 12 2.5384615384615388  C 12 2.071143698461548  11.552285199999915 1.6923076923076925  11 1.6923076923076925  L 9 1.6923076923076925  L 9 0.42307692307692313  L 8 0.42307692307692313  L 8 1.6923076923076925  Z M 1 2.5384615384615388  L 3 2.5384615384615388  L 3 3.384615384615385  L 4 3.384615384615385  L 4 2.5384615384615388  L 8 2.5384615384615388  L 8 3.384615384615385  L 9 3.384615384615385  L 9 2.5384615384615388  L 11 2.5384615384615388  L 11 4.230769230769231  L 1 4.230769230769231  L 1 2.5384615384615388  Z M 11 10  L 1 10  L 1 5  L 11 5  L 11 10  Z " fill-rule="evenodd" />
    </mask>
  </defs>
  <g transform="matrix(1 0 0 1 -1465 -638 )">
    <path d="M 8 1.6923076923076925  L 4 1.6923076923076925  L 4 0.42307692307692313  L 3 0.42307692307692313  L 3 1.6923076923076925  L 1 1.6923076923076925  C 0.44771528000001126 1.6923076923076925  0 2.071143393846114  0 2.5384615384615388  L 0 10.153846153846155  C 0 10.621163553846179  0.44771504000004825 11  1 11  L 11 11  C 11.552284200000031 11  12 10.621164400000024  12 10.153846153846155  L 12 2.5384615384615388  C 12 2.071143698461548  11.552285199999915 1.6923076923076925  11 1.6923076923076925  L 9 1.6923076923076925  L 9 0.42307692307692313  L 8 0.42307692307692313  L 8 1.6923076923076925  Z M 1 2.5384615384615388  L 3 2.5384615384615388  L 3 3.384615384615385  L 4 3.384615384615385  L 4 2.5384615384615388  L 8 2.5384615384615388  L 8 3.384615384615385  L 9 3.384615384615385  L 9 2.5384615384615388  L 11 2.5384615384615388  L 11 4.230769230769231  L 1 4.230769230769231  L 1 2.5384615384615388  Z M 11 10  L 1 10  L 1 5  L 11 5  L 11 10  Z " fill-rule="nonzero" fill="rgba(0, 0, 0, 0.8980392156862745)" stroke="none" transform="matrix(1 0 0 1 1465 638 )" class="fill" />
    <path d="M 8 1.6923076923076925  L 4 1.6923076923076925  L 4 0.42307692307692313  L 3 0.42307692307692313  L 3 1.6923076923076925  L 1 1.6923076923076925  C 0.44771528000001126 1.6923076923076925  0 2.071143393846114  0 2.5384615384615388  L 0 10.153846153846155  C 0 10.621163553846179  0.44771504000004825 11  1 11  L 11 11  C 11.552284200000031 11  12 10.621164400000024  12 10.153846153846155  L 12 2.5384615384615388  C 12 2.071143698461548  11.552285199999915 1.6923076923076925  11 1.6923076923076925  L 9 1.6923076923076925  L 9 0.42307692307692313  L 8 0.42307692307692313  L 8 1.6923076923076925  Z " stroke-width="0" stroke-dasharray="0" stroke="rgba(255, 255, 255, 0)" fill="none" transform="matrix(1 0 0 1 1465 638 )" class="stroke" mask="url(#Clip955)" />
    <path d="M 1 2.5384615384615388  L 3 2.5384615384615388  L 3 3.384615384615385  L 4 3.384615384615385  L 4 2.5384615384615388  L 8 2.5384615384615388  L 8 3.384615384615385  L 9 3.384615384615385  L 9 2.5384615384615388  L 11 2.5384615384615388  L 11 4.230769230769231  L 1 4.230769230769231  L 1 2.5384615384615388  Z " stroke-width="0" stroke-dasharray="0" stroke="rgba(255, 255, 255, 0)" fill="none" transform="matrix(1 0 0 1 1465 638 )" class="stroke" mask="url(#Clip955)" />
    <path d="M 11 10  L 1 10  L 1 5  L 11 5  L 11 10  Z " stroke-width="0" stroke-dasharray="0" stroke="rgba(255, 255, 255, 0)" fill="none" transform="matrix(1 0 0 1 1465 638 )" class="stroke" mask="url(#Clip955)" />
  </g>
</svg>