<?xml version="1.0" encoding="utf-8"?>
<svg version="1.1" xmlns:xlink="http://www.w3.org/1999/xlink" width="11px" height="10px" xmlns="http://www.w3.org/2000/svg">
  <defs>
    <pattern id="BGPattern" patternUnits="userSpaceOnUse" alignment="0 0" imageRepeat="None" />
    <mask fill="white" id="Clip970">
      <path d="M 8.622395833333323 4.861111111111114  C 8.622395833333323 6.505498611111108  7.156048472222219 7.838541666666657  5.347222222222226 7.838541666666657  C 3.538395972222202 7.838541666666657  2.0720486111110974 6.505498611111108  2.0720486111110974 4.861111111111114  C 2.0720486111110974 3.2167236111110924  3.538395972222202 1.883680555555543  5.347222222222226 1.883680555555543  C 7.156048472222219 1.883680555555543  8.622395833333323 3.2167236111110924  8.622395833333323 4.861111111111114  Z M 0.6684027777777743 4.861111111111114  C 0.6684027777777743 7.210243055555537  2.7631770833333293 9.114583333333343  5.347222222222226 9.114583333333343  C 7.931267361111091 9.114583333333343  10.026041666666677 7.210243055555537  10.026041666666677 4.861111111111114  C 10.026041666666677 2.511979166666663  7.931267361111091 0.6076388888888857  5.347222222222226 0.6076388888888857  C 2.7631770833333293 0.6076388888888857  0.6684027777777743 2.511979166666663  0.6684027777777743 4.861111111111114  Z " fill-rule="evenodd" />
    </mask>
  </defs>
  <g transform="matrix(1 0 0 1 -1826 -565 )">
    <path d="M 8.622395833333323 4.861111111111114  C 8.622395833333323 6.505498611111108  7.156048472222219 7.838541666666657  5.347222222222226 7.838541666666657  C 3.538395972222202 7.838541666666657  2.0720486111110974 6.505498611111108  2.0720486111110974 4.861111111111114  C 2.0720486111110974 3.2167236111110924  3.538395972222202 1.883680555555543  5.347222222222226 1.883680555555543  C 7.156048472222219 1.883680555555543  8.622395833333323 3.2167236111110924  8.622395833333323 4.861111111111114  Z M 0.6684027777777743 4.861111111111114  C 0.6684027777777743 7.210243055555537  2.7631770833333293 9.114583333333343  5.347222222222226 9.114583333333343  C 7.931267361111091 9.114583333333343  10.026041666666677 7.210243055555537  10.026041666666677 4.861111111111114  C 10.026041666666677 2.511979166666663  7.931267361111091 0.6076388888888857  5.347222222222226 0.6076388888888857  C 2.7631770833333293 0.6076388888888857  0.6684027777777743 2.511979166666663  0.6684027777777743 4.861111111111114  Z " fill-rule="nonzero" fill="rgba(0, 0, 0, 0.8980392156862745)" stroke="none" transform="matrix(1 0 0 1 1826 565 )" class="fill" />
    <path d="M 8.622395833333323 4.861111111111114  C 8.622395833333323 6.505498611111108  7.156048472222219 7.838541666666657  5.347222222222226 7.838541666666657  C 3.538395972222202 7.838541666666657  2.0720486111110974 6.505498611111108  2.0720486111110974 4.861111111111114  C 2.0720486111110974 3.2167236111110924  3.538395972222202 1.883680555555543  5.347222222222226 1.883680555555543  C 7.156048472222219 1.883680555555543  8.622395833333323 3.2167236111110924  8.622395833333323 4.861111111111114  Z " stroke-width="0" stroke-dasharray="0" stroke="rgba(255, 255, 255, 0)" fill="none" transform="matrix(1 0 0 1 1826 565 )" class="stroke" mask="url(#Clip970)" />
    <path d="M 0.6684027777777743 4.861111111111114  C 0.6684027777777743 7.210243055555537  2.7631770833333293 9.114583333333343  5.347222222222226 9.114583333333343  C 7.931267361111091 9.114583333333343  10.026041666666677 7.210243055555537  10.026041666666677 4.861111111111114  C 10.026041666666677 2.511979166666663  7.931267361111091 0.6076388888888857  5.347222222222226 0.6076388888888857  C 2.7631770833333293 0.6076388888888857  0.6684027777777743 2.511979166666663  0.6684027777777743 4.861111111111114  Z " stroke-width="0" stroke-dasharray="0" stroke="rgba(255, 255, 255, 0)" fill="none" transform="matrix(1 0 0 1 1826 565 )" class="stroke" mask="url(#Clip970)" />
  </g>
</svg>