<?xml version="1.0" encoding="utf-8"?>
<svg version="1.1" xmlns:xlink="http://www.w3.org/1999/xlink" width="13px" height="14px" xmlns="http://www.w3.org/2000/svg">
  <defs>
    <pattern id="BGPattern" patternUnits="userSpaceOnUse" alignment="0 0" imageRepeat="None" />
    <mask fill="white" id="Clip971">
      <path d="M 8.666666666666666 0.5384615384615385  L 8.666666666666666 2.153846153846154  L 4.333333333333333 2.153846153846154  L 4.333333333333333 0.5384615384615385  L 3.25 0.5384615384615385  L 3.25 2.153846153846154  L 1.0833333333333333 2.153846153846154  C 0.48502999999999985 2.153846153846154  0 2.6359953846153843  0 3.230769230769231  L 0 12.923076923076923  C 0 13.517861538461538  0.48502999999999985 14  1.0833333333333333 14  L 11.916666666666666 14  C 12.514991666666667 14  13 13.517861538461538  13 12.923076923076923  L 13 3.230769230769231  C 13 2.6360061538461537  12.514991666666667 2.153846153846154  11.916666666666666 2.153846153846154  L 9.75 2.153846153846154  L 9.75 0.5384615384615385  L 8.666666666666666 0.5384615384615385  Z M 3.25 3.230769230769231  L 3.25 4.307692307692308  L 4.333333333333333 4.307692307692308  L 4.333333333333333 3.230769230769231  L 8.666666666666666 3.230769230769231  L 8.666666666666666 4.307692307692308  L 9.75 4.307692307692308  L 9.75 3.230769230769231  L 11.916666666666666 3.230769230769231  L 11.916666666666666 5.384615384615385  L 1.0833333333333333 5.384615384615385  L 1.0833333333333333 3.230769230769231  L 3.25 3.230769230769231  Z M 1.0833333333333333 13  L 1.0833333333333333 6.461538461538462  L 11.916666666666666 6.461538461538462  L 11.916666666666666 13  L 1.0833333333333333 13  Z " fill-rule="evenodd" />
    </mask>
  </defs>
  <g transform="matrix(1 0 0 1 -1818 -508 )">
    <path d="M 8.666666666666666 0.5384615384615385  L 8.666666666666666 2.153846153846154  L 4.333333333333333 2.153846153846154  L 4.333333333333333 0.5384615384615385  L 3.25 0.5384615384615385  L 3.25 2.153846153846154  L 1.0833333333333333 2.153846153846154  C 0.48502999999999985 2.153846153846154  0 2.6359953846153843  0 3.230769230769231  L 0 12.923076923076923  C 0 13.517861538461538  0.48502999999999985 14  1.0833333333333333 14  L 11.916666666666666 14  C 12.514991666666667 14  13 13.517861538461538  13 12.923076923076923  L 13 3.230769230769231  C 13 2.6360061538461537  12.514991666666667 2.153846153846154  11.916666666666666 2.153846153846154  L 9.75 2.153846153846154  L 9.75 0.5384615384615385  L 8.666666666666666 0.5384615384615385  Z M 3.25 3.230769230769231  L 3.25 4.307692307692308  L 4.333333333333333 4.307692307692308  L 4.333333333333333 3.230769230769231  L 8.666666666666666 3.230769230769231  L 8.666666666666666 4.307692307692308  L 9.75 4.307692307692308  L 9.75 3.230769230769231  L 11.916666666666666 3.230769230769231  L 11.916666666666666 5.384615384615385  L 1.0833333333333333 5.384615384615385  L 1.0833333333333333 3.230769230769231  L 3.25 3.230769230769231  Z M 1.0833333333333333 13  L 1.0833333333333333 6.461538461538462  L 11.916666666666666 6.461538461538462  L 11.916666666666666 13  L 1.0833333333333333 13  Z " fill-rule="nonzero" fill="rgba(0, 82, 217, 1)" stroke="none" transform="matrix(1 0 0 1 1818 508 )" class="fill" />
    <path d="M 8.666666666666666 0.5384615384615385  L 8.666666666666666 2.153846153846154  L 4.333333333333333 2.153846153846154  L 4.333333333333333 0.5384615384615385  L 3.25 0.5384615384615385  L 3.25 2.153846153846154  L 1.0833333333333333 2.153846153846154  C 0.48502999999999985 2.153846153846154  0 2.6359953846153843  0 3.230769230769231  L 0 12.923076923076923  C 0 13.517861538461538  0.48502999999999985 14  1.0833333333333333 14  L 11.916666666666666 14  C 12.514991666666667 14  13 13.517861538461538  13 12.923076923076923  L 13 3.230769230769231  C 13 2.6360061538461537  12.514991666666667 2.153846153846154  11.916666666666666 2.153846153846154  L 9.75 2.153846153846154  L 9.75 0.5384615384615385  L 8.666666666666666 0.5384615384615385  Z " stroke-width="2" stroke-dasharray="0" stroke="rgba(0, 82, 217, 1)" fill="none" transform="matrix(1 0 0 1 1818 508 )" class="stroke" mask="url(#Clip971)" />
    <path d="M 3.25 3.230769230769231  L 3.25 4.307692307692308  L 4.333333333333333 4.307692307692308  L 4.333333333333333 3.230769230769231  L 8.666666666666666 3.230769230769231  L 8.666666666666666 4.307692307692308  L 9.75 4.307692307692308  L 9.75 3.230769230769231  L 11.916666666666666 3.230769230769231  L 11.916666666666666 5.384615384615385  L 1.0833333333333333 5.384615384615385  L 1.0833333333333333 3.230769230769231  L 3.25 3.230769230769231  Z " stroke-width="2" stroke-dasharray="0" stroke="rgba(0, 82, 217, 1)" fill="none" transform="matrix(1 0 0 1 1818 508 )" class="stroke" mask="url(#Clip971)" />
    <path d="M 1.0833333333333333 13  L 1.0833333333333333 6.461538461538462  L 11.916666666666666 6.461538461538462  L 11.916666666666666 13  L 1.0833333333333333 13  Z " stroke-width="2" stroke-dasharray="0" stroke="rgba(0, 82, 217, 1)" fill="none" transform="matrix(1 0 0 1 1818 508 )" class="stroke" mask="url(#Clip971)" />
  </g>
</svg>