<?xml version="1.0" encoding="utf-8"?>
<svg version="1.1" xmlns:xlink="http://www.w3.org/1999/xlink" width="817px" height="187px" xmlns="http://www.w3.org/2000/svg">
  <defs>
    <pattern id="BGPattern" patternUnits="userSpaceOnUse" alignment="0 0" imageRepeat="None" />
    <mask fill="white" id="Clip949">
      <path d="M 0 187  L 51.0625 146.34782608695653  L 102.125 187  L 153.1875 121.95652173913044  L 204.25 130  L 255.3125 130  L 306.375 65.04347826086956  L 357.4375 48.78260869565217  L 408.5 105.69565217391303  L 459.5625 81.30434782608695  L 510.625 0  L 561.6875 97.56521739130434  L 612.75 138  L 663.8125 138  L 714.875 113.82608695652175  L 765.9375 146.34782608695653  L 817 138.2173913043478  L 817 187  L 0 187  Z " fill-rule="evenodd" />
    </mask>
  </defs>
  <g transform="matrix(1 0 0 1 -461 -686 )">
    <path d="M 0 187  L 51.0625 146.34782608695653  L 102.125 187  L 153.1875 121.95652173913044  L 204.25 130  L 255.3125 130  L 306.375 65.04347826086956  L 357.4375 48.78260869565217  L 408.5 105.69565217391303  L 459.5625 81.30434782608695  L 510.625 0  L 561.6875 97.56521739130434  L 612.75 138  L 663.8125 138  L 714.875 113.82608695652175  L 765.9375 146.34782608695653  L 817 138.2173913043478  L 817 187  L 0 187  Z " fill-rule="nonzero" fill="rgba(236, 242, 254, 1)" stroke="none" transform="matrix(1 0 0 1 461 686 )" class="fill" />
    <path d="M 0 187  L 51.0625 146.34782608695653  L 102.125 187  L 153.1875 121.95652173913044  L 204.25 130  L 255.3125 130  L 306.375 65.04347826086956  L 357.4375 48.78260869565217  L 408.5 105.69565217391303  L 459.5625 81.30434782608695  L 510.625 0  L 561.6875 97.56521739130434  L 612.75 138  L 663.8125 138  L 714.875 113.82608695652175  L 765.9375 146.34782608695653  L 817 138.2173913043478  L 817 187  L 0 187  Z " stroke-width="0" stroke-dasharray="0" stroke="rgba(255, 255, 255, 0)" fill="none" transform="matrix(1 0 0 1 461 686 )" class="stroke" mask="url(#Clip949)" />
  </g>
</svg>