<?xml version="1.0" encoding="utf-8"?>
<svg version="1.1" xmlns:xlink="http://www.w3.org/1999/xlink" width="858px" height="200px" xmlns="http://www.w3.org/2000/svg">
  <defs>
    <pattern id="BGPattern" patternUnits="userSpaceOnUse" alignment="0 0" imageRepeat="None" />
    <mask fill="white" id="Clip875">
      <path d="M 0 200  L 53.625 156.52173913043478  L 107.25 200  L 160.875 130.43478260869566  L 214.5 139  L 268.125 139  L 321.75 69.56521739130434  L 375.375 52.17391304347826  L 429 113.04347826086956  L 482.625 86.95652173913044  L 536.25 0  L 589.875 104.34782608695652  L 643.5 147  L 697.125 147  L 750.75 121.73913043478262  L 804.375 156.52173913043478  L 858 147.82608695652172  L 858 200  L 0 200  Z " fill-rule="evenodd" />
    </mask>
  </defs>
  <g transform="matrix(1 0 0 1 -567 -2046 )">
    <path d="M 0 200  L 53.625 156.52173913043478  L 107.25 200  L 160.875 130.43478260869566  L 214.5 139  L 268.125 139  L 321.75 69.56521739130434  L 375.375 52.17391304347826  L 429 113.04347826086956  L 482.625 86.95652173913044  L 536.25 0  L 589.875 104.34782608695652  L 643.5 147  L 697.125 147  L 750.75 121.73913043478262  L 804.375 156.52173913043478  L 858 147.82608695652172  L 858 200  L 0 200  Z " fill-rule="nonzero" fill="rgba(236, 242, 254, 1)" stroke="none" transform="matrix(1 0 0 1 567 2046 )" class="fill" />
    <path d="M 0 200  L 53.625 156.52173913043478  L 107.25 200  L 160.875 130.43478260869566  L 214.5 139  L 268.125 139  L 321.75 69.56521739130434  L 375.375 52.17391304347826  L 429 113.04347826086956  L 482.625 86.95652173913044  L 536.25 0  L 589.875 104.34782608695652  L 643.5 147  L 697.125 147  L 750.75 121.73913043478262  L 804.375 156.52173913043478  L 858 147.82608695652172  L 858 200  L 0 200  Z " stroke-width="0" stroke-dasharray="0" stroke="rgba(255, 255, 255, 0)" fill="none" transform="matrix(1 0 0 1 567 2046 )" class="stroke" mask="url(#Clip875)" />
  </g>
</svg>