<?xml version="1.0" encoding="utf-8"?>
<svg version="1.1" xmlns:xlink="http://www.w3.org/1999/xlink" width="52px" height="19px" xmlns="http://www.w3.org/2000/svg">
  <defs>
    <pattern id="BGPattern" patternUnits="userSpaceOnUse" alignment="0 0" imageRepeat="None" />
    <mask fill="white" id="Clip2820">
      <path d="M 0 2.375  C 0 1.0633237187499929  1.0913059218750156 0  2.4375 0  L 49.5625 0  C 50.9086940375 0  52 1.0633237187499929  52 2.375  L 52 16.625  C 52 17.936676241666667  50.9086940375 19  49.5625 19  L 2.4375 19  C 1.0913059218750156 19  0 17.936676241666667  0 16.625  L 0 2.375  Z " fill-rule="evenodd" />
    </mask>
  </defs>
  <g transform="matrix(1 0 0 1 -778 -348 )">
    <path d="M 0 2.375  C 0 1.0633237187499929  1.0913059218750156 0  2.4375 0  L 49.5625 0  C 50.9086940375 0  52 1.0633237187499929  52 2.375  L 52 16.625  C 52 17.936676241666667  50.9086940375 19  49.5625 19  L 2.4375 19  C 1.0913059218750156 19  0 17.936676241666667  0 16.625  L 0 2.375  Z " fill-rule="nonzero" fill="rgba(249, 215, 217, 1)" stroke="none" transform="matrix(1 0 0 1 778 348 )" class="fill" />
    <path d="M 0 2.375  C 0 1.0633237187499929  1.0913059218750156 0  2.4375 0  L 49.5625 0  C 50.9086940375 0  52 1.0633237187499929  52 2.375  L 52 16.625  C 52 17.936676241666667  50.9086940375 19  49.5625 19  L 2.4375 19  C 1.0913059218750156 19  0 17.936676241666667  0 16.625  L 0 2.375  Z " stroke-width="0" stroke-dasharray="0" stroke="rgba(255, 255, 255, 0)" fill="none" transform="matrix(1 0 0 1 778 348 )" class="stroke" mask="url(#Clip2820)" />
  </g>
</svg>