<?xml version="1.0" encoding="utf-8"?>
<svg version="1.1" xmlns:xlink="http://www.w3.org/1999/xlink" width="52px" height="19px" xmlns="http://www.w3.org/2000/svg">
  <defs>
    <pattern id="BGPattern" patternUnits="userSpaceOnUse" alignment="0 0" imageRepeat="None" />
    <mask fill="white" id="Clip2824">
      <path d="M 0 2.375  C 0 1.0633237187499163  1.0913059218749626 0  2.4375 0  L 32.90405117270765 0  L 49.5625 0  C 50.90869403750008 0  52 1.0633237187499163  52 2.375  L 52 16.625  C 52 17.93667624166674  50.90869403750008 19  49.5625 19  L 37.16844349680154 19  L 2.4375 19  C 1.0913059218749626 19  0 17.93667624166674  0 16.625  L 0 2.375  Z " fill-rule="evenodd" />
    </mask>
  </defs>
  <g transform="matrix(1 0 0 1 -778 -605 )">
    <path d="M 0 2.375  C 0 1.0633237187499163  1.0913059218749626 0  2.4375 0  L 32.90405117270765 0  L 49.5625 0  C 50.90869403750008 0  52 1.0633237187499163  52 2.375  L 52 16.625  C 52 17.93667624166674  50.90869403750008 19  49.5625 19  L 37.16844349680154 19  L 2.4375 19  C 1.0913059218749626 19  0 17.93667624166674  0 16.625  L 0 2.375  Z " fill-rule="nonzero" fill="rgba(188, 235, 220, 1)" stroke="none" transform="matrix(1 0 0 1 778 605 )" class="fill" />
    <path d="M 0 2.375  C 0 1.0633237187499163  1.0913059218749626 0  2.4375 0  L 32.90405117270765 0  L 49.5625 0  C 50.90869403750008 0  52 1.0633237187499163  52 2.375  L 52 16.625  C 52 17.93667624166674  50.90869403750008 19  49.5625 19  L 37.16844349680154 19  L 2.4375 19  C 1.0913059218749626 19  0 17.93667624166674  0 16.625  L 0 2.375  Z " stroke-width="0" stroke-dasharray="0" stroke="rgba(255, 255, 255, 0)" fill="none" transform="matrix(1 0 0 1 778 605 )" class="stroke" mask="url(#Clip2824)" />
  </g>
</svg>