<?xml version="1.0" encoding="utf-8"?>
<svg version="1.1" xmlns:xlink="http://www.w3.org/1999/xlink" width="61px" height="24px" xmlns="http://www.w3.org/2000/svg">
  <defs>
    <pattern id="BGPattern" patternUnits="userSpaceOnUse" alignment="0 0" imageRepeat="None" />
    <mask fill="white" id="Clip848">
      <path d="M 0 3  C 0 1.343145749999894  1.2801857929687062 0  2.859375 0  L 39.59947515171403 0  L 58.140625 0  C 59.71981415937509 0  61 1.343145749999894  61 3  L 61 21  C 61 22.65685420000009  59.71981415937509 24  58.140625 24  L 2.859375 24  C 1.2801857929687062 24  0 22.65685420000009  0 21  L 0 3  Z " fill-rule="evenodd" />
    </mask>
  </defs>
  <g transform="matrix(1 0 0 1 -753 -284 )">
    <path d="M 0 3  C 0 1.343145749999894  1.2801857929687062 0  2.859375 0  L 39.59947515171403 0  L 58.140625 0  C 59.71981415937509 0  61 1.343145749999894  61 3  L 61 21  C 61 22.65685420000009  59.71981415937509 24  58.140625 24  L 2.859375 24  C 1.2801857929687062 24  0 22.65685420000009  0 21  L 0 3  Z " fill-rule="nonzero" fill="rgba(249, 224, 199, 1)" stroke="none" transform="matrix(1 0 0 1 753 284 )" class="fill" />
    <path d="M 0 3  C 0 1.343145749999894  1.2801857929687062 0  2.859375 0  L 39.59947515171403 0  L 58.140625 0  C 59.71981415937509 0  61 1.343145749999894  61 3  L 61 21  C 61 22.65685420000009  59.71981415937509 24  58.140625 24  L 2.859375 24  C 1.2801857929687062 24  0 22.65685420000009  0 21  L 0 3  Z " stroke-width="0" stroke-dasharray="0" stroke="rgba(255, 255, 255, 0)" fill="none" transform="matrix(1 0 0 1 753 284 )" class="stroke" mask="url(#Clip848)" />
  </g>
</svg>