<?xml version="1.0" encoding="utf-8"?>
<svg version="1.1" xmlns:xlink="http://www.w3.org/1999/xlink" width="61px" height="23px" xmlns="http://www.w3.org/2000/svg">
  <defs>
    <pattern id="BGPattern" patternUnits="userSpaceOnUse" alignment="0 0" imageRepeat="None" />
    <mask fill="white" id="Clip852">
      <path d="M 0 2.875  C 0 1.2871813437499913  1.2801857929687683 0  2.859375 0  L 58.140625 0  C 59.719814159375 0  61 1.2871813437499913  61 2.875  L 61 20.125  C 61 21.712818608333333  59.719814159375 23  58.140625 23  L 2.859375 23  C 1.2801857929687683 23  0 21.712818608333333  0 20.125  L 0 2.875  Z " fill-rule="evenodd" />
    </mask>
  </defs>
  <g transform="matrix(1 0 0 1 -753 -438 )">
    <path d="M 0 2.875  C 0 1.2871813437499913  1.2801857929687683 0  2.859375 0  L 58.140625 0  C 59.719814159375 0  61 1.2871813437499913  61 2.875  L 61 20.125  C 61 21.712818608333333  59.719814159375 23  58.140625 23  L 2.859375 23  C 1.2801857929687683 23  0 21.712818608333333  0 20.125  L 0 2.875  Z " fill-rule="nonzero" fill="rgba(249, 224, 199, 1)" stroke="none" transform="matrix(1 0 0 1 753 438 )" class="fill" />
    <path d="M 0 2.875  C 0 1.2871813437499913  1.2801857929687683 0  2.859375 0  L 58.140625 0  C 59.719814159375 0  61 1.2871813437499913  61 2.875  L 61 20.125  C 61 21.712818608333333  59.719814159375 23  58.140625 23  L 2.859375 23  C 1.2801857929687683 23  0 21.712818608333333  0 20.125  L 0 2.875  Z " stroke-width="0" stroke-dasharray="0" stroke="rgba(255, 255, 255, 0)" fill="none" transform="matrix(1 0 0 1 753 438 )" class="stroke" mask="url(#Clip852)" />
  </g>
</svg>