<?xml version="1.0" encoding="utf-8"?>
<svg version="1.1" xmlns:xlink="http://www.w3.org/1999/xlink" width="44px" height="43px" xmlns="http://www.w3.org/2000/svg">
  <defs>
    <pattern id="BGPattern" patternUnits="userSpaceOnUse" alignment="0 0" imageRepeat="None" />
    <mask fill="white" id="Clip2854">
      <path d="M 34 16.5  C 34 7.383749999999967  26.392500000000013 0  17 0  C 7.6074999999999875 0  0 7.383749999999967  0 16.5  C 0 25.616250000000033  7.6074999999999875 33  17 33  C 26.392500000000013 33  34 25.616250000000033  34 16.5  Z M 11.899999999999977 9.900000000000023  C 11.899999999999977 7.169249999999998  14.186499999999995 4.949999999999953  17 4.949999999999953  C 19.813500000000005 4.949999999999953  22.100000000000023 7.169249999999998  22.100000000000023 9.900000000000023  C 22.100000000000023 9.966324240914648  22.098659299666195 10.032338886475621  22.09600288116161 10.0980200407008  C 21.988956871357885 12.744781259607773  19.745371759104245 14.849999999999977  17 14.849999999999977  C 14.186499999999995 14.849999999999977  11.899999999999977 12.638999999999971  11.899999999999977 9.900000000000023  Z M 27.19999999999999 23.066999999999936  C 24.99849999999998 26.26799999999998  21.258500000000026 28.37999999999998  17 28.37999999999998  C 12.741500000000002 28.37999999999998  9.001500000000021 26.26799999999998  6.800000000000011 23.066999999999936  C 6.842500000000001 19.791750000000008  13.608499999999992 17.985000000000056  17 17.985000000000056  C 20.391500000000008 17.985000000000056  27.149 19.791750000000008  27.19999999999999 23.066999999999936  Z " fill-rule="evenodd" />
    </mask>
  </defs>
  <g transform="matrix(1 0 0 1 -80 -719 )">
    <path d="M 34 16.5  C 34 7.383749999999967  26.392500000000013 0  17 0  C 7.6074999999999875 0  0 7.383749999999967  0 16.5  C 0 25.616250000000033  7.6074999999999875 33  17 33  C 26.392500000000013 33  34 25.616250000000033  34 16.5  Z M 11.899999999999977 9.900000000000023  C 11.899999999999977 7.169249999999998  14.186499999999995 4.949999999999953  17 4.949999999999953  C 19.813500000000005 4.949999999999953  22.100000000000023 7.169249999999998  22.100000000000023 9.900000000000023  C 22.100000000000023 9.966324240914648  22.098659299666195 10.032338886475621  22.09600288116161 10.0980200407008  C 21.988956871357885 12.744781259607773  19.745371759104245 14.849999999999977  17 14.849999999999977  C 14.186499999999995 14.849999999999977  11.899999999999977 12.638999999999971  11.899999999999977 9.900000000000023  Z M 27.19999999999999 23.066999999999936  C 24.99849999999998 26.26799999999998  21.258500000000026 28.37999999999998  17 28.37999999999998  C 12.741500000000002 28.37999999999998  9.001500000000021 26.26799999999998  6.800000000000011 23.066999999999936  C 6.842500000000001 19.791750000000008  13.608499999999992 17.985000000000056  17 17.985000000000056  C 20.391500000000008 17.985000000000056  27.149 19.791750000000008  27.19999999999999 23.066999999999936  Z " fill-rule="nonzero" fill="rgba(0, 0, 0, 1)" stroke="none" transform="matrix(1 0 0 1 80 719 )" class="fill" />
    <path d="M 34 16.5  C 34 7.383749999999967  26.392500000000013 0  17 0  C 7.6074999999999875 0  0 7.383749999999967  0 16.5  C 0 25.616250000000033  7.6074999999999875 33  17 33  C 26.392500000000013 33  34 25.616250000000033  34 16.5  Z " stroke-width="0" stroke-dasharray="0" stroke="rgba(255, 255, 255, 0)" fill="none" transform="matrix(1 0 0 1 80 719 )" class="stroke" mask="url(#Clip2854)" />
    <path d="M 11.899999999999977 9.900000000000023  C 11.899999999999977 7.169249999999998  14.186499999999995 4.949999999999953  17 4.949999999999953  C 19.813500000000005 4.949999999999953  22.100000000000023 7.169249999999998  22.100000000000023 9.900000000000023  C 22.100000000000023 9.966324240914648  22.098659299666195 10.032338886475621  22.09600288116161 10.0980200407008  C 21.988956871357885 12.744781259607773  19.745371759104245 14.849999999999977  17 14.849999999999977  C 14.186499999999995 14.849999999999977  11.899999999999977 12.638999999999971  11.899999999999977 9.900000000000023  Z " stroke-width="0" stroke-dasharray="0" stroke="rgba(255, 255, 255, 0)" fill="none" transform="matrix(1 0 0 1 80 719 )" class="stroke" mask="url(#Clip2854)" />
    <path d="M 27.19999999999999 23.066999999999936  C 24.99849999999998 26.26799999999998  21.258500000000026 28.37999999999998  17 28.37999999999998  C 12.741500000000002 28.37999999999998  9.001500000000021 26.26799999999998  6.800000000000011 23.066999999999936  C 6.842500000000001 19.791750000000008  13.608499999999992 17.985000000000056  17 17.985000000000056  C 20.391500000000008 17.985000000000056  27.149 19.791750000000008  27.19999999999999 23.066999999999936  Z " stroke-width="0" stroke-dasharray="0" stroke="rgba(255, 255, 255, 0)" fill="none" transform="matrix(1 0 0 1 80 719 )" class="stroke" mask="url(#Clip2854)" />
  </g>
  <style>svg { filter: drop-shadow(5px 5px 2.5px rgba(0, 0, 0, 0.34901960784313724)); }</style>
</svg>