<?xml version="1.0" encoding="utf-8"?>
<svg version="1.1" xmlns:xlink="http://www.w3.org/1999/xlink" width="11px" height="2px" xmlns="http://www.w3.org/2000/svg">
  <defs>
    <pattern id="BGPattern" patternUnits="userSpaceOnUse" alignment="0 0" imageRepeat="None" />
    <mask fill="white" id="Clip844">
      <path d="M 0 1  C 0 0.4477152500000017  0.41040564583332184 0  0.9166666666666666 0  C 1.4229276875000114 0  1.8333333333333333 0.4477152500000017  1.8333333333333333 1  C 1.8333333333333333 1.5522847499999983  1.4229276875000114 2  0.9166666666666666 2  C 0.41040564583332184 2  0 1.5522847499999983  0 1  Z M 4.583333333333334 1  C 4.583333333333334 0.4477152500000017  4.993738979166656 0  5.5 0  C 6.006261020833345 0  6.416666666666667 0.4477152500000017  6.416666666666667 1  C 6.416666666666667 1.5522847499999983  6.006261020833345 2  5.5 2  C 4.993738979166656 2  4.583333333333334 1.5522847499999983  4.583333333333334 1  Z M 9.166666666666668 1  C 9.166666666666668 0.4477152500000017  9.577072358333357 0  10.083333333333332 0  C 10.589594308333307 0  11 0.4477152500000017  11 1  C 11 1.5522847499999983  10.589594308333307 2  10.083333333333332 2  C 9.577072358333357 2  9.166666666666668 1.5522847499999983  9.166666666666668 1  Z " fill-rule="evenodd" />
    </mask>
  </defs>
  <g transform="matrix(1 0 0 1 -1736 -981 )">
    <path d="M 0 1  C 0 0.4477152500000017  0.41040564583332184 0  0.9166666666666666 0  C 1.4229276875000114 0  1.8333333333333333 0.4477152500000017  1.8333333333333333 1  C 1.8333333333333333 1.5522847499999983  1.4229276875000114 2  0.9166666666666666 2  C 0.41040564583332184 2  0 1.5522847499999983  0 1  Z M 4.583333333333334 1  C 4.583333333333334 0.4477152500000017  4.993738979166656 0  5.5 0  C 6.006261020833345 0  6.416666666666667 0.4477152500000017  6.416666666666667 1  C 6.416666666666667 1.5522847499999983  6.006261020833345 2  5.5 2  C 4.993738979166656 2  4.583333333333334 1.5522847499999983  4.583333333333334 1  Z M 9.166666666666668 1  C 9.166666666666668 0.4477152500000017  9.577072358333357 0  10.083333333333332 0  C 10.589594308333307 0  11 0.4477152500000017  11 1  C 11 1.5522847499999983  10.589594308333307 2  10.083333333333332 2  C 9.577072358333357 2  9.166666666666668 1.5522847499999983  9.166666666666668 1  Z " fill-rule="nonzero" fill="rgba(0, 0, 0, 0.2980392156862745)" stroke="none" transform="matrix(1 0 0 1 1736 981 )" class="fill" />
    <path d="M 0 1  C 0 0.4477152500000017  0.41040564583332184 0  0.9166666666666666 0  C 1.4229276875000114 0  1.8333333333333333 0.4477152500000017  1.8333333333333333 1  C 1.8333333333333333 1.5522847499999983  1.4229276875000114 2  0.9166666666666666 2  C 0.41040564583332184 2  0 1.5522847499999983  0 1  Z " stroke-width="0" stroke-dasharray="0" stroke="rgba(255, 255, 255, 0)" fill="none" transform="matrix(1 0 0 1 1736 981 )" class="stroke" mask="url(#Clip844)" />
    <path d="M 4.583333333333334 1  C 4.583333333333334 0.4477152500000017  4.993738979166656 0  5.5 0  C 6.006261020833345 0  6.416666666666667 0.4477152500000017  6.416666666666667 1  C 6.416666666666667 1.5522847499999983  6.006261020833345 2  5.5 2  C 4.993738979166656 2  4.583333333333334 1.5522847499999983  4.583333333333334 1  Z " stroke-width="0" stroke-dasharray="0" stroke="rgba(255, 255, 255, 0)" fill="none" transform="matrix(1 0 0 1 1736 981 )" class="stroke" mask="url(#Clip844)" />
    <path d="M 9.166666666666668 1  C 9.166666666666668 0.4477152500000017  9.577072358333357 0  10.083333333333332 0  C 10.589594308333307 0  11 0.4477152500000017  11 1  C 11 1.5522847499999983  10.589594308333307 2  10.083333333333332 2  C 9.577072358333357 2  9.166666666666668 1.5522847499999983  9.166666666666668 1  Z " stroke-width="0" stroke-dasharray="0" stroke="rgba(255, 255, 255, 0)" fill="none" transform="matrix(1 0 0 1 1736 981 )" class="stroke" mask="url(#Clip844)" />
  </g>
</svg>