<?xml version="1.0" encoding="utf-8"?>
<svg version="1.1" xmlns:xlink="http://www.w3.org/1999/xlink" width="6px" height="11px" xmlns="http://www.w3.org/2000/svg">
  <defs>
    <pattern id="BGPattern" patternUnits="userSpaceOnUse" alignment="0 0" imageRepeat="None" />
    <mask fill="white" id="Clip568">
      <path d="M 0.14047570285710467 5.225047889285712  C -0.026517257142813833 5.37846795357143  -0.02621376857142163 5.626932818571433  0.1411535742857138 5.780009706428575  L 5.1646605428571615 10.374590600000007  L 5.770752085714321 9.819006685714289  L 1.0517149714286071 5.50262761714286  L 5.770752085714321 1.188354372857143  L 5.1646605428571615 0.6327704742857116  L 0.15085782857142604 5.21584190285715  L 0.1411535742857138 5.224426153571435  Z " fill-rule="evenodd" />
    </mask>
  </defs>
  <g transform="matrix(1 0 0 1 -1359 -845 )">
    <path d="M 0.14047570285710467 5.225047889285712  C -0.026517257142813833 5.37846795357143  -0.02621376857142163 5.626932818571433  0.1411535742857138 5.780009706428575  L 5.1646605428571615 10.374590600000007  L 5.770752085714321 9.819006685714289  L 1.0517149714286071 5.50262761714286  L 5.770752085714321 1.188354372857143  L 5.1646605428571615 0.6327704742857116  L 0.15085782857142604 5.21584190285715  L 0.1411535742857138 5.224426153571435  Z " fill-rule="nonzero" fill="rgba(0, 0, 0, 0.6)" stroke="none" transform="matrix(1 0 0 1 1359 845 )" class="fill" />
    <path d="M 0.14047570285710467 5.225047889285712  C -0.026517257142813833 5.37846795357143  -0.02621376857142163 5.626932818571433  0.1411535742857138 5.780009706428575  L 5.1646605428571615 10.374590600000007  L 5.770752085714321 9.819006685714289  L 1.0517149714286071 5.50262761714286  L 5.770752085714321 1.188354372857143  L 5.1646605428571615 0.6327704742857116  L 0.15085782857142604 5.21584190285715  L 0.1411535742857138 5.224426153571435  Z " stroke-width="0" stroke-dasharray="0" stroke="rgba(255, 255, 255, 0)" fill="none" transform="matrix(1 0 0 1 1359 845 )" class="stroke" mask="url(#Clip568)" />
  </g>
</svg>