<?xml version="1.0" encoding="utf-8"?>
<svg version="1.1" xmlns:xlink="http://www.w3.org/1999/xlink" width="455px" height="23px" xmlns="http://www.w3.org/2000/svg">
  <defs>
    <pattern id="BGPattern" patternUnits="userSpaceOnUse" alignment="0 0" imageRepeat="None" />
    <mask fill="white" id="Clip124">
      <path d="M 1.4967105263157894 0  C 1.4967105263157894 0  453.5032894736842 0  453.5032894736842 0  C 453.91659510964917 0  454.2907727412281 0.12067325115625  454.56162346491226 0.31577550137500005  C 454.8324751864035 0.5108777537499999  455 0.7804090037499999  455 1.078125  C 455 1.078125  455 21.921875  455 21.921875  C 455 22.219591025  454.8324751864035 22.489122275  454.56162346491226 22.68422451875  C 454.2907727412281 22.8793267625  453.91659510964917 23  453.5032894736842 23  C 453.5032894736842 23  1.4967105263157894 23  1.4967105263157894 23  C 1.0834053293859718 23  0.7092276978070243 22.8793267625  0.43837636346491365 22.68422451875  C 0.16752503211623493 22.489122275  0 22.219591025  0 21.921875  C 0 21.921875  0 1.078125  0 1.078125  C 0 0.7804090037499999  0.16752503211623493 0.5108777537499999  0.43837636346491365 0.31577550137500005  C 0.7092276978070243 0.12067325115625  1.0834053293859718 0  1.4967105263157894 0  Z " fill-rule="evenodd" />
    </mask>
  </defs>
  <g transform="matrix(1 0 0 1 -682 -496 )">
    <path d="M 1.4967105263157894 0  C 1.4967105263157894 0  453.5032894736842 0  453.5032894736842 0  C 453.91659510964917 0  454.2907727412281 0.12067325115625  454.56162346491226 0.31577550137500005  C 454.8324751864035 0.5108777537499999  455 0.7804090037499999  455 1.078125  C 455 1.078125  455 21.921875  455 21.921875  C 455 22.219591025  454.8324751864035 22.489122275  454.56162346491226 22.68422451875  C 454.2907727412281 22.8793267625  453.91659510964917 23  453.5032894736842 23  C 453.5032894736842 23  1.4967105263157894 23  1.4967105263157894 23  C 1.0834053293859718 23  0.7092276978070243 22.8793267625  0.43837636346491365 22.68422451875  C 0.16752503211623493 22.489122275  0 22.219591025  0 21.921875  C 0 21.921875  0 1.078125  0 1.078125  C 0 0.7804090037499999  0.16752503211623493 0.5108777537499999  0.43837636346491365 0.31577550137500005  C 0.7092276978070243 0.12067325115625  1.0834053293859718 0  1.4967105263157894 0  Z " fill-rule="nonzero" fill="rgba(255, 255, 255, 1)" stroke="none" transform="matrix(1 0 0 1 682 496 )" class="fill" />
    <path d="M 1.4967105263157894 0  C 1.4967105263157894 0  453.5032894736842 0  453.5032894736842 0  C 453.91659510964917 0  454.2907727412281 0.12067325115625  454.56162346491226 0.31577550137500005  C 454.8324751864035 0.5108777537499999  455 0.7804090037499999  455 1.078125  C 455 1.078125  455 21.921875  455 21.921875  C 455 22.219591025  454.8324751864035 22.489122275  454.56162346491226 22.68422451875  C 454.2907727412281 22.8793267625  453.91659510964917 23  453.5032894736842 23  C 453.5032894736842 23  1.4967105263157894 23  1.4967105263157894 23  C 1.0834053293859718 23  0.7092276978070243 22.8793267625  0.43837636346491365 22.68422451875  C 0.16752503211623493 22.489122275  0 22.219591025  0 21.921875  C 0 21.921875  0 1.078125  0 1.078125  C 0 0.7804090037499999  0.16752503211623493 0.5108777537499999  0.43837636346491365 0.31577550137500005  C 0.7092276978070243 0.12067325115625  1.0834053293859718 0  1.4967105263157894 0  Z " stroke-width="2" stroke-dasharray="0" stroke="rgba(221, 221, 221, 1)" fill="none" transform="matrix(1 0 0 1 682 496 )" class="stroke" mask="url(#Clip124)" />
  </g>
</svg>