<?xml version="1.0" encoding="utf-8"?>
<svg version="1.1" xmlns:xlink="http://www.w3.org/1999/xlink" width="455px" height="26px" xmlns="http://www.w3.org/2000/svg">
  <defs>
    <pattern id="BGPattern" patternUnits="userSpaceOnUse" alignment="0 0" imageRepeat="None" />
    <mask fill="white" id="Clip2801">
      <path d="M 1.4967105263157894 0  C 1.4967105263157894 0  453.5032894736842 0  453.5032894736842 0  C 453.91659510964917 0  454.2907727412281 0.13641324043749997  454.56162346491226 0.35696361025  C 454.8324751864035 0.5775139825  455 0.8822014825  455 1.21875  C 455 1.21875  455 24.78125  455 24.78125  C 455 25.11779855  454.8324751864035 25.42248605  454.56162346491226 25.643036412500003  C 454.2907727412281 25.863586774999998  453.91659510964917 26  453.5032894736842 26  C 453.5032894736842 26  1.4967105263157894 26  1.4967105263157894 26  C 1.0834053293859718 26  0.7092276978070243 25.863586774999998  0.43837636346491365 25.643036412500003  C 0.16752503211623493 25.42248605  0 25.11779855  0 24.78125  C 0 24.78125  0 1.21875  0 1.21875  C 0 0.8822014825  0.16752503211623493 0.5775139825  0.43837636346491365 0.35696361025  C 0.7092276978070243 0.13641324043749997  1.0834053293859718 0  1.4967105263157894 0  Z " fill-rule="evenodd" />
    </mask>
  </defs>
  <g transform="matrix(1 0 0 1 -682 -532 )">
    <path d="M 1.4967105263157894 0  C 1.4967105263157894 0  453.5032894736842 0  453.5032894736842 0  C 453.91659510964917 0  454.2907727412281 0.13641324043749997  454.56162346491226 0.35696361025  C 454.8324751864035 0.5775139825  455 0.8822014825  455 1.21875  C 455 1.21875  455 24.78125  455 24.78125  C 455 25.11779855  454.8324751864035 25.42248605  454.56162346491226 25.643036412500003  C 454.2907727412281 25.863586774999998  453.91659510964917 26  453.5032894736842 26  C 453.5032894736842 26  1.4967105263157894 26  1.4967105263157894 26  C 1.0834053293859718 26  0.7092276978070243 25.863586774999998  0.43837636346491365 25.643036412500003  C 0.16752503211623493 25.42248605  0 25.11779855  0 24.78125  C 0 24.78125  0 1.21875  0 1.21875  C 0 0.8822014825  0.16752503211623493 0.5775139825  0.43837636346491365 0.35696361025  C 0.7092276978070243 0.13641324043749997  1.0834053293859718 0  1.4967105263157894 0  Z " fill-rule="nonzero" fill="rgba(255, 255, 255, 1)" stroke="none" transform="matrix(1 0 0 1 682 532 )" class="fill" />
    <path d="M 1.4967105263157894 0  C 1.4967105263157894 0  453.5032894736842 0  453.5032894736842 0  C 453.91659510964917 0  454.2907727412281 0.13641324043749997  454.56162346491226 0.35696361025  C 454.8324751864035 0.5775139825  455 0.8822014825  455 1.21875  C 455 1.21875  455 24.78125  455 24.78125  C 455 25.11779855  454.8324751864035 25.42248605  454.56162346491226 25.643036412500003  C 454.2907727412281 25.863586774999998  453.91659510964917 26  453.5032894736842 26  C 453.5032894736842 26  1.4967105263157894 26  1.4967105263157894 26  C 1.0834053293859718 26  0.7092276978070243 25.863586774999998  0.43837636346491365 25.643036412500003  C 0.16752503211623493 25.42248605  0 25.11779855  0 24.78125  C 0 24.78125  0 1.21875  0 1.21875  C 0 0.8822014825  0.16752503211623493 0.5775139825  0.43837636346491365 0.35696361025  C 0.7092276978070243 0.13641324043749997  1.0834053293859718 0  1.4967105263157894 0  Z " stroke-width="2" stroke-dasharray="0" stroke="rgba(221, 221, 221, 1)" fill="none" transform="matrix(1 0 0 1 682 532 )" class="stroke" mask="url(#Clip2801)" />
  </g>
</svg>