<?xml version="1.0" encoding="utf-8"?>
<svg version="1.1" xmlns:xlink="http://www.w3.org/1999/xlink" width="15px" height="15px" xmlns="http://www.w3.org/2000/svg">
  <defs>
    <pattern id="BGPattern" patternUnits="userSpaceOnUse" alignment="0 0" imageRepeat="None" />
    <mask fill="white" id="Clip860">
      <path d="M 0 1.875  C 0 0.8394660937500031  0.8394660937500031 0  1.875 0  L 13.125 0  C 14.160533906249997 0  15 0.8394660937500031  15 1.875  L 15 13.125  C 15 14.160533906249997  14.160533906249997 15  13.125 15  L 1.875 15  C 0.8394660937500031 15  0 14.160533906249997  0 13.125  L 0 1.875  Z " fill-rule="evenodd" />
    </mask>
  </defs>
  <g transform="matrix(1 0 0 1 -399 -245 )">
    <path d="M 0 1.875  C 0 0.8394660937500031  0.8394660937500031 0  1.875 0  L 13.125 0  C 14.160533906249997 0  15 0.8394660937500031  15 1.875  L 15 13.125  C 15 14.160533906249997  14.160533906249997 15  13.125 15  L 1.875 15  C 0.8394660937500031 15  0 14.160533906249997  0 13.125  L 0 1.875  Z " fill-rule="nonzero" fill="rgba(0, 82, 217, 1)" stroke="none" transform="matrix(1 0 0 1 399 245 )" class="fill" />
    <path d="M 0 1.875  C 0 0.8394660937500031  0.8394660937500031 0  1.875 0  L 13.125 0  C 14.160533906249997 0  15 0.8394660937500031  15 1.875  L 15 13.125  C 15 14.160533906249997  14.160533906249997 15  13.125 15  L 1.875 15  C 0.8394660937500031 15  0 14.160533906249997  0 13.125  L 0 1.875  Z " stroke-width="0" stroke-dasharray="0" stroke="rgba(255, 255, 255, 0)" fill="none" transform="matrix(1 0 0 1 399 245 )" class="stroke" mask="url(#Clip860)" />
  </g>
</svg>