<?xml version="1.0" encoding="utf-8"?>
<svg version="1.1" xmlns:xlink="http://www.w3.org/1999/xlink" width="13px" height="13px" xmlns="http://www.w3.org/2000/svg">
  <defs>
    <pattern id="BGPattern" patternUnits="userSpaceOnUse" alignment="0 0" imageRepeat="None" />
    <mask fill="white" id="Clip2830">
      <path d="M 0 1.625  C 0 0.7275372812500027  0.7275372812500027 0  1.625 0  L 11.375 0  C 12.272462718749997 0  13 0.7275372812500027  13 1.625  L 13 11.375  C 13 12.272462718749997  12.272462718749997 13  11.375 13  L 1.625 13  C 0.7275372812500027 13  0 12.272462718749997  0 11.375  L 0 1.625  Z " fill-rule="evenodd" />
    </mask>
  </defs>
  <g transform="matrix(1 0 0 1 -476 -285 )">
    <path d="M 0 1.625  C 0 0.7275372812500027  0.7275372812500027 0  1.625 0  L 11.375 0  C 12.272462718749997 0  13 0.7275372812500027  13 1.625  L 13 11.375  C 13 12.272462718749997  12.272462718749997 13  11.375 13  L 1.625 13  C 0.7275372812500027 13  0 12.272462718749997  0 11.375  L 0 1.625  Z " fill-rule="nonzero" fill="rgba(0, 82, 217, 1)" stroke="none" transform="matrix(1 0 0 1 476 285 )" class="fill" />
    <path d="M 0 1.625  C 0 0.7275372812500027  0.7275372812500027 0  1.625 0  L 11.375 0  C 12.272462718749997 0  13 0.7275372812500027  13 1.625  L 13 11.375  C 13 12.272462718749997  12.272462718749997 13  11.375 13  L 1.625 13  C 0.7275372812500027 13  0 12.272462718749997  0 11.375  L 0 1.625  Z " stroke-width="0" stroke-dasharray="0" stroke="rgba(255, 255, 255, 0)" fill="none" transform="matrix(1 0 0 1 476 285 )" class="stroke" mask="url(#Clip2830)" />
  </g>
</svg>