<?xml version="1.0" encoding="utf-8"?>
<svg version="1.1" xmlns:xlink="http://www.w3.org/1999/xlink" width="455px" height="133px" xmlns="http://www.w3.org/2000/svg">
  <defs>
    <pattern id="BGPattern" patternUnits="userSpaceOnUse" alignment="0 0" imageRepeat="None" />
    <mask fill="white" id="Clip556">
      <path d="M 1.4967105263157894 0  C 1.4967105263157894 0  453.5032894736842 0  453.5032894736842 0  C 453.91659510964917 0  454.2907727412281 0.6978061914687499  454.56162346491226 1.8260061601250002  C 454.8324751864035 2.95420614125  455 4.512799891249999  455 6.234375  C 455 6.234375  455 126.765625  455 126.765625  C 455 128.487200275  454.8324751864035 130.045794025  454.56162346491226 131.17399395625  C 454.2907727412281 132.30219388749998  453.91659510964917 133  453.5032894736842 133  C 453.5032894736842 133  1.4967105263157894 133  1.4967105263157894 133  C 1.0834053293859718 133  0.7092276978070243 132.30219388749998  0.43837636346491365 131.17399395625  C 0.16752503211623493 130.045794025  0 128.487200275  0 126.765625  C 0 126.765625  0 6.234375  0 6.234375  C 0 4.512799891249999  0.16752503211623493 2.95420614125  0.43837636346491365 1.8260061601250002  C 0.7092276978070243 0.6978061914687499  1.0834053293859718 0  1.4967105263157894 0  Z " fill-rule="evenodd" />
    </mask>
  </defs>
  <g transform="matrix(1 0 0 1 -682 -575 )">
    <path d="M 1.4967105263157894 0  C 1.4967105263157894 0  453.5032894736842 0  453.5032894736842 0  C 453.91659510964917 0  454.2907727412281 0.6978061914687499  454.56162346491226 1.8260061601250002  C 454.8324751864035 2.95420614125  455 4.512799891249999  455 6.234375  C 455 6.234375  455 126.765625  455 126.765625  C 455 128.487200275  454.8324751864035 130.045794025  454.56162346491226 131.17399395625  C 454.2907727412281 132.30219388749998  453.91659510964917 133  453.5032894736842 133  C 453.5032894736842 133  1.4967105263157894 133  1.4967105263157894 133  C 1.0834053293859718 133  0.7092276978070243 132.30219388749998  0.43837636346491365 131.17399395625  C 0.16752503211623493 130.045794025  0 128.487200275  0 126.765625  C 0 126.765625  0 6.234375  0 6.234375  C 0 4.512799891249999  0.16752503211623493 2.95420614125  0.43837636346491365 1.8260061601250002  C 0.7092276978070243 0.6978061914687499  1.0834053293859718 0  1.4967105263157894 0  Z " fill-rule="nonzero" fill="rgba(255, 255, 255, 1)" stroke="none" transform="matrix(1 0 0 1 682 575 )" class="fill" />
    <path d="M 1.4967105263157894 0  C 1.4967105263157894 0  453.5032894736842 0  453.5032894736842 0  C 453.91659510964917 0  454.2907727412281 0.6978061914687499  454.56162346491226 1.8260061601250002  C 454.8324751864035 2.95420614125  455 4.512799891249999  455 6.234375  C 455 6.234375  455 126.765625  455 126.765625  C 455 128.487200275  454.8324751864035 130.045794025  454.56162346491226 131.17399395625  C 454.2907727412281 132.30219388749998  453.91659510964917 133  453.5032894736842 133  C 453.5032894736842 133  1.4967105263157894 133  1.4967105263157894 133  C 1.0834053293859718 133  0.7092276978070243 132.30219388749998  0.43837636346491365 131.17399395625  C 0.16752503211623493 130.045794025  0 128.487200275  0 126.765625  C 0 126.765625  0 6.234375  0 6.234375  C 0 4.512799891249999  0.16752503211623493 2.95420614125  0.43837636346491365 1.8260061601250002  C 0.7092276978070243 0.6978061914687499  1.0834053293859718 0  1.4967105263157894 0  Z " stroke-width="2" stroke-dasharray="0" stroke="rgba(221, 221, 221, 1)" fill="none" transform="matrix(1 0 0 1 682 575 )" class="stroke" mask="url(#Clip556)" />
  </g>
</svg>