<?xml version="1.0" encoding="utf-8"?>
<svg version="1.1" xmlns:xlink="http://www.w3.org/1999/xlink" width="10px" height="10px" xmlns="http://www.w3.org/2000/svg">
  <defs>
    <pattern id="BGPattern" patternUnits="userSpaceOnUse" alignment="0 0" imageRepeat="None" />
    <mask fill="white" id="Clip2815">
      <path d="M 3.75 0  C 1.6789321083333184 0  0 1.5497834846153815  0 3.4615384615384617  C 0 5.373293438461541  1.6789321083333184 6.923076923076923  3.75 6.923076923076923  C 4.483784833333289 6.923076923076923  5.1683449750000445 6.72853176923077  5.746448833333298 6.392270615384615  L 8.922588833333407 9.324092846153846  L 9.511844333333292 8.780164  L 6.40165010833338 5.909215853846152  C 7.080266500000031 5.282800746153844  7.5 4.417416130769229  7.5 3.4615384615384617  C 7.5 1.5497834846153815  5.821067891666681 0  3.75 0  Z M 3.75 0.7692307692307693  C 5.360830625000025 0.7692307692307693  6.666666666666666 1.974617884615384  6.666666666666666 3.4615384615384617  C 6.666666666666666 4.9484590384615394  5.360830625000025 6.153846153846154  3.75 6.153846153846154  C 2.1391693749999754 6.153846153846154  0.8333333333333333 4.9484590384615394  0.8333333333333333 3.4615384615384617  C 0.8333333333333333 1.974617884615384  2.1391693749999754 0.7692307692307693  3.75 0.7692307692307693  Z " fill-rule="evenodd" />
    </mask>
  </defs>
  <g transform="matrix(1 0 0 1 -1709 -185 )">
    <path d="M 3.75 0  C 1.6789321083333184 0  0 1.5497834846153815  0 3.4615384615384617  C 0 5.373293438461541  1.6789321083333184 6.923076923076923  3.75 6.923076923076923  C 4.483784833333289 6.923076923076923  5.1683449750000445 6.72853176923077  5.746448833333298 6.392270615384615  L 8.922588833333407 9.324092846153846  L 9.511844333333292 8.780164  L 6.40165010833338 5.909215853846152  C 7.080266500000031 5.282800746153844  7.5 4.417416130769229  7.5 3.4615384615384617  C 7.5 1.5497834846153815  5.821067891666681 0  3.75 0  Z M 3.75 0.7692307692307693  C 5.360830625000025 0.7692307692307693  6.666666666666666 1.974617884615384  6.666666666666666 3.4615384615384617  C 6.666666666666666 4.9484590384615394  5.360830625000025 6.153846153846154  3.75 6.153846153846154  C 2.1391693749999754 6.153846153846154  0.8333333333333333 4.9484590384615394  0.8333333333333333 3.4615384615384617  C 0.8333333333333333 1.974617884615384  2.1391693749999754 0.7692307692307693  3.75 0.7692307692307693  Z " fill-rule="nonzero" fill="rgba(0, 0, 0, 0.4)" stroke="none" transform="matrix(1 0 0 1 1709 185 )" class="fill" />
    <path d="M 3.75 0  C 1.6789321083333184 0  0 1.5497834846153815  0 3.4615384615384617  C 0 5.373293438461541  1.6789321083333184 6.923076923076923  3.75 6.923076923076923  C 4.483784833333289 6.923076923076923  5.1683449750000445 6.72853176923077  5.746448833333298 6.392270615384615  L 8.922588833333407 9.324092846153846  L 9.511844333333292 8.780164  L 6.40165010833338 5.909215853846152  C 7.080266500000031 5.282800746153844  7.5 4.417416130769229  7.5 3.4615384615384617  C 7.5 1.5497834846153815  5.821067891666681 0  3.75 0  Z " stroke-width="0" stroke-dasharray="0" stroke="rgba(255, 255, 255, 0)" fill="none" transform="matrix(1 0 0 1 1709 185 )" class="stroke" mask="url(#Clip2815)" />
    <path d="M 3.75 0.7692307692307693  C 5.360830625000025 0.7692307692307693  6.666666666666666 1.974617884615384  6.666666666666666 3.4615384615384617  C 6.666666666666666 4.9484590384615394  5.360830625000025 6.153846153846154  3.75 6.153846153846154  C 2.1391693749999754 6.153846153846154  0.8333333333333333 4.9484590384615394  0.8333333333333333 3.4615384615384617  C 0.8333333333333333 1.974617884615384  2.1391693749999754 0.7692307692307693  3.75 0.7692307692307693  Z " stroke-width="0" stroke-dasharray="0" stroke="rgba(255, 255, 255, 0)" fill="none" transform="matrix(1 0 0 1 1709 185 )" class="stroke" mask="url(#Clip2815)" />
  </g>
</svg>