<?xml version="1.0" encoding="utf-8"?>
<svg version="1.1" xmlns:xlink="http://www.w3.org/1999/xlink" width="11px" height="13px" xmlns="http://www.w3.org/2000/svg">
  <defs>
    <pattern id="BGPattern" patternUnits="userSpaceOnUse" alignment="0 0" imageRepeat="None" />
    <mask fill="white" id="Clip845">
      <path d="M 4.125 0  C 1.8468253191666502 0  0 2.014718529999996  0 4.5  C 0 6.985281470000004  1.8468253191666502 9  4.125 9  C 4.9321633166666174 9  5.685179472500049 8.747091300000001  6.321093716666629 8.3099518  L 9.814847716666748 12.121320699999998  L 10.463028766666621 11.414213199999999  L 7.041815119166718 7.6819806099999965  C 7.788293150000034 6.867640969999997  8.25 5.7426409699999965  8.25 4.5  C 8.25 2.014718529999996  6.40317468083335 0  4.125 0  Z M 4.125 1  C 5.896913687500027 1  7.333333333333333 2.567003249999999  7.333333333333333 4.5  C 7.333333333333333 6.432996750000001  5.896913687500027 8  4.125 8  C 2.353086312499973 8  0.9166666666666666 6.432996750000001  0.9166666666666666 4.5  C 0.9166666666666666 2.567003249999999  2.353086312499973 1  4.125 1  Z " fill-rule="evenodd" />
    </mask>
  </defs>
  <g transform="matrix(1 0 0 1 -1845 -148 )">
    <path d="M 4.125 0  C 1.8468253191666502 0  0 2.014718529999996  0 4.5  C 0 6.985281470000004  1.8468253191666502 9  4.125 9  C 4.9321633166666174 9  5.685179472500049 8.747091300000001  6.321093716666629 8.3099518  L 9.814847716666748 12.121320699999998  L 10.463028766666621 11.414213199999999  L 7.041815119166718 7.6819806099999965  C 7.788293150000034 6.867640969999997  8.25 5.7426409699999965  8.25 4.5  C 8.25 2.014718529999996  6.40317468083335 0  4.125 0  Z M 4.125 1  C 5.896913687500027 1  7.333333333333333 2.567003249999999  7.333333333333333 4.5  C 7.333333333333333 6.432996750000001  5.896913687500027 8  4.125 8  C 2.353086312499973 8  0.9166666666666666 6.432996750000001  0.9166666666666666 4.5  C 0.9166666666666666 2.567003249999999  2.353086312499973 1  4.125 1  Z " fill-rule="nonzero" fill="rgba(0, 0, 0, 0.4)" stroke="none" transform="matrix(1 0 0 1 1845 148 )" class="fill" />
    <path d="M 4.125 0  C 1.8468253191666502 0  0 2.014718529999996  0 4.5  C 0 6.985281470000004  1.8468253191666502 9  4.125 9  C 4.9321633166666174 9  5.685179472500049 8.747091300000001  6.321093716666629 8.3099518  L 9.814847716666748 12.121320699999998  L 10.463028766666621 11.414213199999999  L 7.041815119166718 7.6819806099999965  C 7.788293150000034 6.867640969999997  8.25 5.7426409699999965  8.25 4.5  C 8.25 2.014718529999996  6.40317468083335 0  4.125 0  Z " stroke-width="0" stroke-dasharray="0" stroke="rgba(255, 255, 255, 0)" fill="none" transform="matrix(1 0 0 1 1845 148 )" class="stroke" mask="url(#Clip845)" />
    <path d="M 4.125 1  C 5.896913687500027 1  7.333333333333333 2.567003249999999  7.333333333333333 4.5  C 7.333333333333333 6.432996750000001  5.896913687500027 8  4.125 8  C 2.353086312499973 8  0.9166666666666666 6.432996750000001  0.9166666666666666 4.5  C 0.9166666666666666 2.567003249999999  2.353086312499973 1  4.125 1  Z " stroke-width="0" stroke-dasharray="0" stroke="rgba(255, 255, 255, 0)" fill="none" transform="matrix(1 0 0 1 1845 148 )" class="stroke" mask="url(#Clip845)" />
  </g>
</svg>