<?xml version="1.0" encoding="utf-8"?>
<svg version="1.1" xmlns:xlink="http://www.w3.org/1999/xlink" width="7px" height="6px" xmlns="http://www.w3.org/2000/svg">
  <defs>
    <pattern id="BGPattern" patternUnits="userSpaceOnUse" alignment="0 0" imageRepeat="None" />
    <mask fill="white" id="Clip2839">
      <path d="M 3.5 0.1875  C 5.311249999999944 0.1875  6.78125 1.446674999999999  6.78125 3  C 6.78125 4.553325000000001  5.311249999999944 5.8125  3.5 5.8125  C 1.6887500000000557 5.8125  0.21875 4.553325000000001  0.21875 3  C 0.21875 1.446674999999999  1.6887500000000557 0.1875  3.5 0.1875  Z M 3.5 4.875  C 4.7075000000000955 4.875  5.6875 4.035524999999998  5.6875 3  C 5.6875 1.9644749999999993  4.7075000000000955 1.125  3.5 1.125  C 2.2924999999999045 1.125  1.3125 1.9644749999999993  1.3125 3  C 1.3125 4.035524999999998  2.2924999999999045 4.875  3.5 4.875  Z " fill-rule="evenodd" />
    </mask>
  </defs>
  <g transform="matrix(1 0 0 1 -1813 -30 )">
    <path d="M 3.5 0.1875  C 5.311249999999944 0.1875  6.78125 1.446674999999999  6.78125 3  C 6.78125 4.553325000000001  5.311249999999944 5.8125  3.5 5.8125  C 1.6887500000000557 5.8125  0.21875 4.553325000000001  0.21875 3  C 0.21875 1.446674999999999  1.6887500000000557 0.1875  3.5 0.1875  Z M 3.5 4.875  C 4.7075000000000955 4.875  5.6875 4.035524999999998  5.6875 3  C 5.6875 1.9644749999999993  4.7075000000000955 1.125  3.5 1.125  C 2.2924999999999045 1.125  1.3125 1.9644749999999993  1.3125 3  C 1.3125 4.035524999999998  2.2924999999999045 4.875  3.5 4.875  Z " fill-rule="nonzero" fill="rgba(0, 0, 0, 0.8980392156862745)" stroke="none" transform="matrix(1 0 0 1 1813 30 )" class="fill" />
    <path d="M 3.5 0.1875  C 5.311249999999944 0.1875  6.78125 1.446674999999999  6.78125 3  C 6.78125 4.553325000000001  5.311249999999944 5.8125  3.5 5.8125  C 1.6887500000000557 5.8125  0.21875 4.553325000000001  0.21875 3  C 0.21875 1.446674999999999  1.6887500000000557 0.1875  3.5 0.1875  Z " stroke-width="0" stroke-dasharray="0" stroke="rgba(255, 255, 255, 0)" fill="none" transform="matrix(1 0 0 1 1813 30 )" class="stroke" mask="url(#Clip2839)" />
    <path d="M 3.5 4.875  C 4.7075000000000955 4.875  5.6875 4.035524999999998  5.6875 3  C 5.6875 1.9644749999999993  4.7075000000000955 1.125  3.5 1.125  C 2.2924999999999045 1.125  1.3125 1.9644749999999993  1.3125 3  C 1.3125 4.035524999999998  2.2924999999999045 4.875  3.5 4.875  Z " stroke-width="0" stroke-dasharray="0" stroke="rgba(255, 255, 255, 0)" fill="none" transform="matrix(1 0 0 1 1813 30 )" class="stroke" mask="url(#Clip2839)" />
  </g>
</svg>