<?xml version="1.0" encoding="utf-8"?>
<svg version="1.1" xmlns:xlink="http://www.w3.org/1999/xlink" width="16px" height="14px" xmlns="http://www.w3.org/2000/svg">
  <defs>
    <pattern id="BGPattern" patternUnits="userSpaceOnUse" alignment="0 0" imageRepeat="None" />
    <mask fill="white" id="Clip2841">
      <path d="M 0.33777777777787477 7.097222222222221  L 0.33777777777787477 6.902777777777779  C 0.33777777777787477 3.197911111111111  3.768888888888897 0.19452222222222204  8 0.19444444444444442  C 12.231111111111103 0.19444444444444442  15.671111111111209 3.1978333333333326  15.671111111111209 6.902777777777779  L 15.671111111111209 7.097222222222221  C 15.671111111111209 10.802166666666668  12.231111111111103 13.805555555555557  8 13.805555555555557  C 3.768888888888897 13.805477777777774  0.33777777777787477 10.802088888888886  0.33777777777787477 7.097222222222221  Z M 9.031111111111183 12.7624  C 12.017777777777761 12.348388888888888  14.337777777777875 10.169988888888888  14.542222222222133 7.486111111111111  L 11.2088888888888 7.486111111111111  C 11.102222222222231 9.351766666666666  10.373333333333399 11.195411111111113  9.031111111111183 12.7624  Z M 9.031111111111183 1.2376000000000005  C 10.373333333333399 2.8045888888888877  11.102222222222231 4.648233333333332  11.2088888888888 6.513888888888889  L 14.542222222222133 6.513888888888889  C 14.337777777777875 3.8300111111111104  12.017777777777761 1.651611111111111  9.031111111111183 1.2376000000000005  Z M 5.902222222222311 6.513888888888889  L 10.097777777777688 6.513888888888889  C 9.982222222222239 4.787922222222221  9.288888888888929 3.0853666666666655  8 1.6557333333333322  C 6.71111111111107 3.0853666666666655  6.017777777777762 4.787922222222221  5.902222222222311 6.513888888888889  Z M 6.9688888888888165 12.762322222222224  C 5.626666666666602 11.19533333333333  4.89777777777777 9.351766666666666  4.7911111111112 7.486111111111111  L 1.4577777777778667 7.486111111111111  C 1.6622222222221252 10.169911111111112  3.9822222222222385 12.348233333333333  6.9688888888888165 12.762322222222224  Z M 1.4577777777778667 6.513888888888889  L 4.7911111111112 6.513888888888889  C 4.89777777777777 4.648233333333332  5.626666666666602 2.8046666666666678  6.9688888888888165 1.2376777777777779  C 3.9822222222222385 1.6517666666666662  1.6622222222221252 3.8300888888888878  1.4577777777778667 6.513888888888889  Z M 8 12.34426666666667  C 9.288888888888929 10.914633333333331  9.982222222222239 9.212077777777775  10.097777777777688 7.486111111111111  L 5.902222222222311 7.486111111111111  C 6.017777777777762 9.212077777777775  6.71111111111107 10.914633333333331  8 12.34426666666667  Z " fill-rule="evenodd" />
    </mask>
  </defs>
  <g transform="matrix(1 0 0 1 -1640 -27 )">
    <path d="M 0.33777777777787477 7.097222222222221  L 0.33777777777787477 6.902777777777779  C 0.33777777777787477 3.197911111111111  3.768888888888897 0.19452222222222204  8 0.19444444444444442  C 12.231111111111103 0.19444444444444442  15.671111111111209 3.1978333333333326  15.671111111111209 6.902777777777779  L 15.671111111111209 7.097222222222221  C 15.671111111111209 10.802166666666668  12.231111111111103 13.805555555555557  8 13.805555555555557  C 3.768888888888897 13.805477777777774  0.33777777777787477 10.802088888888886  0.33777777777787477 7.097222222222221  Z M 9.031111111111183 12.7624  C 12.017777777777761 12.348388888888888  14.337777777777875 10.169988888888888  14.542222222222133 7.486111111111111  L 11.2088888888888 7.486111111111111  C 11.102222222222231 9.351766666666666  10.373333333333399 11.195411111111113  9.031111111111183 12.7624  Z M 9.031111111111183 1.2376000000000005  C 10.373333333333399 2.8045888888888877  11.102222222222231 4.648233333333332  11.2088888888888 6.513888888888889  L 14.542222222222133 6.513888888888889  C 14.337777777777875 3.8300111111111104  12.017777777777761 1.651611111111111  9.031111111111183 1.2376000000000005  Z M 5.902222222222311 6.513888888888889  L 10.097777777777688 6.513888888888889  C 9.982222222222239 4.787922222222221  9.288888888888929 3.0853666666666655  8 1.6557333333333322  C 6.71111111111107 3.0853666666666655  6.017777777777762 4.787922222222221  5.902222222222311 6.513888888888889  Z M 6.9688888888888165 12.762322222222224  C 5.626666666666602 11.19533333333333  4.89777777777777 9.351766666666666  4.7911111111112 7.486111111111111  L 1.4577777777778667 7.486111111111111  C 1.6622222222221252 10.169911111111112  3.9822222222222385 12.348233333333333  6.9688888888888165 12.762322222222224  Z M 1.4577777777778667 6.513888888888889  L 4.7911111111112 6.513888888888889  C 4.89777777777777 4.648233333333332  5.626666666666602 2.8046666666666678  6.9688888888888165 1.2376777777777779  C 3.9822222222222385 1.6517666666666662  1.6622222222221252 3.8300888888888878  1.4577777777778667 6.513888888888889  Z M 8 12.34426666666667  C 9.288888888888929 10.914633333333331  9.982222222222239 9.212077777777775  10.097777777777688 7.486111111111111  L 5.902222222222311 7.486111111111111  C 6.017777777777762 9.212077777777775  6.71111111111107 10.914633333333331  8 12.34426666666667  Z " fill-rule="nonzero" fill="rgba(0, 0, 0, 0.8980392156862745)" stroke="none" transform="matrix(1 0 0 1 1640 27 )" class="fill" />
    <path d="M 0.33777777777787477 7.097222222222221  L 0.33777777777787477 6.902777777777779  C 0.33777777777787477 3.197911111111111  3.768888888888897 0.19452222222222204  8 0.19444444444444442  C 12.231111111111103 0.19444444444444442  15.671111111111209 3.1978333333333326  15.671111111111209 6.902777777777779  L 15.671111111111209 7.097222222222221  C 15.671111111111209 10.802166666666668  12.231111111111103 13.805555555555557  8 13.805555555555557  C 3.768888888888897 13.805477777777774  0.33777777777787477 10.802088888888886  0.33777777777787477 7.097222222222221  Z " stroke-width="0" stroke-dasharray="0" stroke="rgba(255, 255, 255, 0)" fill="none" transform="matrix(1 0 0 1 1640 27 )" class="stroke" mask="url(#Clip2841)" />
    <path d="M 9.031111111111183 12.7624  C 12.017777777777761 12.348388888888888  14.337777777777875 10.169988888888888  14.542222222222133 7.486111111111111  L 11.2088888888888 7.486111111111111  C 11.102222222222231 9.351766666666666  10.373333333333399 11.195411111111113  9.031111111111183 12.7624  Z " stroke-width="0" stroke-dasharray="0" stroke="rgba(255, 255, 255, 0)" fill="none" transform="matrix(1 0 0 1 1640 27 )" class="stroke" mask="url(#Clip2841)" />
    <path d="M 9.031111111111183 1.2376000000000005  C 10.373333333333399 2.8045888888888877  11.102222222222231 4.648233333333332  11.2088888888888 6.513888888888889  L 14.542222222222133 6.513888888888889  C 14.337777777777875 3.8300111111111104  12.017777777777761 1.651611111111111  9.031111111111183 1.2376000000000005  Z " stroke-width="0" stroke-dasharray="0" stroke="rgba(255, 255, 255, 0)" fill="none" transform="matrix(1 0 0 1 1640 27 )" class="stroke" mask="url(#Clip2841)" />
    <path d="M 5.902222222222311 6.513888888888889  L 10.097777777777688 6.513888888888889  C 9.982222222222239 4.787922222222221  9.288888888888929 3.0853666666666655  8 1.6557333333333322  C 6.71111111111107 3.0853666666666655  6.017777777777762 4.787922222222221  5.902222222222311 6.513888888888889  Z " stroke-width="0" stroke-dasharray="0" stroke="rgba(255, 255, 255, 0)" fill="none" transform="matrix(1 0 0 1 1640 27 )" class="stroke" mask="url(#Clip2841)" />
    <path d="M 6.9688888888888165 12.762322222222224  C 5.626666666666602 11.19533333333333  4.89777777777777 9.351766666666666  4.7911111111112 7.486111111111111  L 1.4577777777778667 7.486111111111111  C 1.6622222222221252 10.169911111111112  3.9822222222222385 12.348233333333333  6.9688888888888165 12.762322222222224  Z " stroke-width="0" stroke-dasharray="0" stroke="rgba(255, 255, 255, 0)" fill="none" transform="matrix(1 0 0 1 1640 27 )" class="stroke" mask="url(#Clip2841)" />
    <path d="M 1.4577777777778667 6.513888888888889  L 4.7911111111112 6.513888888888889  C 4.89777777777777 4.648233333333332  5.626666666666602 2.8046666666666678  6.9688888888888165 1.2376777777777779  C 3.9822222222222385 1.6517666666666662  1.6622222222221252 3.8300888888888878  1.4577777777778667 6.513888888888889  Z " stroke-width="0" stroke-dasharray="0" stroke="rgba(255, 255, 255, 0)" fill="none" transform="matrix(1 0 0 1 1640 27 )" class="stroke" mask="url(#Clip2841)" />
    <path d="M 8 12.34426666666667  C 9.288888888888929 10.914633333333331  9.982222222222239 9.212077777777775  10.097777777777688 7.486111111111111  L 5.902222222222311 7.486111111111111  C 6.017777777777762 9.212077777777775  6.71111111111107 10.914633333333331  8 12.34426666666667  Z " stroke-width="0" stroke-dasharray="0" stroke="rgba(255, 255, 255, 0)" fill="none" transform="matrix(1 0 0 1 1640 27 )" class="stroke" mask="url(#Clip2841)" />
  </g>
</svg>