<?xml version="1.0" encoding="utf-8"?>
<svg version="1.1" xmlns:xlink="http://www.w3.org/1999/xlink" width="16px" height="14px" xmlns="http://www.w3.org/2000/svg">
  <defs>
    <pattern id="BGPattern" patternUnits="userSpaceOnUse" alignment="0 0" imageRepeat="None" />
    <mask fill="white" id="Clip2844">
      <path d="M 8 13.805555555555557  C 12.293333333333269 13.805555555555557  15.777777777777779 10.758611111111115  15.777777777777779 7  C 15.777777777777779 3.2413888888888893  12.293333333333269 0.19444444444444442  8 0.19444444444444442  C 3.7066666666667314 0.19444444444444442  0.2222222222222222 3.2413888888888893  0.2222222222222222 7  C 0.2222222222222222 10.758611111111115  3.7066666666667314 13.805555555555557  8 13.805555555555557  Z M 8 1.1666666666666665  C 11.680000000000089 1.1666666666666665  14.666666666666666 3.778366666666667  14.666666666666666 7  C 14.666666666666666 10.221633333333333  11.680000000000089 12.833333333333332  8 12.833333333333332  C 4.3199999999999115 12.833333333333332  1.3333333333333333 10.221633333333333  1.3333333333333333 7  C 1.3333333333333333 3.778366666666667  4.3199999999999115 1.1666666666666665  8 1.1666666666666665  Z " fill-rule="evenodd" />
    </mask>
  </defs>
  <g transform="matrix(1 0 0 1 -1767 -27 )">
    <path d="M 8 13.805555555555557  C 12.293333333333269 13.805555555555557  15.777777777777779 10.758611111111115  15.777777777777779 7  C 15.777777777777779 3.2413888888888893  12.293333333333269 0.19444444444444442  8 0.19444444444444442  C 3.7066666666667314 0.19444444444444442  0.2222222222222222 3.2413888888888893  0.2222222222222222 7  C 0.2222222222222222 10.758611111111115  3.7066666666667314 13.805555555555557  8 13.805555555555557  Z M 8 1.1666666666666665  C 11.680000000000089 1.1666666666666665  14.666666666666666 3.778366666666667  14.666666666666666 7  C 14.666666666666666 10.221633333333333  11.680000000000089 12.833333333333332  8 12.833333333333332  C 4.3199999999999115 12.833333333333332  1.3333333333333333 10.221633333333333  1.3333333333333333 7  C 1.3333333333333333 3.778366666666667  4.3199999999999115 1.1666666666666665  8 1.1666666666666665  Z " fill-rule="nonzero" fill="rgba(0, 0, 0, 0.8980392156862745)" stroke="none" transform="matrix(1 0 0 1 1767 27 )" class="fill" />
    <path d="M 8 13.805555555555557  C 12.293333333333269 13.805555555555557  15.777777777777779 10.758611111111115  15.777777777777779 7  C 15.777777777777779 3.2413888888888893  12.293333333333269 0.19444444444444442  8 0.19444444444444442  C 3.7066666666667314 0.19444444444444442  0.2222222222222222 3.2413888888888893  0.2222222222222222 7  C 0.2222222222222222 10.758611111111115  3.7066666666667314 13.805555555555557  8 13.805555555555557  Z " stroke-width="0" stroke-dasharray="0" stroke="rgba(255, 255, 255, 0)" fill="none" transform="matrix(1 0 0 1 1767 27 )" class="stroke" mask="url(#Clip2844)" />
    <path d="M 8 1.1666666666666665  C 11.680000000000089 1.1666666666666665  14.666666666666666 3.778366666666667  14.666666666666666 7  C 14.666666666666666 10.221633333333333  11.680000000000089 12.833333333333332  8 12.833333333333332  C 4.3199999999999115 12.833333333333332  1.3333333333333333 10.221633333333333  1.3333333333333333 7  C 1.3333333333333333 3.778366666666667  4.3199999999999115 1.1666666666666665  8 1.1666666666666665  Z " stroke-width="0" stroke-dasharray="0" stroke="rgba(255, 255, 255, 0)" fill="none" transform="matrix(1 0 0 1 1767 27 )" class="stroke" mask="url(#Clip2844)" />
  </g>
</svg>