<?xml version="1.0" encoding="utf-8"?>
<svg version="1.1" xmlns:xlink="http://www.w3.org/1999/xlink" width="7px" height="6px" xmlns="http://www.w3.org/2000/svg">
  <defs>
    <pattern id="BGPattern" patternUnits="userSpaceOnUse" alignment="0 0" imageRepeat="None" />
    <mask fill="white" id="Clip2843">
      <path d="M 6.151249999999976 2.2791750000000013  C 6.151249999999976 1.025100000000001  4.961250000000064 0.005700000000000038  3.5 0.005700000000000038  C 2.0387499999999363 0.005700000000000038  0.8487500000000239 1.025100000000001  0.8487500000000239 2.2791750000000013  L 1.9425000000000239 2.2791750000000013  C 1.9425000000000239 1.5429000000000013  2.642499999999984 0.9432  3.5 0.9432  C 4.357500000000016 0.9432  5.057499999999976 1.5429000000000013  5.057499999999976 2.2791750000000013  C 5.057499999999976 2.7833249999999987  4.576250000000016 3.288825000000001  3.9375 3.5097750000000003  C 3.3599999999999284 3.71565  2.9487499999999045 4.203900000000003  2.9487499999999045 4.7742  L 2.9487499999999045 5.625  L 4.0424999999999045 5.625  L 4.0424999999999045 4.7742  C 4.0424999999999045 4.5920999999999985  4.173749999999984 4.4411999999999985  4.348750000000024 4.3777500000000025  C 5.258749999999992 4.062075  6.151249999999976 3.28005  6.151249999999976 2.2791750000000013  Z " fill-rule="evenodd" />
    </mask>
  </defs>
  <g transform="matrix(1 0 0 1 -1770 -30 )">
    <path d="M 6.151249999999976 2.2791750000000013  C 6.151249999999976 1.025100000000001  4.961250000000064 0.005700000000000038  3.5 0.005700000000000038  C 2.0387499999999363 0.005700000000000038  0.8487500000000239 1.025100000000001  0.8487500000000239 2.2791750000000013  L 1.9425000000000239 2.2791750000000013  C 1.9425000000000239 1.5429000000000013  2.642499999999984 0.9432  3.5 0.9432  C 4.357500000000016 0.9432  5.057499999999976 1.5429000000000013  5.057499999999976 2.2791750000000013  C 5.057499999999976 2.7833249999999987  4.576250000000016 3.288825000000001  3.9375 3.5097750000000003  C 3.3599999999999284 3.71565  2.9487499999999045 4.203900000000003  2.9487499999999045 4.7742  L 2.9487499999999045 5.625  L 4.0424999999999045 5.625  L 4.0424999999999045 4.7742  C 4.0424999999999045 4.5920999999999985  4.173749999999984 4.4411999999999985  4.348750000000024 4.3777500000000025  C 5.258749999999992 4.062075  6.151249999999976 3.28005  6.151249999999976 2.2791750000000013  Z " fill-rule="nonzero" fill="rgba(0, 0, 0, 0.8980392156862745)" stroke="none" transform="matrix(1 0 0 1 1770 30 )" class="fill" />
    <path d="M 6.151249999999976 2.2791750000000013  C 6.151249999999976 1.025100000000001  4.961250000000064 0.005700000000000038  3.5 0.005700000000000038  C 2.0387499999999363 0.005700000000000038  0.8487500000000239 1.025100000000001  0.8487500000000239 2.2791750000000013  L 1.9425000000000239 2.2791750000000013  C 1.9425000000000239 1.5429000000000013  2.642499999999984 0.9432  3.5 0.9432  C 4.357500000000016 0.9432  5.057499999999976 1.5429000000000013  5.057499999999976 2.2791750000000013  C 5.057499999999976 2.7833249999999987  4.576250000000016 3.288825000000001  3.9375 3.5097750000000003  C 3.3599999999999284 3.71565  2.9487499999999045 4.203900000000003  2.9487499999999045 4.7742  L 2.9487499999999045 5.625  L 4.0424999999999045 5.625  L 4.0424999999999045 4.7742  C 4.0424999999999045 4.5920999999999985  4.173749999999984 4.4411999999999985  4.348750000000024 4.3777500000000025  C 5.258749999999992 4.062075  6.151249999999976 3.28005  6.151249999999976 2.2791750000000013  Z " stroke-width="0" stroke-dasharray="0" stroke="rgba(255, 255, 255, 0)" fill="none" transform="matrix(1 0 0 1 1770 30 )" class="stroke" mask="url(#Clip2843)" />
  </g>
</svg>