<?xml version="1.0" encoding="utf-8"?>
<svg version="1.1" xmlns:xlink="http://www.w3.org/1999/xlink" width="93px" height="14px" xmlns="http://www.w3.org/2000/svg">
  <defs>
    <pattern id="BGPattern" patternUnits="userSpaceOnUse" alignment="0 0" imageRepeat="None" />
    <mask fill="white" id="Clip2852">
      <path d="M 3.9325714285714337 4.454000000000001  L 3.0424285714285877 4.454000000000001  L 3.0424285714285877 6.539999999999999  L 1.7271428571428507 6.539999999999999  C 2.0592857142857293 5.643999999999998  2.3648571428571605 4.622  2.657142857142868 3.474  L 5.221285714285723 3.474  L 5.221285714285723 2.5219999999999985  L 2.88300000000001 2.5219999999999985  C 3.0025714285714162 1.9619999999999997  3.1221428571428764 1.3599999999999994  3.2417142857142824 0.7300000000000004  L 2.3648571428571605 0.5199999999999996  C 2.2452857142857003 1.2199999999999989  2.1257142857142943 1.8780000000000001  1.9928571428571644 2.5219999999999985  L 0.6775714285714273 2.5219999999999985  L 0.6775714285714273 3.474  L 1.780285714285692 3.474  C 1.4747142857142606 4.719999999999999  1.142571428571436 5.77  0.7705714285714398 6.609999999999999  L 0.9698571428571348 7.450000000000003  L 3.0424285714285877 7.450000000000003  L 3.0424285714285877 9.536000000000001  C 2.271857142857148 9.689999999999998  1.4481428571428672 9.829999999999998  0.571285714285691 9.942  L 0.690857142857151 10.921999999999997  C 1.5012857142857081 10.796  2.285142857142872 10.655999999999999  3.0424285714285877 10.502000000000002  L 3.0424285714285877 13.399999999999999  L 3.9325714285714337 13.399999999999999  L 3.9325714285714337 10.292000000000002  L 5.194714285714276 9.956000000000003  L 5.194714285714276 9.003999999999998  C 4.796142857142832 9.116  4.384285714285719 9.228000000000002  3.9325714285714337 9.340000000000003  L 3.9325714285714337 7.450000000000003  L 5.154857142857159 7.450000000000003  L 5.154857142857159 6.539999999999999  L 3.9325714285714337 6.539999999999999  L 3.9325714285714337 4.454000000000001  Z M 5.433857142857142 5.111999999999998  C 5.951999999999992 4.692  6.4568571428571175 4.23  6.961714285714297 3.7399999999999984  L 6.961714285714297 4.565999999999999  L 10.774714285714271 4.565999999999999  L 10.774714285714271 3.725999999999999  L 6.975000000000022 3.725999999999999  C 7.639285714285725 3.0539999999999985  8.276999999999981 2.312000000000001  8.914714285714291 1.5  C 9.924428571428596 2.872  11.053714285714308 4.033999999999999  12.302571428571428 4.986000000000001  L 12.807428571428552 4.187999999999999  C 11.598428571428553 3.2920000000000016  10.415999999999999 2.1020000000000003  9.260142857142839 0.5899999999999999  L 8.569285714285687 0.5899999999999999  C 7.493142857142871 1.9899999999999987  6.270857142857147 3.2220000000000013  4.915714285714293 4.2719999999999985  L 5.433857142857142 5.111999999999998  Z M 7.254000000000005 13.302  L 7.891714285714261 13.302  C 8.542714285714295 13.302  8.87485714285712 12.938000000000002  8.87485714285712 12.223999999999997  L 8.87485714285712 5.686  L 5.739428571428573 5.686  L 5.739428571428573 13.399999999999999  L 6.576428571428578 13.399999999999999  L 6.576428571428578 10.781999999999996  L 8.064428571428563 10.781999999999996  L 8.064428571428563 12.042000000000002  C 8.064428571428563 12.350000000000001  7.918285714285708 12.503999999999998  7.626000000000001 12.503999999999998  L 7.041428571428586 12.475999999999999  L 7.254000000000005 13.302  Z M 8.064428571428563 9.997999999999998  L 6.576428571428578 9.997999999999998  L 6.576428571428578 8.668  L 8.064428571428563 8.668  L 8.064428571428563 9.997999999999998  Z M 8.064428571428563 7.884  L 6.576428571428578 7.884  L 6.576428571428578 6.498000000000001  L 8.064428571428563 6.498000000000001  L 8.064428571428563 7.884  Z M 10.415999999999999 6.077999999999999  L 9.672000000000008 6.077999999999999  L 9.672000000000008 11.104  L 10.415999999999999 11.104  L 10.415999999999999 6.077999999999999  Z M 9.990857142857163 13.329999999999998  L 11.120142857142875 13.329999999999998  C 11.757857142857128 13.329999999999998  12.090000000000009 12.924  12.090000000000009 12.125999999999998  L 12.090000000000009 5.448  L 11.253000000000004 5.448  L 11.253000000000004 11.902000000000001  C 11.253000000000004 12.293999999999997  11.10685714285715 12.503999999999998  10.827857142857168 12.503999999999998  C 10.495714285714287 12.503999999999998  10.15028571428574 12.475999999999999  9.791571428571414 12.448  L 9.990857142857163 13.329999999999998  Z M 17.151857142857153 1.0940000000000012  C 18.002142857142882 1.7379999999999995  18.73285714285715 2.6340000000000003  19.344000000000015 3.809999999999999  C 18.493714285714283 7.533999999999999  16.646999999999974 10.39  13.803857142857137 12.350000000000001  L 14.375142857142881 13.204  C 17.16514285714288 11.299999999999997  18.99857142857141 8.555999999999997  19.875428571428586 4.986000000000001  C 19.941857142857152 5.154  20.008285714285716 5.350000000000001  20.088000000000005 5.574000000000002  C 21.456428571428585 9.270000000000003  23.21014285714288 11.817999999999998  25.36242857142857 13.189999999999998  L 25.960285714285707 12.378  C 23.861142857142863 10.991999999999997  22.200428571428578 8.625999999999998  20.951571428571405 5.280000000000001  C 20.127857142857124 3.0120000000000005  19.131428571428593 1.4299999999999997  17.948999999999987 0.5620000000000012  L 17.151857142857153 1.0940000000000012  Z M 39.08657142857142 1.1219999999999999  L 27.34200000000001 1.1219999999999999  L 27.34200000000001 2.032  L 31.261285714285723 2.032  L 31.261285714285723 3.2779999999999987  L 28.165714285714294 3.2779999999999987  L 28.165714285714294 6.806000000000001  L 31.659857142857167 6.806000000000001  C 31.447285714285695 7.1979999999999995  31.221428571428547 7.618000000000002  30.982285714285737 8.052  L 27.16928571428571 8.052  L 27.16928571428571 8.975999999999999  L 30.450857142857167 8.975999999999999  C 30.158571428571403 9.451999999999998  29.866285714285695 9.942  29.547428571428593 10.432000000000002  C 30.650142857142857 10.698  31.75285714285712 11.006  32.855571428571444 11.356000000000002  C 31.659857142857167 11.845999999999997  29.866285714285695 12.238  27.501428571428587 12.531999999999996  L 27.86014285714286 13.427999999999997  C 30.729857142857146 13.021999999999998  32.80242857142854 12.462000000000003  34.06457142857144 11.747999999999998  C 35.539285714285704 12.252000000000002  37.01400000000002 12.826  38.47542857142855 13.484000000000002  L 39.073285714285696 12.658000000000001  C 37.665 12.07  36.2832857142857 11.566000000000003  34.92814285714284 11.131999999999998  C 35.632285714285715 10.530000000000001  36.12385714285712 9.816000000000003  36.389571428571436 8.975999999999999  L 39.245999999999995 8.975999999999999  L 39.245999999999995 8.052  L 32.05842857142856 8.052  C 32.27099999999997 7.659999999999997  32.496857142857166 7.253999999999998  32.73599999999998 6.806000000000001  L 38.262857142857136 6.806000000000001  L 38.262857142857136 3.2779999999999987  L 35.167285714285704 3.2779999999999987  L 35.167285714285704 2.032  L 39.08657142857142 2.032  L 39.08657142857142 1.1219999999999999  Z M 35.4197142857143 8.975999999999999  C 35.15399999999998 9.704  34.649142857142856 10.32  33.90514285714286 10.810000000000002  C 32.88214285714283 10.502000000000002  31.885714285714307 10.235999999999997  30.90257142857145 10.012  C 31.101857142857146 9.704  31.314428571428564 9.354  31.5402857142857 8.975999999999999  L 35.4197142857143 8.975999999999999  Z M 34.25057142857141 2.032  L 34.25057142857141 3.2779999999999987  L 32.17800000000001 3.2779999999999987  L 32.17800000000001 2.032  L 34.25057142857141 2.032  Z M 37.346142857142844 4.16  L 37.346142857142844 5.937999999999999  L 35.167285714285704 5.937999999999999  L 35.167285714285704 4.16  L 37.346142857142844 4.16  Z M 34.25057142857141 4.16  L 34.25057142857141 5.937999999999999  L 32.17800000000001 5.937999999999999  L 32.17800000000001 4.16  L 34.25057142857141 4.16  Z M 31.261285714285723 4.16  L 31.261285714285723 5.937999999999999  L 29.082428571428586 5.937999999999999  L 29.082428571428586 4.16  L 31.261285714285723 4.16  Z M 45.87557142857141 5.8679999999999986  L 45.87557142857141 4.481999999999999  L 47.32371428571428 4.481999999999999  L 47.32371428571428 3.6419999999999995  L 45.87557142857141 3.6419999999999995  L 45.87557142857141 2.2979999999999983  C 46.51328571428572 2.0459999999999994  47.07128571428569 1.7940000000000005  47.52299999999998 1.5420000000000016  L 46.97828571428573 0.8000000000000007  C 46.353857142857144 1.1920000000000002  45.68957142857144 1.4860000000000007  44.99871428571429 1.6819999999999986  L 44.99871428571429 6.736000000000001  L 48.04114285714288 6.736000000000001  L 48.04114285714288 7.9680000000000035  L 44.919000000000004 7.9680000000000035  L 44.919000000000004 8.878  L 45.477000000000025 8.878  C 45.98185714285715 9.857999999999997  46.69928571428569 10.712000000000003  47.65585714285716 11.426000000000002  C 46.65942857142858 11.874000000000002  45.463714285714296 12.238  44.082 12.518  L 44.56028571428573 13.414000000000001  C 46.11471428571428 13.049999999999997  47.44328571428574 12.573999999999998  48.559285714285735 12.014000000000003  C 49.5822857142857 12.601999999999997  50.81785714285716 13.064  52.26600000000003 13.386000000000003  L 52.611428571428576 12.448  C 51.44228571428574 12.195999999999998  50.419285714285714 11.86  49.54242857142859 11.439999999999998  C 50.63185714285713 10.712000000000003  51.429000000000016 9.844000000000001  51.9072857142857 8.822000000000003  L 51.9072857142857 7.9680000000000035  L 48.93128571428572 7.9680000000000035  L 48.93128571428572 6.736000000000001  L 51.94714285714287 6.736000000000001  L 51.94714285714287 1.248000000000001  L 49.622142857142876 1.248000000000001  L 49.622142857142876 2.1159999999999997  L 51.08357142857142 2.1159999999999997  L 51.08357142857142 3.6419999999999995  L 49.68857142857144 3.6419999999999995  L 49.68857142857144 4.481999999999999  L 51.08357142857142 4.481999999999999  L 51.08357142857142 5.8679999999999986  L 48.93128571428572 5.8679999999999986  L 48.93128571428572 0.6179999999999986  L 48.04114285714288 0.6179999999999986  L 48.04114285714288 5.8679999999999986  L 45.87557142857141 5.8679999999999986  Z M 48.612428571428566 10.936  C 47.69571428571428 10.362000000000002  46.97828571428573 9.676000000000002  46.460142857142884 8.878  L 50.870999999999995 8.878  C 50.36614285714287 9.661999999999999  49.608857142857154 10.347999999999999  48.612428571428566 10.936  Z M 40.8004285714286 13.274000000000001  L 42.049285714285716 13.274000000000001  C 42.76671428571426 13.274000000000001  43.138714285714315 12.868000000000002  43.138714285714315 12.07  L 43.138714285714315 8.009999999999998  C 43.590428571428596 7.786000000000001  44.04214285714288 7.561999999999997  44.480571428571444 7.323999999999998  L 44.480571428571444 6.344000000000001  C 44.04214285714288 6.596  43.590428571428596 6.834  43.138714285714315 7.043999999999997  L 43.138714285714315 4.216000000000001  L 44.374285714285705 4.216000000000001  L 44.374285714285705 3.25  L 43.138714285714315 3.25  L 43.138714285714315 0.6320000000000014  L 42.208714285714294 0.6320000000000014  L 42.208714285714294 3.25  L 40.73399999999998 3.25  L 40.73399999999998 4.216000000000001  L 42.208714285714294 4.216000000000001  L 42.208714285714294 7.436  C 41.65071428571427 7.659999999999997  41.079428571428586 7.841999999999999  40.494857142857164 8.009999999999998  L 40.707428571428586 8.962000000000003  C 41.21228571428571 8.793999999999997  41.70385714285717 8.612000000000002  42.208714285714294 8.415999999999997  L 42.208714285714294 11.817999999999998  C 42.208714285714294 12.195999999999998  42.035999999999994 12.392000000000003  41.71714285714284 12.392000000000003  C 41.37171428571429 12.392000000000003  40.9997142857143 12.363999999999997  40.601142857142854 12.322000000000003  L 40.8004285714286 13.274000000000001  Z M 59.29414285714289 1.6679999999999993  L 54.81685714285715 1.6679999999999993  L 54.81685714285715 2.5919999999999987  L 59.29414285714289 2.5919999999999987  L 59.29414285714289 3.809999999999999  L 54.27214285714285 3.809999999999999  L 54.27214285714285 6.3580000000000005  L 55.202142857142874 6.3580000000000005  L 55.202142857142874 4.692  L 59.161285714285704 4.692  C 58.39071428571426 5.3919999999999995  57.56699999999998 6.007999999999999  56.703428571428574 6.526  C 56.50414285714283 6.638000000000002  56.30485714285713 6.722000000000001  56.105571428571444 6.763999999999999  L 56.29157142857141 7.533999999999999  C 57.447428571428574 7.506  58.47042857142855 7.463999999999999  59.37385714285711 7.436  C 58.20471428571429 8.136000000000003  57.088714285714296 8.64  55.99928571428571 8.962000000000003  C 55.733571428571445 8.962000000000003  55.45457142857141 8.948  55.17557142857142 8.933999999999997  L 55.36157142857145 9.844000000000001  C 56.58385714285712 9.816000000000003  57.92571428571431 9.759999999999998  59.38714285714285 9.689999999999998  L 59.38714285714285 12.084000000000003  C 59.38714285714285 12.363999999999997  59.22771428571427 12.518  58.93542857142856 12.518  C 58.59000000000001 12.518  58.21800000000001 12.490000000000002  57.84600000000002 12.448  L 58.04528571428571 13.386000000000003  L 59.254285714285714 13.386000000000003  C 59.97171428571431 13.386000000000003  60.34371428571431 13.021999999999998  60.34371428571431 12.322000000000003  L 60.34371428571431 9.648000000000003  C 61.300285714285714 9.591999999999999  62.310000000000024 9.521999999999998  63.386142857142836 9.451999999999998  C 63.65185714285716 9.787999999999997  63.89100000000003 10.124000000000002  64.10357142857144 10.46  L 64.82099999999998 9.914000000000001  C 64.30285714285714 9.158000000000001  63.558857142857136 8.29  62.589000000000006 7.295999999999999  L 61.89814285714286 7.758000000000004  C 62.21700000000001 8.094000000000001  62.522571428571446 8.415999999999997  62.81485714285715 8.752000000000002  C 61.0877142857143 8.878  59.37385714285711 8.975999999999999  57.64671428571427 9.031999999999996  C 59.4535714285714 8.36  61.127571428571414 7.421999999999997  62.695285714285696 6.190000000000001  L 61.9247142857143 5.643999999999998  C 61.44642857142857 6.007999999999999  60.96814285714284 6.3580000000000005  60.50314285714283 6.693999999999999  C 59.759142857142834 6.75  58.76271428571431 6.777999999999999  57.540428571428585 6.806000000000001  C 58.40399999999998 6.315999999999999  59.22771428571427 5.742000000000001  60.02485714285716 5.07  L 59.29414285714289 4.692  L 64.3692857142857 4.692  L 64.3692857142857 6.372  L 65.29928571428572 6.372  L 65.29928571428572 3.809999999999999  L 60.27728571428569 3.809999999999999  L 60.27728571428569 2.5919999999999987  L 64.75457142857142 2.5919999999999987  L 64.75457142857142 1.6679999999999993  L 60.27728571428569 1.6679999999999993  L 60.27728571428569 0.5620000000000012  L 59.29414285714289 0.5620000000000012  L 59.29414285714289 1.6679999999999993  Z M 65.51185714285712 12.322000000000003  C 64.38257142857142 11.566000000000003  63.133714285714305 10.921999999999997  61.752 10.39  L 61.27371428571427 11.131999999999998  C 62.54914285714284 11.622  63.798 12.293999999999997  65.02028571428573 13.134  L 65.51185714285712 12.322000000000003  Z M 58.125 11.020000000000003  L 57.56699999999998 10.362000000000002  C 56.623714285714286 11.118000000000002  55.42800000000002 11.734000000000002  53.97985714285715 12.195999999999998  L 54.37842857142859 13.091999999999999  C 55.8797142857143 12.546  57.12857142857142 11.86  58.125 11.020000000000003  Z M 69.90942857142858 10.277999999999999  C 71.45057142857141 9.213999999999999  72.48685714285716 7.898000000000003  73.03157142857145 6.302  C 74.28042857142857 7.646  75.30342857142855 8.920000000000002  76.07399999999998 10.124000000000002  L 76.79142857142858 9.354  C 75.84814285714285 8.024000000000001  74.69228571428573 6.666  73.31057142857144 5.2940000000000005  C 73.41685714285711 4.832000000000001  73.4965714285714 4.327999999999999  73.56299999999997 3.795999999999999  L 77.36271428571428 3.795999999999999  L 77.36271428571428 11.607999999999997  C 77.36271428571428 12.055999999999997  77.15014285714287 12.293999999999997  76.72500000000002 12.293999999999997  L 74.69228571428573 12.238  L 74.958 13.246000000000002  L 77.04385714285712 13.246000000000002  C 77.89414285714285 13.246000000000002  78.33257142857141 12.770000000000003  78.33257142857141 11.832  L 78.33257142857141 2.815999999999999  L 73.66928571428572 2.815999999999999  C 73.72242857142855 2.1159999999999997  73.76228571428572 1.346  73.76228571428572 0.5199999999999996  L 72.79242857142859 0.5199999999999996  C 72.79242857142859 1.3320000000000007  72.75257142857141 2.1020000000000003  72.68614285714285 2.815999999999999  L 67 2.815999999999999  L 67 13.386000000000003  L 68.79342857142859 13.386000000000003  L 68.79342857142859 3.795999999999999  L 72.57985714285716 3.795999999999999  C 72.48685714285716 4.440000000000001  72.3672857142857 5.027999999999999  72.22114285714285 5.574000000000002  C 71.74285714285716 7.128  70.75971428571431 8.415999999999997  69.27171428571427 9.451999999999998  L 69.90942857142858 10.277999999999999  Z M 86.96828571428571 1.7379999999999995  C 86.82214285714286 1.2759999999999998  86.67600000000002 0.8560000000000016  86.51657142857144 0.4920000000000009  L 85.4935714285714 0.6739999999999995  C 85.65299999999998 0.9959999999999987  85.81242857142855 1.346  85.97185714285713 1.7379999999999995  L 80.92328571428571 1.7379999999999995  L 80.92328571428571 4.300000000000001  L 81.85328571428573 4.300000000000001  L 81.85328571428573 2.6759999999999984  L 90.86099999999998 2.6759999999999984  L 90.86099999999998 4.23  L 91.791 4.23  L 91.791 1.7379999999999995  L 86.96828571428571 1.7379999999999995  Z M 86.74242857142858 4.972000000000001  L 86.01171428571432 4.972000000000001  C 84.68314285714285 6.5120000000000005  82.80985714285714 7.744  80.37857142857142 8.695999999999998  L 80.8834285714286 9.521999999999998  C 81.44142857142857 9.298000000000002  81.98614285714287 9.060000000000002  82.53085714285716 8.780000000000001  L 82.53085714285716 13.414000000000001  L 83.46085714285712 13.414000000000001  L 83.46085714285712 12.826  L 89.39957142857143 12.826  L 89.39957142857143 13.414000000000001  L 90.31628571428574 13.414000000000001  L 90.31628571428574 8.835999999999999  C 90.76800000000001 9.060000000000002  91.25957142857142 9.283999999999999  91.791 9.508000000000003  L 92.30914285714285 8.682000000000002  C 89.67857142857143 7.618000000000002  87.81857142857145 6.385999999999999  86.74242857142858 4.972000000000001  Z M 89.39957142857143 11.902000000000001  L 83.46085714285712 11.902000000000001  L 83.46085714285712 9.661999999999999  L 89.39957142857143 9.661999999999999  L 89.39957142857143 11.902000000000001  Z M 90.17014285714284 8.765999999999998  L 82.55742857142856 8.765999999999998  C 84.03214285714287 7.996000000000002  85.30757142857144 7.030000000000001  86.37042857142858 5.853999999999999  C 87.27385714285715 6.9460000000000015  88.54928571428572 7.926000000000002  90.17014285714284 8.765999999999998  Z M 91.95042857142857 5.8679999999999986  C 90.86099999999998 5  89.50585714285712 4.1320000000000014  87.9115714285714 3.2639999999999993  L 87.3004285714286 3.8939999999999984  C 88.98771428571428 4.832000000000001  90.31628571428574 5.713999999999999  91.28614285714288 6.5539999999999985  L 91.95042857142857 5.8679999999999986  Z M 85.40057142857145 3.8520000000000008  L 84.76285714285714 3.25  C 83.64685714285714 4.23  82.29171428571429 5.07  80.67085714285712 5.797999999999998  L 81.24214285714287 6.582000000000001  C 82.88957142857143 5.797999999999998  84.27128571428574 4.888000000000002  85.40057142857145 3.8520000000000008  Z " fill-rule="evenodd" />
    </mask>
  </defs>
  <g transform="matrix(1 0 0 1 -438 -27 )">
    <path d="M 3.9325714285714337 4.454000000000001  L 3.0424285714285877 4.454000000000001  L 3.0424285714285877 6.539999999999999  L 1.7271428571428507 6.539999999999999  C 2.0592857142857293 5.643999999999998  2.3648571428571605 4.622  2.657142857142868 3.474  L 5.221285714285723 3.474  L 5.221285714285723 2.5219999999999985  L 2.88300000000001 2.5219999999999985  C 3.0025714285714162 1.9619999999999997  3.1221428571428764 1.3599999999999994  3.2417142857142824 0.7300000000000004  L 2.3648571428571605 0.5199999999999996  C 2.2452857142857003 1.2199999999999989  2.1257142857142943 1.8780000000000001  1.9928571428571644 2.5219999999999985  L 0.6775714285714273 2.5219999999999985  L 0.6775714285714273 3.474  L 1.780285714285692 3.474  C 1.4747142857142606 4.719999999999999  1.142571428571436 5.77  0.7705714285714398 6.609999999999999  L 0.9698571428571348 7.450000000000003  L 3.0424285714285877 7.450000000000003  L 3.0424285714285877 9.536000000000001  C 2.271857142857148 9.689999999999998  1.4481428571428672 9.829999999999998  0.571285714285691 9.942  L 0.690857142857151 10.921999999999997  C 1.5012857142857081 10.796  2.285142857142872 10.655999999999999  3.0424285714285877 10.502000000000002  L 3.0424285714285877 13.399999999999999  L 3.9325714285714337 13.399999999999999  L 3.9325714285714337 10.292000000000002  L 5.194714285714276 9.956000000000003  L 5.194714285714276 9.003999999999998  C 4.796142857142832 9.116  4.384285714285719 9.228000000000002  3.9325714285714337 9.340000000000003  L 3.9325714285714337 7.450000000000003  L 5.154857142857159 7.450000000000003  L 5.154857142857159 6.539999999999999  L 3.9325714285714337 6.539999999999999  L 3.9325714285714337 4.454000000000001  Z M 5.433857142857142 5.111999999999998  C 5.951999999999992 4.692  6.4568571428571175 4.23  6.961714285714297 3.7399999999999984  L 6.961714285714297 4.565999999999999  L 10.774714285714271 4.565999999999999  L 10.774714285714271 3.725999999999999  L 6.975000000000022 3.725999999999999  C 7.639285714285725 3.0539999999999985  8.276999999999981 2.312000000000001  8.914714285714291 1.5  C 9.924428571428596 2.872  11.053714285714308 4.033999999999999  12.302571428571428 4.986000000000001  L 12.807428571428552 4.187999999999999  C 11.598428571428553 3.2920000000000016  10.415999999999999 2.1020000000000003  9.260142857142839 0.5899999999999999  L 8.569285714285687 0.5899999999999999  C 7.493142857142871 1.9899999999999987  6.270857142857147 3.2220000000000013  4.915714285714293 4.2719999999999985  L 5.433857142857142 5.111999999999998  Z M 7.254000000000005 13.302  L 7.891714285714261 13.302  C 8.542714285714295 13.302  8.87485714285712 12.938000000000002  8.87485714285712 12.223999999999997  L 8.87485714285712 5.686  L 5.739428571428573 5.686  L 5.739428571428573 13.399999999999999  L 6.576428571428578 13.399999999999999  L 6.576428571428578 10.781999999999996  L 8.064428571428563 10.781999999999996  L 8.064428571428563 12.042000000000002  C 8.064428571428563 12.350000000000001  7.918285714285708 12.503999999999998  7.626000000000001 12.503999999999998  L 7.041428571428586 12.475999999999999  L 7.254000000000005 13.302  Z M 8.064428571428563 9.997999999999998  L 6.576428571428578 9.997999999999998  L 6.576428571428578 8.668  L 8.064428571428563 8.668  L 8.064428571428563 9.997999999999998  Z M 8.064428571428563 7.884  L 6.576428571428578 7.884  L 6.576428571428578 6.498000000000001  L 8.064428571428563 6.498000000000001  L 8.064428571428563 7.884  Z M 10.415999999999999 6.077999999999999  L 9.672000000000008 6.077999999999999  L 9.672000000000008 11.104  L 10.415999999999999 11.104  L 10.415999999999999 6.077999999999999  Z M 9.990857142857163 13.329999999999998  L 11.120142857142875 13.329999999999998  C 11.757857142857128 13.329999999999998  12.090000000000009 12.924  12.090000000000009 12.125999999999998  L 12.090000000000009 5.448  L 11.253000000000004 5.448  L 11.253000000000004 11.902000000000001  C 11.253000000000004 12.293999999999997  11.10685714285715 12.503999999999998  10.827857142857168 12.503999999999998  C 10.495714285714287 12.503999999999998  10.15028571428574 12.475999999999999  9.791571428571414 12.448  L 9.990857142857163 13.329999999999998  Z M 17.151857142857153 1.0940000000000012  C 18.002142857142882 1.7379999999999995  18.73285714285715 2.6340000000000003  19.344000000000015 3.809999999999999  C 18.493714285714283 7.533999999999999  16.646999999999974 10.39  13.803857142857137 12.350000000000001  L 14.375142857142881 13.204  C 17.16514285714288 11.299999999999997  18.99857142857141 8.555999999999997  19.875428571428586 4.986000000000001  C 19.941857142857152 5.154  20.008285714285716 5.350000000000001  20.088000000000005 5.574000000000002  C 21.456428571428585 9.270000000000003  23.21014285714288 11.817999999999998  25.36242857142857 13.189999999999998  L 25.960285714285707 12.378  C 23.861142857142863 10.991999999999997  22.200428571428578 8.625999999999998  20.951571428571405 5.280000000000001  C 20.127857142857124 3.0120000000000005  19.131428571428593 1.4299999999999997  17.948999999999987 0.5620000000000012  L 17.151857142857153 1.0940000000000012  Z M 39.08657142857142 1.1219999999999999  L 27.34200000000001 1.1219999999999999  L 27.34200000000001 2.032  L 31.261285714285723 2.032  L 31.261285714285723 3.2779999999999987  L 28.165714285714294 3.2779999999999987  L 28.165714285714294 6.806000000000001  L 31.659857142857167 6.806000000000001  C 31.447285714285695 7.1979999999999995  31.221428571428547 7.618000000000002  30.982285714285737 8.052  L 27.16928571428571 8.052  L 27.16928571428571 8.975999999999999  L 30.450857142857167 8.975999999999999  C 30.158571428571403 9.451999999999998  29.866285714285695 9.942  29.547428571428593 10.432000000000002  C 30.650142857142857 10.698  31.75285714285712 11.006  32.855571428571444 11.356000000000002  C 31.659857142857167 11.845999999999997  29.866285714285695 12.238  27.501428571428587 12.531999999999996  L 27.86014285714286 13.427999999999997  C 30.729857142857146 13.021999999999998  32.80242857142854 12.462000000000003  34.06457142857144 11.747999999999998  C 35.539285714285704 12.252000000000002  37.01400000000002 12.826  38.47542857142855 13.484000000000002  L 39.073285714285696 12.658000000000001  C 37.665 12.07  36.2832857142857 11.566000000000003  34.92814285714284 11.131999999999998  C 35.632285714285715 10.530000000000001  36.12385714285712 9.816000000000003  36.389571428571436 8.975999999999999  L 39.245999999999995 8.975999999999999  L 39.245999999999995 8.052  L 32.05842857142856 8.052  C 32.27099999999997 7.659999999999997  32.496857142857166 7.253999999999998  32.73599999999998 6.806000000000001  L 38.262857142857136 6.806000000000001  L 38.262857142857136 3.2779999999999987  L 35.167285714285704 3.2779999999999987  L 35.167285714285704 2.032  L 39.08657142857142 2.032  L 39.08657142857142 1.1219999999999999  Z M 35.4197142857143 8.975999999999999  C 35.15399999999998 9.704  34.649142857142856 10.32  33.90514285714286 10.810000000000002  C 32.88214285714283 10.502000000000002  31.885714285714307 10.235999999999997  30.90257142857145 10.012  C 31.101857142857146 9.704  31.314428571428564 9.354  31.5402857142857 8.975999999999999  L 35.4197142857143 8.975999999999999  Z M 34.25057142857141 2.032  L 34.25057142857141 3.2779999999999987  L 32.17800000000001 3.2779999999999987  L 32.17800000000001 2.032  L 34.25057142857141 2.032  Z M 37.346142857142844 4.16  L 37.346142857142844 5.937999999999999  L 35.167285714285704 5.937999999999999  L 35.167285714285704 4.16  L 37.346142857142844 4.16  Z M 34.25057142857141 4.16  L 34.25057142857141 5.937999999999999  L 32.17800000000001 5.937999999999999  L 32.17800000000001 4.16  L 34.25057142857141 4.16  Z M 31.261285714285723 4.16  L 31.261285714285723 5.937999999999999  L 29.082428571428586 5.937999999999999  L 29.082428571428586 4.16  L 31.261285714285723 4.16  Z M 45.87557142857141 5.8679999999999986  L 45.87557142857141 4.481999999999999  L 47.32371428571428 4.481999999999999  L 47.32371428571428 3.6419999999999995  L 45.87557142857141 3.6419999999999995  L 45.87557142857141 2.2979999999999983  C 46.51328571428572 2.0459999999999994  47.07128571428569 1.7940000000000005  47.52299999999998 1.5420000000000016  L 46.97828571428573 0.8000000000000007  C 46.353857142857144 1.1920000000000002  45.68957142857144 1.4860000000000007  44.99871428571429 1.6819999999999986  L 44.99871428571429 6.736000000000001  L 48.04114285714288 6.736000000000001  L 48.04114285714288 7.9680000000000035  L 44.919000000000004 7.9680000000000035  L 44.919000000000004 8.878  L 45.477000000000025 8.878  C 45.98185714285715 9.857999999999997  46.69928571428569 10.712000000000003  47.65585714285716 11.426000000000002  C 46.65942857142858 11.874000000000002  45.463714285714296 12.238  44.082 12.518  L 44.56028571428573 13.414000000000001  C 46.11471428571428 13.049999999999997  47.44328571428574 12.573999999999998  48.559285714285735 12.014000000000003  C 49.5822857142857 12.601999999999997  50.81785714285716 13.064  52.26600000000003 13.386000000000003  L 52.611428571428576 12.448  C 51.44228571428574 12.195999999999998  50.419285714285714 11.86  49.54242857142859 11.439999999999998  C 50.63185714285713 10.712000000000003  51.429000000000016 9.844000000000001  51.9072857142857 8.822000000000003  L 51.9072857142857 7.9680000000000035  L 48.93128571428572 7.9680000000000035  L 48.93128571428572 6.736000000000001  L 51.94714285714287 6.736000000000001  L 51.94714285714287 1.248000000000001  L 49.622142857142876 1.248000000000001  L 49.622142857142876 2.1159999999999997  L 51.08357142857142 2.1159999999999997  L 51.08357142857142 3.6419999999999995  L 49.68857142857144 3.6419999999999995  L 49.68857142857144 4.481999999999999  L 51.08357142857142 4.481999999999999  L 51.08357142857142 5.8679999999999986  L 48.93128571428572 5.8679999999999986  L 48.93128571428572 0.6179999999999986  L 48.04114285714288 0.6179999999999986  L 48.04114285714288 5.8679999999999986  L 45.87557142857141 5.8679999999999986  Z M 48.612428571428566 10.936  C 47.69571428571428 10.362000000000002  46.97828571428573 9.676000000000002  46.460142857142884 8.878  L 50.870999999999995 8.878  C 50.36614285714287 9.661999999999999  49.608857142857154 10.347999999999999  48.612428571428566 10.936  Z M 40.8004285714286 13.274000000000001  L 42.049285714285716 13.274000000000001  C 42.76671428571426 13.274000000000001  43.138714285714315 12.868000000000002  43.138714285714315 12.07  L 43.138714285714315 8.009999999999998  C 43.590428571428596 7.786000000000001  44.04214285714288 7.561999999999997  44.480571428571444 7.323999999999998  L 44.480571428571444 6.344000000000001  C 44.04214285714288 6.596  43.590428571428596 6.834  43.138714285714315 7.043999999999997  L 43.138714285714315 4.216000000000001  L 44.374285714285705 4.216000000000001  L 44.374285714285705 3.25  L 43.138714285714315 3.25  L 43.138714285714315 0.6320000000000014  L 42.208714285714294 0.6320000000000014  L 42.208714285714294 3.25  L 40.73399999999998 3.25  L 40.73399999999998 4.216000000000001  L 42.208714285714294 4.216000000000001  L 42.208714285714294 7.436  C 41.65071428571427 7.659999999999997  41.079428571428586 7.841999999999999  40.494857142857164 8.009999999999998  L 40.707428571428586 8.962000000000003  C 41.21228571428571 8.793999999999997  41.70385714285717 8.612000000000002  42.208714285714294 8.415999999999997  L 42.208714285714294 11.817999999999998  C 42.208714285714294 12.195999999999998  42.035999999999994 12.392000000000003  41.71714285714284 12.392000000000003  C 41.37171428571429 12.392000000000003  40.9997142857143 12.363999999999997  40.601142857142854 12.322000000000003  L 40.8004285714286 13.274000000000001  Z M 59.29414285714289 1.6679999999999993  L 54.81685714285715 1.6679999999999993  L 54.81685714285715 2.5919999999999987  L 59.29414285714289 2.5919999999999987  L 59.29414285714289 3.809999999999999  L 54.27214285714285 3.809999999999999  L 54.27214285714285 6.3580000000000005  L 55.202142857142874 6.3580000000000005  L 55.202142857142874 4.692  L 59.161285714285704 4.692  C 58.39071428571426 5.3919999999999995  57.56699999999998 6.007999999999999  56.703428571428574 6.526  C 56.50414285714283 6.638000000000002  56.30485714285713 6.722000000000001  56.105571428571444 6.763999999999999  L 56.29157142857141 7.533999999999999  C 57.447428571428574 7.506  58.47042857142855 7.463999999999999  59.37385714285711 7.436  C 58.20471428571429 8.136000000000003  57.088714285714296 8.64  55.99928571428571 8.962000000000003  C 55.733571428571445 8.962000000000003  55.45457142857141 8.948  55.17557142857142 8.933999999999997  L 55.36157142857145 9.844000000000001  C 56.58385714285712 9.816000000000003  57.92571428571431 9.759999999999998  59.38714285714285 9.689999999999998  L 59.38714285714285 12.084000000000003  C 59.38714285714285 12.363999999999997  59.22771428571427 12.518  58.93542857142856 12.518  C 58.59000000000001 12.518  58.21800000000001 12.490000000000002  57.84600000000002 12.448  L 58.04528571428571 13.386000000000003  L 59.254285714285714 13.386000000000003  C 59.97171428571431 13.386000000000003  60.34371428571431 13.021999999999998  60.34371428571431 12.322000000000003  L 60.34371428571431 9.648000000000003  C 61.300285714285714 9.591999999999999  62.310000000000024 9.521999999999998  63.386142857142836 9.451999999999998  C 63.65185714285716 9.787999999999997  63.89100000000003 10.124000000000002  64.10357142857144 10.46  L 64.82099999999998 9.914000000000001  C 64.30285714285714 9.158000000000001  63.558857142857136 8.29  62.589000000000006 7.295999999999999  L 61.89814285714286 7.758000000000004  C 62.21700000000001 8.094000000000001  62.522571428571446 8.415999999999997  62.81485714285715 8.752000000000002  C 61.0877142857143 8.878  59.37385714285711 8.975999999999999  57.64671428571427 9.031999999999996  C 59.4535714285714 8.36  61.127571428571414 7.421999999999997  62.695285714285696 6.190000000000001  L 61.9247142857143 5.643999999999998  C 61.44642857142857 6.007999999999999  60.96814285714284 6.3580000000000005  60.50314285714283 6.693999999999999  C 59.759142857142834 6.75  58.76271428571431 6.777999999999999  57.540428571428585 6.806000000000001  C 58.40399999999998 6.315999999999999  59.22771428571427 5.742000000000001  60.02485714285716 5.07  L 59.29414285714289 4.692  L 64.3692857142857 4.692  L 64.3692857142857 6.372  L 65.29928571428572 6.372  L 65.29928571428572 3.809999999999999  L 60.27728571428569 3.809999999999999  L 60.27728571428569 2.5919999999999987  L 64.75457142857142 2.5919999999999987  L 64.75457142857142 1.6679999999999993  L 60.27728571428569 1.6679999999999993  L 60.27728571428569 0.5620000000000012  L 59.29414285714289 0.5620000000000012  L 59.29414285714289 1.6679999999999993  Z M 65.51185714285712 12.322000000000003  C 64.38257142857142 11.566000000000003  63.133714285714305 10.921999999999997  61.752 10.39  L 61.27371428571427 11.131999999999998  C 62.54914285714284 11.622  63.798 12.293999999999997  65.02028571428573 13.134  L 65.51185714285712 12.322000000000003  Z M 58.125 11.020000000000003  L 57.56699999999998 10.362000000000002  C 56.623714285714286 11.118000000000002  55.42800000000002 11.734000000000002  53.97985714285715 12.195999999999998  L 54.37842857142859 13.091999999999999  C 55.8797142857143 12.546  57.12857142857142 11.86  58.125 11.020000000000003  Z M 69.90942857142858 10.277999999999999  C 71.45057142857141 9.213999999999999  72.48685714285716 7.898000000000003  73.03157142857145 6.302  C 74.28042857142857 7.646  75.30342857142855 8.920000000000002  76.07399999999998 10.124000000000002  L 76.79142857142858 9.354  C 75.84814285714285 8.024000000000001  74.69228571428573 6.666  73.31057142857144 5.2940000000000005  C 73.41685714285711 4.832000000000001  73.4965714285714 4.327999999999999  73.56299999999997 3.795999999999999  L 77.36271428571428 3.795999999999999  L 77.36271428571428 11.607999999999997  C 77.36271428571428 12.055999999999997  77.15014285714287 12.293999999999997  76.72500000000002 12.293999999999997  L 74.69228571428573 12.238  L 74.958 13.246000000000002  L 77.04385714285712 13.246000000000002  C 77.89414285714285 13.246000000000002  78.33257142857141 12.770000000000003  78.33257142857141 11.832  L 78.33257142857141 2.815999999999999  L 73.66928571428572 2.815999999999999  C 73.72242857142855 2.1159999999999997  73.76228571428572 1.346  73.76228571428572 0.5199999999999996  L 72.79242857142859 0.5199999999999996  C 72.79242857142859 1.3320000000000007  72.75257142857141 2.1020000000000003  72.68614285714285 2.815999999999999  L 67 2.815999999999999  L 67 13.386000000000003  L 68.79342857142859 13.386000000000003  L 68.79342857142859 3.795999999999999  L 72.57985714285716 3.795999999999999  C 72.48685714285716 4.440000000000001  72.3672857142857 5.027999999999999  72.22114285714285 5.574000000000002  C 71.74285714285716 7.128  70.75971428571431 8.415999999999997  69.27171428571427 9.451999999999998  L 69.90942857142858 10.277999999999999  Z M 86.96828571428571 1.7379999999999995  C 86.82214285714286 1.2759999999999998  86.67600000000002 0.8560000000000016  86.51657142857144 0.4920000000000009  L 85.4935714285714 0.6739999999999995  C 85.65299999999998 0.9959999999999987  85.81242857142855 1.346  85.97185714285713 1.7379999999999995  L 80.92328571428571 1.7379999999999995  L 80.92328571428571 4.300000000000001  L 81.85328571428573 4.300000000000001  L 81.85328571428573 2.6759999999999984  L 90.86099999999998 2.6759999999999984  L 90.86099999999998 4.23  L 91.791 4.23  L 91.791 1.7379999999999995  L 86.96828571428571 1.7379999999999995  Z M 86.74242857142858 4.972000000000001  L 86.01171428571432 4.972000000000001  C 84.68314285714285 6.5120000000000005  82.80985714285714 7.744  80.37857142857142 8.695999999999998  L 80.8834285714286 9.521999999999998  C 81.44142857142857 9.298000000000002  81.98614285714287 9.060000000000002  82.53085714285716 8.780000000000001  L 82.53085714285716 13.414000000000001  L 83.46085714285712 13.414000000000001  L 83.46085714285712 12.826  L 89.39957142857143 12.826  L 89.39957142857143 13.414000000000001  L 90.31628571428574 13.414000000000001  L 90.31628571428574 8.835999999999999  C 90.76800000000001 9.060000000000002  91.25957142857142 9.283999999999999  91.791 9.508000000000003  L 92.30914285714285 8.682000000000002  C 89.67857142857143 7.618000000000002  87.81857142857145 6.385999999999999  86.74242857142858 4.972000000000001  Z M 89.39957142857143 11.902000000000001  L 83.46085714285712 11.902000000000001  L 83.46085714285712 9.661999999999999  L 89.39957142857143 9.661999999999999  L 89.39957142857143 11.902000000000001  Z M 90.17014285714284 8.765999999999998  L 82.55742857142856 8.765999999999998  C 84.03214285714287 7.996000000000002  85.30757142857144 7.030000000000001  86.37042857142858 5.853999999999999  C 87.27385714285715 6.9460000000000015  88.54928571428572 7.926000000000002  90.17014285714284 8.765999999999998  Z M 91.95042857142857 5.8679999999999986  C 90.86099999999998 5  89.50585714285712 4.1320000000000014  87.9115714285714 3.2639999999999993  L 87.3004285714286 3.8939999999999984  C 88.98771428571428 4.832000000000001  90.31628571428574 5.713999999999999  91.28614285714288 6.5539999999999985  L 91.95042857142857 5.8679999999999986  Z M 85.40057142857145 3.8520000000000008  L 84.76285714285714 3.25  C 83.64685714285714 4.23  82.29171428571429 5.07  80.67085714285712 5.797999999999998  L 81.24214285714287 6.582000000000001  C 82.88957142857143 5.797999999999998  84.27128571428574 4.888000000000002  85.40057142857145 3.8520000000000008  Z " fill-rule="nonzero" fill="rgba(0, 0, 0, 0.25882352941176473)" stroke="none" transform="matrix(1 0 0 1 438 27 )" class="fill" />
    <path d="M 3.9325714285714337 4.454000000000001  L 3.0424285714285877 4.454000000000001  L 3.0424285714285877 6.539999999999999  L 1.7271428571428507 6.539999999999999  C 2.0592857142857293 5.643999999999998  2.3648571428571605 4.622  2.657142857142868 3.474  L 5.221285714285723 3.474  L 5.221285714285723 2.5219999999999985  L 2.88300000000001 2.5219999999999985  C 3.0025714285714162 1.9619999999999997  3.1221428571428764 1.3599999999999994  3.2417142857142824 0.7300000000000004  L 2.3648571428571605 0.5199999999999996  C 2.2452857142857003 1.2199999999999989  2.1257142857142943 1.8780000000000001  1.9928571428571644 2.5219999999999985  L 0.6775714285714273 2.5219999999999985  L 0.6775714285714273 3.474  L 1.780285714285692 3.474  C 1.4747142857142606 4.719999999999999  1.142571428571436 5.77  0.7705714285714398 6.609999999999999  L 0.9698571428571348 7.450000000000003  L 3.0424285714285877 7.450000000000003  L 3.0424285714285877 9.536000000000001  C 2.271857142857148 9.689999999999998  1.4481428571428672 9.829999999999998  0.571285714285691 9.942  L 0.690857142857151 10.921999999999997  C 1.5012857142857081 10.796  2.285142857142872 10.655999999999999  3.0424285714285877 10.502000000000002  L 3.0424285714285877 13.399999999999999  L 3.9325714285714337 13.399999999999999  L 3.9325714285714337 10.292000000000002  L 5.194714285714276 9.956000000000003  L 5.194714285714276 9.003999999999998  C 4.796142857142832 9.116  4.384285714285719 9.228000000000002  3.9325714285714337 9.340000000000003  L 3.9325714285714337 7.450000000000003  L 5.154857142857159 7.450000000000003  L 5.154857142857159 6.539999999999999  L 3.9325714285714337 6.539999999999999  L 3.9325714285714337 4.454000000000001  Z " stroke-width="0" stroke-dasharray="0" stroke="rgba(255, 255, 255, 0)" fill="none" transform="matrix(1 0 0 1 438 27 )" class="stroke" mask="url(#Clip2852)" />
    <path d="M 5.433857142857142 5.111999999999998  C 5.951999999999992 4.692  6.4568571428571175 4.23  6.961714285714297 3.7399999999999984  L 6.961714285714297 4.565999999999999  L 10.774714285714271 4.565999999999999  L 10.774714285714271 3.725999999999999  L 6.975000000000022 3.725999999999999  C 7.639285714285725 3.0539999999999985  8.276999999999981 2.312000000000001  8.914714285714291 1.5  C 9.924428571428596 2.872  11.053714285714308 4.033999999999999  12.302571428571428 4.986000000000001  L 12.807428571428552 4.187999999999999  C 11.598428571428553 3.2920000000000016  10.415999999999999 2.1020000000000003  9.260142857142839 0.5899999999999999  L 8.569285714285687 0.5899999999999999  C 7.493142857142871 1.9899999999999987  6.270857142857147 3.2220000000000013  4.915714285714293 4.2719999999999985  L 5.433857142857142 5.111999999999998  Z " stroke-width="0" stroke-dasharray="0" stroke="rgba(255, 255, 255, 0)" fill="none" transform="matrix(1 0 0 1 438 27 )" class="stroke" mask="url(#Clip2852)" />
    <path d="M 7.254000000000005 13.302  L 7.891714285714261 13.302  C 8.542714285714295 13.302  8.87485714285712 12.938000000000002  8.87485714285712 12.223999999999997  L 8.87485714285712 5.686  L 5.739428571428573 5.686  L 5.739428571428573 13.399999999999999  L 6.576428571428578 13.399999999999999  L 6.576428571428578 10.781999999999996  L 8.064428571428563 10.781999999999996  L 8.064428571428563 12.042000000000002  C 8.064428571428563 12.350000000000001  7.918285714285708 12.503999999999998  7.626000000000001 12.503999999999998  L 7.041428571428586 12.475999999999999  L 7.254000000000005 13.302  Z " stroke-width="0" stroke-dasharray="0" stroke="rgba(255, 255, 255, 0)" fill="none" transform="matrix(1 0 0 1 438 27 )" class="stroke" mask="url(#Clip2852)" />
    <path d="M 8.064428571428563 9.997999999999998  L 6.576428571428578 9.997999999999998  L 6.576428571428578 8.668  L 8.064428571428563 8.668  L 8.064428571428563 9.997999999999998  Z " stroke-width="0" stroke-dasharray="0" stroke="rgba(255, 255, 255, 0)" fill="none" transform="matrix(1 0 0 1 438 27 )" class="stroke" mask="url(#Clip2852)" />
    <path d="M 8.064428571428563 7.884  L 6.576428571428578 7.884  L 6.576428571428578 6.498000000000001  L 8.064428571428563 6.498000000000001  L 8.064428571428563 7.884  Z " stroke-width="0" stroke-dasharray="0" stroke="rgba(255, 255, 255, 0)" fill="none" transform="matrix(1 0 0 1 438 27 )" class="stroke" mask="url(#Clip2852)" />
    <path d="M 10.415999999999999 6.077999999999999  L 9.672000000000008 6.077999999999999  L 9.672000000000008 11.104  L 10.415999999999999 11.104  L 10.415999999999999 6.077999999999999  Z " stroke-width="0" stroke-dasharray="0" stroke="rgba(255, 255, 255, 0)" fill="none" transform="matrix(1 0 0 1 438 27 )" class="stroke" mask="url(#Clip2852)" />
    <path d="M 9.990857142857163 13.329999999999998  L 11.120142857142875 13.329999999999998  C 11.757857142857128 13.329999999999998  12.090000000000009 12.924  12.090000000000009 12.125999999999998  L 12.090000000000009 5.448  L 11.253000000000004 5.448  L 11.253000000000004 11.902000000000001  C 11.253000000000004 12.293999999999997  11.10685714285715 12.503999999999998  10.827857142857168 12.503999999999998  C 10.495714285714287 12.503999999999998  10.15028571428574 12.475999999999999  9.791571428571414 12.448  L 9.990857142857163 13.329999999999998  Z " stroke-width="0" stroke-dasharray="0" stroke="rgba(255, 255, 255, 0)" fill="none" transform="matrix(1 0 0 1 438 27 )" class="stroke" mask="url(#Clip2852)" />
    <path d="M 17.151857142857153 1.0940000000000012  C 18.002142857142882 1.7379999999999995  18.73285714285715 2.6340000000000003  19.344000000000015 3.809999999999999  C 18.493714285714283 7.533999999999999  16.646999999999974 10.39  13.803857142857137 12.350000000000001  L 14.375142857142881 13.204  C 17.16514285714288 11.299999999999997  18.99857142857141 8.555999999999997  19.875428571428586 4.986000000000001  C 19.941857142857152 5.154  20.008285714285716 5.350000000000001  20.088000000000005 5.574000000000002  C 21.456428571428585 9.270000000000003  23.21014285714288 11.817999999999998  25.36242857142857 13.189999999999998  L 25.960285714285707 12.378  C 23.861142857142863 10.991999999999997  22.200428571428578 8.625999999999998  20.951571428571405 5.280000000000001  C 20.127857142857124 3.0120000000000005  19.131428571428593 1.4299999999999997  17.948999999999987 0.5620000000000012  L 17.151857142857153 1.0940000000000012  Z " stroke-width="0" stroke-dasharray="0" stroke="rgba(255, 255, 255, 0)" fill="none" transform="matrix(1 0 0 1 438 27 )" class="stroke" mask="url(#Clip2852)" />
    <path d="M 39.08657142857142 1.1219999999999999  L 27.34200000000001 1.1219999999999999  L 27.34200000000001 2.032  L 31.261285714285723 2.032  L 31.261285714285723 3.2779999999999987  L 28.165714285714294 3.2779999999999987  L 28.165714285714294 6.806000000000001  L 31.659857142857167 6.806000000000001  C 31.447285714285695 7.1979999999999995  31.221428571428547 7.618000000000002  30.982285714285737 8.052  L 27.16928571428571 8.052  L 27.16928571428571 8.975999999999999  L 30.450857142857167 8.975999999999999  C 30.158571428571403 9.451999999999998  29.866285714285695 9.942  29.547428571428593 10.432000000000002  C 30.650142857142857 10.698  31.75285714285712 11.006  32.855571428571444 11.356000000000002  C 31.659857142857167 11.845999999999997  29.866285714285695 12.238  27.501428571428587 12.531999999999996  L 27.86014285714286 13.427999999999997  C 30.729857142857146 13.021999999999998  32.80242857142854 12.462000000000003  34.06457142857144 11.747999999999998  C 35.539285714285704 12.252000000000002  37.01400000000002 12.826  38.47542857142855 13.484000000000002  L 39.073285714285696 12.658000000000001  C 37.665 12.07  36.2832857142857 11.566000000000003  34.92814285714284 11.131999999999998  C 35.632285714285715 10.530000000000001  36.12385714285712 9.816000000000003  36.389571428571436 8.975999999999999  L 39.245999999999995 8.975999999999999  L 39.245999999999995 8.052  L 32.05842857142856 8.052  C 32.27099999999997 7.659999999999997  32.496857142857166 7.253999999999998  32.73599999999998 6.806000000000001  L 38.262857142857136 6.806000000000001  L 38.262857142857136 3.2779999999999987  L 35.167285714285704 3.2779999999999987  L 35.167285714285704 2.032  L 39.08657142857142 2.032  L 39.08657142857142 1.1219999999999999  Z " stroke-width="0" stroke-dasharray="0" stroke="rgba(255, 255, 255, 0)" fill="none" transform="matrix(1 0 0 1 438 27 )" class="stroke" mask="url(#Clip2852)" />
    <path d="M 35.4197142857143 8.975999999999999  C 35.15399999999998 9.704  34.649142857142856 10.32  33.90514285714286 10.810000000000002  C 32.88214285714283 10.502000000000002  31.885714285714307 10.235999999999997  30.90257142857145 10.012  C 31.101857142857146 9.704  31.314428571428564 9.354  31.5402857142857 8.975999999999999  L 35.4197142857143 8.975999999999999  Z " stroke-width="0" stroke-dasharray="0" stroke="rgba(255, 255, 255, 0)" fill="none" transform="matrix(1 0 0 1 438 27 )" class="stroke" mask="url(#Clip2852)" />
    <path d="M 34.25057142857141 2.032  L 34.25057142857141 3.2779999999999987  L 32.17800000000001 3.2779999999999987  L 32.17800000000001 2.032  L 34.25057142857141 2.032  Z " stroke-width="0" stroke-dasharray="0" stroke="rgba(255, 255, 255, 0)" fill="none" transform="matrix(1 0 0 1 438 27 )" class="stroke" mask="url(#Clip2852)" />
    <path d="M 37.346142857142844 4.16  L 37.346142857142844 5.937999999999999  L 35.167285714285704 5.937999999999999  L 35.167285714285704 4.16  L 37.346142857142844 4.16  Z " stroke-width="0" stroke-dasharray="0" stroke="rgba(255, 255, 255, 0)" fill="none" transform="matrix(1 0 0 1 438 27 )" class="stroke" mask="url(#Clip2852)" />
    <path d="M 34.25057142857141 4.16  L 34.25057142857141 5.937999999999999  L 32.17800000000001 5.937999999999999  L 32.17800000000001 4.16  L 34.25057142857141 4.16  Z " stroke-width="0" stroke-dasharray="0" stroke="rgba(255, 255, 255, 0)" fill="none" transform="matrix(1 0 0 1 438 27 )" class="stroke" mask="url(#Clip2852)" />
    <path d="M 31.261285714285723 4.16  L 31.261285714285723 5.937999999999999  L 29.082428571428586 5.937999999999999  L 29.082428571428586 4.16  L 31.261285714285723 4.16  Z " stroke-width="0" stroke-dasharray="0" stroke="rgba(255, 255, 255, 0)" fill="none" transform="matrix(1 0 0 1 438 27 )" class="stroke" mask="url(#Clip2852)" />
    <path d="M 45.87557142857141 5.8679999999999986  L 45.87557142857141 4.481999999999999  L 47.32371428571428 4.481999999999999  L 47.32371428571428 3.6419999999999995  L 45.87557142857141 3.6419999999999995  L 45.87557142857141 2.2979999999999983  C 46.51328571428572 2.0459999999999994  47.07128571428569 1.7940000000000005  47.52299999999998 1.5420000000000016  L 46.97828571428573 0.8000000000000007  C 46.353857142857144 1.1920000000000002  45.68957142857144 1.4860000000000007  44.99871428571429 1.6819999999999986  L 44.99871428571429 6.736000000000001  L 48.04114285714288 6.736000000000001  L 48.04114285714288 7.9680000000000035  L 44.919000000000004 7.9680000000000035  L 44.919000000000004 8.878  L 45.477000000000025 8.878  C 45.98185714285715 9.857999999999997  46.69928571428569 10.712000000000003  47.65585714285716 11.426000000000002  C 46.65942857142858 11.874000000000002  45.463714285714296 12.238  44.082 12.518  L 44.56028571428573 13.414000000000001  C 46.11471428571428 13.049999999999997  47.44328571428574 12.573999999999998  48.559285714285735 12.014000000000003  C 49.5822857142857 12.601999999999997  50.81785714285716 13.064  52.26600000000003 13.386000000000003  L 52.611428571428576 12.448  C 51.44228571428574 12.195999999999998  50.419285714285714 11.86  49.54242857142859 11.439999999999998  C 50.63185714285713 10.712000000000003  51.429000000000016 9.844000000000001  51.9072857142857 8.822000000000003  L 51.9072857142857 7.9680000000000035  L 48.93128571428572 7.9680000000000035  L 48.93128571428572 6.736000000000001  L 51.94714285714287 6.736000000000001  L 51.94714285714287 1.248000000000001  L 49.622142857142876 1.248000000000001  L 49.622142857142876 2.1159999999999997  L 51.08357142857142 2.1159999999999997  L 51.08357142857142 3.6419999999999995  L 49.68857142857144 3.6419999999999995  L 49.68857142857144 4.481999999999999  L 51.08357142857142 4.481999999999999  L 51.08357142857142 5.8679999999999986  L 48.93128571428572 5.8679999999999986  L 48.93128571428572 0.6179999999999986  L 48.04114285714288 0.6179999999999986  L 48.04114285714288 5.8679999999999986  L 45.87557142857141 5.8679999999999986  Z " stroke-width="0" stroke-dasharray="0" stroke="rgba(255, 255, 255, 0)" fill="none" transform="matrix(1 0 0 1 438 27 )" class="stroke" mask="url(#Clip2852)" />
    <path d="M 48.612428571428566 10.936  C 47.69571428571428 10.362000000000002  46.97828571428573 9.676000000000002  46.460142857142884 8.878  L 50.870999999999995 8.878  C 50.36614285714287 9.661999999999999  49.608857142857154 10.347999999999999  48.612428571428566 10.936  Z " stroke-width="0" stroke-dasharray="0" stroke="rgba(255, 255, 255, 0)" fill="none" transform="matrix(1 0 0 1 438 27 )" class="stroke" mask="url(#Clip2852)" />
    <path d="M 40.8004285714286 13.274000000000001  L 42.049285714285716 13.274000000000001  C 42.76671428571426 13.274000000000001  43.138714285714315 12.868000000000002  43.138714285714315 12.07  L 43.138714285714315 8.009999999999998  C 43.590428571428596 7.786000000000001  44.04214285714288 7.561999999999997  44.480571428571444 7.323999999999998  L 44.480571428571444 6.344000000000001  C 44.04214285714288 6.596  43.590428571428596 6.834  43.138714285714315 7.043999999999997  L 43.138714285714315 4.216000000000001  L 44.374285714285705 4.216000000000001  L 44.374285714285705 3.25  L 43.138714285714315 3.25  L 43.138714285714315 0.6320000000000014  L 42.208714285714294 0.6320000000000014  L 42.208714285714294 3.25  L 40.73399999999998 3.25  L 40.73399999999998 4.216000000000001  L 42.208714285714294 4.216000000000001  L 42.208714285714294 7.436  C 41.65071428571427 7.659999999999997  41.079428571428586 7.841999999999999  40.494857142857164 8.009999999999998  L 40.707428571428586 8.962000000000003  C 41.21228571428571 8.793999999999997  41.70385714285717 8.612000000000002  42.208714285714294 8.415999999999997  L 42.208714285714294 11.817999999999998  C 42.208714285714294 12.195999999999998  42.035999999999994 12.392000000000003  41.71714285714284 12.392000000000003  C 41.37171428571429 12.392000000000003  40.9997142857143 12.363999999999997  40.601142857142854 12.322000000000003  L 40.8004285714286 13.274000000000001  Z " stroke-width="0" stroke-dasharray="0" stroke="rgba(255, 255, 255, 0)" fill="none" transform="matrix(1 0 0 1 438 27 )" class="stroke" mask="url(#Clip2852)" />
    <path d="M 59.29414285714289 1.6679999999999993  L 54.81685714285715 1.6679999999999993  L 54.81685714285715 2.5919999999999987  L 59.29414285714289 2.5919999999999987  L 59.29414285714289 3.809999999999999  L 54.27214285714285 3.809999999999999  L 54.27214285714285 6.3580000000000005  L 55.202142857142874 6.3580000000000005  L 55.202142857142874 4.692  L 59.161285714285704 4.692  C 58.39071428571426 5.3919999999999995  57.56699999999998 6.007999999999999  56.703428571428574 6.526  C 56.50414285714283 6.638000000000002  56.30485714285713 6.722000000000001  56.105571428571444 6.763999999999999  L 56.29157142857141 7.533999999999999  C 57.447428571428574 7.506  58.47042857142855 7.463999999999999  59.37385714285711 7.436  C 58.20471428571429 8.136000000000003  57.088714285714296 8.64  55.99928571428571 8.962000000000003  C 55.733571428571445 8.962000000000003  55.45457142857141 8.948  55.17557142857142 8.933999999999997  L 55.36157142857145 9.844000000000001  C 56.58385714285712 9.816000000000003  57.92571428571431 9.759999999999998  59.38714285714285 9.689999999999998  L 59.38714285714285 12.084000000000003  C 59.38714285714285 12.363999999999997  59.22771428571427 12.518  58.93542857142856 12.518  C 58.59000000000001 12.518  58.21800000000001 12.490000000000002  57.84600000000002 12.448  L 58.04528571428571 13.386000000000003  L 59.254285714285714 13.386000000000003  C 59.97171428571431 13.386000000000003  60.34371428571431 13.021999999999998  60.34371428571431 12.322000000000003  L 60.34371428571431 9.648000000000003  C 61.300285714285714 9.591999999999999  62.310000000000024 9.521999999999998  63.386142857142836 9.451999999999998  C 63.65185714285716 9.787999999999997  63.89100000000003 10.124000000000002  64.10357142857144 10.46  L 64.82099999999998 9.914000000000001  C 64.30285714285714 9.158000000000001  63.558857142857136 8.29  62.589000000000006 7.295999999999999  L 61.89814285714286 7.758000000000004  C 62.21700000000001 8.094000000000001  62.522571428571446 8.415999999999997  62.81485714285715 8.752000000000002  C 61.0877142857143 8.878  59.37385714285711 8.975999999999999  57.64671428571427 9.031999999999996  C 59.4535714285714 8.36  61.127571428571414 7.421999999999997  62.695285714285696 6.190000000000001  L 61.9247142857143 5.643999999999998  C 61.44642857142857 6.007999999999999  60.96814285714284 6.3580000000000005  60.50314285714283 6.693999999999999  C 59.759142857142834 6.75  58.76271428571431 6.777999999999999  57.540428571428585 6.806000000000001  C 58.40399999999998 6.315999999999999  59.22771428571427 5.742000000000001  60.02485714285716 5.07  L 59.29414285714289 4.692  L 64.3692857142857 4.692  L 64.3692857142857 6.372  L 65.29928571428572 6.372  L 65.29928571428572 3.809999999999999  L 60.27728571428569 3.809999999999999  L 60.27728571428569 2.5919999999999987  L 64.75457142857142 2.5919999999999987  L 64.75457142857142 1.6679999999999993  L 60.27728571428569 1.6679999999999993  L 60.27728571428569 0.5620000000000012  L 59.29414285714289 0.5620000000000012  L 59.29414285714289 1.6679999999999993  Z " stroke-width="0" stroke-dasharray="0" stroke="rgba(255, 255, 255, 0)" fill="none" transform="matrix(1 0 0 1 438 27 )" class="stroke" mask="url(#Clip2852)" />
    <path d="M 65.51185714285712 12.322000000000003  C 64.38257142857142 11.566000000000003  63.133714285714305 10.921999999999997  61.752 10.39  L 61.27371428571427 11.131999999999998  C 62.54914285714284 11.622  63.798 12.293999999999997  65.02028571428573 13.134  L 65.51185714285712 12.322000000000003  Z " stroke-width="0" stroke-dasharray="0" stroke="rgba(255, 255, 255, 0)" fill="none" transform="matrix(1 0 0 1 438 27 )" class="stroke" mask="url(#Clip2852)" />
    <path d="M 58.125 11.020000000000003  L 57.56699999999998 10.362000000000002  C 56.623714285714286 11.118000000000002  55.42800000000002 11.734000000000002  53.97985714285715 12.195999999999998  L 54.37842857142859 13.091999999999999  C 55.8797142857143 12.546  57.12857142857142 11.86  58.125 11.020000000000003  Z " stroke-width="0" stroke-dasharray="0" stroke="rgba(255, 255, 255, 0)" fill="none" transform="matrix(1 0 0 1 438 27 )" class="stroke" mask="url(#Clip2852)" />
    <path d="M 69.90942857142858 10.277999999999999  C 71.45057142857141 9.213999999999999  72.48685714285716 7.898000000000003  73.03157142857145 6.302  C 74.28042857142857 7.646  75.30342857142855 8.920000000000002  76.07399999999998 10.124000000000002  L 76.79142857142858 9.354  C 75.84814285714285 8.024000000000001  74.69228571428573 6.666  73.31057142857144 5.2940000000000005  C 73.41685714285711 4.832000000000001  73.4965714285714 4.327999999999999  73.56299999999997 3.795999999999999  L 77.36271428571428 3.795999999999999  L 77.36271428571428 11.607999999999997  C 77.36271428571428 12.055999999999997  77.15014285714287 12.293999999999997  76.72500000000002 12.293999999999997  L 74.69228571428573 12.238  L 74.958 13.246000000000002  L 77.04385714285712 13.246000000000002  C 77.89414285714285 13.246000000000002  78.33257142857141 12.770000000000003  78.33257142857141 11.832  L 78.33257142857141 2.815999999999999  L 73.66928571428572 2.815999999999999  C 73.72242857142855 2.1159999999999997  73.76228571428572 1.346  73.76228571428572 0.5199999999999996  L 72.79242857142859 0.5199999999999996  C 72.79242857142859 1.3320000000000007  72.75257142857141 2.1020000000000003  72.68614285714285 2.815999999999999  L 67 2.815999999999999  L 67 13.386000000000003  L 68.79342857142859 13.386000000000003  L 68.79342857142859 3.795999999999999  L 72.57985714285716 3.795999999999999  C 72.48685714285716 4.440000000000001  72.3672857142857 5.027999999999999  72.22114285714285 5.574000000000002  C 71.74285714285716 7.128  70.75971428571431 8.415999999999997  69.27171428571427 9.451999999999998  L 69.90942857142858 10.277999999999999  Z " stroke-width="0" stroke-dasharray="0" stroke="rgba(255, 255, 255, 0)" fill="none" transform="matrix(1 0 0 1 438 27 )" class="stroke" mask="url(#Clip2852)" />
    <path d="M 86.96828571428571 1.7379999999999995  C 86.82214285714286 1.2759999999999998  86.67600000000002 0.8560000000000016  86.51657142857144 0.4920000000000009  L 85.4935714285714 0.6739999999999995  C 85.65299999999998 0.9959999999999987  85.81242857142855 1.346  85.97185714285713 1.7379999999999995  L 80.92328571428571 1.7379999999999995  L 80.92328571428571 4.300000000000001  L 81.85328571428573 4.300000000000001  L 81.85328571428573 2.6759999999999984  L 90.86099999999998 2.6759999999999984  L 90.86099999999998 4.23  L 91.791 4.23  L 91.791 1.7379999999999995  L 86.96828571428571 1.7379999999999995  Z " stroke-width="0" stroke-dasharray="0" stroke="rgba(255, 255, 255, 0)" fill="none" transform="matrix(1 0 0 1 438 27 )" class="stroke" mask="url(#Clip2852)" />
    <path d="M 86.74242857142858 4.972000000000001  L 86.01171428571432 4.972000000000001  C 84.68314285714285 6.5120000000000005  82.80985714285714 7.744  80.37857142857142 8.695999999999998  L 80.8834285714286 9.521999999999998  C 81.44142857142857 9.298000000000002  81.98614285714287 9.060000000000002  82.53085714285716 8.780000000000001  L 82.53085714285716 13.414000000000001  L 83.46085714285712 13.414000000000001  L 83.46085714285712 12.826  L 89.39957142857143 12.826  L 89.39957142857143 13.414000000000001  L 90.31628571428574 13.414000000000001  L 90.31628571428574 8.835999999999999  C 90.76800000000001 9.060000000000002  91.25957142857142 9.283999999999999  91.791 9.508000000000003  L 92.30914285714285 8.682000000000002  C 89.67857142857143 7.618000000000002  87.81857142857145 6.385999999999999  86.74242857142858 4.972000000000001  Z " stroke-width="0" stroke-dasharray="0" stroke="rgba(255, 255, 255, 0)" fill="none" transform="matrix(1 0 0 1 438 27 )" class="stroke" mask="url(#Clip2852)" />
    <path d="M 89.39957142857143 11.902000000000001  L 83.46085714285712 11.902000000000001  L 83.46085714285712 9.661999999999999  L 89.39957142857143 9.661999999999999  L 89.39957142857143 11.902000000000001  Z " stroke-width="0" stroke-dasharray="0" stroke="rgba(255, 255, 255, 0)" fill="none" transform="matrix(1 0 0 1 438 27 )" class="stroke" mask="url(#Clip2852)" />
    <path d="M 90.17014285714284 8.765999999999998  L 82.55742857142856 8.765999999999998  C 84.03214285714287 7.996000000000002  85.30757142857144 7.030000000000001  86.37042857142858 5.853999999999999  C 87.27385714285715 6.9460000000000015  88.54928571428572 7.926000000000002  90.17014285714284 8.765999999999998  Z " stroke-width="0" stroke-dasharray="0" stroke="rgba(255, 255, 255, 0)" fill="none" transform="matrix(1 0 0 1 438 27 )" class="stroke" mask="url(#Clip2852)" />
    <path d="M 91.95042857142857 5.8679999999999986  C 90.86099999999998 5  89.50585714285712 4.1320000000000014  87.9115714285714 3.2639999999999993  L 87.3004285714286 3.8939999999999984  C 88.98771428571428 4.832000000000001  90.31628571428574 5.713999999999999  91.28614285714288 6.5539999999999985  L 91.95042857142857 5.8679999999999986  Z " stroke-width="0" stroke-dasharray="0" stroke="rgba(255, 255, 255, 0)" fill="none" transform="matrix(1 0 0 1 438 27 )" class="stroke" mask="url(#Clip2852)" />
    <path d="M 85.40057142857145 3.8520000000000008  L 84.76285714285714 3.25  C 83.64685714285714 4.23  82.29171428571429 5.07  80.67085714285712 5.797999999999998  L 81.24214285714287 6.582000000000001  C 82.88957142857143 5.797999999999998  84.27128571428574 4.888000000000002  85.40057142857145 3.8520000000000008  Z " stroke-width="0" stroke-dasharray="0" stroke="rgba(255, 255, 255, 0)" fill="none" transform="matrix(1 0 0 1 438 27 )" class="stroke" mask="url(#Clip2852)" />
  </g>
</svg>