<?xml version="1.0" encoding="utf-8"?>
<svg version="1.1" xmlns:xlink="http://www.w3.org/1999/xlink" width="14px" height="13px" xmlns="http://www.w3.org/2000/svg">
  <defs>
    <pattern id="BGPattern" patternUnits="userSpaceOnUse" alignment="0 0" imageRepeat="None" />
    <mask fill="white" id="Clip2848">
      <path d="M 0.4375 11.578125  L 0.4375 1.421875  C 0.4375 0.8609249999999997  0.9274999999999523 0.40625  1.53125 0.40625  L 12.46875 0.40625  C 13.072500000000048 0.40625  13.5625 0.8609249999999997  13.5625 1.421875  L 13.5625 11.578125  C 13.5625 12.139074999999998  13.072500000000048 12.59375  12.46875 12.59375  L 1.53125 12.59375  C 0.9274999999999523 12.59375  0.4375 12.139074999999998  0.4375 11.578125  Z M 12.46875 1.421875  L 1.53125 1.421875  L 1.53125 3.453125  L 12.46875 3.453125  L 12.46875 1.421875  Z M 12.46875 4.46875  L 1.53125 4.46875  L 1.53125 11.578125  L 12.46875 11.578125  L 12.46875 4.46875  Z " fill-rule="evenodd" />
    </mask>
  </defs>
  <g transform="matrix(1 0 0 1 -1683 -28 )">
    <path d="M 0.4375 11.578125  L 0.4375 1.421875  C 0.4375 0.8609249999999997  0.9274999999999523 0.40625  1.53125 0.40625  L 12.46875 0.40625  C 13.072500000000048 0.40625  13.5625 0.8609249999999997  13.5625 1.421875  L 13.5625 11.578125  C 13.5625 12.139074999999998  13.072500000000048 12.59375  12.46875 12.59375  L 1.53125 12.59375  C 0.9274999999999523 12.59375  0.4375 12.139074999999998  0.4375 11.578125  Z M 12.46875 1.421875  L 1.53125 1.421875  L 1.53125 3.453125  L 12.46875 3.453125  L 12.46875 1.421875  Z M 12.46875 4.46875  L 1.53125 4.46875  L 1.53125 11.578125  L 12.46875 11.578125  L 12.46875 4.46875  Z " fill-rule="nonzero" fill="rgba(0, 0, 0, 0.8980392156862745)" stroke="none" transform="matrix(1 0 0 1 1683 28 )" class="fill" />
    <path d="M 0.4375 11.578125  L 0.4375 1.421875  C 0.4375 0.8609249999999997  0.9274999999999523 0.40625  1.53125 0.40625  L 12.46875 0.40625  C 13.072500000000048 0.40625  13.5625 0.8609249999999997  13.5625 1.421875  L 13.5625 11.578125  C 13.5625 12.139074999999998  13.072500000000048 12.59375  12.46875 12.59375  L 1.53125 12.59375  C 0.9274999999999523 12.59375  0.4375 12.139074999999998  0.4375 11.578125  Z " stroke-width="0" stroke-dasharray="0" stroke="rgba(255, 255, 255, 0)" fill="none" transform="matrix(1 0 0 1 1683 28 )" class="stroke" mask="url(#Clip2848)" />
    <path d="M 12.46875 1.421875  L 1.53125 1.421875  L 1.53125 3.453125  L 12.46875 3.453125  L 12.46875 1.421875  Z " stroke-width="0" stroke-dasharray="0" stroke="rgba(255, 255, 255, 0)" fill="none" transform="matrix(1 0 0 1 1683 28 )" class="stroke" mask="url(#Clip2848)" />
    <path d="M 12.46875 4.46875  L 1.53125 4.46875  L 1.53125 11.578125  L 12.46875 11.578125  L 12.46875 4.46875  Z " stroke-width="0" stroke-dasharray="0" stroke="rgba(255, 255, 255, 0)" fill="none" transform="matrix(1 0 0 1 1683 28 )" class="stroke" mask="url(#Clip2848)" />
  </g>
</svg>