<?xml version="1.0" encoding="utf-8"?>
<svg version="1.1" xmlns:xlink="http://www.w3.org/1999/xlink" width="16px" height="10px" xmlns="http://www.w3.org/2000/svg">
  <defs>
    <pattern id="BGPattern" patternUnits="userSpaceOnUse" alignment="0 0" imageRepeat="None" />
    <mask fill="white" id="Clip163">
      <path d="M 0.8644531199999619 2.43274013333334  L 2.335235216000001 0.9006754499999896  L 7.999844367999958 6.801309583333341  L 13.664453119999962 0.9006754499999896  L 15.13523551999997 2.43274013333334  L 7.999844367999958 9.86543900000001  L 0.8644531199999619 2.43274013333334  Z " fill-rule="evenodd" />
    </mask>
  </defs>
  <g transform="matrix(1 0 0 1 -256 -582 )">
    <path d="M 0.8644531199999619 2.43274013333334  L 2.335235216000001 0.9006754499999896  L 7.999844367999958 6.801309583333341  L 13.664453119999962 0.9006754499999896  L 15.13523551999997 2.43274013333334  L 7.999844367999958 9.86543900000001  L 0.8644531199999619 2.43274013333334  Z " fill-rule="nonzero" fill="rgba(0, 0, 0, 0.4)" stroke="none" transform="matrix(1 0 0 1 256 582 )" class="fill" />
    <path d="M 0.8644531199999619 2.43274013333334  L 2.335235216000001 0.9006754499999896  L 7.999844367999958 6.801309583333341  L 13.664453119999962 0.9006754499999896  L 15.13523551999997 2.43274013333334  L 7.999844367999958 9.86543900000001  L 0.8644531199999619 2.43274013333334  Z " stroke-width="0" stroke-dasharray="0" stroke="rgba(255, 255, 255, 0)" fill="none" transform="matrix(1 0 0 1 256 582 )" class="stroke" mask="url(#Clip163)" />
  </g>
</svg>