<?xml version="1.0" encoding="utf-8"?>
<svg version="1.1" xmlns:xlink="http://www.w3.org/1999/xlink" width="47px" height="35px" xmlns="http://www.w3.org/2000/svg">
  <defs>
    <pattern id="BGPattern" patternUnits="userSpaceOnUse" alignment="0 0" imageRepeat="None" />
    <mask fill="white" id="Clip2853">
      <path d="M 3 23  L 37 23  L 37 25  L 0 25  L 0 0  L 3 0  L 3 23  Z M 34.52490234375 2.2298177083333344  C 34.63330078125001 2.3274739583333344  34.68750000000001 2.452256944444442  34.6875 2.6041666666666656  L 34.6875 9.684244791666666  C 34.68750000000001 9.912109374999996  34.57006835937501 10.072157118055555  34.335205078125 10.164388020833334  C 34.10034179687501 10.25661892361111  33.886555989583336 10.215928819444445  33.69384765625 10.042317708333334  L 31.5078125 8.072916666666666  L 20.07177734375 18.375651041666668  C 19.951334635416668 18.48415798611111  19.812825520833336 18.538411458333332  19.65625 18.538411458333332  C 19.499674479166668 18.538411458333332  19.361165364583336 18.48415798611111  19.24072265625 18.375651041666668  L 15.03125 14.583333333333332  L 7.515625 21.354166666666664  L 4.046875 18.229166666666668  L 14.61572265625 8.707682291666666  C 14.736165364583334 8.599175347222221  14.87467447916667 8.544921875  15.03125 8.544921875  C 15.187825520833334 8.544921875  15.326334635416668 8.599175347222221  15.44677734375 8.707682291666666  L 19.65625 12.5  L 28.0390625 4.947916666666666  L 25.85302734375 2.978515625  C 25.660319010416668 2.8049045138888866  25.615152994791668 2.6123046875  25.717529296875 2.4007161458333344  C 25.819905598958336 2.1891276041666656  25.99755859375 2.0833333333333344  26.25048828125 2.0833333333333344  L 34.109375 2.0833333333333344  C 34.27799479166667 2.0833333333333344  34.41650390625001 2.1321614583333344  34.52490234375 2.2298177083333344  Z " fill-rule="evenodd" />
    </mask>
  </defs>
  <g transform="matrix(1 0 0 1 -78 -572 )">
    <path d="M 3 23  L 37 23  L 37 25  L 0 25  L 0 0  L 3 0  L 3 23  Z M 34.52490234375 2.2298177083333344  C 34.63330078125001 2.3274739583333344  34.68750000000001 2.452256944444442  34.6875 2.6041666666666656  L 34.6875 9.684244791666666  C 34.68750000000001 9.912109374999996  34.57006835937501 10.072157118055555  34.335205078125 10.164388020833334  C 34.10034179687501 10.25661892361111  33.886555989583336 10.215928819444445  33.69384765625 10.042317708333334  L 31.5078125 8.072916666666666  L 20.07177734375 18.375651041666668  C 19.951334635416668 18.48415798611111  19.812825520833336 18.538411458333332  19.65625 18.538411458333332  C 19.499674479166668 18.538411458333332  19.361165364583336 18.48415798611111  19.24072265625 18.375651041666668  L 15.03125 14.583333333333332  L 7.515625 21.354166666666664  L 4.046875 18.229166666666668  L 14.61572265625 8.707682291666666  C 14.736165364583334 8.599175347222221  14.87467447916667 8.544921875  15.03125 8.544921875  C 15.187825520833334 8.544921875  15.326334635416668 8.599175347222221  15.44677734375 8.707682291666666  L 19.65625 12.5  L 28.0390625 4.947916666666666  L 25.85302734375 2.978515625  C 25.660319010416668 2.8049045138888866  25.615152994791668 2.6123046875  25.717529296875 2.4007161458333344  C 25.819905598958336 2.1891276041666656  25.99755859375 2.0833333333333344  26.25048828125 2.0833333333333344  L 34.109375 2.0833333333333344  C 34.27799479166667 2.0833333333333344  34.41650390625001 2.1321614583333344  34.52490234375 2.2298177083333344  Z " fill-rule="nonzero" fill="rgba(0, 0, 0, 1)" stroke="none" transform="matrix(1 0 0 1 78 572 )" class="fill" />
    <path d="M 3 23  L 37 23  L 37 25  L 0 25  L 0 0  L 3 0  L 3 23  Z " stroke-width="0" stroke-dasharray="0" stroke="rgba(255, 255, 255, 0)" fill="none" transform="matrix(1 0 0 1 78 572 )" class="stroke" mask="url(#Clip2853)" />
    <path d="M 34.52490234375 2.2298177083333344  C 34.63330078125001 2.3274739583333344  34.68750000000001 2.452256944444442  34.6875 2.6041666666666656  L 34.6875 9.684244791666666  C 34.68750000000001 9.912109374999996  34.57006835937501 10.072157118055555  34.335205078125 10.164388020833334  C 34.10034179687501 10.25661892361111  33.886555989583336 10.215928819444445  33.69384765625 10.042317708333334  L 31.5078125 8.072916666666666  L 20.07177734375 18.375651041666668  C 19.951334635416668 18.48415798611111  19.812825520833336 18.538411458333332  19.65625 18.538411458333332  C 19.499674479166668 18.538411458333332  19.361165364583336 18.48415798611111  19.24072265625 18.375651041666668  L 15.03125 14.583333333333332  L 7.515625 21.354166666666664  L 4.046875 18.229166666666668  L 14.61572265625 8.707682291666666  C 14.736165364583334 8.599175347222221  14.87467447916667 8.544921875  15.03125 8.544921875  C 15.187825520833334 8.544921875  15.326334635416668 8.599175347222221  15.44677734375 8.707682291666666  L 19.65625 12.5  L 28.0390625 4.947916666666666  L 25.85302734375 2.978515625  C 25.660319010416668 2.8049045138888866  25.615152994791668 2.6123046875  25.717529296875 2.4007161458333344  C 25.819905598958336 2.1891276041666656  25.99755859375 2.0833333333333344  26.25048828125 2.0833333333333344  L 34.109375 2.0833333333333344  C 34.27799479166667 2.0833333333333344  34.41650390625001 2.1321614583333344  34.52490234375 2.2298177083333344  Z " stroke-width="0" stroke-dasharray="0" stroke="rgba(255, 255, 255, 0)" fill="none" transform="matrix(1 0 0 1 78 572 )" class="stroke" mask="url(#Clip2853)" />
  </g>
  <style>svg { filter: drop-shadow(5px 5px 2.5px rgba(0, 0, 0, 0.34901960784313724)); }</style>
</svg>