<?xml version="1.0" encoding="utf-8"?>
<svg version="1.1" xmlns:xlink="http://www.w3.org/1999/xlink" width="24px" height="17px" xmlns="http://www.w3.org/2000/svg">
  <defs>
    <pattern id="BGPattern" patternUnits="userSpaceOnUse" alignment="0 0" imageRepeat="None" />
    <mask fill="white" id="Clip816">
      <path d="M 11.192825112107624 12.75  L 11.946188340807176 12.75  L 13.506726457399102 11.349431818181818  L 11.461883408071749 9.514204545454543  L 9.90134529147982 10.914772727272728  L 9.90134529147982 11.590909090909092  L 11.192825112107624 11.590909090909092  L 11.192825112107624 12.75  Z M 17.85201793721973 4.455255681818182  C 18.00448430493274 4.318418560606059  18.00896860986547 4.185606060606059  17.86547085201794 4.056818181818182  C 17.721973094170405 3.9280303030303014  17.573991031390136 3.932054924242423  17.42152466367713 4.068892045454546  L 12.713004484304932 8.294744318181818  C 12.560538116591928 8.43158143939394  12.556053811659194 8.564393939393938  12.699551569506726 8.693181818181818  C 12.843049327354262 8.821969696969697  12.99103139013453 8.817945075757574  13.143497757847534 8.681107954545457  L 17.85201793721973 4.455255681818182  Z M 18.672645739910315 10.878551136363637  C 18.852017937219735 10.942945075757574  18.941704035874437 11.059659090909092  18.941704035874437 11.228693181818182  L 18.941704035874437 13.522727272727272  C 18.941704035874437 14.480587121212121  18.562780269058297 15.299597537878789  17.804932735426007 15.979758522727272  C 17.047085201793724 16.659919507575758  16.134529147982065 17  15.067264573991032 17  L 3.8744394618834077 17  C 2.807174887892377 17  1.8946188340807175 16.659919507575758  1.1367713004484306 15.979758522727272  C 0.3789237668161435 15.299597537878789  0 14.480587121212121  0 13.522727272727272  L 0 3.477272727272728  C 0 2.5194128787878767  0.3789237668161435 1.7004024621212115  1.1367713004484306 1.020241477272728  C 1.8946188340807175 0.34008049242424077  2.807174887892377 0  3.8744394618834077 0  L 15.067264573991032 0  C 15.632286995515695 0  16.15695067264574 0.10061553030302939  16.64125560538117 0.30184659090909005  C 16.77578475336323 0.35819128787878673  16.856502242152466 0.45075757575757536  16.883408071748878 0.579545454545454  C 16.91031390134529 0.7163825757575754  16.869955156950674 0.83309659090909  16.76233183856502 0.9296875  L 16.103139013452914 1.521306818181818  C 15.977578475336323 1.6339962121212115  15.83408071748879 1.666193181818182  15.672645739910315 1.617897727272728  C 15.466367713004484 1.569602272727272  15.26457399103139 1.5454545454545459  15.067264573991032 1.5454545454545459  L 3.8744394618834077 1.5454545454545459  C 3.282511210762332 1.5454545454545459  2.7757847533632294 1.7346117424242409  2.3542600896860986 2.112926136363636  C 1.932735426008969 2.4912405303030294  1.7219730941704037 2.946022727272728  2 3.477272727272728  L 2 13.522727272727272  C 1.7219730941704037 14.053977272727272  1.932735426008969 14.508759469696967  2.3542600896860986 14.887073863636363  C 2.7757847533632294 15.265388257575758  3.282511210762332 15.454545454545453  3.8744394618834077 15.454545454545453  L 15.067264573991032 15.454545454545453  C 15.659192825112108 15.454545454545453  16.16591928251121 15.265388257575758  16.58744394618834 14.887073863636363  C 17.008968609865473 14.508759469696967  17.219730941704036 14.053977272727272  17.219730941704036 13.522727272727272  L 17.219730941704036 12.001420454545457  C 17.219730941704036 11.896780303030301  17.260089686098656 11.808238636363637  17.340807174887892 11.735795454545457  L 18.201793721973093 10.963068181818182  C 18.336322869955154 10.842329545454543  18.4932735426009 10.814157196969697  18.672645739910315 10.878551136363637  Z M 8.609865470852018 10.431818181818182  L 17.650224215246638 2.318181818181818  L 21.524663677130047 5.795454545454546  L 12.484304932735425 13.909090909090908  L 8.609865470852018 13.909090909090908  L 8.609865470852018 10.431818181818182  Z M 24 3.09090909090909  C 24 3.4128787878787867  23.87443946188341 3.6865530303030294  23.623318385650222 3.911931818181818  L 22.385650224215247 5.022727272727272  L 18.51121076233184 1.5454545454545459  L 19.748878923766817 0.43465909090909005  C 20 0.20928030303030143  20.30493273542601 0.09659090909090995  20.663677130044846 0.09659090909090995  C 21.022421524663677 0.09659090909090995  21.327354260089688 0.20928030303030143  21.57847533632287 0.43465909090909005  L 23.623318385650222 2.269886363636364  C 23.87443946188341 2.4952651515151487  24 2.7689393939393936  24 3.09090909090909  Z " fill-rule="evenodd" />
    </mask>
  </defs>
  <g transform="matrix(1 0 0 1 -438 -290 )">
    <path d="M 11.192825112107624 12.75  L 11.946188340807176 12.75  L 13.506726457399102 11.349431818181818  L 11.461883408071749 9.514204545454543  L 9.90134529147982 10.914772727272728  L 9.90134529147982 11.590909090909092  L 11.192825112107624 11.590909090909092  L 11.192825112107624 12.75  Z M 17.85201793721973 4.455255681818182  C 18.00448430493274 4.318418560606059  18.00896860986547 4.185606060606059  17.86547085201794 4.056818181818182  C 17.721973094170405 3.9280303030303014  17.573991031390136 3.932054924242423  17.42152466367713 4.068892045454546  L 12.713004484304932 8.294744318181818  C 12.560538116591928 8.43158143939394  12.556053811659194 8.564393939393938  12.699551569506726 8.693181818181818  C 12.843049327354262 8.821969696969697  12.99103139013453 8.817945075757574  13.143497757847534 8.681107954545457  L 17.85201793721973 4.455255681818182  Z M 18.672645739910315 10.878551136363637  C 18.852017937219735 10.942945075757574  18.941704035874437 11.059659090909092  18.941704035874437 11.228693181818182  L 18.941704035874437 13.522727272727272  C 18.941704035874437 14.480587121212121  18.562780269058297 15.299597537878789  17.804932735426007 15.979758522727272  C 17.047085201793724 16.659919507575758  16.134529147982065 17  15.067264573991032 17  L 3.8744394618834077 17  C 2.807174887892377 17  1.8946188340807175 16.659919507575758  1.1367713004484306 15.979758522727272  C 0.3789237668161435 15.299597537878789  0 14.480587121212121  0 13.522727272727272  L 0 3.477272727272728  C 0 2.5194128787878767  0.3789237668161435 1.7004024621212115  1.1367713004484306 1.020241477272728  C 1.8946188340807175 0.34008049242424077  2.807174887892377 0  3.8744394618834077 0  L 15.067264573991032 0  C 15.632286995515695 0  16.15695067264574 0.10061553030302939  16.64125560538117 0.30184659090909005  C 16.77578475336323 0.35819128787878673  16.856502242152466 0.45075757575757536  16.883408071748878 0.579545454545454  C 16.91031390134529 0.7163825757575754  16.869955156950674 0.83309659090909  16.76233183856502 0.9296875  L 16.103139013452914 1.521306818181818  C 15.977578475336323 1.6339962121212115  15.83408071748879 1.666193181818182  15.672645739910315 1.617897727272728  C 15.466367713004484 1.569602272727272  15.26457399103139 1.5454545454545459  15.067264573991032 1.5454545454545459  L 3.8744394618834077 1.5454545454545459  C 3.282511210762332 1.5454545454545459  2.7757847533632294 1.7346117424242409  2.3542600896860986 2.112926136363636  C 1.932735426008969 2.4912405303030294  1.7219730941704037 2.946022727272728  2 3.477272727272728  L 2 13.522727272727272  C 1.7219730941704037 14.053977272727272  1.932735426008969 14.508759469696967  2.3542600896860986 14.887073863636363  C 2.7757847533632294 15.265388257575758  3.282511210762332 15.454545454545453  3.8744394618834077 15.454545454545453  L 15.067264573991032 15.454545454545453  C 15.659192825112108 15.454545454545453  16.16591928251121 15.265388257575758  16.58744394618834 14.887073863636363  C 17.008968609865473 14.508759469696967  17.219730941704036 14.053977272727272  17.219730941704036 13.522727272727272  L 17.219730941704036 12.001420454545457  C 17.219730941704036 11.896780303030301  17.260089686098656 11.808238636363637  17.340807174887892 11.735795454545457  L 18.201793721973093 10.963068181818182  C 18.336322869955154 10.842329545454543  18.4932735426009 10.814157196969697  18.672645739910315 10.878551136363637  Z M 8.609865470852018 10.431818181818182  L 17.650224215246638 2.318181818181818  L 21.524663677130047 5.795454545454546  L 12.484304932735425 13.909090909090908  L 8.609865470852018 13.909090909090908  L 8.609865470852018 10.431818181818182  Z M 24 3.09090909090909  C 24 3.4128787878787867  23.87443946188341 3.6865530303030294  23.623318385650222 3.911931818181818  L 22.385650224215247 5.022727272727272  L 18.51121076233184 1.5454545454545459  L 19.748878923766817 0.43465909090909005  C 20 0.20928030303030143  20.30493273542601 0.09659090909090995  20.663677130044846 0.09659090909090995  C 21.022421524663677 0.09659090909090995  21.327354260089688 0.20928030303030143  21.57847533632287 0.43465909090909005  L 23.623318385650222 2.269886363636364  C 23.87443946188341 2.4952651515151487  24 2.7689393939393936  24 3.09090909090909  Z " fill-rule="nonzero" fill="rgba(127, 127, 127, 1)" stroke="none" transform="matrix(1 0 0 1 438 290 )" class="fill" />
    <path d="M 11.192825112107624 12.75  L 11.946188340807176 12.75  L 13.506726457399102 11.349431818181818  L 11.461883408071749 9.514204545454543  L 9.90134529147982 10.914772727272728  L 9.90134529147982 11.590909090909092  L 11.192825112107624 11.590909090909092  L 11.192825112107624 12.75  Z " stroke-width="0" stroke-dasharray="0" stroke="rgba(255, 255, 255, 0)" fill="none" transform="matrix(1 0 0 1 438 290 )" class="stroke" mask="url(#Clip816)" />
    <path d="M 17.85201793721973 4.455255681818182  C 18.00448430493274 4.318418560606059  18.00896860986547 4.185606060606059  17.86547085201794 4.056818181818182  C 17.721973094170405 3.9280303030303014  17.573991031390136 3.932054924242423  17.42152466367713 4.068892045454546  L 12.713004484304932 8.294744318181818  C 12.560538116591928 8.43158143939394  12.556053811659194 8.564393939393938  12.699551569506726 8.693181818181818  C 12.843049327354262 8.821969696969697  12.99103139013453 8.817945075757574  13.143497757847534 8.681107954545457  L 17.85201793721973 4.455255681818182  Z " stroke-width="0" stroke-dasharray="0" stroke="rgba(255, 255, 255, 0)" fill="none" transform="matrix(1 0 0 1 438 290 )" class="stroke" mask="url(#Clip816)" />
    <path d="M 18.672645739910315 10.878551136363637  C 18.852017937219735 10.942945075757574  18.941704035874437 11.059659090909092  18.941704035874437 11.228693181818182  L 18.941704035874437 13.522727272727272  C 18.941704035874437 14.480587121212121  18.562780269058297 15.299597537878789  17.804932735426007 15.979758522727272  C 17.047085201793724 16.659919507575758  16.134529147982065 17  15.067264573991032 17  L 3.8744394618834077 17  C 2.807174887892377 17  1.8946188340807175 16.659919507575758  1.1367713004484306 15.979758522727272  C 0.3789237668161435 15.299597537878789  0 14.480587121212121  0 13.522727272727272  L 0 3.477272727272728  C 0 2.5194128787878767  0.3789237668161435 1.7004024621212115  1.1367713004484306 1.020241477272728  C 1.8946188340807175 0.34008049242424077  2.807174887892377 0  3.8744394618834077 0  L 15.067264573991032 0  C 15.632286995515695 0  16.15695067264574 0.10061553030302939  16.64125560538117 0.30184659090909005  C 16.77578475336323 0.35819128787878673  16.856502242152466 0.45075757575757536  16.883408071748878 0.579545454545454  C 16.91031390134529 0.7163825757575754  16.869955156950674 0.83309659090909  16.76233183856502 0.9296875  L 16.103139013452914 1.521306818181818  C 15.977578475336323 1.6339962121212115  15.83408071748879 1.666193181818182  15.672645739910315 1.617897727272728  C 15.466367713004484 1.569602272727272  15.26457399103139 1.5454545454545459  15.067264573991032 1.5454545454545459  L 3.8744394618834077 1.5454545454545459  C 3.282511210762332 1.5454545454545459  2.7757847533632294 1.7346117424242409  2.3542600896860986 2.112926136363636  C 1.932735426008969 2.4912405303030294  1.7219730941704037 2.946022727272728  2 3.477272727272728  L 2 13.522727272727272  C 1.7219730941704037 14.053977272727272  1.932735426008969 14.508759469696967  2.3542600896860986 14.887073863636363  C 2.7757847533632294 15.265388257575758  3.282511210762332 15.454545454545453  3.8744394618834077 15.454545454545453  L 15.067264573991032 15.454545454545453  C 15.659192825112108 15.454545454545453  16.16591928251121 15.265388257575758  16.58744394618834 14.887073863636363  C 17.008968609865473 14.508759469696967  17.219730941704036 14.053977272727272  17.219730941704036 13.522727272727272  L 17.219730941704036 12.001420454545457  C 17.219730941704036 11.896780303030301  17.260089686098656 11.808238636363637  17.340807174887892 11.735795454545457  L 18.201793721973093 10.963068181818182  C 18.336322869955154 10.842329545454543  18.4932735426009 10.814157196969697  18.672645739910315 10.878551136363637  Z " stroke-width="0" stroke-dasharray="0" stroke="rgba(255, 255, 255, 0)" fill="none" transform="matrix(1 0 0 1 438 290 )" class="stroke" mask="url(#Clip816)" />
    <path d="M 8.609865470852018 10.431818181818182  L 17.650224215246638 2.318181818181818  L 21.524663677130047 5.795454545454546  L 12.484304932735425 13.909090909090908  L 8.609865470852018 13.909090909090908  L 8.609865470852018 10.431818181818182  Z " stroke-width="0" stroke-dasharray="0" stroke="rgba(255, 255, 255, 0)" fill="none" transform="matrix(1 0 0 1 438 290 )" class="stroke" mask="url(#Clip816)" />
    <path d="M 24 3.09090909090909  C 24 3.4128787878787867  23.87443946188341 3.6865530303030294  23.623318385650222 3.911931818181818  L 22.385650224215247 5.022727272727272  L 18.51121076233184 1.5454545454545459  L 19.748878923766817 0.43465909090909005  C 20 0.20928030303030143  20.30493273542601 0.09659090909090995  20.663677130044846 0.09659090909090995  C 21.022421524663677 0.09659090909090995  21.327354260089688 0.20928030303030143  21.57847533632287 0.43465909090909005  L 23.623318385650222 2.269886363636364  C 23.87443946188341 2.4952651515151487  24 2.7689393939393936  24 3.09090909090909  Z " stroke-width="0" stroke-dasharray="0" stroke="rgba(255, 255, 255, 0)" fill="none" transform="matrix(1 0 0 1 438 290 )" class="stroke" mask="url(#Clip816)" />
  </g>
</svg>