<?xml version="1.0" encoding="utf-8"?>
<svg version="1.1" xmlns:xlink="http://www.w3.org/1999/xlink" width="17px" height="13px" xmlns="http://www.w3.org/2000/svg">
  <defs>
    <pattern id="BGPattern" patternUnits="userSpaceOnUse" alignment="0 0" imageRepeat="None" />
    <mask fill="white" id="Clip822">
      <path d="M 0.8216666666665635 11.141928571428574  L 0.8216666666665635 1.8562142857142847  C 0.8216666666665635 1.2152214285714302  1.3505555555556157 0.6954999999999989  2.002222222222119 0.6954999999999989  L 14.98833333333323 0.6954999999999989  C 15.639999999999947 0.6954999999999989  16.168888888888784 1.2152214285714302  16.168888888888784 1.8562142857142847  L 16.168888888888784 11.141928571428574  C 16.168888888888784 11.783014285714286  15.639999999999947 12.302642857142859  14.98833333333323 12.302642857142859  L 2.002222222222119 12.302642857142859  C 1.3505555555556157 12.302642857142859  0.8216666666665635 11.783014285714286  0.8216666666665635 11.141928571428574  Z M 8.5 5.80162142857143  L 14.516111111111007 2  L 2.483888888888992 2  L 8.5 5.80162142857143  Z M 8.5 7.196614285714285  L 2.002222222222119 2.9405999999999985  L 2.002222222222119 11  L 14.98833333333323 11  L 14.98833333333323 2.9405999999999985  L 8.5 7.196614285714285  Z " fill-rule="evenodd" />
    </mask>
  </defs>
  <g transform="matrix(1 0 0 1 -1670 -19 )">
    <path d="M 0.8216666666665635 11.141928571428574  L 0.8216666666665635 1.8562142857142847  C 0.8216666666665635 1.2152214285714302  1.3505555555556157 0.6954999999999989  2.002222222222119 0.6954999999999989  L 14.98833333333323 0.6954999999999989  C 15.639999999999947 0.6954999999999989  16.168888888888784 1.2152214285714302  16.168888888888784 1.8562142857142847  L 16.168888888888784 11.141928571428574  C 16.168888888888784 11.783014285714286  15.639999999999947 12.302642857142859  14.98833333333323 12.302642857142859  L 2.002222222222119 12.302642857142859  C 1.3505555555556157 12.302642857142859  0.8216666666665635 11.783014285714286  0.8216666666665635 11.141928571428574  Z M 8.5 5.80162142857143  L 14.516111111111007 2  L 2.483888888888992 2  L 8.5 5.80162142857143  Z M 8.5 7.196614285714285  L 2.002222222222119 2.9405999999999985  L 2.002222222222119 11  L 14.98833333333323 11  L 14.98833333333323 2.9405999999999985  L 8.5 7.196614285714285  Z " fill-rule="nonzero" fill="rgba(0, 0, 0, 1)" stroke="none" transform="matrix(1 0 0 1 1670 19 )" class="fill" />
    <path d="M 0.8216666666665635 11.141928571428574  L 0.8216666666665635 1.8562142857142847  C 0.8216666666665635 1.2152214285714302  1.3505555555556157 0.6954999999999989  2.002222222222119 0.6954999999999989  L 14.98833333333323 0.6954999999999989  C 15.639999999999947 0.6954999999999989  16.168888888888784 1.2152214285714302  16.168888888888784 1.8562142857142847  L 16.168888888888784 11.141928571428574  C 16.168888888888784 11.783014285714286  15.639999999999947 12.302642857142859  14.98833333333323 12.302642857142859  L 2.002222222222119 12.302642857142859  C 1.3505555555556157 12.302642857142859  0.8216666666665635 11.783014285714286  0.8216666666665635 11.141928571428574  Z " stroke-width="0" stroke-dasharray="0" stroke="rgba(255, 255, 255, 0)" fill="none" transform="matrix(1 0 0 1 1670 19 )" class="stroke" mask="url(#Clip822)" />
    <path d="M 8.5 5.80162142857143  L 14.516111111111007 2  L 2.483888888888992 2  L 8.5 5.80162142857143  Z " stroke-width="0" stroke-dasharray="0" stroke="rgba(255, 255, 255, 0)" fill="none" transform="matrix(1 0 0 1 1670 19 )" class="stroke" mask="url(#Clip822)" />
    <path d="M 8.5 7.196614285714285  L 2.002222222222119 2.9405999999999985  L 2.002222222222119 11  L 14.98833333333323 11  L 14.98833333333323 2.9405999999999985  L 8.5 7.196614285714285  Z " stroke-width="0" stroke-dasharray="0" stroke="rgba(255, 255, 255, 0)" fill="none" transform="matrix(1 0 0 1 1670 19 )" class="stroke" mask="url(#Clip822)" />
  </g>
</svg>