<?xml version="1.0" encoding="utf-8"?>
<svg version="1.1" xmlns:xlink="http://www.w3.org/1999/xlink" width="19px" height="18px" xmlns="http://www.w3.org/2000/svg">
  <defs>
    <pattern id="BGPattern" patternUnits="userSpaceOnUse" alignment="0 0" imageRepeat="None" />
    <mask fill="white" id="Clip824">
      <path d="M 0.2638888888888889 9  C 0.2638888888888889 13.832500000000003  4.401666666666744 17.75  9.5 17.75  C 14.598333333333256 17.75  18.73611111111111 13.832500000000003  18.73611111111111 9  C 18.73611111111111 4.1675  14.598333333333256 0.25  9.5 0.25  C 4.401666666666744 0.25  0.2638888888888889 4.1675  0.2638888888888889 9  Z M 17.416666666666664 9  C 17.416666666666664 10.537100000000002  16.931111111111072 11.9662  16.086666666666677 13.155700000000003  C 14.081111111111026 12.095599999999997  11.853888888888909 11.5  9.5 11.5  C 7.146111111111092 11.5  4.918888888888976 12.095599999999997  2.913333333333324 13.155700000000003  C 2.068888888888927 11.966099999999997  1.5833333333333333 10.537100000000002  1.5833333333333333 9  C 1.5833333333333333 4.857900000000001  5.129999999999895 1.5  9.5 1.5  C 13.870000000000106 1.5  17.416666666666664 4.857900000000001  17.416666666666664 9  Z M 9.5 12.75  C 11.53722222222229 12.75  13.479444444444425 13.247  15.252777777777824 14.148200000000003  C 13.817222222222135 15.5963  11.76944444444454 16.5  9.5 16.5  C 7.230555555555459 16.5  5.182777777777864 15.5963  3.7472222222221743 14.148200000000003  C 5.520555555555575 13.247  7.462777777777711 12.75  9.5 12.75  Z " fill-rule="evenodd" />
    </mask>
  </defs>
  <g transform="matrix(1 0 0 1 -1527 -18 )">
    <path d="M 0.2638888888888889 9  C 0.2638888888888889 13.832500000000003  4.401666666666744 17.75  9.5 17.75  C 14.598333333333256 17.75  18.73611111111111 13.832500000000003  18.73611111111111 9  C 18.73611111111111 4.1675  14.598333333333256 0.25  9.5 0.25  C 4.401666666666744 0.25  0.2638888888888889 4.1675  0.2638888888888889 9  Z M 17.416666666666664 9  C 17.416666666666664 10.537100000000002  16.931111111111072 11.9662  16.086666666666677 13.155700000000003  C 14.081111111111026 12.095599999999997  11.853888888888909 11.5  9.5 11.5  C 7.146111111111092 11.5  4.918888888888976 12.095599999999997  2.913333333333324 13.155700000000003  C 2.068888888888927 11.966099999999997  1.5833333333333333 10.537100000000002  1.5833333333333333 9  C 1.5833333333333333 4.857900000000001  5.129999999999895 1.5  9.5 1.5  C 13.870000000000106 1.5  17.416666666666664 4.857900000000001  17.416666666666664 9  Z M 9.5 12.75  C 11.53722222222229 12.75  13.479444444444425 13.247  15.252777777777824 14.148200000000003  C 13.817222222222135 15.5963  11.76944444444454 16.5  9.5 16.5  C 7.230555555555459 16.5  5.182777777777864 15.5963  3.7472222222221743 14.148200000000003  C 5.520555555555575 13.247  7.462777777777711 12.75  9.5 12.75  Z " fill-rule="nonzero" fill="rgba(0, 0, 0, 1)" stroke="none" transform="matrix(1 0 0 1 1527 18 )" class="fill" />
    <path d="M 0.2638888888888889 9  C 0.2638888888888889 13.832500000000003  4.401666666666744 17.75  9.5 17.75  C 14.598333333333256 17.75  18.73611111111111 13.832500000000003  18.73611111111111 9  C 18.73611111111111 4.1675  14.598333333333256 0.25  9.5 0.25  C 4.401666666666744 0.25  0.2638888888888889 4.1675  0.2638888888888889 9  Z " stroke-width="0" stroke-dasharray="0" stroke="rgba(255, 255, 255, 0)" fill="none" transform="matrix(1 0 0 1 1527 18 )" class="stroke" mask="url(#Clip824)" />
    <path d="M 17.416666666666664 9  C 17.416666666666664 10.537100000000002  16.931111111111072 11.9662  16.086666666666677 13.155700000000003  C 14.081111111111026 12.095599999999997  11.853888888888909 11.5  9.5 11.5  C 7.146111111111092 11.5  4.918888888888976 12.095599999999997  2.913333333333324 13.155700000000003  C 2.068888888888927 11.966099999999997  1.5833333333333333 10.537100000000002  1.5833333333333333 9  C 1.5833333333333333 4.857900000000001  5.129999999999895 1.5  9.5 1.5  C 13.870000000000106 1.5  17.416666666666664 4.857900000000001  17.416666666666664 9  Z " stroke-width="0" stroke-dasharray="0" stroke="rgba(255, 255, 255, 0)" fill="none" transform="matrix(1 0 0 1 1527 18 )" class="stroke" mask="url(#Clip824)" />
    <path d="M 9.5 12.75  C 11.53722222222229 12.75  13.479444444444425 13.247  15.252777777777824 14.148200000000003  C 13.817222222222135 15.5963  11.76944444444454 16.5  9.5 16.5  C 7.230555555555459 16.5  5.182777777777864 15.5963  3.7472222222221743 14.148200000000003  C 5.520555555555575 13.247  7.462777777777711 12.75  9.5 12.75  Z " stroke-width="0" stroke-dasharray="0" stroke="rgba(255, 255, 255, 0)" fill="none" transform="matrix(1 0 0 1 1527 18 )" class="stroke" mask="url(#Clip824)" />
  </g>
</svg>