<?xml version="1.0" encoding="utf-8"?>
<svg version="1.1" xmlns:xlink="http://www.w3.org/1999/xlink" width="15px" height="16px" xmlns="http://www.w3.org/2000/svg">
  <defs>
    <pattern id="BGPattern" patternUnits="userSpaceOnUse" alignment="0 0" imageRepeat="None" />
    <mask fill="white" id="Clip827">
      <path d="M 0.3937500000000682 4.249955555555554  L 7.5 0.5  L 14.606249999999932 4.249955555555554  L 14.606249999999932 11.750044444444447  L 7.5 15.5  L 0.3937500000000682 11.750044444444447  L 0.3937500000000682 4.249955555555554  Z M 7.5 1.7717333333333347  L 1.5656250000000682 4.90311111111111  L 1.5656250000000682 11.096888888888891  L 7.5 14.228266666666665  L 13.434374999999932 11.096888888888891  L 13.434374999999932 4.90311111111111  L 7.5 1.7717333333333347  Z " fill-rule="evenodd" />
    </mask>
  </defs>
  <g transform="matrix(1 0 0 1 -1892 -17 )">
    <path d="M 0.3937500000000682 4.249955555555554  L 7.5 0.5  L 14.606249999999932 4.249955555555554  L 14.606249999999932 11.750044444444447  L 7.5 15.5  L 0.3937500000000682 11.750044444444447  L 0.3937500000000682 4.249955555555554  Z M 7.5 1.7717333333333347  L 1.5656250000000682 4.90311111111111  L 1.5656250000000682 11.096888888888891  L 7.5 14.228266666666665  L 13.434374999999932 11.096888888888891  L 13.434374999999932 4.90311111111111  L 7.5 1.7717333333333347  Z " fill-rule="nonzero" fill="rgba(0, 0, 0, 0.8980392156862745)" stroke="none" transform="matrix(1 0 0 1 1892 17 )" class="fill" />
    <path d="M 0.3937500000000682 4.249955555555554  L 7.5 0.5  L 14.606249999999932 4.249955555555554  L 14.606249999999932 11.750044444444447  L 7.5 15.5  L 0.3937500000000682 11.750044444444447  L 0.3937500000000682 4.249955555555554  Z " stroke-width="0" stroke-dasharray="0" stroke="rgba(255, 255, 255, 0)" fill="none" transform="matrix(1 0 0 1 1892 17 )" class="stroke" mask="url(#Clip827)" />
    <path d="M 7.5 1.7717333333333347  L 1.5656250000000682 4.90311111111111  L 1.5656250000000682 11.096888888888891  L 7.5 14.228266666666665  L 13.434374999999932 11.096888888888891  L 13.434374999999932 4.90311111111111  L 7.5 1.7717333333333347  Z " stroke-width="0" stroke-dasharray="0" stroke="rgba(255, 255, 255, 0)" fill="none" transform="matrix(1 0 0 1 1892 17 )" class="stroke" mask="url(#Clip827)" />
  </g>
</svg>