<?xml version="1.0" encoding="utf-8"?>
<svg version="1.1" xmlns:xlink="http://www.w3.org/1999/xlink" width="17px" height="16px" xmlns="http://www.w3.org/2000/svg">
  <defs>
    <pattern id="BGPattern" patternUnits="userSpaceOnUse" alignment="0 0" imageRepeat="None" />
    <mask fill="white" id="Clip828">
      <path d="M 0.35888888888899195 8.11111111111111  L 0.35888888888899195 7.888888888888889  C 0.35888888888899195 3.654755555555555  4.004444444444453 0.2223111111111109  8.5 0.2222222222222222  C 12.995555555555546 0.2222222222222222  16.65055555555566 3.654666666666666  16.65055555555566 7.888888888888889  L 16.65055555555566 8.11111111111111  C 16.65055555555566 12.345333333333334  12.995555555555546 15.777777777777779  8.5 15.777777777777779  C 4.004444444444453 15.777688888888886  0.35888888888899195 12.345244444444441  0.35888888888899195 8.11111111111111  Z M 9.595555555555633 14.5856  C 12.76888888888887 14.112444444444444  15.233888888888993 11.622844444444443  15.451111111111016 8.555555555555555  L 11.90944444444435 8.555555555555555  C 11.79611111111112 10.687733333333332  11.021666666666736 12.794755555555557  9.595555555555633 14.5856  Z M 9.595555555555633 1.4144000000000005  C 11.021666666666736 3.205244444444443  11.79611111111112 5.312266666666665  11.90944444444435 7.444444444444445  L 15.451111111111016 7.444444444444445  C 15.233888888888993 4.377155555555555  12.76888888888887 1.8875555555555554  9.595555555555633 1.4144000000000005  Z M 6.271111111111205 7.444444444444445  L 10.728888888888793 7.444444444444445  C 10.60611111111113 5.47191111111111  9.869444444444486 3.5261333333333322  8.5 1.8922666666666652  C 7.130555555555512 3.5261333333333322  6.393888888888872 5.47191111111111  6.271111111111205 7.444444444444445  Z M 7.404444444444367 14.585511111111114  C 5.978333333333265 12.794666666666664  5.203888888888881 10.687733333333332  5.0905555555556505 8.555555555555555  L 1.5488888888889834 8.555555555555555  C 1.7661111111110082 11.622755555555557  4.231111111111129 14.112266666666667  7.404444444444367 14.585511111111114  Z M 1.5488888888889834 7.444444444444445  L 5.0905555555556505 7.444444444444445  C 5.203888888888881 5.312266666666665  5.978333333333265 3.2053333333333347  7.404444444444367 1.4144888888888891  C 4.231111111111129 1.8877333333333328  1.7661111111110082 4.377244444444443  1.5488888888889834 7.444444444444445  Z M 8.5 14.107733333333336  C 9.869444444444486 12.473866666666664  10.60611111111113 10.528088888888886  10.728888888888793 8.555555555555555  L 6.271111111111205 8.555555555555555  C 6.393888888888872 10.528088888888886  7.130555555555512 12.473866666666664  8.5 14.107733333333336  Z " fill-rule="evenodd" />
    </mask>
  </defs>
  <g transform="matrix(1 0 0 1 -1713 -17 )">
    <path d="M 0.35888888888899195 8.11111111111111  L 0.35888888888899195 7.888888888888889  C 0.35888888888899195 3.654755555555555  4.004444444444453 0.2223111111111109  8.5 0.2222222222222222  C 12.995555555555546 0.2222222222222222  16.65055555555566 3.654666666666666  16.65055555555566 7.888888888888889  L 16.65055555555566 8.11111111111111  C 16.65055555555566 12.345333333333334  12.995555555555546 15.777777777777779  8.5 15.777777777777779  C 4.004444444444453 15.777688888888886  0.35888888888899195 12.345244444444441  0.35888888888899195 8.11111111111111  Z M 9.595555555555633 14.5856  C 12.76888888888887 14.112444444444444  15.233888888888993 11.622844444444443  15.451111111111016 8.555555555555555  L 11.90944444444435 8.555555555555555  C 11.79611111111112 10.687733333333332  11.021666666666736 12.794755555555557  9.595555555555633 14.5856  Z M 9.595555555555633 1.4144000000000005  C 11.021666666666736 3.205244444444443  11.79611111111112 5.312266666666665  11.90944444444435 7.444444444444445  L 15.451111111111016 7.444444444444445  C 15.233888888888993 4.377155555555555  12.76888888888887 1.8875555555555554  9.595555555555633 1.4144000000000005  Z M 6.271111111111205 7.444444444444445  L 10.728888888888793 7.444444444444445  C 10.60611111111113 5.47191111111111  9.869444444444486 3.5261333333333322  8.5 1.8922666666666652  C 7.130555555555512 3.5261333333333322  6.393888888888872 5.47191111111111  6.271111111111205 7.444444444444445  Z M 7.404444444444367 14.585511111111114  C 5.978333333333265 12.794666666666664  5.203888888888881 10.687733333333332  5.0905555555556505 8.555555555555555  L 1.5488888888889834 8.555555555555555  C 1.7661111111110082 11.622755555555557  4.231111111111129 14.112266666666667  7.404444444444367 14.585511111111114  Z M 1.5488888888889834 7.444444444444445  L 5.0905555555556505 7.444444444444445  C 5.203888888888881 5.312266666666665  5.978333333333265 3.2053333333333347  7.404444444444367 1.4144888888888891  C 4.231111111111129 1.8877333333333328  1.7661111111110082 4.377244444444443  1.5488888888889834 7.444444444444445  Z M 8.5 14.107733333333336  C 9.869444444444486 12.473866666666664  10.60611111111113 10.528088888888886  10.728888888888793 8.555555555555555  L 6.271111111111205 8.555555555555555  C 6.393888888888872 10.528088888888886  7.130555555555512 12.473866666666664  8.5 14.107733333333336  Z " fill-rule="nonzero" fill="rgba(0, 0, 0, 0.8980392156862745)" stroke="none" transform="matrix(1 0 0 1 1713 17 )" class="fill" />
    <path d="M 0.35888888888899195 8.11111111111111  L 0.35888888888899195 7.888888888888889  C 0.35888888888899195 3.654755555555555  4.004444444444453 0.2223111111111109  8.5 0.2222222222222222  C 12.995555555555546 0.2222222222222222  16.65055555555566 3.654666666666666  16.65055555555566 7.888888888888889  L 16.65055555555566 8.11111111111111  C 16.65055555555566 12.345333333333334  12.995555555555546 15.777777777777779  8.5 15.777777777777779  C 4.004444444444453 15.777688888888886  0.35888888888899195 12.345244444444441  0.35888888888899195 8.11111111111111  Z " stroke-width="0" stroke-dasharray="0" stroke="rgba(255, 255, 255, 0)" fill="none" transform="matrix(1 0 0 1 1713 17 )" class="stroke" mask="url(#Clip828)" />
    <path d="M 9.595555555555633 14.5856  C 12.76888888888887 14.112444444444444  15.233888888888993 11.622844444444443  15.451111111111016 8.555555555555555  L 11.90944444444435 8.555555555555555  C 11.79611111111112 10.687733333333332  11.021666666666736 12.794755555555557  9.595555555555633 14.5856  Z " stroke-width="0" stroke-dasharray="0" stroke="rgba(255, 255, 255, 0)" fill="none" transform="matrix(1 0 0 1 1713 17 )" class="stroke" mask="url(#Clip828)" />
    <path d="M 9.595555555555633 1.4144000000000005  C 11.021666666666736 3.205244444444443  11.79611111111112 5.312266666666665  11.90944444444435 7.444444444444445  L 15.451111111111016 7.444444444444445  C 15.233888888888993 4.377155555555555  12.76888888888887 1.8875555555555554  9.595555555555633 1.4144000000000005  Z " stroke-width="0" stroke-dasharray="0" stroke="rgba(255, 255, 255, 0)" fill="none" transform="matrix(1 0 0 1 1713 17 )" class="stroke" mask="url(#Clip828)" />
    <path d="M 6.271111111111205 7.444444444444445  L 10.728888888888793 7.444444444444445  C 10.60611111111113 5.47191111111111  9.869444444444486 3.5261333333333322  8.5 1.8922666666666652  C 7.130555555555512 3.5261333333333322  6.393888888888872 5.47191111111111  6.271111111111205 7.444444444444445  Z " stroke-width="0" stroke-dasharray="0" stroke="rgba(255, 255, 255, 0)" fill="none" transform="matrix(1 0 0 1 1713 17 )" class="stroke" mask="url(#Clip828)" />
    <path d="M 7.404444444444367 14.585511111111114  C 5.978333333333265 12.794666666666664  5.203888888888881 10.687733333333332  5.0905555555556505 8.555555555555555  L 1.5488888888889834 8.555555555555555  C 1.7661111111110082 11.622755555555557  4.231111111111129 14.112266666666667  7.404444444444367 14.585511111111114  Z " stroke-width="0" stroke-dasharray="0" stroke="rgba(255, 255, 255, 0)" fill="none" transform="matrix(1 0 0 1 1713 17 )" class="stroke" mask="url(#Clip828)" />
    <path d="M 1.5488888888889834 7.444444444444445  L 5.0905555555556505 7.444444444444445  C 5.203888888888881 5.312266666666665  5.978333333333265 3.2053333333333347  7.404444444444367 1.4144888888888891  C 4.231111111111129 1.8877333333333328  1.7661111111110082 4.377244444444443  1.5488888888889834 7.444444444444445  Z " stroke-width="0" stroke-dasharray="0" stroke="rgba(255, 255, 255, 0)" fill="none" transform="matrix(1 0 0 1 1713 17 )" class="stroke" mask="url(#Clip828)" />
    <path d="M 8.5 14.107733333333336  C 9.869444444444486 12.473866666666664  10.60611111111113 10.528088888888886  10.728888888888793 8.555555555555555  L 6.271111111111205 8.555555555555555  C 6.393888888888872 10.528088888888886  7.130555555555512 12.473866666666664  8.5 14.107733333333336  Z " stroke-width="0" stroke-dasharray="0" stroke="rgba(255, 255, 255, 0)" fill="none" transform="matrix(1 0 0 1 1713 17 )" class="stroke" mask="url(#Clip828)" />
  </g>
</svg>