<?xml version="1.0" encoding="utf-8"?>
<svg version="1.1" xmlns:xlink="http://www.w3.org/1999/xlink" width="7px" height="7px" xmlns="http://www.w3.org/2000/svg">
  <defs>
    <pattern id="BGPattern" patternUnits="userSpaceOnUse" alignment="0 0" imageRepeat="None" />
    <mask fill="white" id="Clip830">
      <path d="M 6.151249999999976 2.6590375000000015  C 6.151249999999976 1.1959500000000012  4.961250000000064 0.006650000000000045  3.5 0.006650000000000045  C 2.0387499999999363 0.006650000000000045  0.8487500000000239 1.1959500000000012  0.8487500000000239 2.6590375000000015  L 1.9425000000000239 2.6590375000000015  C 1.9425000000000239 1.8000500000000015  2.642499999999984 1.1004  3.5 1.1004  C 4.357500000000016 1.1004  5.057499999999976 1.8000500000000015  5.057499999999976 2.6590375000000015  C 5.057499999999976 3.2472124999999985  4.576250000000016 3.836962500000001  3.9375 4.094737500000001  L 3.9375 4.095875000000001  C 3.3599999999999284 4.334925  2.9487499999999045 4.904550000000003  2.9487499999999045 5.5699000000000005  L 2.9487499999999045 6.5625  L 4.0424999999999045 6.5625  L 4.0424999999999045 5.5699000000000005  C 4.0424999999999045 5.357449999999998  4.173749999999984 5.181399999999998  4.348750000000024 5.107375000000003  C 5.258749999999992 4.7390875  6.151249999999976 3.826725  6.151249999999976 2.6590375000000015  Z " fill-rule="evenodd" />
    </mask>
  </defs>
  <g transform="matrix(1 0 0 1 -1850 -20 )">
    <path d="M 6.151249999999976 2.6590375000000015  C 6.151249999999976 1.1959500000000012  4.961250000000064 0.006650000000000045  3.5 0.006650000000000045  C 2.0387499999999363 0.006650000000000045  0.8487500000000239 1.1959500000000012  0.8487500000000239 2.6590375000000015  L 1.9425000000000239 2.6590375000000015  C 1.9425000000000239 1.8000500000000015  2.642499999999984 1.1004  3.5 1.1004  C 4.357500000000016 1.1004  5.057499999999976 1.8000500000000015  5.057499999999976 2.6590375000000015  C 5.057499999999976 3.2472124999999985  4.576250000000016 3.836962500000001  3.9375 4.094737500000001  L 3.9375 4.095875000000001  C 3.3599999999999284 4.334925  2.9487499999999045 4.904550000000003  2.9487499999999045 5.5699000000000005  L 2.9487499999999045 6.5625  L 4.0424999999999045 6.5625  L 4.0424999999999045 5.5699000000000005  C 4.0424999999999045 5.357449999999998  4.173749999999984 5.181399999999998  4.348750000000024 5.107375000000003  C 5.258749999999992 4.7390875  6.151249999999976 3.826725  6.151249999999976 2.6590375000000015  Z " fill-rule="nonzero" fill="rgba(0, 0, 0, 0.8980392156862745)" stroke="none" transform="matrix(1 0 0 1 1850 20 )" class="fill" />
    <path d="M 6.151249999999976 2.6590375000000015  C 6.151249999999976 1.1959500000000012  4.961250000000064 0.006650000000000045  3.5 0.006650000000000045  C 2.0387499999999363 0.006650000000000045  0.8487500000000239 1.1959500000000012  0.8487500000000239 2.6590375000000015  L 1.9425000000000239 2.6590375000000015  C 1.9425000000000239 1.8000500000000015  2.642499999999984 1.1004  3.5 1.1004  C 4.357500000000016 1.1004  5.057499999999976 1.8000500000000015  5.057499999999976 2.6590375000000015  C 5.057499999999976 3.2472124999999985  4.576250000000016 3.836962500000001  3.9375 4.094737500000001  L 3.9375 4.095875000000001  C 3.3599999999999284 4.334925  2.9487499999999045 4.904550000000003  2.9487499999999045 5.5699000000000005  L 2.9487499999999045 6.5625  L 4.0424999999999045 6.5625  L 4.0424999999999045 5.5699000000000005  C 4.0424999999999045 5.357449999999998  4.173749999999984 5.181399999999998  4.348750000000024 5.107375000000003  C 5.258749999999992 4.7390875  6.151249999999976 3.826725  6.151249999999976 2.6590375000000015  Z " stroke-width="0" stroke-dasharray="0" stroke="rgba(255, 255, 255, 0)" fill="none" transform="matrix(1 0 0 1 1850 20 )" class="stroke" mask="url(#Clip830)" />
  </g>
</svg>