<?xml version="1.0" encoding="utf-8"?>
<svg version="1.1" xmlns:xlink="http://www.w3.org/1999/xlink" width="17px" height="16px" xmlns="http://www.w3.org/2000/svg">
  <defs>
    <pattern id="BGPattern" patternUnits="userSpaceOnUse" alignment="0 0" imageRepeat="None" />
    <mask fill="white" id="Clip831">
      <path d="M 8.5 15.777777777777779  C 13.061666666666598 15.777777777777779  16.76388888888889 12.29555555555556  16.76388888888889 8  C 16.76388888888889 3.704444444444445  13.061666666666598 0.2222222222222222  8.5 0.2222222222222222  C 3.9383333333334023 0.2222222222222222  0.2361111111111111 3.704444444444445  0.2361111111111111 8  C 0.2361111111111111 12.29555555555556  3.9383333333334023 15.777777777777779  8.5 15.777777777777779  Z M 8.5 1.3333333333333333  C 12.410000000000094 1.3333333333333333  15.583333333333332 4.318133333333334  15.583333333333332 8  C 15.583333333333332 11.681866666666666  12.410000000000094 14.666666666666666  8.5 14.666666666666666  C 4.589999999999906 14.666666666666666  1.4166666666666665 11.681866666666666  1.4166666666666665 8  C 1.4166666666666665 4.318133333333334  4.589999999999906 1.3333333333333333  8.5 1.3333333333333333  Z " fill-rule="evenodd" />
    </mask>
  </defs>
  <g transform="matrix(1 0 0 1 -1847 -17 )">
    <path d="M 8.5 15.777777777777779  C 13.061666666666598 15.777777777777779  16.76388888888889 12.29555555555556  16.76388888888889 8  C 16.76388888888889 3.704444444444445  13.061666666666598 0.2222222222222222  8.5 0.2222222222222222  C 3.9383333333334023 0.2222222222222222  0.2361111111111111 3.704444444444445  0.2361111111111111 8  C 0.2361111111111111 12.29555555555556  3.9383333333334023 15.777777777777779  8.5 15.777777777777779  Z M 8.5 1.3333333333333333  C 12.410000000000094 1.3333333333333333  15.583333333333332 4.318133333333334  15.583333333333332 8  C 15.583333333333332 11.681866666666666  12.410000000000094 14.666666666666666  8.5 14.666666666666666  C 4.589999999999906 14.666666666666666  1.4166666666666665 11.681866666666666  1.4166666666666665 8  C 1.4166666666666665 4.318133333333334  4.589999999999906 1.3333333333333333  8.5 1.3333333333333333  Z " fill-rule="nonzero" fill="rgba(0, 0, 0, 0.8980392156862745)" stroke="none" transform="matrix(1 0 0 1 1847 17 )" class="fill" />
    <path d="M 8.5 15.777777777777779  C 13.061666666666598 15.777777777777779  16.76388888888889 12.29555555555556  16.76388888888889 8  C 16.76388888888889 3.704444444444445  13.061666666666598 0.2222222222222222  8.5 0.2222222222222222  C 3.9383333333334023 0.2222222222222222  0.2361111111111111 3.704444444444445  0.2361111111111111 8  C 0.2361111111111111 12.29555555555556  3.9383333333334023 15.777777777777779  8.5 15.777777777777779  Z " stroke-width="0" stroke-dasharray="0" stroke="rgba(255, 255, 255, 0)" fill="none" transform="matrix(1 0 0 1 1847 17 )" class="stroke" mask="url(#Clip831)" />
    <path d="M 8.5 1.3333333333333333  C 12.410000000000094 1.3333333333333333  15.583333333333332 4.318133333333334  15.583333333333332 8  C 15.583333333333332 11.681866666666666  12.410000000000094 14.666666666666666  8.5 14.666666666666666  C 4.589999999999906 14.666666666666666  1.4166666666666665 11.681866666666666  1.4166666666666665 8  C 1.4166666666666665 4.318133333333334  4.589999999999906 1.3333333333333333  8.5 1.3333333333333333  Z " stroke-width="0" stroke-dasharray="0" stroke="rgba(255, 255, 255, 0)" fill="none" transform="matrix(1 0 0 1 1847 17 )" class="stroke" mask="url(#Clip831)" />
  </g>
</svg>