<?xml version="1.0" encoding="utf-8"?>
<svg version="1.1" xmlns:xlink="http://www.w3.org/1999/xlink" width="14px" height="16px" xmlns="http://www.w3.org/2000/svg">
  <defs>
    <pattern id="BGPattern" patternUnits="userSpaceOnUse" alignment="0 0" imageRepeat="None" />
    <mask fill="white" id="Clip832">
      <path d="M 10.388000000000103 15.222222222222221  L 4.554666666666769 15.222222222222221  L 4.554666666666769 13.215733333333333  L 3.4906666666666752 13.215733333333333  C 2.6506666666665906 13.215733333333333  1.96933333333324 12.564266666666665  1.96933333333324 11.76062222222222  C 1.96933333333324 11.478666666666665  1.7266666666665818 11.249955555555553  1.4279999999999744 11.249955555555553  L 0.5786666666665647 11.249955555555553  L 0.5786666666665647 10.305600000000002  L 1.4279999999999744 10.305600000000002  C 1.4933333333332486 10.305600000000002  1.5586666666667346 10.30951111111111  1.6240000000000085 10.317066666666664  C 1.661333333333308 10.322044444444442  1.7079999999999322 10.328533333333333  1.7453333333332315 10.336444444444446  C 2.2400000000000846 10.434755555555556  2.6413333333332654 10.759288888888888  2.8373333333332993 11.190844444444444  C 2.9119999999998982 11.365866666666667  2.9586666666667343 11.558399999999999  2.9586666666667343 11.76062222222222  C 2.9586666666667343 12.006933333333336  3.135999999999907 12.212533333333333  3.3880000000001016 12.26062222222222  C 3.4160000000000763 12.267644444444443  3.4533333333333758 12.271288888888888  3.4906666666666752 12.271288888888888  L 4.554666666666769 12.271288888888888  L 4.554666666666769 11.847555555555553  C 4.554666666666769 11.707911111111109  4.564000000000093 11.569866666666668  4.592000000000068 11.434933333333333  C 4.629333333333367 11.228088888888887  4.703999999999966 11.028711111111111  4.806666666666751 10.842577777777775  C 4.424000000000008 10.71991111111111  4.06933333333324 10.571555555555555  3.7333333333333334 10.400711111111113  L 3.7053333333333587 10.388177777777779  C 3.1266666666665817 10.088977777777776  2.6133333333332907 9.72168888888889  2.2026666666665733 9.30257777777778  C 1.4746666666665986 8.55591111111111  1.0359999999999068 7.6447111111111115  1.0359999999999068 6.661244444444445  C 1.0359999999999068 5.722577777777777  1.4279999999999744 4.849688888888888  2.109333333333325 4.122844444444445  L 2.053333333333376 3.8789333333333342  C 1.8293333333333672 2.808888888888889  2.053333333333376 1.6960888888888899  2.688000000000102 0.785511111111112  C 3.826666666666582 0.7186666666666655  4.955999999999949 1.087822222222223  5.8146666666666835 1.8115555555555558  L 6.225333333333402 2.1568888888888895  C 6.6173333333332565 2.1032888888888883  7.018666666666649 2.07511111111111  7.429333333333367 2.07511111111111  C 7.886666666666709 2.07511111111111  8.334666666666726 2.1092444444444456  8.764000000000093 2.174044444444443  L 9.193333333333248 1.8116444444444444  C 10.051999999999982 1.087822222222223  11.172000000000025 0.7187555555555541  12.320000000000043 0.7856000000000007  C 12.954666666666768 1.6960888888888899  13.178666666666565 2.808977777777778  12.954666666666768 3.8790222222222233  L 12.870666666666633 4.2483555555555546  C 13.477333333333384 4.949244444444446  13.822666666666617 5.776000000000001  13.822666666666617 6.661244444444445  C 13.822666666666617 8.195022222222223  12.777333333333385 9.552888888888889  11.1626666666667 10.385511111111112  C 10.826666666666583 10.558222222222222  10.472000000000024 10.708355555555556  10.089333333333283 10.83271111111111  C 10.220000000000041 11.055377777777778  10.31333333333329 11.298400000000003  10.35066666666659 11.551288888888886  C 10.369333333333241 11.667822222222222  10.388000000000103 11.786488888888888  10.388000000000103 11.906222222222222  L 10.388000000000103 15.222222222222221  Z M 7.429333333333367 3.186222222222221  C 7.0746666666666 3.186222222222221  6.729333333333367 3.2105777777777766  6.393333333333248 3.25671111111111  L 5.8519999999999825 3.3300444444444457  L 5.040000000000084 2.643555555555556  C 4.573333333333418 2.2456888888888877  3.9853333333333163 1.9946666666666664  3.3693333333332403 1.915733333333334  C 3.135999999999907 2.4630222222222233  3.0706666666666327 3.068977777777778  3.201333333333393 3.6572444444444443  L 3.3693333333332403 4.443822222222224  L 2.9773333333333842 4.858755555555557  C 2.4640000000000937 5.413599999999999  2.2026666666665733 6.032444444444445  2.2026666666665733 6.661244444444445  C 2.2026666666665733 7.881511111111113  3.248000000000017 9.163911111111108  5.179999999999957 9.790666666666665  L 6.44933333333341 10.2032  L 5.842666666666658 11.345066666666664  C 5.758666666666734 11.498933333333335  5.721333333333435 11.670577777777774  5.721333333333435 11.847555555555553  L 5.721333333333435 14.11111111111111  L 9.221333333333435 14.11111111111111  L 9.221333333333435 11.906222222222222  C 9.221333333333435 11.716444444444441  9.165333333333274 11.532177777777779  9.072000000000026 11.36942222222222  L 8.4 10.213244444444443  L 9.716000000000077 9.782400000000003  C 11.629333333333367 9.152  12.655999999999949 7.876088888888891  12.655999999999949 6.661244444444445  C 12.655999999999949 6.0672000000000015  12.431999999999942 5.484088888888888  11.974666666666598 4.954399999999999  L 11.620000000000044 4.545511111111113  L 11.806666666666752 3.657333333333333  C 11.9373333333333 3.0690666666666666  11.872000000000027 2.463111111111112  11.629333333333367 1.9158222222222225  C 11.013333333333291 1.9946666666666664  10.434666666666727 2.2457777777777768  9.96800000000006 2.6436444444444445  L 9.11866666666665 3.3537777777777773  L 8.577333333333385 3.271377777777777  C 8.213333333333292 3.2158222222222212  7.83066666666676 3.186222222222221  7.429333333333367 3.186222222222221  Z " fill-rule="evenodd" />
    </mask>
  </defs>
  <g transform="matrix(1 0 0 1 -1802 -17 )">
    <path d="M 10.388000000000103 15.222222222222221  L 4.554666666666769 15.222222222222221  L 4.554666666666769 13.215733333333333  L 3.4906666666666752 13.215733333333333  C 2.6506666666665906 13.215733333333333  1.96933333333324 12.564266666666665  1.96933333333324 11.76062222222222  C 1.96933333333324 11.478666666666665  1.7266666666665818 11.249955555555553  1.4279999999999744 11.249955555555553  L 0.5786666666665647 11.249955555555553  L 0.5786666666665647 10.305600000000002  L 1.4279999999999744 10.305600000000002  C 1.4933333333332486 10.305600000000002  1.5586666666667346 10.30951111111111  1.6240000000000085 10.317066666666664  C 1.661333333333308 10.322044444444442  1.7079999999999322 10.328533333333333  1.7453333333332315 10.336444444444446  C 2.2400000000000846 10.434755555555556  2.6413333333332654 10.759288888888888  2.8373333333332993 11.190844444444444  C 2.9119999999998982 11.365866666666667  2.9586666666667343 11.558399999999999  2.9586666666667343 11.76062222222222  C 2.9586666666667343 12.006933333333336  3.135999999999907 12.212533333333333  3.3880000000001016 12.26062222222222  C 3.4160000000000763 12.267644444444443  3.4533333333333758 12.271288888888888  3.4906666666666752 12.271288888888888  L 4.554666666666769 12.271288888888888  L 4.554666666666769 11.847555555555553  C 4.554666666666769 11.707911111111109  4.564000000000093 11.569866666666668  4.592000000000068 11.434933333333333  C 4.629333333333367 11.228088888888887  4.703999999999966 11.028711111111111  4.806666666666751 10.842577777777775  C 4.424000000000008 10.71991111111111  4.06933333333324 10.571555555555555  3.7333333333333334 10.400711111111113  L 3.7053333333333587 10.388177777777779  C 3.1266666666665817 10.088977777777776  2.6133333333332907 9.72168888888889  2.2026666666665733 9.30257777777778  C 1.4746666666665986 8.55591111111111  1.0359999999999068 7.6447111111111115  1.0359999999999068 6.661244444444445  C 1.0359999999999068 5.722577777777777  1.4279999999999744 4.849688888888888  2.109333333333325 4.122844444444445  L 2.053333333333376 3.8789333333333342  C 1.8293333333333672 2.808888888888889  2.053333333333376 1.6960888888888899  2.688000000000102 0.785511111111112  C 3.826666666666582 0.7186666666666655  4.955999999999949 1.087822222222223  5.8146666666666835 1.8115555555555558  L 6.225333333333402 2.1568888888888895  C 6.6173333333332565 2.1032888888888883  7.018666666666649 2.07511111111111  7.429333333333367 2.07511111111111  C 7.886666666666709 2.07511111111111  8.334666666666726 2.1092444444444456  8.764000000000093 2.174044444444443  L 9.193333333333248 1.8116444444444444  C 10.051999999999982 1.087822222222223  11.172000000000025 0.7187555555555541  12.320000000000043 0.7856000000000007  C 12.954666666666768 1.6960888888888899  13.178666666666565 2.808977777777778  12.954666666666768 3.8790222222222233  L 12.870666666666633 4.2483555555555546  C 13.477333333333384 4.949244444444446  13.822666666666617 5.776000000000001  13.822666666666617 6.661244444444445  C 13.822666666666617 8.195022222222223  12.777333333333385 9.552888888888889  11.1626666666667 10.385511111111112  C 10.826666666666583 10.558222222222222  10.472000000000024 10.708355555555556  10.089333333333283 10.83271111111111  C 10.220000000000041 11.055377777777778  10.31333333333329 11.298400000000003  10.35066666666659 11.551288888888886  C 10.369333333333241 11.667822222222222  10.388000000000103 11.786488888888888  10.388000000000103 11.906222222222222  L 10.388000000000103 15.222222222222221  Z M 7.429333333333367 3.186222222222221  C 7.0746666666666 3.186222222222221  6.729333333333367 3.2105777777777766  6.393333333333248 3.25671111111111  L 5.8519999999999825 3.3300444444444457  L 5.040000000000084 2.643555555555556  C 4.573333333333418 2.2456888888888877  3.9853333333333163 1.9946666666666664  3.3693333333332403 1.915733333333334  C 3.135999999999907 2.4630222222222233  3.0706666666666327 3.068977777777778  3.201333333333393 3.6572444444444443  L 3.3693333333332403 4.443822222222224  L 2.9773333333333842 4.858755555555557  C 2.4640000000000937 5.413599999999999  2.2026666666665733 6.032444444444445  2.2026666666665733 6.661244444444445  C 2.2026666666665733 7.881511111111113  3.248000000000017 9.163911111111108  5.179999999999957 9.790666666666665  L 6.44933333333341 10.2032  L 5.842666666666658 11.345066666666664  C 5.758666666666734 11.498933333333335  5.721333333333435 11.670577777777774  5.721333333333435 11.847555555555553  L 5.721333333333435 14.11111111111111  L 9.221333333333435 14.11111111111111  L 9.221333333333435 11.906222222222222  C 9.221333333333435 11.716444444444441  9.165333333333274 11.532177777777779  9.072000000000026 11.36942222222222  L 8.4 10.213244444444443  L 9.716000000000077 9.782400000000003  C 11.629333333333367 9.152  12.655999999999949 7.876088888888891  12.655999999999949 6.661244444444445  C 12.655999999999949 6.0672000000000015  12.431999999999942 5.484088888888888  11.974666666666598 4.954399999999999  L 11.620000000000044 4.545511111111113  L 11.806666666666752 3.657333333333333  C 11.9373333333333 3.0690666666666666  11.872000000000027 2.463111111111112  11.629333333333367 1.9158222222222225  C 11.013333333333291 1.9946666666666664  10.434666666666727 2.2457777777777768  9.96800000000006 2.6436444444444445  L 9.11866666666665 3.3537777777777773  L 8.577333333333385 3.271377777777777  C 8.213333333333292 3.2158222222222212  7.83066666666676 3.186222222222221  7.429333333333367 3.186222222222221  Z " fill-rule="nonzero" fill="rgba(0, 0, 0, 0.8980392156862745)" stroke="none" transform="matrix(1 0 0 1 1802 17 )" class="fill" />
    <path d="M 10.388000000000103 15.222222222222221  L 4.554666666666769 15.222222222222221  L 4.554666666666769 13.215733333333333  L 3.4906666666666752 13.215733333333333  C 2.6506666666665906 13.215733333333333  1.96933333333324 12.564266666666665  1.96933333333324 11.76062222222222  C 1.96933333333324 11.478666666666665  1.7266666666665818 11.249955555555553  1.4279999999999744 11.249955555555553  L 0.5786666666665647 11.249955555555553  L 0.5786666666665647 10.305600000000002  L 1.4279999999999744 10.305600000000002  C 1.4933333333332486 10.305600000000002  1.5586666666667346 10.30951111111111  1.6240000000000085 10.317066666666664  C 1.661333333333308 10.322044444444442  1.7079999999999322 10.328533333333333  1.7453333333332315 10.336444444444446  C 2.2400000000000846 10.434755555555556  2.6413333333332654 10.759288888888888  2.8373333333332993 11.190844444444444  C 2.9119999999998982 11.365866666666667  2.9586666666667343 11.558399999999999  2.9586666666667343 11.76062222222222  C 2.9586666666667343 12.006933333333336  3.135999999999907 12.212533333333333  3.3880000000001016 12.26062222222222  C 3.4160000000000763 12.267644444444443  3.4533333333333758 12.271288888888888  3.4906666666666752 12.271288888888888  L 4.554666666666769 12.271288888888888  L 4.554666666666769 11.847555555555553  C 4.554666666666769 11.707911111111109  4.564000000000093 11.569866666666668  4.592000000000068 11.434933333333333  C 4.629333333333367 11.228088888888887  4.703999999999966 11.028711111111111  4.806666666666751 10.842577777777775  C 4.424000000000008 10.71991111111111  4.06933333333324 10.571555555555555  3.7333333333333334 10.400711111111113  L 3.7053333333333587 10.388177777777779  C 3.1266666666665817 10.088977777777776  2.6133333333332907 9.72168888888889  2.2026666666665733 9.30257777777778  C 1.4746666666665986 8.55591111111111  1.0359999999999068 7.6447111111111115  1.0359999999999068 6.661244444444445  C 1.0359999999999068 5.722577777777777  1.4279999999999744 4.849688888888888  2.109333333333325 4.122844444444445  L 2.053333333333376 3.8789333333333342  C 1.8293333333333672 2.808888888888889  2.053333333333376 1.6960888888888899  2.688000000000102 0.785511111111112  C 3.826666666666582 0.7186666666666655  4.955999999999949 1.087822222222223  5.8146666666666835 1.8115555555555558  L 6.225333333333402 2.1568888888888895  C 6.6173333333332565 2.1032888888888883  7.018666666666649 2.07511111111111  7.429333333333367 2.07511111111111  C 7.886666666666709 2.07511111111111  8.334666666666726 2.1092444444444456  8.764000000000093 2.174044444444443  L 9.193333333333248 1.8116444444444444  C 10.051999999999982 1.087822222222223  11.172000000000025 0.7187555555555541  12.320000000000043 0.7856000000000007  C 12.954666666666768 1.6960888888888899  13.178666666666565 2.808977777777778  12.954666666666768 3.8790222222222233  L 12.870666666666633 4.2483555555555546  C 13.477333333333384 4.949244444444446  13.822666666666617 5.776000000000001  13.822666666666617 6.661244444444445  C 13.822666666666617 8.195022222222223  12.777333333333385 9.552888888888889  11.1626666666667 10.385511111111112  C 10.826666666666583 10.558222222222222  10.472000000000024 10.708355555555556  10.089333333333283 10.83271111111111  C 10.220000000000041 11.055377777777778  10.31333333333329 11.298400000000003  10.35066666666659 11.551288888888886  C 10.369333333333241 11.667822222222222  10.388000000000103 11.786488888888888  10.388000000000103 11.906222222222222  L 10.388000000000103 15.222222222222221  Z " stroke-width="0" stroke-dasharray="0" stroke="rgba(255, 255, 255, 0)" fill="none" transform="matrix(1 0 0 1 1802 17 )" class="stroke" mask="url(#Clip832)" />
    <path d="M 7.429333333333367 3.186222222222221  C 7.0746666666666 3.186222222222221  6.729333333333367 3.2105777777777766  6.393333333333248 3.25671111111111  L 5.8519999999999825 3.3300444444444457  L 5.040000000000084 2.643555555555556  C 4.573333333333418 2.2456888888888877  3.9853333333333163 1.9946666666666664  3.3693333333332403 1.915733333333334  C 3.135999999999907 2.4630222222222233  3.0706666666666327 3.068977777777778  3.201333333333393 3.6572444444444443  L 3.3693333333332403 4.443822222222224  L 2.9773333333333842 4.858755555555557  C 2.4640000000000937 5.413599999999999  2.2026666666665733 6.032444444444445  2.2026666666665733 6.661244444444445  C 2.2026666666665733 7.881511111111113  3.248000000000017 9.163911111111108  5.179999999999957 9.790666666666665  L 6.44933333333341 10.2032  L 5.842666666666658 11.345066666666664  C 5.758666666666734 11.498933333333335  5.721333333333435 11.670577777777774  5.721333333333435 11.847555555555553  L 5.721333333333435 14.11111111111111  L 9.221333333333435 14.11111111111111  L 9.221333333333435 11.906222222222222  C 9.221333333333435 11.716444444444441  9.165333333333274 11.532177777777779  9.072000000000026 11.36942222222222  L 8.4 10.213244444444443  L 9.716000000000077 9.782400000000003  C 11.629333333333367 9.152  12.655999999999949 7.876088888888891  12.655999999999949 6.661244444444445  C 12.655999999999949 6.0672000000000015  12.431999999999942 5.484088888888888  11.974666666666598 4.954399999999999  L 11.620000000000044 4.545511111111113  L 11.806666666666752 3.657333333333333  C 11.9373333333333 3.0690666666666666  11.872000000000027 2.463111111111112  11.629333333333367 1.9158222222222225  C 11.013333333333291 1.9946666666666664  10.434666666666727 2.2457777777777768  9.96800000000006 2.6436444444444445  L 9.11866666666665 3.3537777777777773  L 8.577333333333385 3.271377777777777  C 8.213333333333292 3.2158222222222212  7.83066666666676 3.186222222222221  7.429333333333367 3.186222222222221  Z " stroke-width="0" stroke-dasharray="0" stroke="rgba(255, 255, 255, 0)" fill="none" transform="matrix(1 0 0 1 1802 17 )" class="stroke" mask="url(#Clip832)" />
  </g>
</svg>