<?xml version="1.0" encoding="utf-8"?>
<svg version="1.1" xmlns:xlink="http://www.w3.org/1999/xlink" width="18px" height="18px" xmlns="http://www.w3.org/2000/svg">
  <defs>
    <pattern id="BGPattern" patternUnits="userSpaceOnUse" alignment="0 0" imageRepeat="None" />
    <mask fill="white" id="Clip836">
      <path d="M 0 9  C 0 4.02948  4.032000000000017 0  9 0  C 13.967999999999984 0  18 4.02948  18 9  C 18 13.97052  13.967999999999984 18  9 18  C 4.032000000000017 18  0 13.97052  0 9  Z " fill-rule="evenodd" />
    </mask>
  </defs>
  <g transform="matrix(1 0 0 1 -1677 -7 )">
    <path d="M 0 9  C 0 4.02948  4.032000000000017 0  9 0  C 13.967999999999984 0  18 4.02948  18 9  C 18 13.97052  13.967999999999984 18  9 18  C 4.032000000000017 18  0 13.97052  0 9  Z " fill-rule="nonzero" fill="rgba(227, 77, 89, 1)" stroke="none" transform="matrix(1 0 0 1 1677 7 )" class="fill" />
    <path d="M 0 9  C 0 4.02948  4.032000000000017 0  9 0  C 13.967999999999984 0  18 4.02948  18 9  C 18 13.97052  13.967999999999984 18  9 18  C 4.032000000000017 18  0 13.97052  0 9  Z " stroke-width="0" stroke-dasharray="0" stroke="rgba(255, 255, 255, 0)" fill="none" transform="matrix(1 0 0 1 1677 7 )" class="stroke" mask="url(#Clip836)" />
  </g>
</svg>