<?xml version="1.0" encoding="utf-8"?>
<svg version="1.1" xmlns:xlink="http://www.w3.org/1999/xlink" width="6px" height="8px" xmlns="http://www.w3.org/2000/svg">
  <defs>
    <pattern id="BGPattern" patternUnits="userSpaceOnUse" alignment="0 0" imageRepeat="None" />
    <mask fill="white" id="Clip837">
      <path d="M 5.079999999999927 0.842666666666667  C 4.559999999999945 0.43733333333333413  3.910000000000082 0.23466666666666608  3.119999999999891 0.23466666666666608  C 2.259999999999991 0.23466666666666608  1.5499999999999545 0.4906666666666663  1.0199999999999818 1.0026666666666668  C 0.4900000000000091 1.5040000000000002  0.22000000000002728 2.1866666666666674  0.22000000000002728 3.0400000000000014  L 1.2000000000000455 3.0400000000000014  C 1.2100000000000364 2.368000000000001  1.3900000000001 1.8560000000000008  1.7300000000000182 1.5146666666666673  C 2.0399999999999636 1.1519999999999995  2.5 0.9813333333333326  3.089999999999918 0.9813333333333326  C 3.6400000000001 0.9813333333333326  4.079999999999927 1.1093333333333344  4.3900000000001 1.3653333333333346  C 4.710000000000036 1.6213333333333348  4.8599999999999 1.9733333333333323  4.8599999999999 2.4426666666666677  C 4.8599999999999 2.933333333333334  4.630000000000109 3.391999999999999  4.2000000000000455 3.807999999999999  C 3.9700000000000273 4.0213333333333345  3.5299999999999727 4.330666666666667  2.8599999999999 4.757333333333333  C 1.9500000000000455 5.311999999999999  1.3299999999999272 5.770666666666667  1 6.112000000000001  C 0.42000000000007276 6.677333333333333  0.15000000000009095 7.306666666666666  0.15000000000009095 8  L 5.8599999999999 8  L 5.8599999999999 7.221333333333332  L 1.3599999999999 7.221333333333332  C 1.509999999999991 6.709333333333332  2.1400000000001 6.122666666666668  3.230000000000018 5.471999999999999  C 4.119999999999891 4.938666666666667  4.710000000000036 4.522666666666668  5.009999999999991 4.245333333333333  C 5.559999999999945 3.7119999999999984  5.849999999999909 3.114666666666668  5.849999999999909 2.453333333333335  C 5.849999999999909 1.7919999999999985  5.579999999999927 1.248  5.079999999999927 0.842666666666667  Z " fill-rule="evenodd" />
    </mask>
  </defs>
  <g transform="matrix(1 0 0 1 -1683 -11 )">
    <path d="M 5.079999999999927 0.842666666666667  C 4.559999999999945 0.43733333333333413  3.910000000000082 0.23466666666666608  3.119999999999891 0.23466666666666608  C 2.259999999999991 0.23466666666666608  1.5499999999999545 0.4906666666666663  1.0199999999999818 1.0026666666666668  C 0.4900000000000091 1.5040000000000002  0.22000000000002728 2.1866666666666674  0.22000000000002728 3.0400000000000014  L 1.2000000000000455 3.0400000000000014  C 1.2100000000000364 2.368000000000001  1.3900000000001 1.8560000000000008  1.7300000000000182 1.5146666666666673  C 2.0399999999999636 1.1519999999999995  2.5 0.9813333333333326  3.089999999999918 0.9813333333333326  C 3.6400000000001 0.9813333333333326  4.079999999999927 1.1093333333333344  4.3900000000001 1.3653333333333346  C 4.710000000000036 1.6213333333333348  4.8599999999999 1.9733333333333323  4.8599999999999 2.4426666666666677  C 4.8599999999999 2.933333333333334  4.630000000000109 3.391999999999999  4.2000000000000455 3.807999999999999  C 3.9700000000000273 4.0213333333333345  3.5299999999999727 4.330666666666667  2.8599999999999 4.757333333333333  C 1.9500000000000455 5.311999999999999  1.3299999999999272 5.770666666666667  1 6.112000000000001  C 0.42000000000007276 6.677333333333333  0.15000000000009095 7.306666666666666  0.15000000000009095 8  L 5.8599999999999 8  L 5.8599999999999 7.221333333333332  L 1.3599999999999 7.221333333333332  C 1.509999999999991 6.709333333333332  2.1400000000001 6.122666666666668  3.230000000000018 5.471999999999999  C 4.119999999999891 4.938666666666667  4.710000000000036 4.522666666666668  5.009999999999991 4.245333333333333  C 5.559999999999945 3.7119999999999984  5.849999999999909 3.114666666666668  5.849999999999909 2.453333333333335  C 5.849999999999909 1.7919999999999985  5.579999999999927 1.248  5.079999999999927 0.842666666666667  Z " fill-rule="nonzero" fill="rgba(255, 255, 255, 1)" stroke="none" transform="matrix(1 0 0 1 1683 11 )" class="fill" />
    <path d="M 5.079999999999927 0.842666666666667  C 4.559999999999945 0.43733333333333413  3.910000000000082 0.23466666666666608  3.119999999999891 0.23466666666666608  C 2.259999999999991 0.23466666666666608  1.5499999999999545 0.4906666666666663  1.0199999999999818 1.0026666666666668  C 0.4900000000000091 1.5040000000000002  0.22000000000002728 2.1866666666666674  0.22000000000002728 3.0400000000000014  L 1.2000000000000455 3.0400000000000014  C 1.2100000000000364 2.368000000000001  1.3900000000001 1.8560000000000008  1.7300000000000182 1.5146666666666673  C 2.0399999999999636 1.1519999999999995  2.5 0.9813333333333326  3.089999999999918 0.9813333333333326  C 3.6400000000001 0.9813333333333326  4.079999999999927 1.1093333333333344  4.3900000000001 1.3653333333333346  C 4.710000000000036 1.6213333333333348  4.8599999999999 1.9733333333333323  4.8599999999999 2.4426666666666677  C 4.8599999999999 2.933333333333334  4.630000000000109 3.391999999999999  4.2000000000000455 3.807999999999999  C 3.9700000000000273 4.0213333333333345  3.5299999999999727 4.330666666666667  2.8599999999999 4.757333333333333  C 1.9500000000000455 5.311999999999999  1.3299999999999272 5.770666666666667  1 6.112000000000001  C 0.42000000000007276 6.677333333333333  0.15000000000009095 7.306666666666666  0.15000000000009095 8  L 5.8599999999999 8  L 5.8599999999999 7.221333333333332  L 1.3599999999999 7.221333333333332  C 1.509999999999991 6.709333333333332  2.1400000000001 6.122666666666668  3.230000000000018 5.471999999999999  C 4.119999999999891 4.938666666666667  4.710000000000036 4.522666666666668  5.009999999999991 4.245333333333333  C 5.559999999999945 3.7119999999999984  5.849999999999909 3.114666666666668  5.849999999999909 2.453333333333335  C 5.849999999999909 1.7919999999999985  5.579999999999927 1.248  5.079999999999927 0.842666666666667  Z " stroke-width="0" stroke-dasharray="0" stroke="rgba(255, 255, 255, 0)" fill="none" transform="matrix(1 0 0 1 1683 11 )" class="stroke" mask="url(#Clip837)" />
  </g>
</svg>