<?xml version="1.0" encoding="utf-8"?>
<svg version="1.1" xmlns:xlink="http://www.w3.org/1999/xlink" width="15px" height="16px" xmlns="http://www.w3.org/2000/svg">
  <defs>
    <pattern id="BGPattern" patternUnits="userSpaceOnUse" alignment="0 0" imageRepeat="None" />
    <mask fill="white" id="Clip838">
      <path d="M 13.67906250000003 15.474800000000002  L 9.547500000000147 11.067999999999994  C 8.59031250000014 11.8951  7.370625000000038 12.390499999999996  6.042187500000024 12.390499999999996  C 2.9643750000000972 12.390499999999996  0.46875 9.728700000000009  0.46875 6.445300000000001  C 0.46875 3.161799999999998  2.9643750000000972 0.5  6.042187500000024 0.5  C 9.120937499999993 0.5  11.61656250000009 3.161799999999998  11.61656250000009 6.445300000000001  C 11.61656250000009 7.861899999999997  11.151562499999965 9.162799999999995  10.376249999999938 10.184099999999997  L 14.507812500000117 14.590899999999996  L 13.67906250000003 15.474800000000002  Z M 6.042187500000024 11.140500000000007  C 8.47312500000014 11.140500000000007  10.44468750000009 9.038399999999998  10.44468750000009 6.445300000000001  C 10.44468750000009 5.545696800503146  10.207418769847683 4.705195289833227  9.79601345945105 3.991052930111859  C 9.021500076453421 2.646605493503893  7.629812045821065 1.75  6.042187500000024 1.75  C 3.6112499999999073 1.75  1.640625 3.852099999999999  1.640625 6.445300000000001  C 1.640625 9.038399999999998  3.6112499999999073 11.140500000000007  6.042187500000024 11.140500000000007  Z " fill-rule="evenodd" />
    </mask>
  </defs>
  <g transform="matrix(1 0 0 1 -425 -18 )">
    <path d="M 13.67906250000003 15.474800000000002  L 9.547500000000147 11.067999999999994  C 8.59031250000014 11.8951  7.370625000000038 12.390499999999996  6.042187500000024 12.390499999999996  C 2.9643750000000972 12.390499999999996  0.46875 9.728700000000009  0.46875 6.445300000000001  C 0.46875 3.161799999999998  2.9643750000000972 0.5  6.042187500000024 0.5  C 9.120937499999993 0.5  11.61656250000009 3.161799999999998  11.61656250000009 6.445300000000001  C 11.61656250000009 7.861899999999997  11.151562499999965 9.162799999999995  10.376249999999938 10.184099999999997  L 14.507812500000117 14.590899999999996  L 13.67906250000003 15.474800000000002  Z M 6.042187500000024 11.140500000000007  C 8.47312500000014 11.140500000000007  10.44468750000009 9.038399999999998  10.44468750000009 6.445300000000001  C 10.44468750000009 5.545696800503146  10.207418769847683 4.705195289833227  9.79601345945105 3.991052930111859  C 9.021500076453421 2.646605493503893  7.629812045821065 1.75  6.042187500000024 1.75  C 3.6112499999999073 1.75  1.640625 3.852099999999999  1.640625 6.445300000000001  C 1.640625 9.038399999999998  3.6112499999999073 11.140500000000007  6.042187500000024 11.140500000000007  Z " fill-rule="nonzero" fill="rgba(0, 0, 0, 1)" stroke="none" transform="matrix(1 0 0 1 425 18 )" class="fill" />
    <path d="M 13.67906250000003 15.474800000000002  L 9.547500000000147 11.067999999999994  C 8.59031250000014 11.8951  7.370625000000038 12.390499999999996  6.042187500000024 12.390499999999996  C 2.9643750000000972 12.390499999999996  0.46875 9.728700000000009  0.46875 6.445300000000001  C 0.46875 3.161799999999998  2.9643750000000972 0.5  6.042187500000024 0.5  C 9.120937499999993 0.5  11.61656250000009 3.161799999999998  11.61656250000009 6.445300000000001  C 11.61656250000009 7.861899999999997  11.151562499999965 9.162799999999995  10.376249999999938 10.184099999999997  L 14.507812500000117 14.590899999999996  L 13.67906250000003 15.474800000000002  Z " stroke-width="0" stroke-dasharray="0" stroke="rgba(255, 255, 255, 0)" fill="none" transform="matrix(1 0 0 1 425 18 )" class="stroke" mask="url(#Clip838)" />
    <path d="M 6.042187500000024 11.140500000000007  C 8.47312500000014 11.140500000000007  10.44468750000009 9.038399999999998  10.44468750000009 6.445300000000001  C 10.44468750000009 5.545696800503146  10.207418769847683 4.705195289833227  9.79601345945105 3.991052930111859  C 9.021500076453421 2.646605493503893  7.629812045821065 1.75  6.042187500000024 1.75  C 3.6112499999999073 1.75  1.640625 3.852099999999999  1.640625 6.445300000000001  C 1.640625 9.038399999999998  3.6112499999999073 11.140500000000007  6.042187500000024 11.140500000000007  Z " stroke-width="0" stroke-dasharray="0" stroke="rgba(255, 255, 255, 0)" fill="none" transform="matrix(1 0 0 1 425 18 )" class="stroke" mask="url(#Clip838)" />
  </g>
</svg>