<?xml version="1.0" encoding="utf-8"?>
<svg version="1.1" xmlns:xlink="http://www.w3.org/1999/xlink" width="97px" height="16px" xmlns="http://www.w3.org/2000/svg">
  <defs>
    <pattern id="BGPattern" patternUnits="userSpaceOnUse" alignment="0 0" imageRepeat="None" />
    <mask fill="white" id="Clip839">
      <path d="M 4.101714285714292 5.090285714285715  L 3.1732857142857314 5.090285714285715  L 3.1732857142857314 7.474285714285713  L 1.8014285714285647 7.474285714285713  C 2.1478571428571587 6.450285714285712  2.4665714285714473 5.282285714285714  2.771428571428583 3.9702857142857146  L 5.445857142857152 3.9702857142857146  L 5.445857142857152 2.8822857142857123  L 3.0070000000000108 2.8822857142857123  C 3.131714285714273 2.242285714285714  3.2564285714285917 1.5542857142857136  3.3811428571428537 0.8342857142857147  L 2.4665714285714473 0.5942857142857138  C 2.3418571428571284 1.394285714285713  2.2171428571428664 2.1462857142857144  2.078571428571451 2.8822857142857123  L 0.7067142857142844 2.8822857142857123  L 0.7067142857142844 3.9702857142857146  L 1.8568571428571194 3.9702857142857146  C 1.538142857142831 5.394285714285713  1.1917142857142935 6.594285714285713  0.8037142857142975 7.554285714285713  L 1.0115714285714201 8.514285714285718  L 3.1732857142857314 8.514285714285718  L 3.1732857142857314 10.898285714285716  C 2.369571428571434 11.074285714285711  1.510428571428582 11.234285714285713  0.5958571428571185 11.362285714285715  L 0.7205714285714372 12.48228571428571  C 1.5658571428571364 12.338285714285714  2.383428571428587 12.178285714285712  3.1732857142857314 12.002285714285717  L 3.1732857142857314 15.314285714285713  L 4.101714285714292 15.314285714285713  L 4.101714285714292 11.762285714285715  L 5.418142857142847 11.378285714285719  L 5.418142857142847 10.290285714285712  C 5.0024285714285455 10.418285714285714  4.572857142857147 10.546285714285716  4.101714285714292 10.674285714285718  L 4.101714285714292 8.514285714285718  L 5.376571428571445 8.514285714285718  L 5.376571428571445 7.474285714285713  L 4.101714285714292 7.474285714285713  L 4.101714285714292 5.090285714285715  Z M 5.667571428571428 5.842285714285713  C 6.207999999999992 5.362285714285714  6.734571428571402 4.8342857142857145  7.261142857142869 4.274285714285712  L 7.261142857142869 5.218285714285713  L 11.238142857142842 5.218285714285713  L 11.238142857142842 4.258285714285713  L 7.275000000000023 4.258285714285713  C 7.967857142857153 3.4902857142857124  8.632999999999981 2.6422857142857157  9.298142857142864 1.7142857142857142  C 10.35128571428574 3.282285714285714  11.529142857142881 4.610285714285713  12.831714285714286 5.698285714285715  L 13.358285714285694 4.786285714285713  C 12.097285714285695 3.7622857142857162  10.863999999999999 2.4022857142857146  9.658428571428553 0.6742857142857142  L 8.937857142857116 0.6742857142857142  C 7.815428571428586 2.2742857142857127  6.540571428571433 3.6822857142857157  5.127142857142864 4.882285714285713  L 5.667571428571428 5.842285714285713  Z M 7.566000000000005 15.202285714285713  L 8.231142857142832 15.202285714285713  C 8.910142857142867 15.202285714285713  9.256571428571405 14.786285714285716  9.256571428571405 13.97028571428571  L 9.256571428571405 6.498285714285714  L 5.986285714285716 6.498285714285714  L 5.986285714285716 15.314285714285713  L 6.859285714285721 15.314285714285713  L 6.859285714285721 12.32228571428571  L 8.411285714285706 12.32228571428571  L 8.411285714285706 13.762285714285715  C 8.411285714285706 14.114285714285716  8.258857142857137 14.290285714285712  7.9540000000000015 14.290285714285712  L 7.344285714285729 14.258285714285714  L 7.566000000000005 15.202285714285713  Z M 8.411285714285706 11.426285714285711  L 6.859285714285721 11.426285714285711  L 6.859285714285721 9.906285714285714  L 8.411285714285706 9.906285714285714  L 8.411285714285706 11.426285714285711  Z M 8.411285714285706 9.010285714285715  L 6.859285714285721 9.010285714285715  L 6.859285714285721 7.426285714285716  L 8.411285714285706 7.426285714285716  L 8.411285714285706 9.010285714285715  Z M 10.863999999999999 6.946285714285714  L 10.088000000000008 6.946285714285714  L 10.088000000000008 12.690285714285713  L 10.863999999999999 12.690285714285713  L 10.863999999999999 6.946285714285714  Z M 10.42057142857145 15.234285714285713  L 11.59842857142859 15.234285714285713  C 12.263571428571414 15.234285714285713  12.610000000000008 14.770285714285714  12.610000000000008 13.858285714285712  L 12.610000000000008 6.226285714285715  L 11.737000000000004 6.226285714285715  L 11.737000000000004 13.602285714285715  C 11.737000000000004 14.05028571428571  11.584571428571437 14.290285714285712  11.293571428571454 14.290285714285712  C 10.94714285714286 14.290285714285712  10.58685714285717 14.258285714285714  10.21271428571427 14.226285714285714  L 10.42057142857145 15.234285714285713  Z M 17.88957142857144 1.2502857142857156  C 18.776428571428596 1.9862857142857138  19.538571428571437 3.0102857142857147  20.176000000000016 4.354285714285713  C 19.289142857142856 8.610285714285713  17.36299999999997 11.874285714285715  14.397571428571421 14.114285714285716  L 14.993428571428597 15.090285714285715  C 17.903428571428595 12.914285714285711  19.815714285714268 9.778285714285712  20.73028571428573 5.698285714285715  C 20.799571428571436 5.890285714285715  20.868857142857145 6.114285714285716  20.952000000000005 6.370285714285716  C 22.379285714285725 10.594285714285718  24.2084285714286 13.506285714285712  26.453285714285713 15.074285714285711  L 27.076857142857136 14.146285714285714  C 24.887428571428575 12.56228571428571  23.155285714285718 9.858285714285712  21.85271428571426 6.034285714285716  C 20.993571428571407 3.4422857142857146  19.95428571428574 1.634285714285714  18.720999999999986 0.6422857142857156  L 17.88957142857144 1.2502857142857156  Z M 40.76771428571427 1.2822857142857143  L 28.518000000000008 1.2822857142857143  L 28.518000000000008 2.3222857142857145  L 32.605857142857154 2.3222857142857145  L 32.605857142857154 3.7462857142857127  L 29.377142857142864 3.7462857142857127  L 29.377142857142864 7.778285714285715  L 33.021571428571455 7.778285714285715  C 32.79985714285712 8.226285714285714  32.56428571428569 8.706285714285716  32.31485714285717 9.202285714285713  L 28.33785714285714 9.202285714285713  L 28.33785714285714 10.258285714285714  L 31.760571428571453 10.258285714285714  C 31.455714285714258 10.802285714285713  31.150857142857124 11.362285714285715  30.818285714285736 11.922285714285717  C 31.96842857142857 12.226285714285714  33.11857142857141 12.578285714285714  34.268714285714296 12.978285714285716  C 33.021571428571455 13.53828571428571  31.150857142857124 13.986285714285714  28.68428571428573 14.32228571428571  L 29.058428571428575 15.346285714285711  C 32.05157142857143 14.882285714285713  34.21328571428569 14.242285714285718  35.5297142857143 13.426285714285711  C 37.06785714285713 14.002285714285717  38.606000000000016 14.658285714285714  40.1302857142857 15.410285714285717  L 40.75385714285712 14.466285714285716  C 39.285 13.794285714285715  37.843857142857125 13.218285714285717  36.43042857142856 12.722285714285713  C 37.164857142857144 12.034285714285716  37.677571428571405 11.218285714285717  37.95471428571429 10.258285714285714  L 40.93399999999999 10.258285714285714  L 40.93399999999999 9.202285714285713  L 33.43728571428569 9.202285714285713  C 33.65899999999997 8.754285714285711  33.89457142857145 8.290285714285712  34.143999999999984 7.778285714285715  L 39.90857142857142 7.778285714285715  L 39.90857142857142 3.7462857142857127  L 36.67985714285714 3.7462857142857127  L 36.67985714285714 2.3222857142857145  L 40.76771428571427 2.3222857142857145  L 40.76771428571427 1.2822857142857143  Z M 36.943142857142874 10.258285714285714  C 36.66599999999998 11.090285714285715  36.13942857142857 11.794285714285715  35.36342857142858 12.354285714285718  C 34.29642857142855 12.002285714285717  33.25714285714288 11.698285714285712  32.23171428571431 11.442285714285715  C 32.43957142857143 11.090285714285715  32.661285714285704 10.690285714285713  32.89685714285713 10.258285714285714  L 36.943142857142874 10.258285714285714  Z M 35.723714285714266 2.3222857142857145  L 35.723714285714266 3.7462857142857127  L 33.56200000000001 3.7462857142857127  L 33.56200000000001 2.3222857142857145  L 35.723714285714266 2.3222857142857145  Z M 38.952428571428555 4.7542857142857144  L 38.952428571428555 6.786285714285713  L 36.67985714285714 6.786285714285713  L 36.67985714285714 4.7542857142857144  L 38.952428571428555 4.7542857142857144  Z M 35.723714285714266 4.7542857142857144  L 35.723714285714266 6.786285714285713  L 33.56200000000001 6.786285714285713  L 33.56200000000001 4.7542857142857144  L 35.723714285714266 4.7542857142857144  Z M 32.605857142857154 4.7542857142857144  L 32.605857142857154 6.786285714285713  L 30.333285714285733 6.786285714285713  L 30.333285714285733 4.7542857142857144  L 32.605857142857154 4.7542857142857144  Z M 47.848714285714266 6.706285714285713  L 47.848714285714266 5.122285714285714  L 49.35914285714285 5.122285714285714  L 49.35914285714285 4.162285714285714  L 47.848714285714266 4.162285714285714  L 47.848714285714266 2.626285714285712  C 48.51385714285715 2.3382857142857136  49.09585714285712 2.0502857142857147  49.56699999999998 1.762285714285716  L 48.99885714285716 0.9142857142857151  C 48.34757142857143 1.3622857142857145  47.6547142857143 1.698285714285715  46.93414285714287 1.9222857142857126  L 46.93414285714287 7.698285714285715  L 50.10742857142859 7.698285714285715  L 50.10742857142859 9.106285714285718  L 46.851000000000006 9.106285714285718  L 46.851000000000006 10.146285714285714  L 47.43300000000003 10.146285714285714  C 47.95957142857144 11.266285714285711  48.707857142857115 12.242285714285718  49.70557142857144 13.058285714285716  C 48.66628571428572 13.570285714285717  47.41914285714287 13.986285714285714  45.977999999999994 14.306285714285716  L 46.476857142857156 15.330285714285717  C 48.09814285714285 14.914285714285711  49.483857142857175 14.370285714285712  50.64785714285716 13.730285714285717  C 51.714857142857134 14.40228571428571  53.00357142857145 14.930285714285715  54.514000000000024 15.298285714285717  L 54.87428571428571 14.226285714285714  C 53.65485714285717 13.938285714285712  52.587857142857146 13.554285714285713  51.67328571428573 13.074285714285711  C 52.80957142857141 12.242285714285718  53.64100000000001 11.250285714285715  54.139857142857124 10.082285714285717  L 54.139857142857124 9.106285714285718  L 51.035857142857154 9.106285714285718  L 51.035857142857154 7.698285714285715  L 54.18142857142858 7.698285714285715  L 54.18142857142858 1.4262857142857155  L 51.75642857142859 1.4262857142857155  L 51.75642857142859 2.4182857142857137  L 53.280714285714275 2.4182857142857137  L 53.280714285714275 4.162285714285714  L 51.825714285714305 4.162285714285714  L 51.825714285714305 5.122285714285714  L 53.280714285714275 5.122285714285714  L 53.280714285714275 6.706285714285713  L 51.035857142857154 6.706285714285713  L 51.035857142857154 0.7062857142857126  L 50.10742857142859 0.7062857142857126  L 50.10742857142859 6.706285714285713  L 47.848714285714266 6.706285714285713  Z M 50.70328571428571 12.498285714285714  C 49.74714285714285 11.842285714285717  48.99885714285716 11.058285714285716  48.4584285714286 10.146285714285714  L 53.05899999999999 10.146285714285714  C 52.53242857142858 11.042285714285713  51.742571428571445 11.826285714285714  50.70328571428571 12.498285714285714  Z M 42.555285714285745 15.170285714285715  L 43.85785714285715 15.170285714285715  C 44.60614285714283 15.170285714285715  44.99414285714288 14.706285714285716  44.99414285714288 13.794285714285715  L 44.99414285714288 9.154285714285711  C 45.46528571428574 8.898285714285716  45.93642857142859 8.64228571428571  46.393714285714296 8.370285714285712  L 46.393714285714296 7.250285714285716  C 45.93642857142859 7.538285714285714  45.46528571428574 7.810285714285714  44.99414285714288 8.05028571428571  L 44.99414285714288 4.818285714285715  L 46.28285714285713 4.818285714285715  L 46.28285714285713 3.7142857142857144  L 44.99414285714288 3.7142857142857144  L 44.99414285714288 0.722285714285716  L 44.02414285714287 0.722285714285716  L 44.02414285714287 3.7142857142857144  L 42.485999999999976 3.7142857142857144  L 42.485999999999976 4.818285714285715  L 44.02414285714287 4.818285714285715  L 44.02414285714287 8.498285714285714  C 43.44214285714285 8.754285714285711  42.84628571428573 8.962285714285713  42.23657142857145 9.154285714285711  L 42.45828571428573 10.242285714285718  C 42.98485714285714 10.05028571428571  43.497571428571455 9.842285714285717  44.02414285714287 9.61828571428571  L 44.02414285714287 13.506285714285712  C 44.02414285714287 13.938285714285712  43.84399999999999 14.162285714285717  43.511428571428546 14.162285714285717  C 43.15114285714286 14.162285714285717  42.76314285714287 14.13028571428571  42.347428571428566 14.082285714285717  L 42.555285714285745 15.170285714285715  Z M 61.8444285714286 1.9062857142857135  L 57.17457142857144 1.9062857142857135  L 57.17457142857144 2.962285714285713  L 61.8444285714286 2.962285714285713  L 61.8444285714286 4.354285714285713  L 56.606428571428566 4.354285714285713  L 56.606428571428566 7.266285714285715  L 57.576428571428586 7.266285714285715  L 57.576428571428586 5.362285714285714  L 61.70585714285713 5.362285714285714  C 60.90214285714283 6.162285714285714  60.04299999999998 6.866285714285714  59.14228571428572 7.458285714285714  C 58.93442857142855 7.586285714285716  58.72657142857142 7.682285714285716  58.518714285714296 7.7302857142857135  L 58.71271428571427 8.610285714285713  C 59.91828571428572 8.578285714285714  60.98528571428569 8.530285714285712  61.9275714285714 8.498285714285714  C 60.70814285714286 9.298285714285717  59.54414285714287 9.874285714285715  58.40785714285714 10.242285714285718  C 58.1307142857143 10.242285714285718  57.839714285714265 10.226285714285714  57.548714285714276 10.210285714285712  L 57.74271428571431 11.250285714285715  C 59.01757142857141 11.218285714285717  60.417142857142885 11.154285714285711  61.94142857142856 11.074285714285711  L 61.94142857142856 13.810285714285717  C 61.94142857142856 14.13028571428571  61.77514285714284 14.306285714285716  61.4702857142857 14.306285714285716  C 61.110000000000014 14.306285714285716  60.72200000000001 14.274285714285716  60.334000000000024 14.226285714285714  L 60.54185714285714 15.298285714285717  L 61.80285714285714 15.298285714285717  C 62.551142857142885 15.298285714285717  62.93914285714288 14.882285714285713  62.93914285714288 14.082285714285717  L 62.93914285714288 11.026285714285718  C 63.93685714285714 10.962285714285713  64.99000000000002 10.882285714285713  66.11242857142855 10.802285714285713  C 66.38957142857144 11.186285714285711  66.63900000000002 11.570285714285717  66.8607142857143 11.954285714285716  L 67.60899999999998 11.330285714285717  C 67.06857142857142 10.466285714285716  66.29257142857142 9.474285714285713  65.281 8.338285714285714  L 64.56042857142857 8.866285714285718  C 64.89300000000001 9.250285714285715  65.21171428571431 9.61828571428571  65.51657142857144 10.002285714285717  C 63.71514285714287 10.146285714285714  61.9275714285714 10.258285714285714  60.12614285714284 10.32228571428571  C 62.01071428571426 9.554285714285713  63.756714285714274 8.48228571428571  65.39185714285712 7.074285714285716  L 64.58814285714287 6.450285714285712  C 64.08928571428571 6.866285714285714  63.59042857142855 7.266285714285715  63.10542857142854 7.6502857142857135  C 62.32942857142855 7.714285714285714  61.29014285714288 7.746285714285713  60.01528571428573 7.778285714285715  C 60.915999999999976 7.218285714285713  61.77514285714284 6.562285714285715  62.60657142857144 5.7942857142857145  L 61.8444285714286 5.362285714285714  L 67.13785714285713 5.362285714285714  L 67.13785714285713 7.282285714285714  L 68.10785714285714 7.282285714285714  L 68.10785714285714 4.354285714285713  L 62.86985714285712 4.354285714285713  L 62.86985714285712 2.962285714285713  L 67.53971428571427 2.962285714285713  L 67.53971428571427 1.9062857142857135  L 62.86985714285712 1.9062857142857135  L 62.86985714285712 0.6422857142857156  L 61.8444285714286 0.6422857142857156  L 61.8444285714286 1.9062857142857135  Z M 68.32957142857141 14.082285714285717  C 67.15171428571428 13.218285714285717  65.84914285714288 12.48228571428571  64.408 11.874285714285715  L 63.90914285714284 12.722285714285713  C 65.23942857142855 13.282285714285715  66.542 14.05028571428571  67.81685714285716 15.010285714285715  L 68.32957142857141 14.082285714285717  Z M 60.625 12.594285714285718  L 60.04299999999998 11.842285714285717  C 59.05914285714286 12.706285714285716  57.81200000000002 13.410285714285717  56.301571428571435 13.938285714285712  L 56.71728571428574 14.962285714285713  C 58.28314285714287 14.338285714285714  59.58571428571428 13.554285714285713  60.625 12.594285714285718  Z M 72.91628571428572 11.746285714285714  C 74.52371428571426 10.530285714285712  75.60457142857145 9.026285714285718  76.17271428571432 7.202285714285714  C 77.47528571428572 8.738285714285714  78.5422857142857 10.194285714285716  79.34599999999999 11.570285714285717  L 80.09428571428573 10.690285714285713  C 79.11042857142856 9.170285714285715  77.90485714285717 7.618285714285714  76.46371428571429 6.050285714285715  C 76.5745714285714 5.522285714285715  76.65771428571426 4.946285714285714  76.72699999999998 4.338285714285713  L 80.69014285714285 4.338285714285713  L 80.69014285714285 13.266285714285711  C 80.69014285714285 13.778285714285712  80.46842857142857 14.05028571428571  80.02500000000002 14.05028571428571  L 77.90485714285717 13.986285714285714  L 78.182 15.138285714285717  L 80.3575714285714 15.138285714285717  C 81.24442857142857 15.138285714285717  81.70171428571426 14.594285714285718  81 13.522285714285715  L 81 3.218285714285713  L 76.83785714285715 3.218285714285713  C 76.8932857142857 2.4182857142857137  76.93485714285715 1.5382857142857145  76.93485714285715 0.5942857142857138  L 75.92328571428574 0.5942857142857138  C 75.92328571428574 1.5222857142857151  75.88171428571427 2.4022857142857146  75.81242857142855 3.218285714285713  L 70 3.218285714285713  L 70 15.298285714285717  L 71 15.298285714285717  L 71 4.338285714285713  L 75.70157142857146 4.338285714285713  C 75.60457142857145 5.074285714285716  75.47985714285711 5.746285714285713  75.32742857142856 6.370285714285716  C 74.82857142857145 8.146285714285714  73.80314285714289 9.61828571428571  72.25114285714284 10.802285714285713  L 72.91628571428572 11.746285714285714  Z M 90.70885714285714 1.9862857142857138  C 90.55642857142858 1.458285714285714  90.40400000000001 0.9782857142857162  90.23771428571429 0.5622857142857153  L 89.17071428571427 0.7702857142857137  C 89.33699999999999 1.1382857142857128  89.50328571428571 1.5382857142857145  89.66957142857143 1.9862857142857138  L 84.40385714285713 1.9862857142857138  L 84.40385714285713 4.9142857142857155  L 85.37385714285716 4.9142857142857155  L 85.37385714285716 3.0582857142857125  L 94.76899999999998 3.0582857142857125  L 94.76899999999998 4.8342857142857145  L 95.739 4.8342857142857145  L 95.739 1.9862857142857138  L 90.70885714285714 1.9862857142857138  Z M 90.47328571428572 5.682285714285716  L 89.71114285714289 5.682285714285716  C 88.32542857142856 7.442285714285715  86.37157142857143 8.850285714285715  83.83571428571427 9.938285714285712  L 84.36228571428575 10.882285714285713  C 84.94428571428571 10.626285714285716  85.51242857142859 10.354285714285718  86.08057142857145 10.034285714285716  L 86.08057142857145 15.330285714285717  L 87.05057142857142 15.330285714285717  L 87.05057142857142 14.658285714285714  L 93.2447142857143 14.658285714285714  L 93.2447142857143 15.330285714285717  L 94.20085714285717 15.330285714285717  L 94.20085714285717 10.098285714285712  C 94.67200000000003 10.354285714285718  95.18471428571428 10.610285714285713  95.739 10.866285714285718  L 96.27942857142855 9.922285714285717  C 93.53571428571429 8.706285714285716  91.59571428571431 7.298285714285713  90.47328571428572 5.682285714285716  Z M 93.2447142857143 13.602285714285715  L 87.05057142857142 13.602285714285715  L 87.05057142857142 11.042285714285713  L 93.2447142857143 11.042285714285713  L 93.2447142857143 13.602285714285715  Z M 94.04842857142854 10.018285714285712  L 86.1082857142857 10.018285714285712  C 87.64642857142859 9.138285714285717  88.9767142857143 8.034285714285716  90.08528571428573 6.6902857142857135  C 91.02757142857143 7.938285714285716  92.35785714285714 9.058285714285716  94.04842857142854 10.018285714285712  Z M 95.90528571428572 6.706285714285713  C 94.76899999999998 5.714285714285714  93.35557142857142 4.722285714285716  91.69271428571426 3.7302857142857135  L 91.05528571428574 4.450285714285712  C 92.81514285714285 5.522285714285715  94.20085714285717 6.5302857142857125  95.21242857142859 7.490285714285712  L 95.90528571428572 6.706285714285713  Z M 89.0737142857143 4.402285714285715  L 88.40857142857142 3.7142857142857144  C 87.24457142857143 4.8342857142857145  85.83114285714286 5.7942857142857145  84.1405714285714 6.626285714285713  L 84.73642857142858 7.522285714285715  C 86.45471428571429 6.626285714285713  87.89585714285717 5.586285714285716  89.0737142857143 4.402285714285715  Z " fill-rule="evenodd" />
    </mask>
  </defs>
  <g transform="matrix(1 0 0 1 -451 -17 )">
    <path d="M 4.101714285714292 5.090285714285715  L 3.1732857142857314 5.090285714285715  L 3.1732857142857314 7.474285714285713  L 1.8014285714285647 7.474285714285713  C 2.1478571428571587 6.450285714285712  2.4665714285714473 5.282285714285714  2.771428571428583 3.9702857142857146  L 5.445857142857152 3.9702857142857146  L 5.445857142857152 2.8822857142857123  L 3.0070000000000108 2.8822857142857123  C 3.131714285714273 2.242285714285714  3.2564285714285917 1.5542857142857136  3.3811428571428537 0.8342857142857147  L 2.4665714285714473 0.5942857142857138  C 2.3418571428571284 1.394285714285713  2.2171428571428664 2.1462857142857144  2.078571428571451 2.8822857142857123  L 0.7067142857142844 2.8822857142857123  L 0.7067142857142844 3.9702857142857146  L 1.8568571428571194 3.9702857142857146  C 1.538142857142831 5.394285714285713  1.1917142857142935 6.594285714285713  0.8037142857142975 7.554285714285713  L 1.0115714285714201 8.514285714285718  L 3.1732857142857314 8.514285714285718  L 3.1732857142857314 10.898285714285716  C 2.369571428571434 11.074285714285711  1.510428571428582 11.234285714285713  0.5958571428571185 11.362285714285715  L 0.7205714285714372 12.48228571428571  C 1.5658571428571364 12.338285714285714  2.383428571428587 12.178285714285712  3.1732857142857314 12.002285714285717  L 3.1732857142857314 15.314285714285713  L 4.101714285714292 15.314285714285713  L 4.101714285714292 11.762285714285715  L 5.418142857142847 11.378285714285719  L 5.418142857142847 10.290285714285712  C 5.0024285714285455 10.418285714285714  4.572857142857147 10.546285714285716  4.101714285714292 10.674285714285718  L 4.101714285714292 8.514285714285718  L 5.376571428571445 8.514285714285718  L 5.376571428571445 7.474285714285713  L 4.101714285714292 7.474285714285713  L 4.101714285714292 5.090285714285715  Z M 5.667571428571428 5.842285714285713  C 6.207999999999992 5.362285714285714  6.734571428571402 4.8342857142857145  7.261142857142869 4.274285714285712  L 7.261142857142869 5.218285714285713  L 11.238142857142842 5.218285714285713  L 11.238142857142842 4.258285714285713  L 7.275000000000023 4.258285714285713  C 7.967857142857153 3.4902857142857124  8.632999999999981 2.6422857142857157  9.298142857142864 1.7142857142857142  C 10.35128571428574 3.282285714285714  11.529142857142881 4.610285714285713  12.831714285714286 5.698285714285715  L 13.358285714285694 4.786285714285713  C 12.097285714285695 3.7622857142857162  10.863999999999999 2.4022857142857146  9.658428571428553 0.6742857142857142  L 8.937857142857116 0.6742857142857142  C 7.815428571428586 2.2742857142857127  6.540571428571433 3.6822857142857157  5.127142857142864 4.882285714285713  L 5.667571428571428 5.842285714285713  Z M 7.566000000000005 15.202285714285713  L 8.231142857142832 15.202285714285713  C 8.910142857142867 15.202285714285713  9.256571428571405 14.786285714285716  9.256571428571405 13.97028571428571  L 9.256571428571405 6.498285714285714  L 5.986285714285716 6.498285714285714  L 5.986285714285716 15.314285714285713  L 6.859285714285721 15.314285714285713  L 6.859285714285721 12.32228571428571  L 8.411285714285706 12.32228571428571  L 8.411285714285706 13.762285714285715  C 8.411285714285706 14.114285714285716  8.258857142857137 14.290285714285712  7.9540000000000015 14.290285714285712  L 7.344285714285729 14.258285714285714  L 7.566000000000005 15.202285714285713  Z M 8.411285714285706 11.426285714285711  L 6.859285714285721 11.426285714285711  L 6.859285714285721 9.906285714285714  L 8.411285714285706 9.906285714285714  L 8.411285714285706 11.426285714285711  Z M 8.411285714285706 9.010285714285715  L 6.859285714285721 9.010285714285715  L 6.859285714285721 7.426285714285716  L 8.411285714285706 7.426285714285716  L 8.411285714285706 9.010285714285715  Z M 10.863999999999999 6.946285714285714  L 10.088000000000008 6.946285714285714  L 10.088000000000008 12.690285714285713  L 10.863999999999999 12.690285714285713  L 10.863999999999999 6.946285714285714  Z M 10.42057142857145 15.234285714285713  L 11.59842857142859 15.234285714285713  C 12.263571428571414 15.234285714285713  12.610000000000008 14.770285714285714  12.610000000000008 13.858285714285712  L 12.610000000000008 6.226285714285715  L 11.737000000000004 6.226285714285715  L 11.737000000000004 13.602285714285715  C 11.737000000000004 14.05028571428571  11.584571428571437 14.290285714285712  11.293571428571454 14.290285714285712  C 10.94714285714286 14.290285714285712  10.58685714285717 14.258285714285714  10.21271428571427 14.226285714285714  L 10.42057142857145 15.234285714285713  Z M 17.88957142857144 1.2502857142857156  C 18.776428571428596 1.9862857142857138  19.538571428571437 3.0102857142857147  20.176000000000016 4.354285714285713  C 19.289142857142856 8.610285714285713  17.36299999999997 11.874285714285715  14.397571428571421 14.114285714285716  L 14.993428571428597 15.090285714285715  C 17.903428571428595 12.914285714285711  19.815714285714268 9.778285714285712  20.73028571428573 5.698285714285715  C 20.799571428571436 5.890285714285715  20.868857142857145 6.114285714285716  20.952000000000005 6.370285714285716  C 22.379285714285725 10.594285714285718  24.2084285714286 13.506285714285712  26.453285714285713 15.074285714285711  L 27.076857142857136 14.146285714285714  C 24.887428571428575 12.56228571428571  23.155285714285718 9.858285714285712  21.85271428571426 6.034285714285716  C 20.993571428571407 3.4422857142857146  19.95428571428574 1.634285714285714  18.720999999999986 0.6422857142857156  L 17.88957142857144 1.2502857142857156  Z M 40.76771428571427 1.2822857142857143  L 28.518000000000008 1.2822857142857143  L 28.518000000000008 2.3222857142857145  L 32.605857142857154 2.3222857142857145  L 32.605857142857154 3.7462857142857127  L 29.377142857142864 3.7462857142857127  L 29.377142857142864 7.778285714285715  L 33.021571428571455 7.778285714285715  C 32.79985714285712 8.226285714285714  32.56428571428569 8.706285714285716  32.31485714285717 9.202285714285713  L 28.33785714285714 9.202285714285713  L 28.33785714285714 10.258285714285714  L 31.760571428571453 10.258285714285714  C 31.455714285714258 10.802285714285713  31.150857142857124 11.362285714285715  30.818285714285736 11.922285714285717  C 31.96842857142857 12.226285714285714  33.11857142857141 12.578285714285714  34.268714285714296 12.978285714285716  C 33.021571428571455 13.53828571428571  31.150857142857124 13.986285714285714  28.68428571428573 14.32228571428571  L 29.058428571428575 15.346285714285711  C 32.05157142857143 14.882285714285713  34.21328571428569 14.242285714285718  35.5297142857143 13.426285714285711  C 37.06785714285713 14.002285714285717  38.606000000000016 14.658285714285714  40.1302857142857 15.410285714285717  L 40.75385714285712 14.466285714285716  C 39.285 13.794285714285715  37.843857142857125 13.218285714285717  36.43042857142856 12.722285714285713  C 37.164857142857144 12.034285714285716  37.677571428571405 11.218285714285717  37.95471428571429 10.258285714285714  L 40.93399999999999 10.258285714285714  L 40.93399999999999 9.202285714285713  L 33.43728571428569 9.202285714285713  C 33.65899999999997 8.754285714285711  33.89457142857145 8.290285714285712  34.143999999999984 7.778285714285715  L 39.90857142857142 7.778285714285715  L 39.90857142857142 3.7462857142857127  L 36.67985714285714 3.7462857142857127  L 36.67985714285714 2.3222857142857145  L 40.76771428571427 2.3222857142857145  L 40.76771428571427 1.2822857142857143  Z M 36.943142857142874 10.258285714285714  C 36.66599999999998 11.090285714285715  36.13942857142857 11.794285714285715  35.36342857142858 12.354285714285718  C 34.29642857142855 12.002285714285717  33.25714285714288 11.698285714285712  32.23171428571431 11.442285714285715  C 32.43957142857143 11.090285714285715  32.661285714285704 10.690285714285713  32.89685714285713 10.258285714285714  L 36.943142857142874 10.258285714285714  Z M 35.723714285714266 2.3222857142857145  L 35.723714285714266 3.7462857142857127  L 33.56200000000001 3.7462857142857127  L 33.56200000000001 2.3222857142857145  L 35.723714285714266 2.3222857142857145  Z M 38.952428571428555 4.7542857142857144  L 38.952428571428555 6.786285714285713  L 36.67985714285714 6.786285714285713  L 36.67985714285714 4.7542857142857144  L 38.952428571428555 4.7542857142857144  Z M 35.723714285714266 4.7542857142857144  L 35.723714285714266 6.786285714285713  L 33.56200000000001 6.786285714285713  L 33.56200000000001 4.7542857142857144  L 35.723714285714266 4.7542857142857144  Z M 32.605857142857154 4.7542857142857144  L 32.605857142857154 6.786285714285713  L 30.333285714285733 6.786285714285713  L 30.333285714285733 4.7542857142857144  L 32.605857142857154 4.7542857142857144  Z M 47.848714285714266 6.706285714285713  L 47.848714285714266 5.122285714285714  L 49.35914285714285 5.122285714285714  L 49.35914285714285 4.162285714285714  L 47.848714285714266 4.162285714285714  L 47.848714285714266 2.626285714285712  C 48.51385714285715 2.3382857142857136  49.09585714285712 2.0502857142857147  49.56699999999998 1.762285714285716  L 48.99885714285716 0.9142857142857151  C 48.34757142857143 1.3622857142857145  47.6547142857143 1.698285714285715  46.93414285714287 1.9222857142857126  L 46.93414285714287 7.698285714285715  L 50.10742857142859 7.698285714285715  L 50.10742857142859 9.106285714285718  L 46.851000000000006 9.106285714285718  L 46.851000000000006 10.146285714285714  L 47.43300000000003 10.146285714285714  C 47.95957142857144 11.266285714285711  48.707857142857115 12.242285714285718  49.70557142857144 13.058285714285716  C 48.66628571428572 13.570285714285717  47.41914285714287 13.986285714285714  45.977999999999994 14.306285714285716  L 46.476857142857156 15.330285714285717  C 48.09814285714285 14.914285714285711  49.483857142857175 14.370285714285712  50.64785714285716 13.730285714285717  C 51.714857142857134 14.40228571428571  53.00357142857145 14.930285714285715  54.514000000000024 15.298285714285717  L 54.87428571428571 14.226285714285714  C 53.65485714285717 13.938285714285712  52.587857142857146 13.554285714285713  51.67328571428573 13.074285714285711  C 52.80957142857141 12.242285714285718  53.64100000000001 11.250285714285715  54.139857142857124 10.082285714285717  L 54.139857142857124 9.106285714285718  L 51.035857142857154 9.106285714285718  L 51.035857142857154 7.698285714285715  L 54.18142857142858 7.698285714285715  L 54.18142857142858 1.4262857142857155  L 51.75642857142859 1.4262857142857155  L 51.75642857142859 2.4182857142857137  L 53.280714285714275 2.4182857142857137  L 53.280714285714275 4.162285714285714  L 51.825714285714305 4.162285714285714  L 51.825714285714305 5.122285714285714  L 53.280714285714275 5.122285714285714  L 53.280714285714275 6.706285714285713  L 51.035857142857154 6.706285714285713  L 51.035857142857154 0.7062857142857126  L 50.10742857142859 0.7062857142857126  L 50.10742857142859 6.706285714285713  L 47.848714285714266 6.706285714285713  Z M 50.70328571428571 12.498285714285714  C 49.74714285714285 11.842285714285717  48.99885714285716 11.058285714285716  48.4584285714286 10.146285714285714  L 53.05899999999999 10.146285714285714  C 52.53242857142858 11.042285714285713  51.742571428571445 11.826285714285714  50.70328571428571 12.498285714285714  Z M 42.555285714285745 15.170285714285715  L 43.85785714285715 15.170285714285715  C 44.60614285714283 15.170285714285715  44.99414285714288 14.706285714285716  44.99414285714288 13.794285714285715  L 44.99414285714288 9.154285714285711  C 45.46528571428574 8.898285714285716  45.93642857142859 8.64228571428571  46.393714285714296 8.370285714285712  L 46.393714285714296 7.250285714285716  C 45.93642857142859 7.538285714285714  45.46528571428574 7.810285714285714  44.99414285714288 8.05028571428571  L 44.99414285714288 4.818285714285715  L 46.28285714285713 4.818285714285715  L 46.28285714285713 3.7142857142857144  L 44.99414285714288 3.7142857142857144  L 44.99414285714288 0.722285714285716  L 44.02414285714287 0.722285714285716  L 44.02414285714287 3.7142857142857144  L 42.485999999999976 3.7142857142857144  L 42.485999999999976 4.818285714285715  L 44.02414285714287 4.818285714285715  L 44.02414285714287 8.498285714285714  C 43.44214285714285 8.754285714285711  42.84628571428573 8.962285714285713  42.23657142857145 9.154285714285711  L 42.45828571428573 10.242285714285718  C 42.98485714285714 10.05028571428571  43.497571428571455 9.842285714285717  44.02414285714287 9.61828571428571  L 44.02414285714287 13.506285714285712  C 44.02414285714287 13.938285714285712  43.84399999999999 14.162285714285717  43.511428571428546 14.162285714285717  C 43.15114285714286 14.162285714285717  42.76314285714287 14.13028571428571  42.347428571428566 14.082285714285717  L 42.555285714285745 15.170285714285715  Z M 61.8444285714286 1.9062857142857135  L 57.17457142857144 1.9062857142857135  L 57.17457142857144 2.962285714285713  L 61.8444285714286 2.962285714285713  L 61.8444285714286 4.354285714285713  L 56.606428571428566 4.354285714285713  L 56.606428571428566 7.266285714285715  L 57.576428571428586 7.266285714285715  L 57.576428571428586 5.362285714285714  L 61.70585714285713 5.362285714285714  C 60.90214285714283 6.162285714285714  60.04299999999998 6.866285714285714  59.14228571428572 7.458285714285714  C 58.93442857142855 7.586285714285716  58.72657142857142 7.682285714285716  58.518714285714296 7.7302857142857135  L 58.71271428571427 8.610285714285713  C 59.91828571428572 8.578285714285714  60.98528571428569 8.530285714285712  61.9275714285714 8.498285714285714  C 60.70814285714286 9.298285714285717  59.54414285714287 9.874285714285715  58.40785714285714 10.242285714285718  C 58.1307142857143 10.242285714285718  57.839714285714265 10.226285714285714  57.548714285714276 10.210285714285712  L 57.74271428571431 11.250285714285715  C 59.01757142857141 11.218285714285717  60.417142857142885 11.154285714285711  61.94142857142856 11.074285714285711  L 61.94142857142856 13.810285714285717  C 61.94142857142856 14.13028571428571  61.77514285714284 14.306285714285716  61.4702857142857 14.306285714285716  C 61.110000000000014 14.306285714285716  60.72200000000001 14.274285714285716  60.334000000000024 14.226285714285714  L 60.54185714285714 15.298285714285717  L 61.80285714285714 15.298285714285717  C 62.551142857142885 15.298285714285717  62.93914285714288 14.882285714285713  62.93914285714288 14.082285714285717  L 62.93914285714288 11.026285714285718  C 63.93685714285714 10.962285714285713  64.99000000000002 10.882285714285713  66.11242857142855 10.802285714285713  C 66.38957142857144 11.186285714285711  66.63900000000002 11.570285714285717  66.8607142857143 11.954285714285716  L 67.60899999999998 11.330285714285717  C 67.06857142857142 10.466285714285716  66.29257142857142 9.474285714285713  65.281 8.338285714285714  L 64.56042857142857 8.866285714285718  C 64.89300000000001 9.250285714285715  65.21171428571431 9.61828571428571  65.51657142857144 10.002285714285717  C 63.71514285714287 10.146285714285714  61.9275714285714 10.258285714285714  60.12614285714284 10.32228571428571  C 62.01071428571426 9.554285714285713  63.756714285714274 8.48228571428571  65.39185714285712 7.074285714285716  L 64.58814285714287 6.450285714285712  C 64.08928571428571 6.866285714285714  63.59042857142855 7.266285714285715  63.10542857142854 7.6502857142857135  C 62.32942857142855 7.714285714285714  61.29014285714288 7.746285714285713  60.01528571428573 7.778285714285715  C 60.915999999999976 7.218285714285713  61.77514285714284 6.562285714285715  62.60657142857144 5.7942857142857145  L 61.8444285714286 5.362285714285714  L 67.13785714285713 5.362285714285714  L 67.13785714285713 7.282285714285714  L 68.10785714285714 7.282285714285714  L 68.10785714285714 4.354285714285713  L 62.86985714285712 4.354285714285713  L 62.86985714285712 2.962285714285713  L 67.53971428571427 2.962285714285713  L 67.53971428571427 1.9062857142857135  L 62.86985714285712 1.9062857142857135  L 62.86985714285712 0.6422857142857156  L 61.8444285714286 0.6422857142857156  L 61.8444285714286 1.9062857142857135  Z M 68.32957142857141 14.082285714285717  C 67.15171428571428 13.218285714285717  65.84914285714288 12.48228571428571  64.408 11.874285714285715  L 63.90914285714284 12.722285714285713  C 65.23942857142855 13.282285714285715  66.542 14.05028571428571  67.81685714285716 15.010285714285715  L 68.32957142857141 14.082285714285717  Z M 60.625 12.594285714285718  L 60.04299999999998 11.842285714285717  C 59.05914285714286 12.706285714285716  57.81200000000002 13.410285714285717  56.301571428571435 13.938285714285712  L 56.71728571428574 14.962285714285713  C 58.28314285714287 14.338285714285714  59.58571428571428 13.554285714285713  60.625 12.594285714285718  Z M 72.91628571428572 11.746285714285714  C 74.52371428571426 10.530285714285712  75.60457142857145 9.026285714285718  76.17271428571432 7.202285714285714  C 77.47528571428572 8.738285714285714  78.5422857142857 10.194285714285716  79.34599999999999 11.570285714285717  L 80.09428571428573 10.690285714285713  C 79.11042857142856 9.170285714285715  77.90485714285717 7.618285714285714  76.46371428571429 6.050285714285715  C 76.5745714285714 5.522285714285715  76.65771428571426 4.946285714285714  76.72699999999998 4.338285714285713  L 80.69014285714285 4.338285714285713  L 80.69014285714285 13.266285714285711  C 80.69014285714285 13.778285714285712  80.46842857142857 14.05028571428571  80.02500000000002 14.05028571428571  L 77.90485714285717 13.986285714285714  L 78.182 15.138285714285717  L 80.3575714285714 15.138285714285717  C 81.24442857142857 15.138285714285717  81.70171428571426 14.594285714285718  81 13.522285714285715  L 81 3.218285714285713  L 76.83785714285715 3.218285714285713  C 76.8932857142857 2.4182857142857137  76.93485714285715 1.5382857142857145  76.93485714285715 0.5942857142857138  L 75.92328571428574 0.5942857142857138  C 75.92328571428574 1.5222857142857151  75.88171428571427 2.4022857142857146  75.81242857142855 3.218285714285713  L 70 3.218285714285713  L 70 15.298285714285717  L 71 15.298285714285717  L 71 4.338285714285713  L 75.70157142857146 4.338285714285713  C 75.60457142857145 5.074285714285716  75.47985714285711 5.746285714285713  75.32742857142856 6.370285714285716  C 74.82857142857145 8.146285714285714  73.80314285714289 9.61828571428571  72.25114285714284 10.802285714285713  L 72.91628571428572 11.746285714285714  Z M 90.70885714285714 1.9862857142857138  C 90.55642857142858 1.458285714285714  90.40400000000001 0.9782857142857162  90.23771428571429 0.5622857142857153  L 89.17071428571427 0.7702857142857137  C 89.33699999999999 1.1382857142857128  89.50328571428571 1.5382857142857145  89.66957142857143 1.9862857142857138  L 84.40385714285713 1.9862857142857138  L 84.40385714285713 4.9142857142857155  L 85.37385714285716 4.9142857142857155  L 85.37385714285716 3.0582857142857125  L 94.76899999999998 3.0582857142857125  L 94.76899999999998 4.8342857142857145  L 95.739 4.8342857142857145  L 95.739 1.9862857142857138  L 90.70885714285714 1.9862857142857138  Z M 90.47328571428572 5.682285714285716  L 89.71114285714289 5.682285714285716  C 88.32542857142856 7.442285714285715  86.37157142857143 8.850285714285715  83.83571428571427 9.938285714285712  L 84.36228571428575 10.882285714285713  C 84.94428571428571 10.626285714285716  85.51242857142859 10.354285714285718  86.08057142857145 10.034285714285716  L 86.08057142857145 15.330285714285717  L 87.05057142857142 15.330285714285717  L 87.05057142857142 14.658285714285714  L 93.2447142857143 14.658285714285714  L 93.2447142857143 15.330285714285717  L 94.20085714285717 15.330285714285717  L 94.20085714285717 10.098285714285712  C 94.67200000000003 10.354285714285718  95.18471428571428 10.610285714285713  95.739 10.866285714285718  L 96.27942857142855 9.922285714285717  C 93.53571428571429 8.706285714285716  91.59571428571431 7.298285714285713  90.47328571428572 5.682285714285716  Z M 93.2447142857143 13.602285714285715  L 87.05057142857142 13.602285714285715  L 87.05057142857142 11.042285714285713  L 93.2447142857143 11.042285714285713  L 93.2447142857143 13.602285714285715  Z M 94.04842857142854 10.018285714285712  L 86.1082857142857 10.018285714285712  C 87.64642857142859 9.138285714285717  88.9767142857143 8.034285714285716  90.08528571428573 6.6902857142857135  C 91.02757142857143 7.938285714285716  92.35785714285714 9.058285714285716  94.04842857142854 10.018285714285712  Z M 95.90528571428572 6.706285714285713  C 94.76899999999998 5.714285714285714  93.35557142857142 4.722285714285716  91.69271428571426 3.7302857142857135  L 91.05528571428574 4.450285714285712  C 92.81514285714285 5.522285714285715  94.20085714285717 6.5302857142857125  95.21242857142859 7.490285714285712  L 95.90528571428572 6.706285714285713  Z M 89.0737142857143 4.402285714285715  L 88.40857142857142 3.7142857142857144  C 87.24457142857143 4.8342857142857145  85.83114285714286 5.7942857142857145  84.1405714285714 6.626285714285713  L 84.73642857142858 7.522285714285715  C 86.45471428571429 6.626285714285713  87.89585714285717 5.586285714285716  89.0737142857143 4.402285714285715  Z " fill-rule="nonzero" fill="rgba(0, 0, 0, 0.25882352941176473)" stroke="none" transform="matrix(1 0 0 1 451 17 )" class="fill" />
    <path d="M 4.101714285714292 5.090285714285715  L 3.1732857142857314 5.090285714285715  L 3.1732857142857314 7.474285714285713  L 1.8014285714285647 7.474285714285713  C 2.1478571428571587 6.450285714285712  2.4665714285714473 5.282285714285714  2.771428571428583 3.9702857142857146  L 5.445857142857152 3.9702857142857146  L 5.445857142857152 2.8822857142857123  L 3.0070000000000108 2.8822857142857123  C 3.131714285714273 2.242285714285714  3.2564285714285917 1.5542857142857136  3.3811428571428537 0.8342857142857147  L 2.4665714285714473 0.5942857142857138  C 2.3418571428571284 1.394285714285713  2.2171428571428664 2.1462857142857144  2.078571428571451 2.8822857142857123  L 0.7067142857142844 2.8822857142857123  L 0.7067142857142844 3.9702857142857146  L 1.8568571428571194 3.9702857142857146  C 1.538142857142831 5.394285714285713  1.1917142857142935 6.594285714285713  0.8037142857142975 7.554285714285713  L 1.0115714285714201 8.514285714285718  L 3.1732857142857314 8.514285714285718  L 3.1732857142857314 10.898285714285716  C 2.369571428571434 11.074285714285711  1.510428571428582 11.234285714285713  0.5958571428571185 11.362285714285715  L 0.7205714285714372 12.48228571428571  C 1.5658571428571364 12.338285714285714  2.383428571428587 12.178285714285712  3.1732857142857314 12.002285714285717  L 3.1732857142857314 15.314285714285713  L 4.101714285714292 15.314285714285713  L 4.101714285714292 11.762285714285715  L 5.418142857142847 11.378285714285719  L 5.418142857142847 10.290285714285712  C 5.0024285714285455 10.418285714285714  4.572857142857147 10.546285714285716  4.101714285714292 10.674285714285718  L 4.101714285714292 8.514285714285718  L 5.376571428571445 8.514285714285718  L 5.376571428571445 7.474285714285713  L 4.101714285714292 7.474285714285713  L 4.101714285714292 5.090285714285715  Z " stroke-width="0" stroke-dasharray="0" stroke="rgba(255, 255, 255, 0)" fill="none" transform="matrix(1 0 0 1 451 17 )" class="stroke" mask="url(#Clip839)" />
    <path d="M 5.667571428571428 5.842285714285713  C 6.207999999999992 5.362285714285714  6.734571428571402 4.8342857142857145  7.261142857142869 4.274285714285712  L 7.261142857142869 5.218285714285713  L 11.238142857142842 5.218285714285713  L 11.238142857142842 4.258285714285713  L 7.275000000000023 4.258285714285713  C 7.967857142857153 3.4902857142857124  8.632999999999981 2.6422857142857157  9.298142857142864 1.7142857142857142  C 10.35128571428574 3.282285714285714  11.529142857142881 4.610285714285713  12.831714285714286 5.698285714285715  L 13.358285714285694 4.786285714285713  C 12.097285714285695 3.7622857142857162  10.863999999999999 2.4022857142857146  9.658428571428553 0.6742857142857142  L 8.937857142857116 0.6742857142857142  C 7.815428571428586 2.2742857142857127  6.540571428571433 3.6822857142857157  5.127142857142864 4.882285714285713  L 5.667571428571428 5.842285714285713  Z " stroke-width="0" stroke-dasharray="0" stroke="rgba(255, 255, 255, 0)" fill="none" transform="matrix(1 0 0 1 451 17 )" class="stroke" mask="url(#Clip839)" />
    <path d="M 7.566000000000005 15.202285714285713  L 8.231142857142832 15.202285714285713  C 8.910142857142867 15.202285714285713  9.256571428571405 14.786285714285716  9.256571428571405 13.97028571428571  L 9.256571428571405 6.498285714285714  L 5.986285714285716 6.498285714285714  L 5.986285714285716 15.314285714285713  L 6.859285714285721 15.314285714285713  L 6.859285714285721 12.32228571428571  L 8.411285714285706 12.32228571428571  L 8.411285714285706 13.762285714285715  C 8.411285714285706 14.114285714285716  8.258857142857137 14.290285714285712  7.9540000000000015 14.290285714285712  L 7.344285714285729 14.258285714285714  L 7.566000000000005 15.202285714285713  Z " stroke-width="0" stroke-dasharray="0" stroke="rgba(255, 255, 255, 0)" fill="none" transform="matrix(1 0 0 1 451 17 )" class="stroke" mask="url(#Clip839)" />
    <path d="M 8.411285714285706 11.426285714285711  L 6.859285714285721 11.426285714285711  L 6.859285714285721 9.906285714285714  L 8.411285714285706 9.906285714285714  L 8.411285714285706 11.426285714285711  Z " stroke-width="0" stroke-dasharray="0" stroke="rgba(255, 255, 255, 0)" fill="none" transform="matrix(1 0 0 1 451 17 )" class="stroke" mask="url(#Clip839)" />
    <path d="M 8.411285714285706 9.010285714285715  L 6.859285714285721 9.010285714285715  L 6.859285714285721 7.426285714285716  L 8.411285714285706 7.426285714285716  L 8.411285714285706 9.010285714285715  Z " stroke-width="0" stroke-dasharray="0" stroke="rgba(255, 255, 255, 0)" fill="none" transform="matrix(1 0 0 1 451 17 )" class="stroke" mask="url(#Clip839)" />
    <path d="M 10.863999999999999 6.946285714285714  L 10.088000000000008 6.946285714285714  L 10.088000000000008 12.690285714285713  L 10.863999999999999 12.690285714285713  L 10.863999999999999 6.946285714285714  Z " stroke-width="0" stroke-dasharray="0" stroke="rgba(255, 255, 255, 0)" fill="none" transform="matrix(1 0 0 1 451 17 )" class="stroke" mask="url(#Clip839)" />
    <path d="M 10.42057142857145 15.234285714285713  L 11.59842857142859 15.234285714285713  C 12.263571428571414 15.234285714285713  12.610000000000008 14.770285714285714  12.610000000000008 13.858285714285712  L 12.610000000000008 6.226285714285715  L 11.737000000000004 6.226285714285715  L 11.737000000000004 13.602285714285715  C 11.737000000000004 14.05028571428571  11.584571428571437 14.290285714285712  11.293571428571454 14.290285714285712  C 10.94714285714286 14.290285714285712  10.58685714285717 14.258285714285714  10.21271428571427 14.226285714285714  L 10.42057142857145 15.234285714285713  Z " stroke-width="0" stroke-dasharray="0" stroke="rgba(255, 255, 255, 0)" fill="none" transform="matrix(1 0 0 1 451 17 )" class="stroke" mask="url(#Clip839)" />
    <path d="M 17.88957142857144 1.2502857142857156  C 18.776428571428596 1.9862857142857138  19.538571428571437 3.0102857142857147  20.176000000000016 4.354285714285713  C 19.289142857142856 8.610285714285713  17.36299999999997 11.874285714285715  14.397571428571421 14.114285714285716  L 14.993428571428597 15.090285714285715  C 17.903428571428595 12.914285714285711  19.815714285714268 9.778285714285712  20.73028571428573 5.698285714285715  C 20.799571428571436 5.890285714285715  20.868857142857145 6.114285714285716  20.952000000000005 6.370285714285716  C 22.379285714285725 10.594285714285718  24.2084285714286 13.506285714285712  26.453285714285713 15.074285714285711  L 27.076857142857136 14.146285714285714  C 24.887428571428575 12.56228571428571  23.155285714285718 9.858285714285712  21.85271428571426 6.034285714285716  C 20.993571428571407 3.4422857142857146  19.95428571428574 1.634285714285714  18.720999999999986 0.6422857142857156  L 17.88957142857144 1.2502857142857156  Z " stroke-width="0" stroke-dasharray="0" stroke="rgba(255, 255, 255, 0)" fill="none" transform="matrix(1 0 0 1 451 17 )" class="stroke" mask="url(#Clip839)" />
    <path d="M 40.76771428571427 1.2822857142857143  L 28.518000000000008 1.2822857142857143  L 28.518000000000008 2.3222857142857145  L 32.605857142857154 2.3222857142857145  L 32.605857142857154 3.7462857142857127  L 29.377142857142864 3.7462857142857127  L 29.377142857142864 7.778285714285715  L 33.021571428571455 7.778285714285715  C 32.79985714285712 8.226285714285714  32.56428571428569 8.706285714285716  32.31485714285717 9.202285714285713  L 28.33785714285714 9.202285714285713  L 28.33785714285714 10.258285714285714  L 31.760571428571453 10.258285714285714  C 31.455714285714258 10.802285714285713  31.150857142857124 11.362285714285715  30.818285714285736 11.922285714285717  C 31.96842857142857 12.226285714285714  33.11857142857141 12.578285714285714  34.268714285714296 12.978285714285716  C 33.021571428571455 13.53828571428571  31.150857142857124 13.986285714285714  28.68428571428573 14.32228571428571  L 29.058428571428575 15.346285714285711  C 32.05157142857143 14.882285714285713  34.21328571428569 14.242285714285718  35.5297142857143 13.426285714285711  C 37.06785714285713 14.002285714285717  38.606000000000016 14.658285714285714  40.1302857142857 15.410285714285717  L 40.75385714285712 14.466285714285716  C 39.285 13.794285714285715  37.843857142857125 13.218285714285717  36.43042857142856 12.722285714285713  C 37.164857142857144 12.034285714285716  37.677571428571405 11.218285714285717  37.95471428571429 10.258285714285714  L 40.93399999999999 10.258285714285714  L 40.93399999999999 9.202285714285713  L 33.43728571428569 9.202285714285713  C 33.65899999999997 8.754285714285711  33.89457142857145 8.290285714285712  34.143999999999984 7.778285714285715  L 39.90857142857142 7.778285714285715  L 39.90857142857142 3.7462857142857127  L 36.67985714285714 3.7462857142857127  L 36.67985714285714 2.3222857142857145  L 40.76771428571427 2.3222857142857145  L 40.76771428571427 1.2822857142857143  Z " stroke-width="0" stroke-dasharray="0" stroke="rgba(255, 255, 255, 0)" fill="none" transform="matrix(1 0 0 1 451 17 )" class="stroke" mask="url(#Clip839)" />
    <path d="M 36.943142857142874 10.258285714285714  C 36.66599999999998 11.090285714285715  36.13942857142857 11.794285714285715  35.36342857142858 12.354285714285718  C 34.29642857142855 12.002285714285717  33.25714285714288 11.698285714285712  32.23171428571431 11.442285714285715  C 32.43957142857143 11.090285714285715  32.661285714285704 10.690285714285713  32.89685714285713 10.258285714285714  L 36.943142857142874 10.258285714285714  Z " stroke-width="0" stroke-dasharray="0" stroke="rgba(255, 255, 255, 0)" fill="none" transform="matrix(1 0 0 1 451 17 )" class="stroke" mask="url(#Clip839)" />
    <path d="M 35.723714285714266 2.3222857142857145  L 35.723714285714266 3.7462857142857127  L 33.56200000000001 3.7462857142857127  L 33.56200000000001 2.3222857142857145  L 35.723714285714266 2.3222857142857145  Z " stroke-width="0" stroke-dasharray="0" stroke="rgba(255, 255, 255, 0)" fill="none" transform="matrix(1 0 0 1 451 17 )" class="stroke" mask="url(#Clip839)" />
    <path d="M 38.952428571428555 4.7542857142857144  L 38.952428571428555 6.786285714285713  L 36.67985714285714 6.786285714285713  L 36.67985714285714 4.7542857142857144  L 38.952428571428555 4.7542857142857144  Z " stroke-width="0" stroke-dasharray="0" stroke="rgba(255, 255, 255, 0)" fill="none" transform="matrix(1 0 0 1 451 17 )" class="stroke" mask="url(#Clip839)" />
    <path d="M 35.723714285714266 4.7542857142857144  L 35.723714285714266 6.786285714285713  L 33.56200000000001 6.786285714285713  L 33.56200000000001 4.7542857142857144  L 35.723714285714266 4.7542857142857144  Z " stroke-width="0" stroke-dasharray="0" stroke="rgba(255, 255, 255, 0)" fill="none" transform="matrix(1 0 0 1 451 17 )" class="stroke" mask="url(#Clip839)" />
    <path d="M 32.605857142857154 4.7542857142857144  L 32.605857142857154 6.786285714285713  L 30.333285714285733 6.786285714285713  L 30.333285714285733 4.7542857142857144  L 32.605857142857154 4.7542857142857144  Z " stroke-width="0" stroke-dasharray="0" stroke="rgba(255, 255, 255, 0)" fill="none" transform="matrix(1 0 0 1 451 17 )" class="stroke" mask="url(#Clip839)" />
    <path d="M 47.848714285714266 6.706285714285713  L 47.848714285714266 5.122285714285714  L 49.35914285714285 5.122285714285714  L 49.35914285714285 4.162285714285714  L 47.848714285714266 4.162285714285714  L 47.848714285714266 2.626285714285712  C 48.51385714285715 2.3382857142857136  49.09585714285712 2.0502857142857147  49.56699999999998 1.762285714285716  L 48.99885714285716 0.9142857142857151  C 48.34757142857143 1.3622857142857145  47.6547142857143 1.698285714285715  46.93414285714287 1.9222857142857126  L 46.93414285714287 7.698285714285715  L 50.10742857142859 7.698285714285715  L 50.10742857142859 9.106285714285718  L 46.851000000000006 9.106285714285718  L 46.851000000000006 10.146285714285714  L 47.43300000000003 10.146285714285714  C 47.95957142857144 11.266285714285711  48.707857142857115 12.242285714285718  49.70557142857144 13.058285714285716  C 48.66628571428572 13.570285714285717  47.41914285714287 13.986285714285714  45.977999999999994 14.306285714285716  L 46.476857142857156 15.330285714285717  C 48.09814285714285 14.914285714285711  49.483857142857175 14.370285714285712  50.64785714285716 13.730285714285717  C 51.714857142857134 14.40228571428571  53.00357142857145 14.930285714285715  54.514000000000024 15.298285714285717  L 54.87428571428571 14.226285714285714  C 53.65485714285717 13.938285714285712  52.587857142857146 13.554285714285713  51.67328571428573 13.074285714285711  C 52.80957142857141 12.242285714285718  53.64100000000001 11.250285714285715  54.139857142857124 10.082285714285717  L 54.139857142857124 9.106285714285718  L 51.035857142857154 9.106285714285718  L 51.035857142857154 7.698285714285715  L 54.18142857142858 7.698285714285715  L 54.18142857142858 1.4262857142857155  L 51.75642857142859 1.4262857142857155  L 51.75642857142859 2.4182857142857137  L 53.280714285714275 2.4182857142857137  L 53.280714285714275 4.162285714285714  L 51.825714285714305 4.162285714285714  L 51.825714285714305 5.122285714285714  L 53.280714285714275 5.122285714285714  L 53.280714285714275 6.706285714285713  L 51.035857142857154 6.706285714285713  L 51.035857142857154 0.7062857142857126  L 50.10742857142859 0.7062857142857126  L 50.10742857142859 6.706285714285713  L 47.848714285714266 6.706285714285713  Z " stroke-width="0" stroke-dasharray="0" stroke="rgba(255, 255, 255, 0)" fill="none" transform="matrix(1 0 0 1 451 17 )" class="stroke" mask="url(#Clip839)" />
    <path d="M 50.70328571428571 12.498285714285714  C 49.74714285714285 11.842285714285717  48.99885714285716 11.058285714285716  48.4584285714286 10.146285714285714  L 53.05899999999999 10.146285714285714  C 52.53242857142858 11.042285714285713  51.742571428571445 11.826285714285714  50.70328571428571 12.498285714285714  Z " stroke-width="0" stroke-dasharray="0" stroke="rgba(255, 255, 255, 0)" fill="none" transform="matrix(1 0 0 1 451 17 )" class="stroke" mask="url(#Clip839)" />
    <path d="M 42.555285714285745 15.170285714285715  L 43.85785714285715 15.170285714285715  C 44.60614285714283 15.170285714285715  44.99414285714288 14.706285714285716  44.99414285714288 13.794285714285715  L 44.99414285714288 9.154285714285711  C 45.46528571428574 8.898285714285716  45.93642857142859 8.64228571428571  46.393714285714296 8.370285714285712  L 46.393714285714296 7.250285714285716  C 45.93642857142859 7.538285714285714  45.46528571428574 7.810285714285714  44.99414285714288 8.05028571428571  L 44.99414285714288 4.818285714285715  L 46.28285714285713 4.818285714285715  L 46.28285714285713 3.7142857142857144  L 44.99414285714288 3.7142857142857144  L 44.99414285714288 0.722285714285716  L 44.02414285714287 0.722285714285716  L 44.02414285714287 3.7142857142857144  L 42.485999999999976 3.7142857142857144  L 42.485999999999976 4.818285714285715  L 44.02414285714287 4.818285714285715  L 44.02414285714287 8.498285714285714  C 43.44214285714285 8.754285714285711  42.84628571428573 8.962285714285713  42.23657142857145 9.154285714285711  L 42.45828571428573 10.242285714285718  C 42.98485714285714 10.05028571428571  43.497571428571455 9.842285714285717  44.02414285714287 9.61828571428571  L 44.02414285714287 13.506285714285712  C 44.02414285714287 13.938285714285712  43.84399999999999 14.162285714285717  43.511428571428546 14.162285714285717  C 43.15114285714286 14.162285714285717  42.76314285714287 14.13028571428571  42.347428571428566 14.082285714285717  L 42.555285714285745 15.170285714285715  Z " stroke-width="0" stroke-dasharray="0" stroke="rgba(255, 255, 255, 0)" fill="none" transform="matrix(1 0 0 1 451 17 )" class="stroke" mask="url(#Clip839)" />
    <path d="M 61.8444285714286 1.9062857142857135  L 57.17457142857144 1.9062857142857135  L 57.17457142857144 2.962285714285713  L 61.8444285714286 2.962285714285713  L 61.8444285714286 4.354285714285713  L 56.606428571428566 4.354285714285713  L 56.606428571428566 7.266285714285715  L 57.576428571428586 7.266285714285715  L 57.576428571428586 5.362285714285714  L 61.70585714285713 5.362285714285714  C 60.90214285714283 6.162285714285714  60.04299999999998 6.866285714285714  59.14228571428572 7.458285714285714  C 58.93442857142855 7.586285714285716  58.72657142857142 7.682285714285716  58.518714285714296 7.7302857142857135  L 58.71271428571427 8.610285714285713  C 59.91828571428572 8.578285714285714  60.98528571428569 8.530285714285712  61.9275714285714 8.498285714285714  C 60.70814285714286 9.298285714285717  59.54414285714287 9.874285714285715  58.40785714285714 10.242285714285718  C 58.1307142857143 10.242285714285718  57.839714285714265 10.226285714285714  57.548714285714276 10.210285714285712  L 57.74271428571431 11.250285714285715  C 59.01757142857141 11.218285714285717  60.417142857142885 11.154285714285711  61.94142857142856 11.074285714285711  L 61.94142857142856 13.810285714285717  C 61.94142857142856 14.13028571428571  61.77514285714284 14.306285714285716  61.4702857142857 14.306285714285716  C 61.110000000000014 14.306285714285716  60.72200000000001 14.274285714285716  60.334000000000024 14.226285714285714  L 60.54185714285714 15.298285714285717  L 61.80285714285714 15.298285714285717  C 62.551142857142885 15.298285714285717  62.93914285714288 14.882285714285713  62.93914285714288 14.082285714285717  L 62.93914285714288 11.026285714285718  C 63.93685714285714 10.962285714285713  64.99000000000002 10.882285714285713  66.11242857142855 10.802285714285713  C 66.38957142857144 11.186285714285711  66.63900000000002 11.570285714285717  66.8607142857143 11.954285714285716  L 67.60899999999998 11.330285714285717  C 67.06857142857142 10.466285714285716  66.29257142857142 9.474285714285713  65.281 8.338285714285714  L 64.56042857142857 8.866285714285718  C 64.89300000000001 9.250285714285715  65.21171428571431 9.61828571428571  65.51657142857144 10.002285714285717  C 63.71514285714287 10.146285714285714  61.9275714285714 10.258285714285714  60.12614285714284 10.32228571428571  C 62.01071428571426 9.554285714285713  63.756714285714274 8.48228571428571  65.39185714285712 7.074285714285716  L 64.58814285714287 6.450285714285712  C 64.08928571428571 6.866285714285714  63.59042857142855 7.266285714285715  63.10542857142854 7.6502857142857135  C 62.32942857142855 7.714285714285714  61.29014285714288 7.746285714285713  60.01528571428573 7.778285714285715  C 60.915999999999976 7.218285714285713  61.77514285714284 6.562285714285715  62.60657142857144 5.7942857142857145  L 61.8444285714286 5.362285714285714  L 67.13785714285713 5.362285714285714  L 67.13785714285713 7.282285714285714  L 68.10785714285714 7.282285714285714  L 68.10785714285714 4.354285714285713  L 62.86985714285712 4.354285714285713  L 62.86985714285712 2.962285714285713  L 67.53971428571427 2.962285714285713  L 67.53971428571427 1.9062857142857135  L 62.86985714285712 1.9062857142857135  L 62.86985714285712 0.6422857142857156  L 61.8444285714286 0.6422857142857156  L 61.8444285714286 1.9062857142857135  Z " stroke-width="0" stroke-dasharray="0" stroke="rgba(255, 255, 255, 0)" fill="none" transform="matrix(1 0 0 1 451 17 )" class="stroke" mask="url(#Clip839)" />
    <path d="M 68.32957142857141 14.082285714285717  C 67.15171428571428 13.218285714285717  65.84914285714288 12.48228571428571  64.408 11.874285714285715  L 63.90914285714284 12.722285714285713  C 65.23942857142855 13.282285714285715  66.542 14.05028571428571  67.81685714285716 15.010285714285715  L 68.32957142857141 14.082285714285717  Z " stroke-width="0" stroke-dasharray="0" stroke="rgba(255, 255, 255, 0)" fill="none" transform="matrix(1 0 0 1 451 17 )" class="stroke" mask="url(#Clip839)" />
    <path d="M 60.625 12.594285714285718  L 60.04299999999998 11.842285714285717  C 59.05914285714286 12.706285714285716  57.81200000000002 13.410285714285717  56.301571428571435 13.938285714285712  L 56.71728571428574 14.962285714285713  C 58.28314285714287 14.338285714285714  59.58571428571428 13.554285714285713  60.625 12.594285714285718  Z " stroke-width="0" stroke-dasharray="0" stroke="rgba(255, 255, 255, 0)" fill="none" transform="matrix(1 0 0 1 451 17 )" class="stroke" mask="url(#Clip839)" />
    <path d="M 72.91628571428572 11.746285714285714  C 74.52371428571426 10.530285714285712  75.60457142857145 9.026285714285718  76.17271428571432 7.202285714285714  C 77.47528571428572 8.738285714285714  78.5422857142857 10.194285714285716  79.34599999999999 11.570285714285717  L 80.09428571428573 10.690285714285713  C 79.11042857142856 9.170285714285715  77.90485714285717 7.618285714285714  76.46371428571429 6.050285714285715  C 76.5745714285714 5.522285714285715  76.65771428571426 4.946285714285714  76.72699999999998 4.338285714285713  L 80.69014285714285 4.338285714285713  L 80.69014285714285 13.266285714285711  C 80.69014285714285 13.778285714285712  80.46842857142857 14.05028571428571  80.02500000000002 14.05028571428571  L 77.90485714285717 13.986285714285714  L 78.182 15.138285714285717  L 80.3575714285714 15.138285714285717  C 81.24442857142857 15.138285714285717  81.70171428571426 14.594285714285718  81 13.522285714285715  L 81 3.218285714285713  L 76.83785714285715 3.218285714285713  C 76.8932857142857 2.4182857142857137  76.93485714285715 1.5382857142857145  76.93485714285715 0.5942857142857138  L 75.92328571428574 0.5942857142857138  C 75.92328571428574 1.5222857142857151  75.88171428571427 2.4022857142857146  75.81242857142855 3.218285714285713  L 70 3.218285714285713  L 70 15.298285714285717  L 71 15.298285714285717  L 71 4.338285714285713  L 75.70157142857146 4.338285714285713  C 75.60457142857145 5.074285714285716  75.47985714285711 5.746285714285713  75.32742857142856 6.370285714285716  C 74.82857142857145 8.146285714285714  73.80314285714289 9.61828571428571  72.25114285714284 10.802285714285713  L 72.91628571428572 11.746285714285714  Z " stroke-width="0" stroke-dasharray="0" stroke="rgba(255, 255, 255, 0)" fill="none" transform="matrix(1 0 0 1 451 17 )" class="stroke" mask="url(#Clip839)" />
    <path d="M 90.70885714285714 1.9862857142857138  C 90.55642857142858 1.458285714285714  90.40400000000001 0.9782857142857162  90.23771428571429 0.5622857142857153  L 89.17071428571427 0.7702857142857137  C 89.33699999999999 1.1382857142857128  89.50328571428571 1.5382857142857145  89.66957142857143 1.9862857142857138  L 84.40385714285713 1.9862857142857138  L 84.40385714285713 4.9142857142857155  L 85.37385714285716 4.9142857142857155  L 85.37385714285716 3.0582857142857125  L 94.76899999999998 3.0582857142857125  L 94.76899999999998 4.8342857142857145  L 95.739 4.8342857142857145  L 95.739 1.9862857142857138  L 90.70885714285714 1.9862857142857138  Z " stroke-width="0" stroke-dasharray="0" stroke="rgba(255, 255, 255, 0)" fill="none" transform="matrix(1 0 0 1 451 17 )" class="stroke" mask="url(#Clip839)" />
    <path d="M 90.47328571428572 5.682285714285716  L 89.71114285714289 5.682285714285716  C 88.32542857142856 7.442285714285715  86.37157142857143 8.850285714285715  83.83571428571427 9.938285714285712  L 84.36228571428575 10.882285714285713  C 84.94428571428571 10.626285714285716  85.51242857142859 10.354285714285718  86.08057142857145 10.034285714285716  L 86.08057142857145 15.330285714285717  L 87.05057142857142 15.330285714285717  L 87.05057142857142 14.658285714285714  L 93.2447142857143 14.658285714285714  L 93.2447142857143 15.330285714285717  L 94.20085714285717 15.330285714285717  L 94.20085714285717 10.098285714285712  C 94.67200000000003 10.354285714285718  95.18471428571428 10.610285714285713  95.739 10.866285714285718  L 96.27942857142855 9.922285714285717  C 93.53571428571429 8.706285714285716  91.59571428571431 7.298285714285713  90.47328571428572 5.682285714285716  Z " stroke-width="0" stroke-dasharray="0" stroke="rgba(255, 255, 255, 0)" fill="none" transform="matrix(1 0 0 1 451 17 )" class="stroke" mask="url(#Clip839)" />
    <path d="M 93.2447142857143 13.602285714285715  L 87.05057142857142 13.602285714285715  L 87.05057142857142 11.042285714285713  L 93.2447142857143 11.042285714285713  L 93.2447142857143 13.602285714285715  Z " stroke-width="0" stroke-dasharray="0" stroke="rgba(255, 255, 255, 0)" fill="none" transform="matrix(1 0 0 1 451 17 )" class="stroke" mask="url(#Clip839)" />
    <path d="M 94.04842857142854 10.018285714285712  L 86.1082857142857 10.018285714285712  C 87.64642857142859 9.138285714285717  88.9767142857143 8.034285714285716  90.08528571428573 6.6902857142857135  C 91.02757142857143 7.938285714285716  92.35785714285714 9.058285714285716  94.04842857142854 10.018285714285712  Z " stroke-width="0" stroke-dasharray="0" stroke="rgba(255, 255, 255, 0)" fill="none" transform="matrix(1 0 0 1 451 17 )" class="stroke" mask="url(#Clip839)" />
    <path d="M 95.90528571428572 6.706285714285713  C 94.76899999999998 5.714285714285714  93.35557142857142 4.722285714285716  91.69271428571426 3.7302857142857135  L 91.05528571428574 4.450285714285712  C 92.81514285714285 5.522285714285715  94.20085714285717 6.5302857142857125  95.21242857142859 7.490285714285712  L 95.90528571428572 6.706285714285713  Z " stroke-width="0" stroke-dasharray="0" stroke="rgba(255, 255, 255, 0)" fill="none" transform="matrix(1 0 0 1 451 17 )" class="stroke" mask="url(#Clip839)" />
    <path d="M 89.0737142857143 4.402285714285715  L 88.40857142857142 3.7142857142857144  C 87.24457142857143 4.8342857142857145  85.83114285714286 5.7942857142857145  84.1405714285714 6.626285714285713  L 84.73642857142858 7.522285714285715  C 86.45471428571429 6.626285714285713  87.89585714285717 5.586285714285716  89.0737142857143 4.402285714285715  Z " stroke-width="0" stroke-dasharray="0" stroke="rgba(255, 255, 255, 0)" fill="none" transform="matrix(1 0 0 1 451 17 )" class="stroke" mask="url(#Clip839)" />
  </g>
</svg>