<?xml version="1.0" encoding="utf-8"?>
<svg version="1.1" xmlns:xlink="http://www.w3.org/1999/xlink" width="21px" height="14px" xmlns="http://www.w3.org/2000/svg">
  <defs>
    <pattern id="BGPattern" patternUnits="userSpaceOnUse" alignment="0 0" imageRepeat="None" />
    <mask fill="white" id="Clip2804">
      <path d="M 9.79372197309417 10.5  L 10.452914798206278 10.5  L 11.818385650224215 9.346590909090908  L 10.02914798206278 7.835227272727272  L 8.663677130044844 8.988636363636363  L 8.663677130044844 9.545454545454547  L 9.79372197309417 9.545454545454547  L 9.79372197309417 10.5  Z M 15.620515695067265 3.669034090909091  C 15.753923766816147 3.5563446969696955  15.757847533632287 3.4469696969696955  15.632286995515695 3.340909090909091  C 15.506726457399104 3.2348484848484835  15.37724215246637 3.2381628787878776  15.243834080717487 3.3508522727272734  L 11.123878923766815 6.830965909090909  C 10.990470852017937 6.943655303030303  10.986547085201794 7.053030303030301  11.112107623318385 7.159090909090909  C 11.237668161434978 7.265151515151515  11.367152466367713 7.261837121212119  11.500560538116593 7.149147727272728  L 15.620515695067265 3.669034090909091  Z M 16.338565022421527 8.958806818181818  C 16.495515695067265 9.01183712121212  16.573991031390133 9.107954545454547  16.573991031390133 9.247159090909092  L 16.573991031390133 11.136363636363637  C 16.573991031390133 11.925189393939394  16.24243273542601 12.59966856060606  15.579316143497756 13.159801136363637  C 14.916199551569509 13.719933712121211  14.117713004484306 14  13.183856502242154 14  L 3.390134529147982 14  C 2.4562780269058297 14  1.657791479820628 13.719933712121211  0.9946748878923767 13.159801136363637  C 0.3315582959641255 12.59966856060606  0 11.925189393939394  0 11.136363636363637  L 0 2.863636363636364  C 0 2.0748106060606046  0.3315582959641255 1.4003314393939388  0.9946748878923767 0.8401988636363642  C 1.657791479820628 0.2800662878787865  2.4562780269058297 0  3.390134529147982 0  L 13.183856502242154 0  C 13.678251121076235 0  14.137331838565022 0.08285984848484773  14.561098654708521 0.24857954545454475  C 14.678811659192824 0.29498106060605966  14.749439461883407 0.3712121212121209  14.772982062780269 0.47727272727272685  C 14.796524663677129 0.5899621212121209  14.761210762331839 0.6860795454545447  14.667040358744394 0.765625  L 14.0902466367713 1.252840909090909  C 13.980381165919283 1.3456439393939388  13.854820627802692 1.372159090909091  13.713565022421525 1.3323863636363642  C 13.533071748878925 1.2926136363636358  13.356502242152466 1.2727272727272732  13.183856502242154 1.2727272727272732  L 3.390134529147982 1.2727272727272732  C 2.8721973094170403 1.2727272727272732  2.4288116591928257 1.4285037878787865  2.0599775784753365 1.740056818181818  C 1.691143497757848 2.0516098484848477  1.506726457399103 2.426136363636364  1.506726457399103 2.863636363636364  L 1.506726457399103 11.136363636363637  C 1.506726457399103 11.573863636363637  1.691143497757848 11.948390151515149  2.0599775784753365 12.259943181818182  C 2.4288116591928257 12.571496212121211  2.8721973094170403 12.727272727272727  3.390134529147982 12.727272727272727  L 13.183856502242154 12.727272727272727  C 13.701793721973093 12.727272727272727  14.14517937219731 12.571496212121211  14.5140134529148 12.259943181818182  C 14.882847533632289 11.948390151515149  15.06726457399103 11.573863636363637  15.06726457399103 11.136363636363637  L 15.06726457399103 9.883522727272728  C 15.06726457399103 9.797348484848484  15.102578475336324 9.724431818181818  15.173206278026907 9.664772727272728  L 15.926569506726457 9.028409090909092  C 16.04428251121076 8.928977272727272  16.181614349775785 8.905776515151516  16.338565022421527 8.958806818181818  Z M 7.533632286995515 8.590909090909092  L 15.443946188340808 1.909090909090909  L 18.83408071748879 4.772727272727273  L 10.923766816143496 11.454545454545453  L 7.533632286995515 11.454545454545453  L 7.533632286995515 8.590909090909092  Z M 21 2.545454545454545  C 21 2.8106060606060597  20.890134529147982 3.0359848484848477  20.670403587443946 3.221590909090909  L 19.58744394618834 4.136363636363636  L 16.19730941704036 1.2727272727272732  L 17.280269058295964 0.35795454545454475  C 17.5 0.17234848484848353  17.76681614349776 0.07954545454545525  18.08071748878924 0.07954545454545525  C 18.394618834080717 0.07954545454545525  18.661434977578477 0.17234848484848353  18.881165919282513 0.35795454545454475  L 20.670403587443946 1.869318181818182  C 20.890134529147982 2.0549242424242404  21 2.28030303030303  21 2.545454545454545  Z " fill-rule="evenodd" />
    </mask>
  </defs>
  <g transform="matrix(1 0 0 1 -509 -289 )">
    <path d="M 9.79372197309417 10.5  L 10.452914798206278 10.5  L 11.818385650224215 9.346590909090908  L 10.02914798206278 7.835227272727272  L 8.663677130044844 8.988636363636363  L 8.663677130044844 9.545454545454547  L 9.79372197309417 9.545454545454547  L 9.79372197309417 10.5  Z M 15.620515695067265 3.669034090909091  C 15.753923766816147 3.5563446969696955  15.757847533632287 3.4469696969696955  15.632286995515695 3.340909090909091  C 15.506726457399104 3.2348484848484835  15.37724215246637 3.2381628787878776  15.243834080717487 3.3508522727272734  L 11.123878923766815 6.830965909090909  C 10.990470852017937 6.943655303030303  10.986547085201794 7.053030303030301  11.112107623318385 7.159090909090909  C 11.237668161434978 7.265151515151515  11.367152466367713 7.261837121212119  11.500560538116593 7.149147727272728  L 15.620515695067265 3.669034090909091  Z M 16.338565022421527 8.958806818181818  C 16.495515695067265 9.01183712121212  16.573991031390133 9.107954545454547  16.573991031390133 9.247159090909092  L 16.573991031390133 11.136363636363637  C 16.573991031390133 11.925189393939394  16.24243273542601 12.59966856060606  15.579316143497756 13.159801136363637  C 14.916199551569509 13.719933712121211  14.117713004484306 14  13.183856502242154 14  L 3.390134529147982 14  C 2.4562780269058297 14  1.657791479820628 13.719933712121211  0.9946748878923767 13.159801136363637  C 0.3315582959641255 12.59966856060606  0 11.925189393939394  0 11.136363636363637  L 0 2.863636363636364  C 0 2.0748106060606046  0.3315582959641255 1.4003314393939388  0.9946748878923767 0.8401988636363642  C 1.657791479820628 0.2800662878787865  2.4562780269058297 0  3.390134529147982 0  L 13.183856502242154 0  C 13.678251121076235 0  14.137331838565022 0.08285984848484773  14.561098654708521 0.24857954545454475  C 14.678811659192824 0.29498106060605966  14.749439461883407 0.3712121212121209  14.772982062780269 0.47727272727272685  C 14.796524663677129 0.5899621212121209  14.761210762331839 0.6860795454545447  14.667040358744394 0.765625  L 14.0902466367713 1.252840909090909  C 13.980381165919283 1.3456439393939388  13.854820627802692 1.372159090909091  13.713565022421525 1.3323863636363642  C 13.533071748878925 1.2926136363636358  13.356502242152466 1.2727272727272732  13.183856502242154 1.2727272727272732  L 3.390134529147982 1.2727272727272732  C 2.8721973094170403 1.2727272727272732  2.4288116591928257 1.4285037878787865  2.0599775784753365 1.740056818181818  C 1.691143497757848 2.0516098484848477  1.506726457399103 2.426136363636364  1.506726457399103 2.863636363636364  L 1.506726457399103 11.136363636363637  C 1.506726457399103 11.573863636363637  1.691143497757848 11.948390151515149  2.0599775784753365 12.259943181818182  C 2.4288116591928257 12.571496212121211  2.8721973094170403 12.727272727272727  3.390134529147982 12.727272727272727  L 13.183856502242154 12.727272727272727  C 13.701793721973093 12.727272727272727  14.14517937219731 12.571496212121211  14.5140134529148 12.259943181818182  C 14.882847533632289 11.948390151515149  15.06726457399103 11.573863636363637  15.06726457399103 11.136363636363637  L 15.06726457399103 9.883522727272728  C 15.06726457399103 9.797348484848484  15.102578475336324 9.724431818181818  15.173206278026907 9.664772727272728  L 15.926569506726457 9.028409090909092  C 16.04428251121076 8.928977272727272  16.181614349775785 8.905776515151516  16.338565022421527 8.958806818181818  Z M 7.533632286995515 8.590909090909092  L 15.443946188340808 1.909090909090909  L 18.83408071748879 4.772727272727273  L 10.923766816143496 11.454545454545453  L 7.533632286995515 11.454545454545453  L 7.533632286995515 8.590909090909092  Z M 21 2.545454545454545  C 21 2.8106060606060597  20.890134529147982 3.0359848484848477  20.670403587443946 3.221590909090909  L 19.58744394618834 4.136363636363636  L 16.19730941704036 1.2727272727272732  L 17.280269058295964 0.35795454545454475  C 17.5 0.17234848484848353  17.76681614349776 0.07954545454545525  18.08071748878924 0.07954545454545525  C 18.394618834080717 0.07954545454545525  18.661434977578477 0.17234848484848353  18.881165919282513 0.35795454545454475  L 20.670403587443946 1.869318181818182  C 20.890134529147982 2.0549242424242404  21 2.28030303030303  21 2.545454545454545  Z " fill-rule="nonzero" fill="rgba(127, 127, 127, 1)" stroke="none" transform="matrix(1 0 0 1 509 289 )" class="fill" />
    <path d="M 9.79372197309417 10.5  L 10.452914798206278 10.5  L 11.818385650224215 9.346590909090908  L 10.02914798206278 7.835227272727272  L 8.663677130044844 8.988636363636363  L 8.663677130044844 9.545454545454547  L 9.79372197309417 9.545454545454547  L 9.79372197309417 10.5  Z " stroke-width="0" stroke-dasharray="0" stroke="rgba(255, 255, 255, 0)" fill="none" transform="matrix(1 0 0 1 509 289 )" class="stroke" mask="url(#Clip2804)" />
    <path d="M 15.620515695067265 3.669034090909091  C 15.753923766816147 3.5563446969696955  15.757847533632287 3.4469696969696955  15.632286995515695 3.340909090909091  C 15.506726457399104 3.2348484848484835  15.37724215246637 3.2381628787878776  15.243834080717487 3.3508522727272734  L 11.123878923766815 6.830965909090909  C 10.990470852017937 6.943655303030303  10.986547085201794 7.053030303030301  11.112107623318385 7.159090909090909  C 11.237668161434978 7.265151515151515  11.367152466367713 7.261837121212119  11.500560538116593 7.149147727272728  L 15.620515695067265 3.669034090909091  Z " stroke-width="0" stroke-dasharray="0" stroke="rgba(255, 255, 255, 0)" fill="none" transform="matrix(1 0 0 1 509 289 )" class="stroke" mask="url(#Clip2804)" />
    <path d="M 16.338565022421527 8.958806818181818  C 16.495515695067265 9.01183712121212  16.573991031390133 9.107954545454547  16.573991031390133 9.247159090909092  L 16.573991031390133 11.136363636363637  C 16.573991031390133 11.925189393939394  16.24243273542601 12.59966856060606  15.579316143497756 13.159801136363637  C 14.916199551569509 13.719933712121211  14.117713004484306 14  13.183856502242154 14  L 3.390134529147982 14  C 2.4562780269058297 14  1.657791479820628 13.719933712121211  0.9946748878923767 13.159801136363637  C 0.3315582959641255 12.59966856060606  0 11.925189393939394  0 11.136363636363637  L 0 2.863636363636364  C 0 2.0748106060606046  0.3315582959641255 1.4003314393939388  0.9946748878923767 0.8401988636363642  C 1.657791479820628 0.2800662878787865  2.4562780269058297 0  3.390134529147982 0  L 13.183856502242154 0  C 13.678251121076235 0  14.137331838565022 0.08285984848484773  14.561098654708521 0.24857954545454475  C 14.678811659192824 0.29498106060605966  14.749439461883407 0.3712121212121209  14.772982062780269 0.47727272727272685  C 14.796524663677129 0.5899621212121209  14.761210762331839 0.6860795454545447  14.667040358744394 0.765625  L 14.0902466367713 1.252840909090909  C 13.980381165919283 1.3456439393939388  13.854820627802692 1.372159090909091  13.713565022421525 1.3323863636363642  C 13.533071748878925 1.2926136363636358  13.356502242152466 1.2727272727272732  13.183856502242154 1.2727272727272732  L 3.390134529147982 1.2727272727272732  C 2.8721973094170403 1.2727272727272732  2.4288116591928257 1.4285037878787865  2.0599775784753365 1.740056818181818  C 1.691143497757848 2.0516098484848477  1.506726457399103 2.426136363636364  1.506726457399103 2.863636363636364  L 1.506726457399103 11.136363636363637  C 1.506726457399103 11.573863636363637  1.691143497757848 11.948390151515149  2.0599775784753365 12.259943181818182  C 2.4288116591928257 12.571496212121211  2.8721973094170403 12.727272727272727  3.390134529147982 12.727272727272727  L 13.183856502242154 12.727272727272727  C 13.701793721973093 12.727272727272727  14.14517937219731 12.571496212121211  14.5140134529148 12.259943181818182  C 14.882847533632289 11.948390151515149  15.06726457399103 11.573863636363637  15.06726457399103 11.136363636363637  L 15.06726457399103 9.883522727272728  C 15.06726457399103 9.797348484848484  15.102578475336324 9.724431818181818  15.173206278026907 9.664772727272728  L 15.926569506726457 9.028409090909092  C 16.04428251121076 8.928977272727272  16.181614349775785 8.905776515151516  16.338565022421527 8.958806818181818  Z " stroke-width="0" stroke-dasharray="0" stroke="rgba(255, 255, 255, 0)" fill="none" transform="matrix(1 0 0 1 509 289 )" class="stroke" mask="url(#Clip2804)" />
    <path d="M 7.533632286995515 8.590909090909092  L 15.443946188340808 1.909090909090909  L 18.83408071748879 4.772727272727273  L 10.923766816143496 11.454545454545453  L 7.533632286995515 11.454545454545453  L 7.533632286995515 8.590909090909092  Z " stroke-width="0" stroke-dasharray="0" stroke="rgba(255, 255, 255, 0)" fill="none" transform="matrix(1 0 0 1 509 289 )" class="stroke" mask="url(#Clip2804)" />
    <path d="M 21 2.545454545454545  C 21 2.8106060606060597  20.890134529147982 3.0359848484848477  20.670403587443946 3.221590909090909  L 19.58744394618834 4.136363636363636  L 16.19730941704036 1.2727272727272732  L 17.280269058295964 0.35795454545454475  C 17.5 0.17234848484848353  17.76681614349776 0.07954545454545525  18.08071748878924 0.07954545454545525  C 18.394618834080717 0.07954545454545525  18.661434977578477 0.17234848484848353  18.881165919282513 0.35795454545454475  L 20.670403587443946 1.869318181818182  C 20.890134529147982 2.0549242424242404  21 2.28030303030303  21 2.545454545454545  Z " stroke-width="0" stroke-dasharray="0" stroke="rgba(255, 255, 255, 0)" fill="none" transform="matrix(1 0 0 1 509 289 )" class="stroke" mask="url(#Clip2804)" />
  </g>
</svg>