<?xml version="1.0" encoding="utf-8"?>
<svg version="1.1" xmlns:xlink="http://www.w3.org/1999/xlink" width="9px" height="6px" xmlns="http://www.w3.org/2000/svg">
  <defs>
    <pattern id="BGPattern" patternUnits="userSpaceOnUse" alignment="0 0" imageRepeat="None" />
    <mask fill="white" id="Clip858">
      <path d="M 0.4862548799999786 1.459644080000004  L 1.3135698090000005 0.5404052699999937  L 4.499912456999977 4.080785750000004  L 7.686254879999979 0.5404052699999937  L 8.513569979999984 1.459644080000004  L 4.499912456999977 5.9192634000000055  L 0.4862548799999786 1.459644080000004  Z " fill-rule="evenodd" />
    </mask>
  </defs>
  <g transform="matrix(1 0 0 1 -818 -211 )">
    <path d="M 0.4862548799999786 1.459644080000004  L 1.3135698090000005 0.5404052699999937  L 4.499912456999977 4.080785750000004  L 7.686254879999979 0.5404052699999937  L 8.513569979999984 1.459644080000004  L 4.499912456999977 5.9192634000000055  L 0.4862548799999786 1.459644080000004  Z " fill-rule="nonzero" fill="rgba(0, 0, 0, 0.4)" stroke="none" transform="matrix(1 0 0 1 818 211 )" class="fill" />
    <path d="M 0.4862548799999786 1.459644080000004  L 1.3135698090000005 0.5404052699999937  L 4.499912456999977 4.080785750000004  L 7.686254879999979 0.5404052699999937  L 8.513569979999984 1.459644080000004  L 4.499912456999977 5.9192634000000055  L 0.4862548799999786 1.459644080000004  Z " stroke-width="0" stroke-dasharray="0" stroke="rgba(255, 255, 255, 0)" fill="none" transform="matrix(1 0 0 1 818 211 )" class="stroke" mask="url(#Clip858)" />
  </g>
</svg>