<?xml version="1.0" encoding="utf-8"?>
<svg version="1.1" xmlns:xlink="http://www.w3.org/1999/xlink" width="8px" height="5px" xmlns="http://www.w3.org/2000/svg">
  <defs>
    <pattern id="BGPattern" patternUnits="userSpaceOnUse" alignment="0 0" imageRepeat="None" />
    <mask fill="white" id="Clip151">
      <path d="M 0.43222655999998094 1.21637006666667  L 1.1676176080000005 0.4503377249999948  L 3.999922183999979 3.4006547916666703  L 6.832226559999981 0.4503377249999948  L 7.567617759999985 1.21637006666667  L 3.999922183999979 4.932719500000005  L 0.43222655999998094 1.21637006666667  Z " fill-rule="evenodd" />
    </mask>
  </defs>
  <g transform="matrix(1 0 0 1 -833 -226 )">
    <path d="M 0.43222655999998094 1.21637006666667  L 1.1676176080000005 0.4503377249999948  L 3.999922183999979 3.4006547916666703  L 6.832226559999981 0.4503377249999948  L 7.567617759999985 1.21637006666667  L 3.999922183999979 4.932719500000005  L 0.43222655999998094 1.21637006666667  Z " fill-rule="nonzero" fill="rgba(0, 0, 0, 0.4)" stroke="none" transform="matrix(1 0 0 1 833 226 )" class="fill" />
    <path d="M 0.43222655999998094 1.21637006666667  L 1.1676176080000005 0.4503377249999948  L 3.999922183999979 3.4006547916666703  L 6.832226559999981 0.4503377249999948  L 7.567617759999985 1.21637006666667  L 3.999922183999979 4.932719500000005  L 0.43222655999998094 1.21637006666667  Z " stroke-width="0" stroke-dasharray="0" stroke="rgba(255, 255, 255, 0)" fill="none" transform="matrix(1 0 0 1 833 226 )" class="stroke" mask="url(#Clip151)" />
  </g>
</svg>