<?xml version="1.0" encoding="utf-8"?>
<svg version="1.1" xmlns:xlink="http://www.w3.org/1999/xlink" width="8px" height="5px" xmlns="http://www.w3.org/2000/svg">
  <defs>
    <pattern id="BGPattern" patternUnits="userSpaceOnUse" alignment="0 0" imageRepeat="None" />
    <mask fill="white" id="Clip2816">
      <path d="M 0.4322265600000037 1.21637006666667  L 1.1676176080000005 0.4503377249999948  L 3.9999221840000017 3.4006547916666703  L 6.832226560000004 0.4503377249999948  L 7.567617760000007 1.21637006666667  L 3.9999221840000017 4.932719500000005  L 0.4322265600000037 1.21637006666667  Z " fill-rule="evenodd" />
    </mask>
  </defs>
  <g transform="matrix(1 0 0 1 -621 -227 )">
    <path d="M 0.4322265600000037 1.21637006666667  L 1.1676176080000005 0.4503377249999948  L 3.9999221840000017 3.4006547916666703  L 6.832226560000004 0.4503377249999948  L 7.567617760000007 1.21637006666667  L 3.9999221840000017 4.932719500000005  L 0.4322265600000037 1.21637006666667  Z " fill-rule="nonzero" fill="rgba(0, 0, 0, 0.4)" stroke="none" transform="matrix(1 0 0 1 621 227 )" class="fill" />
    <path d="M 0.4322265600000037 1.21637006666667  L 1.1676176080000005 0.4503377249999948  L 3.9999221840000017 3.4006547916666703  L 6.832226560000004 0.4503377249999948  L 7.567617760000007 1.21637006666667  L 3.9999221840000017 4.932719500000005  L 0.4322265600000037 1.21637006666667  Z " stroke-width="0" stroke-dasharray="0" stroke="rgba(255, 255, 255, 0)" fill="none" transform="matrix(1 0 0 1 621 227 )" class="stroke" mask="url(#Clip2816)" />
  </g>
</svg>