<?xml version="1.0" encoding="utf-8"?>
<svg version="1.1" xmlns:xlink="http://www.w3.org/1999/xlink" width="6px" height="11px" xmlns="http://www.w3.org/2000/svg">
  <defs>
    <pattern id="BGPattern" patternUnits="userSpaceOnUse" alignment="0 0" imageRepeat="None" />
    <mask fill="white" id="Clip567">
      <path d="M 5.141803312499917 5.224426617142829  L 5.142396449999865 5.225048352857117  C 5.288515297499885 5.378468417142836  5.288249737499996 5.626933289999976  5.141803312499917 5.780010169999979  L 0.7462346999998886 10.374590992857115  L 0.21590459999987388 9.819007157142831  L 4.3450620974999765 5.50234848428569  L 0.21590459999987388 1.1883548364285486  L 0.7462346999998886 0.6327709378571171  L 5.137812097499989 5.220277055714266  L 5.141803312499917 5.224426617142829  Z " fill-rule="evenodd" />
    </mask>
  </defs>
  <g transform="matrix(1 0 0 1 -1684 -845 )">
    <path d="M 5.141803312499917 5.224426617142829  L 5.142396449999865 5.225048352857117  C 5.288515297499885 5.378468417142836  5.288249737499996 5.626933289999976  5.141803312499917 5.780010169999979  L 0.7462346999998886 10.374590992857115  L 0.21590459999987388 9.819007157142831  L 4.3450620974999765 5.50234848428569  L 0.21590459999987388 1.1883548364285486  L 0.7462346999998886 0.6327709378571171  L 5.137812097499989 5.220277055714266  L 5.141803312499917 5.224426617142829  Z " fill-rule="nonzero" fill="rgba(0, 0, 0, 0.6)" stroke="none" transform="matrix(1 0 0 1 1684 845 )" class="fill" />
    <path d="M 5.141803312499917 5.224426617142829  L 5.142396449999865 5.225048352857117  C 5.288515297499885 5.378468417142836  5.288249737499996 5.626933289999976  5.141803312499917 5.780010169999979  L 0.7462346999998886 10.374590992857115  L 0.21590459999987388 9.819007157142831  L 4.3450620974999765 5.50234848428569  L 0.21590459999987388 1.1883548364285486  L 0.7462346999998886 0.6327709378571171  L 5.137812097499989 5.220277055714266  L 5.141803312499917 5.224426617142829  Z " stroke-width="0" stroke-dasharray="0" stroke="rgba(255, 255, 255, 0)" fill="none" transform="matrix(1 0 0 1 1684 845 )" class="stroke" mask="url(#Clip567)" />
  </g>
</svg>