<?xml version="1.0" encoding="utf-8"?>
<svg version="1.1" xmlns:xlink="http://www.w3.org/1999/xlink" width="9px" height="8px" xmlns="http://www.w3.org/2000/svg">
  <defs>
    <pattern id="BGPattern" patternUnits="userSpaceOnUse" alignment="0 0" imageRepeat="None" />
    <mask fill="white" id="Clip863">
      <path d="M 1.9090543230000065 6.354159400000015  L 0 4.232987879999996  L 1.291314663000002 2.8393547500000125  L 3.1839110639999944 4.942239760000007  L 7.645440689999995 0  L 8.909545589999995 1.404560800000013  L 4.448015784000006 6.346800300000012  L 4.454772804000005 6.354308099999997  L 4.435982325000005 6.37458749999999  C 4.397040882000006 6.4166145000000085  4.356821852999993 6.456294899999989  4.315467878999997 6.493629900000002  L 3.809688236999996 7.053904499999987  C 3.458061144000004 7.443417899999986  2.888956476 7.442939499999994  2.5378615350000033 7.05283399999999  L 1.9090543230000065 6.354159400000015  Z " fill-rule="evenodd" />
    </mask>
  </defs>
  <g transform="matrix(1 0 0 1 -400 -289 )">
    <path d="M 1.9090543230000065 6.354159400000015  L 0 4.232987879999996  L 1.291314663000002 2.8393547500000125  L 3.1839110639999944 4.942239760000007  L 7.645440689999995 0  L 8.909545589999995 1.404560800000013  L 4.448015784000006 6.346800300000012  L 4.454772804000005 6.354308099999997  L 4.435982325000005 6.37458749999999  C 4.397040882000006 6.4166145000000085  4.356821852999993 6.456294899999989  4.315467878999997 6.493629900000002  L 3.809688236999996 7.053904499999987  C 3.458061144000004 7.443417899999986  2.888956476 7.442939499999994  2.5378615350000033 7.05283399999999  L 1.9090543230000065 6.354159400000015  Z " fill-rule="nonzero" fill="rgba(255, 255, 255, 1)" stroke="none" transform="matrix(1 0 0 1 400 289 )" class="fill" />
    <path d="M 1.9090543230000065 6.354159400000015  L 0 4.232987879999996  L 1.291314663000002 2.8393547500000125  L 3.1839110639999944 4.942239760000007  L 7.645440689999995 0  L 8.909545589999995 1.404560800000013  L 4.448015784000006 6.346800300000012  L 4.454772804000005 6.354308099999997  L 4.435982325000005 6.37458749999999  C 4.397040882000006 6.4166145000000085  4.356821852999993 6.456294899999989  4.315467878999997 6.493629900000002  L 3.809688236999996 7.053904499999987  C 3.458061144000004 7.443417899999986  2.888956476 7.442939499999994  2.5378615350000033 7.05283399999999  L 1.9090543230000065 6.354159400000015  Z " stroke-width="0" stroke-dasharray="0" stroke="rgba(255, 255, 255, 0)" fill="none" transform="matrix(1 0 0 1 400 289 )" class="stroke" mask="url(#Clip863)" />
  </g>
</svg>