<?xml version="1.0" encoding="utf-8"?>
<svg version="1.1" xmlns:xlink="http://www.w3.org/1999/xlink" width="1004px" height="578px" xmlns="http://www.w3.org/2000/svg">
  <defs>
    <pattern id="BGPattern" patternUnits="userSpaceOnUse" alignment="0 0" imageRepeat="None" />
    <mask fill="white" id="Clip123">
      <path d="M 0 10.052173913043479  C 0 4.500511556521739  3.745884258333333 0  8.366666666666667 0  L 995.6333333333333 0  C 1000.2541157416667 0  1004 4.500511556521739  1004 10.052173913043479  L 1004 567.9478260869565  C 1004 573.4994884434782  1000.2541157416667 578  995.6333333333333 578  L 8.366666666666667 578  C 3.745884258333333 578  0 573.4994884434782  0 567.9478260869565  L 0 10.052173913043479  Z " fill-rule="evenodd" />
    </mask>
  </defs>
  <g transform="matrix(1 0 0 1 -569 -224 )">
    <path d="M 0 10.052173913043479  C 0 4.500511556521739  3.745884258333333 0  8.366666666666667 0  L 995.6333333333333 0  C 1000.2541157416667 0  1004 4.500511556521739  1004 10.052173913043479  L 1004 567.9478260869565  C 1004 573.4994884434782  1000.2541157416667 578  995.6333333333333 578  L 8.366666666666667 578  C 3.745884258333333 578  0 573.4994884434782  0 567.9478260869565  L 0 10.052173913043479  Z " fill-rule="nonzero" fill="rgba(255, 255, 255, 1)" stroke="none" transform="matrix(1 0 0 1 569 224 )" class="fill" />
    <path d="M 0 10.052173913043479  C 0 4.500511556521739  3.745884258333333 0  8.366666666666667 0  L 995.6333333333333 0  C 1000.2541157416667 0  1004 4.500511556521739  1004 10.052173913043479  L 1004 567.9478260869565  C 1004 573.4994884434782  1000.2541157416667 578  995.6333333333333 578  L 8.366666666666667 578  C 3.745884258333333 578  0 573.4994884434782  0 567.9478260869565  L 0 10.052173913043479  Z " stroke-width="0" stroke-dasharray="0" stroke="rgba(255, 255, 255, 0)" fill="none" transform="matrix(1 0 0 1 569 224 )" class="stroke" mask="url(#Clip123)" />
  </g>
</svg>