<?xml version="1.0" encoding="utf-8"?>
<svg version="1.1" xmlns:xlink="http://www.w3.org/1999/xlink" width="13px" height="13px" xmlns="http://www.w3.org/2000/svg">
  <defs>
    <pattern id="BGPattern" patternUnits="userSpaceOnUse" alignment="0 0" imageRepeat="None" />
    <mask fill="white" id="Clip2525">
      <path d="M 1.2555826307142297 12.863176299999992  L 4.610475507857116 12.14058399999999  L 11.386820342857195 4.842982290000009  L 8.375111642857064 1.5996033000000125  L 1.5987668821427568 8.897205350000007  L 0.9277883921429456 12.51016709999999  C 0.8888035649999568 12.720084200000002  1.0606605471428208 12.905158999999998  1.2555826307142297 12.863176299999992  Z M 9.176078228571523 0.7368919799999958  L 12.187786928571443 3.980270389999987  L 12.844386749999915 3.2731637999999923  L 9.832678049999995 0.029785159999988764  L 9.176078228571523 0.7368919799999958  Z M 8.375111642857064 3.0138166000000126  L 10.073622464285677 4.842982290000009  L 4.152678474285738 11.219382300000007  L 2.0295404350000417 11.676673899999997  L 2.454168135714229 9.390217799999988  L 8.375111642857064 3.0138166000000126  Z " fill-rule="evenodd" />
    </mask>
  </defs>
  <g transform="matrix(1 0 0 1 -1366 -233 )">
    <path d="M 1.2555826307142297 12.863176299999992  L 4.610475507857116 12.14058399999999  L 11.386820342857195 4.842982290000009  L 8.375111642857064 1.5996033000000125  L 1.5987668821427568 8.897205350000007  L 0.9277883921429456 12.51016709999999  C 0.8888035649999568 12.720084200000002  1.0606605471428208 12.905158999999998  1.2555826307142297 12.863176299999992  Z M 9.176078228571523 0.7368919799999958  L 12.187786928571443 3.980270389999987  L 12.844386749999915 3.2731637999999923  L 9.832678049999995 0.029785159999988764  L 9.176078228571523 0.7368919799999958  Z M 8.375111642857064 3.0138166000000126  L 10.073622464285677 4.842982290000009  L 4.152678474285738 11.219382300000007  L 2.0295404350000417 11.676673899999997  L 2.454168135714229 9.390217799999988  L 8.375111642857064 3.0138166000000126  Z " fill-rule="nonzero" fill="rgba(0, 0, 0, 0.8980392156862745)" stroke="none" transform="matrix(1 0 0 1 1366 233 )" class="fill" />
    <path d="M 1.2555826307142297 12.863176299999992  L 4.610475507857116 12.14058399999999  L 11.386820342857195 4.842982290000009  L 8.375111642857064 1.5996033000000125  L 1.5987668821427568 8.897205350000007  L 0.9277883921429456 12.51016709999999  C 0.8888035649999568 12.720084200000002  1.0606605471428208 12.905158999999998  1.2555826307142297 12.863176299999992  Z " stroke-width="0" stroke-dasharray="0" stroke="rgba(255, 255, 255, 0)" fill="none" transform="matrix(1 0 0 1 1366 233 )" class="stroke" mask="url(#Clip2525)" />
    <path d="M 9.176078228571523 0.7368919799999958  L 12.187786928571443 3.980270389999987  L 12.844386749999915 3.2731637999999923  L 9.832678049999995 0.029785159999988764  L 9.176078228571523 0.7368919799999958  Z " stroke-width="0" stroke-dasharray="0" stroke="rgba(255, 255, 255, 0)" fill="none" transform="matrix(1 0 0 1 1366 233 )" class="stroke" mask="url(#Clip2525)" />
    <path d="M 8.375111642857064 3.0138166000000126  L 10.073622464285677 4.842982290000009  L 4.152678474285738 11.219382300000007  L 2.0295404350000417 11.676673899999997  L 2.454168135714229 9.390217799999988  L 8.375111642857064 3.0138166000000126  Z " stroke-width="0" stroke-dasharray="0" stroke="rgba(255, 255, 255, 0)" fill="none" transform="matrix(1 0 0 1 1366 233 )" class="stroke" mask="url(#Clip2525)" />
  </g>
</svg>