<?xml version="1.0" encoding="utf-8"?>
<svg version="1.1" xmlns:xlink="http://www.w3.org/1999/xlink" width="11px" height="12px" xmlns="http://www.w3.org/2000/svg">
  <defs>
    <pattern id="BGPattern" patternUnits="userSpaceOnUse" alignment="0 0" imageRepeat="None" />
    <mask fill="white" id="Clip2553">
      <path d="M 0 6  C 0 2.6399999999999997  2.42 0  5.5 0  C 8.58 0  11 2.6399999999999997  11 6  C 11 9.36  8.58 12  5.5 12  C 2.42 12  0 9.36  0 6  Z " fill-rule="evenodd" />
    </mask>
  </defs>
  <g transform="matrix(1 0 0 1 -578 -941 )">
    <path d="M 0 6  C 0 2.6399999999999997  2.42 0  5.5 0  C 8.58 0  11 2.6399999999999997  11 6  C 11 9.36  8.58 12  5.5 12  C 2.42 12  0 9.36  0 6  Z " fill-rule="nonzero" fill="rgba(0, 82, 217, 1)" stroke="none" transform="matrix(1 0 0 1 578 941 )" class="fill" />
    <path d="M 0 6  C 0 2.6399999999999997  2.42 0  5.5 0  C 8.58 0  11 2.6399999999999997  11 6  C 11 9.36  8.58 12  5.5 12  C 2.42 12  0 9.36  0 6  Z " stroke-width="4" stroke-dasharray="0" stroke="rgba(255, 255, 255, 1)" fill="none" transform="matrix(1 0 0 1 578 941 )" class="stroke" mask="url(#Clip2553)" />
  </g>
</svg>