<?xml version="1.0" encoding="utf-8"?>
<svg version="1.1" xmlns:xlink="http://www.w3.org/1999/xlink" width="8px" height="8px" xmlns="http://www.w3.org/2000/svg">
  <defs>
    <pattern id="BGPattern" patternUnits="userSpaceOnUse" alignment="0 0" imageRepeat="None" />
    <mask fill="white" id="Clip2568">
      <path d="M 0 4  C 0 6.20913900000005  1.7908609999999499 8  4 8  C 6.20913900000005 8  8 6.20913900000005  8 4  C 8 1.7908609999999499  6.20913900000005 0  4 0  C 1.7908609999999499 0  0 1.7908609999999499  0 4  Z " fill-rule="evenodd" />
    </mask>
  </defs>
  <g transform="matrix(1 0 0 1 -714 -848 )">
    <path d="M 0 4  C 0 6.20913900000005  1.7908609999999499 8  4 8  C 6.20913900000005 8  8 6.20913900000005  8 4  C 8 1.7908609999999499  6.20913900000005 0  4 0  C 1.7908609999999499 0  0 1.7908609999999499  0 4  Z " fill-rule="nonzero" fill="rgba(0, 82, 217, 1)" stroke="none" transform="matrix(1 0 0 1 714 848 )" class="fill" />
    <path d="M 0 4  C 0 6.20913900000005  1.7908609999999499 8  4 8  C 6.20913900000005 8  8 6.20913900000005  8 4  C 8 1.7908609999999499  6.20913900000005 0  4 0  C 1.7908609999999499 0  0 1.7908609999999499  0 4  Z " stroke-width="0" stroke-dasharray="0" stroke="rgba(255, 255, 255, 0)" fill="none" transform="matrix(1 0 0 1 714 848 )" class="stroke" mask="url(#Clip2568)" />
  </g>
</svg>