<?xml version="1.0" encoding="utf-8"?>
<svg version="1.1" xmlns:xlink="http://www.w3.org/1999/xlink" width="14px" height="16px" xmlns="http://www.w3.org/2000/svg">
  <defs>
    <pattern id="BGPattern" patternUnits="userSpaceOnUse" alignment="0 0" imageRepeat="None" />
    <mask fill="white" id="Clip2556">
      <path d="M 3.1095100306666303 12.380070599999954  C 2.844443354666631 12.02107060000003  2.5224433546666054 11.287070399999948  1.9493766693333328 10.396070420000001  C 1.6245766786666083 9.892070409999974  0.8191100484000344 8.943070949999992  0.5792433826666334 8.461070950000021  C 0.37111004485336707 8.035070949999977  0.3935100554933191 7.844070669999951  0.442976721506678 7.491070680000007  C 0.5307100521333572 6.8630706599999485  1.131776792533325 6.374070569999958  1.7729767720000078 6.440070569999989  C 2.2573767626666723 6.489070569999967  2.668043457333306 6.8320706499999915  3.037643457333373 7.156070649999947  C 3.2607101146666233 7.351070639999989  3.53511015199997 7.730070749999982  3.7003101613333302 7.9440707499999235  C 3.852443494666674 8.14007074999995  3.8897766973333097 8.221070579999946  4.052176687999948 8.45307058000003  C 4.266843363999973 8.760070589999941  4.334043569333366 8.91207086999998  4.251910235999958 8.574070870000014  C 4.185643560000032 8.078070879999927  4.077376659999967 7.2310708699999395  3.92057665999996 6.482070860000022  C 3.8011099840000195 5.914070840000022  3.7721767533332695 5.825070910000022  3.6583100866666425 5.389070930000003  C 3.537910095999966 4.925070939999955  3.4763100959999367 4.600070800000026  3.3633767719999623 4.1080707899999425  C 3.284976772000012 3.760070799999994  3.1440434106667 3.04907068  3.105776743999983 2.6490706800000225  C 3.0525767439999676 2.102070690000005  3.0245766786666084 1.2100707260000263  3.3521766879999477 0.8000707300000158  C 3.6088433640000406 0.4790707201599389  4.1977766226666215 0.38207073219996346  4.562709956000027 0.580070730999978  C 5.0405766506666625 0.8390707339999608  5.312176501333367 1.5830707499999335  5.43630983466663 1.880070739999951  C 5.659376501333327 2.414070719999927  5.797510096000011 3.031070829999976  5.917910086666688 3.841070830000035  C 6.0709767626666835 4.87207085  6.352843270666684 6.3030705999999554  6.362176604000009 6.6040706  C 6.38457660400001 6.23507060999998  6.298710198666686 5.458070599999928  6.358443541333327 5.1040706  C 6.412576865333313 4.783070589999966  6.664576771999995 4.4100707699999475  6.980043438666629 4.3090707599999405  C 7.246976781333357 4.224070760000018  7.55964334533331 4.193070700000021  7.83497666000003 4.254070699999943  C 8.12710999333335 4.318070700000021  8.435110245333272 4.542070770000009  8.549910254666656 4.753070770000022  C 8.88777690266661 5.37707077999994  8.894310086666655 6.652070620000018  8.908310086666644 6.584070620000034  C 8.988576753333321 6.208070629999952  8.974577126666645 5.355070500000011  9.173377126666612 5.0000705100000005  C 9.304043793333374 4.766070509999963  9.637243158666706 4.5550709000000325  9.814576520000006 4.521070890000033  C 10.08897651999999 4.469070890000012  10.425910506666636 4.453070519999983  10.714310506666607 4.513070519999928  C 10.94671050666663 4.56207052000002  11.261243000000029 4.85807049999994  11.34617633333337 5.0000705100000005  C 11.549643 5.344070519999946  11.665376893333269 6.317070510000008  11.699910226666633 6.658070500000008  C 11.713910226666622 6.799070499999971  11.768977079999969 6.266070929999955  11.973377080000017 5.92207092000001  C 12.352310413333301 5.28307092  13.693510226666604 5.1590709099999685  13.744843559999996 6.5610708599999725  C 13.768176893333308 7.215070839999953  13.763509760000034 7.185070509999946  13.763509760000034 7.6250705100000005  C 13.763509760000034 8.142070529999955  13.752309853333282 8.453071109999996  13.726176520000037 8.827071129999922  C 13.697243186666643 9.227071130000013  13.616976799999975 10.131070759999943  13.500310133333308 10.569070799999963  C 13.420043466666629 10.870070800000008  13.154043093333348 11.547070599999984  12.891776426666624 11.953070599999933  C 12.22350975999995 12.786403699999937  11.852976426666675 13.390736999999945  11.7801764266667 13.766070300000024  C 11.67004309333332 14.328070300000036  11.706443746666627 14.332070499999986  11.684977079999939 14.731070499999987  C 11.670665999999983 14.996403799999939  11.708310226666647 15.303737100000035  11.797909853333339 15.653070399999933  C 11.298887506666702 15.722404299999994  10.914976333333273 15.734071200000017  10.64617633333337 15.688071199999968  C 10.281242999999964 15.62507119999998  9.829509666666702 14.847070700000017  9.712842962666672 14.609070699999961  C 9.552309629333315 14.281070699999987  9.20977704266664 14.344070999999985  9.076310366666606 14.586070999999947  C 8.866310376000031 14.96907090000002  8.414576491999984 15.656070900000032  8.095376482666659 15.699070899999924  C 7.4719098346666675 15.783070899999984  6.178309909333317 15.730070399999931  5.16564320533336 15.719070399999964  C 5.280754462666634 15.045070499999952  5.210132321333337 14.592403900000022  4.953776762666681 14.361070599999948  C 4.669110086666614 14.102070599999934  4.179110058666614 13.577071100000012  3.886043382666639 13.301071099999945  L 3.1095100306666303 12.380070599999954  Z " fill-rule="evenodd" />
    </mask>
  </defs>
  <g transform="matrix(1 0 0 1 -680 -801 )">
    <path d="M 3.1095100306666303 12.380070599999954  C 2.844443354666631 12.02107060000003  2.5224433546666054 11.287070399999948  1.9493766693333328 10.396070420000001  C 1.6245766786666083 9.892070409999974  0.8191100484000344 8.943070949999992  0.5792433826666334 8.461070950000021  C 0.37111004485336707 8.035070949999977  0.3935100554933191 7.844070669999951  0.442976721506678 7.491070680000007  C 0.5307100521333572 6.8630706599999485  1.131776792533325 6.374070569999958  1.7729767720000078 6.440070569999989  C 2.2573767626666723 6.489070569999967  2.668043457333306 6.8320706499999915  3.037643457333373 7.156070649999947  C 3.2607101146666233 7.351070639999989  3.53511015199997 7.730070749999982  3.7003101613333302 7.9440707499999235  C 3.852443494666674 8.14007074999995  3.8897766973333097 8.221070579999946  4.052176687999948 8.45307058000003  C 4.266843363999973 8.760070589999941  4.334043569333366 8.91207086999998  4.251910235999958 8.574070870000014  C 4.185643560000032 8.078070879999927  4.077376659999967 7.2310708699999395  3.92057665999996 6.482070860000022  C 3.8011099840000195 5.914070840000022  3.7721767533332695 5.825070910000022  3.6583100866666425 5.389070930000003  C 3.537910095999966 4.925070939999955  3.4763100959999367 4.600070800000026  3.3633767719999623 4.1080707899999425  C 3.284976772000012 3.760070799999994  3.1440434106667 3.04907068  3.105776743999983 2.6490706800000225  C 3.0525767439999676 2.102070690000005  3.0245766786666084 1.2100707260000263  3.3521766879999477 0.8000707300000158  C 3.6088433640000406 0.4790707201599389  4.1977766226666215 0.38207073219996346  4.562709956000027 0.580070730999978  C 5.0405766506666625 0.8390707339999608  5.312176501333367 1.5830707499999335  5.43630983466663 1.880070739999951  C 5.659376501333327 2.414070719999927  5.797510096000011 3.031070829999976  5.917910086666688 3.841070830000035  C 6.0709767626666835 4.87207085  6.352843270666684 6.3030705999999554  6.362176604000009 6.6040706  C 6.38457660400001 6.23507060999998  6.298710198666686 5.458070599999928  6.358443541333327 5.1040706  C 6.412576865333313 4.783070589999966  6.664576771999995 4.4100707699999475  6.980043438666629 4.3090707599999405  C 7.246976781333357 4.224070760000018  7.55964334533331 4.193070700000021  7.83497666000003 4.254070699999943  C 8.12710999333335 4.318070700000021  8.435110245333272 4.542070770000009  8.549910254666656 4.753070770000022  C 8.88777690266661 5.37707077999994  8.894310086666655 6.652070620000018  8.908310086666644 6.584070620000034  C 8.988576753333321 6.208070629999952  8.974577126666645 5.355070500000011  9.173377126666612 5.0000705100000005  C 9.304043793333374 4.766070509999963  9.637243158666706 4.5550709000000325  9.814576520000006 4.521070890000033  C 10.08897651999999 4.469070890000012  10.425910506666636 4.453070519999983  10.714310506666607 4.513070519999928  C 10.94671050666663 4.56207052000002  11.261243000000029 4.85807049999994  11.34617633333337 5.0000705100000005  C 11.549643 5.344070519999946  11.665376893333269 6.317070510000008  11.699910226666633 6.658070500000008  C 11.713910226666622 6.799070499999971  11.768977079999969 6.266070929999955  11.973377080000017 5.92207092000001  C 12.352310413333301 5.28307092  13.693510226666604 5.1590709099999685  13.744843559999996 6.5610708599999725  C 13.768176893333308 7.215070839999953  13.763509760000034 7.185070509999946  13.763509760000034 7.6250705100000005  C 13.763509760000034 8.142070529999955  13.752309853333282 8.453071109999996  13.726176520000037 8.827071129999922  C 13.697243186666643 9.227071130000013  13.616976799999975 10.131070759999943  13.500310133333308 10.569070799999963  C 13.420043466666629 10.870070800000008  13.154043093333348 11.547070599999984  12.891776426666624 11.953070599999933  C 12.22350975999995 12.786403699999937  11.852976426666675 13.390736999999945  11.7801764266667 13.766070300000024  C 11.67004309333332 14.328070300000036  11.706443746666627 14.332070499999986  11.684977079999939 14.731070499999987  C 11.670665999999983 14.996403799999939  11.708310226666647 15.303737100000035  11.797909853333339 15.653070399999933  C 11.298887506666702 15.722404299999994  10.914976333333273 15.734071200000017  10.64617633333337 15.688071199999968  C 10.281242999999964 15.62507119999998  9.829509666666702 14.847070700000017  9.712842962666672 14.609070699999961  C 9.552309629333315 14.281070699999987  9.20977704266664 14.344070999999985  9.076310366666606 14.586070999999947  C 8.866310376000031 14.96907090000002  8.414576491999984 15.656070900000032  8.095376482666659 15.699070899999924  C 7.4719098346666675 15.783070899999984  6.178309909333317 15.730070399999931  5.16564320533336 15.719070399999964  C 5.280754462666634 15.045070499999952  5.210132321333337 14.592403900000022  4.953776762666681 14.361070599999948  C 4.669110086666614 14.102070599999934  4.179110058666614 13.577071100000012  3.886043382666639 13.301071099999945  L 3.1095100306666303 12.380070599999954  Z " fill-rule="nonzero" fill="rgba(255, 255, 255, 1)" stroke="none" transform="matrix(1 0 0 1 680 801 )" class="fill" />
    <path d="M 3.1095100306666303 12.380070599999954  C 2.844443354666631 12.02107060000003  2.5224433546666054 11.287070399999948  1.9493766693333328 10.396070420000001  C 1.6245766786666083 9.892070409999974  0.8191100484000344 8.943070949999992  0.5792433826666334 8.461070950000021  C 0.37111004485336707 8.035070949999977  0.3935100554933191 7.844070669999951  0.442976721506678 7.491070680000007  C 0.5307100521333572 6.8630706599999485  1.131776792533325 6.374070569999958  1.7729767720000078 6.440070569999989  C 2.2573767626666723 6.489070569999967  2.668043457333306 6.8320706499999915  3.037643457333373 7.156070649999947  C 3.2607101146666233 7.351070639999989  3.53511015199997 7.730070749999982  3.7003101613333302 7.9440707499999235  C 3.852443494666674 8.14007074999995  3.8897766973333097 8.221070579999946  4.052176687999948 8.45307058000003  C 4.266843363999973 8.760070589999941  4.334043569333366 8.91207086999998  4.251910235999958 8.574070870000014  C 4.185643560000032 8.078070879999927  4.077376659999967 7.2310708699999395  3.92057665999996 6.482070860000022  C 3.8011099840000195 5.914070840000022  3.7721767533332695 5.825070910000022  3.6583100866666425 5.389070930000003  C 3.537910095999966 4.925070939999955  3.4763100959999367 4.600070800000026  3.3633767719999623 4.1080707899999425  C 3.284976772000012 3.760070799999994  3.1440434106667 3.04907068  3.105776743999983 2.6490706800000225  C 3.0525767439999676 2.102070690000005  3.0245766786666084 1.2100707260000263  3.3521766879999477 0.8000707300000158  C 3.6088433640000406 0.4790707201599389  4.1977766226666215 0.38207073219996346  4.562709956000027 0.580070730999978  C 5.0405766506666625 0.8390707339999608  5.312176501333367 1.5830707499999335  5.43630983466663 1.880070739999951  C 5.659376501333327 2.414070719999927  5.797510096000011 3.031070829999976  5.917910086666688 3.841070830000035  C 6.0709767626666835 4.87207085  6.352843270666684 6.3030705999999554  6.362176604000009 6.6040706  C 6.38457660400001 6.23507060999998  6.298710198666686 5.458070599999928  6.358443541333327 5.1040706  C 6.412576865333313 4.783070589999966  6.664576771999995 4.4100707699999475  6.980043438666629 4.3090707599999405  C 7.246976781333357 4.224070760000018  7.55964334533331 4.193070700000021  7.83497666000003 4.254070699999943  C 8.12710999333335 4.318070700000021  8.435110245333272 4.542070770000009  8.549910254666656 4.753070770000022  C 8.88777690266661 5.37707077999994  8.894310086666655 6.652070620000018  8.908310086666644 6.584070620000034  C 8.988576753333321 6.208070629999952  8.974577126666645 5.355070500000011  9.173377126666612 5.0000705100000005  C 9.304043793333374 4.766070509999963  9.637243158666706 4.5550709000000325  9.814576520000006 4.521070890000033  C 10.08897651999999 4.469070890000012  10.425910506666636 4.453070519999983  10.714310506666607 4.513070519999928  C 10.94671050666663 4.56207052000002  11.261243000000029 4.85807049999994  11.34617633333337 5.0000705100000005  C 11.549643 5.344070519999946  11.665376893333269 6.317070510000008  11.699910226666633 6.658070500000008  C 11.713910226666622 6.799070499999971  11.768977079999969 6.266070929999955  11.973377080000017 5.92207092000001  C 12.352310413333301 5.28307092  13.693510226666604 5.1590709099999685  13.744843559999996 6.5610708599999725  C 13.768176893333308 7.215070839999953  13.763509760000034 7.185070509999946  13.763509760000034 7.6250705100000005  C 13.763509760000034 8.142070529999955  13.752309853333282 8.453071109999996  13.726176520000037 8.827071129999922  C 13.697243186666643 9.227071130000013  13.616976799999975 10.131070759999943  13.500310133333308 10.569070799999963  C 13.420043466666629 10.870070800000008  13.154043093333348 11.547070599999984  12.891776426666624 11.953070599999933  C 12.22350975999995 12.786403699999937  11.852976426666675 13.390736999999945  11.7801764266667 13.766070300000024  C 11.67004309333332 14.328070300000036  11.706443746666627 14.332070499999986  11.684977079999939 14.731070499999987  C 11.670665999999983 14.996403799999939  11.708310226666647 15.303737100000035  11.797909853333339 15.653070399999933  C 11.298887506666702 15.722404299999994  10.914976333333273 15.734071200000017  10.64617633333337 15.688071199999968  C 10.281242999999964 15.62507119999998  9.829509666666702 14.847070700000017  9.712842962666672 14.609070699999961  C 9.552309629333315 14.281070699999987  9.20977704266664 14.344070999999985  9.076310366666606 14.586070999999947  C 8.866310376000031 14.96907090000002  8.414576491999984 15.656070900000032  8.095376482666659 15.699070899999924  C 7.4719098346666675 15.783070899999984  6.178309909333317 15.730070399999931  5.16564320533336 15.719070399999964  C 5.280754462666634 15.045070499999952  5.210132321333337 14.592403900000022  4.953776762666681 14.361070599999948  C 4.669110086666614 14.102070599999934  4.179110058666614 13.577071100000012  3.886043382666639 13.301071099999945  L 3.1095100306666303 12.380070599999954  Z " stroke-width="0" stroke-dasharray="0" stroke="rgba(255, 255, 255, 0)" fill="none" transform="matrix(1 0 0 1 680 801 )" class="stroke" mask="url(#Clip2556)" />
  </g>
</svg>