<?xml version="1.0" encoding="utf-8"?>
<svg version="1.1" xmlns:xlink="http://www.w3.org/1999/xlink" width="2px" height="12px" xmlns="http://www.w3.org/2000/svg">
  <defs>
    <pattern id="BGPattern" patternUnits="userSpaceOnUse" alignment="0 0" imageRepeat="None" />
    <mask fill="white" id="Clip2519">
      <path d="M 1 2  C 1.552246089999926 2  2 1.552276610000007  2 1  C 2 0.44772338999999306  1.552246089999926 0  1 0  C 0.44775391000007403 0  0 0.44772338999999306  0 1  C 0 1.552276610000007  0.44775391000007403 2  1 2  Z M 1 7  C 1.552246089999926 7  2 6.552276610000007  2 6  C 2 5.447723389999993  1.552246089999926 5  1 5  C 0.44775391000007403 5  0 5.447723389999993  0 6  C 0 6.552276610000007  0.44775391000007403 7  1 7  Z M 2 11  C 2 11.552276599999999  1.552246089999926 12  1 12  C 0.44775391000007403 12  0 11.552276599999999  0 11  C 0 10.447723400000001  0.44775391000007403 10  1 10  C 1.552246089999926 10  2 10.447723400000001  2 11  Z " fill-rule="evenodd" />
    </mask>
  </defs>
  <g transform="matrix(1 0 0 1 -1768 -126 )">
    <path d="M 1 2  C 1.552246089999926 2  2 1.552276610000007  2 1  C 2 0.44772338999999306  1.552246089999926 0  1 0  C 0.44775391000007403 0  0 0.44772338999999306  0 1  C 0 1.552276610000007  0.44775391000007403 2  1 2  Z M 1 7  C 1.552246089999926 7  2 6.552276610000007  2 6  C 2 5.447723389999993  1.552246089999926 5  1 5  C 0.44775391000007403 5  0 5.447723389999993  0 6  C 0 6.552276610000007  0.44775391000007403 7  1 7  Z M 2 11  C 2 11.552276599999999  1.552246089999926 12  1 12  C 0.44775391000007403 12  0 11.552276599999999  0 11  C 0 10.447723400000001  0.44775391000007403 10  1 10  C 1.552246089999926 10  2 10.447723400000001  2 11  Z " fill-rule="nonzero" fill="rgba(255, 255, 255, 1)" stroke="none" transform="matrix(1 0 0 1 1768 126 )" class="fill" />
    <path d="M 1 2  C 1.552246089999926 2  2 1.552276610000007  2 1  C 2 0.44772338999999306  1.552246089999926 0  1 0  C 0.44775391000007403 0  0 0.44772338999999306  0 1  C 0 1.552276610000007  0.44775391000007403 2  1 2  Z " stroke-width="0" stroke-dasharray="0" stroke="rgba(255, 255, 255, 0)" fill="none" transform="matrix(1 0 0 1 1768 126 )" class="stroke" mask="url(#Clip2519)" />
    <path d="M 1 7  C 1.552246089999926 7  2 6.552276610000007  2 6  C 2 5.447723389999993  1.552246089999926 5  1 5  C 0.44775391000007403 5  0 5.447723389999993  0 6  C 0 6.552276610000007  0.44775391000007403 7  1 7  Z " stroke-width="0" stroke-dasharray="0" stroke="rgba(255, 255, 255, 0)" fill="none" transform="matrix(1 0 0 1 1768 126 )" class="stroke" mask="url(#Clip2519)" />
    <path d="M 2 11  C 2 11.552276599999999  1.552246089999926 12  1 12  C 0.44775391000007403 12  0 11.552276599999999  0 11  C 0 10.447723400000001  0.44775391000007403 10  1 10  C 1.552246089999926 10  2 10.447723400000001  2 11  Z " stroke-width="0" stroke-dasharray="0" stroke="rgba(255, 255, 255, 0)" fill="none" transform="matrix(1 0 0 1 1768 126 )" class="stroke" mask="url(#Clip2519)" />
  </g>
</svg>