<?xml version="1.0" encoding="utf-8"?>
<svg version="1.1" xmlns:xlink="http://www.w3.org/1999/xlink" width="385px" height="286px" xmlns="http://www.w3.org/2000/svg">
  <defs>
    <pattern id="BGPattern" patternUnits="userSpaceOnUse" alignment="0 0" imageRepeat="None" />
    <mask fill="white" id="Clip2518">
      <path d="M 378.1281407035176 0  C 379.7142207286433 0  381 1.343145800000002  381 3  L 381 279  C 381 280.656854  379.7142207286433 282  378.1281407035176 282  L 2.871859296482412 282  C 1.2857792713567104 282  0 280.656854  0 279  L 0 3  C 0 1.343145800000002  1.2857792713567104 0  2.871859296482412 0  L 378.1281407035176 0  Z " fill-rule="evenodd" />
    </mask>
  </defs>
  <g transform="matrix(1 0 0 1 -1432 -87 )">
    <path d="M 378.1281407035176 0  C 379.7142207286433 0  381 1.343145800000002  381 3  L 381 279  C 381 280.656854  379.7142207286433 282  378.1281407035176 282  L 2.871859296482412 282  C 1.2857792713567104 282  0 280.656854  0 279  L 0 3  C 0 1.343145800000002  1.2857792713567104 0  2.871859296482412 0  L 378.1281407035176 0  Z " fill-rule="nonzero" fill="rgba(0, 82, 217, 1)" stroke="none" transform="matrix(1 0 0 1 1434 88 )" class="fill" />
    <path d="M 378.1281407035176 0  C 379.7142207286433 0  381 1.343145800000002  381 3  L 381 279  C 381 280.656854  379.7142207286433 282  378.1281407035176 282  L 2.871859296482412 282  C 1.2857792713567104 282  0 280.656854  0 279  L 0 3  C 0 1.343145800000002  1.2857792713567104 0  2.871859296482412 0  L 378.1281407035176 0  Z " stroke-width="0" stroke-dasharray="0" stroke="rgba(255, 255, 255, 0)" fill="none" transform="matrix(1 0 0 1 1434 88 )" class="stroke" mask="url(#Clip2518)" />
  </g>
  <style>svg { filter: drop-shadow(0px 1px 1px rgba(0, 0, 0, 0.09803921568627451)); }</style>
</svg>