<?xml version="1.0" encoding="utf-8"?>
<svg version="1.1" xmlns:xlink="http://www.w3.org/1999/xlink" width="385px" height="392px" xmlns="http://www.w3.org/2000/svg">
  <defs>
    <pattern id="BGPattern" patternUnits="userSpaceOnUse" alignment="0 0" imageRepeat="None" />
    <mask fill="white" id="Clip2526">
      <path d="M 378.1281407035176 0  C 379.714224557789 0  381 1.3431457500000192  381 3  L 381 385  C 381 386.65685400000007  379.714224557789 388  378.1281407035176 388  L 2.871859296482412 388  C 1.28577520288952 388  0 386.65685400000007  0 385  L 0 3  C 0 1.3431457500000192  1.28577520288952 0  2.871859296482412 0  L 378.1281407035176 0  Z " fill-rule="evenodd" />
    </mask>
  </defs>
  <g transform="matrix(1 0 0 1 -1432 -385 )">
    <path d="M 378.1281407035176 0  C 379.714224557789 0  381 1.3431457500000192  381 3  L 381 385  C 381 386.65685400000007  379.714224557789 388  378.1281407035176 388  L 2.871859296482412 388  C 1.28577520288952 388  0 386.65685400000007  0 385  L 0 3  C 0 1.3431457500000192  1.28577520288952 0  2.871859296482412 0  L 378.1281407035176 0  Z " fill-rule="nonzero" fill="rgba(255, 255, 255, 1)" stroke="none" transform="matrix(1 0 0 1 1434 386 )" class="fill" />
    <path d="M 378.1281407035176 0  C 379.714224557789 0  381 1.3431457500000192  381 3  L 381 385  C 381 386.65685400000007  379.714224557789 388  378.1281407035176 388  L 2.871859296482412 388  C 1.28577520288952 388  0 386.65685400000007  0 385  L 0 3  C 0 1.3431457500000192  1.28577520288952 0  2.871859296482412 0  L 378.1281407035176 0  Z " stroke-width="0" stroke-dasharray="0" stroke="rgba(255, 255, 255, 0)" fill="none" transform="matrix(1 0 0 1 1434 386 )" class="stroke" mask="url(#Clip2526)" />
  </g>
  <style>svg { filter: drop-shadow(0px 1px 1px rgba(0, 0, 0, 0.09803921568627451)); }</style>
</svg>