<?xml version="1.0" encoding="utf-8"?>
<svg version="1.1" xmlns:xlink="http://www.w3.org/1999/xlink" width="1178px" height="543px" xmlns="http://www.w3.org/2000/svg">
  <defs>
    <pattern id="BGPattern" patternUnits="userSpaceOnUse" alignment="0 0" imageRepeat="None" />
    <mask fill="white" id="Clip2536">
      <path d="M 1171.1272430668841 0  C 1172.7138188417618 0  1174 1.343146000000047  1174 3  L 1174 536  C 1174 537.6568500000001  1172.7138188417618 539  1171.1272430668841 539  L 2.8727569331158236 539  C 1.2861773278955861 539  0 537.6568500000001  0 536  L 0 3  C 0 1.343146000000047  1.2861773278955861 0  2.8727569331158236 0  L 1171.1272430668841 0  Z " fill-rule="evenodd" />
    </mask>
  </defs>
  <g transform="matrix(1 0 0 1 -243 -579 )">
    <path d="M 1171.1272430668841 0  C 1172.7138188417618 0  1174 1.343146000000047  1174 3  L 1174 536  C 1174 537.6568500000001  1172.7138188417618 539  1171.1272430668841 539  L 2.8727569331158236 539  C 1.2861773278955861 539  0 537.6568500000001  0 536  L 0 3  C 0 1.343146000000047  1.2861773278955861 0  2.8727569331158236 0  L 1171.1272430668841 0  Z " fill-rule="nonzero" fill="rgba(255, 255, 255, 1)" stroke="none" transform="matrix(1 0 0 1 245 580 )" class="fill" />
    <path d="M 1171.1272430668841 0  C 1172.7138188417618 0  1174 1.343146000000047  1174 3  L 1174 536  C 1174 537.6568500000001  1172.7138188417618 539  1171.1272430668841 539  L 2.8727569331158236 539  C 1.2861773278955861 539  0 537.6568500000001  0 536  L 0 3  C 0 1.343146000000047  1.2861773278955861 0  2.8727569331158236 0  L 1171.1272430668841 0  Z " stroke-width="0" stroke-dasharray="0" stroke="rgba(255, 255, 255, 0)" fill="none" transform="matrix(1 0 0 1 245 580 )" class="stroke" mask="url(#Clip2536)" />
  </g>
  <style>svg { filter: drop-shadow(0px 1px 1px rgba(0, 0, 0, 0.09803921568627451)); }</style>
</svg>