<?xml version="1.0" encoding="utf-8"?>
<svg version="1.1" xmlns:xlink="http://www.w3.org/1999/xlink" width="48px" height="50px" xmlns="http://www.w3.org/2000/svg">
  <defs>
    <pattern id="BGPattern" patternUnits="userSpaceOnUse" alignment="0 0" imageRepeat="None" />
    <mask fill="white" id="Clip2533">
      <path d="M 0 25  C 0 10.999999999999998  10.559999999999999 0  24 0  C 37.44 0  48 10.999999999999998  48 25  C 48 39  37.44 50  24 50  C 10.559999999999999 50  0 39  0 25  Z " fill-rule="evenodd" />
    </mask>
  </defs>
  <g transform="matrix(1 0 0 1 -1670 -878 )">
    <path d="M 0 25  C 0 10.999999999999998  10.559999999999999 0  24 0  C 37.44 0  48 10.999999999999998  48 25  C 48 39  37.44 50  24 50  C 10.559999999999999 50  0 39  0 25  Z " fill-rule="nonzero" fill="rgba(0, 168, 112, 1)" stroke="none" transform="matrix(1 0 0 1 1670 878 )" class="fill" />
    <path d="M 0 25  C 0 10.999999999999998  10.559999999999999 0  24 0  C 37.44 0  48 10.999999999999998  48 25  C 48 39  37.44 50  24 50  C 10.559999999999999 50  0 39  0 25  Z " stroke-width="2" stroke-dasharray="0" stroke="rgba(255, 255, 255, 1)" fill="none" transform="matrix(1 0 0 1 1670 878 )" class="stroke" mask="url(#Clip2533)" />
  </g>
</svg>