<?xml version="1.0" encoding="utf-8"?>
<svg version="1.1" xmlns:xlink="http://www.w3.org/1999/xlink" width="15px" height="17px" xmlns="http://www.w3.org/2000/svg">
  <defs>
    <pattern id="BGPattern" patternUnits="userSpaceOnUse" alignment="0 0" imageRepeat="None" />
    <mask fill="white" id="Clip2557">
      <path d="M 2.7718292718749638 12.755070599999954  C 2.505579262499964 12.39607060000003  2.1821417624999384 11.662070399999948  1.6065167437499994 10.771070420000001  C 1.2802667531249412 10.267070409999974  0.4712042896875346 9.318070949999992  0.2302667906249667 8.836070950000021  C 0.02120428612503389 8.410070949999977  0.043704296812485666 7.469070669999951  0.09339179615626136 7.116070680000007  C 0.18151679343752392 6.4880706599999485  0.7852668674999919 5.999070569999958  1.429329346875008 6.065070569999989  C 1.9158918375000056 6.114070569999967  2.3283918656249725 6.4570706499999915  2.69964186562504 6.781070649999947  C 2.9237043562499565 6.976070639999989  3.19932939374997 7.355070749999982  3.365266903124997 7.5690707499999235  C 3.5180794031250073 7.76507074999995  3.5555792718749757 8.596070579999946  3.718704262499948 8.82807058000003  C 3.9343292718749723 9.135070589999941  4.001829478125032 9.28707086999998  3.9193294781249577 8.949070870000014  C 3.852766968750032 8.453070879999927  3.7440167343749664 6.8560708699999395  3.5865167343749604 6.107070860000022  C 3.4665167250000195 5.539070840000022  3.437454328124936 5.450070910000022  3.323079328124976 5.014070930000003  C 3.2021418374999655 4.550070939999955  3.1402668374999365 4.225070800000026  3.026829346874962 3.7330707899999425  C 2.948079346875012 3.385070799999994  2.8065168187500333 2.67407068  2.768079318749983 2.2740706800000225  C 2.7146418187499677 1.727070690000005  2.686516753124941 0.8350707260000263  3.015579262499948 0.42507073000001583  C 3.2733917718750405 0.1040707201599389  3.8649541968749546 0.007070732199963459  4.231516696875026 0.20507073099997797  C 4.711516724999996 0.4640707339999608  4.9843290750000335 1.2080707499999335  5.109016574999963 1.505070739999951  C 5.3330790749999935 2.039070719999927  5.4718293375000115 2.656070829999976  5.592766828125022 3.466070830000035  C 5.7465168375000175 4.49707085  6.029641678125017 5.9280705999999554  6.039016678125009 6.2290706  C 6.06151667812501 5.86007060999998  5.975266940625019 5.083070599999928  6.035266949999993 4.7290706  C 6.089641940624979 4.408070589999966  6.342766846874994 4.0350707699999475  6.659641846874962 3.9340707599999405  C 6.927766856250024 3.849070760000018  7.944954253124976 3.818070700000021  8.22151673437503 3.879070699999943  C 8.514954234375018 3.943070700000021  8.824329487499938 4.167070770000009  8.93964199687499 4.378070770000022  C 9.279016978124943 5.00207077999994  9.285579328124989 6.277070620000018  9.299641828124976 6.209070620000034  C 9.380266828124988 5.833070629999952  9.366204703124978 4.980070500000011  9.565892203124946 4.6250705100000005  C 9.69714220312504 4.391070509999963  10.03182906562504 4.1800709000000325  10.209954093750007 4.146070890000033  C 10.48557909374999 4.094070890000012  10.824017249999969 4.078070519999983  11.11370474999994 4.138070519999928  C 11.347142249999962 4.18707052000002  11.663078906250028 4.48307049999994  11.748391406250036 4.6250705100000005  C 11.95276640625 4.969070519999946  12.069016968749935 5.942070510000008  12.103704468749967 6.283070500000008  C 12.117766968749955 6.424070499999971  12.173079656249968 5.891070929999955  12.378392156250015 5.54707092000001  C 12.759017156249968 4.90807092  14.106204468749937 4.7840709099999685  14.157766968749996 6.1860708599999725  C 14.181204468749975 6.840070839999953  14.176516500000034 6.810070509999946  14.176516500000034 7.2500705100000005  C 14.176516500000034 7.767070529999955  14.165266593749948 8.828071109999996  14.139016593750036 9.202071129999922  C 14.109954093749977 9.602071130000013  14.029329374999975 10.506070759999943  13.912141874999975 10.944070799999963  C 13.831516874999963 11.245070800000008  13.564329000000015 11.922070599999984  13.300891499999956 12.328070599999933  C 12.629641499999948 13.161403699999937  12.25745400000001 13.765736999999945  12.184329000000034 14.141070300000024  C 12.073703999999985 14.703070300000036  12.11026715624996 14.707070499999986  12.088704656249938 15.106070499999987  C 12.074329687499983 15.371403799999939  12.112141968749981 15.678737100000035  12.202141593750007 16.028070399999933  C 11.700891468750036 16.097404299999994  11.31526640624994 16.109071200000017  11.045266406250036 16.063071199999968  C 10.678703906249964 16.00007119999998  10.224953906250036 15.222070700000017  10.107766368750006 14.984070699999961  C 9.946516368749982 14.656070699999987  9.602454618749974 14.719070999999985  9.468392109374939 14.961070999999947  C 9.257454618750032 15.34407090000002  8.803704065624984 16.03107090000003  8.483079056249991 16.074070899999924  C 7.856829075 16.158070899999984  5.854329149999984 16.10507039999993  4.837141612500027 16.094070399999964  C 4.952766759374967 15.420070499999952  4.8818293406250035 14.967403900000022  4.624329337500015 14.736070599999948  C 4.338391828124948 14.477070599999934  3.846204299999947 13.952071100000012  3.5518292906249727 13.676071099999945  C 3.5518292906249727 13.676071099999945  2.7718292718749638 12.755070599999954  2.7718292718749638 12.755070599999954  Z " fill-rule="evenodd" />
    </mask>
  </defs>
  <g transform="matrix(1 0 0 1 -680 -801 )">
    <path d="M 2.7718292718749638 12.755070599999954  C 2.505579262499964 12.39607060000003  2.1821417624999384 11.662070399999948  1.6065167437499994 10.771070420000001  C 1.2802667531249412 10.267070409999974  0.4712042896875346 9.318070949999992  0.2302667906249667 8.836070950000021  C 0.02120428612503389 8.410070949999977  0.043704296812485666 7.469070669999951  0.09339179615626136 7.116070680000007  C 0.18151679343752392 6.4880706599999485  0.7852668674999919 5.999070569999958  1.429329346875008 6.065070569999989  C 1.9158918375000056 6.114070569999967  2.3283918656249725 6.4570706499999915  2.69964186562504 6.781070649999947  C 2.9237043562499565 6.976070639999989  3.19932939374997 7.355070749999982  3.365266903124997 7.5690707499999235  C 3.5180794031250073 7.76507074999995  3.5555792718749757 8.596070579999946  3.718704262499948 8.82807058000003  C 3.9343292718749723 9.135070589999941  4.001829478125032 9.28707086999998  3.9193294781249577 8.949070870000014  C 3.852766968750032 8.453070879999927  3.7440167343749664 6.8560708699999395  3.5865167343749604 6.107070860000022  C 3.4665167250000195 5.539070840000022  3.437454328124936 5.450070910000022  3.323079328124976 5.014070930000003  C 3.2021418374999655 4.550070939999955  3.1402668374999365 4.225070800000026  3.026829346874962 3.7330707899999425  C 2.948079346875012 3.385070799999994  2.8065168187500333 2.67407068  2.768079318749983 2.2740706800000225  C 2.7146418187499677 1.727070690000005  2.686516753124941 0.8350707260000263  3.015579262499948 0.42507073000001583  C 3.2733917718750405 0.1040707201599389  3.8649541968749546 0.007070732199963459  4.231516696875026 0.20507073099997797  C 4.711516724999996 0.4640707339999608  4.9843290750000335 1.2080707499999335  5.109016574999963 1.505070739999951  C 5.3330790749999935 2.039070719999927  5.4718293375000115 2.656070829999976  5.592766828125022 3.466070830000035  C 5.7465168375000175 4.49707085  6.029641678125017 5.9280705999999554  6.039016678125009 6.2290706  C 6.06151667812501 5.86007060999998  5.975266940625019 5.083070599999928  6.035266949999993 4.7290706  C 6.089641940624979 4.408070589999966  6.342766846874994 4.0350707699999475  6.659641846874962 3.9340707599999405  C 6.927766856250024 3.849070760000018  7.944954253124976 3.818070700000021  8.22151673437503 3.879070699999943  C 8.514954234375018 3.943070700000021  8.824329487499938 4.167070770000009  8.93964199687499 4.378070770000022  C 9.279016978124943 5.00207077999994  9.285579328124989 6.277070620000018  9.299641828124976 6.209070620000034  C 9.380266828124988 5.833070629999952  9.366204703124978 4.980070500000011  9.565892203124946 4.6250705100000005  C 9.69714220312504 4.391070509999963  10.03182906562504 4.1800709000000325  10.209954093750007 4.146070890000033  C 10.48557909374999 4.094070890000012  10.824017249999969 4.078070519999983  11.11370474999994 4.138070519999928  C 11.347142249999962 4.18707052000002  11.663078906250028 4.48307049999994  11.748391406250036 4.6250705100000005  C 11.95276640625 4.969070519999946  12.069016968749935 5.942070510000008  12.103704468749967 6.283070500000008  C 12.117766968749955 6.424070499999971  12.173079656249968 5.891070929999955  12.378392156250015 5.54707092000001  C 12.759017156249968 4.90807092  14.106204468749937 4.7840709099999685  14.157766968749996 6.1860708599999725  C 14.181204468749975 6.840070839999953  14.176516500000034 6.810070509999946  14.176516500000034 7.2500705100000005  C 14.176516500000034 7.767070529999955  14.165266593749948 8.828071109999996  14.139016593750036 9.202071129999922  C 14.109954093749977 9.602071130000013  14.029329374999975 10.506070759999943  13.912141874999975 10.944070799999963  C 13.831516874999963 11.245070800000008  13.564329000000015 11.922070599999984  13.300891499999956 12.328070599999933  C 12.629641499999948 13.161403699999937  12.25745400000001 13.765736999999945  12.184329000000034 14.141070300000024  C 12.073703999999985 14.703070300000036  12.11026715624996 14.707070499999986  12.088704656249938 15.106070499999987  C 12.074329687499983 15.371403799999939  12.112141968749981 15.678737100000035  12.202141593750007 16.028070399999933  C 11.700891468750036 16.097404299999994  11.31526640624994 16.109071200000017  11.045266406250036 16.063071199999968  C 10.678703906249964 16.00007119999998  10.224953906250036 15.222070700000017  10.107766368750006 14.984070699999961  C 9.946516368749982 14.656070699999987  9.602454618749974 14.719070999999985  9.468392109374939 14.961070999999947  C 9.257454618750032 15.34407090000002  8.803704065624984 16.03107090000003  8.483079056249991 16.074070899999924  C 7.856829075 16.158070899999984  5.854329149999984 16.10507039999993  4.837141612500027 16.094070399999964  C 4.952766759374967 15.420070499999952  4.8818293406250035 14.967403900000022  4.624329337500015 14.736070599999948  C 4.338391828124948 14.477070599999934  3.846204299999947 13.952071100000012  3.5518292906249727 13.676071099999945  C 3.5518292906249727 13.676071099999945  2.7718292718749638 12.755070599999954  2.7718292718749638 12.755070599999954  Z " fill-rule="nonzero" fill="rgba(255, 255, 255, 0)" stroke="none" transform="matrix(1 0 0 1 680 801 )" class="fill" />
    <path d="M 2.7718292718749638 12.755070599999954  C 2.505579262499964 12.39607060000003  2.1821417624999384 11.662070399999948  1.6065167437499994 10.771070420000001  C 1.2802667531249412 10.267070409999974  0.4712042896875346 9.318070949999992  0.2302667906249667 8.836070950000021  C 0.02120428612503389 8.410070949999977  0.043704296812485666 7.469070669999951  0.09339179615626136 7.116070680000007  C 0.18151679343752392 6.4880706599999485  0.7852668674999919 5.999070569999958  1.429329346875008 6.065070569999989  C 1.9158918375000056 6.114070569999967  2.3283918656249725 6.4570706499999915  2.69964186562504 6.781070649999947  C 2.9237043562499565 6.976070639999989  3.19932939374997 7.355070749999982  3.365266903124997 7.5690707499999235  C 3.5180794031250073 7.76507074999995  3.5555792718749757 8.596070579999946  3.718704262499948 8.82807058000003  C 3.9343292718749723 9.135070589999941  4.001829478125032 9.28707086999998  3.9193294781249577 8.949070870000014  C 3.852766968750032 8.453070879999927  3.7440167343749664 6.8560708699999395  3.5865167343749604 6.107070860000022  C 3.4665167250000195 5.539070840000022  3.437454328124936 5.450070910000022  3.323079328124976 5.014070930000003  C 3.2021418374999655 4.550070939999955  3.1402668374999365 4.225070800000026  3.026829346874962 3.7330707899999425  C 2.948079346875012 3.385070799999994  2.8065168187500333 2.67407068  2.768079318749983 2.2740706800000225  C 2.7146418187499677 1.727070690000005  2.686516753124941 0.8350707260000263  3.015579262499948 0.42507073000001583  C 3.2733917718750405 0.1040707201599389  3.8649541968749546 0.007070732199963459  4.231516696875026 0.20507073099997797  C 4.711516724999996 0.4640707339999608  4.9843290750000335 1.2080707499999335  5.109016574999963 1.505070739999951  C 5.3330790749999935 2.039070719999927  5.4718293375000115 2.656070829999976  5.592766828125022 3.466070830000035  C 5.7465168375000175 4.49707085  6.029641678125017 5.9280705999999554  6.039016678125009 6.2290706  C 6.06151667812501 5.86007060999998  5.975266940625019 5.083070599999928  6.035266949999993 4.7290706  C 6.089641940624979 4.408070589999966  6.342766846874994 4.0350707699999475  6.659641846874962 3.9340707599999405  C 6.927766856250024 3.849070760000018  7.944954253124976 3.818070700000021  8.22151673437503 3.879070699999943  C 8.514954234375018 3.943070700000021  8.824329487499938 4.167070770000009  8.93964199687499 4.378070770000022  C 9.279016978124943 5.00207077999994  9.285579328124989 6.277070620000018  9.299641828124976 6.209070620000034  C 9.380266828124988 5.833070629999952  9.366204703124978 4.980070500000011  9.565892203124946 4.6250705100000005  C 9.69714220312504 4.391070509999963  10.03182906562504 4.1800709000000325  10.209954093750007 4.146070890000033  C 10.48557909374999 4.094070890000012  10.824017249999969 4.078070519999983  11.11370474999994 4.138070519999928  C 11.347142249999962 4.18707052000002  11.663078906250028 4.48307049999994  11.748391406250036 4.6250705100000005  C 11.95276640625 4.969070519999946  12.069016968749935 5.942070510000008  12.103704468749967 6.283070500000008  C 12.117766968749955 6.424070499999971  12.173079656249968 5.891070929999955  12.378392156250015 5.54707092000001  C 12.759017156249968 4.90807092  14.106204468749937 4.7840709099999685  14.157766968749996 6.1860708599999725  C 14.181204468749975 6.840070839999953  14.176516500000034 6.810070509999946  14.176516500000034 7.2500705100000005  C 14.176516500000034 7.767070529999955  14.165266593749948 8.828071109999996  14.139016593750036 9.202071129999922  C 14.109954093749977 9.602071130000013  14.029329374999975 10.506070759999943  13.912141874999975 10.944070799999963  C 13.831516874999963 11.245070800000008  13.564329000000015 11.922070599999984  13.300891499999956 12.328070599999933  C 12.629641499999948 13.161403699999937  12.25745400000001 13.765736999999945  12.184329000000034 14.141070300000024  C 12.073703999999985 14.703070300000036  12.11026715624996 14.707070499999986  12.088704656249938 15.106070499999987  C 12.074329687499983 15.371403799999939  12.112141968749981 15.678737100000035  12.202141593750007 16.028070399999933  C 11.700891468750036 16.097404299999994  11.31526640624994 16.109071200000017  11.045266406250036 16.063071199999968  C 10.678703906249964 16.00007119999998  10.224953906250036 15.222070700000017  10.107766368750006 14.984070699999961  C 9.946516368749982 14.656070699999987  9.602454618749974 14.719070999999985  9.468392109374939 14.961070999999947  C 9.257454618750032 15.34407090000002  8.803704065624984 16.03107090000003  8.483079056249991 16.074070899999924  C 7.856829075 16.158070899999984  5.854329149999984 16.10507039999993  4.837141612500027 16.094070399999964  C 4.952766759374967 15.420070499999952  4.8818293406250035 14.967403900000022  4.624329337500015 14.736070599999948  C 4.338391828124948 14.477070599999934  3.846204299999947 13.952071100000012  3.5518292906249727 13.676071099999945  C 3.5518292906249727 13.676071099999945  2.7718292718749638 12.755070599999954  2.7718292718749638 12.755070599999954  Z " stroke-width="1.5" stroke-dasharray="0" stroke="rgba(0, 0, 0, 1)" fill="none" transform="matrix(1 0 0 1 680 801 )" class="stroke" mask="url(#Clip2557)" />
  </g>
</svg>