<?xml version="1.0" encoding="utf-8"?>
<svg version="1.1" xmlns:xlink="http://www.w3.org/1999/xlink" width="11px" height="13px" xmlns="http://www.w3.org/2000/svg">
  <defs>
    <pattern id="BGPattern" patternUnits="userSpaceOnUse" alignment="0 0" imageRepeat="None" />
    <mask fill="white" id="Clip2555">
      <path d="M 7.333333333333333 2  L 3.6666666666666665 2  L 3.6666666666666665 0.5  L 2.75 0.5  L 2.75 2  L 0.9166666666666666 2  C 0.41040567333334366 2  0 2.447714919999953  0 3  L 0 12  C 0 12.552284200000031  0.4104054533333776 13  0.9166666666666666 13  L 10.083333333333332 13  C 10.589593850000028 13  11 12.552285200000028  11 12  L 11 3  C 11 2.4477152800000113  10.58959476666659 2  10.083333333333332 2  L 8.25 2  L 8.25 0.5  L 7.333333333333333 0.5  L 7.333333333333333 2  Z M 0.9166666666666666 3  L 2.75 3  L 2.75 4  L 3.6666666666666665 4  L 3.6666666666666665 3  L 7.333333333333333 3  L 7.333333333333333 4  L 8.25 4  L 8.25 3  L 10.083333333333332 3  L 10.083333333333332 5  L 0.9166666666666666 5  L 0.9166666666666666 3  Z M 10.083333333333332 12  L 0.9166666666666666 12  L 0.9166666666666666 6  L 10.083333333333332 6  L 10.083333333333332 12  Z " fill-rule="evenodd" />
    </mask>
  </defs>
  <g transform="matrix(1 0 0 1 -1367 -707 )">
    <path d="M 7.333333333333333 2  L 3.6666666666666665 2  L 3.6666666666666665 0.5  L 2.75 0.5  L 2.75 2  L 0.9166666666666666 2  C 0.41040567333334366 2  0 2.447714919999953  0 3  L 0 12  C 0 12.552284200000031  0.4104054533333776 13  0.9166666666666666 13  L 10.083333333333332 13  C 10.589593850000028 13  11 12.552285200000028  11 12  L 11 3  C 11 2.4477152800000113  10.58959476666659 2  10.083333333333332 2  L 8.25 2  L 8.25 0.5  L 7.333333333333333 0.5  L 7.333333333333333 2  Z M 0.9166666666666666 3  L 2.75 3  L 2.75 4  L 3.6666666666666665 4  L 3.6666666666666665 3  L 7.333333333333333 3  L 7.333333333333333 4  L 8.25 4  L 8.25 3  L 10.083333333333332 3  L 10.083333333333332 5  L 0.9166666666666666 5  L 0.9166666666666666 3  Z M 10.083333333333332 12  L 0.9166666666666666 12  L 0.9166666666666666 6  L 10.083333333333332 6  L 10.083333333333332 12  Z " fill-rule="nonzero" fill="rgba(0, 0, 0, 0.8980392156862745)" stroke="none" transform="matrix(1 0 0 1 1367 707 )" class="fill" />
    <path d="M 7.333333333333333 2  L 3.6666666666666665 2  L 3.6666666666666665 0.5  L 2.75 0.5  L 2.75 2  L 0.9166666666666666 2  C 0.41040567333334366 2  0 2.447714919999953  0 3  L 0 12  C 0 12.552284200000031  0.4104054533333776 13  0.9166666666666666 13  L 10.083333333333332 13  C 10.589593850000028 13  11 12.552285200000028  11 12  L 11 3  C 11 2.4477152800000113  10.58959476666659 2  10.083333333333332 2  L 8.25 2  L 8.25 0.5  L 7.333333333333333 0.5  L 7.333333333333333 2  Z " stroke-width="0" stroke-dasharray="0" stroke="rgba(255, 255, 255, 0)" fill="none" transform="matrix(1 0 0 1 1367 707 )" class="stroke" mask="url(#Clip2555)" />
    <path d="M 0.9166666666666666 3  L 2.75 3  L 2.75 4  L 3.6666666666666665 4  L 3.6666666666666665 3  L 7.333333333333333 3  L 7.333333333333333 4  L 8.25 4  L 8.25 3  L 10.083333333333332 3  L 10.083333333333332 5  L 0.9166666666666666 5  L 0.9166666666666666 3  Z " stroke-width="0" stroke-dasharray="0" stroke="rgba(255, 255, 255, 0)" fill="none" transform="matrix(1 0 0 1 1367 707 )" class="stroke" mask="url(#Clip2555)" />
    <path d="M 10.083333333333332 12  L 0.9166666666666666 12  L 0.9166666666666666 6  L 10.083333333333332 6  L 10.083333333333332 12  Z " stroke-width="0" stroke-dasharray="0" stroke="rgba(255, 255, 255, 0)" fill="none" transform="matrix(1 0 0 1 1367 707 )" class="stroke" mask="url(#Clip2555)" />
  </g>
</svg>