<?xml version="1.0" encoding="utf-8"?>
<svg version="1.1" xmlns:xlink="http://www.w3.org/1999/xlink" width="17px" height="14px" xmlns="http://www.w3.org/2000/svg">
  <defs>
    <pattern id="BGPattern" patternUnits="userSpaceOnUse" alignment="0 0" imageRepeat="None" />
    <mask fill="white" id="Clip2572">
      <path d="M 1 11.999000000000002  L 1 1.998999999999999  C 0.8216666666665635 1.3087000000000018  1.3505555555556157 0.7489999999999988  2.002222222222119 1  L 14.98833333333323 1  C 15.639999999999947 0.7489999999999988  16.168888888888784 1.3087000000000018  16 1.998999999999999  L 16 11.999000000000002  C 16.168888888888784 12.6894  15.639999999999947 13.249000000000002  14.98833333333323 13  L 2.002222222222119 13  C 1.3505555555556157 13.249000000000002  0.8216666666665635 12.6894  1 11.999000000000002  Z M 8.5 6.247900000000001  L 14.516111111111007 2  L 2.483888888888992 2  L 8.5 6.247900000000001  Z M 8.5 7.7501999999999995  L 2.002222222222119 3.1667999999999985  L 2.002222222222119 12  L 14.98833333333323 12  L 14.98833333333323 3.1667999999999985  L 8.5 7.7501999999999995  Z " fill-rule="evenodd" />
    </mask>
  </defs>
  <g transform="matrix(1 0 0 1 -1561 -25 )">
    <path d="M 1 11.999000000000002  L 1 1.998999999999999  C 0.8216666666665635 1.3087000000000018  1.3505555555556157 0.7489999999999988  2.002222222222119 1  L 14.98833333333323 1  C 15.639999999999947 0.7489999999999988  16.168888888888784 1.3087000000000018  16 1.998999999999999  L 16 11.999000000000002  C 16.168888888888784 12.6894  15.639999999999947 13.249000000000002  14.98833333333323 13  L 2.002222222222119 13  C 1.3505555555556157 13.249000000000002  0.8216666666665635 12.6894  1 11.999000000000002  Z M 8.5 6.247900000000001  L 14.516111111111007 2  L 2.483888888888992 2  L 8.5 6.247900000000001  Z M 8.5 7.7501999999999995  L 2.002222222222119 3.1667999999999985  L 2.002222222222119 12  L 14.98833333333323 12  L 14.98833333333323 3.1667999999999985  L 8.5 7.7501999999999995  Z " fill-rule="nonzero" fill="rgba(0, 0, 0, 1)" stroke="none" transform="matrix(1 0 0 1 1561 25 )" class="fill" />
    <path d="M 1 11.999000000000002  L 1 1.998999999999999  C 0.8216666666665635 1.3087000000000018  1.3505555555556157 0.7489999999999988  2.002222222222119 1  L 14.98833333333323 1  C 15.639999999999947 0.7489999999999988  16.168888888888784 1.3087000000000018  16 1.998999999999999  L 16 11.999000000000002  C 16.168888888888784 12.6894  15.639999999999947 13.249000000000002  14.98833333333323 13  L 2.002222222222119 13  C 1.3505555555556157 13.249000000000002  0.8216666666665635 12.6894  1 11.999000000000002  Z " stroke-width="0" stroke-dasharray="0" stroke="rgba(255, 255, 255, 0)" fill="none" transform="matrix(1 0 0 1 1561 25 )" class="stroke" mask="url(#Clip2572)" />
    <path d="M 8.5 6.247900000000001  L 14.516111111111007 2  L 2.483888888888992 2  L 8.5 6.247900000000001  Z " stroke-width="0" stroke-dasharray="0" stroke="rgba(255, 255, 255, 0)" fill="none" transform="matrix(1 0 0 1 1561 25 )" class="stroke" mask="url(#Clip2572)" />
    <path d="M 8.5 7.7501999999999995  L 2.002222222222119 3.1667999999999985  L 2.002222222222119 12  L 14.98833333333323 12  L 14.98833333333323 3.1667999999999985  L 8.5 7.7501999999999995  Z " stroke-width="0" stroke-dasharray="0" stroke="rgba(255, 255, 255, 0)" fill="none" transform="matrix(1 0 0 1 1561 25 )" class="stroke" mask="url(#Clip2572)" />
  </g>
</svg>