<?xml version="1.0" encoding="utf-8"?>
<svg version="1.1" xmlns:xlink="http://www.w3.org/1999/xlink" width="17px" height="18px" xmlns="http://www.w3.org/2000/svg">
  <defs>
    <pattern id="BGPattern" patternUnits="userSpaceOnUse" alignment="0 0" imageRepeat="None" />
    <mask fill="white" id="Clip2574">
      <path d="M 0.2361111111111111 9  C 0.2361111111111111 13.832500000000003  3.9383333333334023 17.75  8.5 17.75  C 13.061666666666598 17.75  16.76388888888889 13.832500000000003  16.76388888888889 9  C 16.76388888888889 4.1675  13.061666666666598 0.25  8.5 0.25  C 3.9383333333334023 0.25  0.2361111111111111 4.1675  0.2361111111111111 9  Z M 15.583333333333332 9  C 15.583333333333332 10.537100000000002  15.148888888888854 11.9662  14.393333333333342 13.155700000000003  C 12.598888888888812 12.095599999999997  10.60611111111113 11.5  8.5 11.5  C 6.393888888888872 11.5  4.401111111111189 12.095599999999997  2.606666666666658 13.155700000000003  C 1.8511111111111453 11.966099999999997  1.4166666666666665 10.537100000000002  1.4166666666666665 9  C 1.4166666666666665 4.857900000000001  4.589999999999906 1.5  8.5 1.5  C 12.410000000000094 1.5  15.583333333333332 4.857900000000001  15.583333333333332 9  Z M 8.5 12.75  C 10.322777777777839 12.75  12.060555555555538 13.247  13.647222222222265 14.148200000000003  C 12.3627777777777 15.5963  10.53055555555564 16.5  8.5 16.5  C 6.469444444444358 16.5  4.6372222222223 15.5963  3.352777777777735 14.148200000000003  C 4.939444444444462 13.247  6.677222222222162 12.75  8.5 12.75  Z " fill-rule="evenodd" />
    </mask>
  </defs>
  <g transform="matrix(1 0 0 1 -1404 -23 )">
    <path d="M 0.2361111111111111 9  C 0.2361111111111111 13.832500000000003  3.9383333333334023 17.75  8.5 17.75  C 13.061666666666598 17.75  16.76388888888889 13.832500000000003  16.76388888888889 9  C 16.76388888888889 4.1675  13.061666666666598 0.25  8.5 0.25  C 3.9383333333334023 0.25  0.2361111111111111 4.1675  0.2361111111111111 9  Z M 15.583333333333332 9  C 15.583333333333332 10.537100000000002  15.148888888888854 11.9662  14.393333333333342 13.155700000000003  C 12.598888888888812 12.095599999999997  10.60611111111113 11.5  8.5 11.5  C 6.393888888888872 11.5  4.401111111111189 12.095599999999997  2.606666666666658 13.155700000000003  C 1.8511111111111453 11.966099999999997  1.4166666666666665 10.537100000000002  1.4166666666666665 9  C 1.4166666666666665 4.857900000000001  4.589999999999906 1.5  8.5 1.5  C 12.410000000000094 1.5  15.583333333333332 4.857900000000001  15.583333333333332 9  Z M 8.5 12.75  C 10.322777777777839 12.75  12.060555555555538 13.247  13.647222222222265 14.148200000000003  C 12.3627777777777 15.5963  10.53055555555564 16.5  8.5 16.5  C 6.469444444444358 16.5  4.6372222222223 15.5963  3.352777777777735 14.148200000000003  C 4.939444444444462 13.247  6.677222222222162 12.75  8.5 12.75  Z " fill-rule="nonzero" fill="rgba(0, 0, 0, 1)" stroke="none" transform="matrix(1 0 0 1 1404 23 )" class="fill" />
    <path d="M 0.2361111111111111 9  C 0.2361111111111111 13.832500000000003  3.9383333333334023 17.75  8.5 17.75  C 13.061666666666598 17.75  16.76388888888889 13.832500000000003  16.76388888888889 9  C 16.76388888888889 4.1675  13.061666666666598 0.25  8.5 0.25  C 3.9383333333334023 0.25  0.2361111111111111 4.1675  0.2361111111111111 9  Z " stroke-width="0" stroke-dasharray="0" stroke="rgba(255, 255, 255, 0)" fill="none" transform="matrix(1 0 0 1 1404 23 )" class="stroke" mask="url(#Clip2574)" />
    <path d="M 15.583333333333332 9  C 15.583333333333332 10.537100000000002  15.148888888888854 11.9662  14.393333333333342 13.155700000000003  C 12.598888888888812 12.095599999999997  10.60611111111113 11.5  8.5 11.5  C 6.393888888888872 11.5  4.401111111111189 12.095599999999997  2.606666666666658 13.155700000000003  C 1.8511111111111453 11.966099999999997  1.4166666666666665 10.537100000000002  1.4166666666666665 9  C 1.4166666666666665 4.857900000000001  4.589999999999906 1.5  8.5 1.5  C 12.410000000000094 1.5  15.583333333333332 4.857900000000001  15.583333333333332 9  Z " stroke-width="0" stroke-dasharray="0" stroke="rgba(255, 255, 255, 0)" fill="none" transform="matrix(1 0 0 1 1404 23 )" class="stroke" mask="url(#Clip2574)" />
    <path d="M 8.5 12.75  C 10.322777777777839 12.75  12.060555555555538 13.247  13.647222222222265 14.148200000000003  C 12.3627777777777 15.5963  10.53055555555564 16.5  8.5 16.5  C 6.469444444444358 16.5  4.6372222222223 15.5963  3.352777777777735 14.148200000000003  C 4.939444444444462 13.247  6.677222222222162 12.75  8.5 12.75  Z " stroke-width="0" stroke-dasharray="0" stroke="rgba(255, 255, 255, 0)" fill="none" transform="matrix(1 0 0 1 1404 23 )" class="stroke" mask="url(#Clip2574)" />
  </g>
</svg>