<?xml version="1.0" encoding="utf-8"?>
<svg version="1.1" xmlns:xlink="http://www.w3.org/1999/xlink" width="8px" height="8px" xmlns="http://www.w3.org/2000/svg">
  <defs>
    <pattern id="BGPattern" patternUnits="userSpaceOnUse" alignment="0 0" imageRepeat="None" />
    <mask fill="white" id="Clip2576">
      <path d="M 4 0.25  C 6.069999999999936 0.25  7.75 1.9288999999999987  7.75 4  C 7.75 6.071100000000001  6.069999999999936 7.75  4 7.75  C 1.9300000000000637 7.75  0.25 6.071100000000001  0.25 4  C 0.25 1.9288999999999987  1.9300000000000637 0.25  4 0.25  Z M 4 6.5  C 5.380000000000109 6.5  6.5 5.380699999999997  6.5 4  C 6.5 2.619299999999999  5.380000000000109 1.5  4 1.5  C 2.619999999999891 1.5  1.5 2.619299999999999  1.5 4  C 1.5 5.380699999999997  2.619999999999891 6.5  4 6.5  Z " fill-rule="evenodd" />
    </mask>
  </defs>
  <g transform="matrix(1 0 0 1 -1796 -28 )">
    <path d="M 4 0.25  C 6.069999999999936 0.25  7.75 1.9288999999999987  7.75 4  C 7.75 6.071100000000001  6.069999999999936 7.75  4 7.75  C 1.9300000000000637 7.75  0.25 6.071100000000001  0.25 4  C 0.25 1.9288999999999987  1.9300000000000637 0.25  4 0.25  Z M 4 6.5  C 5.380000000000109 6.5  6.5 5.380699999999997  6.5 4  C 6.5 2.619299999999999  5.380000000000109 1.5  4 1.5  C 2.619999999999891 1.5  1.5 2.619299999999999  1.5 4  C 1.5 5.380699999999997  2.619999999999891 6.5  4 6.5  Z " fill-rule="nonzero" fill="rgba(0, 0, 0, 0.8980392156862745)" stroke="none" transform="matrix(1 0 0 1 1796 28 )" class="fill" />
    <path d="M 4 0.25  C 6.069999999999936 0.25  7.75 1.9288999999999987  7.75 4  C 7.75 6.071100000000001  6.069999999999936 7.75  4 7.75  C 1.9300000000000637 7.75  0.25 6.071100000000001  0.25 4  C 0.25 1.9288999999999987  1.9300000000000637 0.25  4 0.25  Z " stroke-width="0" stroke-dasharray="0" stroke="rgba(255, 255, 255, 0)" fill="none" transform="matrix(1 0 0 1 1796 28 )" class="stroke" mask="url(#Clip2576)" />
    <path d="M 4 6.5  C 5.380000000000109 6.5  6.5 5.380699999999997  6.5 4  C 6.5 2.619299999999999  5.380000000000109 1.5  4 1.5  C 2.619999999999891 1.5  1.5 2.619299999999999  1.5 4  C 1.5 5.380699999999997  2.619999999999891 6.5  4 6.5  Z " stroke-width="0" stroke-dasharray="0" stroke="rgba(255, 255, 255, 0)" fill="none" transform="matrix(1 0 0 1 1796 28 )" class="stroke" mask="url(#Clip2576)" />
  </g>
</svg>