<?xml version="1.0" encoding="utf-8"?>
<svg version="1.1" xmlns:xlink="http://www.w3.org/1999/xlink" width="17px" height="18px" xmlns="http://www.w3.org/2000/svg">
  <defs>
    <pattern id="BGPattern" patternUnits="userSpaceOnUse" alignment="0 0" imageRepeat="None" />
    <mask fill="white" id="Clip2578">
      <path d="M 0.35888888888899195 9.125  L 0.35888888888899195 8.875  C 0.35888888888899195 4.111599999999999  4.004444444444453 0.25009999999999977  8.5 0.25  C 12.995555555555546 0.25  16.65055555555566 4.1114999999999995  16.65055555555566 8.875  L 16.65055555555566 9.125  C 16.65055555555566 13.8885  12.995555555555546 17.75  8.5 17.75  C 4.004444444444453 17.749899999999997  0.35888888888899195 13.888399999999997  0.35888888888899195 9.125  Z M 9.595555555555633 16.4088  C 12.76888888888887 15.8765  15.233888888888993 13.075699999999998  15.451111111111016 9.625  L 11.90944444444435 9.625  C 11.79611111111112 12.023699999999998  11.021666666666736 14.394100000000002  9.595555555555633 16.4088  Z M 9.595555555555633 1.5912000000000006  C 11.021666666666736 3.6058999999999983  11.79611111111112 5.976299999999998  11.90944444444435 8.375  L 15.451111111111016 8.375  C 15.233888888888993 4.924299999999999  12.76888888888887 2.1235  9.595555555555633 1.5912000000000006  Z M 6.271111111111205 8.375  L 10.728888888888793 8.375  C 10.60611111111113 6.155899999999999  9.869444444444486 3.966899999999999  8.5 2.1287999999999982  C 7.130555555555512 3.966899999999999  6.393888888888872 6.155899999999999  6.271111111111205 8.375  Z M 7.404444444444367 16.408700000000003  C 5.978333333333265 14.393999999999998  5.203888888888881 12.023699999999998  5.0905555555556505 9.625  L 1.5488888888889834 9.625  C 1.7661111111110082 13.075600000000001  4.231111111111129 15.8763  7.404444444444367 16.408700000000003  Z M 1.5488888888889834 8.375  L 5.0905555555556505 8.375  C 5.203888888888881 5.976299999999998  5.978333333333265 3.6060000000000016  7.404444444444367 1.5913000000000004  C 4.231111111111129 2.1236999999999995  1.7661111111110082 4.924399999999999  1.5488888888889834 8.375  Z M 8.5 15.871200000000002  C 9.869444444444486 14.033099999999997  10.60611111111113 11.844099999999997  10.728888888888793 9.625  L 6.271111111111205 9.625  C 6.393888888888872 11.844099999999997  7.130555555555512 14.033099999999997  8.5 15.871200000000002  Z " fill-rule="evenodd" />
    </mask>
  </defs>
  <g transform="matrix(1 0 0 1 -1607 -23 )">
    <path d="M 0.35888888888899195 9.125  L 0.35888888888899195 8.875  C 0.35888888888899195 4.111599999999999  4.004444444444453 0.25009999999999977  8.5 0.25  C 12.995555555555546 0.25  16.65055555555566 4.1114999999999995  16.65055555555566 8.875  L 16.65055555555566 9.125  C 16.65055555555566 13.8885  12.995555555555546 17.75  8.5 17.75  C 4.004444444444453 17.749899999999997  0.35888888888899195 13.888399999999997  0.35888888888899195 9.125  Z M 9.595555555555633 16.4088  C 12.76888888888887 15.8765  15.233888888888993 13.075699999999998  15.451111111111016 9.625  L 11.90944444444435 9.625  C 11.79611111111112 12.023699999999998  11.021666666666736 14.394100000000002  9.595555555555633 16.4088  Z M 9.595555555555633 1.5912000000000006  C 11.021666666666736 3.6058999999999983  11.79611111111112 5.976299999999998  11.90944444444435 8.375  L 15.451111111111016 8.375  C 15.233888888888993 4.924299999999999  12.76888888888887 2.1235  9.595555555555633 1.5912000000000006  Z M 6.271111111111205 8.375  L 10.728888888888793 8.375  C 10.60611111111113 6.155899999999999  9.869444444444486 3.966899999999999  8.5 2.1287999999999982  C 7.130555555555512 3.966899999999999  6.393888888888872 6.155899999999999  6.271111111111205 8.375  Z M 7.404444444444367 16.408700000000003  C 5.978333333333265 14.393999999999998  5.203888888888881 12.023699999999998  5.0905555555556505 9.625  L 1.5488888888889834 9.625  C 1.7661111111110082 13.075600000000001  4.231111111111129 15.8763  7.404444444444367 16.408700000000003  Z M 1.5488888888889834 8.375  L 5.0905555555556505 8.375  C 5.203888888888881 5.976299999999998  5.978333333333265 3.6060000000000016  7.404444444444367 1.5913000000000004  C 4.231111111111129 2.1236999999999995  1.7661111111110082 4.924399999999999  1.5488888888889834 8.375  Z M 8.5 15.871200000000002  C 9.869444444444486 14.033099999999997  10.60611111111113 11.844099999999997  10.728888888888793 9.625  L 6.271111111111205 9.625  C 6.393888888888872 11.844099999999997  7.130555555555512 14.033099999999997  8.5 15.871200000000002  Z " fill-rule="nonzero" fill="rgba(0, 0, 0, 0.8980392156862745)" stroke="none" transform="matrix(1 0 0 1 1607 23 )" class="fill" />
    <path d="M 0.35888888888899195 9.125  L 0.35888888888899195 8.875  C 0.35888888888899195 4.111599999999999  4.004444444444453 0.25009999999999977  8.5 0.25  C 12.995555555555546 0.25  16.65055555555566 4.1114999999999995  16.65055555555566 8.875  L 16.65055555555566 9.125  C 16.65055555555566 13.8885  12.995555555555546 17.75  8.5 17.75  C 4.004444444444453 17.749899999999997  0.35888888888899195 13.888399999999997  0.35888888888899195 9.125  Z " stroke-width="0" stroke-dasharray="0" stroke="rgba(255, 255, 255, 0)" fill="none" transform="matrix(1 0 0 1 1607 23 )" class="stroke" mask="url(#Clip2578)" />
    <path d="M 9.595555555555633 16.4088  C 12.76888888888887 15.8765  15.233888888888993 13.075699999999998  15.451111111111016 9.625  L 11.90944444444435 9.625  C 11.79611111111112 12.023699999999998  11.021666666666736 14.394100000000002  9.595555555555633 16.4088  Z " stroke-width="0" stroke-dasharray="0" stroke="rgba(255, 255, 255, 0)" fill="none" transform="matrix(1 0 0 1 1607 23 )" class="stroke" mask="url(#Clip2578)" />
    <path d="M 9.595555555555633 1.5912000000000006  C 11.021666666666736 3.6058999999999983  11.79611111111112 5.976299999999998  11.90944444444435 8.375  L 15.451111111111016 8.375  C 15.233888888888993 4.924299999999999  12.76888888888887 2.1235  9.595555555555633 1.5912000000000006  Z " stroke-width="0" stroke-dasharray="0" stroke="rgba(255, 255, 255, 0)" fill="none" transform="matrix(1 0 0 1 1607 23 )" class="stroke" mask="url(#Clip2578)" />
    <path d="M 6.271111111111205 8.375  L 10.728888888888793 8.375  C 10.60611111111113 6.155899999999999  9.869444444444486 3.966899999999999  8.5 2.1287999999999982  C 7.130555555555512 3.966899999999999  6.393888888888872 6.155899999999999  6.271111111111205 8.375  Z " stroke-width="0" stroke-dasharray="0" stroke="rgba(255, 255, 255, 0)" fill="none" transform="matrix(1 0 0 1 1607 23 )" class="stroke" mask="url(#Clip2578)" />
    <path d="M 7.404444444444367 16.408700000000003  C 5.978333333333265 14.393999999999998  5.203888888888881 12.023699999999998  5.0905555555556505 9.625  L 1.5488888888889834 9.625  C 1.7661111111110082 13.075600000000001  4.231111111111129 15.8763  7.404444444444367 16.408700000000003  Z " stroke-width="0" stroke-dasharray="0" stroke="rgba(255, 255, 255, 0)" fill="none" transform="matrix(1 0 0 1 1607 23 )" class="stroke" mask="url(#Clip2578)" />
    <path d="M 1.5488888888889834 8.375  L 5.0905555555556505 8.375  C 5.203888888888881 5.976299999999998  5.978333333333265 3.6060000000000016  7.404444444444367 1.5913000000000004  C 4.231111111111129 2.1236999999999995  1.7661111111110082 4.924399999999999  1.5488888888889834 8.375  Z " stroke-width="0" stroke-dasharray="0" stroke="rgba(255, 255, 255, 0)" fill="none" transform="matrix(1 0 0 1 1607 23 )" class="stroke" mask="url(#Clip2578)" />
    <path d="M 8.5 15.871200000000002  C 9.869444444444486 14.033099999999997  10.60611111111113 11.844099999999997  10.728888888888793 9.625  L 6.271111111111205 9.625  C 6.393888888888872 11.844099999999997  7.130555555555512 14.033099999999997  8.5 15.871200000000002  Z " stroke-width="0" stroke-dasharray="0" stroke="rgba(255, 255, 255, 0)" fill="none" transform="matrix(1 0 0 1 1607 23 )" class="stroke" mask="url(#Clip2578)" />
  </g>
</svg>