<?xml version="1.0" encoding="utf-8"?>
<svg version="1.1" xmlns:xlink="http://www.w3.org/1999/xlink" width="14px" height="18px" xmlns="http://www.w3.org/2000/svg">
  <defs>
    <pattern id="BGPattern" patternUnits="userSpaceOnUse" alignment="0 0" imageRepeat="None" />
    <mask fill="white" id="Clip2582">
      <path d="M 10.388000000000103 17.125  L 4.554666666666769 17.125  L 4.554666666666769 14.8677  L 3.4906666666666752 14.8677  C 2.6506666666665906 14.8677  1.96933333333324 14.134799999999998  1.96933333333324 13.230699999999999  C 1.96933333333324 12.913499999999999  1.7266666666665818 12.656199999999998  1.4279999999999744 12.656199999999998  L 0.5786666666665647 12.656199999999998  L 0.5786666666665647 11.593800000000002  L 1.4279999999999744 11.593800000000002  C 1.4933333333332486 11.593800000000002  1.5586666666667346 11.598199999999999  1.6240000000000085 11.606699999999996  C 1.661333333333308 11.612299999999998  1.7079999999999322 11.619599999999998  1.7453333333332315 11.628500000000003  C 2.2400000000000846 11.7391  2.6413333333332654 12.104199999999999  2.8373333333332993 12.5897  C 2.9119999999998982 12.7866  2.9586666666667343 13.0032  2.9586666666667343 13.230699999999999  C 2.9586666666667343 13.507800000000003  3.135999999999907 13.7391  3.3880000000001016 13.793199999999999  C 3.4160000000000763 13.801099999999998  3.4533333333333758 13.8052  3.4906666666666752 13.8052  L 4.554666666666769 13.8052  L 4.554666666666769 13.328499999999998  C 4.554666666666769 13.171399999999998  4.564000000000093 13.016100000000002  4.592000000000068 12.8643  C 4.629333333333367 12.631599999999999  4.703999999999966 12.4073  4.806666666666751 12.197899999999997  C 4.424000000000008 12.059899999999999  4.06933333333324 11.893  3.7333333333333334 11.700800000000001  L 3.7053333333333587 11.686700000000002  C 3.1266666666665817 11.350099999999998  2.6133333333332907 10.936900000000001  2.2026666666665733 10.465400000000002  C 1.4746666666665986 9.625399999999999  1.0359999999999068 8.6003  1.0359999999999068 7.4939  C 1.0359999999999068 6.437899999999999  1.4279999999999744 5.4559  2.109333333333325 4.638200000000001  L 2.053333333333376 4.363800000000001  C 1.8293333333333672 3.16  2.053333333333376 1.908100000000001  2.688000000000102 0.883700000000001  C 3.826666666666582 0.8084999999999987  4.955999999999949 1.2238000000000007  5.8146666666666835 2.0380000000000003  L 6.225333333333402 2.4265000000000008  C 6.6173333333332565 2.366199999999999  7.018666666666649 2.3344999999999985  7.429333333333367 2.3344999999999985  C 7.886666666666709 2.3344999999999985  8.334666666666726 2.3729000000000013  8.764000000000093 2.4457999999999984  L 9.193333333333248 2.0381  C 10.051999999999982 1.2238000000000007  11.172000000000025 0.8085999999999984  12.320000000000043 0.8838000000000008  C 12.954666666666768 1.908100000000001  13.178666666666565 3.1601  12.954666666666768 4.363900000000001  L 12.870666666666633 4.779399999999999  C 13.477333333333384 5.567900000000002  13.822666666666617 6.498000000000001  13.822666666666617 7.4939  C 13.822666666666617 9.2194  12.777333333333385 10.747  11.1626666666667 11.683700000000002  C 10.826666666666583 11.878  10.472000000000024 12.0469  10.089333333333283 12.186799999999998  C 10.220000000000041 12.4373  10.31333333333329 12.710700000000003  10.35066666666659 12.995199999999997  C 10.369333333333241 13.1263  10.388000000000103 13.259799999999998  10.388000000000103 13.3945  L 10.388000000000103 17.125  Z M 7.429333333333367 3.5844999999999985  C 7.0746666666666 3.5844999999999985  6.729333333333367 3.6118999999999986  6.393333333333248 3.6637999999999984  L 5.8519999999999825 3.7463000000000015  L 5.040000000000084 2.974  C 4.573333333333418 2.526399999999999  3.9853333333333163 2.2439999999999998  3.3693333333332403 2.1552000000000007  C 3.135999999999907 2.770900000000001  3.0706666666666327 3.4526000000000003  3.201333333333393 4.1144  L 3.3693333333332403 4.999300000000002  L 2.9773333333333842 5.466100000000001  C 2.4640000000000937 6.090299999999999  2.2026666666665733 6.7865  2.2026666666665733 7.4939  C 2.2026666666665733 8.866700000000002  3.248000000000017 10.309399999999997  5.179999999999957 11.014499999999998  L 6.44933333333341 11.4786  L 5.842666666666658 12.763199999999998  C 5.758666666666734 12.936300000000003  5.721333333333435 13.129399999999997  5.721333333333435 13.328499999999998  L 5.721333333333435 15.875  L 9.221333333333435 15.875  L 9.221333333333435 13.3945  C 9.221333333333435 13.180999999999997  9.165333333333274 12.973700000000001  9.072000000000026 12.790599999999998  L 8.4 11.489899999999999  L 9.716000000000077 11.005200000000002  C 11.629333333333367 10.296  12.655999999999949 8.860600000000002  12.655999999999949 7.4939  C 12.655999999999949 6.825600000000001  12.431999999999942 6.169599999999999  11.974666666666598 5.573699999999999  L 11.620000000000044 5.1137000000000015  L 11.806666666666752 4.1145  C 11.9373333333333 3.4527  11.872000000000027 2.771000000000001  11.629333333333367 2.1553000000000004  C 11.013333333333291 2.2439999999999998  10.434666666666727 2.5264999999999986  9.96800000000006 2.9741  L 9.11866666666665 3.7729999999999997  L 8.577333333333385 3.680299999999999  C 8.213333333333292 3.617799999999999  7.83066666666676 3.5844999999999985  7.429333333333367 3.5844999999999985  Z " fill-rule="evenodd" />
    </mask>
  </defs>
  <g transform="matrix(1 0 0 1 -1700 -23 )">
    <path d="M 10.388000000000103 17.125  L 4.554666666666769 17.125  L 4.554666666666769 14.8677  L 3.4906666666666752 14.8677  C 2.6506666666665906 14.8677  1.96933333333324 14.134799999999998  1.96933333333324 13.230699999999999  C 1.96933333333324 12.913499999999999  1.7266666666665818 12.656199999999998  1.4279999999999744 12.656199999999998  L 0.5786666666665647 12.656199999999998  L 0.5786666666665647 11.593800000000002  L 1.4279999999999744 11.593800000000002  C 1.4933333333332486 11.593800000000002  1.5586666666667346 11.598199999999999  1.6240000000000085 11.606699999999996  C 1.661333333333308 11.612299999999998  1.7079999999999322 11.619599999999998  1.7453333333332315 11.628500000000003  C 2.2400000000000846 11.7391  2.6413333333332654 12.104199999999999  2.8373333333332993 12.5897  C 2.9119999999998982 12.7866  2.9586666666667343 13.0032  2.9586666666667343 13.230699999999999  C 2.9586666666667343 13.507800000000003  3.135999999999907 13.7391  3.3880000000001016 13.793199999999999  C 3.4160000000000763 13.801099999999998  3.4533333333333758 13.8052  3.4906666666666752 13.8052  L 4.554666666666769 13.8052  L 4.554666666666769 13.328499999999998  C 4.554666666666769 13.171399999999998  4.564000000000093 13.016100000000002  4.592000000000068 12.8643  C 4.629333333333367 12.631599999999999  4.703999999999966 12.4073  4.806666666666751 12.197899999999997  C 4.424000000000008 12.059899999999999  4.06933333333324 11.893  3.7333333333333334 11.700800000000001  L 3.7053333333333587 11.686700000000002  C 3.1266666666665817 11.350099999999998  2.6133333333332907 10.936900000000001  2.2026666666665733 10.465400000000002  C 1.4746666666665986 9.625399999999999  1.0359999999999068 8.6003  1.0359999999999068 7.4939  C 1.0359999999999068 6.437899999999999  1.4279999999999744 5.4559  2.109333333333325 4.638200000000001  L 2.053333333333376 4.363800000000001  C 1.8293333333333672 3.16  2.053333333333376 1.908100000000001  2.688000000000102 0.883700000000001  C 3.826666666666582 0.8084999999999987  4.955999999999949 1.2238000000000007  5.8146666666666835 2.0380000000000003  L 6.225333333333402 2.4265000000000008  C 6.6173333333332565 2.366199999999999  7.018666666666649 2.3344999999999985  7.429333333333367 2.3344999999999985  C 7.886666666666709 2.3344999999999985  8.334666666666726 2.3729000000000013  8.764000000000093 2.4457999999999984  L 9.193333333333248 2.0381  C 10.051999999999982 1.2238000000000007  11.172000000000025 0.8085999999999984  12.320000000000043 0.8838000000000008  C 12.954666666666768 1.908100000000001  13.178666666666565 3.1601  12.954666666666768 4.363900000000001  L 12.870666666666633 4.779399999999999  C 13.477333333333384 5.567900000000002  13.822666666666617 6.498000000000001  13.822666666666617 7.4939  C 13.822666666666617 9.2194  12.777333333333385 10.747  11.1626666666667 11.683700000000002  C 10.826666666666583 11.878  10.472000000000024 12.0469  10.089333333333283 12.186799999999998  C 10.220000000000041 12.4373  10.31333333333329 12.710700000000003  10.35066666666659 12.995199999999997  C 10.369333333333241 13.1263  10.388000000000103 13.259799999999998  10.388000000000103 13.3945  L 10.388000000000103 17.125  Z M 7.429333333333367 3.5844999999999985  C 7.0746666666666 3.5844999999999985  6.729333333333367 3.6118999999999986  6.393333333333248 3.6637999999999984  L 5.8519999999999825 3.7463000000000015  L 5.040000000000084 2.974  C 4.573333333333418 2.526399999999999  3.9853333333333163 2.2439999999999998  3.3693333333332403 2.1552000000000007  C 3.135999999999907 2.770900000000001  3.0706666666666327 3.4526000000000003  3.201333333333393 4.1144  L 3.3693333333332403 4.999300000000002  L 2.9773333333333842 5.466100000000001  C 2.4640000000000937 6.090299999999999  2.2026666666665733 6.7865  2.2026666666665733 7.4939  C 2.2026666666665733 8.866700000000002  3.248000000000017 10.309399999999997  5.179999999999957 11.014499999999998  L 6.44933333333341 11.4786  L 5.842666666666658 12.763199999999998  C 5.758666666666734 12.936300000000003  5.721333333333435 13.129399999999997  5.721333333333435 13.328499999999998  L 5.721333333333435 15.875  L 9.221333333333435 15.875  L 9.221333333333435 13.3945  C 9.221333333333435 13.180999999999997  9.165333333333274 12.973700000000001  9.072000000000026 12.790599999999998  L 8.4 11.489899999999999  L 9.716000000000077 11.005200000000002  C 11.629333333333367 10.296  12.655999999999949 8.860600000000002  12.655999999999949 7.4939  C 12.655999999999949 6.825600000000001  12.431999999999942 6.169599999999999  11.974666666666598 5.573699999999999  L 11.620000000000044 5.1137000000000015  L 11.806666666666752 4.1145  C 11.9373333333333 3.4527  11.872000000000027 2.771000000000001  11.629333333333367 2.1553000000000004  C 11.013333333333291 2.2439999999999998  10.434666666666727 2.5264999999999986  9.96800000000006 2.9741  L 9.11866666666665 3.7729999999999997  L 8.577333333333385 3.680299999999999  C 8.213333333333292 3.617799999999999  7.83066666666676 3.5844999999999985  7.429333333333367 3.5844999999999985  Z " fill-rule="nonzero" fill="rgba(0, 0, 0, 0.8980392156862745)" stroke="none" transform="matrix(1 0 0 1 1700 23 )" class="fill" />
    <path d="M 10.388000000000103 17.125  L 4.554666666666769 17.125  L 4.554666666666769 14.8677  L 3.4906666666666752 14.8677  C 2.6506666666665906 14.8677  1.96933333333324 14.134799999999998  1.96933333333324 13.230699999999999  C 1.96933333333324 12.913499999999999  1.7266666666665818 12.656199999999998  1.4279999999999744 12.656199999999998  L 0.5786666666665647 12.656199999999998  L 0.5786666666665647 11.593800000000002  L 1.4279999999999744 11.593800000000002  C 1.4933333333332486 11.593800000000002  1.5586666666667346 11.598199999999999  1.6240000000000085 11.606699999999996  C 1.661333333333308 11.612299999999998  1.7079999999999322 11.619599999999998  1.7453333333332315 11.628500000000003  C 2.2400000000000846 11.7391  2.6413333333332654 12.104199999999999  2.8373333333332993 12.5897  C 2.9119999999998982 12.7866  2.9586666666667343 13.0032  2.9586666666667343 13.230699999999999  C 2.9586666666667343 13.507800000000003  3.135999999999907 13.7391  3.3880000000001016 13.793199999999999  C 3.4160000000000763 13.801099999999998  3.4533333333333758 13.8052  3.4906666666666752 13.8052  L 4.554666666666769 13.8052  L 4.554666666666769 13.328499999999998  C 4.554666666666769 13.171399999999998  4.564000000000093 13.016100000000002  4.592000000000068 12.8643  C 4.629333333333367 12.631599999999999  4.703999999999966 12.4073  4.806666666666751 12.197899999999997  C 4.424000000000008 12.059899999999999  4.06933333333324 11.893  3.7333333333333334 11.700800000000001  L 3.7053333333333587 11.686700000000002  C 3.1266666666665817 11.350099999999998  2.6133333333332907 10.936900000000001  2.2026666666665733 10.465400000000002  C 1.4746666666665986 9.625399999999999  1.0359999999999068 8.6003  1.0359999999999068 7.4939  C 1.0359999999999068 6.437899999999999  1.4279999999999744 5.4559  2.109333333333325 4.638200000000001  L 2.053333333333376 4.363800000000001  C 1.8293333333333672 3.16  2.053333333333376 1.908100000000001  2.688000000000102 0.883700000000001  C 3.826666666666582 0.8084999999999987  4.955999999999949 1.2238000000000007  5.8146666666666835 2.0380000000000003  L 6.225333333333402 2.4265000000000008  C 6.6173333333332565 2.366199999999999  7.018666666666649 2.3344999999999985  7.429333333333367 2.3344999999999985  C 7.886666666666709 2.3344999999999985  8.334666666666726 2.3729000000000013  8.764000000000093 2.4457999999999984  L 9.193333333333248 2.0381  C 10.051999999999982 1.2238000000000007  11.172000000000025 0.8085999999999984  12.320000000000043 0.8838000000000008  C 12.954666666666768 1.908100000000001  13.178666666666565 3.1601  12.954666666666768 4.363900000000001  L 12.870666666666633 4.779399999999999  C 13.477333333333384 5.567900000000002  13.822666666666617 6.498000000000001  13.822666666666617 7.4939  C 13.822666666666617 9.2194  12.777333333333385 10.747  11.1626666666667 11.683700000000002  C 10.826666666666583 11.878  10.472000000000024 12.0469  10.089333333333283 12.186799999999998  C 10.220000000000041 12.4373  10.31333333333329 12.710700000000003  10.35066666666659 12.995199999999997  C 10.369333333333241 13.1263  10.388000000000103 13.259799999999998  10.388000000000103 13.3945  L 10.388000000000103 17.125  Z " stroke-width="0" stroke-dasharray="0" stroke="rgba(255, 255, 255, 0)" fill="none" transform="matrix(1 0 0 1 1700 23 )" class="stroke" mask="url(#Clip2582)" />
    <path d="M 7.429333333333367 3.5844999999999985  C 7.0746666666666 3.5844999999999985  6.729333333333367 3.6118999999999986  6.393333333333248 3.6637999999999984  L 5.8519999999999825 3.7463000000000015  L 5.040000000000084 2.974  C 4.573333333333418 2.526399999999999  3.9853333333333163 2.2439999999999998  3.3693333333332403 2.1552000000000007  C 3.135999999999907 2.770900000000001  3.0706666666666327 3.4526000000000003  3.201333333333393 4.1144  L 3.3693333333332403 4.999300000000002  L 2.9773333333333842 5.466100000000001  C 2.4640000000000937 6.090299999999999  2.2026666666665733 6.7865  2.2026666666665733 7.4939  C 2.2026666666665733 8.866700000000002  3.248000000000017 10.309399999999997  5.179999999999957 11.014499999999998  L 6.44933333333341 11.4786  L 5.842666666666658 12.763199999999998  C 5.758666666666734 12.936300000000003  5.721333333333435 13.129399999999997  5.721333333333435 13.328499999999998  L 5.721333333333435 15.875  L 9.221333333333435 15.875  L 9.221333333333435 13.3945  C 9.221333333333435 13.180999999999997  9.165333333333274 12.973700000000001  9.072000000000026 12.790599999999998  L 8.4 11.489899999999999  L 9.716000000000077 11.005200000000002  C 11.629333333333367 10.296  12.655999999999949 8.860600000000002  12.655999999999949 7.4939  C 12.655999999999949 6.825600000000001  12.431999999999942 6.169599999999999  11.974666666666598 5.573699999999999  L 11.620000000000044 5.1137000000000015  L 11.806666666666752 4.1145  C 11.9373333333333 3.4527  11.872000000000027 2.771000000000001  11.629333333333367 2.1553000000000004  C 11.013333333333291 2.2439999999999998  10.434666666666727 2.5264999999999986  9.96800000000006 2.9741  L 9.11866666666665 3.7729999999999997  L 8.577333333333385 3.680299999999999  C 8.213333333333292 3.617799999999999  7.83066666666676 3.5844999999999985  7.429333333333367 3.5844999999999985  Z " stroke-width="0" stroke-dasharray="0" stroke="rgba(255, 255, 255, 0)" fill="none" transform="matrix(1 0 0 1 1700 23 )" class="stroke" mask="url(#Clip2582)" />
  </g>
</svg>