<?xml version="1.0" encoding="utf-8"?>
<svg version="1.1" xmlns:xlink="http://www.w3.org/1999/xlink" width="15px" height="16px" xmlns="http://www.w3.org/2000/svg">
  <defs>
    <pattern id="BGPattern" patternUnits="userSpaceOnUse" alignment="0 0" imageRepeat="None" />
    <mask fill="white" id="Clip2585">
      <path d="M 0.46875 14.25  L 0.46875 1.75  C 0.46875 1.0595999999999997  0.9937499999999488 0.5  1.640625 0.5  L 13.359375 0.5  C 14.006250000000051 0.5  14.53125 1.0595999999999997  14.53125 1.75  L 14.53125 14.25  C 14.53125 14.940399999999997  14.006250000000051 15.5  13.359375 15.5  L 1.640625 15.5  C 0.9937499999999488 15.5  0.46875 14.940399999999997  0.46875 14.25  Z M 13.359375 2  L 1.640625 2  L 1.640625 4.25  L 13.359375 4.25  L 13.359375 2  Z M 13.359375 5.5  L 1.640625 5.5  L 1.640625 14  L 13.359375 14  L 13.359375 5.5  Z " fill-rule="evenodd" />
    </mask>
  </defs>
  <g transform="matrix(1 0 0 1 -1654 -24 )">
    <path d="M 0.46875 14.25  L 0.46875 1.75  C 0.46875 1.0595999999999997  0.9937499999999488 0.5  1.640625 0.5  L 13.359375 0.5  C 14.006250000000051 0.5  14.53125 1.0595999999999997  14.53125 1.75  L 14.53125 14.25  C 14.53125 14.940399999999997  14.006250000000051 15.5  13.359375 15.5  L 1.640625 15.5  C 0.9937499999999488 15.5  0.46875 14.940399999999997  0.46875 14.25  Z M 13.359375 2  L 1.640625 2  L 1.640625 4.25  L 13.359375 4.25  L 13.359375 2  Z M 13.359375 5.5  L 1.640625 5.5  L 1.640625 14  L 13.359375 14  L 13.359375 5.5  Z " fill-rule="nonzero" fill="rgba(0, 0, 0, 0.8980392156862745)" stroke="none" transform="matrix(1 0 0 1 1654 24 )" class="fill" />
    <path d="M 0.46875 14.25  L 0.46875 1.75  C 0.46875 1.0595999999999997  0.9937499999999488 0.5  1.640625 0.5  L 13.359375 0.5  C 14.006250000000051 0.5  14.53125 1.0595999999999997  14.53125 1.75  L 14.53125 14.25  C 14.53125 14.940399999999997  14.006250000000051 15.5  13.359375 15.5  L 1.640625 15.5  C 0.9937499999999488 15.5  0.46875 14.940399999999997  0.46875 14.25  Z " stroke-width="0" stroke-dasharray="0" stroke="rgba(255, 255, 255, 0)" fill="none" transform="matrix(1 0 0 1 1654 24 )" class="stroke" mask="url(#Clip2585)" />
    <path d="M 13.359375 2  L 1.640625 2  L 1.640625 4.25  L 13.359375 4.25  L 13.359375 2  Z " stroke-width="0" stroke-dasharray="0" stroke="rgba(255, 255, 255, 0)" fill="none" transform="matrix(1 0 0 1 1654 24 )" class="stroke" mask="url(#Clip2585)" />
    <path d="M 13.359375 5.5  L 1.640625 5.5  L 1.640625 14  L 13.359375 14  L 13.359375 5.5  Z " stroke-width="0" stroke-dasharray="0" stroke="rgba(255, 255, 255, 0)" fill="none" transform="matrix(1 0 0 1 1654 24 )" class="stroke" mask="url(#Clip2585)" />
  </g>
</svg>