<?xml version="1.0" encoding="utf-8"?>
<svg version="1.1" xmlns:xlink="http://www.w3.org/1999/xlink" width="94px" height="14px" xmlns="http://www.w3.org/2000/svg">
  <defs>
    <pattern id="BGPattern" patternUnits="userSpaceOnUse" alignment="0 0" imageRepeat="None" />
    <mask fill="white" id="Clip2589">
      <path d="M 3.9748571428571484 4.454000000000001  L 3.0751428571428736 4.454000000000001  L 3.0751428571428736 6.539999999999999  L 1.7457142857142793 6.539999999999999  C 2.0814285714285865 5.643999999999998  2.3902857142857323 4.622  2.6857142857142966 3.474  L 5.2774285714285805 3.474  L 5.2774285714285805 2.5219999999999985  L 2.9140000000000104 2.5219999999999985  C 3.0348571428571303 1.9619999999999997  3.1557142857143052 1.3599999999999994  3.276571428571425 0.7300000000000004  L 2.3902857142857323 0.5199999999999996  C 2.2694285714285574 1.2199999999999989  2.1485714285714375 1.8780000000000001  2.014285714285736 2.5219999999999985  L 0.6848571428571416 2.5219999999999985  L 0.6848571428571416 3.474  L 1.799428571428549 3.474  C 1.4905714285714031 4.719999999999999  1.1548571428571504 5.77  0.7788571428571542 6.609999999999999  L 0.9802857142857061 7.450000000000003  L 3.0751428571428736 7.450000000000003  L 3.0751428571428736 9.536000000000001  C 2.2962857142857196 9.689999999999998  1.4637142857142957 9.829999999999998  0.5774285714285479 9.942  L 0.6982857142857226 10.921999999999997  C 1.5174285714285651 10.796  2.3097142857143007 10.655999999999999  3.0751428571428736 10.502000000000002  L 3.0751428571428736 13.399999999999999  L 3.9748571428571484 13.399999999999999  L 3.9748571428571484 10.292000000000002  L 5.250571428571418 9.956000000000003  L 5.250571428571418 9.003999999999998  C 4.84771428571426 9.116  4.431428571428576 9.228000000000002  3.9748571428571484 9.340000000000003  L 3.9748571428571484 7.450000000000003  L 5.21028571428573 7.450000000000003  L 5.21028571428573 6.539999999999999  L 3.9748571428571484 6.539999999999999  L 3.9748571428571484 4.454000000000001  Z M 5.492285714285713 5.111999999999998  C 6.015999999999992 4.692  6.526285714285689 4.23  7.03657142857144 3.7399999999999984  L 7.03657142857144 4.565999999999999  L 10.890571428571414 4.565999999999999  L 10.890571428571414 3.725999999999999  L 7.050000000000022 3.725999999999999  C 7.721428571428582 3.0539999999999985  8.365999999999982 2.312000000000001  9.010571428571435 1.5  C 10.031142857142882 2.872  11.172571428571452 4.033999999999999  12.434857142857142 4.986000000000001  L 12.945142857142837 4.187999999999999  C 11.723142857142838 3.2920000000000016  10.527999999999999 2.1020000000000003  9.359714285714269 0.5899999999999999  L 8.661428571428544 0.5899999999999999  C 7.5737142857143 1.9899999999999987  6.3382857142857185 3.2220000000000013  4.968571428571435 4.2719999999999985  L 5.492285714285713 5.111999999999998  Z M 7.332000000000005 13.302  L 7.976571428571403 13.302  C 8.634571428571437 13.302  8.97028571428569 12.938000000000002  8.97028571428569 12.223999999999997  L 8.97028571428569 5.686  L 5.801142857142859 5.686  L 5.801142857142859 13.399999999999999  L 6.647142857142864 13.399999999999999  L 6.647142857142864 10.781999999999996  L 8.151142857142847 10.781999999999996  L 8.151142857142847 12.042000000000002  C 8.151142857142847 12.350000000000001  8.003428571428564 12.503999999999998  7.708000000000002 12.503999999999998  L 7.117142857142872 12.475999999999999  L 7.332000000000005 13.302  Z M 8.151142857142847 9.997999999999998  L 6.647142857142864 9.997999999999998  L 6.647142857142864 8.668  L 8.151142857142847 8.668  L 8.151142857142847 9.997999999999998  Z M 8.151142857142847 7.884  L 6.647142857142864 7.884  L 6.647142857142864 6.498000000000001  L 8.151142857142847 6.498000000000001  L 8.151142857142847 7.884  Z M 10.527999999999999 6.077999999999999  L 9.776000000000007 6.077999999999999  L 9.776000000000007 11.104  L 10.527999999999999 11.104  L 10.527999999999999 6.077999999999999  Z M 10.098285714285733 13.329999999999998  L 11.239714285714303 13.329999999999998  C 11.884285714285701 13.329999999999998  12.220000000000008 12.924  12.220000000000008 12.125999999999998  L 12.220000000000008 5.448  L 11.374000000000004 5.448  L 11.374000000000004 11.902000000000001  C 11.374000000000004 12.293999999999997  11.226285714285721 12.503999999999998  10.944285714285739 12.503999999999998  C 10.60857142857143 12.503999999999998  10.259428571428597 12.475999999999999  9.896857142857128 12.448  L 10.098285714285733 13.329999999999998  Z M 17.336285714285726 1.0940000000000012  C 18.19571428571431 1.7379999999999995  18.93428571428572 2.6340000000000003  19.552000000000014 3.809999999999999  C 18.692571428571426 7.533999999999999  16.825999999999972 10.39  13.952285714285708 12.350000000000001  L 14.52971428571431 13.204  C 17.349714285714306 11.299999999999997  19.202857142857127 8.555999999999997  20.089142857142875 4.986000000000001  C 20.156285714285723 5.154  20.223428571428574 5.350000000000001  20.304000000000006 5.574000000000002  C 21.68714285714287 9.270000000000003  23.45971428571431 11.817999999999998  25.635142857142853 13.189999999999998  L 26.239428571428565 12.378  C 24.11771428571429 10.991999999999997  22.439142857142862 8.625999999999998  21.17685714285712 5.280000000000001  C 20.344285714285693 3.0120000000000005  19.33714285714288 1.4299999999999997  18.14199999999999 0.5620000000000012  L 17.336285714285726 1.0940000000000012  Z M 39.50685714285713 1.1219999999999999  L 27.63600000000001 1.1219999999999999  L 27.63600000000001 2.032  L 31.59742857142858 2.032  L 31.59742857142858 3.2779999999999987  L 28.468571428571437 3.2779999999999987  L 28.468571428571437 6.806000000000001  L 32.00028571428574 6.806000000000001  C 31.78542857142855 7.1979999999999995  31.557142857142832 7.618000000000002  31.315428571428598 8.052  L 27.461428571428566 8.052  L 27.461428571428566 8.975999999999999  L 30.778285714285737 8.975999999999999  C 30.482857142857117 9.451999999999998  30.187428571428555 9.942  29.865142857142878 10.432000000000002  C 30.979714285714287 10.698  32.09428571428569 11.006  33.208857142857156 11.356000000000002  C 32.00028571428574 11.845999999999997  30.187428571428555 12.238  27.797142857142873 12.531999999999996  L 28.159714285714287 13.427999999999997  C 31.06028571428572 13.021999999999998  33.15514285714283 12.462000000000003  34.43085714285716 11.747999999999998  C 35.92142857142856 12.252000000000002  37.41200000000002 12.826  38.88914285714284 13.484000000000002  L 39.49342857142855 12.658000000000001  C 38.07 12.07  36.67342857142855 11.566000000000003  35.30371428571427 11.131999999999998  C 36.01542857142857 10.530000000000001  36.51228571428569 9.816000000000003  36.78085714285715 8.975999999999999  L 39.66799999999999 8.975999999999999  L 39.66799999999999 8.052  L 32.40314285714284 8.052  C 32.617999999999974 7.659999999999997  32.84628571428574 7.253999999999998  33.08799999999998 6.806000000000001  L 38.67428571428571 6.806000000000001  L 38.67428571428571 3.2779999999999987  L 35.545428571428566 3.2779999999999987  L 35.545428571428566 2.032  L 39.50685714285713 2.032  L 39.50685714285713 1.1219999999999999  Z M 35.800571428571445 8.975999999999999  C 35.53199999999998 9.704  35.02171428571428 10.32  34.269714285714294 10.810000000000002  C 33.23571428571426 10.502000000000002  32.22857142857145 10.235999999999997  31.234857142857166 10.012  C 31.436285714285717 9.704  31.65114285714285 9.354  31.87942857142856 8.975999999999999  L 35.800571428571445 8.975999999999999  Z M 34.618857142857124 2.032  L 34.618857142857124 3.2779999999999987  L 32.524000000000015 3.2779999999999987  L 32.524000000000015 2.032  L 34.618857142857124 2.032  Z M 37.747714285714274 4.16  L 37.747714285714274 5.937999999999999  L 35.545428571428566 5.937999999999999  L 35.545428571428566 4.16  L 37.747714285714274 4.16  Z M 34.618857142857124 4.16  L 34.618857142857124 5.937999999999999  L 32.524000000000015 5.937999999999999  L 32.524000000000015 4.16  L 34.618857142857124 4.16  Z M 31.59742857142858 4.16  L 31.59742857142858 5.937999999999999  L 29.395142857142872 5.937999999999999  L 29.395142857142872 4.16  L 31.59742857142858 4.16  Z M 46.368857142857124 5.8679999999999986  L 46.368857142857124 4.481999999999999  L 47.83257142857142 4.481999999999999  L 47.83257142857142 3.6419999999999995  L 46.368857142857124 3.6419999999999995  L 46.368857142857124 2.2979999999999983  C 47.01342857142858 2.0459999999999994  47.57742857142855 1.7940000000000005  48.03399999999998 1.5420000000000016  L 47.48342857142859 0.8000000000000007  C 46.85228571428571 1.1920000000000002  46.18085714285716 1.4860000000000007  45.48257142857143 1.6819999999999986  L 45.48257142857143 6.736000000000001  L 48.557714285714304 6.736000000000001  L 48.557714285714304 7.9680000000000035  L 45.402 7.9680000000000035  L 45.402 8.878  L 45.96600000000002 8.878  C 46.47628571428572 9.857999999999997  47.20142857142855 10.712000000000003  48.16828571428573 11.426000000000002  C 47.16114285714286 11.874000000000002  45.95257142857144 12.238  44.556 12.518  L 45.03942857142859 13.414000000000001  C 46.61057142857142 13.049999999999997  47.9534285714286 12.573999999999998  49.08142857142859 12.014000000000003  C 50.11542857142856 12.601999999999997  51.36428571428573 13.064  52.828000000000024 13.386000000000003  L 53.17714285714286 12.448  C 51.99542857142859 12.195999999999998  50.96142857142857 11.86  50.07514285714288 11.439999999999998  C 51.1762857142857 10.712000000000003  51.98200000000001 9.844000000000001  52.46542857142855 8.822000000000003  L 52.46542857142855 7.9680000000000035  L 49.45742857142858 7.9680000000000035  L 49.45742857142858 6.736000000000001  L 52.5057142857143 6.736000000000001  L 52.5057142857143 1.248000000000001  L 50.15571428571431 1.248000000000001  L 50.15571428571431 2.1159999999999997  L 51.632857142857134 2.1159999999999997  L 51.632857142857134 3.6419999999999995  L 50.22285714285716 3.6419999999999995  L 50.22285714285716 4.481999999999999  L 51.632857142857134 4.481999999999999  L 51.632857142857134 5.8679999999999986  L 49.45742857142858 5.8679999999999986  L 49.45742857142858 0.6179999999999986  L 48.557714285714304 0.6179999999999986  L 48.557714285714304 5.8679999999999986  L 46.368857142857124 5.8679999999999986  Z M 49.13514285714285 10.936  C 48.208571428571425 10.362000000000002  47.48342857142859 9.676000000000002  46.95971428571431 8.878  L 51.41799999999999 8.878  C 50.9077142857143 9.661999999999999  50.14228571428573 10.347999999999999  49.13514285714285 10.936  Z M 41.23914285714289 13.274000000000001  L 42.501428571428576 13.274000000000001  C 43.226571428571404 13.274000000000001  43.60257142857145 12.868000000000002  43.60257142857145 12.07  L 43.60257142857145 8.009999999999998  C 44.05914285714288 7.786000000000001  44.51571428571431 7.561999999999997  44.958857142857156 7.323999999999998  L 44.958857142857156 6.344000000000001  C 44.51571428571431 6.596  44.05914285714288 6.834  43.60257142857145 7.043999999999997  L 43.60257142857145 4.216000000000001  L 44.85142857142856 4.216000000000001  L 44.85142857142856 3.25  L 43.60257142857145 3.25  L 43.60257142857145 0.6320000000000014  L 42.66257142857144 0.6320000000000014  L 42.66257142857144 3.25  L 41.171999999999976 3.25  L 41.171999999999976 4.216000000000001  L 42.66257142857144 4.216000000000001  L 42.66257142857144 7.436  C 42.09857142857142 7.659999999999997  41.52114285714287 7.841999999999999  40.93028571428574 8.009999999999998  L 41.14514285714287 8.962000000000003  C 41.655428571428565 8.793999999999997  42.15228571428574 8.612000000000002  42.66257142857144 8.415999999999997  L 42.66257142857144 11.817999999999998  C 42.66257142857144 12.195999999999998  42.48799999999999 12.392000000000003  42.165714285714266 12.392000000000003  C 41.81657142857143 12.392000000000003  41.44057142857144 12.363999999999997  41.03771428571428 12.322000000000003  L 41.23914285714289 13.274000000000001  Z M 59.931714285714314 1.6679999999999993  L 55.40628571428572 1.6679999999999993  L 55.40628571428572 2.5919999999999987  L 59.931714285714314 2.5919999999999987  L 59.931714285714314 3.809999999999999  L 54.85571428571428 3.809999999999999  L 54.85571428571428 6.3580000000000005  L 55.795714285714304 6.3580000000000005  L 55.795714285714304 4.692  L 59.79742857142856 4.692  C 59.0185714285714 5.3919999999999995  58.18599999999998 6.007999999999999  57.313142857142864 6.526  C 57.111714285714264 6.638000000000002  56.910285714285706 6.722000000000001  56.708857142857156 6.763999999999999  L 56.89685714285712 7.533999999999999  C 58.06514285714286 7.506  59.09914285714283 7.463999999999999  60.01228571428569 7.436  C 58.83057142857143 8.136000000000003  57.70257142857144 8.64  56.60142857142856 8.962000000000003  C 56.33285714285716 8.962000000000003  56.050857142857126 8.948  55.76885714285714 8.933999999999997  L 55.95685714285717 9.844000000000001  C 57.192285714285696 9.816000000000003  58.54857142857145 9.759999999999998  60.02571428571427 9.689999999999998  L 60.02571428571427 12.084000000000003  C 60.02571428571427 12.363999999999997  59.86457142857141 12.518  59.56914285714284 12.518  C 59.22000000000001 12.518  58.84400000000001 12.490000000000002  58.46800000000002 12.448  L 58.66942857142857 13.386000000000003  L 59.89142857142857 13.386000000000003  C 60.616571428571454 13.386000000000003  60.99257142857145 13.021999999999998  60.99257142857145 12.322000000000003  L 60.99257142857145 9.648000000000003  C 61.959428571428575 9.591999999999999  62.980000000000025 9.521999999999998  64.06771428571427 9.451999999999998  C 64.33628571428574 9.787999999999997  64.57800000000003 10.124000000000002  64.79285714285716 10.46  L 65.51799999999999 9.914000000000001  C 64.9942857142857 9.158000000000001  64.24228571428571 8.29  63.262 7.295999999999999  L 62.56371428571429 7.758000000000004  C 62.88600000000002 8.094000000000001  63.19485714285716 8.415999999999997  63.49028571428572 8.752000000000002  C 61.74457142857145 8.878  60.01228571428569 8.975999999999999  58.26657142857141 9.031999999999996  C 60.09285714285712 8.36  61.78485714285713 7.421999999999997  63.36942857142855 6.190000000000001  L 62.590571428571444 5.643999999999998  C 62.107142857142854 6.007999999999999  61.623714285714264 6.3580000000000005  61.15371428571426 6.693999999999999  C 60.40171428571426 6.75  59.39457142857145 6.777999999999999  58.159142857142875 6.806000000000001  C 59.03199999999998 6.315999999999999  59.86457142857141 5.742000000000001  60.670285714285725 5.07  L 59.931714285714314 4.692  L 65.06142857142855 4.692  L 65.06142857142855 6.372  L 66.00142857142858 6.372  L 66.00142857142858 3.809999999999999  L 60.92542857142855 3.809999999999999  L 60.92542857142855 2.5919999999999987  L 65.45085714285713 2.5919999999999987  L 65.45085714285713 1.6679999999999993  L 60.92542857142855 1.6679999999999993  L 60.92542857142855 0.5620000000000012  L 59.931714285714314 0.5620000000000012  L 59.931714285714314 1.6679999999999993  Z M 66.2162857142857 12.322000000000003  C 65.07485714285713 11.566000000000003  63.812571428571445 10.921999999999997  62.416000000000004 10.39  L 61.932571428571414 11.131999999999998  C 63.22171428571427 11.622  64.48400000000001 12.293999999999997  65.71942857142858 13.134  L 66.2162857142857 12.322000000000003  Z M 58.75 11.020000000000003  L 58.18599999999998 10.362000000000002  C 57.23257142857143 11.118000000000002  56.024000000000015 11.734000000000002  54.560285714285726 12.195999999999998  L 54.963142857142884 13.091999999999999  C 56.48057142857144 12.546  57.74285714285713 11.86  58.75 11.020000000000003  Z M 70.66114285714286 10.277999999999999  C 72.21885714285712 9.213999999999999  73.26628571428573 7.898000000000003  73.81685714285717 6.302  C 75.07914285714286 7.646  76.11314285714283 8.920000000000002  76.89199999999998 10.124000000000002  L 77.61714285714287 9.354  C 76.66371428571426 8.024000000000001  75.49542857142859 6.666  74.09885714285716 5.2940000000000005  C 74.20628571428568 4.832000000000001  74.28685714285712 4.327999999999999  74.35399999999997 3.795999999999999  L 78.19457142857142 3.795999999999999  L 78.19457142857142 11.607999999999997  C 78.19457142857142 12.055999999999997  77.9797142857143 12.293999999999997  77.55000000000001 12.293999999999997  L 75.49542857142859 12.238  L 75.76400000000001 13.246000000000002  L 77.8722857142857 13.246000000000002  C 78.73171428571428 13.246000000000002  79.17485714285712 12.770000000000003  79.17485714285712 11.832  L 79.17485714285712 2.815999999999999  L 74.46142857142857 2.815999999999999  C 74.51514285714283 2.1159999999999997  74.55542857142858 1.346  74.55542857142858 0.5199999999999996  L 73.57514285714288 0.5199999999999996  C 73.57514285714288 1.3320000000000007  73.53485714285713 2.1020000000000003  73.46771428571428 2.815999999999999  L 68 2.815999999999999  L 68 13.386000000000003  L 69.53314285714288 13.386000000000003  L 69.53314285714288 3.795999999999999  L 73.36028571428574 3.795999999999999  C 73.26628571428573 4.440000000000001  73.14542857142855 5.027999999999999  72.99771428571428 5.574000000000002  C 72.51428571428573 7.128  71.52057142857146 8.415999999999997  70.01657142857141 9.451999999999998  L 70.66114285714286 10.277999999999999  Z M 87.90342857142858 1.7379999999999995  C 87.7557142857143 1.2759999999999998  87.60800000000002 0.8560000000000016  87.44685714285716 0.4920000000000009  L 86.41285714285712 0.6739999999999995  C 86.57399999999998 0.9959999999999987  86.73514285714285 1.346  86.89628571428571 1.7379999999999995  L 81.79342857142856 1.7379999999999995  L 81.79342857142856 4.300000000000001  L 82.73342857142859 4.300000000000001  L 82.73342857142859 2.6759999999999984  L 91.83799999999998 2.6759999999999984  L 91.83799999999998 4.23  L 92.778 4.23  L 92.778 1.7379999999999995  L 87.90342857142858 1.7379999999999995  Z M 87.67514285714287 4.972000000000001  L 86.93657142857145 4.972000000000001  C 85.59371428571427 6.5120000000000005  83.70028571428571 7.744  81.24285714285713 8.695999999999998  L 81.75314285714289 9.521999999999998  C 82.31714285714285 9.298000000000002  82.8677142857143 9.060000000000002  83.41828571428573 8.780000000000001  L 83.41828571428573 13.414000000000001  L 84.3582857142857 13.414000000000001  L 84.3582857142857 12.826  L 90.36085714285716 12.826  L 90.36085714285716 13.414000000000001  L 91.28742857142859 13.414000000000001  L 91.28742857142859 8.835999999999999  C 91.74400000000001 9.060000000000002  92.24085714285714 9.283999999999999  92.778 9.508000000000003  L 93.30171428571427 8.682000000000002  C 90.64285714285714 7.618000000000002  88.76285714285716 6.385999999999999  87.67514285714287 4.972000000000001  Z M 90.36085714285716 11.902000000000001  L 84.3582857142857 11.902000000000001  L 84.3582857142857 9.661999999999999  L 90.36085714285716 9.661999999999999  L 90.36085714285716 11.902000000000001  Z M 91.13971428571426 8.765999999999998  L 83.44514285714284 8.765999999999998  C 84.9357142857143 7.996000000000002  86.22485714285715 7.030000000000001  87.29914285714287 5.853999999999999  C 88.21228571428573 6.9460000000000015  89.50142857142858 7.926000000000002  91.13971428571426 8.765999999999998  Z M 92.93914285714287 5.8679999999999986  C 91.83799999999998 5  90.4682857142857 4.1320000000000014  88.85685714285712 3.2639999999999993  L 88.2391428571429 3.8939999999999984  C 89.94457142857142 4.832000000000001  91.28742857142859 5.713999999999999  92.2677142857143 6.5539999999999985  L 92.93914285714287 5.8679999999999986  Z M 86.31885714285715 3.8520000000000008  L 85.6742857142857 3.25  C 84.54628571428572 4.23  83.17657142857144 5.07  81.53828571428569 5.797999999999998  L 82.11571428571429 6.582000000000001  C 83.78085714285714 5.797999999999998  85.17742857142859 4.888000000000002  86.31885714285715 3.8520000000000008  Z " fill-rule="evenodd" />
    </mask>
  </defs>
  <g transform="matrix(1 0 0 1 -331 -25 )">
    <path d="M 3.9748571428571484 4.454000000000001  L 3.0751428571428736 4.454000000000001  L 3.0751428571428736 6.539999999999999  L 1.7457142857142793 6.539999999999999  C 2.0814285714285865 5.643999999999998  2.3902857142857323 4.622  2.6857142857142966 3.474  L 5.2774285714285805 3.474  L 5.2774285714285805 2.5219999999999985  L 2.9140000000000104 2.5219999999999985  C 3.0348571428571303 1.9619999999999997  3.1557142857143052 1.3599999999999994  3.276571428571425 0.7300000000000004  L 2.3902857142857323 0.5199999999999996  C 2.2694285714285574 1.2199999999999989  2.1485714285714375 1.8780000000000001  2.014285714285736 2.5219999999999985  L 0.6848571428571416 2.5219999999999985  L 0.6848571428571416 3.474  L 1.799428571428549 3.474  C 1.4905714285714031 4.719999999999999  1.1548571428571504 5.77  0.7788571428571542 6.609999999999999  L 0.9802857142857061 7.450000000000003  L 3.0751428571428736 7.450000000000003  L 3.0751428571428736 9.536000000000001  C 2.2962857142857196 9.689999999999998  1.4637142857142957 9.829999999999998  0.5774285714285479 9.942  L 0.6982857142857226 10.921999999999997  C 1.5174285714285651 10.796  2.3097142857143007 10.655999999999999  3.0751428571428736 10.502000000000002  L 3.0751428571428736 13.399999999999999  L 3.9748571428571484 13.399999999999999  L 3.9748571428571484 10.292000000000002  L 5.250571428571418 9.956000000000003  L 5.250571428571418 9.003999999999998  C 4.84771428571426 9.116  4.431428571428576 9.228000000000002  3.9748571428571484 9.340000000000003  L 3.9748571428571484 7.450000000000003  L 5.21028571428573 7.450000000000003  L 5.21028571428573 6.539999999999999  L 3.9748571428571484 6.539999999999999  L 3.9748571428571484 4.454000000000001  Z M 5.492285714285713 5.111999999999998  C 6.015999999999992 4.692  6.526285714285689 4.23  7.03657142857144 3.7399999999999984  L 7.03657142857144 4.565999999999999  L 10.890571428571414 4.565999999999999  L 10.890571428571414 3.725999999999999  L 7.050000000000022 3.725999999999999  C 7.721428571428582 3.0539999999999985  8.365999999999982 2.312000000000001  9.010571428571435 1.5  C 10.031142857142882 2.872  11.172571428571452 4.033999999999999  12.434857142857142 4.986000000000001  L 12.945142857142837 4.187999999999999  C 11.723142857142838 3.2920000000000016  10.527999999999999 2.1020000000000003  9.359714285714269 0.5899999999999999  L 8.661428571428544 0.5899999999999999  C 7.5737142857143 1.9899999999999987  6.3382857142857185 3.2220000000000013  4.968571428571435 4.2719999999999985  L 5.492285714285713 5.111999999999998  Z M 7.332000000000005 13.302  L 7.976571428571403 13.302  C 8.634571428571437 13.302  8.97028571428569 12.938000000000002  8.97028571428569 12.223999999999997  L 8.97028571428569 5.686  L 5.801142857142859 5.686  L 5.801142857142859 13.399999999999999  L 6.647142857142864 13.399999999999999  L 6.647142857142864 10.781999999999996  L 8.151142857142847 10.781999999999996  L 8.151142857142847 12.042000000000002  C 8.151142857142847 12.350000000000001  8.003428571428564 12.503999999999998  7.708000000000002 12.503999999999998  L 7.117142857142872 12.475999999999999  L 7.332000000000005 13.302  Z M 8.151142857142847 9.997999999999998  L 6.647142857142864 9.997999999999998  L 6.647142857142864 8.668  L 8.151142857142847 8.668  L 8.151142857142847 9.997999999999998  Z M 8.151142857142847 7.884  L 6.647142857142864 7.884  L 6.647142857142864 6.498000000000001  L 8.151142857142847 6.498000000000001  L 8.151142857142847 7.884  Z M 10.527999999999999 6.077999999999999  L 9.776000000000007 6.077999999999999  L 9.776000000000007 11.104  L 10.527999999999999 11.104  L 10.527999999999999 6.077999999999999  Z M 10.098285714285733 13.329999999999998  L 11.239714285714303 13.329999999999998  C 11.884285714285701 13.329999999999998  12.220000000000008 12.924  12.220000000000008 12.125999999999998  L 12.220000000000008 5.448  L 11.374000000000004 5.448  L 11.374000000000004 11.902000000000001  C 11.374000000000004 12.293999999999997  11.226285714285721 12.503999999999998  10.944285714285739 12.503999999999998  C 10.60857142857143 12.503999999999998  10.259428571428597 12.475999999999999  9.896857142857128 12.448  L 10.098285714285733 13.329999999999998  Z M 17.336285714285726 1.0940000000000012  C 18.19571428571431 1.7379999999999995  18.93428571428572 2.6340000000000003  19.552000000000014 3.809999999999999  C 18.692571428571426 7.533999999999999  16.825999999999972 10.39  13.952285714285708 12.350000000000001  L 14.52971428571431 13.204  C 17.349714285714306 11.299999999999997  19.202857142857127 8.555999999999997  20.089142857142875 4.986000000000001  C 20.156285714285723 5.154  20.223428571428574 5.350000000000001  20.304000000000006 5.574000000000002  C 21.68714285714287 9.270000000000003  23.45971428571431 11.817999999999998  25.635142857142853 13.189999999999998  L 26.239428571428565 12.378  C 24.11771428571429 10.991999999999997  22.439142857142862 8.625999999999998  21.17685714285712 5.280000000000001  C 20.344285714285693 3.0120000000000005  19.33714285714288 1.4299999999999997  18.14199999999999 0.5620000000000012  L 17.336285714285726 1.0940000000000012  Z M 39.50685714285713 1.1219999999999999  L 27.63600000000001 1.1219999999999999  L 27.63600000000001 2.032  L 31.59742857142858 2.032  L 31.59742857142858 3.2779999999999987  L 28.468571428571437 3.2779999999999987  L 28.468571428571437 6.806000000000001  L 32.00028571428574 6.806000000000001  C 31.78542857142855 7.1979999999999995  31.557142857142832 7.618000000000002  31.315428571428598 8.052  L 27.461428571428566 8.052  L 27.461428571428566 8.975999999999999  L 30.778285714285737 8.975999999999999  C 30.482857142857117 9.451999999999998  30.187428571428555 9.942  29.865142857142878 10.432000000000002  C 30.979714285714287 10.698  32.09428571428569 11.006  33.208857142857156 11.356000000000002  C 32.00028571428574 11.845999999999997  30.187428571428555 12.238  27.797142857142873 12.531999999999996  L 28.159714285714287 13.427999999999997  C 31.06028571428572 13.021999999999998  33.15514285714283 12.462000000000003  34.43085714285716 11.747999999999998  C 35.92142857142856 12.252000000000002  37.41200000000002 12.826  38.88914285714284 13.484000000000002  L 39.49342857142855 12.658000000000001  C 38.07 12.07  36.67342857142855 11.566000000000003  35.30371428571427 11.131999999999998  C 36.01542857142857 10.530000000000001  36.51228571428569 9.816000000000003  36.78085714285715 8.975999999999999  L 39.66799999999999 8.975999999999999  L 39.66799999999999 8.052  L 32.40314285714284 8.052  C 32.617999999999974 7.659999999999997  32.84628571428574 7.253999999999998  33.08799999999998 6.806000000000001  L 38.67428571428571 6.806000000000001  L 38.67428571428571 3.2779999999999987  L 35.545428571428566 3.2779999999999987  L 35.545428571428566 2.032  L 39.50685714285713 2.032  L 39.50685714285713 1.1219999999999999  Z M 35.800571428571445 8.975999999999999  C 35.53199999999998 9.704  35.02171428571428 10.32  34.269714285714294 10.810000000000002  C 33.23571428571426 10.502000000000002  32.22857142857145 10.235999999999997  31.234857142857166 10.012  C 31.436285714285717 9.704  31.65114285714285 9.354  31.87942857142856 8.975999999999999  L 35.800571428571445 8.975999999999999  Z M 34.618857142857124 2.032  L 34.618857142857124 3.2779999999999987  L 32.524000000000015 3.2779999999999987  L 32.524000000000015 2.032  L 34.618857142857124 2.032  Z M 37.747714285714274 4.16  L 37.747714285714274 5.937999999999999  L 35.545428571428566 5.937999999999999  L 35.545428571428566 4.16  L 37.747714285714274 4.16  Z M 34.618857142857124 4.16  L 34.618857142857124 5.937999999999999  L 32.524000000000015 5.937999999999999  L 32.524000000000015 4.16  L 34.618857142857124 4.16  Z M 31.59742857142858 4.16  L 31.59742857142858 5.937999999999999  L 29.395142857142872 5.937999999999999  L 29.395142857142872 4.16  L 31.59742857142858 4.16  Z M 46.368857142857124 5.8679999999999986  L 46.368857142857124 4.481999999999999  L 47.83257142857142 4.481999999999999  L 47.83257142857142 3.6419999999999995  L 46.368857142857124 3.6419999999999995  L 46.368857142857124 2.2979999999999983  C 47.01342857142858 2.0459999999999994  47.57742857142855 1.7940000000000005  48.03399999999998 1.5420000000000016  L 47.48342857142859 0.8000000000000007  C 46.85228571428571 1.1920000000000002  46.18085714285716 1.4860000000000007  45.48257142857143 1.6819999999999986  L 45.48257142857143 6.736000000000001  L 48.557714285714304 6.736000000000001  L 48.557714285714304 7.9680000000000035  L 45.402 7.9680000000000035  L 45.402 8.878  L 45.96600000000002 8.878  C 46.47628571428572 9.857999999999997  47.20142857142855 10.712000000000003  48.16828571428573 11.426000000000002  C 47.16114285714286 11.874000000000002  45.95257142857144 12.238  44.556 12.518  L 45.03942857142859 13.414000000000001  C 46.61057142857142 13.049999999999997  47.9534285714286 12.573999999999998  49.08142857142859 12.014000000000003  C 50.11542857142856 12.601999999999997  51.36428571428573 13.064  52.828000000000024 13.386000000000003  L 53.17714285714286 12.448  C 51.99542857142859 12.195999999999998  50.96142857142857 11.86  50.07514285714288 11.439999999999998  C 51.1762857142857 10.712000000000003  51.98200000000001 9.844000000000001  52.46542857142855 8.822000000000003  L 52.46542857142855 7.9680000000000035  L 49.45742857142858 7.9680000000000035  L 49.45742857142858 6.736000000000001  L 52.5057142857143 6.736000000000001  L 52.5057142857143 1.248000000000001  L 50.15571428571431 1.248000000000001  L 50.15571428571431 2.1159999999999997  L 51.632857142857134 2.1159999999999997  L 51.632857142857134 3.6419999999999995  L 50.22285714285716 3.6419999999999995  L 50.22285714285716 4.481999999999999  L 51.632857142857134 4.481999999999999  L 51.632857142857134 5.8679999999999986  L 49.45742857142858 5.8679999999999986  L 49.45742857142858 0.6179999999999986  L 48.557714285714304 0.6179999999999986  L 48.557714285714304 5.8679999999999986  L 46.368857142857124 5.8679999999999986  Z M 49.13514285714285 10.936  C 48.208571428571425 10.362000000000002  47.48342857142859 9.676000000000002  46.95971428571431 8.878  L 51.41799999999999 8.878  C 50.9077142857143 9.661999999999999  50.14228571428573 10.347999999999999  49.13514285714285 10.936  Z M 41.23914285714289 13.274000000000001  L 42.501428571428576 13.274000000000001  C 43.226571428571404 13.274000000000001  43.60257142857145 12.868000000000002  43.60257142857145 12.07  L 43.60257142857145 8.009999999999998  C 44.05914285714288 7.786000000000001  44.51571428571431 7.561999999999997  44.958857142857156 7.323999999999998  L 44.958857142857156 6.344000000000001  C 44.51571428571431 6.596  44.05914285714288 6.834  43.60257142857145 7.043999999999997  L 43.60257142857145 4.216000000000001  L 44.85142857142856 4.216000000000001  L 44.85142857142856 3.25  L 43.60257142857145 3.25  L 43.60257142857145 0.6320000000000014  L 42.66257142857144 0.6320000000000014  L 42.66257142857144 3.25  L 41.171999999999976 3.25  L 41.171999999999976 4.216000000000001  L 42.66257142857144 4.216000000000001  L 42.66257142857144 7.436  C 42.09857142857142 7.659999999999997  41.52114285714287 7.841999999999999  40.93028571428574 8.009999999999998  L 41.14514285714287 8.962000000000003  C 41.655428571428565 8.793999999999997  42.15228571428574 8.612000000000002  42.66257142857144 8.415999999999997  L 42.66257142857144 11.817999999999998  C 42.66257142857144 12.195999999999998  42.48799999999999 12.392000000000003  42.165714285714266 12.392000000000003  C 41.81657142857143 12.392000000000003  41.44057142857144 12.363999999999997  41.03771428571428 12.322000000000003  L 41.23914285714289 13.274000000000001  Z M 59.931714285714314 1.6679999999999993  L 55.40628571428572 1.6679999999999993  L 55.40628571428572 2.5919999999999987  L 59.931714285714314 2.5919999999999987  L 59.931714285714314 3.809999999999999  L 54.85571428571428 3.809999999999999  L 54.85571428571428 6.3580000000000005  L 55.795714285714304 6.3580000000000005  L 55.795714285714304 4.692  L 59.79742857142856 4.692  C 59.0185714285714 5.3919999999999995  58.18599999999998 6.007999999999999  57.313142857142864 6.526  C 57.111714285714264 6.638000000000002  56.910285714285706 6.722000000000001  56.708857142857156 6.763999999999999  L 56.89685714285712 7.533999999999999  C 58.06514285714286 7.506  59.09914285714283 7.463999999999999  60.01228571428569 7.436  C 58.83057142857143 8.136000000000003  57.70257142857144 8.64  56.60142857142856 8.962000000000003  C 56.33285714285716 8.962000000000003  56.050857142857126 8.948  55.76885714285714 8.933999999999997  L 55.95685714285717 9.844000000000001  C 57.192285714285696 9.816000000000003  58.54857142857145 9.759999999999998  60.02571428571427 9.689999999999998  L 60.02571428571427 12.084000000000003  C 60.02571428571427 12.363999999999997  59.86457142857141 12.518  59.56914285714284 12.518  C 59.22000000000001 12.518  58.84400000000001 12.490000000000002  58.46800000000002 12.448  L 58.66942857142857 13.386000000000003  L 59.89142857142857 13.386000000000003  C 60.616571428571454 13.386000000000003  60.99257142857145 13.021999999999998  60.99257142857145 12.322000000000003  L 60.99257142857145 9.648000000000003  C 61.959428571428575 9.591999999999999  62.980000000000025 9.521999999999998  64.06771428571427 9.451999999999998  C 64.33628571428574 9.787999999999997  64.57800000000003 10.124000000000002  64.79285714285716 10.46  L 65.51799999999999 9.914000000000001  C 64.9942857142857 9.158000000000001  64.24228571428571 8.29  63.262 7.295999999999999  L 62.56371428571429 7.758000000000004  C 62.88600000000002 8.094000000000001  63.19485714285716 8.415999999999997  63.49028571428572 8.752000000000002  C 61.74457142857145 8.878  60.01228571428569 8.975999999999999  58.26657142857141 9.031999999999996  C 60.09285714285712 8.36  61.78485714285713 7.421999999999997  63.36942857142855 6.190000000000001  L 62.590571428571444 5.643999999999998  C 62.107142857142854 6.007999999999999  61.623714285714264 6.3580000000000005  61.15371428571426 6.693999999999999  C 60.40171428571426 6.75  59.39457142857145 6.777999999999999  58.159142857142875 6.806000000000001  C 59.03199999999998 6.315999999999999  59.86457142857141 5.742000000000001  60.670285714285725 5.07  L 59.931714285714314 4.692  L 65.06142857142855 4.692  L 65.06142857142855 6.372  L 66.00142857142858 6.372  L 66.00142857142858 3.809999999999999  L 60.92542857142855 3.809999999999999  L 60.92542857142855 2.5919999999999987  L 65.45085714285713 2.5919999999999987  L 65.45085714285713 1.6679999999999993  L 60.92542857142855 1.6679999999999993  L 60.92542857142855 0.5620000000000012  L 59.931714285714314 0.5620000000000012  L 59.931714285714314 1.6679999999999993  Z M 66.2162857142857 12.322000000000003  C 65.07485714285713 11.566000000000003  63.812571428571445 10.921999999999997  62.416000000000004 10.39  L 61.932571428571414 11.131999999999998  C 63.22171428571427 11.622  64.48400000000001 12.293999999999997  65.71942857142858 13.134  L 66.2162857142857 12.322000000000003  Z M 58.75 11.020000000000003  L 58.18599999999998 10.362000000000002  C 57.23257142857143 11.118000000000002  56.024000000000015 11.734000000000002  54.560285714285726 12.195999999999998  L 54.963142857142884 13.091999999999999  C 56.48057142857144 12.546  57.74285714285713 11.86  58.75 11.020000000000003  Z M 70.66114285714286 10.277999999999999  C 72.21885714285712 9.213999999999999  73.26628571428573 7.898000000000003  73.81685714285717 6.302  C 75.07914285714286 7.646  76.11314285714283 8.920000000000002  76.89199999999998 10.124000000000002  L 77.61714285714287 9.354  C 76.66371428571426 8.024000000000001  75.49542857142859 6.666  74.09885714285716 5.2940000000000005  C 74.20628571428568 4.832000000000001  74.28685714285712 4.327999999999999  74.35399999999997 3.795999999999999  L 78.19457142857142 3.795999999999999  L 78.19457142857142 11.607999999999997  C 78.19457142857142 12.055999999999997  77.9797142857143 12.293999999999997  77.55000000000001 12.293999999999997  L 75.49542857142859 12.238  L 75.76400000000001 13.246000000000002  L 77.8722857142857 13.246000000000002  C 78.73171428571428 13.246000000000002  79.17485714285712 12.770000000000003  79.17485714285712 11.832  L 79.17485714285712 2.815999999999999  L 74.46142857142857 2.815999999999999  C 74.51514285714283 2.1159999999999997  74.55542857142858 1.346  74.55542857142858 0.5199999999999996  L 73.57514285714288 0.5199999999999996  C 73.57514285714288 1.3320000000000007  73.53485714285713 2.1020000000000003  73.46771428571428 2.815999999999999  L 68 2.815999999999999  L 68 13.386000000000003  L 69.53314285714288 13.386000000000003  L 69.53314285714288 3.795999999999999  L 73.36028571428574 3.795999999999999  C 73.26628571428573 4.440000000000001  73.14542857142855 5.027999999999999  72.99771428571428 5.574000000000002  C 72.51428571428573 7.128  71.52057142857146 8.415999999999997  70.01657142857141 9.451999999999998  L 70.66114285714286 10.277999999999999  Z M 87.90342857142858 1.7379999999999995  C 87.7557142857143 1.2759999999999998  87.60800000000002 0.8560000000000016  87.44685714285716 0.4920000000000009  L 86.41285714285712 0.6739999999999995  C 86.57399999999998 0.9959999999999987  86.73514285714285 1.346  86.89628571428571 1.7379999999999995  L 81.79342857142856 1.7379999999999995  L 81.79342857142856 4.300000000000001  L 82.73342857142859 4.300000000000001  L 82.73342857142859 2.6759999999999984  L 91.83799999999998 2.6759999999999984  L 91.83799999999998 4.23  L 92.778 4.23  L 92.778 1.7379999999999995  L 87.90342857142858 1.7379999999999995  Z M 87.67514285714287 4.972000000000001  L 86.93657142857145 4.972000000000001  C 85.59371428571427 6.5120000000000005  83.70028571428571 7.744  81.24285714285713 8.695999999999998  L 81.75314285714289 9.521999999999998  C 82.31714285714285 9.298000000000002  82.8677142857143 9.060000000000002  83.41828571428573 8.780000000000001  L 83.41828571428573 13.414000000000001  L 84.3582857142857 13.414000000000001  L 84.3582857142857 12.826  L 90.36085714285716 12.826  L 90.36085714285716 13.414000000000001  L 91.28742857142859 13.414000000000001  L 91.28742857142859 8.835999999999999  C 91.74400000000001 9.060000000000002  92.24085714285714 9.283999999999999  92.778 9.508000000000003  L 93.30171428571427 8.682000000000002  C 90.64285714285714 7.618000000000002  88.76285714285716 6.385999999999999  87.67514285714287 4.972000000000001  Z M 90.36085714285716 11.902000000000001  L 84.3582857142857 11.902000000000001  L 84.3582857142857 9.661999999999999  L 90.36085714285716 9.661999999999999  L 90.36085714285716 11.902000000000001  Z M 91.13971428571426 8.765999999999998  L 83.44514285714284 8.765999999999998  C 84.9357142857143 7.996000000000002  86.22485714285715 7.030000000000001  87.29914285714287 5.853999999999999  C 88.21228571428573 6.9460000000000015  89.50142857142858 7.926000000000002  91.13971428571426 8.765999999999998  Z M 92.93914285714287 5.8679999999999986  C 91.83799999999998 5  90.4682857142857 4.1320000000000014  88.85685714285712 3.2639999999999993  L 88.2391428571429 3.8939999999999984  C 89.94457142857142 4.832000000000001  91.28742857142859 5.713999999999999  92.2677142857143 6.5539999999999985  L 92.93914285714287 5.8679999999999986  Z M 86.31885714285715 3.8520000000000008  L 85.6742857142857 3.25  C 84.54628571428572 4.23  83.17657142857144 5.07  81.53828571428569 5.797999999999998  L 82.11571428571429 6.582000000000001  C 83.78085714285714 5.797999999999998  85.17742857142859 4.888000000000002  86.31885714285715 3.8520000000000008  Z " fill-rule="nonzero" fill="rgba(0, 0, 0, 0.25882352941176473)" stroke="none" transform="matrix(1 0 0 1 331 25 )" class="fill" />
    <path d="M 3.9748571428571484 4.454000000000001  L 3.0751428571428736 4.454000000000001  L 3.0751428571428736 6.539999999999999  L 1.7457142857142793 6.539999999999999  C 2.0814285714285865 5.643999999999998  2.3902857142857323 4.622  2.6857142857142966 3.474  L 5.2774285714285805 3.474  L 5.2774285714285805 2.5219999999999985  L 2.9140000000000104 2.5219999999999985  C 3.0348571428571303 1.9619999999999997  3.1557142857143052 1.3599999999999994  3.276571428571425 0.7300000000000004  L 2.3902857142857323 0.5199999999999996  C 2.2694285714285574 1.2199999999999989  2.1485714285714375 1.8780000000000001  2.014285714285736 2.5219999999999985  L 0.6848571428571416 2.5219999999999985  L 0.6848571428571416 3.474  L 1.799428571428549 3.474  C 1.4905714285714031 4.719999999999999  1.1548571428571504 5.77  0.7788571428571542 6.609999999999999  L 0.9802857142857061 7.450000000000003  L 3.0751428571428736 7.450000000000003  L 3.0751428571428736 9.536000000000001  C 2.2962857142857196 9.689999999999998  1.4637142857142957 9.829999999999998  0.5774285714285479 9.942  L 0.6982857142857226 10.921999999999997  C 1.5174285714285651 10.796  2.3097142857143007 10.655999999999999  3.0751428571428736 10.502000000000002  L 3.0751428571428736 13.399999999999999  L 3.9748571428571484 13.399999999999999  L 3.9748571428571484 10.292000000000002  L 5.250571428571418 9.956000000000003  L 5.250571428571418 9.003999999999998  C 4.84771428571426 9.116  4.431428571428576 9.228000000000002  3.9748571428571484 9.340000000000003  L 3.9748571428571484 7.450000000000003  L 5.21028571428573 7.450000000000003  L 5.21028571428573 6.539999999999999  L 3.9748571428571484 6.539999999999999  L 3.9748571428571484 4.454000000000001  Z " stroke-width="0" stroke-dasharray="0" stroke="rgba(255, 255, 255, 0)" fill="none" transform="matrix(1 0 0 1 331 25 )" class="stroke" mask="url(#Clip2589)" />
    <path d="M 5.492285714285713 5.111999999999998  C 6.015999999999992 4.692  6.526285714285689 4.23  7.03657142857144 3.7399999999999984  L 7.03657142857144 4.565999999999999  L 10.890571428571414 4.565999999999999  L 10.890571428571414 3.725999999999999  L 7.050000000000022 3.725999999999999  C 7.721428571428582 3.0539999999999985  8.365999999999982 2.312000000000001  9.010571428571435 1.5  C 10.031142857142882 2.872  11.172571428571452 4.033999999999999  12.434857142857142 4.986000000000001  L 12.945142857142837 4.187999999999999  C 11.723142857142838 3.2920000000000016  10.527999999999999 2.1020000000000003  9.359714285714269 0.5899999999999999  L 8.661428571428544 0.5899999999999999  C 7.5737142857143 1.9899999999999987  6.3382857142857185 3.2220000000000013  4.968571428571435 4.2719999999999985  L 5.492285714285713 5.111999999999998  Z " stroke-width="0" stroke-dasharray="0" stroke="rgba(255, 255, 255, 0)" fill="none" transform="matrix(1 0 0 1 331 25 )" class="stroke" mask="url(#Clip2589)" />
    <path d="M 7.332000000000005 13.302  L 7.976571428571403 13.302  C 8.634571428571437 13.302  8.97028571428569 12.938000000000002  8.97028571428569 12.223999999999997  L 8.97028571428569 5.686  L 5.801142857142859 5.686  L 5.801142857142859 13.399999999999999  L 6.647142857142864 13.399999999999999  L 6.647142857142864 10.781999999999996  L 8.151142857142847 10.781999999999996  L 8.151142857142847 12.042000000000002  C 8.151142857142847 12.350000000000001  8.003428571428564 12.503999999999998  7.708000000000002 12.503999999999998  L 7.117142857142872 12.475999999999999  L 7.332000000000005 13.302  Z " stroke-width="0" stroke-dasharray="0" stroke="rgba(255, 255, 255, 0)" fill="none" transform="matrix(1 0 0 1 331 25 )" class="stroke" mask="url(#Clip2589)" />
    <path d="M 8.151142857142847 9.997999999999998  L 6.647142857142864 9.997999999999998  L 6.647142857142864 8.668  L 8.151142857142847 8.668  L 8.151142857142847 9.997999999999998  Z " stroke-width="0" stroke-dasharray="0" stroke="rgba(255, 255, 255, 0)" fill="none" transform="matrix(1 0 0 1 331 25 )" class="stroke" mask="url(#Clip2589)" />
    <path d="M 8.151142857142847 7.884  L 6.647142857142864 7.884  L 6.647142857142864 6.498000000000001  L 8.151142857142847 6.498000000000001  L 8.151142857142847 7.884  Z " stroke-width="0" stroke-dasharray="0" stroke="rgba(255, 255, 255, 0)" fill="none" transform="matrix(1 0 0 1 331 25 )" class="stroke" mask="url(#Clip2589)" />
    <path d="M 10.527999999999999 6.077999999999999  L 9.776000000000007 6.077999999999999  L 9.776000000000007 11.104  L 10.527999999999999 11.104  L 10.527999999999999 6.077999999999999  Z " stroke-width="0" stroke-dasharray="0" stroke="rgba(255, 255, 255, 0)" fill="none" transform="matrix(1 0 0 1 331 25 )" class="stroke" mask="url(#Clip2589)" />
    <path d="M 10.098285714285733 13.329999999999998  L 11.239714285714303 13.329999999999998  C 11.884285714285701 13.329999999999998  12.220000000000008 12.924  12.220000000000008 12.125999999999998  L 12.220000000000008 5.448  L 11.374000000000004 5.448  L 11.374000000000004 11.902000000000001  C 11.374000000000004 12.293999999999997  11.226285714285721 12.503999999999998  10.944285714285739 12.503999999999998  C 10.60857142857143 12.503999999999998  10.259428571428597 12.475999999999999  9.896857142857128 12.448  L 10.098285714285733 13.329999999999998  Z " stroke-width="0" stroke-dasharray="0" stroke="rgba(255, 255, 255, 0)" fill="none" transform="matrix(1 0 0 1 331 25 )" class="stroke" mask="url(#Clip2589)" />
    <path d="M 17.336285714285726 1.0940000000000012  C 18.19571428571431 1.7379999999999995  18.93428571428572 2.6340000000000003  19.552000000000014 3.809999999999999  C 18.692571428571426 7.533999999999999  16.825999999999972 10.39  13.952285714285708 12.350000000000001  L 14.52971428571431 13.204  C 17.349714285714306 11.299999999999997  19.202857142857127 8.555999999999997  20.089142857142875 4.986000000000001  C 20.156285714285723 5.154  20.223428571428574 5.350000000000001  20.304000000000006 5.574000000000002  C 21.68714285714287 9.270000000000003  23.45971428571431 11.817999999999998  25.635142857142853 13.189999999999998  L 26.239428571428565 12.378  C 24.11771428571429 10.991999999999997  22.439142857142862 8.625999999999998  21.17685714285712 5.280000000000001  C 20.344285714285693 3.0120000000000005  19.33714285714288 1.4299999999999997  18.14199999999999 0.5620000000000012  L 17.336285714285726 1.0940000000000012  Z " stroke-width="0" stroke-dasharray="0" stroke="rgba(255, 255, 255, 0)" fill="none" transform="matrix(1 0 0 1 331 25 )" class="stroke" mask="url(#Clip2589)" />
    <path d="M 39.50685714285713 1.1219999999999999  L 27.63600000000001 1.1219999999999999  L 27.63600000000001 2.032  L 31.59742857142858 2.032  L 31.59742857142858 3.2779999999999987  L 28.468571428571437 3.2779999999999987  L 28.468571428571437 6.806000000000001  L 32.00028571428574 6.806000000000001  C 31.78542857142855 7.1979999999999995  31.557142857142832 7.618000000000002  31.315428571428598 8.052  L 27.461428571428566 8.052  L 27.461428571428566 8.975999999999999  L 30.778285714285737 8.975999999999999  C 30.482857142857117 9.451999999999998  30.187428571428555 9.942  29.865142857142878 10.432000000000002  C 30.979714285714287 10.698  32.09428571428569 11.006  33.208857142857156 11.356000000000002  C 32.00028571428574 11.845999999999997  30.187428571428555 12.238  27.797142857142873 12.531999999999996  L 28.159714285714287 13.427999999999997  C 31.06028571428572 13.021999999999998  33.15514285714283 12.462000000000003  34.43085714285716 11.747999999999998  C 35.92142857142856 12.252000000000002  37.41200000000002 12.826  38.88914285714284 13.484000000000002  L 39.49342857142855 12.658000000000001  C 38.07 12.07  36.67342857142855 11.566000000000003  35.30371428571427 11.131999999999998  C 36.01542857142857 10.530000000000001  36.51228571428569 9.816000000000003  36.78085714285715 8.975999999999999  L 39.66799999999999 8.975999999999999  L 39.66799999999999 8.052  L 32.40314285714284 8.052  C 32.617999999999974 7.659999999999997  32.84628571428574 7.253999999999998  33.08799999999998 6.806000000000001  L 38.67428571428571 6.806000000000001  L 38.67428571428571 3.2779999999999987  L 35.545428571428566 3.2779999999999987  L 35.545428571428566 2.032  L 39.50685714285713 2.032  L 39.50685714285713 1.1219999999999999  Z " stroke-width="0" stroke-dasharray="0" stroke="rgba(255, 255, 255, 0)" fill="none" transform="matrix(1 0 0 1 331 25 )" class="stroke" mask="url(#Clip2589)" />
    <path d="M 35.800571428571445 8.975999999999999  C 35.53199999999998 9.704  35.02171428571428 10.32  34.269714285714294 10.810000000000002  C 33.23571428571426 10.502000000000002  32.22857142857145 10.235999999999997  31.234857142857166 10.012  C 31.436285714285717 9.704  31.65114285714285 9.354  31.87942857142856 8.975999999999999  L 35.800571428571445 8.975999999999999  Z " stroke-width="0" stroke-dasharray="0" stroke="rgba(255, 255, 255, 0)" fill="none" transform="matrix(1 0 0 1 331 25 )" class="stroke" mask="url(#Clip2589)" />
    <path d="M 34.618857142857124 2.032  L 34.618857142857124 3.2779999999999987  L 32.524000000000015 3.2779999999999987  L 32.524000000000015 2.032  L 34.618857142857124 2.032  Z " stroke-width="0" stroke-dasharray="0" stroke="rgba(255, 255, 255, 0)" fill="none" transform="matrix(1 0 0 1 331 25 )" class="stroke" mask="url(#Clip2589)" />
    <path d="M 37.747714285714274 4.16  L 37.747714285714274 5.937999999999999  L 35.545428571428566 5.937999999999999  L 35.545428571428566 4.16  L 37.747714285714274 4.16  Z " stroke-width="0" stroke-dasharray="0" stroke="rgba(255, 255, 255, 0)" fill="none" transform="matrix(1 0 0 1 331 25 )" class="stroke" mask="url(#Clip2589)" />
    <path d="M 34.618857142857124 4.16  L 34.618857142857124 5.937999999999999  L 32.524000000000015 5.937999999999999  L 32.524000000000015 4.16  L 34.618857142857124 4.16  Z " stroke-width="0" stroke-dasharray="0" stroke="rgba(255, 255, 255, 0)" fill="none" transform="matrix(1 0 0 1 331 25 )" class="stroke" mask="url(#Clip2589)" />
    <path d="M 31.59742857142858 4.16  L 31.59742857142858 5.937999999999999  L 29.395142857142872 5.937999999999999  L 29.395142857142872 4.16  L 31.59742857142858 4.16  Z " stroke-width="0" stroke-dasharray="0" stroke="rgba(255, 255, 255, 0)" fill="none" transform="matrix(1 0 0 1 331 25 )" class="stroke" mask="url(#Clip2589)" />
    <path d="M 46.368857142857124 5.8679999999999986  L 46.368857142857124 4.481999999999999  L 47.83257142857142 4.481999999999999  L 47.83257142857142 3.6419999999999995  L 46.368857142857124 3.6419999999999995  L 46.368857142857124 2.2979999999999983  C 47.01342857142858 2.0459999999999994  47.57742857142855 1.7940000000000005  48.03399999999998 1.5420000000000016  L 47.48342857142859 0.8000000000000007  C 46.85228571428571 1.1920000000000002  46.18085714285716 1.4860000000000007  45.48257142857143 1.6819999999999986  L 45.48257142857143 6.736000000000001  L 48.557714285714304 6.736000000000001  L 48.557714285714304 7.9680000000000035  L 45.402 7.9680000000000035  L 45.402 8.878  L 45.96600000000002 8.878  C 46.47628571428572 9.857999999999997  47.20142857142855 10.712000000000003  48.16828571428573 11.426000000000002  C 47.16114285714286 11.874000000000002  45.95257142857144 12.238  44.556 12.518  L 45.03942857142859 13.414000000000001  C 46.61057142857142 13.049999999999997  47.9534285714286 12.573999999999998  49.08142857142859 12.014000000000003  C 50.11542857142856 12.601999999999997  51.36428571428573 13.064  52.828000000000024 13.386000000000003  L 53.17714285714286 12.448  C 51.99542857142859 12.195999999999998  50.96142857142857 11.86  50.07514285714288 11.439999999999998  C 51.1762857142857 10.712000000000003  51.98200000000001 9.844000000000001  52.46542857142855 8.822000000000003  L 52.46542857142855 7.9680000000000035  L 49.45742857142858 7.9680000000000035  L 49.45742857142858 6.736000000000001  L 52.5057142857143 6.736000000000001  L 52.5057142857143 1.248000000000001  L 50.15571428571431 1.248000000000001  L 50.15571428571431 2.1159999999999997  L 51.632857142857134 2.1159999999999997  L 51.632857142857134 3.6419999999999995  L 50.22285714285716 3.6419999999999995  L 50.22285714285716 4.481999999999999  L 51.632857142857134 4.481999999999999  L 51.632857142857134 5.8679999999999986  L 49.45742857142858 5.8679999999999986  L 49.45742857142858 0.6179999999999986  L 48.557714285714304 0.6179999999999986  L 48.557714285714304 5.8679999999999986  L 46.368857142857124 5.8679999999999986  Z " stroke-width="0" stroke-dasharray="0" stroke="rgba(255, 255, 255, 0)" fill="none" transform="matrix(1 0 0 1 331 25 )" class="stroke" mask="url(#Clip2589)" />
    <path d="M 49.13514285714285 10.936  C 48.208571428571425 10.362000000000002  47.48342857142859 9.676000000000002  46.95971428571431 8.878  L 51.41799999999999 8.878  C 50.9077142857143 9.661999999999999  50.14228571428573 10.347999999999999  49.13514285714285 10.936  Z " stroke-width="0" stroke-dasharray="0" stroke="rgba(255, 255, 255, 0)" fill="none" transform="matrix(1 0 0 1 331 25 )" class="stroke" mask="url(#Clip2589)" />
    <path d="M 41.23914285714289 13.274000000000001  L 42.501428571428576 13.274000000000001  C 43.226571428571404 13.274000000000001  43.60257142857145 12.868000000000002  43.60257142857145 12.07  L 43.60257142857145 8.009999999999998  C 44.05914285714288 7.786000000000001  44.51571428571431 7.561999999999997  44.958857142857156 7.323999999999998  L 44.958857142857156 6.344000000000001  C 44.51571428571431 6.596  44.05914285714288 6.834  43.60257142857145 7.043999999999997  L 43.60257142857145 4.216000000000001  L 44.85142857142856 4.216000000000001  L 44.85142857142856 3.25  L 43.60257142857145 3.25  L 43.60257142857145 0.6320000000000014  L 42.66257142857144 0.6320000000000014  L 42.66257142857144 3.25  L 41.171999999999976 3.25  L 41.171999999999976 4.216000000000001  L 42.66257142857144 4.216000000000001  L 42.66257142857144 7.436  C 42.09857142857142 7.659999999999997  41.52114285714287 7.841999999999999  40.93028571428574 8.009999999999998  L 41.14514285714287 8.962000000000003  C 41.655428571428565 8.793999999999997  42.15228571428574 8.612000000000002  42.66257142857144 8.415999999999997  L 42.66257142857144 11.817999999999998  C 42.66257142857144 12.195999999999998  42.48799999999999 12.392000000000003  42.165714285714266 12.392000000000003  C 41.81657142857143 12.392000000000003  41.44057142857144 12.363999999999997  41.03771428571428 12.322000000000003  L 41.23914285714289 13.274000000000001  Z " stroke-width="0" stroke-dasharray="0" stroke="rgba(255, 255, 255, 0)" fill="none" transform="matrix(1 0 0 1 331 25 )" class="stroke" mask="url(#Clip2589)" />
    <path d="M 59.931714285714314 1.6679999999999993  L 55.40628571428572 1.6679999999999993  L 55.40628571428572 2.5919999999999987  L 59.931714285714314 2.5919999999999987  L 59.931714285714314 3.809999999999999  L 54.85571428571428 3.809999999999999  L 54.85571428571428 6.3580000000000005  L 55.795714285714304 6.3580000000000005  L 55.795714285714304 4.692  L 59.79742857142856 4.692  C 59.0185714285714 5.3919999999999995  58.18599999999998 6.007999999999999  57.313142857142864 6.526  C 57.111714285714264 6.638000000000002  56.910285714285706 6.722000000000001  56.708857142857156 6.763999999999999  L 56.89685714285712 7.533999999999999  C 58.06514285714286 7.506  59.09914285714283 7.463999999999999  60.01228571428569 7.436  C 58.83057142857143 8.136000000000003  57.70257142857144 8.64  56.60142857142856 8.962000000000003  C 56.33285714285716 8.962000000000003  56.050857142857126 8.948  55.76885714285714 8.933999999999997  L 55.95685714285717 9.844000000000001  C 57.192285714285696 9.816000000000003  58.54857142857145 9.759999999999998  60.02571428571427 9.689999999999998  L 60.02571428571427 12.084000000000003  C 60.02571428571427 12.363999999999997  59.86457142857141 12.518  59.56914285714284 12.518  C 59.22000000000001 12.518  58.84400000000001 12.490000000000002  58.46800000000002 12.448  L 58.66942857142857 13.386000000000003  L 59.89142857142857 13.386000000000003  C 60.616571428571454 13.386000000000003  60.99257142857145 13.021999999999998  60.99257142857145 12.322000000000003  L 60.99257142857145 9.648000000000003  C 61.959428571428575 9.591999999999999  62.980000000000025 9.521999999999998  64.06771428571427 9.451999999999998  C 64.33628571428574 9.787999999999997  64.57800000000003 10.124000000000002  64.79285714285716 10.46  L 65.51799999999999 9.914000000000001  C 64.9942857142857 9.158000000000001  64.24228571428571 8.29  63.262 7.295999999999999  L 62.56371428571429 7.758000000000004  C 62.88600000000002 8.094000000000001  63.19485714285716 8.415999999999997  63.49028571428572 8.752000000000002  C 61.74457142857145 8.878  60.01228571428569 8.975999999999999  58.26657142857141 9.031999999999996  C 60.09285714285712 8.36  61.78485714285713 7.421999999999997  63.36942857142855 6.190000000000001  L 62.590571428571444 5.643999999999998  C 62.107142857142854 6.007999999999999  61.623714285714264 6.3580000000000005  61.15371428571426 6.693999999999999  C 60.40171428571426 6.75  59.39457142857145 6.777999999999999  58.159142857142875 6.806000000000001  C 59.03199999999998 6.315999999999999  59.86457142857141 5.742000000000001  60.670285714285725 5.07  L 59.931714285714314 4.692  L 65.06142857142855 4.692  L 65.06142857142855 6.372  L 66.00142857142858 6.372  L 66.00142857142858 3.809999999999999  L 60.92542857142855 3.809999999999999  L 60.92542857142855 2.5919999999999987  L 65.45085714285713 2.5919999999999987  L 65.45085714285713 1.6679999999999993  L 60.92542857142855 1.6679999999999993  L 60.92542857142855 0.5620000000000012  L 59.931714285714314 0.5620000000000012  L 59.931714285714314 1.6679999999999993  Z " stroke-width="0" stroke-dasharray="0" stroke="rgba(255, 255, 255, 0)" fill="none" transform="matrix(1 0 0 1 331 25 )" class="stroke" mask="url(#Clip2589)" />
    <path d="M 66.2162857142857 12.322000000000003  C 65.07485714285713 11.566000000000003  63.812571428571445 10.921999999999997  62.416000000000004 10.39  L 61.932571428571414 11.131999999999998  C 63.22171428571427 11.622  64.48400000000001 12.293999999999997  65.71942857142858 13.134  L 66.2162857142857 12.322000000000003  Z " stroke-width="0" stroke-dasharray="0" stroke="rgba(255, 255, 255, 0)" fill="none" transform="matrix(1 0 0 1 331 25 )" class="stroke" mask="url(#Clip2589)" />
    <path d="M 58.75 11.020000000000003  L 58.18599999999998 10.362000000000002  C 57.23257142857143 11.118000000000002  56.024000000000015 11.734000000000002  54.560285714285726 12.195999999999998  L 54.963142857142884 13.091999999999999  C 56.48057142857144 12.546  57.74285714285713 11.86  58.75 11.020000000000003  Z " stroke-width="0" stroke-dasharray="0" stroke="rgba(255, 255, 255, 0)" fill="none" transform="matrix(1 0 0 1 331 25 )" class="stroke" mask="url(#Clip2589)" />
    <path d="M 70.66114285714286 10.277999999999999  C 72.21885714285712 9.213999999999999  73.26628571428573 7.898000000000003  73.81685714285717 6.302  C 75.07914285714286 7.646  76.11314285714283 8.920000000000002  76.89199999999998 10.124000000000002  L 77.61714285714287 9.354  C 76.66371428571426 8.024000000000001  75.49542857142859 6.666  74.09885714285716 5.2940000000000005  C 74.20628571428568 4.832000000000001  74.28685714285712 4.327999999999999  74.35399999999997 3.795999999999999  L 78.19457142857142 3.795999999999999  L 78.19457142857142 11.607999999999997  C 78.19457142857142 12.055999999999997  77.9797142857143 12.293999999999997  77.55000000000001 12.293999999999997  L 75.49542857142859 12.238  L 75.76400000000001 13.246000000000002  L 77.8722857142857 13.246000000000002  C 78.73171428571428 13.246000000000002  79.17485714285712 12.770000000000003  79.17485714285712 11.832  L 79.17485714285712 2.815999999999999  L 74.46142857142857 2.815999999999999  C 74.51514285714283 2.1159999999999997  74.55542857142858 1.346  74.55542857142858 0.5199999999999996  L 73.57514285714288 0.5199999999999996  C 73.57514285714288 1.3320000000000007  73.53485714285713 2.1020000000000003  73.46771428571428 2.815999999999999  L 68 2.815999999999999  L 68 13.386000000000003  L 69.53314285714288 13.386000000000003  L 69.53314285714288 3.795999999999999  L 73.36028571428574 3.795999999999999  C 73.26628571428573 4.440000000000001  73.14542857142855 5.027999999999999  72.99771428571428 5.574000000000002  C 72.51428571428573 7.128  71.52057142857146 8.415999999999997  70.01657142857141 9.451999999999998  L 70.66114285714286 10.277999999999999  Z " stroke-width="0" stroke-dasharray="0" stroke="rgba(255, 255, 255, 0)" fill="none" transform="matrix(1 0 0 1 331 25 )" class="stroke" mask="url(#Clip2589)" />
    <path d="M 87.90342857142858 1.7379999999999995  C 87.7557142857143 1.2759999999999998  87.60800000000002 0.8560000000000016  87.44685714285716 0.4920000000000009  L 86.41285714285712 0.6739999999999995  C 86.57399999999998 0.9959999999999987  86.73514285714285 1.346  86.89628571428571 1.7379999999999995  L 81.79342857142856 1.7379999999999995  L 81.79342857142856 4.300000000000001  L 82.73342857142859 4.300000000000001  L 82.73342857142859 2.6759999999999984  L 91.83799999999998 2.6759999999999984  L 91.83799999999998 4.23  L 92.778 4.23  L 92.778 1.7379999999999995  L 87.90342857142858 1.7379999999999995  Z " stroke-width="0" stroke-dasharray="0" stroke="rgba(255, 255, 255, 0)" fill="none" transform="matrix(1 0 0 1 331 25 )" class="stroke" mask="url(#Clip2589)" />
    <path d="M 87.67514285714287 4.972000000000001  L 86.93657142857145 4.972000000000001  C 85.59371428571427 6.5120000000000005  83.70028571428571 7.744  81.24285714285713 8.695999999999998  L 81.75314285714289 9.521999999999998  C 82.31714285714285 9.298000000000002  82.8677142857143 9.060000000000002  83.41828571428573 8.780000000000001  L 83.41828571428573 13.414000000000001  L 84.3582857142857 13.414000000000001  L 84.3582857142857 12.826  L 90.36085714285716 12.826  L 90.36085714285716 13.414000000000001  L 91.28742857142859 13.414000000000001  L 91.28742857142859 8.835999999999999  C 91.74400000000001 9.060000000000002  92.24085714285714 9.283999999999999  92.778 9.508000000000003  L 93.30171428571427 8.682000000000002  C 90.64285714285714 7.618000000000002  88.76285714285716 6.385999999999999  87.67514285714287 4.972000000000001  Z " stroke-width="0" stroke-dasharray="0" stroke="rgba(255, 255, 255, 0)" fill="none" transform="matrix(1 0 0 1 331 25 )" class="stroke" mask="url(#Clip2589)" />
    <path d="M 90.36085714285716 11.902000000000001  L 84.3582857142857 11.902000000000001  L 84.3582857142857 9.661999999999999  L 90.36085714285716 9.661999999999999  L 90.36085714285716 11.902000000000001  Z " stroke-width="0" stroke-dasharray="0" stroke="rgba(255, 255, 255, 0)" fill="none" transform="matrix(1 0 0 1 331 25 )" class="stroke" mask="url(#Clip2589)" />
    <path d="M 91.13971428571426 8.765999999999998  L 83.44514285714284 8.765999999999998  C 84.9357142857143 7.996000000000002  86.22485714285715 7.030000000000001  87.29914285714287 5.853999999999999  C 88.21228571428573 6.9460000000000015  89.50142857142858 7.926000000000002  91.13971428571426 8.765999999999998  Z " stroke-width="0" stroke-dasharray="0" stroke="rgba(255, 255, 255, 0)" fill="none" transform="matrix(1 0 0 1 331 25 )" class="stroke" mask="url(#Clip2589)" />
    <path d="M 92.93914285714287 5.8679999999999986  C 91.83799999999998 5  90.4682857142857 4.1320000000000014  88.85685714285712 3.2639999999999993  L 88.2391428571429 3.8939999999999984  C 89.94457142857142 4.832000000000001  91.28742857142859 5.713999999999999  92.2677142857143 6.5539999999999985  L 92.93914285714287 5.8679999999999986  Z " stroke-width="0" stroke-dasharray="0" stroke="rgba(255, 255, 255, 0)" fill="none" transform="matrix(1 0 0 1 331 25 )" class="stroke" mask="url(#Clip2589)" />
    <path d="M 86.31885714285715 3.8520000000000008  L 85.6742857142857 3.25  C 84.54628571428572 4.23  83.17657142857144 5.07  81.53828571428569 5.797999999999998  L 82.11571428571429 6.582000000000001  C 83.78085714285714 5.797999999999998  85.17742857142859 4.888000000000002  86.31885714285715 3.8520000000000008  Z " stroke-width="0" stroke-dasharray="0" stroke="rgba(255, 255, 255, 0)" fill="none" transform="matrix(1 0 0 1 331 25 )" class="stroke" mask="url(#Clip2589)" />
  </g>
</svg>