<?xml version="1.0" encoding="utf-8"?>
<svg version="1.1" xmlns:xlink="http://www.w3.org/1999/xlink" width="15px" height="16px" xmlns="http://www.w3.org/2000/svg">
  <defs>
    <pattern id="BGPattern" patternUnits="userSpaceOnUse" alignment="0 0" imageRepeat="None" />
    <mask fill="white" id="Clip2588">
      <path d="M 13.679062500000008 15.474800000000002  L 9.547500000000024 11.067999999999998  C 8.59031250000001 11.8951  7.370625000000022 12.390500000000003  6.042187499999994 12.390500000000003  C 2.964374999999979 12.390500000000003  0.46875 9.728700000000003  0.46875 6.4453  C 0.46875 3.1617999999999995  2.964374999999979 0.5  6.042187499999994 0.5  C 9.120937499999986 0.5  11.616562500000018 3.1617999999999995  11.616562500000018 6.4453  C 11.616562500000018 7.861899999999999  11.151562499999983 9.162799999999997  10.376249999999985 10.1841  L 14.507812500000021 14.590899999999998  L 13.679062500000008 15.474800000000002  Z M 6.042187499999994 11.140500000000003  C 8.47312500000001 11.140500000000003  10.444687500000018 9.038400000000003  10.444687500000018 6.4453  C 10.444687500000018 3.8521  8.47312500000001 1.75  6.042187499999994 1.75  C 3.611249999999977 1.75  1.640625 3.8521  1.640625 6.4453  C 1.640625 9.038400000000003  3.611249999999977 11.140500000000003  6.042187499999994 11.140500000000003  Z " fill-rule="evenodd" />
    </mask>
  </defs>
  <g transform="matrix(1 0 0 1 -299 -24 )">
    <path d="M 13.679062500000008 15.474800000000002  L 9.547500000000024 11.067999999999998  C 8.59031250000001 11.8951  7.370625000000022 12.390500000000003  6.042187499999994 12.390500000000003  C 2.964374999999979 12.390500000000003  0.46875 9.728700000000003  0.46875 6.4453  C 0.46875 3.1617999999999995  2.964374999999979 0.5  6.042187499999994 0.5  C 9.120937499999986 0.5  11.616562500000018 3.1617999999999995  11.616562500000018 6.4453  C 11.616562500000018 7.861899999999999  11.151562499999983 9.162799999999997  10.376249999999985 10.1841  L 14.507812500000021 14.590899999999998  L 13.679062500000008 15.474800000000002  Z M 6.042187499999994 11.140500000000003  C 8.47312500000001 11.140500000000003  10.444687500000018 9.038400000000003  10.444687500000018 6.4453  C 10.444687500000018 3.8521  8.47312500000001 1.75  6.042187499999994 1.75  C 3.611249999999977 1.75  1.640625 3.8521  1.640625 6.4453  C 1.640625 9.038400000000003  3.611249999999977 11.140500000000003  6.042187499999994 11.140500000000003  Z " fill-rule="nonzero" fill="rgba(0, 0, 0, 1)" stroke="none" transform="matrix(1 0 0 1 299 24 )" class="fill" />
    <path d="M 13.679062500000008 15.474800000000002  L 9.547500000000024 11.067999999999998  C 8.59031250000001 11.8951  7.370625000000022 12.390500000000003  6.042187499999994 12.390500000000003  C 2.964374999999979 12.390500000000003  0.46875 9.728700000000003  0.46875 6.4453  C 0.46875 3.1617999999999995  2.964374999999979 0.5  6.042187499999994 0.5  C 9.120937499999986 0.5  11.616562500000018 3.1617999999999995  11.616562500000018 6.4453  C 11.616562500000018 7.861899999999999  11.151562499999983 9.162799999999997  10.376249999999985 10.1841  L 14.507812500000021 14.590899999999998  L 13.679062500000008 15.474800000000002  Z " stroke-width="0" stroke-dasharray="0" stroke="rgba(255, 255, 255, 0)" fill="none" transform="matrix(1 0 0 1 299 24 )" class="stroke" mask="url(#Clip2588)" />
    <path d="M 6.042187499999994 11.140500000000003  C 8.47312500000001 11.140500000000003  10.444687500000018 9.038400000000003  10.444687500000018 6.4453  C 10.444687500000018 3.8521  8.47312500000001 1.75  6.042187499999994 1.75  C 3.611249999999977 1.75  1.640625 3.8521  1.640625 6.4453  C 1.640625 9.038400000000003  3.611249999999977 11.140500000000003  6.042187499999994 11.140500000000003  Z " stroke-width="0" stroke-dasharray="0" stroke="rgba(255, 255, 255, 0)" fill="none" transform="matrix(1 0 0 1 299 24 )" class="stroke" mask="url(#Clip2588)" />
  </g>
</svg>