<?xml version="1.0" encoding="utf-8"?>
<svg version="1.1" xmlns:xlink="http://www.w3.org/1999/xlink" width="15px" height="8px" xmlns="http://www.w3.org/2000/svg">
  <defs>
    <pattern id="BGPattern" patternUnits="userSpaceOnUse" alignment="0 0" imageRepeat="None" />
    <mask fill="white" id="Clip2593">
      <path d="M 0.46875 6.25  L 0.46875 1.875  C 0.46875 1.1850000000000023  0.9933749999999997 0.625  1.640625 0.625  L 13.359375 0.625  C 14.006624999999996 0.625  14.53125 1.1850000000000023  14.53125 1.875  L 14.53125 6.25  C 14.53125 6.939999999999998  14.006624999999996 7.5  13.359375 7.5  L 1.640625 7.5  C 0.9933749999999997 7.5  0.46875 6.939999999999998  0.46875 6.25  Z M 13.359375 6.25  L 13.359375 2  L 1.640625 2  L 1.640625 6.25  L 13.359375 6.25  Z " fill-rule="evenodd" />
    </mask>
  </defs>
  <g transform="matrix(1 0 0 1 -25 -302 )">
    <path d="M 0.46875 6.25  L 0.46875 1.875  C 0.46875 1.1850000000000023  0.9933749999999997 0.625  1.640625 0.625  L 13.359375 0.625  C 14.006624999999996 0.625  14.53125 1.1850000000000023  14.53125 1.875  L 14.53125 6.25  C 14.53125 6.939999999999998  14.006624999999996 7.5  13.359375 7.5  L 1.640625 7.5  C 0.9933749999999997 7.5  0.46875 6.939999999999998  0.46875 6.25  Z M 13.359375 6.25  L 13.359375 2  L 1.640625 2  L 1.640625 6.25  L 13.359375 6.25  Z " fill-rule="nonzero" fill="rgba(255, 255, 255, 0.5490196078431373)" stroke="none" transform="matrix(1 0 0 1 25 302 )" class="fill" />
    <path d="M 0.46875 6.25  L 0.46875 1.875  C 0.46875 1.1850000000000023  0.9933749999999997 0.625  1.640625 0.625  L 13.359375 0.625  C 14.006624999999996 0.625  14.53125 1.1850000000000023  14.53125 1.875  L 14.53125 6.25  C 14.53125 6.939999999999998  14.006624999999996 7.5  13.359375 7.5  L 1.640625 7.5  C 0.9933749999999997 7.5  0.46875 6.939999999999998  0.46875 6.25  Z " stroke-width="0" stroke-dasharray="0" stroke="rgba(255, 255, 255, 0)" fill="none" transform="matrix(1 0 0 1 25 302 )" class="stroke" mask="url(#Clip2593)" />
    <path d="M 13.359375 6.25  L 13.359375 2  L 1.640625 2  L 1.640625 6.25  L 13.359375 6.25  Z " stroke-width="0" stroke-dasharray="0" stroke="rgba(255, 255, 255, 0)" fill="none" transform="matrix(1 0 0 1 25 302 )" class="stroke" mask="url(#Clip2593)" />
  </g>
</svg>