<?xml version="1.0" encoding="utf-8"?>
<svg version="1.1" xmlns:xlink="http://www.w3.org/1999/xlink" width="15px" height="8px" xmlns="http://www.w3.org/2000/svg">
  <defs>
    <pattern id="BGPattern" patternUnits="userSpaceOnUse" alignment="0 0" imageRepeat="None" />
    <mask fill="white" id="Clip2591">
      <path d="M 0.46875 6.125  L 0.46875 1.75  C 0.46875 1.0600000000000023  0.9933749999999997 0.5  1.640625 0.5  L 13.359375 0.5  C 14.006624999999996 0.5  14.53125 1.0600000000000023  14.53125 1.75  L 14.53125 6.125  C 14.53125 6.814999999999998  14.006624999999996 7.375  13.359375 7.375  L 1.640625 7.375  C 0.9933749999999997 7.375  0.46875 6.814999999999998  0.46875 6.125  Z M 13.359375 1.75  L 1.640625 1.75  L 1.640625 6  L 13.359375 6  L 13.359375 1.75  Z " fill-rule="evenodd" />
    </mask>
  </defs>
  <g transform="matrix(1 0 0 1 -25 -294 )">
    <path d="M 0.46875 6.125  L 0.46875 1.75  C 0.46875 1.0600000000000023  0.9933749999999997 0.5  1.640625 0.5  L 13.359375 0.5  C 14.006624999999996 0.5  14.53125 1.0600000000000023  14.53125 1.75  L 14.53125 6.125  C 14.53125 6.814999999999998  14.006624999999996 7.375  13.359375 7.375  L 1.640625 7.375  C 0.9933749999999997 7.375  0.46875 6.814999999999998  0.46875 6.125  Z M 13.359375 1.75  L 1.640625 1.75  L 1.640625 6  L 13.359375 6  L 13.359375 1.75  Z " fill-rule="nonzero" fill="rgba(255, 255, 255, 0.5490196078431373)" stroke="none" transform="matrix(1 0 0 1 25 294 )" class="fill" />
    <path d="M 0.46875 6.125  L 0.46875 1.75  C 0.46875 1.0600000000000023  0.9933749999999997 0.5  1.640625 0.5  L 13.359375 0.5  C 14.006624999999996 0.5  14.53125 1.0600000000000023  14.53125 1.75  L 14.53125 6.125  C 14.53125 6.814999999999998  14.006624999999996 7.375  13.359375 7.375  L 1.640625 7.375  C 0.9933749999999997 7.375  0.46875 6.814999999999998  0.46875 6.125  Z " stroke-width="0" stroke-dasharray="0" stroke="rgba(255, 255, 255, 0)" fill="none" transform="matrix(1 0 0 1 25 294 )" class="stroke" mask="url(#Clip2591)" />
    <path d="M 13.359375 1.75  L 1.640625 1.75  L 1.640625 6  L 13.359375 6  L 13.359375 1.75  Z " stroke-width="0" stroke-dasharray="0" stroke="rgba(255, 255, 255, 0)" fill="none" transform="matrix(1 0 0 1 25 294 )" class="stroke" mask="url(#Clip2591)" />
  </g>
</svg>