<?xml version="1.0" encoding="utf-8"?>
<svg version="1.1" xmlns:xlink="http://www.w3.org/1999/xlink" width="12px" height="13px" xmlns="http://www.w3.org/2000/svg">
  <defs>
    <pattern id="BGPattern" patternUnits="userSpaceOnUse" alignment="0 0" imageRepeat="None" />
    <mask fill="white" id="Clip2595">
      <path d="M 10.511076923076923 1.6050000000000182  C 9.68556923076923 0.7110000000000127  8.3472 0.7110000000000127  7.521692307692306 1.6050000000000182  L 1.8102461538461525 7.793000000000006  C 1.7371384615384629 7.872000000000013  1.6850769230769245 7.971000000000003  1.6593230769230762 8.079000000000008  L 0.9086769230769238 11.247000000000014  C 0.8580000000000008 11.461000000000013  0.9153230769230752 11.687999999999988  1.0595999999999999 11.843999999999994  C 1.203784615384614 12.000999999999976  1.413415384615383 12.062999999999988  1.6109538461538464 12.007999999999981  L 4.53507692307692 11.194999999999993  C 4.635138461538461 11.166999999999973  4.7265230769230735 11.110000000000014  4.799538461538462 11.031000000000006  L 10.511076923076923 4.843999999999994  C 11.336584615384616 3.9490000000000127  11.336584615384616 2.5  10.511076923076923 1.6050000000000182  Z M 4.0953230769230755 10.02600000000001  L 2.268830769230771 10.533999999999992  L 2.737753846153844 8.555999999999983  L 8.337600000000002 2.488999999999976  C 8.712553846153847 2.083000000000027  9.320307692307694 2.083000000000027  9.695169230769233 2.488999999999976  C 10.070123076923078 2.894999999999982  10.070123076923078 3.5539999999999736  9.695169230769233 3.95999999999998  L 4.0953230769230755 10.02600000000001  Z " fill-rule="evenodd" />
    </mask>
  </defs>
  <g transform="matrix(1 0 0 1 -29 -337 )">
    <path d="M 10.511076923076923 1.6050000000000182  C 9.68556923076923 0.7110000000000127  8.3472 0.7110000000000127  7.521692307692306 1.6050000000000182  L 1.8102461538461525 7.793000000000006  C 1.7371384615384629 7.872000000000013  1.6850769230769245 7.971000000000003  1.6593230769230762 8.079000000000008  L 0.9086769230769238 11.247000000000014  C 0.8580000000000008 11.461000000000013  0.9153230769230752 11.687999999999988  1.0595999999999999 11.843999999999994  C 1.203784615384614 12.000999999999976  1.413415384615383 12.062999999999988  1.6109538461538464 12.007999999999981  L 4.53507692307692 11.194999999999993  C 4.635138461538461 11.166999999999973  4.7265230769230735 11.110000000000014  4.799538461538462 11.031000000000006  L 10.511076923076923 4.843999999999994  C 11.336584615384616 3.9490000000000127  11.336584615384616 2.5  10.511076923076923 1.6050000000000182  Z M 4.0953230769230755 10.02600000000001  L 2.268830769230771 10.533999999999992  L 2.737753846153844 8.555999999999983  L 8.337600000000002 2.488999999999976  C 8.712553846153847 2.083000000000027  9.320307692307694 2.083000000000027  9.695169230769233 2.488999999999976  C 10.070123076923078 2.894999999999982  10.070123076923078 3.5539999999999736  9.695169230769233 3.95999999999998  L 4.0953230769230755 10.02600000000001  Z " fill-rule="nonzero" fill="rgba(255, 255, 255, 0.5490196078431373)" stroke="none" transform="matrix(1 0 0 1 29 337 )" class="fill" />
    <path d="M 10.511076923076923 1.6050000000000182  C 9.68556923076923 0.7110000000000127  8.3472 0.7110000000000127  7.521692307692306 1.6050000000000182  L 1.8102461538461525 7.793000000000006  C 1.7371384615384629 7.872000000000013  1.6850769230769245 7.971000000000003  1.6593230769230762 8.079000000000008  L 0.9086769230769238 11.247000000000014  C 0.8580000000000008 11.461000000000013  0.9153230769230752 11.687999999999988  1.0595999999999999 11.843999999999994  C 1.203784615384614 12.000999999999976  1.413415384615383 12.062999999999988  1.6109538461538464 12.007999999999981  L 4.53507692307692 11.194999999999993  C 4.635138461538461 11.166999999999973  4.7265230769230735 11.110000000000014  4.799538461538462 11.031000000000006  L 10.511076923076923 4.843999999999994  C 11.336584615384616 3.9490000000000127  11.336584615384616 2.5  10.511076923076923 1.6050000000000182  Z " stroke-width="0" stroke-dasharray="0" stroke="rgba(255, 255, 255, 0)" fill="none" transform="matrix(1 0 0 1 29 337 )" class="stroke" mask="url(#Clip2595)" />
    <path d="M 4.0953230769230755 10.02600000000001  L 2.268830769230771 10.533999999999992  L 2.737753846153844 8.555999999999983  L 8.337600000000002 2.488999999999976  C 8.712553846153847 2.083000000000027  9.320307692307694 2.083000000000027  9.695169230769233 2.488999999999976  C 10.070123076923078 2.894999999999982  10.070123076923078 3.5539999999999736  9.695169230769233 3.95999999999998  L 4.0953230769230755 10.02600000000001  Z " stroke-width="0" stroke-dasharray="0" stroke="rgba(255, 255, 255, 0)" fill="none" transform="matrix(1 0 0 1 29 337 )" class="stroke" mask="url(#Clip2595)" />
  </g>
</svg>