<?xml version="1.0" encoding="utf-8"?>
<svg version="1.1" xmlns:xlink="http://www.w3.org/1999/xlink" width="15px" height="14px" xmlns="http://www.w3.org/2000/svg">
  <defs>
    <pattern id="BGPattern" patternUnits="userSpaceOnUse" alignment="0 0" imageRepeat="None" />
    <mask fill="white" id="Clip2596">
      <path d="M 1.640625 12.625  L 1.640625 1.375  L 7.5 1.375  L 7.5 0.125  L 1.640625 0.125  C 0.9933749999999997 0.125  0.46875 0.6850000000000023  0.46875 1.375  L 0.46875 12.625  C 0.46875 13.315999999999974  0.9933749999999997 13.875  1.640625 13.875  L 13.359375 13.875  C 14.006624999999996 13.875  14.53125 13.315999999999974  14.53125 12.625  L 14.53125 6.375  L 13.359375 6.375  L 13.359375 12.625  L 1.640625 12.625  Z " fill-rule="evenodd" />
    </mask>
  </defs>
  <g transform="matrix(1 0 0 1 -25 -339 )">
    <path d="M 1.640625 12.625  L 1.640625 1.375  L 7.5 1.375  L 7.5 0.125  L 1.640625 0.125  C 0.9933749999999997 0.125  0.46875 0.6850000000000023  0.46875 1.375  L 0.46875 12.625  C 0.46875 13.315999999999974  0.9933749999999997 13.875  1.640625 13.875  L 13.359375 13.875  C 14.006624999999996 13.875  14.53125 13.315999999999974  14.53125 12.625  L 14.53125 6.375  L 13.359375 6.375  L 13.359375 12.625  L 1.640625 12.625  Z " fill-rule="nonzero" fill="rgba(255, 255, 255, 0.5490196078431373)" stroke="none" transform="matrix(1 0 0 1 25 339 )" class="fill" />
    <path d="M 1.640625 12.625  L 1.640625 1.375  L 7.5 1.375  L 7.5 0.125  L 1.640625 0.125  C 0.9933749999999997 0.125  0.46875 0.6850000000000023  0.46875 1.375  L 0.46875 12.625  C 0.46875 13.315999999999974  0.9933749999999997 13.875  1.640625 13.875  L 13.359375 13.875  C 14.006624999999996 13.875  14.53125 13.315999999999974  14.53125 12.625  L 14.53125 6.375  L 13.359375 6.375  L 13.359375 12.625  L 1.640625 12.625  Z " stroke-width="0" stroke-dasharray="0" stroke="rgba(255, 255, 255, 0)" fill="none" transform="matrix(1 0 0 1 25 339 )" class="stroke" mask="url(#Clip2596)" />
  </g>
</svg>