<?xml version="1.0" encoding="utf-8"?>
<svg version="1.1" xmlns:xlink="http://www.w3.org/1999/xlink" width="15px" height="16px" xmlns="http://www.w3.org/2000/svg">
  <defs>
    <pattern id="BGPattern" patternUnits="userSpaceOnUse" alignment="0 0" imageRepeat="None" />
    <mask fill="white" id="Clip2600">
      <path d="M 0.46875 14.25  L 0.46875 1.75  C 0.46875 1.0600000000000023  0.9933749999999997 0.5  1.640625 0.5  L 13.359375 0.5  C 14.006624999999996 0.5  14.53125 1.0600000000000023  14.53125 1.75  L 14.53125 14.25  C 14.53125 14.939999999999998  14.006624999999996 15.5  13.359375 15.5  L 1.640625 15.5  C 0.9933749999999997 15.5  0.46875 14.939999999999998  0.46875 14.25  Z M 13.359375 2  L 1.640625 2  L 1.640625 14  L 13.359375 14  L 13.359375 2  Z " fill-rule="evenodd" />
    </mask>
  </defs>
  <g transform="matrix(1 0 0 1 -25 -382 )">
    <path d="M 0.46875 14.25  L 0.46875 1.75  C 0.46875 1.0600000000000023  0.9933749999999997 0.5  1.640625 0.5  L 13.359375 0.5  C 14.006624999999996 0.5  14.53125 1.0600000000000023  14.53125 1.75  L 14.53125 14.25  C 14.53125 14.939999999999998  14.006624999999996 15.5  13.359375 15.5  L 1.640625 15.5  C 0.9933749999999997 15.5  0.46875 14.939999999999998  0.46875 14.25  Z M 13.359375 2  L 1.640625 2  L 1.640625 14  L 13.359375 14  L 13.359375 2  Z " fill-rule="nonzero" fill="rgba(255, 255, 255, 0.5490196078431373)" stroke="none" transform="matrix(1 0 0 1 25 382 )" class="fill" />
    <path d="M 0.46875 14.25  L 0.46875 1.75  C 0.46875 1.0600000000000023  0.9933749999999997 0.5  1.640625 0.5  L 13.359375 0.5  C 14.006624999999996 0.5  14.53125 1.0600000000000023  14.53125 1.75  L 14.53125 14.25  C 14.53125 14.939999999999998  14.006624999999996 15.5  13.359375 15.5  L 1.640625 15.5  C 0.9933749999999997 15.5  0.46875 14.939999999999998  0.46875 14.25  Z " stroke-width="0" stroke-dasharray="0" stroke="rgba(255, 255, 255, 0)" fill="none" transform="matrix(1 0 0 1 25 382 )" class="stroke" mask="url(#Clip2600)" />
    <path d="M 13.359375 2  L 1.640625 2  L 1.640625 14  L 13.359375 14  L 13.359375 2  Z " stroke-width="0" stroke-dasharray="0" stroke="rgba(255, 255, 255, 0)" fill="none" transform="matrix(1 0 0 1 25 382 )" class="stroke" mask="url(#Clip2600)" />
  </g>
</svg>