<?xml version="1.0" encoding="utf-8"?>
<svg version="1.1" xmlns:xlink="http://www.w3.org/1999/xlink" width="17px" height="18px" xmlns="http://www.w3.org/2000/svg">
  <defs>
    <pattern id="BGPattern" patternUnits="userSpaceOnUse" alignment="0 0" imageRepeat="None" />
    <mask fill="white" id="Clip2602">
      <path d="M 0.8652055555555557 5.651999999999987  C 1.4906166666666656 4.052999999999997  2.5498111111111106 2.6859999999999786  3.9088666666666665 1.7250000000000227  C 5.267827777777778 0.7629999999999768  6.865544444444442 0.25  8.5 0.25  C 10.691677777777777 0.25  12.793633333333332 1.1720000000000255  14.343466666666664 2.812999999999988  C 15.893205555555554 4.454000000000008  16.76388888888889 6.678999999999974  16.76388888888889 9  C 16.76388888888889 10.730999999999995  16.279200000000003 12.422000000000025  15.371211111111108 13.86099999999999  C 14.463127777777775 15.300000000000011  13.17245 16.422000000000025  11.662472222222224 17.084000000000003  C 10.152400000000002 17.74599999999998  8.490838888888886 17.918999999999983  6.887833333333332 17.581999999999994  C 5.284733333333334 17.244000000000028  3.81225 16.411  2.656533333333333 15.187000000000012  C 1.5008166666666651 13.963000000000022  0.7138111111111118 12.403999999999996  0.3948722222222213 10.706999999999994  C 0.07602777777777843 9.009999999999991  0.23969999999999833 7.25  0.8652055555555557 5.651999999999987  Z M 1.9558500000000016 11.870000000000005  C 2.4920111111111116 13.240999999999985  3.399905555555557 14.411999999999978  4.564688888888891 15.23599999999999  C 5.729566666666668 16.060000000000002  7.099011111111109 16.5  8.5 16.5  C 10.378594444444445 16.5  12.180311111111111 15.70999999999998  13.508672222222224 14.302999999999997  C 14.837033333333334 12.896999999999991  15.583333333333332 10.988999999999976  15.583333333333332 9  C 15.583333333333332 7.516999999999996  15.167872222222222 6.067000000000007  14.389555555555553 4.833000000000027  C 13.611238888888892 3.6000000000000227  12.505011111111113 2.63900000000001  11.210650000000001 2.0710000000000264  C 9.91638333333333 1.502999999999986  8.492161111111113 1.3550000000000182  7.118088888888889 1.6440000000000055  C 5.744111111111112 1.9329999999999927  4.481955555555555 2.6480000000000246  3.4913277777777774 3.6970000000000027  C 2.5007 4.745999999999981  1.826083333333332 6.081999999999994  1.5527611111111128 7.536999999999978  C 1.27943888888889 8.992000000000019  1.4197833333333327 10.5  1.9558500000000016 11.870000000000005  Z " fill-rule="evenodd" />
    </mask>
  </defs>
  <g transform="matrix(1 0 0 1 -24 -425 )">
    <path d="M 0.8652055555555557 5.651999999999987  C 1.4906166666666656 4.052999999999997  2.5498111111111106 2.6859999999999786  3.9088666666666665 1.7250000000000227  C 5.267827777777778 0.7629999999999768  6.865544444444442 0.25  8.5 0.25  C 10.691677777777777 0.25  12.793633333333332 1.1720000000000255  14.343466666666664 2.812999999999988  C 15.893205555555554 4.454000000000008  16.76388888888889 6.678999999999974  16.76388888888889 9  C 16.76388888888889 10.730999999999995  16.279200000000003 12.422000000000025  15.371211111111108 13.86099999999999  C 14.463127777777775 15.300000000000011  13.17245 16.422000000000025  11.662472222222224 17.084000000000003  C 10.152400000000002 17.74599999999998  8.490838888888886 17.918999999999983  6.887833333333332 17.581999999999994  C 5.284733333333334 17.244000000000028  3.81225 16.411  2.656533333333333 15.187000000000012  C 1.5008166666666651 13.963000000000022  0.7138111111111118 12.403999999999996  0.3948722222222213 10.706999999999994  C 0.07602777777777843 9.009999999999991  0.23969999999999833 7.25  0.8652055555555557 5.651999999999987  Z M 1.9558500000000016 11.870000000000005  C 2.4920111111111116 13.240999999999985  3.399905555555557 14.411999999999978  4.564688888888891 15.23599999999999  C 5.729566666666668 16.060000000000002  7.099011111111109 16.5  8.5 16.5  C 10.378594444444445 16.5  12.180311111111111 15.70999999999998  13.508672222222224 14.302999999999997  C 14.837033333333334 12.896999999999991  15.583333333333332 10.988999999999976  15.583333333333332 9  C 15.583333333333332 7.516999999999996  15.167872222222222 6.067000000000007  14.389555555555553 4.833000000000027  C 13.611238888888892 3.6000000000000227  12.505011111111113 2.63900000000001  11.210650000000001 2.0710000000000264  C 9.91638333333333 1.502999999999986  8.492161111111113 1.3550000000000182  7.118088888888889 1.6440000000000055  C 5.744111111111112 1.9329999999999927  4.481955555555555 2.6480000000000246  3.4913277777777774 3.6970000000000027  C 2.5007 4.745999999999981  1.826083333333332 6.081999999999994  1.5527611111111128 7.536999999999978  C 1.27943888888889 8.992000000000019  1.4197833333333327 10.5  1.9558500000000016 11.870000000000005  Z " fill-rule="nonzero" fill="rgba(255, 255, 255, 0.5490196078431373)" stroke="none" transform="matrix(1 0 0 1 24 425 )" class="fill" />
    <path d="M 0.8652055555555557 5.651999999999987  C 1.4906166666666656 4.052999999999997  2.5498111111111106 2.6859999999999786  3.9088666666666665 1.7250000000000227  C 5.267827777777778 0.7629999999999768  6.865544444444442 0.25  8.5 0.25  C 10.691677777777777 0.25  12.793633333333332 1.1720000000000255  14.343466666666664 2.812999999999988  C 15.893205555555554 4.454000000000008  16.76388888888889 6.678999999999974  16.76388888888889 9  C 16.76388888888889 10.730999999999995  16.279200000000003 12.422000000000025  15.371211111111108 13.86099999999999  C 14.463127777777775 15.300000000000011  13.17245 16.422000000000025  11.662472222222224 17.084000000000003  C 10.152400000000002 17.74599999999998  8.490838888888886 17.918999999999983  6.887833333333332 17.581999999999994  C 5.284733333333334 17.244000000000028  3.81225 16.411  2.656533333333333 15.187000000000012  C 1.5008166666666651 13.963000000000022  0.7138111111111118 12.403999999999996  0.3948722222222213 10.706999999999994  C 0.07602777777777843 9.009999999999991  0.23969999999999833 7.25  0.8652055555555557 5.651999999999987  Z " stroke-width="0" stroke-dasharray="0" stroke="rgba(255, 255, 255, 0)" fill="none" transform="matrix(1 0 0 1 24 425 )" class="stroke" mask="url(#Clip2602)" />
    <path d="M 1.9558500000000016 11.870000000000005  C 2.4920111111111116 13.240999999999985  3.399905555555557 14.411999999999978  4.564688888888891 15.23599999999999  C 5.729566666666668 16.060000000000002  7.099011111111109 16.5  8.5 16.5  C 10.378594444444445 16.5  12.180311111111111 15.70999999999998  13.508672222222224 14.302999999999997  C 14.837033333333334 12.896999999999991  15.583333333333332 10.988999999999976  15.583333333333332 9  C 15.583333333333332 7.516999999999996  15.167872222222222 6.067000000000007  14.389555555555553 4.833000000000027  C 13.611238888888892 3.6000000000000227  12.505011111111113 2.63900000000001  11.210650000000001 2.0710000000000264  C 9.91638333333333 1.502999999999986  8.492161111111113 1.3550000000000182  7.118088888888889 1.6440000000000055  C 5.744111111111112 1.9329999999999927  4.481955555555555 2.6480000000000246  3.4913277777777774 3.6970000000000027  C 2.5007 4.745999999999981  1.826083333333332 6.081999999999994  1.5527611111111128 7.536999999999978  C 1.27943888888889 8.992000000000019  1.4197833333333327 10.5  1.9558500000000016 11.870000000000005  Z " stroke-width="0" stroke-dasharray="0" stroke="rgba(255, 255, 255, 0)" fill="none" transform="matrix(1 0 0 1 24 425 )" class="stroke" mask="url(#Clip2602)" />
  </g>
</svg>