<?xml version="1.0" encoding="utf-8"?>
<svg version="1.1" xmlns:xlink="http://www.w3.org/1999/xlink" width="10px" height="8px" xmlns="http://www.w3.org/2000/svg">
  <defs>
    <pattern id="BGPattern" patternUnits="userSpaceOnUse" alignment="0 0" imageRepeat="None" />
    <mask fill="white" id="Clip2601">
      <path d="M 1.5080999999999989 3.375  L 0.625 4.257999999999981  L 3.75 7.3840000000000146  L 9.375 1.7590000000000146  L 8.4906 0.875  L 3.75 5.6159999999999854  L 1.5080999999999989 3.375  Z " fill-rule="evenodd" />
    </mask>
  </defs>
  <g transform="matrix(1 0 0 1 -28 -430 )">
    <path d="M 1.5080999999999989 3.375  L 0.625 4.257999999999981  L 3.75 7.3840000000000146  L 9.375 1.7590000000000146  L 8.4906 0.875  L 3.75 5.6159999999999854  L 1.5080999999999989 3.375  Z " fill-rule="nonzero" fill="rgba(255, 255, 255, 0.5490196078431373)" stroke="none" transform="matrix(1 0 0 1 28 430 )" class="fill" />
    <path d="M 1.5080999999999989 3.375  L 0.625 4.257999999999981  L 3.75 7.3840000000000146  L 9.375 1.7590000000000146  L 8.4906 0.875  L 3.75 5.6159999999999854  L 1.5080999999999989 3.375  Z " stroke-width="0" stroke-dasharray="0" stroke="rgba(255, 255, 255, 0)" fill="none" transform="matrix(1 0 0 1 28 430 )" class="stroke" mask="url(#Clip2601)" />
  </g>
</svg>