<?xml version="1.0" encoding="utf-8"?>
<svg version="1.1" xmlns:xlink="http://www.w3.org/1999/xlink" width="8px" height="6px" xmlns="http://www.w3.org/2000/svg">
  <defs>
    <pattern id="BGPattern" patternUnits="userSpaceOnUse" alignment="0 0" imageRepeat="None" />
    <mask fill="white" id="Clip2607">
      <path d="M 0.625 4.25  L 0.625 1.75  C 0.625 1.0600000000000023  1.1846000000000032 0.5  1.875 0.5  L 6.25 0.5  C 6.940399999999997 0.5  7.5 1.0600000000000023  7.5 1.75  L 7.5 4.25  C 7.5 4.939999999999998  6.940399999999997 5.5  6.25 5.5  L 1.875 5.5  C 1.1846000000000032 5.5  0.625 4.939999999999998  0.625 4.25  Z M 6.25 1.75  L 1.875 1.75  L 1.875 4.25  L 6.25 4.25  L 6.25 1.75  Z " fill-rule="evenodd" />
    </mask>
  </defs>
  <g transform="matrix(1 0 0 1 -33 -118 )">
    <path d="M 0.625 4.25  L 0.625 1.75  C 0.625 1.0600000000000023  1.1846000000000032 0.5  1.875 0.5  L 6.25 0.5  C 6.940399999999997 0.5  7.5 1.0600000000000023  7.5 1.75  L 7.5 4.25  C 7.5 4.939999999999998  6.940399999999997 5.5  6.25 5.5  L 1.875 5.5  C 1.1846000000000032 5.5  0.625 4.939999999999998  0.625 4.25  Z M 6.25 1.75  L 1.875 1.75  L 1.875 4.25  L 6.25 4.25  L 6.25 1.75  Z " fill-rule="nonzero" fill="rgba(255, 255, 255, 0.5490196078431373)" stroke="none" transform="matrix(1 0 0 1 33 118 )" class="fill" />
    <path d="M 0.625 4.25  L 0.625 1.75  C 0.625 1.0600000000000023  1.1846000000000032 0.5  1.875 0.5  L 6.25 0.5  C 6.940399999999997 0.5  7.5 1.0600000000000023  7.5 1.75  L 7.5 4.25  C 7.5 4.939999999999998  6.940399999999997 5.5  6.25 5.5  L 1.875 5.5  C 1.1846000000000032 5.5  0.625 4.939999999999998  0.625 4.25  Z " stroke-width="0" stroke-dasharray="0" stroke="rgba(255, 255, 255, 0)" fill="none" transform="matrix(1 0 0 1 33 118 )" class="stroke" mask="url(#Clip2607)" />
    <path d="M 6.25 1.75  L 1.875 1.75  L 1.875 4.25  L 6.25 4.25  L 6.25 1.75  Z " stroke-width="0" stroke-dasharray="0" stroke="rgba(255, 255, 255, 0)" fill="none" transform="matrix(1 0 0 1 33 118 )" class="stroke" mask="url(#Clip2607)" />
  </g>
</svg>