<?xml version="1.0" encoding="utf-8"?>
<svg version="1.1" xmlns:xlink="http://www.w3.org/1999/xlink" width="17px" height="18px" xmlns="http://www.w3.org/2000/svg">
  <defs>
    <pattern id="BGPattern" patternUnits="userSpaceOnUse" alignment="0 0" imageRepeat="None" />
    <mask fill="white" id="Clip2603">
      <path d="M 8.5 0.25  C 13.064027777777781 0.25  16.76388888888889 4.168000000000006  16.76388888888889 9  C 16.76388888888889 13.831999999999994  13.064027777777781 17.75  8.5 17.75  C 3.935972222222223 17.75  0.2361111111111111 13.831999999999994  0.2361111111111111 9  C 0.2361111111111111 4.168000000000006  3.935972222222223 0.25  8.5 0.25  Z M 8.5 16.5  C 12.411983333333334 16.5  15.583333333333332 13.142000000000053  15.583333333333332 9  C 15.583333333333332 4.857999999999947  12.411983333333334 1.5  8.5 1.5  C 4.588016666666667 1.5  1.4166666666666665 4.857999999999947  1.4166666666666665 9  C 1.4166666666666665 13.142000000000053  4.588016666666667 16.5  8.5 16.5  Z M 4.204761111111113 8.375  L 10.907294444444448 8.375  L 8.588211111111113 5.919999999999959  L 9.422911111111114 5.0359999999999445  L 12.749811111111113 8.558999999999969  C 12.980255555555557 8.802999999999997  12.980255555555557 9.197999999999979  12.749811111111113 9.442000000000007  L 9.425933333333337 12.961999999999989  L 8.591138888888887 12.077999999999975  L 10.907294444444448 9.625  L 4.204761111111113 9.625  L 4.204761111111113 8.375  Z " fill-rule="evenodd" />
    </mask>
  </defs>
  <g transform="matrix(1 0 0 1 -24 -513 )">
    <path d="M 8.5 0.25  C 13.064027777777781 0.25  16.76388888888889 4.168000000000006  16.76388888888889 9  C 16.76388888888889 13.831999999999994  13.064027777777781 17.75  8.5 17.75  C 3.935972222222223 17.75  0.2361111111111111 13.831999999999994  0.2361111111111111 9  C 0.2361111111111111 4.168000000000006  3.935972222222223 0.25  8.5 0.25  Z M 8.5 16.5  C 12.411983333333334 16.5  15.583333333333332 13.142000000000053  15.583333333333332 9  C 15.583333333333332 4.857999999999947  12.411983333333334 1.5  8.5 1.5  C 4.588016666666667 1.5  1.4166666666666665 4.857999999999947  1.4166666666666665 9  C 1.4166666666666665 13.142000000000053  4.588016666666667 16.5  8.5 16.5  Z M 4.204761111111113 8.375  L 10.907294444444448 8.375  L 8.588211111111113 5.919999999999959  L 9.422911111111114 5.0359999999999445  L 12.749811111111113 8.558999999999969  C 12.980255555555557 8.802999999999997  12.980255555555557 9.197999999999979  12.749811111111113 9.442000000000007  L 9.425933333333337 12.961999999999989  L 8.591138888888887 12.077999999999975  L 10.907294444444448 9.625  L 4.204761111111113 9.625  L 4.204761111111113 8.375  Z " fill-rule="nonzero" fill="rgba(255, 255, 255, 0.5490196078431373)" stroke="none" transform="matrix(1 0 0 1 24 513 )" class="fill" />
    <path d="M 8.5 0.25  C 13.064027777777781 0.25  16.76388888888889 4.168000000000006  16.76388888888889 9  C 16.76388888888889 13.831999999999994  13.064027777777781 17.75  8.5 17.75  C 3.935972222222223 17.75  0.2361111111111111 13.831999999999994  0.2361111111111111 9  C 0.2361111111111111 4.168000000000006  3.935972222222223 0.25  8.5 0.25  Z " stroke-width="0" stroke-dasharray="0" stroke="rgba(255, 255, 255, 0)" fill="none" transform="matrix(1 0 0 1 24 513 )" class="stroke" mask="url(#Clip2603)" />
    <path d="M 8.5 16.5  C 12.411983333333334 16.5  15.583333333333332 13.142000000000053  15.583333333333332 9  C 15.583333333333332 4.857999999999947  12.411983333333334 1.5  8.5 1.5  C 4.588016666666667 1.5  1.4166666666666665 4.857999999999947  1.4166666666666665 9  C 1.4166666666666665 13.142000000000053  4.588016666666667 16.5  8.5 16.5  Z " stroke-width="0" stroke-dasharray="0" stroke="rgba(255, 255, 255, 0)" fill="none" transform="matrix(1 0 0 1 24 513 )" class="stroke" mask="url(#Clip2603)" />
    <path d="M 4.204761111111113 8.375  L 10.907294444444448 8.375  L 8.588211111111113 5.919999999999959  L 9.422911111111114 5.0359999999999445  L 12.749811111111113 8.558999999999969  C 12.980255555555557 8.802999999999997  12.980255555555557 9.197999999999979  12.749811111111113 9.442000000000007  L 9.425933333333337 12.961999999999989  L 8.591138888888887 12.077999999999975  L 10.907294444444448 9.625  L 4.204761111111113 9.625  L 4.204761111111113 8.375  Z " stroke-width="0" stroke-dasharray="0" stroke="rgba(255, 255, 255, 0)" fill="none" transform="matrix(1 0 0 1 24 513 )" class="stroke" mask="url(#Clip2603)" />
  </g>
</svg>