<?xml version="1.0" encoding="utf-8"?>
<svg version="1.1" xmlns:xlink="http://www.w3.org/1999/xlink" width="10px" height="6px" xmlns="http://www.w3.org/2000/svg">
  <defs>
    <pattern id="BGPattern" patternUnits="userSpaceOnUse" alignment="0 0" imageRepeat="None" />
    <mask fill="white" id="Clip2608">
      <path d="M 5 0.08100000000000307  L 9.460000000000008 4.540000000000006  L 8.539999999999992 5.459000000000003  L 5 1.918999999999997  L 1.460000000000008 5.459000000000003  L 0.539999999999992 4.540000000000006  L 5 0.08100000000000307  Z " fill-rule="evenodd" />
    </mask>
  </defs>
  <g transform="matrix(1 0 0 1 -187 -123 )">
    <path d="M 5 0.08100000000000307  L 9.460000000000008 4.540000000000006  L 8.539999999999992 5.459000000000003  L 5 1.918999999999997  L 1.460000000000008 5.459000000000003  L 0.539999999999992 4.540000000000006  L 5 0.08100000000000307  Z " fill-rule="nonzero" fill="rgba(255, 255, 255, 0.34901960784313724)" stroke="none" transform="matrix(1 0 0 1 187 123 )" class="fill" />
    <path d="M 5 0.08100000000000307  L 9.460000000000008 4.540000000000006  L 8.539999999999992 5.459000000000003  L 5 1.918999999999997  L 1.460000000000008 5.459000000000003  L 0.539999999999992 4.540000000000006  L 5 0.08100000000000307  Z " stroke-width="0" stroke-dasharray="0" stroke="rgba(255, 255, 255, 0)" fill="none" transform="matrix(1 0 0 1 187 123 )" class="stroke" mask="url(#Clip2608)" />
  </g>
</svg>