<?xml version="1.0" encoding="utf-8"?>
<svg version="1.1" xmlns:xlink="http://www.w3.org/1999/xlink" width="17px" height="18px" xmlns="http://www.w3.org/2000/svg">
  <defs>
    <pattern id="BGPattern" patternUnits="userSpaceOnUse" alignment="0 0" imageRepeat="None" />
    <mask fill="white" id="Clip2611">
      <path d="M 0.2361111111111111 9  C 0.2361111111111111 4.168000000000006  3.935972222222223 0.25  8.5 0.25  C 13.064027777777781 0.25  16.76388888888889 4.168000000000006  16.76388888888889 9  C 16.76388888888889 13.379000000000019  13.725233333333335 17.006999999999948  9.758472222222224 17.649  C 9.348205555555555 17.716000000000008  8.927833333333336 17.75  8.5 17.75  C 6.310683333333332 17.75  4.320172222222223 16.849000000000046  2.8415500000000007 15.376999999999953  C 1.2377888888888897 13.780999999999949  0.2361111111111111 11.51400000000001  0.2361111111111111 9  Z M 3.8966833333333346 14.700000000000045  C 4.876544444444444 15.587999999999965  6.088172222222223 16.19799999999998  7.422200000000002 16.413999999999987  C 7.664638888888886 16.452999999999975  7.910383333333335 16.479000000000042  8.158583333333334 16.490999999999985  L 8.5 16.5  C 10.088177777777782 16.5  11.554333333333334 15.947000000000003  12.735738888888891 15.011999999999944  C 12.849922222222224 14.92100000000005  12.961649999999999 14.826999999999998  13.070922222222219 14.729000000000042  L 13.152616666666663 14.650999999999954  L 13.144022222222224 14.609000000000037  C 12.891383333333337 13.59699999999998  12.054133333333331 12.837999999999965  11.041500000000003 12.756999999999948  L 10.86111111111111 12.75  L 6.138888888888888 12.75  C 5.074594444444445 12.75  4.168683333333335 13.498000000000047  3.8775111111111102 14.506999999999948  L 3.8415277777777765 14.649000000000001  L 3.8966833333333346 14.700000000000045  Z M 10.86111111111111 11.5  C 12.27437777777778 11.5  13.494222222222218 12.375999999999976  14.062494444444441 13.644000000000005  C 15.014872222222222 12.366999999999962  15.583333333333332 10.754000000000019  15.583333333333332 9  C 15.583333333333332 4.857999999999947  12.411983333333334 1.5  8.5 1.5  C 4.588016666666667 1.5  1.4166666666666665 4.857999999999947  1.4166666666666665 9  C 1.4166666666666665 10.754000000000019  1.9851277777777783 12.366999999999962  2.9375055555555543 13.644000000000005  C 3.5057777777777774 12.375999999999976  4.7256222222222215 11.5  6.138888888888888 11.5  L 10.86111111111111 11.5  Z " fill-rule="evenodd" />
    </mask>
  </defs>
  <g transform="matrix(1 0 0 1 -24 -557 )">
    <path d="M 0.2361111111111111 9  C 0.2361111111111111 4.168000000000006  3.935972222222223 0.25  8.5 0.25  C 13.064027777777781 0.25  16.76388888888889 4.168000000000006  16.76388888888889 9  C 16.76388888888889 13.379000000000019  13.725233333333335 17.006999999999948  9.758472222222224 17.649  C 9.348205555555555 17.716000000000008  8.927833333333336 17.75  8.5 17.75  C 6.310683333333332 17.75  4.320172222222223 16.849000000000046  2.8415500000000007 15.376999999999953  C 1.2377888888888897 13.780999999999949  0.2361111111111111 11.51400000000001  0.2361111111111111 9  Z M 3.8966833333333346 14.700000000000045  C 4.876544444444444 15.587999999999965  6.088172222222223 16.19799999999998  7.422200000000002 16.413999999999987  C 7.664638888888886 16.452999999999975  7.910383333333335 16.479000000000042  8.158583333333334 16.490999999999985  L 8.5 16.5  C 10.088177777777782 16.5  11.554333333333334 15.947000000000003  12.735738888888891 15.011999999999944  C 12.849922222222224 14.92100000000005  12.961649999999999 14.826999999999998  13.070922222222219 14.729000000000042  L 13.152616666666663 14.650999999999954  L 13.144022222222224 14.609000000000037  C 12.891383333333337 13.59699999999998  12.054133333333331 12.837999999999965  11.041500000000003 12.756999999999948  L 10.86111111111111 12.75  L 6.138888888888888 12.75  C 5.074594444444445 12.75  4.168683333333335 13.498000000000047  3.8775111111111102 14.506999999999948  L 3.8415277777777765 14.649000000000001  L 3.8966833333333346 14.700000000000045  Z M 10.86111111111111 11.5  C 12.27437777777778 11.5  13.494222222222218 12.375999999999976  14.062494444444441 13.644000000000005  C 15.014872222222222 12.366999999999962  15.583333333333332 10.754000000000019  15.583333333333332 9  C 15.583333333333332 4.857999999999947  12.411983333333334 1.5  8.5 1.5  C 4.588016666666667 1.5  1.4166666666666665 4.857999999999947  1.4166666666666665 9  C 1.4166666666666665 10.754000000000019  1.9851277777777783 12.366999999999962  2.9375055555555543 13.644000000000005  C 3.5057777777777774 12.375999999999976  4.7256222222222215 11.5  6.138888888888888 11.5  L 10.86111111111111 11.5  Z " fill-rule="nonzero" fill="rgba(255, 255, 255, 0.8980392156862745)" stroke="none" transform="matrix(1 0 0 1 24 557 )" class="fill" />
    <path d="M 0.2361111111111111 9  C 0.2361111111111111 4.168000000000006  3.935972222222223 0.25  8.5 0.25  C 13.064027777777781 0.25  16.76388888888889 4.168000000000006  16.76388888888889 9  C 16.76388888888889 13.379000000000019  13.725233333333335 17.006999999999948  9.758472222222224 17.649  C 9.348205555555555 17.716000000000008  8.927833333333336 17.75  8.5 17.75  C 6.310683333333332 17.75  4.320172222222223 16.849000000000046  2.8415500000000007 15.376999999999953  C 1.2377888888888897 13.780999999999949  0.2361111111111111 11.51400000000001  0.2361111111111111 9  Z " stroke-width="0" stroke-dasharray="0" stroke="rgba(255, 255, 255, 0)" fill="none" transform="matrix(1 0 0 1 24 557 )" class="stroke" mask="url(#Clip2611)" />
    <path d="M 3.8966833333333346 14.700000000000045  C 4.876544444444444 15.587999999999965  6.088172222222223 16.19799999999998  7.422200000000002 16.413999999999987  C 7.664638888888886 16.452999999999975  7.910383333333335 16.479000000000042  8.158583333333334 16.490999999999985  L 8.5 16.5  C 10.088177777777782 16.5  11.554333333333334 15.947000000000003  12.735738888888891 15.011999999999944  C 12.849922222222224 14.92100000000005  12.961649999999999 14.826999999999998  13.070922222222219 14.729000000000042  L 13.152616666666663 14.650999999999954  L 13.144022222222224 14.609000000000037  C 12.891383333333337 13.59699999999998  12.054133333333331 12.837999999999965  11.041500000000003 12.756999999999948  L 10.86111111111111 12.75  L 6.138888888888888 12.75  C 5.074594444444445 12.75  4.168683333333335 13.498000000000047  3.8775111111111102 14.506999999999948  L 3.8415277777777765 14.649000000000001  L 3.8966833333333346 14.700000000000045  Z " stroke-width="0" stroke-dasharray="0" stroke="rgba(255, 255, 255, 0)" fill="none" transform="matrix(1 0 0 1 24 557 )" class="stroke" mask="url(#Clip2611)" />
    <path d="M 10.86111111111111 11.5  C 12.27437777777778 11.5  13.494222222222218 12.375999999999976  14.062494444444441 13.644000000000005  C 15.014872222222222 12.366999999999962  15.583333333333332 10.754000000000019  15.583333333333332 9  C 15.583333333333332 4.857999999999947  12.411983333333334 1.5  8.5 1.5  C 4.588016666666667 1.5  1.4166666666666665 4.857999999999947  1.4166666666666665 9  C 1.4166666666666665 10.754000000000019  1.9851277777777783 12.366999999999962  2.9375055555555543 13.644000000000005  C 3.5057777777777774 12.375999999999976  4.7256222222222215 11.5  6.138888888888888 11.5  L 10.86111111111111 11.5  Z " stroke-width="0" stroke-dasharray="0" stroke="rgba(255, 255, 255, 0)" fill="none" transform="matrix(1 0 0 1 24 557 )" class="stroke" mask="url(#Clip2611)" />
  </g>
</svg>