<?xml version="1.0" encoding="utf-8"?>
<svg version="1.1" xmlns:xlink="http://www.w3.org/1999/xlink" width="10px" height="6px" xmlns="http://www.w3.org/2000/svg">
  <defs>
    <pattern id="BGPattern" patternUnits="userSpaceOnUse" alignment="0 0" imageRepeat="None" />
    <mask fill="white" id="Clip2612">
      <path d="M 5 5.918999999999983  L 0.539999999999992 1.4600000000000364  L 1.460000000000008 0.5410000000000537  L 5 4.081000000000017  L 8.539999999999992 0.5410000000000537  L 9.460000000000008 1.4600000000000364  L 5 5.918999999999983  Z " fill-rule="evenodd" />
    </mask>
  </defs>
  <g transform="matrix(1 0 0 1 -187 -563 )">
    <path d="M 5 5.918999999999983  L 0.539999999999992 1.4600000000000364  L 1.460000000000008 0.5410000000000537  L 5 4.081000000000017  L 8.539999999999992 0.5410000000000537  L 9.460000000000008 1.4600000000000364  L 5 5.918999999999983  Z " fill-rule="nonzero" fill="rgba(255, 255, 255, 0.8980392156862745)" stroke="none" transform="matrix(1 0 0 1 187 563 )" class="fill" />
    <path d="M 5 5.918999999999983  L 0.539999999999992 1.4600000000000364  L 1.460000000000008 0.5410000000000537  L 5 4.081000000000017  L 8.539999999999992 0.5410000000000537  L 9.460000000000008 1.4600000000000364  L 5 5.918999999999983  Z " stroke-width="0" stroke-dasharray="0" stroke="rgba(255, 255, 255, 0)" fill="none" transform="matrix(1 0 0 1 187 563 )" class="stroke" mask="url(#Clip2612)" />
  </g>
</svg>