<?xml version="1.0" encoding="utf-8"?>
<svg version="1.1" xmlns:xlink="http://www.w3.org/1999/xlink" width="8px" height="8px" xmlns="http://www.w3.org/2000/svg">
  <defs>
    <pattern id="BGPattern" patternUnits="userSpaceOnUse" alignment="0 0" imageRepeat="None" />
    <mask fill="white" id="Clip2610">
      <path d="M 4 0.2999999999999545  C 5.9191999999999965 0.2999999999999545  7.475000000000001 1.8559999999999945  7.475000000000001 3.7749999999999773  C 7.475000000000001 5.69399999999996  5.9191999999999965 7.25  4 7.25  C 2.0808000000000035 7.25  0.5249999999999986 5.69399999999996  0.5249999999999986 3.7749999999999773  C 0.5249999999999986 1.8559999999999945  2.0808000000000035 0.2999999999999545  4 0.2999999999999545  Z M 4 6  C 5.2288 6  6.225000000000001 5.004000000000019  6.225000000000001 3.7749999999999773  C 6.225000000000001 2.546000000000049  5.2288 1.5499999999999545  4 1.5499999999999545  C 2.771099999999997 1.5499999999999545  1.7749999999999986 2.546000000000049  1.7749999999999986 3.7749999999999773  C 1.7749999999999986 5.004000000000019  2.771099999999997 6  4 6  Z " fill-rule="evenodd" />
    </mask>
  </defs>
  <g transform="matrix(1 0 0 1 -29 -560 )">
    <path d="M 4 0.2999999999999545  C 5.9191999999999965 0.2999999999999545  7.475000000000001 1.8559999999999945  7.475000000000001 3.7749999999999773  C 7.475000000000001 5.69399999999996  5.9191999999999965 7.25  4 7.25  C 2.0808000000000035 7.25  0.5249999999999986 5.69399999999996  0.5249999999999986 3.7749999999999773  C 0.5249999999999986 1.8559999999999945  2.0808000000000035 0.2999999999999545  4 0.2999999999999545  Z M 4 6  C 5.2288 6  6.225000000000001 5.004000000000019  6.225000000000001 3.7749999999999773  C 6.225000000000001 2.546000000000049  5.2288 1.5499999999999545  4 1.5499999999999545  C 2.771099999999997 1.5499999999999545  1.7749999999999986 2.546000000000049  1.7749999999999986 3.7749999999999773  C 1.7749999999999986 5.004000000000019  2.771099999999997 6  4 6  Z " fill-rule="nonzero" fill="rgba(255, 255, 255, 0.8980392156862745)" stroke="none" transform="matrix(1 0 0 1 29 560 )" class="fill" />
    <path d="M 4 0.2999999999999545  C 5.9191999999999965 0.2999999999999545  7.475000000000001 1.8559999999999945  7.475000000000001 3.7749999999999773  C 7.475000000000001 5.69399999999996  5.9191999999999965 7.25  4 7.25  C 2.0808000000000035 7.25  0.5249999999999986 5.69399999999996  0.5249999999999986 3.7749999999999773  C 0.5249999999999986 1.8559999999999945  2.0808000000000035 0.2999999999999545  4 0.2999999999999545  Z " stroke-width="0" stroke-dasharray="0" stroke="rgba(255, 255, 255, 0)" fill="none" transform="matrix(1 0 0 1 29 560 )" class="stroke" mask="url(#Clip2610)" />
    <path d="M 4 6  C 5.2288 6  6.225000000000001 5.004000000000019  6.225000000000001 3.7749999999999773  C 6.225000000000001 2.546000000000049  5.2288 1.5499999999999545  4 1.5499999999999545  C 2.771099999999997 1.5499999999999545  1.7749999999999986 2.546000000000049  1.7749999999999986 3.7749999999999773  C 1.7749999999999986 5.004000000000019  2.771099999999997 6  4 6  Z " stroke-width="0" stroke-dasharray="0" stroke="rgba(255, 255, 255, 0)" fill="none" transform="matrix(1 0 0 1 29 560 )" class="stroke" mask="url(#Clip2610)" />
  </g>
</svg>