<?xml version="1.0" encoding="utf-8"?>
<svg version="1.1" xmlns:xlink="http://www.w3.org/1999/xlink" width="8px" height="7px" xmlns="http://www.w3.org/2000/svg">
  <defs>
    <linearGradient gradientUnits="userSpaceOnUse" x1="0" y1="3.5" x2="8" y2="3.5" id="LinearGradient2617">
      <stop id="Stop2618" stop-color="#0062ff" offset="0" />
      <stop id="Stop2619" stop-color="#0062ff" offset="0.01" />
      <stop id="Stop2620" stop-color="#006aff" offset="0.24" />
      <stop id="Stop2621" stop-color="#0081ff" offset="0.6" />
      <stop id="Stop2622" stop-color="#0097ff" offset="0.89" />
      <stop id="Stop2623" stop-color="#0097ff" offset="1" />
    </linearGradient>
    <pattern id="BGPattern" patternUnits="userSpaceOnUse" alignment="0 0" imageRepeat="None" />
    <mask fill="white" id="Clip2624">
      <path d="M 5.9526762602440195 6.065859790000001  L 0.5367308348895404 6.065859790000001  C 0.19011031593085206 6.065859790000001  -0.06986033233816 5.762566809999999  0.01679479745151211 5.415946250000001  L 0.8833460598482284 0.4332756999999994  C 0.9266736248430627 0.17331027000000176  1.1433167208172432 0  1.403282120786257 0  L 7.035865780114916 0  L 5.9526762602440195 6.065859790000001  Z " fill-rule="evenodd" />
    </mask>
  </defs>
  <g transform="matrix(1 0 0 1 -23 -19 )">
    <path d="M 5.9526762602440195 6.065859790000001  L 0.5367308348895404 6.065859790000001  C 0.19011031593085206 6.065859790000001  -0.06986033233816 5.762566809999999  0.01679479745151211 5.415946250000001  L 0.8833460598482284 0.4332756999999994  C 0.9266736248430627 0.17331027000000176  1.1433167208172432 0  1.403282120786257 0  L 7.035865780114916 0  L 5.9526762602440195 6.065859790000001  Z " fill-rule="nonzero" fill="url(#LinearGradient2617)" stroke="none" transform="matrix(1 0 0 1 23 19 )" class="fill" />
    <path d="M 5.9526762602440195 6.065859790000001  L 0.5367308348895404 6.065859790000001  C 0.19011031593085206 6.065859790000001  -0.06986033233816 5.762566809999999  0.01679479745151211 5.415946250000001  L 0.8833460598482284 0.4332756999999994  C 0.9266736248430627 0.17331027000000176  1.1433167208172432 0  1.403282120786257 0  L 7.035865780114916 0  L 5.9526762602440195 6.065859790000001  Z " stroke-width="0" stroke-dasharray="0" stroke="rgba(255, 255, 255, 0)" fill="none" transform="matrix(1 0 0 1 23 19 )" class="stroke" mask="url(#Clip2624)" />
  </g>
</svg>