<?xml version="1.0" encoding="utf-8"?>
<svg version="1.1" xmlns:xlink="http://www.w3.org/1999/xlink" width="8px" height="7px" xmlns="http://www.w3.org/2000/svg">
  <defs>
    <linearGradient gradientUnits="userSpaceOnUse" x1="-0.4705069146103733" y1="6.22933425594244" x2="8.470506914610374" y2="0.7706657440575605" id="LinearGradient2632">
      <stop id="Stop2633" stop-color="#009eff" offset="0" />
      <stop id="Stop2634" stop-color="#009eff" offset="0.11" />
      <stop id="Stop2635" stop-color="#00a3ff" offset="0.35" />
      <stop id="Stop2636" stop-color="#00b3ff" offset="0.67" />
      <stop id="Stop2637" stop-color="#00c3ff" offset="0.9" />
      <stop id="Stop2638" stop-color="#00c3ff" offset="1" />
    </linearGradient>
    <pattern id="BGPattern" patternUnits="userSpaceOnUse" alignment="0 0" imageRepeat="None" />
    <mask fill="white" id="Clip2639">
      <path d="M 6.2486486700000015 6.999807400000002  L 1.2659788799999987 6.999807400000002  C 0.9193583600000004 6.999807400000002  0.6593877100000007 6.696514399999998  0.7460428400000012 6.349893899999998  L 1.6992545200000002 0.890625  L 7.765113830000004 0.890625  L 6.768584730000001 6.523208100000005  C 6.725257159999998 6.8265011000000015  6.508614059999999 6.999807400000002  6.2486486700000015 6.999807400000002  Z " fill-rule="evenodd" />
    </mask>
  </defs>
  <g transform="matrix(1 0 0 1 -25 -37 )">
    <path d="M 6.2486486700000015 6.999807400000002  L 1.2659788799999987 6.999807400000002  C 0.9193583600000004 6.999807400000002  0.6593877100000007 6.696514399999998  0.7460428400000012 6.349893899999998  L 1.6992545200000002 0.890625  L 7.765113830000004 0.890625  L 6.768584730000001 6.523208100000005  C 6.725257159999998 6.8265011000000015  6.508614059999999 6.999807400000002  6.2486486700000015 6.999807400000002  Z " fill-rule="nonzero" fill="url(#LinearGradient2632)" stroke="none" transform="matrix(1 0 0 1 25 37 )" class="fill" />
    <path d="M 6.2486486700000015 6.999807400000002  L 1.2659788799999987 6.999807400000002  C 0.9193583600000004 6.999807400000002  0.6593877100000007 6.696514399999998  0.7460428400000012 6.349893899999998  L 1.6992545200000002 0.890625  L 7.765113830000004 0.890625  L 6.768584730000001 6.523208100000005  C 6.725257159999998 6.8265011000000015  6.508614059999999 6.999807400000002  6.2486486700000015 6.999807400000002  Z " stroke-width="0" stroke-dasharray="0" stroke="rgba(255, 255, 255, 0)" fill="none" transform="matrix(1 0 0 1 25 37 )" class="stroke" mask="url(#Clip2639)" />
  </g>
</svg>