<?xml version="1.0" encoding="utf-8"?>
<svg version="1.1" xmlns:xlink="http://www.w3.org/1999/xlink" width="10px" height="10px" xmlns="http://www.w3.org/2000/svg">
  <defs>
    <pattern id="BGPattern" patternUnits="userSpaceOnUse" alignment="0 0" imageRepeat="None" />
    <mask fill="white" id="Clip2523">
      <path d="M 4.3499755899999855 5.650097850000009  L 4.3499755899999855 9.5  L 5.649975779999977 9.5  L 5.649975779999977 5.650097850000009  L 9.5 5.650097850000009  L 9.5 4.350097659999989  L 5.649975779999977 4.350097659999989  L 5.649975779999977 0.5  L 4.3499755899999855 0.5  L 4.3499755899999855 4.350097659999989  L 0.5 4.350097659999989  L 0.5 5.650097850000009  L 4.3499755899999855 5.650097850000009  Z " fill-rule="evenodd" />
    </mask>
  </defs>
  <g transform="matrix(1 0 0 1 -1550 -205 )">
    <path d="M 4.3499755899999855 5.650097850000009  L 4.3499755899999855 9.5  L 5.649975779999977 9.5  L 5.649975779999977 5.650097850000009  L 9.5 5.650097850000009  L 9.5 4.350097659999989  L 5.649975779999977 4.350097659999989  L 5.649975779999977 0.5  L 4.3499755899999855 0.5  L 4.3499755899999855 4.350097659999989  L 0.5 4.350097659999989  L 0.5 5.650097850000009  L 4.3499755899999855 5.650097850000009  Z " fill-rule="nonzero" fill="rgba(255, 255, 255, 1)" stroke="none" transform="matrix(1 0 0 1 1550 205 )" class="fill" />
    <path d="M 4.3499755899999855 5.650097850000009  L 4.3499755899999855 9.5  L 5.649975779999977 9.5  L 5.649975779999977 5.650097850000009  L 9.5 5.650097850000009  L 9.5 4.350097659999989  L 5.649975779999977 4.350097659999989  L 5.649975779999977 0.5  L 4.3499755899999855 0.5  L 4.3499755899999855 4.350097659999989  L 0.5 4.350097659999989  L 0.5 5.650097850000009  L 4.3499755899999855 5.650097850000009  Z " stroke-width="0" stroke-dasharray="0" stroke="rgba(255, 255, 255, 0)" fill="none" transform="matrix(1 0 0 1 1550 205 )" class="stroke" mask="url(#Clip2523)" />
  </g>
</svg>