<?xml version="1.0" encoding="utf-8"?>
<svg version="1.1" xmlns:xlink="http://www.w3.org/1999/xlink" width="858px" height="230px" xmlns="http://www.w3.org/2000/svg">
  <defs>
    <pattern id="BGPattern" patternUnits="userSpaceOnUse" alignment="0 0" imageRepeat="None" />
    <mask fill="white" id="Clip2541">
      <path d="M 0 230  L 53.625 180  L 107.25 230  L 160.875 150  L 214.5 160  L 268.125 160  L 321.75 80  L 375.375 60  L 429 130  L 482.625 100  L 536.25 0  L 589.875 120  L 643.5 170  L 697.125 170  L 750.75 140  L 804.375 180  L 858 170  L 858 230  L 0 230  Z " fill-rule="evenodd" />
    </mask>
  </defs>
  <g transform="matrix(1 0 0 1 -317 -788 )">
    <path d="M 0 230  L 53.625 180  L 107.25 230  L 160.875 150  L 214.5 160  L 268.125 160  L 321.75 80  L 375.375 60  L 429 130  L 482.625 100  L 536.25 0  L 589.875 120  L 643.5 170  L 697.125 170  L 750.75 140  L 804.375 180  L 858 170  L 858 230  L 0 230  Z " fill-rule="nonzero" fill="rgba(236, 242, 254, 1)" stroke="none" transform="matrix(1 0 0 1 317 788 )" class="fill" />
    <path d="M 0 230  L 53.625 180  L 107.25 230  L 160.875 150  L 214.5 160  L 268.125 160  L 321.75 80  L 375.375 60  L 429 130  L 482.625 100  L 536.25 0  L 589.875 120  L 643.5 170  L 697.125 170  L 750.75 140  L 804.375 180  L 858 170  L 858 230  L 0 230  Z " stroke-width="0" stroke-dasharray="0" stroke="rgba(255, 255, 255, 0)" fill="none" transform="matrix(1 0 0 1 317 788 )" class="stroke" mask="url(#Clip2541)" />
  </g>
</svg>