<?xml version="1.0" encoding="utf-8"?>
<svg version="1.1" xmlns:xlink="http://www.w3.org/1999/xlink" width="24px" height="22px" xmlns="http://www.w3.org/2000/svg">
  <defs>
    <pattern id="BGPattern" patternUnits="userSpaceOnUse" alignment="0 0" imageRepeat="None" />
    <mask fill="white" id="Clip2516">
      <path d="M 10.62843148800006 1.999663869999992  C 9.483159551999924 8.596206300000006  8.43894105600004 15.12257249999999  7.259984640000038 21.68402739999999  L 4.868385292799867 21.68402739999999  C 5.339967849599925 19.19278  5.878923455999902 16.596268500000008  6.283137100799941 14.140108900000001  L 4.5989136575999146 14.140108900000001  C 4.0936466207999915 16.701532499999985  3.554691014400014 19.227867900000007  3.015739507199905 21.68402739999999  L 0.6241401599999518 21.68402739999999  C 2.6115238559999123 15.05239689999999  3.622062019199948 8.210238739999994  4.7336494752 0.6312321059999988  L 9.180003475199918 0.6312321059999988  C 10.358959871999904 0.6312321059999988  10.830538367999907 0.841760113999996  10.62843148800006 1.999663869999992  Z M 19.85797391999993 11.473422  L 19.319020415999983 14.034845200000007  L 20.464300512000044 14.034845200000007  C 21.23904335999985 14.034845200000007  21.811671072000028 14.210285699999986  21.676933247999987 15.227837499999993  C 21.407457407999974 17.052413099999995  20.935879008000047 19.578748700000006  20.56534982399986 21.719116200000002  L 14.300036544000031 21.719116200000002  L 13.794769536000022 19.789276599999994  L 18.409545887999993 19.789276599999994  C 18.611652671999984 18.771724799999987  18.881124383999996 17.50855659999999  19.015862208000037 16.49100469999999  C 19.0495466879999 16.140124799999995  18.914812896000004 16.0348611  18.577968191999897 16.0348611  L 10.763167391999886 16.0348611  L 11.470543296000033 12.069918099999995  C 10.897907231999998 12.35062210000001  10.055793532799944 12.631325500000003  9.247366252799983 12.806765499999983  L 9.752633280000008 10.42078219999999  C 11.201065536000025 10.069902299999995  12.68318207999997 9.333054119999986  13.6263472319999 8.245326369999987  L 10.156851023999916 8.245326369999987  L 10.56105849599997 6.385662999999994  L 14.872676639999991 6.385662999999994  C 15.108467903999845 6.034783070000004  15.310574783999908 5.613727350000005  15.377943743999857 5.2979354199999875  L 10.729480799999873 5.2979354199999875  L 11.066325503999979 3.368095799999992  L 12.750548927999988 3.368095799999992  L 12.144232607999946 0.49088014199999463  L 14.535831935999887 0.49088014199999463  L 15.10846175999999 3.368095799999992  L 15.916897248000023 3.368095799999992  C 16.18637299199996 2.4207199699999933  16.35479328000001 1.122464039999997  16.38847775999988 0.06982424999999637  L 18.8137533119999 0.06982424999999637  C 18.780068927999892 1.122464039999997  18.61165065599991 2.385632009999995  18.375859392000056 3.368095799999992  L 19.35270691199992 3.368095799999992  C 19.723236095999894 2.490895969999997  20.093767295999932 1.4382559700000002  20.396927519999956 0.49088014199999463  L 22.822213344000048 0.49088014199999463  C 22.48536863999994 1.3680799699999966  22.081146815999965 2.4558080099999984  21.676933247999987 3.368095799999992  L 23.361156671999996 3.368095799999992  L 22.923262655999864 5.2979354199999875  L 17.870592384000048 5.2979354199999875  C 17.769538944000015 5.613727350000005  17.601120672000032 6.069871070000005  17.43269836799991 6.385662999999994  L 23.664325055999942 6.385662999999994  L 23.22642086400003 8.245326369999987  L 19.588502303999995 8.245326369999987  C 20.363245055999943 9.438318170000002  22.215892896000007 10.350605799999983  23.664325055999942 10.666397799999999  L 22.85588966399999 12.77167800000001  C 21.811671072000028 12.52606209999999  20.73377011199991 12.034829900000007  19.85797391999993 11.473422  Z M 17.23058947199999 18.77172429999999  L 9.247366252799983 18.77172429999999  L 8.910521558399996 16.87697209999999  L 17.634796895999898 16.87697209999999  L 17.634796895999898 16.9120609  L 17.23058947199999 18.77172429999999  Z M 7.327357689599959 8.280414489999998  L 5.7104970143998806 8.280414489999998  C 5.47470574079991 9.543582210000011  5.205236150399942 10.876925599999993  4.969444867199854 12.210269299999993  L 6.653668310399881 12.210269299999993  L 7.327357689599959 8.280414489999998  Z M 7.832624726399882 2.6663357699999892  L 6.653668310399881 2.6663357699999892  C 6.451561487999861 3.8593275699999903  6.283132982400057 5.052319119999993  6.047341708799868 6.350574880000011  L 7.664202383999946 6.350574880000011  L 8.236832179199919 3.1224795799999896  C 8.304201119999853 2.7715996499999993  8.169469411199971 2.6663357699999892  7.832624726399882 2.6663357699999892  Z M 17.43269836799991 11.824301899999995  L 12.278968415999916 11.824301899999995  L 13.82845603199996 12.561149199999988  L 13.558984416000023 14.034845200000007  L 16.961107583999983 14.034845200000007  L 17.43269836799991 11.824301899999995  Z M 18.274810080000027 9.999726019999997  C 17.870596415999973 9.543582130000004  17.466378719999994 8.771646260000011  17.196902976000054 8.245326369999987  L 16.32110467199993 8.245326369999987  C 15.849522144000003 8.841822269999994  15.142152383999928 9.543582130000004  14.535831935999887 9.999726019999997  L 18.274810080000027 9.999726019999997  Z " fill-rule="evenodd" />
    </mask>
  </defs>
  <g transform="matrix(1 0 0 1 -1335 -123 )">
    <path d="M 10.62843148800006 1.999663869999992  C 9.483159551999924 8.596206300000006  8.43894105600004 15.12257249999999  7.259984640000038 21.68402739999999  L 4.868385292799867 21.68402739999999  C 5.339967849599925 19.19278  5.878923455999902 16.596268500000008  6.283137100799941 14.140108900000001  L 4.5989136575999146 14.140108900000001  C 4.0936466207999915 16.701532499999985  3.554691014400014 19.227867900000007  3.015739507199905 21.68402739999999  L 0.6241401599999518 21.68402739999999  C 2.6115238559999123 15.05239689999999  3.622062019199948 8.210238739999994  4.7336494752 0.6312321059999988  L 9.180003475199918 0.6312321059999988  C 10.358959871999904 0.6312321059999988  10.830538367999907 0.841760113999996  10.62843148800006 1.999663869999992  Z M 19.85797391999993 11.473422  L 19.319020415999983 14.034845200000007  L 20.464300512000044 14.034845200000007  C 21.23904335999985 14.034845200000007  21.811671072000028 14.210285699999986  21.676933247999987 15.227837499999993  C 21.407457407999974 17.052413099999995  20.935879008000047 19.578748700000006  20.56534982399986 21.719116200000002  L 14.300036544000031 21.719116200000002  L 13.794769536000022 19.789276599999994  L 18.409545887999993 19.789276599999994  C 18.611652671999984 18.771724799999987  18.881124383999996 17.50855659999999  19.015862208000037 16.49100469999999  C 19.0495466879999 16.140124799999995  18.914812896000004 16.0348611  18.577968191999897 16.0348611  L 10.763167391999886 16.0348611  L 11.470543296000033 12.069918099999995  C 10.897907231999998 12.35062210000001  10.055793532799944 12.631325500000003  9.247366252799983 12.806765499999983  L 9.752633280000008 10.42078219999999  C 11.201065536000025 10.069902299999995  12.68318207999997 9.333054119999986  13.6263472319999 8.245326369999987  L 10.156851023999916 8.245326369999987  L 10.56105849599997 6.385662999999994  L 14.872676639999991 6.385662999999994  C 15.108467903999845 6.034783070000004  15.310574783999908 5.613727350000005  15.377943743999857 5.2979354199999875  L 10.729480799999873 5.2979354199999875  L 11.066325503999979 3.368095799999992  L 12.750548927999988 3.368095799999992  L 12.144232607999946 0.49088014199999463  L 14.535831935999887 0.49088014199999463  L 15.10846175999999 3.368095799999992  L 15.916897248000023 3.368095799999992  C 16.18637299199996 2.4207199699999933  16.35479328000001 1.122464039999997  16.38847775999988 0.06982424999999637  L 18.8137533119999 0.06982424999999637  C 18.780068927999892 1.122464039999997  18.61165065599991 2.385632009999995  18.375859392000056 3.368095799999992  L 19.35270691199992 3.368095799999992  C 19.723236095999894 2.490895969999997  20.093767295999932 1.4382559700000002  20.396927519999956 0.49088014199999463  L 22.822213344000048 0.49088014199999463  C 22.48536863999994 1.3680799699999966  22.081146815999965 2.4558080099999984  21.676933247999987 3.368095799999992  L 23.361156671999996 3.368095799999992  L 22.923262655999864 5.2979354199999875  L 17.870592384000048 5.2979354199999875  C 17.769538944000015 5.613727350000005  17.601120672000032 6.069871070000005  17.43269836799991 6.385662999999994  L 23.664325055999942 6.385662999999994  L 23.22642086400003 8.245326369999987  L 19.588502303999995 8.245326369999987  C 20.363245055999943 9.438318170000002  22.215892896000007 10.350605799999983  23.664325055999942 10.666397799999999  L 22.85588966399999 12.77167800000001  C 21.811671072000028 12.52606209999999  20.73377011199991 12.034829900000007  19.85797391999993 11.473422  Z M 17.23058947199999 18.77172429999999  L 9.247366252799983 18.77172429999999  L 8.910521558399996 16.87697209999999  L 17.634796895999898 16.87697209999999  L 17.634796895999898 16.9120609  L 17.23058947199999 18.77172429999999  Z M 7.327357689599959 8.280414489999998  L 5.7104970143998806 8.280414489999998  C 5.47470574079991 9.543582210000011  5.205236150399942 10.876925599999993  4.969444867199854 12.210269299999993  L 6.653668310399881 12.210269299999993  L 7.327357689599959 8.280414489999998  Z M 7.832624726399882 2.6663357699999892  L 6.653668310399881 2.6663357699999892  C 6.451561487999861 3.8593275699999903  6.283132982400057 5.052319119999993  6.047341708799868 6.350574880000011  L 7.664202383999946 6.350574880000011  L 8.236832179199919 3.1224795799999896  C 8.304201119999853 2.7715996499999993  8.169469411199971 2.6663357699999892  7.832624726399882 2.6663357699999892  Z M 17.43269836799991 11.824301899999995  L 12.278968415999916 11.824301899999995  L 13.82845603199996 12.561149199999988  L 13.558984416000023 14.034845200000007  L 16.961107583999983 14.034845200000007  L 17.43269836799991 11.824301899999995  Z M 18.274810080000027 9.999726019999997  C 17.870596415999973 9.543582130000004  17.466378719999994 8.771646260000011  17.196902976000054 8.245326369999987  L 16.32110467199993 8.245326369999987  C 15.849522144000003 8.841822269999994  15.142152383999928 9.543582130000004  14.535831935999887 9.999726019999997  L 18.274810080000027 9.999726019999997  Z " fill-rule="nonzero" fill="rgba(0, 82, 217, 1)" stroke="none" transform="matrix(1 0 0 1 1335 123 )" class="fill" />
    <path d="M 10.62843148800006 1.999663869999992  C 9.483159551999924 8.596206300000006  8.43894105600004 15.12257249999999  7.259984640000038 21.68402739999999  L 4.868385292799867 21.68402739999999  C 5.339967849599925 19.19278  5.878923455999902 16.596268500000008  6.283137100799941 14.140108900000001  L 4.5989136575999146 14.140108900000001  C 4.0936466207999915 16.701532499999985  3.554691014400014 19.227867900000007  3.015739507199905 21.68402739999999  L 0.6241401599999518 21.68402739999999  C 2.6115238559999123 15.05239689999999  3.622062019199948 8.210238739999994  4.7336494752 0.6312321059999988  L 9.180003475199918 0.6312321059999988  C 10.358959871999904 0.6312321059999988  10.830538367999907 0.841760113999996  10.62843148800006 1.999663869999992  Z " stroke-width="0" stroke-dasharray="0" stroke="rgba(255, 255, 255, 0)" fill="none" transform="matrix(1 0 0 1 1335 123 )" class="stroke" mask="url(#Clip2516)" />
    <path d="M 19.85797391999993 11.473422  L 19.319020415999983 14.034845200000007  L 20.464300512000044 14.034845200000007  C 21.23904335999985 14.034845200000007  21.811671072000028 14.210285699999986  21.676933247999987 15.227837499999993  C 21.407457407999974 17.052413099999995  20.935879008000047 19.578748700000006  20.56534982399986 21.719116200000002  L 14.300036544000031 21.719116200000002  L 13.794769536000022 19.789276599999994  L 18.409545887999993 19.789276599999994  C 18.611652671999984 18.771724799999987  18.881124383999996 17.50855659999999  19.015862208000037 16.49100469999999  C 19.0495466879999 16.140124799999995  18.914812896000004 16.0348611  18.577968191999897 16.0348611  L 10.763167391999886 16.0348611  L 11.470543296000033 12.069918099999995  C 10.897907231999998 12.35062210000001  10.055793532799944 12.631325500000003  9.247366252799983 12.806765499999983  L 9.752633280000008 10.42078219999999  C 11.201065536000025 10.069902299999995  12.68318207999997 9.333054119999986  13.6263472319999 8.245326369999987  L 10.156851023999916 8.245326369999987  L 10.56105849599997 6.385662999999994  L 14.872676639999991 6.385662999999994  C 15.108467903999845 6.034783070000004  15.310574783999908 5.613727350000005  15.377943743999857 5.2979354199999875  L 10.729480799999873 5.2979354199999875  L 11.066325503999979 3.368095799999992  L 12.750548927999988 3.368095799999992  L 12.144232607999946 0.49088014199999463  L 14.535831935999887 0.49088014199999463  L 15.10846175999999 3.368095799999992  L 15.916897248000023 3.368095799999992  C 16.18637299199996 2.4207199699999933  16.35479328000001 1.122464039999997  16.38847775999988 0.06982424999999637  L 18.8137533119999 0.06982424999999637  C 18.780068927999892 1.122464039999997  18.61165065599991 2.385632009999995  18.375859392000056 3.368095799999992  L 19.35270691199992 3.368095799999992  C 19.723236095999894 2.490895969999997  20.093767295999932 1.4382559700000002  20.396927519999956 0.49088014199999463  L 22.822213344000048 0.49088014199999463  C 22.48536863999994 1.3680799699999966  22.081146815999965 2.4558080099999984  21.676933247999987 3.368095799999992  L 23.361156671999996 3.368095799999992  L 22.923262655999864 5.2979354199999875  L 17.870592384000048 5.2979354199999875  C 17.769538944000015 5.613727350000005  17.601120672000032 6.069871070000005  17.43269836799991 6.385662999999994  L 23.664325055999942 6.385662999999994  L 23.22642086400003 8.245326369999987  L 19.588502303999995 8.245326369999987  C 20.363245055999943 9.438318170000002  22.215892896000007 10.350605799999983  23.664325055999942 10.666397799999999  L 22.85588966399999 12.77167800000001  C 21.811671072000028 12.52606209999999  20.73377011199991 12.034829900000007  19.85797391999993 11.473422  Z " stroke-width="0" stroke-dasharray="0" stroke="rgba(255, 255, 255, 0)" fill="none" transform="matrix(1 0 0 1 1335 123 )" class="stroke" mask="url(#Clip2516)" />
    <path d="M 17.23058947199999 18.77172429999999  L 9.247366252799983 18.77172429999999  L 8.910521558399996 16.87697209999999  L 17.634796895999898 16.87697209999999  L 17.634796895999898 16.9120609  L 17.23058947199999 18.77172429999999  Z " stroke-width="0" stroke-dasharray="0" stroke="rgba(255, 255, 255, 0)" fill="none" transform="matrix(1 0 0 1 1335 123 )" class="stroke" mask="url(#Clip2516)" />
    <path d="M 7.327357689599959 8.280414489999998  L 5.7104970143998806 8.280414489999998  C 5.47470574079991 9.543582210000011  5.205236150399942 10.876925599999993  4.969444867199854 12.210269299999993  L 6.653668310399881 12.210269299999993  L 7.327357689599959 8.280414489999998  Z " stroke-width="0" stroke-dasharray="0" stroke="rgba(255, 255, 255, 0)" fill="none" transform="matrix(1 0 0 1 1335 123 )" class="stroke" mask="url(#Clip2516)" />
    <path d="M 7.832624726399882 2.6663357699999892  L 6.653668310399881 2.6663357699999892  C 6.451561487999861 3.8593275699999903  6.283132982400057 5.052319119999993  6.047341708799868 6.350574880000011  L 7.664202383999946 6.350574880000011  L 8.236832179199919 3.1224795799999896  C 8.304201119999853 2.7715996499999993  8.169469411199971 2.6663357699999892  7.832624726399882 2.6663357699999892  Z " stroke-width="0" stroke-dasharray="0" stroke="rgba(255, 255, 255, 0)" fill="none" transform="matrix(1 0 0 1 1335 123 )" class="stroke" mask="url(#Clip2516)" />
    <path d="M 17.43269836799991 11.824301899999995  L 12.278968415999916 11.824301899999995  L 13.82845603199996 12.561149199999988  L 13.558984416000023 14.034845200000007  L 16.961107583999983 14.034845200000007  L 17.43269836799991 11.824301899999995  Z " stroke-width="0" stroke-dasharray="0" stroke="rgba(255, 255, 255, 0)" fill="none" transform="matrix(1 0 0 1 1335 123 )" class="stroke" mask="url(#Clip2516)" />
    <path d="M 18.274810080000027 9.999726019999997  C 17.870596415999973 9.543582130000004  17.466378719999994 8.771646260000011  17.196902976000054 8.245326369999987  L 16.32110467199993 8.245326369999987  C 15.849522144000003 8.841822269999994  15.142152383999928 9.543582130000004  14.535831935999887 9.999726019999997  L 18.274810080000027 9.999726019999997  Z " stroke-width="0" stroke-dasharray="0" stroke="rgba(255, 255, 255, 0)" fill="none" transform="matrix(1 0 0 1 1335 123 )" class="stroke" mask="url(#Clip2516)" />
  </g>
</svg>