<?xml version="1.0" encoding="utf-8"?>
<svg version="1.1" xmlns:xlink="http://www.w3.org/1999/xlink" width="20px" height="22px" xmlns="http://www.w3.org/2000/svg">
  <defs>
    <pattern id="BGPattern" patternUnits="userSpaceOnUse" alignment="0 0" imageRepeat="None" />
    <mask fill="white" id="Clip2510">
      <path d="M 19.582441428571354 0  L 0.5346741904761422 0  L 0 3.1579193799999956  L 7.385187276190447 3.1579193799999956  L 4.310810466666745 21.649292000000003  L 8.487952514285661 21.649292000000003  L 11.595746571428467 3.1579193799999956  L 19.04776771428563 3.1579193799999956  L 19.582441428571354 0  Z " fill-rule="evenodd" />
    </mask>
  </defs>
  <g transform="matrix(1 0 0 1 -1223 -123 )">
    <path d="M 19.582441428571354 0  L 0.5346741904761422 0  L 0 3.1579193799999956  L 7.385187276190447 3.1579193799999956  L 4.310810466666745 21.649292000000003  L 8.487952514285661 21.649292000000003  L 11.595746571428467 3.1579193799999956  L 19.04776771428563 3.1579193799999956  L 19.582441428571354 0  Z " fill-rule="nonzero" fill="rgba(0, 82, 217, 1)" stroke="none" transform="matrix(1 0 0 1 1223 123 )" class="fill" />
    <path d="M 19.582441428571354 0  L 0.5346741904761422 0  L 0 3.1579193799999956  L 7.385187276190447 3.1579193799999956  L 4.310810466666745 21.649292000000003  L 8.487952514285661 21.649292000000003  L 11.595746571428467 3.1579193799999956  L 19.04776771428563 3.1579193799999956  L 19.582441428571354 0  Z " stroke-width="0" stroke-dasharray="0" stroke="rgba(255, 255, 255, 0)" fill="none" transform="matrix(1 0 0 1 1223 123 )" class="stroke" mask="url(#Clip2510)" />
  </g>
</svg>