<?xml version="1.0" encoding="utf-8"?>
<svg version="1.1" xmlns:xlink="http://www.w3.org/1999/xlink" width="17px" height="16px" xmlns="http://www.w3.org/2000/svg">
  <defs>
    <pattern id="BGPattern" patternUnits="userSpaceOnUse" alignment="0 0" imageRepeat="None" />
    <mask fill="white" id="Clip2511">
      <path d="M 10.223400688888862 0.4916992199999868  C 4.921214305555483 0.4916992199999868  1.5410703999999922 4.000498899999997  0.8782970666667325 8.105794000000003  C 0.1492464944444944 12.667233100000004  2.767200405555488 15.9655037  8.10252554999992 15.9655037  C 10.488509361111003 15.9655037  12.708801161111182 15.474272600000006  14.531427733333341 14.421632799999998  L 15.094784027777717 11.0180972  C 13.338434694444533 12.3514409  11.085004511111164 13.123376799999988  9.162961844444453 13.123376799999988  C 6.511868700000024 13.123376799999988  4.390995166666622 11.965472900000009  4.722381833333253 9  L 15.724419166666609 9  C 15.856973833333388 8.947905600000013  16.02266612777785 8.386497700000007  16.122082127777883 7.6847377999999935  C 16.65230079444436 4.456642499999987  15.558725833333295 0.4916992199999868  10.223400688888862 0.4916992199999868  Z M 12.377414494444338 6.667185499999988  L 5.120046116666723 6.667185499999988  C 5.550848688888865 5.158401700000013  6.975812016666623 3.0531224599999973  9.52748916111102 3.0531224599999973  C 12.311136877777711 3.0531224599999973  12.60938516111115 5.298753699999992  12.377414494444338 6.667185499999988  Z " fill-rule="evenodd" />
    </mask>
  </defs>
  <g transform="matrix(1 0 0 1 -1236 -129 )">
    <path d="M 10.223400688888862 0.4916992199999868  C 4.921214305555483 0.4916992199999868  1.5410703999999922 4.000498899999997  0.8782970666667325 8.105794000000003  C 0.1492464944444944 12.667233100000004  2.767200405555488 15.9655037  8.10252554999992 15.9655037  C 10.488509361111003 15.9655037  12.708801161111182 15.474272600000006  14.531427733333341 14.421632799999998  L 15.094784027777717 11.0180972  C 13.338434694444533 12.3514409  11.085004511111164 13.123376799999988  9.162961844444453 13.123376799999988  C 6.511868700000024 13.123376799999988  4.390995166666622 11.965472900000009  4.722381833333253 9  L 15.724419166666609 9  C 15.856973833333388 8.947905600000013  16.02266612777785 8.386497700000007  16.122082127777883 7.6847377999999935  C 16.65230079444436 4.456642499999987  15.558725833333295 0.4916992199999868  10.223400688888862 0.4916992199999868  Z M 12.377414494444338 6.667185499999988  L 5.120046116666723 6.667185499999988  C 5.550848688888865 5.158401700000013  6.975812016666623 3.0531224599999973  9.52748916111102 3.0531224599999973  C 12.311136877777711 3.0531224599999973  12.60938516111115 5.298753699999992  12.377414494444338 6.667185499999988  Z " fill-rule="nonzero" fill="rgba(0, 82, 217, 1)" stroke="none" transform="matrix(1 0 0 1 1236 129 )" class="fill" />
    <path d="M 10.223400688888862 0.4916992199999868  C 4.921214305555483 0.4916992199999868  1.5410703999999922 4.000498899999997  0.8782970666667325 8.105794000000003  C 0.1492464944444944 12.667233100000004  2.767200405555488 15.9655037  8.10252554999992 15.9655037  C 10.488509361111003 15.9655037  12.708801161111182 15.474272600000006  14.531427733333341 14.421632799999998  L 15.094784027777717 11.0180972  C 13.338434694444533 12.3514409  11.085004511111164 13.123376799999988  9.162961844444453 13.123376799999988  C 6.511868700000024 13.123376799999988  4.390995166666622 11.965472900000009  4.722381833333253 9  L 15.724419166666609 9  C 15.856973833333388 8.947905600000013  16.02266612777785 8.386497700000007  16.122082127777883 7.6847377999999935  C 16.65230079444436 4.456642499999987  15.558725833333295 0.4916992199999868  10.223400688888862 0.4916992199999868  Z " stroke-width="0" stroke-dasharray="0" stroke="rgba(255, 255, 255, 0)" fill="none" transform="matrix(1 0 0 1 1236 129 )" class="stroke" mask="url(#Clip2511)" />
    <path d="M 12.377414494444338 6.667185499999988  L 5.120046116666723 6.667185499999988  C 5.550848688888865 5.158401700000013  6.975812016666623 3.0531224599999973  9.52748916111102 3.0531224599999973  C 12.311136877777711 3.0531224599999973  12.60938516111115 5.298753699999992  12.377414494444338 6.667185499999988  Z " stroke-width="0" stroke-dasharray="0" stroke="rgba(255, 255, 255, 0)" fill="none" transform="matrix(1 0 0 1 1236 129 )" class="stroke" mask="url(#Clip2511)" />
  </g>
</svg>