<?xml version="1.0" encoding="utf-8"?>
<svg version="1.1" xmlns:xlink="http://www.w3.org/1999/xlink" width="17px" height="16px" xmlns="http://www.w3.org/2000/svg">
  <defs>
    <pattern id="BGPattern" patternUnits="userSpaceOnUse" alignment="0 0" imageRepeat="None" />
    <mask fill="white" id="Clip2512">
      <path d="M 11.582289833333435 0.4916992199999868  C 8.997474305555631 0.4916992199999868  7.04229344444434 1.614515019999999  6.114410966666557 2.7724187800000095  L 6.014994022222191 2.7724187800000095  L 2.369741444444344 0.4916992199999868  C 2.237186777777778 1.7899549900000125  2.0383538333333795 3.5092665999999895  1.7732445944445518 5.2285783000000094  L 0.05003525000010238 15.649712599999987  L 4.192367733333374 15.649712599999987  L 5.650469255555499 6.912801699999989  C 5.716746588888782 6.49174579999999  5.849300216666708 6.035602699999998  6.0481321222222535 5.719810700000011  C 6.677766694444459 4.561906999999991  7.970175449999955 3.5092667700000106  9.627108405555457 3.5092667700000106  C 11.913675933333378 3.5092667700000106  12.510170799999981 5.1233140999999875  12.178784227777872 7.263681600000012  L 10.78696145555553 15.649712599999987  L 14.962432133333385 15.649712599999987  L 16.420531105555636 6.842625499999997  C 17.182720250000102 2.1759222899999884  14.43221469444437 0.4916992199999868  11.582289833333435 0.4916992199999868  Z " fill-rule="evenodd" />
    </mask>
  </defs>
  <g transform="matrix(1 0 0 1 -1253 -129 )">
    <path d="M 11.582289833333435 0.4916992199999868  C 8.997474305555631 0.4916992199999868  7.04229344444434 1.614515019999999  6.114410966666557 2.7724187800000095  L 6.014994022222191 2.7724187800000095  L 2.369741444444344 0.4916992199999868  C 2.237186777777778 1.7899549900000125  2.0383538333333795 3.5092665999999895  1.7732445944445518 5.2285783000000094  L 0.05003525000010238 15.649712599999987  L 4.192367733333374 15.649712599999987  L 5.650469255555499 6.912801699999989  C 5.716746588888782 6.49174579999999  5.849300216666708 6.035602699999998  6.0481321222222535 5.719810700000011  C 6.677766694444459 4.561906999999991  7.970175449999955 3.5092667700000106  9.627108405555457 3.5092667700000106  C 11.913675933333378 3.5092667700000106  12.510170799999981 5.1233140999999875  12.178784227777872 7.263681600000012  L 10.78696145555553 15.649712599999987  L 14.962432133333385 15.649712599999987  L 16.420531105555636 6.842625499999997  C 17.182720250000102 2.1759222899999884  14.43221469444437 0.4916992199999868  11.582289833333435 0.4916992199999868  Z " fill-rule="nonzero" fill="rgba(0, 82, 217, 1)" stroke="none" transform="matrix(1 0 0 1 1253 129 )" class="fill" />
    <path d="M 11.582289833333435 0.4916992199999868  C 8.997474305555631 0.4916992199999868  7.04229344444434 1.614515019999999  6.114410966666557 2.7724187800000095  L 6.014994022222191 2.7724187800000095  L 2.369741444444344 0.4916992199999868  C 2.237186777777778 1.7899549900000125  2.0383538333333795 3.5092665999999895  1.7732445944445518 5.2285783000000094  L 0.05003525000010238 15.649712599999987  L 4.192367733333374 15.649712599999987  L 5.650469255555499 6.912801699999989  C 5.716746588888782 6.49174579999999  5.849300216666708 6.035602699999998  6.0481321222222535 5.719810700000011  C 6.677766694444459 4.561906999999991  7.970175449999955 3.5092667700000106  9.627108405555457 3.5092667700000106  C 11.913675933333378 3.5092667700000106  12.510170799999981 5.1233140999999875  12.178784227777872 7.263681600000012  L 10.78696145555553 15.649712599999987  L 14.962432133333385 15.649712599999987  L 16.420531105555636 6.842625499999997  C 17.182720250000102 2.1759222899999884  14.43221469444437 0.4916992199999868  11.582289833333435 0.4916992199999868  Z " stroke-width="0" stroke-dasharray="0" stroke="rgba(255, 255, 255, 0)" fill="none" transform="matrix(1 0 0 1 1253 129 )" class="stroke" mask="url(#Clip2512)" />
  </g>
</svg>