<?xml version="1.0" encoding="utf-8"?>
<svg version="1.1" xmlns:xlink="http://www.w3.org/1999/xlink" width="21px" height="22px" xmlns="http://www.w3.org/2000/svg">
  <defs>
    <pattern id="BGPattern" patternUnits="userSpaceOnUse" alignment="0 0" imageRepeat="None" />
    <mask fill="white" id="Clip2517">
      <path d="M 1.4077693636363104 6.315419609999992  L 6.331259454545448 6.315419609999992  C 5.828862899999898 9.75404352999999  5.292973254545389 13.227755599999993  4.656604336363578 16.70146729999999  C 5.5944111681817095 15.964619400000004  6.565709086363489 15.192683899999992  7.470022922727283 14.385659900000007  L 6.967626368181733 17.543579800000003  C 5.292971249999864 19.0172757  3.0154383000000484 20.736587999999983  0.9053728090907602 21.999755899999997  C 1.8096866454545553 17.543580099999986  2.647016209090907 12.841787100000005  3.2833851272727195 8.52596324999999  L 1.0728383590908173 8.52596324999999  L 1.4077693636363104 6.315419609999992  Z M 7.168587013636273 5.192603719999994  C 6.833656009090781 3.473291759999995  6.3647525454544045 1.6838038599999974  5.996328449999954 0.03466799999999637  L 3.3503754136363053 0.03466799999999637  C 3.6853064181817983 1.7188919999999968  4.087215490909133 3.543467849999999  4.388653404545452 5.192603719999994  L 7.168587013636273 5.192603719999994  Z M 19.19260855909091 1  L 8.273855290909006 1  L 8.742756654545452 2.8417078800000013  L 16.915081718181856 2.8417078800000013  C 17.450971363636366 2.8417078800000013  17.71891618636351 2.9118838999999923  17.584943822727247 3.543467849999999  C 17.28350590909093 5.29786777999999  16.948566695454527 7.0873558399999865  16.61363559545441 8.841755769999992  L 13.06337502272719 8.841755769999992  L 13.66624674545459 5.122427789999989  L 11.187759259090782 3.6136437799999896  L 10.28344141363637 8.876843229999992  L 7.637488377272719 8.876843229999992  L 7.302557372727227 11.05229940000001  L 9.915015218181772 11.05229940000001  C 9.379125572727265 14.596187399999991  8.70927177272719 18.175164199999983  8.039409668181799 21.719052199999993  L 10.886323349999987 21.719052199999993  C 11.556185454545378 18.175164199999983  12.19254616363628 14.596187399999991  12.761928899999962 11.05229940000001  L 16.312199781818023 11.05229940000001  C 15.742817045454558 14.596187399999991  15.072961145454553 18.245340400000003  14.403099040908945 21.719052199999993  L 19.427064395454554 21.719052199999993  L 20.297876836363642 19.508507199999997  L 17.618428704545295 19.508507199999997  C 18.656714809090946 13.894427399999984  19.761991295454592 8.034731899999997  20.699798222727125 2.350475869999997  C 20.867263677272778 1.1223959200000024  20.632812040908995 0.6662519570000001  19.19260855909091 1  Z " fill-rule="evenodd" />
    </mask>
  </defs>
  <g transform="matrix(1 0 0 1 -1359 -123 )">
    <path d="M 1.4077693636363104 6.315419609999992  L 6.331259454545448 6.315419609999992  C 5.828862899999898 9.75404352999999  5.292973254545389 13.227755599999993  4.656604336363578 16.70146729999999  C 5.5944111681817095 15.964619400000004  6.565709086363489 15.192683899999992  7.470022922727283 14.385659900000007  L 6.967626368181733 17.543579800000003  C 5.292971249999864 19.0172757  3.0154383000000484 20.736587999999983  0.9053728090907602 21.999755899999997  C 1.8096866454545553 17.543580099999986  2.647016209090907 12.841787100000005  3.2833851272727195 8.52596324999999  L 1.0728383590908173 8.52596324999999  L 1.4077693636363104 6.315419609999992  Z M 7.168587013636273 5.192603719999994  C 6.833656009090781 3.473291759999995  6.3647525454544045 1.6838038599999974  5.996328449999954 0.03466799999999637  L 3.3503754136363053 0.03466799999999637  C 3.6853064181817983 1.7188919999999968  4.087215490909133 3.543467849999999  4.388653404545452 5.192603719999994  L 7.168587013636273 5.192603719999994  Z M 19.19260855909091 1  L 8.273855290909006 1  L 8.742756654545452 2.8417078800000013  L 16.915081718181856 2.8417078800000013  C 17.450971363636366 2.8417078800000013  17.71891618636351 2.9118838999999923  17.584943822727247 3.543467849999999  C 17.28350590909093 5.29786777999999  16.948566695454527 7.0873558399999865  16.61363559545441 8.841755769999992  L 13.06337502272719 8.841755769999992  L 13.66624674545459 5.122427789999989  L 11.187759259090782 3.6136437799999896  L 10.28344141363637 8.876843229999992  L 7.637488377272719 8.876843229999992  L 7.302557372727227 11.05229940000001  L 9.915015218181772 11.05229940000001  C 9.379125572727265 14.596187399999991  8.70927177272719 18.175164199999983  8.039409668181799 21.719052199999993  L 10.886323349999987 21.719052199999993  C 11.556185454545378 18.175164199999983  12.19254616363628 14.596187399999991  12.761928899999962 11.05229940000001  L 16.312199781818023 11.05229940000001  C 15.742817045454558 14.596187399999991  15.072961145454553 18.245340400000003  14.403099040908945 21.719052199999993  L 19.427064395454554 21.719052199999993  L 20.297876836363642 19.508507199999997  L 17.618428704545295 19.508507199999997  C 18.656714809090946 13.894427399999984  19.761991295454592 8.034731899999997  20.699798222727125 2.350475869999997  C 20.867263677272778 1.1223959200000024  20.632812040908995 0.6662519570000001  19.19260855909091 1  Z " fill-rule="nonzero" fill="rgba(0, 82, 217, 1)" stroke="none" transform="matrix(1 0 0 1 1359 123 )" class="fill" />
    <path d="M 1.4077693636363104 6.315419609999992  L 6.331259454545448 6.315419609999992  C 5.828862899999898 9.75404352999999  5.292973254545389 13.227755599999993  4.656604336363578 16.70146729999999  C 5.5944111681817095 15.964619400000004  6.565709086363489 15.192683899999992  7.470022922727283 14.385659900000007  L 6.967626368181733 17.543579800000003  C 5.292971249999864 19.0172757  3.0154383000000484 20.736587999999983  0.9053728090907602 21.999755899999997  C 1.8096866454545553 17.543580099999986  2.647016209090907 12.841787100000005  3.2833851272727195 8.52596324999999  L 1.0728383590908173 8.52596324999999  L 1.4077693636363104 6.315419609999992  Z " stroke-width="0" stroke-dasharray="0" stroke="rgba(255, 255, 255, 0)" fill="none" transform="matrix(1 0 0 1 1359 123 )" class="stroke" mask="url(#Clip2517)" />
    <path d="M 7.168587013636273 5.192603719999994  C 6.833656009090781 3.473291759999995  6.3647525454544045 1.6838038599999974  5.996328449999954 0.03466799999999637  L 3.3503754136363053 0.03466799999999637  C 3.6853064181817983 1.7188919999999968  4.087215490909133 3.543467849999999  4.388653404545452 5.192603719999994  L 7.168587013636273 5.192603719999994  Z " stroke-width="0" stroke-dasharray="0" stroke="rgba(255, 255, 255, 0)" fill="none" transform="matrix(1 0 0 1 1359 123 )" class="stroke" mask="url(#Clip2517)" />
    <path d="M 19.19260855909091 1  L 8.273855290909006 1  L 8.742756654545452 2.8417078800000013  L 16.915081718181856 2.8417078800000013  C 17.450971363636366 2.8417078800000013  17.71891618636351 2.9118838999999923  17.584943822727247 3.543467849999999  C 17.28350590909093 5.29786777999999  16.948566695454527 7.0873558399999865  16.61363559545441 8.841755769999992  L 13.06337502272719 8.841755769999992  L 13.66624674545459 5.122427789999989  L 11.187759259090782 3.6136437799999896  L 10.28344141363637 8.876843229999992  L 7.637488377272719 8.876843229999992  L 7.302557372727227 11.05229940000001  L 9.915015218181772 11.05229940000001  C 9.379125572727265 14.596187399999991  8.70927177272719 18.175164199999983  8.039409668181799 21.719052199999993  L 10.886323349999987 21.719052199999993  C 11.556185454545378 18.175164199999983  12.19254616363628 14.596187399999991  12.761928899999962 11.05229940000001  L 16.312199781818023 11.05229940000001  C 15.742817045454558 14.596187399999991  15.072961145454553 18.245340400000003  14.403099040908945 21.719052199999993  L 19.427064395454554 21.719052199999993  L 20.297876836363642 19.508507199999997  L 17.618428704545295 19.508507199999997  C 18.656714809090946 13.894427399999984  19.761991295454592 8.034731899999997  20.699798222727125 2.350475869999997  C 20.867263677272778 1.1223959200000024  20.632812040908995 0.6662519570000001  19.19260855909091 1  Z " stroke-width="0" stroke-dasharray="0" stroke="rgba(255, 255, 255, 0)" fill="none" transform="matrix(1 0 0 1 1359 123 )" class="stroke" mask="url(#Clip2517)" />
  </g>
</svg>