<?xml version="1.0" encoding="utf-8"?>
<svg version="1.1" xmlns:xlink="http://www.w3.org/1999/xlink" width="15px" height="20px" xmlns="http://www.w3.org/2000/svg">
  <defs>
    <pattern id="BGPattern" patternUnits="userSpaceOnUse" alignment="0 0" imageRepeat="None" />
    <mask fill="white" id="Clip2509">
      <path d="M 5.280437812499912 4.842463210000005  L 0.6422428124999158 4.842463210000005  L 2.451466875000037 7.614414519999997  L 4.819909687500044 7.614414519999997  L 2.846210624999941 19.649597199999988  L 6.958084687500019 19.649597199999988  L 8.931783749999909 7.614414519999997  L 14.096301562500031 7.614414519999997  L 5.971234687499916 0.666992190000002  L 5.280437812499912 4.842463210000005  Z " fill-rule="evenodd" />
    </mask>
  </defs>
  <g transform="matrix(1 0 0 1 -1320 -125 )">
    <path d="M 5.280437812499912 4.842463210000005  L 0.6422428124999158 4.842463210000005  L 2.451466875000037 7.614414519999997  L 4.819909687500044 7.614414519999997  L 2.846210624999941 19.649597199999988  L 6.958084687500019 19.649597199999988  L 8.931783749999909 7.614414519999997  L 14.096301562500031 7.614414519999997  L 5.971234687499916 0.666992190000002  L 5.280437812499912 4.842463210000005  Z " fill-rule="nonzero" fill="rgba(0, 82, 217, 1)" stroke="none" transform="matrix(1 0 0 1 1320 125 )" class="fill" />
    <path d="M 5.280437812499912 4.842463210000005  L 0.6422428124999158 4.842463210000005  L 2.451466875000037 7.614414519999997  L 4.819909687500044 7.614414519999997  L 2.846210624999941 19.649597199999988  L 6.958084687500019 19.649597199999988  L 8.931783749999909 7.614414519999997  L 14.096301562500031 7.614414519999997  L 5.971234687499916 0.666992190000002  L 5.280437812499912 4.842463210000005  Z " stroke-width="0" stroke-dasharray="0" stroke="rgba(255, 255, 255, 0)" fill="none" transform="matrix(1 0 0 1 1320 125 )" class="stroke" mask="url(#Clip2509)" />
  </g>
</svg>