<?xml version="1.0" encoding="utf-8"?>
<svg version="1.1" xmlns:xlink="http://www.w3.org/1999/xlink" width="16px" height="16px" xmlns="http://www.w3.org/2000/svg">
  <defs>
    <pattern id="BGPattern" patternUnits="userSpaceOnUse" alignment="0 0" imageRepeat="None" />
    <mask fill="white" id="Clip2515">
      <path d="M 0.19839623529418637 8.035001300000005  C -0.5611553882353131 12.631528199999991  2.477050635294076 15.964886699999994  7.628791905882442 15.964886699999994  C 9.67627877647058 15.964886699999994  12.12005148235296 15.333303099999995  13.044722917646997 14.9824232  L 13.705202635294185 11.017480500000005  C 12.25214738823535 12.666616000000005  10.303732423529523 13.01749620000001  8.916725176470637 13.01749620000001  C 6.109686776470506 13.01749620000001  3.9631281882352862 11.26309599999999  4.458488000000002 8.245528699999994  C 4.887799717647046 5.543753500000008  7.298548988235245 3.438474670000005  10.468851388235207 3.438474670000005  C 11.756786729411782 3.438474670000005  13.507057694117547 3.89461811999999  14.59684912941178 5.4384898000000135  L 15.224307764705907 1.4033713899999896  C 14.33266023529423 1.0524914799999863  12.912626070588244 0.5261716299999932  10.79909119999994 0.5261716299999932  C 5.052918399999993 0.49108362999999144  0.9249237647058822 3.6139142899999968  0.19839623529418637 8.035001300000005  Z " fill-rule="evenodd" />
    </mask>
  </defs>
  <g transform="matrix(1 0 0 1 -1271 -129 )">
    <path d="M 0.19839623529418637 8.035001300000005  C -0.5611553882353131 12.631528199999991  2.477050635294076 15.964886699999994  7.628791905882442 15.964886699999994  C 9.67627877647058 15.964886699999994  12.12005148235296 15.333303099999995  13.044722917646997 14.9824232  L 13.705202635294185 11.017480500000005  C 12.25214738823535 12.666616000000005  10.303732423529523 13.01749620000001  8.916725176470637 13.01749620000001  C 6.109686776470506 13.01749620000001  3.9631281882352862 11.26309599999999  4.458488000000002 8.245528699999994  C 4.887799717647046 5.543753500000008  7.298548988235245 3.438474670000005  10.468851388235207 3.438474670000005  C 11.756786729411782 3.438474670000005  13.507057694117547 3.89461811999999  14.59684912941178 5.4384898000000135  L 15.224307764705907 1.4033713899999896  C 14.33266023529423 1.0524914799999863  12.912626070588244 0.5261716299999932  10.79909119999994 0.5261716299999932  C 5.052918399999993 0.49108362999999144  0.9249237647058822 3.6139142899999968  0.19839623529418637 8.035001300000005  Z " fill-rule="nonzero" fill="rgba(0, 82, 217, 1)" stroke="none" transform="matrix(1 0 0 1 1271 129 )" class="fill" />
    <path d="M 0.19839623529418637 8.035001300000005  C -0.5611553882353131 12.631528199999991  2.477050635294076 15.964886699999994  7.628791905882442 15.964886699999994  C 9.67627877647058 15.964886699999994  12.12005148235296 15.333303099999995  13.044722917646997 14.9824232  L 13.705202635294185 11.017480500000005  C 12.25214738823535 12.666616000000005  10.303732423529523 13.01749620000001  8.916725176470637 13.01749620000001  C 6.109686776470506 13.01749620000001  3.9631281882352862 11.26309599999999  4.458488000000002 8.245528699999994  C 4.887799717647046 5.543753500000008  7.298548988235245 3.438474670000005  10.468851388235207 3.438474670000005  C 11.756786729411782 3.438474670000005  13.507057694117547 3.89461811999999  14.59684912941178 5.4384898000000135  L 15.224307764705907 1.4033713899999896  C 14.33266023529423 1.0524914799999863  12.912626070588244 0.5261716299999932  10.79909119999994 0.5261716299999932  C 5.052918399999993 0.49108362999999144  0.9249237647058822 3.6139142899999968  0.19839623529418637 8.035001300000005  Z " stroke-width="0" stroke-dasharray="0" stroke="rgba(255, 255, 255, 0)" fill="none" transform="matrix(1 0 0 1 1271 129 )" class="stroke" mask="url(#Clip2515)" />
  </g>
</svg>