<?xml version="1.0" encoding="utf-8"?>
<svg version="1.1" xmlns:xlink="http://www.w3.org/1999/xlink" width="18px" height="16px" xmlns="http://www.w3.org/2000/svg">
  <defs>
    <pattern id="BGPattern" patternUnits="userSpaceOnUse" alignment="0 0" imageRepeat="None" />
    <mask fill="white" id="Clip2513">
      <path d="M 12.416326010526374 0.4916992199999868  C 9.823508621052545 0.4916992199999868  7.862275042105371 1.614515019999999  6.931520147368533 2.7724187800000095  L 6.831800431579029 2.7724187800000095  L 3.1752631894735854 0.4916992199999868  C 3.0422981368421076 1.7899549900000125  2.842849705263066 3.5092665999999895  2.5769196947368123 5.2285783000000094  L 0.8483758105262256 15.649712599999987  L 5.0035318105264155 15.649712599999987  L 6.466144642105303 6.912801699999989  C 6.532627168421042 6.49174579999999  6.66559620000003 6.035602699999998  6.865043684210545 5.719810700000011  C 7.496627400000068 4.561906999999991  8.793032021052664 3.5092667700000106  10.45509442105274 3.5092667700000106  C 12.748740536842122 3.5092667700000106  13.347087063157877 5.1233140999999875  13.014674621052587 7.263681600000012  L 11.618538063157853 15.649712599999987  L 15.773694063157828 15.649712599999987  L 17.236307368421087 6.842625499999997  C 18.00085547368431 2.1759222899999884  15.27507350526316 0.4916992199999868  12.416326010526374 0.4916992199999868  Z " fill-rule="evenodd" />
    </mask>
  </defs>
  <g transform="matrix(1 0 0 1 -1303 -129 )">
    <path d="M 12.416326010526374 0.4916992199999868  C 9.823508621052545 0.4916992199999868  7.862275042105371 1.614515019999999  6.931520147368533 2.7724187800000095  L 6.831800431579029 2.7724187800000095  L 3.1752631894735854 0.4916992199999868  C 3.0422981368421076 1.7899549900000125  2.842849705263066 3.5092665999999895  2.5769196947368123 5.2285783000000094  L 0.8483758105262256 15.649712599999987  L 5.0035318105264155 15.649712599999987  L 6.466144642105303 6.912801699999989  C 6.532627168421042 6.49174579999999  6.66559620000003 6.035602699999998  6.865043684210545 5.719810700000011  C 7.496627400000068 4.561906999999991  8.793032021052664 3.5092667700000106  10.45509442105274 3.5092667700000106  C 12.748740536842122 3.5092667700000106  13.347087063157877 5.1233140999999875  13.014674621052587 7.263681600000012  L 11.618538063157853 15.649712599999987  L 15.773694063157828 15.649712599999987  L 17.236307368421087 6.842625499999997  C 18.00085547368431 2.1759222899999884  15.27507350526316 0.4916992199999868  12.416326010526374 0.4916992199999868  Z " fill-rule="nonzero" fill="rgba(0, 82, 217, 1)" stroke="none" transform="matrix(1 0 0 1 1303 129 )" class="fill" />
    <path d="M 12.416326010526374 0.4916992199999868  C 9.823508621052545 0.4916992199999868  7.862275042105371 1.614515019999999  6.931520147368533 2.7724187800000095  L 6.831800431579029 2.7724187800000095  L 3.1752631894735854 0.4916992199999868  C 3.0422981368421076 1.7899549900000125  2.842849705263066 3.5092665999999895  2.5769196947368123 5.2285783000000094  L 0.8483758105262256 15.649712599999987  L 5.0035318105264155 15.649712599999987  L 6.466144642105303 6.912801699999989  C 6.532627168421042 6.49174579999999  6.66559620000003 6.035602699999998  6.865043684210545 5.719810700000011  C 7.496627400000068 4.561906999999991  8.793032021052664 3.5092667700000106  10.45509442105274 3.5092667700000106  C 12.748740536842122 3.5092667700000106  13.347087063157877 5.1233140999999875  13.014674621052587 7.263681600000012  L 11.618538063157853 15.649712599999987  L 15.773694063157828 15.649712599999987  L 17.236307368421087 6.842625499999997  C 18.00085547368431 2.1759222899999884  15.27507350526316 0.4916992199999868  12.416326010526374 0.4916992199999868  Z " stroke-width="0" stroke-dasharray="0" stroke="rgba(255, 255, 255, 0)" fill="none" transform="matrix(1 0 0 1 1303 129 )" class="stroke" mask="url(#Clip2513)" />
  </g>
</svg>