<?xml version="1.0" encoding="utf-8"?>
<svg version="1.1" xmlns:xlink="http://www.w3.org/1999/xlink" width="17px" height="16px" xmlns="http://www.w3.org/2000/svg">
  <defs>
    <pattern id="BGPattern" patternUnits="userSpaceOnUse" alignment="0 0" imageRepeat="None" />
    <mask fill="white" id="Clip2514">
      <path d="M 10.041476416666631 0.4916992199999868  C 4.7392886166667525 0.4916992199999868  1.3591450888889085 4.000498899999997  0.6963716611111295 8.105794000000003  C -0.03267919444445195 12.667233100000004  2.585276794444465 15.9655037  7.920603355555613 15.9655037  C 10.306587827777687 15.9655037  12.526877644444465 15.474272600000006  14.34950468888879 14.421632799999998  L 14.912866177777863 11.0180972  C 13.1565163722223 12.3514409  10.903083072222154 13.123376799999988  8.981039933333275 13.123376799999988  C 6.329946033333335 13.123376799999988  4.209072877777797 11.965472900000009  4.5404596388889455 9  L 15.54249895555549 9  C 15.67505362222227 8.947905600000013  15.840746011111037 8.386497700000007  15.940162011111068 7.6847377999999935  C 16.47038077222228 4.456642499999987  15.3768030722223 0.4916992199999868  10.041476416666631 0.4916992199999868  Z M 12.195490883333315 6.667185499999988  L 4.971263438888981 6.667185499999988  C 5.402066199999948 5.158401700000013  6.82702518333325 3.0531224599999973  9.378702988888852 3.0531224599999973  C 12.162351461111054 3.0531224599999973  12.46060031111118 5.298753699999992  12.195490883333315 6.667185499999988  Z " fill-rule="evenodd" />
    </mask>
  </defs>
  <g transform="matrix(1 0 0 1 -1287 -129 )">
    <path d="M 10.041476416666631 0.4916992199999868  C 4.7392886166667525 0.4916992199999868  1.3591450888889085 4.000498899999997  0.6963716611111295 8.105794000000003  C -0.03267919444445195 12.667233100000004  2.585276794444465 15.9655037  7.920603355555613 15.9655037  C 10.306587827777687 15.9655037  12.526877644444465 15.474272600000006  14.34950468888879 14.421632799999998  L 14.912866177777863 11.0180972  C 13.1565163722223 12.3514409  10.903083072222154 13.123376799999988  8.981039933333275 13.123376799999988  C 6.329946033333335 13.123376799999988  4.209072877777797 11.965472900000009  4.5404596388889455 9  L 15.54249895555549 9  C 15.67505362222227 8.947905600000013  15.840746011111037 8.386497700000007  15.940162011111068 7.6847377999999935  C 16.47038077222228 4.456642499999987  15.3768030722223 0.4916992199999868  10.041476416666631 0.4916992199999868  Z M 12.195490883333315 6.667185499999988  L 4.971263438888981 6.667185499999988  C 5.402066199999948 5.158401700000013  6.82702518333325 3.0531224599999973  9.378702988888852 3.0531224599999973  C 12.162351461111054 3.0531224599999973  12.46060031111118 5.298753699999992  12.195490883333315 6.667185499999988  Z " fill-rule="nonzero" fill="rgba(0, 82, 217, 1)" stroke="none" transform="matrix(1 0 0 1 1287 129 )" class="fill" />
    <path d="M 10.041476416666631 0.4916992199999868  C 4.7392886166667525 0.4916992199999868  1.3591450888889085 4.000498899999997  0.6963716611111295 8.105794000000003  C -0.03267919444445195 12.667233100000004  2.585276794444465 15.9655037  7.920603355555613 15.9655037  C 10.306587827777687 15.9655037  12.526877644444465 15.474272600000006  14.34950468888879 14.421632799999998  L 14.912866177777863 11.0180972  C 13.1565163722223 12.3514409  10.903083072222154 13.123376799999988  8.981039933333275 13.123376799999988  C 6.329946033333335 13.123376799999988  4.209072877777797 11.965472900000009  4.5404596388889455 9  L 15.54249895555549 9  C 15.67505362222227 8.947905600000013  15.840746011111037 8.386497700000007  15.940162011111068 7.6847377999999935  C 16.47038077222228 4.456642499999987  15.3768030722223 0.4916992199999868  10.041476416666631 0.4916992199999868  Z " stroke-width="0" stroke-dasharray="0" stroke="rgba(255, 255, 255, 0)" fill="none" transform="matrix(1 0 0 1 1287 129 )" class="stroke" mask="url(#Clip2514)" />
    <path d="M 12.195490883333315 6.667185499999988  L 4.971263438888981 6.667185499999988  C 5.402066199999948 5.158401700000013  6.82702518333325 3.0531224599999973  9.378702988888852 3.0531224599999973  C 12.162351461111054 3.0531224599999973  12.46060031111118 5.298753699999992  12.195490883333315 6.667185499999988  Z " stroke-width="0" stroke-dasharray="0" stroke="rgba(255, 255, 255, 0)" fill="none" transform="matrix(1 0 0 1 1287 129 )" class="stroke" mask="url(#Clip2514)" />
  </g>
</svg>