<?xml version="1.0" encoding="utf-8"?>
<svg version="1.1" xmlns:xlink="http://www.w3.org/1999/xlink" width="51px" height="17px" xmlns="http://www.w3.org/2000/svg">
  <defs>
    <pattern id="BGPattern" patternUnits="userSpaceOnUse" alignment="0 0" imageRepeat="None" />
    <mask fill="white" id="Clip66">
      <path d="M 0 2.125  C 0 0.9513949062499936  1.0703192695312653 0  2.390625 0  L 48.609375 0  C 49.929680690625 0  51 0.9513949062499936  51 2.125  L 51 14.875  C 51 16.048605058333333  49.929680690625 17  48.609375 17  L 2.390625 17  C 1.0703192695312653 17  0 16.048605058333333  0 14.875  L 0 2.125  Z " fill-rule="evenodd" />
    </mask>
  </defs>
  <g transform="matrix(1 0 0 1 -338 -171 )">
    <path d="M 0 2.125  C 0 0.9513949062499936  1.0703192695312653 0  2.390625 0  L 48.609375 0  C 49.929680690625 0  51 0.9513949062499936  51 2.125  L 51 14.875  C 51 16.048605058333333  49.929680690625 17  48.609375 17  L 2.390625 17  C 1.0703192695312653 17  0 16.048605058333333  0 14.875  L 0 2.125  Z " fill-rule="nonzero" fill="rgba(188, 235, 220, 1)" stroke="none" transform="matrix(1 0 0 1 338 171 )" class="fill" />
    <path d="M 0 2.125  C 0 0.9513949062499936  1.0703192695312653 0  2.390625 0  L 48.609375 0  C 49.929680690625 0  51 0.9513949062499936  51 2.125  L 51 14.875  C 51 16.048605058333333  49.929680690625 17  48.609375 17  L 2.390625 17  C 1.0703192695312653 17  0 16.048605058333333  0 14.875  L 0 2.125  Z " stroke-width="0" stroke-dasharray="0" stroke="rgba(255, 255, 255, 0)" fill="none" transform="matrix(1 0 0 1 338 171 )" class="stroke" mask="url(#Clip66)" />
  </g>
</svg>