<?xml version="1.0" encoding="utf-8"?>
<svg version="1.1" xmlns:xlink="http://www.w3.org/1999/xlink" width="47px" height="47px" xmlns="http://www.w3.org/2000/svg">
  <defs>
    <pattern id="BGPattern" patternUnits="userSpaceOnUse" alignment="0 0" imageRepeat="None" />
    <mask fill="white" id="Clip713">
      <path d="M 47 23.5  C 47 10.516249999999996  36.48375000000001 0  23.5 0  C 10.516249999999996 0  0 10.516249999999996  0 23.5  C 0 36.48375000000001  10.516249999999996 47  23.5 47  C 36.48375000000001 47  47 36.48375000000001  47 23.5  Z M 16.44999999999998 14.09999999999999  C 16.44999999999998 10.210749999999997  19.610750000000007 7.050000000000017  23.5 7.050000000000017  C 27.389249999999993 7.050000000000017  30.55000000000002 10.210749999999997  30.55000000000002 14.09999999999999  C 30.55000000000002 18.001  27.389249999999993 21.15000000000001  23.5 21.15000000000001  C 19.610750000000007 21.15000000000001  16.44999999999998 18.001  16.44999999999998 14.09999999999999  Z M 37.599999999999994 32.852999999999994  C 34.55674999999999 37.41200000000001  29.386750000000013 40.420000000000016  23.5 40.420000000000016  C 17.613249999999987 40.420000000000016  12.443250000000013 37.41200000000001  9.40000000000001 32.852999999999994  C 9.458749999999997 28.18825000000001  18.81174999999999 25.614999999999995  23.5 25.614999999999995  C 28.18825000000001 25.614999999999995  37.52949999999999 28.18825000000001  37.599999999999994 32.852999999999994  Z " fill-rule="evenodd" />
    </mask>
  </defs>
  <g transform="matrix(1 0 0 1 -74 -722 )">
    <path d="M 47 23.5  C 47 10.516249999999996  36.48375000000001 0  23.5 0  C 10.516249999999996 0  0 10.516249999999996  0 23.5  C 0 36.48375000000001  10.516249999999996 47  23.5 47  C 36.48375000000001 47  47 36.48375000000001  47 23.5  Z M 16.44999999999998 14.09999999999999  C 16.44999999999998 10.210749999999997  19.610750000000007 7.050000000000017  23.5 7.050000000000017  C 27.389249999999993 7.050000000000017  30.55000000000002 10.210749999999997  30.55000000000002 14.09999999999999  C 30.55000000000002 18.001  27.389249999999993 21.15000000000001  23.5 21.15000000000001  C 19.610750000000007 21.15000000000001  16.44999999999998 18.001  16.44999999999998 14.09999999999999  Z M 37.599999999999994 32.852999999999994  C 34.55674999999999 37.41200000000001  29.386750000000013 40.420000000000016  23.5 40.420000000000016  C 17.613249999999987 40.420000000000016  12.443250000000013 37.41200000000001  9.40000000000001 32.852999999999994  C 9.458749999999997 28.18825000000001  18.81174999999999 25.614999999999995  23.5 25.614999999999995  C 28.18825000000001 25.614999999999995  37.52949999999999 28.18825000000001  37.599999999999994 32.852999999999994  Z " fill-rule="nonzero" fill="rgba(0, 0, 0, 1)" stroke="none" transform="matrix(1 0 0 1 74 722 )" class="fill" />
    <path d="M 47 23.5  C 47 10.516249999999996  36.48375000000001 0  23.5 0  C 10.516249999999996 0  0 10.516249999999996  0 23.5  C 0 36.48375000000001  10.516249999999996 47  23.5 47  C 36.48375000000001 47  47 36.48375000000001  47 23.5  Z " stroke-width="0" stroke-dasharray="0" stroke="rgba(255, 255, 255, 0)" fill="none" transform="matrix(1 0 0 1 74 722 )" class="stroke" mask="url(#Clip713)" />
    <path d="M 16.44999999999998 14.09999999999999  C 16.44999999999998 10.210749999999997  19.610750000000007 7.050000000000017  23.5 7.050000000000017  C 27.389249999999993 7.050000000000017  30.55000000000002 10.210749999999997  30.55000000000002 14.09999999999999  C 30.55000000000002 18.001  27.389249999999993 21.15000000000001  23.5 21.15000000000001  C 19.610750000000007 21.15000000000001  16.44999999999998 18.001  16.44999999999998 14.09999999999999  Z " stroke-width="0" stroke-dasharray="0" stroke="rgba(255, 255, 255, 0)" fill="none" transform="matrix(1 0 0 1 74 722 )" class="stroke" mask="url(#Clip713)" />
    <path d="M 37.599999999999994 32.852999999999994  C 34.55674999999999 37.41200000000001  29.386750000000013 40.420000000000016  23.5 40.420000000000016  C 17.613249999999987 40.420000000000016  12.443250000000013 37.41200000000001  9.40000000000001 32.852999999999994  C 9.458749999999997 28.18825000000001  18.81174999999999 25.614999999999995  23.5 25.614999999999995  C 28.18825000000001 25.614999999999995  37.52949999999999 28.18825000000001  37.599999999999994 32.852999999999994  Z " stroke-width="0" stroke-dasharray="0" stroke="rgba(255, 255, 255, 0)" fill="none" transform="matrix(1 0 0 1 74 722 )" class="stroke" mask="url(#Clip713)" />
  </g>
</svg>