<?xml version="1.0" encoding="utf-8"?>
<svg version="1.1" xmlns:xlink="http://www.w3.org/1999/xlink" width="11px" height="15px" xmlns="http://www.w3.org/2000/svg">
  <defs>
    <pattern id="BGPattern" patternUnits="userSpaceOnUse" alignment="0 0" imageRepeat="None" />
    <mask fill="white" id="Clip433">
      <path d="M 7.791666666666667 2.142857142857143  L 11 2.142857142857143  L 11 3.214285714285714  L 10 3.214285714285714  L 10 13.928571428571429  C 10.083333333333332 14.520305571428572  9.67292718333336 15  9.166666666666668 15  L 1.8333333333333333 15  C 1.3270721200000444 15  0.9166666666666666 14.520304500000002  1 13.928571428571429  L 1 3.214285714285714  L 0 3.214285714285714  L 0 2.142857142857143  L 3.2083333333333335 2.142857142857143  L 3.2083333333333335 0.8571436392857151  C 3.2083333333333335 0.38375682857142907  3.536657831666664 0  3.9416668408333257 0  L 7.058333159166675 0  C 7.463341966666614 0  7.791666666666667 0.38375587499999964  7.791666666666667 0.8571429964285723  L 7.791666666666667 2.142857142857143  Z M 2 3.214285714285714  L 2 13.928571428571429  L 9 13.928571428571429  L 9 3.214285714285714  L 2 3.214285714285714  Z M 6.875 1.0714285714285714  L 4.125 1.0714285714285714  L 4.125 2.142857142857143  L 6.875 2.142857142857143  L 6.875 1.0714285714285714  Z M 3.6666666666666665 11.785714285714285  L 3.6666666666666665 5.357142857142858  L 4.583333333333334 5.357142857142858  L 4.583333333333334 11.785714285714285  L 3.6666666666666665 11.785714285714285  Z M 7.333333333333333 11.785714285714285  L 6.416666666666667 11.785714285714285  L 6.416666666666667 5.357142857142858  L 7.333333333333333 5.357142857142858  L 7.333333333333333 11.785714285714285  Z " fill-rule="evenodd" />
    </mask>
  </defs>
  <g transform="matrix(1 0 0 1 -920 -692 )">
    <path d="M 7.791666666666667 2.142857142857143  L 11 2.142857142857143  L 11 3.214285714285714  L 10 3.214285714285714  L 10 13.928571428571429  C 10.083333333333332 14.520305571428572  9.67292718333336 15  9.166666666666668 15  L 1.8333333333333333 15  C 1.3270721200000444 15  0.9166666666666666 14.520304500000002  1 13.928571428571429  L 1 3.214285714285714  L 0 3.214285714285714  L 0 2.142857142857143  L 3.2083333333333335 2.142857142857143  L 3.2083333333333335 0.8571436392857151  C 3.2083333333333335 0.38375682857142907  3.536657831666664 0  3.9416668408333257 0  L 7.058333159166675 0  C 7.463341966666614 0  7.791666666666667 0.38375587499999964  7.791666666666667 0.8571429964285723  L 7.791666666666667 2.142857142857143  Z M 2 3.214285714285714  L 2 13.928571428571429  L 9 13.928571428571429  L 9 3.214285714285714  L 2 3.214285714285714  Z M 6.875 1.0714285714285714  L 4.125 1.0714285714285714  L 4.125 2.142857142857143  L 6.875 2.142857142857143  L 6.875 1.0714285714285714  Z M 3.6666666666666665 11.785714285714285  L 3.6666666666666665 5.357142857142858  L 4.583333333333334 5.357142857142858  L 4.583333333333334 11.785714285714285  L 3.6666666666666665 11.785714285714285  Z M 7.333333333333333 11.785714285714285  L 6.416666666666667 11.785714285714285  L 6.416666666666667 5.357142857142858  L 7.333333333333333 5.357142857142858  L 7.333333333333333 11.785714285714285  Z " fill-rule="nonzero" fill="rgba(255, 255, 255, 0.8980392156862745)" stroke="none" transform="matrix(1 0 0 1 920 692 )" class="fill" />
    <path d="M 7.791666666666667 2.142857142857143  L 11 2.142857142857143  L 11 3.214285714285714  L 10 3.214285714285714  L 10 13.928571428571429  C 10.083333333333332 14.520305571428572  9.67292718333336 15  9.166666666666668 15  L 1.8333333333333333 15  C 1.3270721200000444 15  0.9166666666666666 14.520304500000002  1 13.928571428571429  L 1 3.214285714285714  L 0 3.214285714285714  L 0 2.142857142857143  L 3.2083333333333335 2.142857142857143  L 3.2083333333333335 0.8571436392857151  C 3.2083333333333335 0.38375682857142907  3.536657831666664 0  3.9416668408333257 0  L 7.058333159166675 0  C 7.463341966666614 0  7.791666666666667 0.38375587499999964  7.791666666666667 0.8571429964285723  L 7.791666666666667 2.142857142857143  Z " stroke-width="0" stroke-dasharray="0" stroke="rgba(255, 255, 255, 0)" fill="none" transform="matrix(1 0 0 1 920 692 )" class="stroke" mask="url(#Clip433)" />
    <path d="M 2 3.214285714285714  L 2 13.928571428571429  L 9 13.928571428571429  L 9 3.214285714285714  L 2 3.214285714285714  Z " stroke-width="0" stroke-dasharray="0" stroke="rgba(255, 255, 255, 0)" fill="none" transform="matrix(1 0 0 1 920 692 )" class="stroke" mask="url(#Clip433)" />
    <path d="M 6.875 1.0714285714285714  L 4.125 1.0714285714285714  L 4.125 2.142857142857143  L 6.875 2.142857142857143  L 6.875 1.0714285714285714  Z " stroke-width="0" stroke-dasharray="0" stroke="rgba(255, 255, 255, 0)" fill="none" transform="matrix(1 0 0 1 920 692 )" class="stroke" mask="url(#Clip433)" />
    <path d="M 3.6666666666666665 11.785714285714285  L 3.6666666666666665 5.357142857142858  L 4.583333333333334 5.357142857142858  L 4.583333333333334 11.785714285714285  L 3.6666666666666665 11.785714285714285  Z " stroke-width="0" stroke-dasharray="0" stroke="rgba(255, 255, 255, 0)" fill="none" transform="matrix(1 0 0 1 920 692 )" class="stroke" mask="url(#Clip433)" />
    <path d="M 7.333333333333333 11.785714285714285  L 6.416666666666667 11.785714285714285  L 6.416666666666667 5.357142857142858  L 7.333333333333333 5.357142857142858  L 7.333333333333333 11.785714285714285  Z " stroke-width="0" stroke-dasharray="0" stroke="rgba(255, 255, 255, 0)" fill="none" transform="matrix(1 0 0 1 920 692 )" class="stroke" mask="url(#Clip433)" />
  </g>
</svg>