<?xml version="1.0" encoding="utf-8"?>
<svg version="1.1" xmlns:xlink="http://www.w3.org/1999/xlink" width="11px" height="16px" xmlns="http://www.w3.org/2000/svg">
  <defs>
    <pattern id="BGPattern" patternUnits="userSpaceOnUse" alignment="0 0" imageRepeat="None" />
    <mask fill="white" id="Clip707">
      <path d="M 7.791666666666667 2.2857142857142856  L 11 2.2857142857142856  L 11 3.4285714285714284  L 10 3.4285714285714284  L 10 14.857142857142858  C 10.083333333333332 15.488325942857143  9.67292718333336 16  9.166666666666668 16  L 1.8333333333333333 16  C 1.3270721200000444 16  0.9166666666666666 15.488324800000003  1 14.857142857142858  L 1 3.4285714285714284  L 0 3.4285714285714284  L 0 2.2857142857142856  L 3.2083333333333335 2.2857142857142856  L 3.2083333333333335 0.9142865485714294  C 3.2083333333333335 0.4093406171428577  3.536657831666664 0  3.9416668408333257 0  L 7.058333159166675 0  C 7.463341966666614 0  7.791666666666667 0.40933959999999964  7.791666666666667 0.9142858628571437  L 7.791666666666667 2.2857142857142856  Z M 2 3.4285714285714284  L 2 14.857142857142858  L 9 14.857142857142858  L 9 3.4285714285714284  L 2 3.4285714285714284  Z M 6.875 1.1428571428571428  L 4.125 1.1428571428571428  L 4.125 2.2857142857142856  L 6.875 2.2857142857142856  L 6.875 1.1428571428571428  Z M 3.6666666666666665 12.571428571428571  L 3.6666666666666665 5.714285714285714  L 4.583333333333334 5.714285714285714  L 4.583333333333334 12.571428571428571  L 3.6666666666666665 12.571428571428571  Z M 7.333333333333333 12.571428571428571  L 6.416666666666667 12.571428571428571  L 6.416666666666667 5.714285714285714  L 7.333333333333333 5.714285714285714  L 7.333333333333333 12.571428571428571  Z " fill-rule="evenodd" />
    </mask>
  </defs>
  <g transform="matrix(1 0 0 1 -936 -755 )">
    <path d="M 7.791666666666667 2.2857142857142856  L 11 2.2857142857142856  L 11 3.4285714285714284  L 10 3.4285714285714284  L 10 14.857142857142858  C 10.083333333333332 15.488325942857143  9.67292718333336 16  9.166666666666668 16  L 1.8333333333333333 16  C 1.3270721200000444 16  0.9166666666666666 15.488324800000003  1 14.857142857142858  L 1 3.4285714285714284  L 0 3.4285714285714284  L 0 2.2857142857142856  L 3.2083333333333335 2.2857142857142856  L 3.2083333333333335 0.9142865485714294  C 3.2083333333333335 0.4093406171428577  3.536657831666664 0  3.9416668408333257 0  L 7.058333159166675 0  C 7.463341966666614 0  7.791666666666667 0.40933959999999964  7.791666666666667 0.9142858628571437  L 7.791666666666667 2.2857142857142856  Z M 2 3.4285714285714284  L 2 14.857142857142858  L 9 14.857142857142858  L 9 3.4285714285714284  L 2 3.4285714285714284  Z M 6.875 1.1428571428571428  L 4.125 1.1428571428571428  L 4.125 2.2857142857142856  L 6.875 2.2857142857142856  L 6.875 1.1428571428571428  Z M 3.6666666666666665 12.571428571428571  L 3.6666666666666665 5.714285714285714  L 4.583333333333334 5.714285714285714  L 4.583333333333334 12.571428571428571  L 3.6666666666666665 12.571428571428571  Z M 7.333333333333333 12.571428571428571  L 6.416666666666667 12.571428571428571  L 6.416666666666667 5.714285714285714  L 7.333333333333333 5.714285714285714  L 7.333333333333333 12.571428571428571  Z " fill-rule="nonzero" fill="rgba(255, 255, 255, 0.8980392156862745)" stroke="none" transform="matrix(1 0 0 1 936 755 )" class="fill" />
    <path d="M 7.791666666666667 2.2857142857142856  L 11 2.2857142857142856  L 11 3.4285714285714284  L 10 3.4285714285714284  L 10 14.857142857142858  C 10.083333333333332 15.488325942857143  9.67292718333336 16  9.166666666666668 16  L 1.8333333333333333 16  C 1.3270721200000444 16  0.9166666666666666 15.488324800000003  1 14.857142857142858  L 1 3.4285714285714284  L 0 3.4285714285714284  L 0 2.2857142857142856  L 3.2083333333333335 2.2857142857142856  L 3.2083333333333335 0.9142865485714294  C 3.2083333333333335 0.4093406171428577  3.536657831666664 0  3.9416668408333257 0  L 7.058333159166675 0  C 7.463341966666614 0  7.791666666666667 0.40933959999999964  7.791666666666667 0.9142858628571437  L 7.791666666666667 2.2857142857142856  Z " stroke-width="0" stroke-dasharray="0" stroke="rgba(255, 255, 255, 0)" fill="none" transform="matrix(1 0 0 1 936 755 )" class="stroke" mask="url(#Clip707)" />
    <path d="M 2 3.4285714285714284  L 2 14.857142857142858  L 9 14.857142857142858  L 9 3.4285714285714284  L 2 3.4285714285714284  Z " stroke-width="0" stroke-dasharray="0" stroke="rgba(255, 255, 255, 0)" fill="none" transform="matrix(1 0 0 1 936 755 )" class="stroke" mask="url(#Clip707)" />
    <path d="M 6.875 1.1428571428571428  L 4.125 1.1428571428571428  L 4.125 2.2857142857142856  L 6.875 2.2857142857142856  L 6.875 1.1428571428571428  Z " stroke-width="0" stroke-dasharray="0" stroke="rgba(255, 255, 255, 0)" fill="none" transform="matrix(1 0 0 1 936 755 )" class="stroke" mask="url(#Clip707)" />
    <path d="M 3.6666666666666665 12.571428571428571  L 3.6666666666666665 5.714285714285714  L 4.583333333333334 5.714285714285714  L 4.583333333333334 12.571428571428571  L 3.6666666666666665 12.571428571428571  Z " stroke-width="0" stroke-dasharray="0" stroke="rgba(255, 255, 255, 0)" fill="none" transform="matrix(1 0 0 1 936 755 )" class="stroke" mask="url(#Clip707)" />
    <path d="M 7.333333333333333 12.571428571428571  L 6.416666666666667 12.571428571428571  L 6.416666666666667 5.714285714285714  L 7.333333333333333 5.714285714285714  L 7.333333333333333 12.571428571428571  Z " stroke-width="0" stroke-dasharray="0" stroke="rgba(255, 255, 255, 0)" fill="none" transform="matrix(1 0 0 1 936 755 )" class="stroke" mask="url(#Clip707)" />
  </g>
</svg>