<?xml version="1.0" encoding="utf-8"?>
<svg version="1.1" xmlns:xlink="http://www.w3.org/1999/xlink" width="14px" height="12px" xmlns="http://www.w3.org/2000/svg">
  <defs>
    <pattern id="BGPattern" patternUnits="userSpaceOnUse" alignment="0 0" imageRepeat="None" />
    <mask fill="white" id="Clip724">
      <path d="M 0 6  C 0 2.6399999999999997  3.0799999999999996 0  7 0  C 10.92 0  14 2.6399999999999997  14 6  C 14 9.36  10.92 12  7 12  C 3.0799999999999996 12  0 9.36  0 6  Z " fill-rule="evenodd" />
    </mask>
  </defs>
  <g transform="matrix(1 0 0 1 -763 -561 )">
    <path d="M 0 6  C 0 2.6399999999999997  3.0799999999999996 0  7 0  C 10.92 0  14 2.6399999999999997  14 6  C 14 9.36  10.92 12  7 12  C 3.0799999999999996 12  0 9.36  0 6  Z " fill-rule="nonzero" fill="rgba(0, 82, 217, 1)" stroke="none" transform="matrix(1 0 0 1 763 561 )" class="fill" />
    <path d="M 0 6  C 0 2.6399999999999997  3.0799999999999996 0  7 0  C 10.92 0  14 2.6399999999999997  14 6  C 14 9.36  10.92 12  7 12  C 3.0799999999999996 12  0 9.36  0 6  Z " stroke-width="4" stroke-dasharray="0" stroke="rgba(255, 255, 255, 1)" fill="none" transform="matrix(1 0 0 1 763 561 )" class="stroke" mask="url(#Clip724)" />
  </g>
</svg>