<?xml version="1.0" encoding="utf-8"?>
<svg version="1.1" xmlns:xlink="http://www.w3.org/1999/xlink" width="9px" height="9px" xmlns="http://www.w3.org/2000/svg">
  <defs>
    <pattern id="BGPattern" patternUnits="userSpaceOnUse" alignment="0 0" imageRepeat="None" />
    <mask fill="white" id="Clip726">
      <path d="M 9 4.5  C 9 6.709138999999993  6.9852813749999925 8.5  4.5 8.5  C 2.0147186250000075 8.5  0 6.709138999999993  0 4.5  C 0 2.2908610000000067  2.0147186250000075 0.5  4.5 0.5  C 6.9852813749999925 0.5  9 2.2908610000000067  9 4.5  Z " fill-rule="evenodd" />
    </mask>
  </defs>
  <g transform="matrix(1 0 0 1 -572 -605 )">
    <path d="M 9 4.5  C 9 6.709138999999993  6.9852813749999925 8.5  4.5 8.5  C 2.0147186250000075 8.5  0 6.709138999999993  0 4.5  C 0 2.2908610000000067  2.0147186250000075 0.5  4.5 0.5  C 6.9852813749999925 0.5  9 2.2908610000000067  9 4.5  Z " fill-rule="nonzero" fill="rgba(0, 82, 217, 1)" stroke="none" transform="matrix(1 0 0 1 572 605 )" class="fill" />
    <path d="M 9 4.5  C 9 6.709138999999993  6.9852813749999925 8.5  4.5 8.5  C 2.0147186250000075 8.5  0 6.709138999999993  0 4.5  C 0 2.2908610000000067  2.0147186250000075 0.5  4.5 0.5  C 6.9852813749999925 0.5  9 2.2908610000000067  9 4.5  Z " stroke-width="0" stroke-dasharray="0" stroke="rgba(255, 255, 255, 0)" fill="none" transform="matrix(1 0 0 1 572 605 )" class="stroke" mask="url(#Clip726)" />
  </g>
</svg>