<?xml version="1.0" encoding="utf-8"?>
<svg version="1.1" xmlns:xlink="http://www.w3.org/1999/xlink" width="9px" height="8px" xmlns="http://www.w3.org/2000/svg">
  <defs>
    <pattern id="BGPattern" patternUnits="userSpaceOnUse" alignment="0 0" imageRepeat="None" />
    <mask fill="white" id="Clip446">
      <path d="M 9 4  C 9 5.963679111111105  6.9852813749999925 7.555555555555555  4.5 7.555555555555555  C 2.0147186250000075 7.555555555555555  0 5.963679111111105  0 4  C 0 2.036320888888895  2.0147186250000075 0.4444444444444444  4.5 0.4444444444444444  C 6.9852813749999925 0.4444444444444444  9 2.036320888888895  9 4  Z " fill-rule="evenodd" />
    </mask>
  </defs>
  <g transform="matrix(1 0 0 1 -555 -539 )">
    <path d="M 9 4  C 9 5.963679111111105  6.9852813749999925 7.555555555555555  4.5 7.555555555555555  C 2.0147186250000075 7.555555555555555  0 5.963679111111105  0 4  C 0 2.036320888888895  2.0147186250000075 0.4444444444444444  4.5 0.4444444444444444  C 6.9852813749999925 0.4444444444444444  9 2.036320888888895  9 4  Z " fill-rule="nonzero" fill="rgba(0, 82, 217, 1)" stroke="none" transform="matrix(1 0 0 1 555 539 )" class="fill" />
    <path d="M 9 4  C 9 5.963679111111105  6.9852813749999925 7.555555555555555  4.5 7.555555555555555  C 2.0147186250000075 7.555555555555555  0 5.963679111111105  0 4  C 0 2.036320888888895  2.0147186250000075 0.4444444444444444  4.5 0.4444444444444444  C 6.9852813749999925 0.4444444444444444  9 2.036320888888895  9 4  Z " stroke-width="0" stroke-dasharray="0" stroke="rgba(255, 255, 255, 0)" fill="none" transform="matrix(1 0 0 1 555 539 )" class="stroke" mask="url(#Clip446)" />
  </g>
</svg>