<?xml version="1.0" encoding="utf-8"?>
<svg version="1.1" xmlns:xlink="http://www.w3.org/1999/xlink" width="9px" height="8px" xmlns="http://www.w3.org/2000/svg">
  <defs>
    <pattern id="BGPattern" patternUnits="userSpaceOnUse" alignment="0 0" imageRepeat="None" />
    <mask fill="white" id="Clip727">
      <path d="M 9 4  C 9 6.209138999999993  6.985281375000056 8  4.5 8  C 2.0147186249999436 8  0 6.209138999999993  0 4  C 0 1.7908610000000067  2.0147186249999436 0  4.5 0  C 6.985281375000056 0  9 1.7908610000000067  9 4  Z " fill-rule="evenodd" />
    </mask>
  </defs>
  <g transform="matrix(1 0 0 1 -961 -613 )">
    <path d="M 9 4  C 9 6.209138999999993  6.985281375000056 8  4.5 8  C 2.0147186249999436 8  0 6.209138999999993  0 4  C 0 1.7908610000000067  2.0147186249999436 0  4.5 0  C 6.985281375000056 0  9 1.7908610000000067  9 4  Z " fill-rule="nonzero" fill="rgba(0, 82, 217, 1)" stroke="none" transform="matrix(1 0 0 1 961 613 )" class="fill" />
    <path d="M 9 4  C 9 6.209138999999993  6.985281375000056 8  4.5 8  C 2.0147186249999436 8  0 6.209138999999993  0 4  C 0 1.7908610000000067  2.0147186249999436 0  4.5 0  C 6.985281375000056 0  9 1.7908610000000067  9 4  Z " stroke-width="0" stroke-dasharray="0" stroke="rgba(255, 255, 255, 0)" fill="none" transform="matrix(1 0 0 1 961 613 )" class="stroke" mask="url(#Clip727)" />
  </g>
</svg>