<?xml version="1.0" encoding="utf-8"?>
<svg version="1.1" xmlns:xlink="http://www.w3.org/1999/xlink" width="9px" height="8px" xmlns="http://www.w3.org/2000/svg">
  <defs>
    <pattern id="BGPattern" patternUnits="userSpaceOnUse" alignment="0 0" imageRepeat="None" />
    <mask fill="white" id="Clip720">
      <path d="M 0 4  C 0 6.209138999999993  2.0147186250000075 8  4.5 8  C 6.9852813749999925 8  9 6.209138999999993  9 4  C 9 1.7908610000000067  6.9852813749999925 0  4.5 0  C 2.0147186250000075 0  0 1.7908610000000067  0 4  Z " fill-rule="evenodd" />
    </mask>
  </defs>
  <g transform="matrix(1 0 0 1 -572 -643 )">
    <path d="M 0 4  C 0 6.209138999999993  2.0147186250000075 8  4.5 8  C 6.9852813749999925 8  9 6.209138999999993  9 4  C 9 1.7908610000000067  6.9852813749999925 0  4.5 0  C 2.0147186250000075 0  0 1.7908610000000067  0 4  Z " fill-rule="nonzero" fill="rgba(188, 196, 208, 1)" stroke="none" transform="matrix(1 0 0 1 572 643 )" class="fill" />
    <path d="M 0 4  C 0 6.209138999999993  2.0147186250000075 8  4.5 8  C 6.9852813749999925 8  9 6.209138999999993  9 4  C 9 1.7908610000000067  6.9852813749999925 0  4.5 0  C 2.0147186250000075 0  0 1.7908610000000067  0 4  Z " stroke-width="0" stroke-dasharray="0" stroke="rgba(255, 255, 255, 0)" fill="none" transform="matrix(1 0 0 1 572 643 )" class="stroke" mask="url(#Clip720)" />
  </g>
</svg>