<?xml version="1.0" encoding="utf-8"?>
<svg version="1.1" xmlns:xlink="http://www.w3.org/1999/xlink" width="18px" height="14px" xmlns="http://www.w3.org/2000/svg">
  <defs>
    <pattern id="BGPattern" patternUnits="userSpaceOnUse" alignment="0 0" imageRepeat="None" />
    <mask fill="white" id="Clip470">
      <path d="M 3.9979414679999534 10.832348275000001  C 3.657141455999954 10.518223274999993  3.243141455999921 9.875973099999996  2.506341431999863 9.096348117499993  C 2.0887414440000613 8.655348108749994  1.0531414908000443 7.82497358125001  0.7447414919999573 7.4032235812500105  C 0.47714148623990693 7.030473581249996  0.505941499920118 6.863348336249999  0.5695414990798782 6.554473344999998  C 0.6823414956000307 6.004973327499997  1.455141590399853 5.577098248750005  2.2795415640000103 5.634848248750007  C 2.9023415519998705 5.677723248749988  3.4303415880001014 5.977848318750009  3.905541588000051 6.261348318749995  C 4.1923415759999445 6.431973310000007  4.545141624000099 6.763598406250001  4.757541635999861 6.95084840625  C 4.953141635999873 7.122348406249998  5.001141467999969 7.193223257499994  5.209941456000069 7.396223257499994  C 5.4859414679999645 7.66484826624999  5.572341732000041 7.797848511249999  5.466741732000083 7.502098511250004  C 5.381541720000041 7.068098520000003  5.242341419999956 6.326973511249989  5.040741420000086 5.671598502500011  C 4.887141408000025 5.174598484999986  4.849941540000055 5.0967235462499865  4.703541539999969 4.715223563749994  C 4.548741551999957 4.309223572500002  4.469541551999919 4.02484844999999  4.324341563999951 3.5943484412499913  C 4.223541563999879 3.2898484499999867  4.042341527999906 2.6677233449999918  3.9931415279999785 2.317723344999987  C 3.9247415279999585 1.8390983537499963  3.888741444000061 1.05859838524999  4.309941456000069 0.6998483887500058  C 4.639941468000052 0.4189733801399882  5.397141372000078 0.3340983906750097  5.866341371999897 0.5073483896249975  C 6.480741407999994 0.7339733922500074  6.829941216000043 1.3849734062500083  6.989541216000089 1.6448483974999988  C 7.276341215999855 2.1120983800000026  7.453941552000015 2.651973476249996  7.608741540000028 3.360723476249998  C 7.8055415519998865 4.262848493749992  8.167941348000022 5.514973275000003  8.17994134800001 5.778348274999992  C 8.208741347999876 5.455473283749999  8.098341684000024 4.775598275000004  8.175141695999992 4.465848274999992  C 8.24474168400011 4.184973266249987  8.568741563999993 3.8585984237499957  8.974341563999952 3.7702234149999896  C 9.317541575999895 3.6958484150000075  9.719541443999969 3.6687233625000104  10.073541420000039 3.7220983624999917  C 10.449141419999886 3.7780983625000104  10.84514174399992 3.97409842375  10.992741755999852 4.158723423749986  C 11.427141731999926 4.704723432499989  11.43554153999985 5.820348292500007  11.45354153999997 5.760848292499997  C 11.556741539999985 5.43184830125  11.538742019999972 4.685473187500001  11.794342019999931 4.374848196249992  C 11.962342020000051 4.170098196250009  12.390741203999916 3.9854735374999954  12.618741239999872 3.9557235287499957  C 12.971541239999988 3.9102235287500022  13.40474207999996 3.896223205000002  13.775542079999923 3.948723205000004  C 14.074342079999951 3.9915982050000096  14.4787409999999 4.250598187499989  14.587941000000045 4.374848196249992  C 14.849540999999864 4.675848204999994  14.998341719999916 5.527223196249999  15.042741719999958 5.825598187499999  C 15.060741720000077 5.948973187499991  15.131541959999959 5.4825985637500025  15.39434196000002 5.181598555000001  C 15.881541959999959 4.622473554999992  17.60594171999992 4.513973546249989  17.671941719999996 5.740723502499993  C 17.701941720000104 6.3129734850000006  17.695941120000043 6.286723196249994  17.695941120000043 6.671723196249992  C 17.695941120000043 7.124098213750003  17.681541239999934 7.396223721249989  17.64794123999991 7.723473738749998  C 17.61074123999997 8.073473738750003  17.507541599999968 8.864473414999992  17.35754159999997 9.24772345000001  C 17.25434159999995 9.511098449999999  16.91234112000002 10.103473275000002  16.57514112000008 10.458723275000008  C 15.715941119999933 11.187889737499987  15.239541120000013 11.716681374999993  15.145941120000042 12.045098012499988  C 15.004341120000118 12.536848012499998  15.051141959999951 12.540348187500005  15.023541960000058 12.889473187500005  C 15.005141999999978 13.121639824999988  15.053541719999977 13.390556462499998  15.168741239999871 13.696223100000008  C 14.52714107999991 13.756890262499986  14.033541000000058 13.767098800000007  13.687941000000047 13.726848799999988  C 13.218740999999955 13.671723799999999  12.637941000000048 12.990973362500007  12.487940952000008 12.782723362500008  C 12.281540951999979 12.495723362500005  11.841141911999966 12.550848625000004  11.669541900000057 12.762598624999995  C 11.399541912000041 13.09772353750001  10.81874120399998 13.698848537499995  10.408341191999988 13.7364735375  C 9.606741215999865 13.809973537500003  7.943541311999979 13.763598100000006  6.641541263999898 13.75397310000001  C 6.789541451999957 13.1642231875  6.698741556000005 12.768139912500011  6.36914155200002 12.565723274999996  C 6.00314154000007 12.339098275000008  5.373141504000068 11.879723712500002  4.996341492000102 11.638223712499993  L 3.9979414679999534 10.832348275000001  Z " fill-rule="evenodd" />
    </mask>
  </defs>
  <g transform="matrix(1 0 0 1 -572 -221 )">
    <path d="M 3.9979414679999534 10.832348275000001  C 3.657141455999954 10.518223274999993  3.243141455999921 9.875973099999996  2.506341431999863 9.096348117499993  C 2.0887414440000613 8.655348108749994  1.0531414908000443 7.82497358125001  0.7447414919999573 7.4032235812500105  C 0.47714148623990693 7.030473581249996  0.505941499920118 6.863348336249999  0.5695414990798782 6.554473344999998  C 0.6823414956000307 6.004973327499997  1.455141590399853 5.577098248750005  2.2795415640000103 5.634848248750007  C 2.9023415519998705 5.677723248749988  3.4303415880001014 5.977848318750009  3.905541588000051 6.261348318749995  C 4.1923415759999445 6.431973310000007  4.545141624000099 6.763598406250001  4.757541635999861 6.95084840625  C 4.953141635999873 7.122348406249998  5.001141467999969 7.193223257499994  5.209941456000069 7.396223257499994  C 5.4859414679999645 7.66484826624999  5.572341732000041 7.797848511249999  5.466741732000083 7.502098511250004  C 5.381541720000041 7.068098520000003  5.242341419999956 6.326973511249989  5.040741420000086 5.671598502500011  C 4.887141408000025 5.174598484999986  4.849941540000055 5.0967235462499865  4.703541539999969 4.715223563749994  C 4.548741551999957 4.309223572500002  4.469541551999919 4.02484844999999  4.324341563999951 3.5943484412499913  C 4.223541563999879 3.2898484499999867  4.042341527999906 2.6677233449999918  3.9931415279999785 2.317723344999987  C 3.9247415279999585 1.8390983537499963  3.888741444000061 1.05859838524999  4.309941456000069 0.6998483887500058  C 4.639941468000052 0.4189733801399882  5.397141372000078 0.3340983906750097  5.866341371999897 0.5073483896249975  C 6.480741407999994 0.7339733922500074  6.829941216000043 1.3849734062500083  6.989541216000089 1.6448483974999988  C 7.276341215999855 2.1120983800000026  7.453941552000015 2.651973476249996  7.608741540000028 3.360723476249998  C 7.8055415519998865 4.262848493749992  8.167941348000022 5.514973275000003  8.17994134800001 5.778348274999992  C 8.208741347999876 5.455473283749999  8.098341684000024 4.775598275000004  8.175141695999992 4.465848274999992  C 8.24474168400011 4.184973266249987  8.568741563999993 3.8585984237499957  8.974341563999952 3.7702234149999896  C 9.317541575999895 3.6958484150000075  9.719541443999969 3.6687233625000104  10.073541420000039 3.7220983624999917  C 10.449141419999886 3.7780983625000104  10.84514174399992 3.97409842375  10.992741755999852 4.158723423749986  C 11.427141731999926 4.704723432499989  11.43554153999985 5.820348292500007  11.45354153999997 5.760848292499997  C 11.556741539999985 5.43184830125  11.538742019999972 4.685473187500001  11.794342019999931 4.374848196249992  C 11.962342020000051 4.170098196250009  12.390741203999916 3.9854735374999954  12.618741239999872 3.9557235287499957  C 12.971541239999988 3.9102235287500022  13.40474207999996 3.896223205000002  13.775542079999923 3.948723205000004  C 14.074342079999951 3.9915982050000096  14.4787409999999 4.250598187499989  14.587941000000045 4.374848196249992  C 14.849540999999864 4.675848204999994  14.998341719999916 5.527223196249999  15.042741719999958 5.825598187499999  C 15.060741720000077 5.948973187499991  15.131541959999959 5.4825985637500025  15.39434196000002 5.181598555000001  C 15.881541959999959 4.622473554999992  17.60594171999992 4.513973546249989  17.671941719999996 5.740723502499993  C 17.701941720000104 6.3129734850000006  17.695941120000043 6.286723196249994  17.695941120000043 6.671723196249992  C 17.695941120000043 7.124098213750003  17.681541239999934 7.396223721249989  17.64794123999991 7.723473738749998  C 17.61074123999997 8.073473738750003  17.507541599999968 8.864473414999992  17.35754159999997 9.24772345000001  C 17.25434159999995 9.511098449999999  16.91234112000002 10.103473275000002  16.57514112000008 10.458723275000008  C 15.715941119999933 11.187889737499987  15.239541120000013 11.716681374999993  15.145941120000042 12.045098012499988  C 15.004341120000118 12.536848012499998  15.051141959999951 12.540348187500005  15.023541960000058 12.889473187500005  C 15.005141999999978 13.121639824999988  15.053541719999977 13.390556462499998  15.168741239999871 13.696223100000008  C 14.52714107999991 13.756890262499986  14.033541000000058 13.767098800000007  13.687941000000047 13.726848799999988  C 13.218740999999955 13.671723799999999  12.637941000000048 12.990973362500007  12.487940952000008 12.782723362500008  C 12.281540951999979 12.495723362500005  11.841141911999966 12.550848625000004  11.669541900000057 12.762598624999995  C 11.399541912000041 13.09772353750001  10.81874120399998 13.698848537499995  10.408341191999988 13.7364735375  C 9.606741215999865 13.809973537500003  7.943541311999979 13.763598100000006  6.641541263999898 13.75397310000001  C 6.789541451999957 13.1642231875  6.698741556000005 12.768139912500011  6.36914155200002 12.565723274999996  C 6.00314154000007 12.339098275000008  5.373141504000068 11.879723712500002  4.996341492000102 11.638223712499993  L 3.9979414679999534 10.832348275000001  Z " fill-rule="nonzero" fill="rgba(255, 255, 255, 1)" stroke="none" transform="matrix(1 0 0 1 572 221 )" class="fill" />
    <path d="M 3.9979414679999534 10.832348275000001  C 3.657141455999954 10.518223274999993  3.243141455999921 9.875973099999996  2.506341431999863 9.096348117499993  C 2.0887414440000613 8.655348108749994  1.0531414908000443 7.82497358125001  0.7447414919999573 7.4032235812500105  C 0.47714148623990693 7.030473581249996  0.505941499920118 6.863348336249999  0.5695414990798782 6.554473344999998  C 0.6823414956000307 6.004973327499997  1.455141590399853 5.577098248750005  2.2795415640000103 5.634848248750007  C 2.9023415519998705 5.677723248749988  3.4303415880001014 5.977848318750009  3.905541588000051 6.261348318749995  C 4.1923415759999445 6.431973310000007  4.545141624000099 6.763598406250001  4.757541635999861 6.95084840625  C 4.953141635999873 7.122348406249998  5.001141467999969 7.193223257499994  5.209941456000069 7.396223257499994  C 5.4859414679999645 7.66484826624999  5.572341732000041 7.797848511249999  5.466741732000083 7.502098511250004  C 5.381541720000041 7.068098520000003  5.242341419999956 6.326973511249989  5.040741420000086 5.671598502500011  C 4.887141408000025 5.174598484999986  4.849941540000055 5.0967235462499865  4.703541539999969 4.715223563749994  C 4.548741551999957 4.309223572500002  4.469541551999919 4.02484844999999  4.324341563999951 3.5943484412499913  C 4.223541563999879 3.2898484499999867  4.042341527999906 2.6677233449999918  3.9931415279999785 2.317723344999987  C 3.9247415279999585 1.8390983537499963  3.888741444000061 1.05859838524999  4.309941456000069 0.6998483887500058  C 4.639941468000052 0.4189733801399882  5.397141372000078 0.3340983906750097  5.866341371999897 0.5073483896249975  C 6.480741407999994 0.7339733922500074  6.829941216000043 1.3849734062500083  6.989541216000089 1.6448483974999988  C 7.276341215999855 2.1120983800000026  7.453941552000015 2.651973476249996  7.608741540000028 3.360723476249998  C 7.8055415519998865 4.262848493749992  8.167941348000022 5.514973275000003  8.17994134800001 5.778348274999992  C 8.208741347999876 5.455473283749999  8.098341684000024 4.775598275000004  8.175141695999992 4.465848274999992  C 8.24474168400011 4.184973266249987  8.568741563999993 3.8585984237499957  8.974341563999952 3.7702234149999896  C 9.317541575999895 3.6958484150000075  9.719541443999969 3.6687233625000104  10.073541420000039 3.7220983624999917  C 10.449141419999886 3.7780983625000104  10.84514174399992 3.97409842375  10.992741755999852 4.158723423749986  C 11.427141731999926 4.704723432499989  11.43554153999985 5.820348292500007  11.45354153999997 5.760848292499997  C 11.556741539999985 5.43184830125  11.538742019999972 4.685473187500001  11.794342019999931 4.374848196249992  C 11.962342020000051 4.170098196250009  12.390741203999916 3.9854735374999954  12.618741239999872 3.9557235287499957  C 12.971541239999988 3.9102235287500022  13.40474207999996 3.896223205000002  13.775542079999923 3.948723205000004  C 14.074342079999951 3.9915982050000096  14.4787409999999 4.250598187499989  14.587941000000045 4.374848196249992  C 14.849540999999864 4.675848204999994  14.998341719999916 5.527223196249999  15.042741719999958 5.825598187499999  C 15.060741720000077 5.948973187499991  15.131541959999959 5.4825985637500025  15.39434196000002 5.181598555000001  C 15.881541959999959 4.622473554999992  17.60594171999992 4.513973546249989  17.671941719999996 5.740723502499993  C 17.701941720000104 6.3129734850000006  17.695941120000043 6.286723196249994  17.695941120000043 6.671723196249992  C 17.695941120000043 7.124098213750003  17.681541239999934 7.396223721249989  17.64794123999991 7.723473738749998  C 17.61074123999997 8.073473738750003  17.507541599999968 8.864473414999992  17.35754159999997 9.24772345000001  C 17.25434159999995 9.511098449999999  16.91234112000002 10.103473275000002  16.57514112000008 10.458723275000008  C 15.715941119999933 11.187889737499987  15.239541120000013 11.716681374999993  15.145941120000042 12.045098012499988  C 15.004341120000118 12.536848012499998  15.051141959999951 12.540348187500005  15.023541960000058 12.889473187500005  C 15.005141999999978 13.121639824999988  15.053541719999977 13.390556462499998  15.168741239999871 13.696223100000008  C 14.52714107999991 13.756890262499986  14.033541000000058 13.767098800000007  13.687941000000047 13.726848799999988  C 13.218740999999955 13.671723799999999  12.637941000000048 12.990973362500007  12.487940952000008 12.782723362500008  C 12.281540951999979 12.495723362500005  11.841141911999966 12.550848625000004  11.669541900000057 12.762598624999995  C 11.399541912000041 13.09772353750001  10.81874120399998 13.698848537499995  10.408341191999988 13.7364735375  C 9.606741215999865 13.809973537500003  7.943541311999979 13.763598100000006  6.641541263999898 13.75397310000001  C 6.789541451999957 13.1642231875  6.698741556000005 12.768139912500011  6.36914155200002 12.565723274999996  C 6.00314154000007 12.339098275000008  5.373141504000068 11.879723712500002  4.996341492000102 11.638223712499993  L 3.9979414679999534 10.832348275000001  Z " stroke-width="0" stroke-dasharray="0" stroke="rgba(255, 255, 255, 0)" fill="none" transform="matrix(1 0 0 1 572 221 )" class="stroke" mask="url(#Clip470)" />
  </g>
</svg>