<?xml version="1.0" encoding="utf-8"?>
<svg version="1.1" xmlns:xlink="http://www.w3.org/1999/xlink" width="18px" height="15px" xmlns="http://www.w3.org/2000/svg">
  <defs>
    <pattern id="BGPattern" patternUnits="userSpaceOnUse" alignment="0 0" imageRepeat="None" />
    <mask fill="white" id="Clip750">
      <path d="M 3.9979414679999534 11.606087437500001  C 3.657141455999954 11.269524937499993  3.243141455999921 10.581399749999996  2.506341431999863 9.746087268749992  C 2.0887414440000613 9.273587259374994  1.0531414908000443 8.38390026562501  0.7447414919999573 7.932025265625011  C 0.47714148623990693 7.532650265624996  0.505941499920118 7.353587503124999  0.5695414990798782 7.022650012499998  C 0.6823414956000307 6.433899993749996  1.455141590399853 5.975462409375005  2.2795415640000103 6.037337409375008  C 2.9023415519998705 6.083274909374987  3.4303415880001014 6.40483748437501  3.905541588000051 6.708587484374995  C 4.1923415759999445 6.891399975000008  4.545141624000099 7.246712578125001  4.757541635999861 7.4473375781249995  C 4.953141635999873 7.631087578124998  5.001141467999969 7.707024918749994  5.209941456000069 7.924524918749993  C 5.4859414679999645 8.21233742812499  5.572341732000041 8.354837690624999  5.466741732000083 8.037962690625005  C 5.381541720000041 7.572962700000003  5.242341419999956 6.778900190624988  5.040741420000086 6.076712681250012  C 4.887141408000025 5.5442126624999855  4.849941540000055 5.4607752281249855  4.703541539999969 5.052025246874994  C 4.548741551999957 4.6170252562500025  4.469541551999919 4.312337624999989  4.324341563999951 3.8510876156249907  C 4.223541563999879 3.5248376249999858  4.042341527999906 2.858275012499991  3.9931415279999785 2.483275012499986  C 3.9247415279999585 1.970462521874996  3.888741444000061 1.1342125556249893  4.309941456000069 0.7498375593750062  C 4.639941468000052 0.44890005014998735  5.397141372000078 0.3579625614375104  5.866341371999897 0.5435875603124973  C 6.480741407999994 0.7864000631250079  6.829941216000043 1.483900078125009  6.989541216000089 1.7623375687499987  C 7.276341215999855 2.262962550000003  7.453941552000015 2.8414001531249955  7.608741540000028 3.6007751531249976  C 7.8055415519998865 4.567337671874991  8.167941348000022 5.908899937500003  8.17994134800001 6.191087437499991  C 8.208741347999876 5.845149946874999  8.098341684000024 5.116712437500004  8.175141695999992 4.784837437499991  C 8.24474168400011 4.483899928124986  8.568741563999993 4.134212596874995  8.974341563999952 4.039525087499989  C 9.317541575999895 3.959837587500008  9.719541443999969 3.930775031250011  10.073541420000039 3.987962531249991  C 10.449141419999886 4.047962531250011  10.84514174399992 4.257962596875  10.992741755999852 4.455775096874985  C 11.427141731999926 5.040775106249988  11.43554153999985 6.236087456250008  11.45354153999997 6.172337456249997  C 11.556741539999985 5.819837465625  11.538742019999972 5.020149843750001  11.794342019999931 4.687337353124992  C 11.962342020000051 4.46796235312501  12.390741203999916 4.270150218749995  12.618741239999872 4.238275209374995  C 12.971541239999988 4.189525209375002  13.40474207999996 4.174524862500002  13.775542079999923 4.230774862500004  C 14.074342079999951 4.27671236250001  14.4787409999999 4.554212343749988  14.587941000000045 4.687337353124992  C 14.849540999999864 5.009837362499994  14.998341719999916 5.922024853124999  15.042741719999958 6.241712343749999  C 15.060741720000077 6.3738998437499905  15.131541959999959 5.874212746875003  15.39434196000002 5.551712737500001  C 15.881541959999959 4.9526502374999914  17.60594171999992 4.8364002281249885  17.671941719999996 6.150775181249992  C 17.701941720000104 6.763900162500001  17.695941120000043 6.735774853124994  17.695941120000043 7.148274853124992  C 17.695941120000043 7.632962371875003  17.681541239999934 7.924525415624988  17.64794123999991 8.275150434374998  C 17.61074123999997 8.650150434375004  17.507541599999968 9.497650087499991  17.35754159999997 9.90827512500001  C 17.25434159999995 10.190462624999999  16.91234112000002 10.825149937500003  16.57514112000008 11.205774937500008  C 15.715941119999933 11.987024718749986  15.239541120000013 12.553587187499993  15.145941120000042 12.905462156249987  C 15.004341120000118 13.432337156249998  15.051141959999951 13.436087343750005  15.023541960000058 13.810149843750006  C 15.005141999999978 14.058899812499988  15.053541719999977 14.347024781249997  15.168741239999871 14.674524750000009  C 14.52714107999991 14.739525281249986  14.033541000000058 14.750463000000007  13.687941000000047 14.707337999999988  C 13.218740999999955 14.648275499999999  12.637941000000048 13.918900031250008  12.487940952000008 13.695775031250008  C 12.281540951999979 13.388275031250005  11.841141911999966 13.447337812500004  11.669541900000057 13.674212812499995  C 11.399541912000041 14.03327521875001  10.81874120399998 14.677337718749994  10.408341191999988 14.71765021875  C 9.606741215999865 14.796400218750003  7.943541311999979 14.746712250000007  6.641541263999898 14.736399750000011  C 6.789541451999957 14.10452484375  6.698741556000005 13.680149906250012  6.36914155200002 13.463274937499996  C 6.00314154000007 13.220462437500009  5.373141504000068 12.728275406250003  4.996341492000102 12.469525406249993  L 3.9979414679999534 11.606087437500001  Z " fill-rule="evenodd" />
    </mask>
  </defs>
  <g transform="matrix(1 0 0 1 -578 -247 )">
    <path d="M 3.9979414679999534 11.606087437500001  C 3.657141455999954 11.269524937499993  3.243141455999921 10.581399749999996  2.506341431999863 9.746087268749992  C 2.0887414440000613 9.273587259374994  1.0531414908000443 8.38390026562501  0.7447414919999573 7.932025265625011  C 0.47714148623990693 7.532650265624996  0.505941499920118 7.353587503124999  0.5695414990798782 7.022650012499998  C 0.6823414956000307 6.433899993749996  1.455141590399853 5.975462409375005  2.2795415640000103 6.037337409375008  C 2.9023415519998705 6.083274909374987  3.4303415880001014 6.40483748437501  3.905541588000051 6.708587484374995  C 4.1923415759999445 6.891399975000008  4.545141624000099 7.246712578125001  4.757541635999861 7.4473375781249995  C 4.953141635999873 7.631087578124998  5.001141467999969 7.707024918749994  5.209941456000069 7.924524918749993  C 5.4859414679999645 8.21233742812499  5.572341732000041 8.354837690624999  5.466741732000083 8.037962690625005  C 5.381541720000041 7.572962700000003  5.242341419999956 6.778900190624988  5.040741420000086 6.076712681250012  C 4.887141408000025 5.5442126624999855  4.849941540000055 5.4607752281249855  4.703541539999969 5.052025246874994  C 4.548741551999957 4.6170252562500025  4.469541551999919 4.312337624999989  4.324341563999951 3.8510876156249907  C 4.223541563999879 3.5248376249999858  4.042341527999906 2.858275012499991  3.9931415279999785 2.483275012499986  C 3.9247415279999585 1.970462521874996  3.888741444000061 1.1342125556249893  4.309941456000069 0.7498375593750062  C 4.639941468000052 0.44890005014998735  5.397141372000078 0.3579625614375104  5.866341371999897 0.5435875603124973  C 6.480741407999994 0.7864000631250079  6.829941216000043 1.483900078125009  6.989541216000089 1.7623375687499987  C 7.276341215999855 2.262962550000003  7.453941552000015 2.8414001531249955  7.608741540000028 3.6007751531249976  C 7.8055415519998865 4.567337671874991  8.167941348000022 5.908899937500003  8.17994134800001 6.191087437499991  C 8.208741347999876 5.845149946874999  8.098341684000024 5.116712437500004  8.175141695999992 4.784837437499991  C 8.24474168400011 4.483899928124986  8.568741563999993 4.134212596874995  8.974341563999952 4.039525087499989  C 9.317541575999895 3.959837587500008  9.719541443999969 3.930775031250011  10.073541420000039 3.987962531249991  C 10.449141419999886 4.047962531250011  10.84514174399992 4.257962596875  10.992741755999852 4.455775096874985  C 11.427141731999926 5.040775106249988  11.43554153999985 6.236087456250008  11.45354153999997 6.172337456249997  C 11.556741539999985 5.819837465625  11.538742019999972 5.020149843750001  11.794342019999931 4.687337353124992  C 11.962342020000051 4.46796235312501  12.390741203999916 4.270150218749995  12.618741239999872 4.238275209374995  C 12.971541239999988 4.189525209375002  13.40474207999996 4.174524862500002  13.775542079999923 4.230774862500004  C 14.074342079999951 4.27671236250001  14.4787409999999 4.554212343749988  14.587941000000045 4.687337353124992  C 14.849540999999864 5.009837362499994  14.998341719999916 5.922024853124999  15.042741719999958 6.241712343749999  C 15.060741720000077 6.3738998437499905  15.131541959999959 5.874212746875003  15.39434196000002 5.551712737500001  C 15.881541959999959 4.9526502374999914  17.60594171999992 4.8364002281249885  17.671941719999996 6.150775181249992  C 17.701941720000104 6.763900162500001  17.695941120000043 6.735774853124994  17.695941120000043 7.148274853124992  C 17.695941120000043 7.632962371875003  17.681541239999934 7.924525415624988  17.64794123999991 8.275150434374998  C 17.61074123999997 8.650150434375004  17.507541599999968 9.497650087499991  17.35754159999997 9.90827512500001  C 17.25434159999995 10.190462624999999  16.91234112000002 10.825149937500003  16.57514112000008 11.205774937500008  C 15.715941119999933 11.987024718749986  15.239541120000013 12.553587187499993  15.145941120000042 12.905462156249987  C 15.004341120000118 13.432337156249998  15.051141959999951 13.436087343750005  15.023541960000058 13.810149843750006  C 15.005141999999978 14.058899812499988  15.053541719999977 14.347024781249997  15.168741239999871 14.674524750000009  C 14.52714107999991 14.739525281249986  14.033541000000058 14.750463000000007  13.687941000000047 14.707337999999988  C 13.218740999999955 14.648275499999999  12.637941000000048 13.918900031250008  12.487940952000008 13.695775031250008  C 12.281540951999979 13.388275031250005  11.841141911999966 13.447337812500004  11.669541900000057 13.674212812499995  C 11.399541912000041 14.03327521875001  10.81874120399998 14.677337718749994  10.408341191999988 14.71765021875  C 9.606741215999865 14.796400218750003  7.943541311999979 14.746712250000007  6.641541263999898 14.736399750000011  C 6.789541451999957 14.10452484375  6.698741556000005 13.680149906250012  6.36914155200002 13.463274937499996  C 6.00314154000007 13.220462437500009  5.373141504000068 12.728275406250003  4.996341492000102 12.469525406249993  L 3.9979414679999534 11.606087437500001  Z " fill-rule="nonzero" fill="rgba(255, 255, 255, 1)" stroke="none" transform="matrix(1 0 0 1 578 247 )" class="fill" />
    <path d="M 3.9979414679999534 11.606087437500001  C 3.657141455999954 11.269524937499993  3.243141455999921 10.581399749999996  2.506341431999863 9.746087268749992  C 2.0887414440000613 9.273587259374994  1.0531414908000443 8.38390026562501  0.7447414919999573 7.932025265625011  C 0.47714148623990693 7.532650265624996  0.505941499920118 7.353587503124999  0.5695414990798782 7.022650012499998  C 0.6823414956000307 6.433899993749996  1.455141590399853 5.975462409375005  2.2795415640000103 6.037337409375008  C 2.9023415519998705 6.083274909374987  3.4303415880001014 6.40483748437501  3.905541588000051 6.708587484374995  C 4.1923415759999445 6.891399975000008  4.545141624000099 7.246712578125001  4.757541635999861 7.4473375781249995  C 4.953141635999873 7.631087578124998  5.001141467999969 7.707024918749994  5.209941456000069 7.924524918749993  C 5.4859414679999645 8.21233742812499  5.572341732000041 8.354837690624999  5.466741732000083 8.037962690625005  C 5.381541720000041 7.572962700000003  5.242341419999956 6.778900190624988  5.040741420000086 6.076712681250012  C 4.887141408000025 5.5442126624999855  4.849941540000055 5.4607752281249855  4.703541539999969 5.052025246874994  C 4.548741551999957 4.6170252562500025  4.469541551999919 4.312337624999989  4.324341563999951 3.8510876156249907  C 4.223541563999879 3.5248376249999858  4.042341527999906 2.858275012499991  3.9931415279999785 2.483275012499986  C 3.9247415279999585 1.970462521874996  3.888741444000061 1.1342125556249893  4.309941456000069 0.7498375593750062  C 4.639941468000052 0.44890005014998735  5.397141372000078 0.3579625614375104  5.866341371999897 0.5435875603124973  C 6.480741407999994 0.7864000631250079  6.829941216000043 1.483900078125009  6.989541216000089 1.7623375687499987  C 7.276341215999855 2.262962550000003  7.453941552000015 2.8414001531249955  7.608741540000028 3.6007751531249976  C 7.8055415519998865 4.567337671874991  8.167941348000022 5.908899937500003  8.17994134800001 6.191087437499991  C 8.208741347999876 5.845149946874999  8.098341684000024 5.116712437500004  8.175141695999992 4.784837437499991  C 8.24474168400011 4.483899928124986  8.568741563999993 4.134212596874995  8.974341563999952 4.039525087499989  C 9.317541575999895 3.959837587500008  9.719541443999969 3.930775031250011  10.073541420000039 3.987962531249991  C 10.449141419999886 4.047962531250011  10.84514174399992 4.257962596875  10.992741755999852 4.455775096874985  C 11.427141731999926 5.040775106249988  11.43554153999985 6.236087456250008  11.45354153999997 6.172337456249997  C 11.556741539999985 5.819837465625  11.538742019999972 5.020149843750001  11.794342019999931 4.687337353124992  C 11.962342020000051 4.46796235312501  12.390741203999916 4.270150218749995  12.618741239999872 4.238275209374995  C 12.971541239999988 4.189525209375002  13.40474207999996 4.174524862500002  13.775542079999923 4.230774862500004  C 14.074342079999951 4.27671236250001  14.4787409999999 4.554212343749988  14.587941000000045 4.687337353124992  C 14.849540999999864 5.009837362499994  14.998341719999916 5.922024853124999  15.042741719999958 6.241712343749999  C 15.060741720000077 6.3738998437499905  15.131541959999959 5.874212746875003  15.39434196000002 5.551712737500001  C 15.881541959999959 4.9526502374999914  17.60594171999992 4.8364002281249885  17.671941719999996 6.150775181249992  C 17.701941720000104 6.763900162500001  17.695941120000043 6.735774853124994  17.695941120000043 7.148274853124992  C 17.695941120000043 7.632962371875003  17.681541239999934 7.924525415624988  17.64794123999991 8.275150434374998  C 17.61074123999997 8.650150434375004  17.507541599999968 9.497650087499991  17.35754159999997 9.90827512500001  C 17.25434159999995 10.190462624999999  16.91234112000002 10.825149937500003  16.57514112000008 11.205774937500008  C 15.715941119999933 11.987024718749986  15.239541120000013 12.553587187499993  15.145941120000042 12.905462156249987  C 15.004341120000118 13.432337156249998  15.051141959999951 13.436087343750005  15.023541960000058 13.810149843750006  C 15.005141999999978 14.058899812499988  15.053541719999977 14.347024781249997  15.168741239999871 14.674524750000009  C 14.52714107999991 14.739525281249986  14.033541000000058 14.750463000000007  13.687941000000047 14.707337999999988  C 13.218740999999955 14.648275499999999  12.637941000000048 13.918900031250008  12.487940952000008 13.695775031250008  C 12.281540951999979 13.388275031250005  11.841141911999966 13.447337812500004  11.669541900000057 13.674212812499995  C 11.399541912000041 14.03327521875001  10.81874120399998 14.677337718749994  10.408341191999988 14.71765021875  C 9.606741215999865 14.796400218750003  7.943541311999979 14.746712250000007  6.641541263999898 14.736399750000011  C 6.789541451999957 14.10452484375  6.698741556000005 13.680149906250012  6.36914155200002 13.463274937499996  C 6.00314154000007 13.220462437500009  5.373141504000068 12.728275406250003  4.996341492000102 12.469525406249993  L 3.9979414679999534 11.606087437500001  Z " stroke-width="0" stroke-dasharray="0" stroke="rgba(255, 255, 255, 0)" fill="none" transform="matrix(1 0 0 1 578 247 )" class="stroke" mask="url(#Clip750)" />
  </g>
</svg>