<?xml version="1.0" encoding="utf-8"?>
<svg version="1.1" xmlns:xlink="http://www.w3.org/1999/xlink" width="5px" height="10px" xmlns="http://www.w3.org/2000/svg">
  <defs>
    <pattern id="BGPattern" patternUnits="userSpaceOnUse" alignment="0 0" imageRepeat="None" />
    <mask fill="white" id="Clip757">
      <path d="M 0.1170630857142539 4.750043535714283  C -0.022097714285678194 4.889516321428573  -0.021844807142851357 5.115393471428575  0.11762797857142818 5.254554278571431  L 4.303883785714301 9.431446000000006  L 4.808960071428601 8.926369714285716  L 0.8764291428571725 5.002388742857145  L 4.808960071428601 1.0803221571428574  L 4.303883785714301 0.5752458857142833  L 0.12571485714285505 4.741674457142864  L 0.11762797857142818 4.749478321428577  Z " fill-rule="evenodd" />
    </mask>
  </defs>
  <g transform="matrix(1 0 0 1 -1112 -157 )">
    <path d="M 0.1170630857142539 4.750043535714283  C -0.022097714285678194 4.889516321428573  -0.021844807142851357 5.115393471428575  0.11762797857142818 5.254554278571431  L 4.303883785714301 9.431446000000006  L 4.808960071428601 8.926369714285716  L 0.8764291428571725 5.002388742857145  L 4.808960071428601 1.0803221571428574  L 4.303883785714301 0.5752458857142833  L 0.12571485714285505 4.741674457142864  L 0.11762797857142818 4.749478321428577  Z " fill-rule="nonzero" fill="rgba(0, 0, 0, 0.6)" stroke="none" transform="matrix(1 0 0 1 1112 157 )" class="fill" />
    <path d="M 0.1170630857142539 4.750043535714283  C -0.022097714285678194 4.889516321428573  -0.021844807142851357 5.115393471428575  0.11762797857142818 5.254554278571431  L 4.303883785714301 9.431446000000006  L 4.808960071428601 8.926369714285716  L 0.8764291428571725 5.002388742857145  L 4.808960071428601 1.0803221571428574  L 4.303883785714301 0.5752458857142833  L 0.12571485714285505 4.741674457142864  L 0.11762797857142818 4.749478321428577  Z " stroke-width="0" stroke-dasharray="0" stroke="rgba(255, 255, 255, 0)" fill="none" transform="matrix(1 0 0 1 1112 157 )" class="stroke" mask="url(#Clip757)" />
  </g>
</svg>