<?xml version="1.0" encoding="utf-8"?>
<svg version="1.1" xmlns:xlink="http://www.w3.org/1999/xlink" width="9px" height="2px" xmlns="http://www.w3.org/2000/svg">
  <defs>
    <pattern id="BGPattern" patternUnits="userSpaceOnUse" alignment="0 0" imageRepeat="None" />
    <mask fill="white" id="Clip491">
      <path d="M 0 1  C 0 0.4477152500000017  0.3357864374999906 0  0.75 0  C 1.1642135625000094 0  1.5 0.4477152500000017  1.5 1  C 1.5 1.5522847499999983  1.1642135625000094 2  0.75 2  C 0.3357864374999906 2  0 1.5522847499999983  0 1  Z M 3.75 1  C 3.75 0.4477152500000017  4.085786437499991 0  4.5 0  C 4.914213562500009 0  5.25 0.4477152500000017  5.25 1  C 5.25 1.5522847499999983  4.914213562500009 2  4.5 2  C 4.085786437499991 2  3.75 1.5522847499999983  3.75 1  Z M 7.5 1  C 7.5 0.4477152500000017  7.83578647500002 0  8.25 0  C 8.66421352499998 0  9 0.4477152500000017  9 1  C 9 1.5522847499999983  8.66421352499998 2  8.25 2  C 7.83578647500002 2  7.5 1.5522847499999983  7.5 1  Z " fill-rule="evenodd" />
    </mask>
  </defs>
  <g transform="matrix(1 0 0 1 -1139 -699 )">
    <path d="M 0 1  C 0 0.4477152500000017  0.3357864374999906 0  0.75 0  C 1.1642135625000094 0  1.5 0.4477152500000017  1.5 1  C 1.5 1.5522847499999983  1.1642135625000094 2  0.75 2  C 0.3357864374999906 2  0 1.5522847499999983  0 1  Z M 3.75 1  C 3.75 0.4477152500000017  4.085786437499991 0  4.5 0  C 4.914213562500009 0  5.25 0.4477152500000017  5.25 1  C 5.25 1.5522847499999983  4.914213562500009 2  4.5 2  C 4.085786437499991 2  3.75 1.5522847499999983  3.75 1  Z M 7.5 1  C 7.5 0.4477152500000017  7.83578647500002 0  8.25 0  C 8.66421352499998 0  9 0.4477152500000017  9 1  C 9 1.5522847499999983  8.66421352499998 2  8.25 2  C 7.83578647500002 2  7.5 1.5522847499999983  7.5 1  Z " fill-rule="nonzero" fill="rgba(0, 0, 0, 0.2980392156862745)" stroke="none" transform="matrix(1 0 0 1 1139 699 )" class="fill" />
    <path d="M 0 1  C 0 0.4477152500000017  0.3357864374999906 0  0.75 0  C 1.1642135625000094 0  1.5 0.4477152500000017  1.5 1  C 1.5 1.5522847499999983  1.1642135625000094 2  0.75 2  C 0.3357864374999906 2  0 1.5522847499999983  0 1  Z " stroke-width="0" stroke-dasharray="0" stroke="rgba(255, 255, 255, 0)" fill="none" transform="matrix(1 0 0 1 1139 699 )" class="stroke" mask="url(#Clip491)" />
    <path d="M 3.75 1  C 3.75 0.4477152500000017  4.085786437499991 0  4.5 0  C 4.914213562500009 0  5.25 0.4477152500000017  5.25 1  C 5.25 1.5522847499999983  4.914213562500009 2  4.5 2  C 4.085786437499991 2  3.75 1.5522847499999983  3.75 1  Z " stroke-width="0" stroke-dasharray="0" stroke="rgba(255, 255, 255, 0)" fill="none" transform="matrix(1 0 0 1 1139 699 )" class="stroke" mask="url(#Clip491)" />
    <path d="M 7.5 1  C 7.5 0.4477152500000017  7.83578647500002 0  8.25 0  C 8.66421352499998 0  9 0.4477152500000017  9 1  C 9 1.5522847499999983  8.66421352499998 2  8.25 2  C 7.83578647500002 2  7.5 1.5522847499999983  7.5 1  Z " stroke-width="0" stroke-dasharray="0" stroke="rgba(255, 255, 255, 0)" fill="none" transform="matrix(1 0 0 1 1139 699 )" class="stroke" mask="url(#Clip491)" />
  </g>
</svg>