<?xml version="1.0" encoding="utf-8"?>
<svg version="1.1" xmlns:xlink="http://www.w3.org/1999/xlink" width="6px" height="12px" xmlns="http://www.w3.org/2000/svg">
  <defs>
    <pattern id="BGPattern" patternUnits="userSpaceOnUse" alignment="0 0" imageRepeat="None" />
    <mask fill="white" id="Clip762">
      <path d="M 0.14047570285710467 5.70005224285714  C -0.026517257142813833 5.867419585714288  -0.02621376857142163 6.13847216571429  0.1411535742857138 6.305465134285718  L 5.1646605428571615 11.317735200000008  L 5.770752085714321 10.71164365714286  L 1.0517149714286071 6.002866491428575  L 5.770752085714321 1.296386588571429  L 5.1646605428571615 0.6902950628571399  L 0.15085782857142604 5.6900093485714365  L 0.1411535742857138 5.699373985714292  Z " fill-rule="evenodd" />
    </mask>
  </defs>
  <g transform="matrix(1 0 0 1 -1001 -751 )">
    <path d="M 0.14047570285710467 5.70005224285714  C -0.026517257142813833 5.867419585714288  -0.02621376857142163 6.13847216571429  0.1411535742857138 6.305465134285718  L 5.1646605428571615 11.317735200000008  L 5.770752085714321 10.71164365714286  L 1.0517149714286071 6.002866491428575  L 5.770752085714321 1.296386588571429  L 5.1646605428571615 0.6902950628571399  L 0.15085782857142604 5.6900093485714365  L 0.1411535742857138 5.699373985714292  Z " fill-rule="nonzero" fill="rgba(0, 0, 0, 0.6)" stroke="none" transform="matrix(1 0 0 1 1001 751 )" class="fill" />
    <path d="M 0.14047570285710467 5.70005224285714  C -0.026517257142813833 5.867419585714288  -0.02621376857142163 6.13847216571429  0.1411535742857138 6.305465134285718  L 5.1646605428571615 11.317735200000008  L 5.770752085714321 10.71164365714286  L 1.0517149714286071 6.002866491428575  L 5.770752085714321 1.296386588571429  L 5.1646605428571615 0.6902950628571399  L 0.15085782857142604 5.6900093485714365  L 0.1411535742857138 5.699373985714292  Z " stroke-width="0" stroke-dasharray="0" stroke="rgba(255, 255, 255, 0)" fill="none" transform="matrix(1 0 0 1 1001 751 )" class="stroke" mask="url(#Clip762)" />
  </g>
</svg>