<?xml version="1.0" encoding="utf-8"?>
<svg version="1.1" xmlns:xlink="http://www.w3.org/1999/xlink" width="5px" height="11px" xmlns="http://www.w3.org/2000/svg">
  <defs>
    <pattern id="BGPattern" patternUnits="userSpaceOnUse" alignment="0 0" imageRepeat="None" />
    <mask fill="white" id="Clip490">
      <path d="M 0.1170630857142539 5.225047889285712  C -0.022097714285678194 5.37846795357143  -0.021844807142851357 5.626932818571433  0.11762797857142818 5.780009706428575  L 4.303883785714301 10.374590600000007  L 4.808960071428601 9.819006685714289  L 0.8764291428571725 5.50262761714286  L 4.808960071428601 1.188354372857143  L 4.303883785714301 0.6327704742857116  L 0.12571485714285505 5.21584190285715  L 0.11762797857142818 5.224426153571435  Z " fill-rule="evenodd" />
    </mask>
  </defs>
  <g transform="matrix(1 0 0 1 -899 -694 )">
    <path d="M 0.1170630857142539 5.225047889285712  C -0.022097714285678194 5.37846795357143  -0.021844807142851357 5.626932818571433  0.11762797857142818 5.780009706428575  L 4.303883785714301 10.374590600000007  L 4.808960071428601 9.819006685714289  L 0.8764291428571725 5.50262761714286  L 4.808960071428601 1.188354372857143  L 4.303883785714301 0.6327704742857116  L 0.12571485714285505 5.21584190285715  L 0.11762797857142818 5.224426153571435  Z " fill-rule="nonzero" fill="rgba(0, 0, 0, 0.6)" stroke="none" transform="matrix(1 0 0 1 899 694 )" class="fill" />
    <path d="M 0.1170630857142539 5.225047889285712  C -0.022097714285678194 5.37846795357143  -0.021844807142851357 5.626932818571433  0.11762797857142818 5.780009706428575  L 4.303883785714301 10.374590600000007  L 4.808960071428601 9.819006685714289  L 0.8764291428571725 5.50262761714286  L 4.808960071428601 1.188354372857143  L 4.303883785714301 0.6327704742857116  L 0.12571485714285505 5.21584190285715  L 0.11762797857142818 5.224426153571435  Z " stroke-width="0" stroke-dasharray="0" stroke="rgba(255, 255, 255, 0)" fill="none" transform="matrix(1 0 0 1 899 694 )" class="stroke" mask="url(#Clip490)" />
  </g>
</svg>