<?xml version="1.0" encoding="utf-8"?>
<svg version="1.1" xmlns:xlink="http://www.w3.org/1999/xlink" width="5px" height="9px" xmlns="http://www.w3.org/2000/svg">
  <defs>
    <pattern id="BGPattern" patternUnits="userSpaceOnUse" alignment="0 0" imageRepeat="None" />
    <mask fill="white" id="Clip48">
      <path d="M 0.1170630857142539 4.275039182142855  C -0.022097714285678194 4.400564689285716  -0.021844807142851357 4.603854124285718  0.11762797857142818 4.729098850714289  L 4.303883785714301 8.488301400000006  L 4.808960071428601 8.033732742857145  L 0.8764291428571725 4.502149868571431  L 4.808960071428601 0.9722899414285717  L 4.303883785714301 0.517721297142855  L 0.12571485714285505 4.267507011428577  L 0.11762797857142818 4.274530489285719  Z " fill-rule="evenodd" />
    </mask>
  </defs>
  <g transform="matrix(1 0 0 1 -838 -144 )">
    <path d="M 0.1170630857142539 4.275039182142855  C -0.022097714285678194 4.400564689285716  -0.021844807142851357 4.603854124285718  0.11762797857142818 4.729098850714289  L 4.303883785714301 8.488301400000006  L 4.808960071428601 8.033732742857145  L 0.8764291428571725 4.502149868571431  L 4.808960071428601 0.9722899414285717  L 4.303883785714301 0.517721297142855  L 0.12571485714285505 4.267507011428577  L 0.11762797857142818 4.274530489285719  Z " fill-rule="nonzero" fill="rgba(0, 0, 0, 0.6)" stroke="none" transform="matrix(1 0 0 1 838 144 )" class="fill" />
    <path d="M 0.1170630857142539 4.275039182142855  C -0.022097714285678194 4.400564689285716  -0.021844807142851357 4.603854124285718  0.11762797857142818 4.729098850714289  L 4.303883785714301 8.488301400000006  L 4.808960071428601 8.033732742857145  L 0.8764291428571725 4.502149868571431  L 4.808960071428601 0.9722899414285717  L 4.303883785714301 0.517721297142855  L 0.12571485714285505 4.267507011428577  L 0.11762797857142818 4.274530489285719  Z " stroke-width="0" stroke-dasharray="0" stroke="rgba(255, 255, 255, 0)" fill="none" transform="matrix(1 0 0 1 838 144 )" class="stroke" mask="url(#Clip48)" />
  </g>
</svg>