<?xml version="1.0" encoding="utf-8"?>
<svg version="1.1" xmlns:xlink="http://www.w3.org/1999/xlink" width="10px" height="2px" xmlns="http://www.w3.org/2000/svg">
  <defs>
    <pattern id="BGPattern" patternUnits="userSpaceOnUse" alignment="0 0" imageRepeat="None" />
    <mask fill="white" id="Clip764">
      <path d="M 0 1  C 0 0.4477152500000017  0.3730960416666562 0  0.8333333333333333 0  C 1.2935706250000103 0  1.6666666666666665 0.4477152500000017  1.6666666666666665 1  C 1.6666666666666665 1.5522847499999983  1.2935706250000103 2  0.8333333333333333 2  C 0.3730960416666562 2  0 1.5522847499999983  0 1  Z M 4.166666666666667 1  C 4.166666666666667 0.4477152500000017  4.539762708333323 0  5 0  C 5.460237291666678 0  5.833333333333334 0.4477152500000017  5.833333333333334 1  C 5.833333333333334 1.5522847499999983  5.460237291666678 2  5 2  C 4.539762708333323 2  4.166666666666667 1.5522847499999983  4.166666666666667 1  Z M 8.333333333333334 1  C 8.333333333333334 0.4477152500000017  8.706429416666689 0  9.166666666666666 0  C 9.626903916666643 0  10 0.4477152500000017  10 1  C 10 1.5522847499999983  9.626903916666643 2  9.166666666666666 2  C 8.706429416666689 2  8.333333333333334 1.5522847499999983  8.333333333333334 1  Z " fill-rule="evenodd" />
    </mask>
  </defs>
  <g transform="matrix(1 0 0 1 -1067 -756 )">
    <path d="M 0 1  C 0 0.4477152500000017  0.3730960416666562 0  0.8333333333333333 0  C 1.2935706250000103 0  1.6666666666666665 0.4477152500000017  1.6666666666666665 1  C 1.6666666666666665 1.5522847499999983  1.2935706250000103 2  0.8333333333333333 2  C 0.3730960416666562 2  0 1.5522847499999983  0 1  Z M 4.166666666666667 1  C 4.166666666666667 0.4477152500000017  4.539762708333323 0  5 0  C 5.460237291666678 0  5.833333333333334 0.4477152500000017  5.833333333333334 1  C 5.833333333333334 1.5522847499999983  5.460237291666678 2  5 2  C 4.539762708333323 2  4.166666666666667 1.5522847499999983  4.166666666666667 1  Z M 8.333333333333334 1  C 8.333333333333334 0.4477152500000017  8.706429416666689 0  9.166666666666666 0  C 9.626903916666643 0  10 0.4477152500000017  10 1  C 10 1.5522847499999983  9.626903916666643 2  9.166666666666666 2  C 8.706429416666689 2  8.333333333333334 1.5522847499999983  8.333333333333334 1  Z " fill-rule="nonzero" fill="rgba(0, 0, 0, 0.2980392156862745)" stroke="none" transform="matrix(1 0 0 1 1067 756 )" class="fill" />
    <path d="M 0 1  C 0 0.4477152500000017  0.3730960416666562 0  0.8333333333333333 0  C 1.2935706250000103 0  1.6666666666666665 0.4477152500000017  1.6666666666666665 1  C 1.6666666666666665 1.5522847499999983  1.2935706250000103 2  0.8333333333333333 2  C 0.3730960416666562 2  0 1.5522847499999983  0 1  Z " stroke-width="0" stroke-dasharray="0" stroke="rgba(255, 255, 255, 0)" fill="none" transform="matrix(1 0 0 1 1067 756 )" class="stroke" mask="url(#Clip764)" />
    <path d="M 4.166666666666667 1  C 4.166666666666667 0.4477152500000017  4.539762708333323 0  5 0  C 5.460237291666678 0  5.833333333333334 0.4477152500000017  5.833333333333334 1  C 5.833333333333334 1.5522847499999983  5.460237291666678 2  5 2  C 4.539762708333323 2  4.166666666666667 1.5522847499999983  4.166666666666667 1  Z " stroke-width="0" stroke-dasharray="0" stroke="rgba(255, 255, 255, 0)" fill="none" transform="matrix(1 0 0 1 1067 756 )" class="stroke" mask="url(#Clip764)" />
    <path d="M 8.333333333333334 1  C 8.333333333333334 0.4477152500000017  8.706429416666689 0  9.166666666666666 0  C 9.626903916666643 0  10 0.4477152500000017  10 1  C 10 1.5522847499999983  9.626903916666643 2  9.166666666666666 2  C 8.706429416666689 2  8.333333333333334 1.5522847499999983  8.333333333333334 1  Z " stroke-width="0" stroke-dasharray="0" stroke="rgba(255, 255, 255, 0)" fill="none" transform="matrix(1 0 0 1 1067 756 )" class="stroke" mask="url(#Clip764)" />
  </g>
</svg>