<?xml version="1.0" encoding="utf-8"?>
<svg version="1.1" xmlns:xlink="http://www.w3.org/1999/xlink" width="62px" height="17px" xmlns="http://www.w3.org/2000/svg">
  <defs>
    <pattern id="BGPattern" patternUnits="userSpaceOnUse" alignment="0 0" imageRepeat="None" />
    <mask fill="white" id="Clip504">
      <path d="M 0 1.2749999999999966  C 0 0.5708369437499944  0.2739310411184221 0  0.6118421052631579 0  L 61.38815789473684 0  C 61.72606890789474 0  62 0.5708369437499944  62 1.2749999999999966  L 62 15.725000000000003  C 62 16.429163035000006  61.72606890789474 17  61.38815789473684 17  L 0.6118421052631579 17  C 0.2739310411184221 17  0 16.429163035000006  0 15.725000000000003  L 0 1.2749999999999966  Z " fill-rule="evenodd" />
    </mask>
  </defs>
  <g transform="matrix(1 0 0 1 0 -19 )">
    <path d="M 0 1.2749999999999966  C 0 0.5708369437499944  0.2739310411184221 0  0.6118421052631579 0  L 61.38815789473684 0  C 61.72606890789474 0  62 0.5708369437499944  62 1.2749999999999966  L 62 15.725000000000003  C 62 16.429163035000006  61.72606890789474 17  61.38815789473684 17  L 0.6118421052631579 17  C 0.2739310411184221 17  0 16.429163035000006  0 15.725000000000003  L 0 1.2749999999999966  Z " fill-rule="nonzero" fill="rgba(255, 255, 255, 1)" stroke="none" transform="matrix(1 0 0 1 0 19 )" class="fill" />
    <path d="M 0 1.2749999999999966  C 0 0.5708369437499944  0.2739310411184221 0  0.6118421052631579 0  L 61.38815789473684 0  C 61.72606890789474 0  62 0.5708369437499944  62 1.2749999999999966  L 62 15.725000000000003  C 62 16.429163035000006  61.72606890789474 17  61.38815789473684 17  L 0.6118421052631579 17  C 0.2739310411184221 17  0 16.429163035000006  0 15.725000000000003  L 0 1.2749999999999966  Z " stroke-width="0" stroke-dasharray="0" stroke="rgba(255, 255, 255, 0)" fill="none" transform="matrix(1 0 0 1 0 19 )" class="stroke" mask="url(#Clip504)" />
  </g>
</svg>