<?xml version="1.0" encoding="utf-8"?>
<svg version="1.1" xmlns:xlink="http://www.w3.org/1999/xlink" width="91px" height="16px" xmlns="http://www.w3.org/2000/svg">
  <defs>
    <pattern id="BGPattern" patternUnits="userSpaceOnUse" alignment="0 0" imageRepeat="None" />
    <mask fill="white" id="Clip508">
      <path d="M 0 1.1999999999999966  C 0 0.5372582999999946  0.4020600764802647 0  0.8980263157894737 0  L 55.91603053435108 0  L 90.10197368421053 0  C 90.59793984868422 0  91 0.5372582999999946  91 1.1999999999999966  L 91 14.800000000000004  C 91 15.462741680000008  90.59793984868422 16  90.10197368421053 16  L 47.51908396946566 16  L 0.8980263157894737 16  C 0.4020600764802647 16  0 15.462741680000008  0 14.800000000000004  L 0 1.1999999999999966  Z " fill-rule="evenodd" />
    </mask>
  </defs>
  <g transform="matrix(1 0 0 1 0 -3 )">
    <path d="M 0 1.1999999999999966  C 0 0.5372582999999946  0.4020600764802647 0  0.8980263157894737 0  L 55.91603053435108 0  L 90.10197368421053 0  C 90.59793984868422 0  91 0.5372582999999946  91 1.1999999999999966  L 91 14.800000000000004  C 91 15.462741680000008  90.59793984868422 16  90.10197368421053 16  L 47.51908396946566 16  L 0.8980263157894737 16  C 0.4020600764802647 16  0 15.462741680000008  0 14.800000000000004  L 0 1.1999999999999966  Z " fill-rule="nonzero" fill="rgba(255, 255, 255, 1)" stroke="none" transform="matrix(1 0 0 1 0 3 )" class="fill" />
    <path d="M 0 1.1999999999999966  C 0 0.5372582999999946  0.4020600764802647 0  0.8980263157894737 0  L 55.91603053435108 0  L 90.10197368421053 0  C 90.59793984868422 0  91 0.5372582999999946  91 1.1999999999999966  L 91 14.800000000000004  C 91 15.462741680000008  90.59793984868422 16  90.10197368421053 16  L 47.51908396946566 16  L 0.8980263157894737 16  C 0.4020600764802647 16  0 15.462741680000008  0 14.800000000000004  L 0 1.1999999999999966  Z " stroke-width="0" stroke-dasharray="0" stroke="rgba(255, 255, 255, 0)" fill="none" transform="matrix(1 0 0 1 0 3 )" class="stroke" mask="url(#Clip508)" />
  </g>
</svg>