<?xml version="1.0" encoding="utf-8"?>
<svg version="1.1" xmlns:xlink="http://www.w3.org/1999/xlink" width="13px" height="11px" xmlns="http://www.w3.org/2000/svg">
  <defs>
    <pattern id="BGPattern" patternUnits="userSpaceOnUse" alignment="0 0" imageRepeat="None" />
    <mask fill="white" id="Clip499">
      <path d="M 0 1.375  C 0 0.6156084687500023  0.7275372812500027 0  1.625 0  L 11.375 0  C 12.272462718749997 0  13 0.6156084687500023  13 1.375  L 13 9.625  C 13 10.384391531249998  12.272462718749997 11  11.375 11  L 1.625 11  C 0.7275372812500027 11  0 10.384391531249998  0 9.625  L 0 1.375  Z " fill-rule="evenodd" />
    </mask>
  </defs>
  <g transform="matrix(1 0 0 1 -44 -201 )">
    <path d="M 0 1.375  C 0 0.6156084687500023  0.7275372812500027 0  1.625 0  L 11.375 0  C 12.272462718749997 0  13 0.6156084687500023  13 1.375  L 13 9.625  C 13 10.384391531249998  12.272462718749997 11  11.375 11  L 1.625 11  C 0.7275372812500027 11  0 10.384391531249998  0 9.625  L 0 1.375  Z " fill-rule="nonzero" fill="rgba(0, 82, 217, 1)" stroke="none" transform="matrix(1 0 0 1 44 201 )" class="fill" />
    <path d="M 0 1.375  C 0 0.6156084687500023  0.7275372812500027 0  1.625 0  L 11.375 0  C 12.272462718749997 0  13 0.6156084687500023  13 1.375  L 13 9.625  C 13 10.384391531249998  12.272462718749997 11  11.375 11  L 1.625 11  C 0.7275372812500027 11  0 10.384391531249998  0 9.625  L 0 1.375  Z " stroke-width="0" stroke-dasharray="0" stroke="rgba(255, 255, 255, 0)" fill="none" transform="matrix(1 0 0 1 44 201 )" class="stroke" mask="url(#Clip499)" />
  </g>
</svg>