<?xml version="1.0" encoding="utf-8"?>
<svg version="1.1" xmlns:xlink="http://www.w3.org/1999/xlink" width="940.598484756px" height="342.59848475599995px" xmlns="http://www.w3.org/2000/svg">
  <defs>
    <pattern id="BGPattern" patternUnits="userSpaceOnUse" alignment="0 0" imageRepeat="None" />
    <mask fill="white" id="Clip715">
      <path d="M 935.7487260689655 0  C 936.9920704827587 0  938 0.8380288420338984  938 1.8717898118644065  L 938 338.1281809039548  C 938 339.161942259887  936.9920704827587 339.9999702259887  935.7487260689655 340  L 2.251273365 340  C 1.007929415586207 339.9999702259887  0 339.161942259887  0 338.1281809039548  L 0 1.8717898118644065  C 0 0.8380288420338984  1.007929415586207 0  2.251273365 0  L 935.7487260689655 0  Z " fill-rule="evenodd" />
    </mask>
  </defs>
  <g transform="matrix(1 0 0 1 -224.700757622 -464.35037881100004 )">
    <path d="M 935.7487260689655 0  C 936.9920704827587 0  938 0.8380288420338984  938 1.8717898118644065  L 938 338.1281809039548  C 938 339.161942259887  936.9920704827587 339.9999702259887  935.7487260689655 340  L 2.251273365 340  C 1.007929415586207 339.9999702259887  0 339.161942259887  0 338.1281809039548  L 0 1.8717898118644065  C 0 0.8380288420338984  1.007929415586207 0  2.251273365 0  L 935.7487260689655 0  Z " fill-rule="nonzero" fill="rgba(255, 255, 255, 1)" stroke="none" transform="matrix(1 0 0 1 226 465 )" class="fill" />
    <path d="M 935.7487260689655 0  C 936.9920704827587 0  938 0.8380288420338984  938 1.8717898118644065  L 938 338.1281809039548  C 938 339.161942259887  936.9920704827587 339.9999702259887  935.7487260689655 340  L 2.251273365 340  C 1.007929415586207 339.9999702259887  0 339.161942259887  0 338.1281809039548  L 0 1.8717898118644065  C 0 0.8380288420338984  1.007929415586207 0  2.251273365 0  L 935.7487260689655 0  Z " stroke-width="0" stroke-dasharray="0" stroke="rgba(255, 255, 255, 0)" fill="none" transform="matrix(1 0 0 1 226 465 )" class="stroke" mask="url(#Clip715)" />
  </g>
  <style>svg { filter: drop-shadow(0px 0.649621189px 0.649621189px rgba(0, 0, 0, 0.09803921568627451)); }</style>
</svg>