<?xml version="1.0" encoding="utf-8"?>
<svg version="1.1" xmlns:xlink="http://www.w3.org/1999/xlink" width="956.598484756px" height="304.598484756px" xmlns="http://www.w3.org/2000/svg">
  <defs>
    <pattern id="BGPattern" patternUnits="userSpaceOnUse" alignment="0 0" imageRepeat="None" />
    <mask fill="white" id="Clip450">
      <path d="M 951.7103295073892 0  C 952.974872955665 0  954 0.7443667949830509  954 1.6625897740677964  L 954 300.3374098079096  C 954 301.2556331299435  952.974872955665 302  951.7103295073892 302  L 2.2896751921181773 302  C 1.025122344827549 302  0 301.2556331299435  0 300.3374098079096  L 0 1.6625897740677964  C 0 0.7443667949830509  1.025122344827549 0  2.2896751921181773 0  L 951.7103295073892 0  Z " fill-rule="evenodd" />
    </mask>
  </defs>
  <g transform="matrix(1 0 0 1 -201.700757622 -98.350378811 )">
    <path d="M 951.7103295073892 0  C 952.974872955665 0  954 0.7443667949830509  954 1.6625897740677964  L 954 300.3374098079096  C 954 301.2556331299435  952.974872955665 302  951.7103295073892 302  L 2.2896751921181773 302  C 1.025122344827549 302  0 301.2556331299435  0 300.3374098079096  L 0 1.6625897740677964  C 0 0.7443667949830509  1.025122344827549 0  2.2896751921181773 0  L 951.7103295073892 0  Z " fill-rule="nonzero" fill="rgba(255, 255, 255, 1)" stroke="none" transform="matrix(1 0 0 1 203 99 )" class="fill" />
    <path d="M 951.7103295073892 0  C 952.974872955665 0  954 0.7443667949830509  954 1.6625897740677964  L 954 300.3374098079096  C 954 301.2556331299435  952.974872955665 302  951.7103295073892 302  L 2.2896751921181773 302  C 1.025122344827549 302  0 301.2556331299435  0 300.3374098079096  L 0 1.6625897740677964  C 0 0.7443667949830509  1.025122344827549 0  2.2896751921181773 0  L 951.7103295073892 0  Z " stroke-width="0" stroke-dasharray="0" stroke="rgba(255, 255, 255, 0)" fill="none" transform="matrix(1 0 0 1 203 99 )" class="stroke" mask="url(#Clip450)" />
  </g>
  <style>svg { filter: drop-shadow(0px 0.649621189px 0.649621189px rgba(0, 0, 0, 0.09803921568627451)); }</style>
</svg>