<?xml version="1.0" encoding="utf-8"?>
<svg version="1.1" xmlns:xlink="http://www.w3.org/1999/xlink" width="958.598484756px" height="343.598484756px" xmlns="http://www.w3.org/2000/svg">
  <defs>
    <pattern id="BGPattern" patternUnits="userSpaceOnUse" alignment="0 0" imageRepeat="None" />
    <mask fill="white" id="Clip730">
      <path d="M 953.705529359606 0  C 954.9727238423645 0  956 0.8404936327457627  956 1.877295076016949  L 956 339.12270445197737  C 956 340.15950628248584  954.9727238423645 341  953.705529359606 341  L 2.294475349753645 341  C 1.0272714482758247 341  0 340.15950628248584  0 339.12270445197737  L 0 1.877295076016949  C 0 0.8404936327457627  1.0272714482758247 0  2.294475349753645 0  L 953.705529359606 0  Z " fill-rule="evenodd" />
    </mask>
  </defs>
  <g transform="matrix(1 0 0 1 -206.700757622 -109.350378811 )">
    <path d="M 953.705529359606 0  C 954.9727238423645 0  956 0.8404936327457627  956 1.877295076016949  L 956 339.12270445197737  C 956 340.15950628248584  954.9727238423645 341  953.705529359606 341  L 2.294475349753645 341  C 1.0272714482758247 341  0 340.15950628248584  0 339.12270445197737  L 0 1.877295076016949  C 0 0.8404936327457627  1.0272714482758247 0  2.294475349753645 0  L 953.705529359606 0  Z " fill-rule="nonzero" fill="rgba(255, 255, 255, 1)" stroke="none" transform="matrix(1 0 0 1 208 110 )" class="fill" />
    <path d="M 953.705529359606 0  C 954.9727238423645 0  956 0.8404936327457627  956 1.877295076016949  L 956 339.12270445197737  C 956 340.15950628248584  954.9727238423645 341  953.705529359606 341  L 2.294475349753645 341  C 1.0272714482758247 341  0 340.15950628248584  0 339.12270445197737  L 0 1.877295076016949  C 0 0.8404936327457627  1.0272714482758247 0  2.294475349753645 0  L 953.705529359606 0  Z " stroke-width="0" stroke-dasharray="0" stroke="rgba(255, 255, 255, 0)" fill="none" transform="matrix(1 0 0 1 208 110 )" class="stroke" mask="url(#Clip730)" />
  </g>
  <style>svg { filter: drop-shadow(0px 0.649621189px 0.649621189px rgba(0, 0, 0, 0.09803921568627451)); }</style>
</svg>