<?xml version="1.0" encoding="utf-8"?>
<svg version="1.1" xmlns:xlink="http://www.w3.org/1999/xlink" width="14px" height="12px" xmlns="http://www.w3.org/2000/svg">
  <defs>
    <pattern id="BGPattern" patternUnits="userSpaceOnUse" alignment="0 0" imageRepeat="None" />
    <mask fill="white" id="Clip771">
      <path d="M 0 1.5  C 0 0.6715728750000025  0.7835016875000029 0  1.75 0  L 12.25 0  C 13.216498312499997 0  14 0.6715728750000025  14 1.5  L 14 10.5  C 14 11.328427124999997  13.216498312499997 12  12.25 12  L 1.75 12  C 0.7835016875000029 12  0 11.328427124999997  0 10.5  L 0 1.5  Z " fill-rule="evenodd" />
    </mask>
  </defs>
  <g transform="matrix(1 0 0 1 -49 -217 )">
    <path d="M 0 1.5  C 0 0.6715728750000025  0.7835016875000029 0  1.75 0  L 12.25 0  C 13.216498312499997 0  14 0.6715728750000025  14 1.5  L 14 10.5  C 14 11.328427124999997  13.216498312499997 12  12.25 12  L 1.75 12  C 0.7835016875000029 12  0 11.328427124999997  0 10.5  L 0 1.5  Z " fill-rule="nonzero" fill="rgba(0, 82, 217, 1)" stroke="none" transform="matrix(1 0 0 1 49 217 )" class="fill" />
    <path d="M 0 1.5  C 0 0.6715728750000025  0.7835016875000029 0  1.75 0  L 12.25 0  C 13.216498312499997 0  14 0.6715728750000025  14 1.5  L 14 10.5  C 14 11.328427124999997  13.216498312499997 12  12.25 12  L 1.75 12  C 0.7835016875000029 12  0 11.328427124999997  0 10.5  L 0 1.5  Z " stroke-width="0" stroke-dasharray="0" stroke="rgba(255, 255, 255, 0)" fill="none" transform="matrix(1 0 0 1 49 217 )" class="stroke" mask="url(#Clip771)" />
  </g>
</svg>