<?xml version="1.0" encoding="utf-8"?>
<svg version="1.1" xmlns:xlink="http://www.w3.org/1999/xlink" width="958.598484756px" height="304.59848475599995px" xmlns="http://www.w3.org/2000/svg">
  <defs>
    <pattern id="BGPattern" patternUnits="userSpaceOnUse" alignment="0 0" imageRepeat="None" />
    <mask fill="white" id="Clip434">
      <path d="M 953.7055246502463 0  C 954.9727285517242 0  956 0.7443667949830509  956 1.6625897740677964  L 956 300.3373842146893  C 956 301.2556075367232  954.9727285517242 301.9999735536723  953.7055246502463 302  L 2.294474772857143 302  C 1.0272713446699508 301.9999735536723  0 301.2556075367232  0 300.3373842146893  L 0 1.6625897740677964  C 0 0.7443667949830509  1.0272713446699508 0  2.294474772857143 0  L 953.7055246502463 0  Z " fill-rule="evenodd" />
    </mask>
  </defs>
  <g transform="matrix(1 0 0 1 -199.700757622 -413.35037881100004 )">
    <path d="M 953.7055246502463 0  C 954.9727285517242 0  956 0.7443667949830509  956 1.6625897740677964  L 956 300.3373842146893  C 956 301.2556075367232  954.9727285517242 301.9999735536723  953.7055246502463 302  L 2.294474772857143 302  C 1.0272713446699508 301.9999735536723  0 301.2556075367232  0 300.3373842146893  L 0 1.6625897740677964  C 0 0.7443667949830509  1.0272713446699508 0  2.294474772857143 0  L 953.7055246502463 0  Z " fill-rule="nonzero" fill="rgba(255, 255, 255, 1)" stroke="none" transform="matrix(1 0 0 1 201 414 )" class="fill" />
    <path d="M 953.7055246502463 0  C 954.9727285517242 0  956 0.7443667949830509  956 1.6625897740677964  L 956 300.3373842146893  C 956 301.2556075367232  954.9727285517242 301.9999735536723  953.7055246502463 302  L 2.294474772857143 302  C 1.0272713446699508 301.9999735536723  0 301.2556075367232  0 300.3373842146893  L 0 1.6625897740677964  C 0 0.7443667949830509  1.0272713446699508 0  2.294474772857143 0  L 953.7055246502463 0  Z " stroke-width="0" stroke-dasharray="0" stroke="rgba(255, 255, 255, 0)" fill="none" transform="matrix(1 0 0 1 201 414 )" class="stroke" mask="url(#Clip434)" />
  </g>
  <style>svg { filter: drop-shadow(0px 0.649621189px 0.649621189px rgba(0, 0, 0, 0.09803921568627451)); }</style>
</svg>