<?xml version="1.0" encoding="utf-8"?>
<svg version="1.1" xmlns:xlink="http://www.w3.org/1999/xlink" width="91px" height="16px" xmlns="http://www.w3.org/2000/svg">
  <defs>
    <pattern id="BGPattern" patternUnits="userSpaceOnUse" alignment="0 0" imageRepeat="None" />
    <mask fill="white" id="Clip509">
      <path d="M 0 1.2000000000000028  C 0 0.5372582999999906  0.4020600764802647 0  0.8980263157894737 0  L 53.62595419847322 0  L 90.10197368421053 0  C 90.59793984868422 0  91 0.5372582999999906  91 1.2000000000000028  L 91 14.799999999999997  C 91 15.462741680000008  90.59793984868422 16  90.10197368421053 16  L 0.8980263157894737 16  C 0.4020600764802647 16  0 15.462741680000008  0 14.799999999999997  L 0 1.2000000000000028  Z " fill-rule="evenodd" />
    </mask>
  </defs>
  <g transform="matrix(1 0 0 1 0 -87 )">
    <path d="M 0 1.2000000000000028  C 0 0.5372582999999906  0.4020600764802647 0  0.8980263157894737 0  L 53.62595419847322 0  L 90.10197368421053 0  C 90.59793984868422 0  91 0.5372582999999906  91 1.2000000000000028  L 91 14.799999999999997  C 91 15.462741680000008  90.59793984868422 16  90.10197368421053 16  L 0.8980263157894737 16  C 0.4020600764802647 16  0 15.462741680000008  0 14.799999999999997  L 0 1.2000000000000028  Z " fill-rule="nonzero" fill="rgba(255, 255, 255, 1)" stroke="none" transform="matrix(1 0 0 1 0 87 )" class="fill" />
    <path d="M 0 1.2000000000000028  C 0 0.5372582999999906  0.4020600764802647 0  0.8980263157894737 0  L 53.62595419847322 0  L 90.10197368421053 0  C 90.59793984868422 0  91 0.5372582999999906  91 1.2000000000000028  L 91 14.799999999999997  C 91 15.462741680000008  90.59793984868422 16  90.10197368421053 16  L 0.8980263157894737 16  C 0.4020600764802647 16  0 15.462741680000008  0 14.799999999999997  L 0 1.2000000000000028  Z " stroke-width="0" stroke-dasharray="0" stroke="rgba(255, 255, 255, 0)" fill="none" transform="matrix(1 0 0 1 0 87 )" class="stroke" mask="url(#Clip509)" />
  </g>
</svg>