<?xml version="1.0" encoding="utf-8"?>
<svg version="1.1" xmlns:xlink="http://www.w3.org/1999/xlink" width="47px" height="17px" xmlns="http://www.w3.org/2000/svg">
  <defs>
    <pattern id="BGPattern" patternUnits="userSpaceOnUse" alignment="0 0" imageRepeat="None" />
    <mask fill="white" id="Clip778">
      <path d="M 0 1.2749999999999966  C 0 0.5708369437499944  0.2076574021381587 0  0.4638157894736842 0  L 46.536184210526315 0  C 46.79234255921053 0  47 0.5708369437499944  47 1.2749999999999966  L 47 15.725000000000003  C 47 16.429163035000006  46.79234255921053 17  46.536184210526315 17  L 0.4638157894736842 17  C 0.2076574021381587 17  0 16.429163035000006  0 15.725000000000003  L 0 1.2749999999999966  Z " fill-rule="evenodd" />
    </mask>
  </defs>
  <g transform="matrix(1 0 0 1 0 -1 )">
    <path d="M 0 1.2749999999999966  C 0 0.5708369437499944  0.2076574021381587 0  0.4638157894736842 0  L 46.536184210526315 0  C 46.79234255921053 0  47 0.5708369437499944  47 1.2749999999999966  L 47 15.725000000000003  C 47 16.429163035000006  46.79234255921053 17  46.536184210526315 17  L 0.4638157894736842 17  C 0.2076574021381587 17  0 16.429163035000006  0 15.725000000000003  L 0 1.2749999999999966  Z " fill-rule="nonzero" fill="rgba(255, 255, 255, 1)" stroke="none" transform="matrix(1 0 0 1 0 1 )" class="fill" />
    <path d="M 0 1.2749999999999966  C 0 0.5708369437499944  0.2076574021381587 0  0.4638157894736842 0  L 46.536184210526315 0  C 46.79234255921053 0  47 0.5708369437499944  47 1.2749999999999966  L 47 15.725000000000003  C 47 16.429163035000006  46.79234255921053 17  46.536184210526315 17  L 0.4638157894736842 17  C 0.2076574021381587 17  0 16.429163035000006  0 15.725000000000003  L 0 1.2749999999999966  Z " stroke-width="0" stroke-dasharray="0" stroke="rgba(255, 255, 255, 0)" fill="none" transform="matrix(1 0 0 1 0 1 )" class="stroke" mask="url(#Clip778)" />
  </g>
</svg>