<?xml version="1.0" encoding="utf-8"?>
<svg version="1.1" xmlns:xlink="http://www.w3.org/1999/xlink" width="17px" height="16px" xmlns="http://www.w3.org/2000/svg">
  <defs>
    <pattern id="BGPattern" patternUnits="userSpaceOnUse" alignment="0 0" imageRepeat="None" />
    <mask fill="white" id="Clip758">
      <path d="M 6.375 0  C 2.8541845841666413 0  0 2.4796535753846105  0 5.538461538461538  C 0 8.597269501538467  2.8541845841666413 11.076923076923077  6.375 11.076923076923077  C 7.622434216666591 11.076923076923077  8.786186457500076 10.765650830769232  9.768963016666607 10.227632984615385  L 15.168401016666792 14.918548553846152  L 16.170135366666596 14.048262399999999  L 10.882805184166745 9.454745366153842  C 12.036453050000052 8.45248119384615  12.75 7.067865809230765  12.75 5.538461538461538  C 12.75 2.4796535753846105  9.895815415833358 0  6.375 0  Z M 6.375 1.2307692307692308  C 9.113412062500043 1.2307692307692308  11.333333333333332 3.1593886153846142  11.333333333333332 5.538461538461538  C 11.333333333333332 7.917534461538462  9.113412062500043 9.846153846153847  6.375 9.846153846153847  C 3.636587937499958 9.846153846153847  1.4166666666666665 7.917534461538462  1.4166666666666665 5.538461538461538  C 1.4166666666666665 3.1593886153846142  3.636587937499958 1.2307692307692308  6.375 1.2307692307692308  Z " fill-rule="evenodd" />
    </mask>
  </defs>
  <g transform="matrix(1 0 0 1 -460 -34 )">
    <path d="M 6.375 0  C 2.8541845841666413 0  0 2.4796535753846105  0 5.538461538461538  C 0 8.597269501538467  2.8541845841666413 11.076923076923077  6.375 11.076923076923077  C 7.622434216666591 11.076923076923077  8.786186457500076 10.765650830769232  9.768963016666607 10.227632984615385  L 15.168401016666792 14.918548553846152  L 16.170135366666596 14.048262399999999  L 10.882805184166745 9.454745366153842  C 12.036453050000052 8.45248119384615  12.75 7.067865809230765  12.75 5.538461538461538  C 12.75 2.4796535753846105  9.895815415833358 0  6.375 0  Z M 6.375 1.2307692307692308  C 9.113412062500043 1.2307692307692308  11.333333333333332 3.1593886153846142  11.333333333333332 5.538461538461538  C 11.333333333333332 7.917534461538462  9.113412062500043 9.846153846153847  6.375 9.846153846153847  C 3.636587937499958 9.846153846153847  1.4166666666666665 7.917534461538462  1.4166666666666665 5.538461538461538  C 1.4166666666666665 3.1593886153846142  3.636587937499958 1.2307692307692308  6.375 1.2307692307692308  Z " fill-rule="nonzero" fill="rgba(0, 0, 0, 0.4)" stroke="none" transform="matrix(1 0 0 1 460 34 )" class="fill" />
    <path d="M 6.375 0  C 2.8541845841666413 0  0 2.4796535753846105  0 5.538461538461538  C 0 8.597269501538467  2.8541845841666413 11.076923076923077  6.375 11.076923076923077  C 7.622434216666591 11.076923076923077  8.786186457500076 10.765650830769232  9.768963016666607 10.227632984615385  L 15.168401016666792 14.918548553846152  L 16.170135366666596 14.048262399999999  L 10.882805184166745 9.454745366153842  C 12.036453050000052 8.45248119384615  12.75 7.067865809230765  12.75 5.538461538461538  C 12.75 2.4796535753846105  9.895815415833358 0  6.375 0  Z " stroke-width="0" stroke-dasharray="0" stroke="rgba(255, 255, 255, 0)" fill="none" transform="matrix(1 0 0 1 460 34 )" class="stroke" mask="url(#Clip758)" />
    <path d="M 6.375 1.2307692307692308  C 9.113412062500043 1.2307692307692308  11.333333333333332 3.1593886153846142  11.333333333333332 5.538461538461538  C 11.333333333333332 7.917534461538462  9.113412062500043 9.846153846153847  6.375 9.846153846153847  C 3.636587937499958 9.846153846153847  1.4166666666666665 7.917534461538462  1.4166666666666665 5.538461538461538  C 1.4166666666666665 3.1593886153846142  3.636587937499958 1.2307692307692308  6.375 1.2307692307692308  Z " stroke-width="0" stroke-dasharray="0" stroke="rgba(255, 255, 255, 0)" fill="none" transform="matrix(1 0 0 1 460 34 )" class="stroke" mask="url(#Clip758)" />
  </g>
</svg>