<?xml version="1.0" encoding="utf-8"?>
<svg version="1.1" xmlns:xlink="http://www.w3.org/1999/xlink" width="16px" height="15px" xmlns="http://www.w3.org/2000/svg">
  <defs>
    <pattern id="BGPattern" patternUnits="userSpaceOnUse" alignment="0 0" imageRepeat="None" />
    <mask fill="white" id="Clip55">
      <path d="M 6 0  C 2.6862913733333094 0  0 2.3246752269230724  0 5.1923076923076925  C 0 8.059940157692312  2.6862913733333094 10.384615384615385  6 10.384615384615385  C 7.174055733333262 10.384615384615385  8.269351960000071 10.092797653846155  9.194318133333278 9.588405923076923  L 14.276142133333451 13.986139269230767  L 15.218950933333266 13.170245999999999  L 10.242640173333408 8.863823780769227  C 11.32842640000005 7.924201119230766  12 6.626124196153842  12 5.1923076923076925  C 12 2.3246752269230724  9.31370862666669 0  6 0  Z M 6 1.153846153846154  C 8.57732900000004 1.153846153846154  10.666666666666666 2.961926826923076  10.666666666666666 5.1923076923076925  C 10.666666666666666 7.422688557692308  8.57732900000004 9.230769230769232  6 9.230769230769232  C 3.4226709999999607 9.230769230769232  1.3333333333333333 7.422688557692308  1.3333333333333333 5.1923076923076925  C 1.3333333333333333 2.961926826923076  3.4226709999999607 1.153846153846154  6 1.153846153846154  Z " fill-rule="evenodd" />
    </mask>
  </defs>
  <g transform="matrix(1 0 0 1 -413 -31 )">
    <path d="M 6 0  C 2.6862913733333094 0  0 2.3246752269230724  0 5.1923076923076925  C 0 8.059940157692312  2.6862913733333094 10.384615384615385  6 10.384615384615385  C 7.174055733333262 10.384615384615385  8.269351960000071 10.092797653846155  9.194318133333278 9.588405923076923  L 14.276142133333451 13.986139269230767  L 15.218950933333266 13.170245999999999  L 10.242640173333408 8.863823780769227  C 11.32842640000005 7.924201119230766  12 6.626124196153842  12 5.1923076923076925  C 12 2.3246752269230724  9.31370862666669 0  6 0  Z M 6 1.153846153846154  C 8.57732900000004 1.153846153846154  10.666666666666666 2.961926826923076  10.666666666666666 5.1923076923076925  C 10.666666666666666 7.422688557692308  8.57732900000004 9.230769230769232  6 9.230769230769232  C 3.4226709999999607 9.230769230769232  1.3333333333333333 7.422688557692308  1.3333333333333333 5.1923076923076925  C 1.3333333333333333 2.961926826923076  3.4226709999999607 1.153846153846154  6 1.153846153846154  Z " fill-rule="nonzero" fill="rgba(0, 0, 0, 0.4)" stroke="none" transform="matrix(1 0 0 1 413 31 )" class="fill" />
    <path d="M 6 0  C 2.6862913733333094 0  0 2.3246752269230724  0 5.1923076923076925  C 0 8.059940157692312  2.6862913733333094 10.384615384615385  6 10.384615384615385  C 7.174055733333262 10.384615384615385  8.269351960000071 10.092797653846155  9.194318133333278 9.588405923076923  L 14.276142133333451 13.986139269230767  L 15.218950933333266 13.170245999999999  L 10.242640173333408 8.863823780769227  C 11.32842640000005 7.924201119230766  12 6.626124196153842  12 5.1923076923076925  C 12 2.3246752269230724  9.31370862666669 0  6 0  Z " stroke-width="0" stroke-dasharray="0" stroke="rgba(255, 255, 255, 0)" fill="none" transform="matrix(1 0 0 1 413 31 )" class="stroke" mask="url(#Clip55)" />
    <path d="M 6 1.153846153846154  C 8.57732900000004 1.153846153846154  10.666666666666666 2.961926826923076  10.666666666666666 5.1923076923076925  C 10.666666666666666 7.422688557692308  8.57732900000004 9.230769230769232  6 9.230769230769232  C 3.4226709999999607 9.230769230769232  1.3333333333333333 7.422688557692308  1.3333333333333333 5.1923076923076925  C 1.3333333333333333 2.961926826923076  3.4226709999999607 1.153846153846154  6 1.153846153846154  Z " stroke-width="0" stroke-dasharray="0" stroke="rgba(255, 255, 255, 0)" fill="none" transform="matrix(1 0 0 1 413 31 )" class="stroke" mask="url(#Clip55)" />
  </g>
</svg>