<?xml version="1.0" encoding="utf-8"?>
<svg version="1.1" xmlns:xlink="http://www.w3.org/1999/xlink" width="14px" height="18px" xmlns="http://www.w3.org/2000/svg">
  <defs>
    <pattern id="BGPattern" patternUnits="userSpaceOnUse" alignment="0 0" imageRepeat="None" />
    <mask fill="white" id="Clip104">
      <path d="M 7.000165940000002 0.3214285714285714  L 13.062343599999998 4.6607142857142865  L 13.062343599999998 13.339285714285715  L 7.000165940000002 17.678571428571427  L 0.937988279999999 13.339285714285715  L 0.937988279999999 4.6607142857142865  L 7.000165940000002 0.3214285714285714  Z M 12.062343599999998 5.416456564285713  L 7.000165940000002 1.7929672199999556  L 1.9379882799999992 5.416456564285713  L 1.9379882799999992 12.583544014285735  L 7.000165940000002 16.207032471428516  L 12.062343599999998 12.583544014285735  L 12.062343599999998 5.416456564285713  Z M 10.000165899999999 9  C 10.000165899999999 11.130241667142855  8.657020090000003 12.857142857142858  7.000165940000002 12.857142857142858  C 5.343311790000001 12.857142857142858  4.000165940000002 11.130241667142855  4.000165940000002 9  C 4.000165940000002 6.869758950000053  5.343311790000001 5.142857142857142  7.000165940000002 5.142857142857142  C 8.657020090000003 5.142857142857142  10.000165899999999 6.869758950000053  10.000165899999999 9  Z M 5.000165940000002 9  C 5.000165940000002 10.420160708571398  5.895596499999996 11.571428571428573  7.000165940000002 11.571428571428573  C 8.10473537 11.571428571428573  9.000165899999999 10.420160708571398  9.000165899999999 9  C 9.000165899999999 7.5798392914286  8.10473537 6.428571428571429  7.000165940000002 6.428571428571429  C 5.895596499999996 6.428571428571429  5.000165940000002 7.5798392914286  5.000165940000002 9  Z " fill-rule="evenodd" />
    </mask>
  </defs>
  <g transform="matrix(1 0 0 1 -1800 -26 )">
    <path d="M 7.000165940000002 0.3214285714285714  L 13.062343599999998 4.6607142857142865  L 13.062343599999998 13.339285714285715  L 7.000165940000002 17.678571428571427  L 0.937988279999999 13.339285714285715  L 0.937988279999999 4.6607142857142865  L 7.000165940000002 0.3214285714285714  Z M 12.062343599999998 5.416456564285713  L 7.000165940000002 1.7929672199999556  L 1.9379882799999992 5.416456564285713  L 1.9379882799999992 12.583544014285735  L 7.000165940000002 16.207032471428516  L 12.062343599999998 12.583544014285735  L 12.062343599999998 5.416456564285713  Z M 10.000165899999999 9  C 10.000165899999999 11.130241667142855  8.657020090000003 12.857142857142858  7.000165940000002 12.857142857142858  C 5.343311790000001 12.857142857142858  4.000165940000002 11.130241667142855  4.000165940000002 9  C 4.000165940000002 6.869758950000053  5.343311790000001 5.142857142857142  7.000165940000002 5.142857142857142  C 8.657020090000003 5.142857142857142  10.000165899999999 6.869758950000053  10.000165899999999 9  Z M 5.000165940000002 9  C 5.000165940000002 10.420160708571398  5.895596499999996 11.571428571428573  7.000165940000002 11.571428571428573  C 8.10473537 11.571428571428573  9.000165899999999 10.420160708571398  9.000165899999999 9  C 9.000165899999999 7.5798392914286  8.10473537 6.428571428571429  7.000165940000002 6.428571428571429  C 5.895596499999996 6.428571428571429  5.000165940000002 7.5798392914286  5.000165940000002 9  Z " fill-rule="nonzero" fill="rgba(0, 0, 0, 0.8980392156862745)" stroke="none" transform="matrix(1 0 0 1 1800 26 )" class="fill" />
    <path d="M 7.000165940000002 0.3214285714285714  L 13.062343599999998 4.6607142857142865  L 13.062343599999998 13.339285714285715  L 7.000165940000002 17.678571428571427  L 0.937988279999999 13.339285714285715  L 0.937988279999999 4.6607142857142865  L 7.000165940000002 0.3214285714285714  Z " stroke-width="0" stroke-dasharray="0" stroke="rgba(255, 255, 255, 0)" fill="none" transform="matrix(1 0 0 1 1800 26 )" class="stroke" mask="url(#Clip104)" />
    <path d="M 12.062343599999998 5.416456564285713  L 7.000165940000002 1.7929672199999556  L 1.9379882799999992 5.416456564285713  L 1.9379882799999992 12.583544014285735  L 7.000165940000002 16.207032471428516  L 12.062343599999998 12.583544014285735  L 12.062343599999998 5.416456564285713  Z " stroke-width="0" stroke-dasharray="0" stroke="rgba(255, 255, 255, 0)" fill="none" transform="matrix(1 0 0 1 1800 26 )" class="stroke" mask="url(#Clip104)" />
    <path d="M 10.000165899999999 9  C 10.000165899999999 11.130241667142855  8.657020090000003 12.857142857142858  7.000165940000002 12.857142857142858  C 5.343311790000001 12.857142857142858  4.000165940000002 11.130241667142855  4.000165940000002 9  C 4.000165940000002 6.869758950000053  5.343311790000001 5.142857142857142  7.000165940000002 5.142857142857142  C 8.657020090000003 5.142857142857142  10.000165899999999 6.869758950000053  10.000165899999999 9  Z " stroke-width="0" stroke-dasharray="0" stroke="rgba(255, 255, 255, 0)" fill="none" transform="matrix(1 0 0 1 1800 26 )" class="stroke" mask="url(#Clip104)" />
    <path d="M 5.000165940000002 9  C 5.000165940000002 10.420160708571398  5.895596499999996 11.571428571428573  7.000165940000002 11.571428571428573  C 8.10473537 11.571428571428573  9.000165899999999 10.420160708571398  9.000165899999999 9  C 9.000165899999999 7.5798392914286  8.10473537 6.428571428571429  7.000165940000002 6.428571428571429  C 5.895596499999996 6.428571428571429  5.000165940000002 7.5798392914286  5.000165940000002 9  Z " stroke-width="0" stroke-dasharray="0" stroke="rgba(255, 255, 255, 0)" fill="none" transform="matrix(1 0 0 1 1800 26 )" class="stroke" mask="url(#Clip104)" />
  </g>
</svg>