<?xml version="1.0" encoding="utf-8"?>
<svg version="1.1" xmlns:xlink="http://www.w3.org/1999/xlink" width="19px" height="14px" xmlns="http://www.w3.org/2000/svg">
  <defs>
    <pattern id="BGPattern" patternUnits="userSpaceOnUse" alignment="0 0" imageRepeat="None" />
    <mask fill="white" id="Clip471">
      <path d="M 3.510983744374954 10.503974847058824  C 3.1737337324999544 10.208327788235287  2.764046232499922 9.603857035294114  2.0349212087498643 8.870092345882346  C 1.6216712206250605 8.455033514117641  0.5968587669375438 7.673504547058833  0.2916712681249578 7.276563370588246  C 0.026858762424907923 6.925739841176467  0.055358775962616846 6.150798434117646  0.11829627513112939 5.860092559999998  C 0.2299212716875303 5.342916072941173  0.9946713654998547 4.940210116470593  1.81048383937501 4.994563057647065  C 2.426796327499872 5.034915998823518  2.9492963631251 5.317386652941185  3.4195463631250504 5.584210182352937  C 3.703358851249945 5.7447984094117714  4.052483898750097 6.056916147058825  4.262671410624861 6.233151441176471  C 4.456233910624874 6.394563205882351  4.503733744374969 7.078916007058819  4.710358732500069 7.269974830588229  C 4.983483744374965 7.522798368235285  5.06898400562504 7.647975069411764  4.964484005625081 7.3696221282352985  C 4.880171493750041 6.961151548235296  4.7424211968749574 5.645975069411754  4.542921196875085 5.029151531764716  C 4.390921185000025 4.561386809411752  4.354108815625054 4.488092749411752  4.20923381562497 4.129033942352936  C 4.056046327499956 3.7469163035294137  3.9776713274999196 3.479269129411755  3.8339838393749517 3.074092650588227  C 3.7342338393748804 2.7875044235293993  3.5549213037499072 2.2019749129411688  3.5062338037499785 1.8725631482352816  C 3.438546303749959 1.4220925682352907  3.4029212206250605 0.6875043625882259  3.819733732500069 0.34985730705882895  C 4.146296244375051 0.08550435777881242  4.8956086493750774 0.005622014752950289  5.359921149374898 0.1686808372941153  C 5.9679211849999945 0.3819749574117716  6.3134834950000425 0.9946808529411842  6.471420995000088 1.2392690799999988  C 6.755233494999857 1.6790337694117672  6.930983827500015 2.18715150705882  7.084171315625028 2.8542103305882334  C 7.278921327499887 3.7032691705882277  7.637546125625022 4.881739552941179  7.649421125625011 5.129621905882345  C 7.677921125624877 4.82573956117647  7.568671458125024 4.185857200000004  7.644671469999992 3.8943277882352865  C 7.7135464581251085 3.629974838823517  8.034171339374993 3.322798516470584  8.435546339374952 3.2396220376470493  C 8.775171351249895 3.169622037647066  10.06360872062497 3.144092576470598  10.413921196875037 3.1943278705882276  C 10.785608696874888 3.2470337529411863  11.177484017499921 3.431504398823529  11.323546529374852 3.6052691047058696  C 11.753421505624928 4.119151465882343  11.76173381562485 5.169151334117654  11.77954631562497 5.113151334117644  C 11.881671315624985 4.803504283529412  11.863859290624973 4.101033588235295  12.116796790624932 3.8086806552941104  C 12.28304679062505 3.6159747729411853  12.706983483124915 3.44221038823529  12.932608518749873 3.414210379999996  C 13.281733518749988 3.3713868505882374  13.71042184999996 3.358210075294119  14.077359349999924 3.4076218400000036  C 14.373046849999952 3.44797478117648  14.773233281249901 3.691739470588225  14.881295781250046 3.8086806552941104  C 15.140170781249864 4.091974781176464  15.287421493749918 4.893268890588234  15.331358993749959 5.174092411764705  C 15.349171493750077 5.290210058823521  15.419234231249959 4.851269236470591  15.67929673125002 4.567975110588236  C 16.16142173124996 4.041739816470581  17.86785899374992 3.93962216117646  17.933171493749995 5.094210355294111  C 17.962858993750103 5.632798574117647  17.956920900000043 5.608092419999995  17.956920900000043 5.970445361176463  C 17.956920900000043 6.3962100835294144  17.942671018749934 7.269975267058813  17.90942101874991 7.57797528352941  C 17.87260851874997 7.907387048235297  17.770483874999968 8.651857331764699  17.622046374999968 9.012563247058832  C 17.519921374999953 9.260445599999999  17.18148340000002 9.817974847058826  16.84779590000008 10.1523277882353  C 15.997545899999935 10.838602105882341  15.526108400000012 11.33628835294117  15.433483400000043 11.645386364705871  C 15.293358400000116 12.108209894117646  15.33967173124995 12.111504176470593  15.312359231250056 12.440092411764711  C 15.294150937499978 12.658602188235283  15.342046493749976 12.911700199999997  15.456046018749873 13.199386447058831  C 14.821129193749911 13.256484952941163  14.332670781250059 13.2660929882353  13.990670781250046 13.228210635294106  C 13.526358281249955 13.176328282352939  12.951608281250046 12.5356219882353  12.803170733750008 12.3396219882353  C 12.598920733749978 12.069504341176476  12.163109183749967 12.121386941176475  11.993296671875058 12.320681058823526  C 11.72610918375004 12.63609274117648  11.15135848312498 13.201857447058819  10.745233471249989 13.237269211764705  C 9.951983494999865 13.306445682352944  7.41548358999998 13.26279821176471  6.127046042499899 13.253739388235305  C 6.273504561874958 12.698680647058824  6.1836504981250044 12.325896388235305  5.857483827500019 12.135386611764703  C 5.495296315625069 11.922092494117656  4.871858780000068 11.489739964705883  4.4989837681251 11.262445847058817  C 4.4989837681251 11.262445847058817  3.510983744374954 10.503974847058824  3.510983744374954 10.503974847058824  Z " fill-rule="evenodd" />
    </mask>
  </defs>
  <g transform="matrix(1 0 0 1 -572 -221 )">
    <path d="M 3.510983744374954 10.503974847058824  C 3.1737337324999544 10.208327788235287  2.764046232499922 9.603857035294114  2.0349212087498643 8.870092345882346  C 1.6216712206250605 8.455033514117641  0.5968587669375438 7.673504547058833  0.2916712681249578 7.276563370588246  C 0.026858762424907923 6.925739841176467  0.055358775962616846 6.150798434117646  0.11829627513112939 5.860092559999998  C 0.2299212716875303 5.342916072941173  0.9946713654998547 4.940210116470593  1.81048383937501 4.994563057647065  C 2.426796327499872 5.034915998823518  2.9492963631251 5.317386652941185  3.4195463631250504 5.584210182352937  C 3.703358851249945 5.7447984094117714  4.052483898750097 6.056916147058825  4.262671410624861 6.233151441176471  C 4.456233910624874 6.394563205882351  4.503733744374969 7.078916007058819  4.710358732500069 7.269974830588229  C 4.983483744374965 7.522798368235285  5.06898400562504 7.647975069411764  4.964484005625081 7.3696221282352985  C 4.880171493750041 6.961151548235296  4.7424211968749574 5.645975069411754  4.542921196875085 5.029151531764716  C 4.390921185000025 4.561386809411752  4.354108815625054 4.488092749411752  4.20923381562497 4.129033942352936  C 4.056046327499956 3.7469163035294137  3.9776713274999196 3.479269129411755  3.8339838393749517 3.074092650588227  C 3.7342338393748804 2.7875044235293993  3.5549213037499072 2.2019749129411688  3.5062338037499785 1.8725631482352816  C 3.438546303749959 1.4220925682352907  3.4029212206250605 0.6875043625882259  3.819733732500069 0.34985730705882895  C 4.146296244375051 0.08550435777881242  4.8956086493750774 0.005622014752950289  5.359921149374898 0.1686808372941153  C 5.9679211849999945 0.3819749574117716  6.3134834950000425 0.9946808529411842  6.471420995000088 1.2392690799999988  C 6.755233494999857 1.6790337694117672  6.930983827500015 2.18715150705882  7.084171315625028 2.8542103305882334  C 7.278921327499887 3.7032691705882277  7.637546125625022 4.881739552941179  7.649421125625011 5.129621905882345  C 7.677921125624877 4.82573956117647  7.568671458125024 4.185857200000004  7.644671469999992 3.8943277882352865  C 7.7135464581251085 3.629974838823517  8.034171339374993 3.322798516470584  8.435546339374952 3.2396220376470493  C 8.775171351249895 3.169622037647066  10.06360872062497 3.144092576470598  10.413921196875037 3.1943278705882276  C 10.785608696874888 3.2470337529411863  11.177484017499921 3.431504398823529  11.323546529374852 3.6052691047058696  C 11.753421505624928 4.119151465882343  11.76173381562485 5.169151334117654  11.77954631562497 5.113151334117644  C 11.881671315624985 4.803504283529412  11.863859290624973 4.101033588235295  12.116796790624932 3.8086806552941104  C 12.28304679062505 3.6159747729411853  12.706983483124915 3.44221038823529  12.932608518749873 3.414210379999996  C 13.281733518749988 3.3713868505882374  13.71042184999996 3.358210075294119  14.077359349999924 3.4076218400000036  C 14.373046849999952 3.44797478117648  14.773233281249901 3.691739470588225  14.881295781250046 3.8086806552941104  C 15.140170781249864 4.091974781176464  15.287421493749918 4.893268890588234  15.331358993749959 5.174092411764705  C 15.349171493750077 5.290210058823521  15.419234231249959 4.851269236470591  15.67929673125002 4.567975110588236  C 16.16142173124996 4.041739816470581  17.86785899374992 3.93962216117646  17.933171493749995 5.094210355294111  C 17.962858993750103 5.632798574117647  17.956920900000043 5.608092419999995  17.956920900000043 5.970445361176463  C 17.956920900000043 6.3962100835294144  17.942671018749934 7.269975267058813  17.90942101874991 7.57797528352941  C 17.87260851874997 7.907387048235297  17.770483874999968 8.651857331764699  17.622046374999968 9.012563247058832  C 17.519921374999953 9.260445599999999  17.18148340000002 9.817974847058826  16.84779590000008 10.1523277882353  C 15.997545899999935 10.838602105882341  15.526108400000012 11.33628835294117  15.433483400000043 11.645386364705871  C 15.293358400000116 12.108209894117646  15.33967173124995 12.111504176470593  15.312359231250056 12.440092411764711  C 15.294150937499978 12.658602188235283  15.342046493749976 12.911700199999997  15.456046018749873 13.199386447058831  C 14.821129193749911 13.256484952941163  14.332670781250059 13.2660929882353  13.990670781250046 13.228210635294106  C 13.526358281249955 13.176328282352939  12.951608281250046 12.5356219882353  12.803170733750008 12.3396219882353  C 12.598920733749978 12.069504341176476  12.163109183749967 12.121386941176475  11.993296671875058 12.320681058823526  C 11.72610918375004 12.63609274117648  11.15135848312498 13.201857447058819  10.745233471249989 13.237269211764705  C 9.951983494999865 13.306445682352944  7.41548358999998 13.26279821176471  6.127046042499899 13.253739388235305  C 6.273504561874958 12.698680647058824  6.1836504981250044 12.325896388235305  5.857483827500019 12.135386611764703  C 5.495296315625069 11.922092494117656  4.871858780000068 11.489739964705883  4.4989837681251 11.262445847058817  C 4.4989837681251 11.262445847058817  3.510983744374954 10.503974847058824  3.510983744374954 10.503974847058824  Z " fill-rule="nonzero" fill="rgba(255, 255, 255, 0)" stroke="none" transform="matrix(1 0 0 1 572 221 )" class="fill" />
    <path d="M 3.510983744374954 10.503974847058824  C 3.1737337324999544 10.208327788235287  2.764046232499922 9.603857035294114  2.0349212087498643 8.870092345882346  C 1.6216712206250605 8.455033514117641  0.5968587669375438 7.673504547058833  0.2916712681249578 7.276563370588246  C 0.026858762424907923 6.925739841176467  0.055358775962616846 6.150798434117646  0.11829627513112939 5.860092559999998  C 0.2299212716875303 5.342916072941173  0.9946713654998547 4.940210116470593  1.81048383937501 4.994563057647065  C 2.426796327499872 5.034915998823518  2.9492963631251 5.317386652941185  3.4195463631250504 5.584210182352937  C 3.703358851249945 5.7447984094117714  4.052483898750097 6.056916147058825  4.262671410624861 6.233151441176471  C 4.456233910624874 6.394563205882351  4.503733744374969 7.078916007058819  4.710358732500069 7.269974830588229  C 4.983483744374965 7.522798368235285  5.06898400562504 7.647975069411764  4.964484005625081 7.3696221282352985  C 4.880171493750041 6.961151548235296  4.7424211968749574 5.645975069411754  4.542921196875085 5.029151531764716  C 4.390921185000025 4.561386809411752  4.354108815625054 4.488092749411752  4.20923381562497 4.129033942352936  C 4.056046327499956 3.7469163035294137  3.9776713274999196 3.479269129411755  3.8339838393749517 3.074092650588227  C 3.7342338393748804 2.7875044235293993  3.5549213037499072 2.2019749129411688  3.5062338037499785 1.8725631482352816  C 3.438546303749959 1.4220925682352907  3.4029212206250605 0.6875043625882259  3.819733732500069 0.34985730705882895  C 4.146296244375051 0.08550435777881242  4.8956086493750774 0.005622014752950289  5.359921149374898 0.1686808372941153  C 5.9679211849999945 0.3819749574117716  6.3134834950000425 0.9946808529411842  6.471420995000088 1.2392690799999988  C 6.755233494999857 1.6790337694117672  6.930983827500015 2.18715150705882  7.084171315625028 2.8542103305882334  C 7.278921327499887 3.7032691705882277  7.637546125625022 4.881739552941179  7.649421125625011 5.129621905882345  C 7.677921125624877 4.82573956117647  7.568671458125024 4.185857200000004  7.644671469999992 3.8943277882352865  C 7.7135464581251085 3.629974838823517  8.034171339374993 3.322798516470584  8.435546339374952 3.2396220376470493  C 8.775171351249895 3.169622037647066  10.06360872062497 3.144092576470598  10.413921196875037 3.1943278705882276  C 10.785608696874888 3.2470337529411863  11.177484017499921 3.431504398823529  11.323546529374852 3.6052691047058696  C 11.753421505624928 4.119151465882343  11.76173381562485 5.169151334117654  11.77954631562497 5.113151334117644  C 11.881671315624985 4.803504283529412  11.863859290624973 4.101033588235295  12.116796790624932 3.8086806552941104  C 12.28304679062505 3.6159747729411853  12.706983483124915 3.44221038823529  12.932608518749873 3.414210379999996  C 13.281733518749988 3.3713868505882374  13.71042184999996 3.358210075294119  14.077359349999924 3.4076218400000036  C 14.373046849999952 3.44797478117648  14.773233281249901 3.691739470588225  14.881295781250046 3.8086806552941104  C 15.140170781249864 4.091974781176464  15.287421493749918 4.893268890588234  15.331358993749959 5.174092411764705  C 15.349171493750077 5.290210058823521  15.419234231249959 4.851269236470591  15.67929673125002 4.567975110588236  C 16.16142173124996 4.041739816470581  17.86785899374992 3.93962216117646  17.933171493749995 5.094210355294111  C 17.962858993750103 5.632798574117647  17.956920900000043 5.608092419999995  17.956920900000043 5.970445361176463  C 17.956920900000043 6.3962100835294144  17.942671018749934 7.269975267058813  17.90942101874991 7.57797528352941  C 17.87260851874997 7.907387048235297  17.770483874999968 8.651857331764699  17.622046374999968 9.012563247058832  C 17.519921374999953 9.260445599999999  17.18148340000002 9.817974847058826  16.84779590000008 10.1523277882353  C 15.997545899999935 10.838602105882341  15.526108400000012 11.33628835294117  15.433483400000043 11.645386364705871  C 15.293358400000116 12.108209894117646  15.33967173124995 12.111504176470593  15.312359231250056 12.440092411764711  C 15.294150937499978 12.658602188235283  15.342046493749976 12.911700199999997  15.456046018749873 13.199386447058831  C 14.821129193749911 13.256484952941163  14.332670781250059 13.2660929882353  13.990670781250046 13.228210635294106  C 13.526358281249955 13.176328282352939  12.951608281250046 12.5356219882353  12.803170733750008 12.3396219882353  C 12.598920733749978 12.069504341176476  12.163109183749967 12.121386941176475  11.993296671875058 12.320681058823526  C 11.72610918375004 12.63609274117648  11.15135848312498 13.201857447058819  10.745233471249989 13.237269211764705  C 9.951983494999865 13.306445682352944  7.41548358999998 13.26279821176471  6.127046042499899 13.253739388235305  C 6.273504561874958 12.698680647058824  6.1836504981250044 12.325896388235305  5.857483827500019 12.135386611764703  C 5.495296315625069 11.922092494117656  4.871858780000068 11.489739964705883  4.4989837681251 11.262445847058817  C 4.4989837681251 11.262445847058817  3.510983744374954 10.503974847058824  3.510983744374954 10.503974847058824  Z " stroke-width="1.5" stroke-dasharray="0" stroke="rgba(0, 0, 0, 1)" fill="none" transform="matrix(1 0 0 1 572 221 )" class="stroke" mask="url(#Clip471)" />
  </g>
</svg>