<?xml version="1.0" encoding="utf-8"?>
<svg version="1.1" xmlns:xlink="http://www.w3.org/1999/xlink" width="19px" height="16px" xmlns="http://www.w3.org/2000/svg">
  <defs>
    <pattern id="BGPattern" patternUnits="userSpaceOnUse" alignment="0 0" imageRepeat="None" />
    <mask fill="white" id="Clip751">
      <path d="M 3.510983744374954 12.004542682352943  C 3.1737337324999544 11.666660329411757  2.764046232499922 10.975836611764702  2.0349212087498643 10.13724839529411  C 1.6216712206250605 9.662895444705876  0.5968587669375438 8.769719482352953  0.2916712681249578 8.316072423529423  C 0.026858762424907923 7.915131247058819  0.055358775962616846 7.029483924705881  0.11829627513112939 6.697248639999998  C 0.2299212716875303 6.106189797647055  0.9946713654998547 5.645954418823535  1.81048383937501 5.7080720658823605  C 2.426796327499872 5.754189712941163  2.9492963631251 6.077013317647069  3.4195463631250504 6.381954494117642  C 3.703358851249945 6.565483896470596  4.052483898750097 6.922189882352942  4.262671410624861 7.123601647058823  C 4.456233910624874 7.308072235294115  4.503733744374969 8.090189722352935  4.710358732500069 8.308542663529405  C 4.983483744374965 8.597483849411754  5.06898400562504 8.740542936470588  4.964484005625081 8.42242528941177  C 4.880171493750041 7.955601769411768  4.7424211968749574 6.452542936470576  4.542921196875085 5.747601750588247  C 4.390921185000025 5.213013496470573  4.354108815625054 5.129248856470574  4.20923381562497 4.718895934117641  C 4.056046327499956 4.282190061176473  3.9776713274999196 3.9763075764705773  3.8339838393749517 3.5132487435294024  C 3.7342338393748804 3.185719341176456  3.5549213037499072 2.51654275764705  3.5062338037499785 2.1400721694117504  C 3.438546303749959 1.6252486494117608  3.4029212206250605 0.785719271529401  3.819733732500069 0.3998369223529474  C 4.146296244375051 0.09771926603292848  4.8956086493750774 0.006425159717657473  5.359921149374898 0.1927780997647032  C 5.9679211849999945 0.4365428084705961  6.3134834950000425 1.1367781176470677  6.471420995000088 1.4163075199999986  C 6.755233494999857 1.918895736470591  6.930983827500015 2.4996017223529368  7.084171315625028 3.2619546635294094  C 7.278921327499887 4.232307623529403  7.637546125625022 5.579130917647062  7.649421125625011 5.862425035294109  C 7.677921125624877 5.515130927058823  7.568671458125024 4.783836800000004  7.644671469999992 4.450660329411756  C 7.7135464581251085 4.148542672941162  8.034171339374993 3.797484018823525  8.435546339374952 3.702425185882342  C 8.775171351249895 3.622425185882361  10.06360872062497 3.5932486588235406  10.413921196875037 3.650660423529403  C 10.785608696874888 3.71089571764707  11.177484017499921 3.9217193129411765  11.323546529374852 4.12030754823528  C 11.753421505624928 4.707601675294106  11.76173381562485 5.90760152470589  11.77954631562497 5.843601524705879  C 11.881671315624985 5.48971918117647  11.863859290624973 4.686895529411766  12.116796790624932 4.352777891764697  C 12.28304679062505 4.132542597647069  12.706983483124915 3.93395472941176  12.932608518749873 3.9019547199999955  C 13.281733518749988 3.853013543529414  13.71042184999996 3.8379543717647078  14.077359349999924 3.8944249600000043  C 14.373046849999952 3.940542607058834  14.773233281249901 4.2191308235294  14.881295781250046 4.352777891764697  C 15.140170781249864 4.676542607058817  15.287421493749918 5.59230730352941  15.331358993749959 5.913248470588234  C 15.349171493750077 6.045954352941167  15.419234231249959 5.544307698823532  15.67929673125002 5.220542983529413  C 16.16142173124996 4.6191312188235205  17.86785899374992 4.502425327058812  17.933171493749995 5.821954691764698  C 17.962858993750103 6.437484084705883  17.956920900000043 6.409248479999994  17.956920900000043 6.823366127058815  C 17.956920900000043 7.309954381176474  17.942671018749934 8.30854316235293  17.90942101874991 8.660543181176468  C 17.87260851874997 9.037013769411768  17.770483874999968 9.887836950588227  17.622046374999968 10.300072282352952  C 17.519921374999953 10.5833664  17.18148340000002 11.220542682352944  16.84779590000008 11.602660329411773  C 15.997545899999935 12.386973835294103  15.526108400000012 12.95575811764705  15.433483400000043 13.309012988235281  C 15.293358400000116 13.83795416470588  15.33967173124995 13.841719058823534  15.312359231250056 14.217248470588242  C 15.294150937499978 14.466973929411752  15.342046493749976 14.756228799999997  15.456046018749873 15.08501308235295  C 14.821129193749911 15.150268517647044  14.332670781250059 15.161249129411772  13.990670781250046 15.117955011764693  C 13.526358281249955 15.058660894117645  12.951608281250046 14.326425129411772  12.803170733750008 14.102425129411772  C 12.598920733749978 13.79371924705883  12.163109183749967 13.853013647058829  11.993296671875058 14.080778352941172  C 11.72610918375004 14.441248847058834  11.15135848312498 15.087837082352936  10.745233471249989 15.128307670588235  C 9.951983494999865 15.20736649411765  7.41548358999998 15.157483670588242  6.127046042499899 15.147130729411776  C 6.273504561874958 14.51277788235294  6.1836504981250044 14.086738729411778  5.857483827500019 13.869013270588232  C 5.495296315625069 13.625248564705892  4.871858780000068 13.131131388235296  4.4989837681251 12.871366682352933  C 4.4989837681251 12.871366682352933  3.510983744374954 12.004542682352943  3.510983744374954 12.004542682352943  Z " fill-rule="evenodd" />
    </mask>
  </defs>
  <g transform="matrix(1 0 0 1 -578 -247 )">
    <path d="M 3.510983744374954 12.004542682352943  C 3.1737337324999544 11.666660329411757  2.764046232499922 10.975836611764702  2.0349212087498643 10.13724839529411  C 1.6216712206250605 9.662895444705876  0.5968587669375438 8.769719482352953  0.2916712681249578 8.316072423529423  C 0.026858762424907923 7.915131247058819  0.055358775962616846 7.029483924705881  0.11829627513112939 6.697248639999998  C 0.2299212716875303 6.106189797647055  0.9946713654998547 5.645954418823535  1.81048383937501 5.7080720658823605  C 2.426796327499872 5.754189712941163  2.9492963631251 6.077013317647069  3.4195463631250504 6.381954494117642  C 3.703358851249945 6.565483896470596  4.052483898750097 6.922189882352942  4.262671410624861 7.123601647058823  C 4.456233910624874 7.308072235294115  4.503733744374969 8.090189722352935  4.710358732500069 8.308542663529405  C 4.983483744374965 8.597483849411754  5.06898400562504 8.740542936470588  4.964484005625081 8.42242528941177  C 4.880171493750041 7.955601769411768  4.7424211968749574 6.452542936470576  4.542921196875085 5.747601750588247  C 4.390921185000025 5.213013496470573  4.354108815625054 5.129248856470574  4.20923381562497 4.718895934117641  C 4.056046327499956 4.282190061176473  3.9776713274999196 3.9763075764705773  3.8339838393749517 3.5132487435294024  C 3.7342338393748804 3.185719341176456  3.5549213037499072 2.51654275764705  3.5062338037499785 2.1400721694117504  C 3.438546303749959 1.6252486494117608  3.4029212206250605 0.785719271529401  3.819733732500069 0.3998369223529474  C 4.146296244375051 0.09771926603292848  4.8956086493750774 0.006425159717657473  5.359921149374898 0.1927780997647032  C 5.9679211849999945 0.4365428084705961  6.3134834950000425 1.1367781176470677  6.471420995000088 1.4163075199999986  C 6.755233494999857 1.918895736470591  6.930983827500015 2.4996017223529368  7.084171315625028 3.2619546635294094  C 7.278921327499887 4.232307623529403  7.637546125625022 5.579130917647062  7.649421125625011 5.862425035294109  C 7.677921125624877 5.515130927058823  7.568671458125024 4.783836800000004  7.644671469999992 4.450660329411756  C 7.7135464581251085 4.148542672941162  8.034171339374993 3.797484018823525  8.435546339374952 3.702425185882342  C 8.775171351249895 3.622425185882361  10.06360872062497 3.5932486588235406  10.413921196875037 3.650660423529403  C 10.785608696874888 3.71089571764707  11.177484017499921 3.9217193129411765  11.323546529374852 4.12030754823528  C 11.753421505624928 4.707601675294106  11.76173381562485 5.90760152470589  11.77954631562497 5.843601524705879  C 11.881671315624985 5.48971918117647  11.863859290624973 4.686895529411766  12.116796790624932 4.352777891764697  C 12.28304679062505 4.132542597647069  12.706983483124915 3.93395472941176  12.932608518749873 3.9019547199999955  C 13.281733518749988 3.853013543529414  13.71042184999996 3.8379543717647078  14.077359349999924 3.8944249600000043  C 14.373046849999952 3.940542607058834  14.773233281249901 4.2191308235294  14.881295781250046 4.352777891764697  C 15.140170781249864 4.676542607058817  15.287421493749918 5.59230730352941  15.331358993749959 5.913248470588234  C 15.349171493750077 6.045954352941167  15.419234231249959 5.544307698823532  15.67929673125002 5.220542983529413  C 16.16142173124996 4.6191312188235205  17.86785899374992 4.502425327058812  17.933171493749995 5.821954691764698  C 17.962858993750103 6.437484084705883  17.956920900000043 6.409248479999994  17.956920900000043 6.823366127058815  C 17.956920900000043 7.309954381176474  17.942671018749934 8.30854316235293  17.90942101874991 8.660543181176468  C 17.87260851874997 9.037013769411768  17.770483874999968 9.887836950588227  17.622046374999968 10.300072282352952  C 17.519921374999953 10.5833664  17.18148340000002 11.220542682352944  16.84779590000008 11.602660329411773  C 15.997545899999935 12.386973835294103  15.526108400000012 12.95575811764705  15.433483400000043 13.309012988235281  C 15.293358400000116 13.83795416470588  15.33967173124995 13.841719058823534  15.312359231250056 14.217248470588242  C 15.294150937499978 14.466973929411752  15.342046493749976 14.756228799999997  15.456046018749873 15.08501308235295  C 14.821129193749911 15.150268517647044  14.332670781250059 15.161249129411772  13.990670781250046 15.117955011764693  C 13.526358281249955 15.058660894117645  12.951608281250046 14.326425129411772  12.803170733750008 14.102425129411772  C 12.598920733749978 13.79371924705883  12.163109183749967 13.853013647058829  11.993296671875058 14.080778352941172  C 11.72610918375004 14.441248847058834  11.15135848312498 15.087837082352936  10.745233471249989 15.128307670588235  C 9.951983494999865 15.20736649411765  7.41548358999998 15.157483670588242  6.127046042499899 15.147130729411776  C 6.273504561874958 14.51277788235294  6.1836504981250044 14.086738729411778  5.857483827500019 13.869013270588232  C 5.495296315625069 13.625248564705892  4.871858780000068 13.131131388235296  4.4989837681251 12.871366682352933  C 4.4989837681251 12.871366682352933  3.510983744374954 12.004542682352943  3.510983744374954 12.004542682352943  Z " fill-rule="nonzero" fill="rgba(255, 255, 255, 0)" stroke="none" transform="matrix(1 0 0 1 578 247 )" class="fill" />
    <path d="M 3.510983744374954 12.004542682352943  C 3.1737337324999544 11.666660329411757  2.764046232499922 10.975836611764702  2.0349212087498643 10.13724839529411  C 1.6216712206250605 9.662895444705876  0.5968587669375438 8.769719482352953  0.2916712681249578 8.316072423529423  C 0.026858762424907923 7.915131247058819  0.055358775962616846 7.029483924705881  0.11829627513112939 6.697248639999998  C 0.2299212716875303 6.106189797647055  0.9946713654998547 5.645954418823535  1.81048383937501 5.7080720658823605  C 2.426796327499872 5.754189712941163  2.9492963631251 6.077013317647069  3.4195463631250504 6.381954494117642  C 3.703358851249945 6.565483896470596  4.052483898750097 6.922189882352942  4.262671410624861 7.123601647058823  C 4.456233910624874 7.308072235294115  4.503733744374969 8.090189722352935  4.710358732500069 8.308542663529405  C 4.983483744374965 8.597483849411754  5.06898400562504 8.740542936470588  4.964484005625081 8.42242528941177  C 4.880171493750041 7.955601769411768  4.7424211968749574 6.452542936470576  4.542921196875085 5.747601750588247  C 4.390921185000025 5.213013496470573  4.354108815625054 5.129248856470574  4.20923381562497 4.718895934117641  C 4.056046327499956 4.282190061176473  3.9776713274999196 3.9763075764705773  3.8339838393749517 3.5132487435294024  C 3.7342338393748804 3.185719341176456  3.5549213037499072 2.51654275764705  3.5062338037499785 2.1400721694117504  C 3.438546303749959 1.6252486494117608  3.4029212206250605 0.785719271529401  3.819733732500069 0.3998369223529474  C 4.146296244375051 0.09771926603292848  4.8956086493750774 0.006425159717657473  5.359921149374898 0.1927780997647032  C 5.9679211849999945 0.4365428084705961  6.3134834950000425 1.1367781176470677  6.471420995000088 1.4163075199999986  C 6.755233494999857 1.918895736470591  6.930983827500015 2.4996017223529368  7.084171315625028 3.2619546635294094  C 7.278921327499887 4.232307623529403  7.637546125625022 5.579130917647062  7.649421125625011 5.862425035294109  C 7.677921125624877 5.515130927058823  7.568671458125024 4.783836800000004  7.644671469999992 4.450660329411756  C 7.7135464581251085 4.148542672941162  8.034171339374993 3.797484018823525  8.435546339374952 3.702425185882342  C 8.775171351249895 3.622425185882361  10.06360872062497 3.5932486588235406  10.413921196875037 3.650660423529403  C 10.785608696874888 3.71089571764707  11.177484017499921 3.9217193129411765  11.323546529374852 4.12030754823528  C 11.753421505624928 4.707601675294106  11.76173381562485 5.90760152470589  11.77954631562497 5.843601524705879  C 11.881671315624985 5.48971918117647  11.863859290624973 4.686895529411766  12.116796790624932 4.352777891764697  C 12.28304679062505 4.132542597647069  12.706983483124915 3.93395472941176  12.932608518749873 3.9019547199999955  C 13.281733518749988 3.853013543529414  13.71042184999996 3.8379543717647078  14.077359349999924 3.8944249600000043  C 14.373046849999952 3.940542607058834  14.773233281249901 4.2191308235294  14.881295781250046 4.352777891764697  C 15.140170781249864 4.676542607058817  15.287421493749918 5.59230730352941  15.331358993749959 5.913248470588234  C 15.349171493750077 6.045954352941167  15.419234231249959 5.544307698823532  15.67929673125002 5.220542983529413  C 16.16142173124996 4.6191312188235205  17.86785899374992 4.502425327058812  17.933171493749995 5.821954691764698  C 17.962858993750103 6.437484084705883  17.956920900000043 6.409248479999994  17.956920900000043 6.823366127058815  C 17.956920900000043 7.309954381176474  17.942671018749934 8.30854316235293  17.90942101874991 8.660543181176468  C 17.87260851874997 9.037013769411768  17.770483874999968 9.887836950588227  17.622046374999968 10.300072282352952  C 17.519921374999953 10.5833664  17.18148340000002 11.220542682352944  16.84779590000008 11.602660329411773  C 15.997545899999935 12.386973835294103  15.526108400000012 12.95575811764705  15.433483400000043 13.309012988235281  C 15.293358400000116 13.83795416470588  15.33967173124995 13.841719058823534  15.312359231250056 14.217248470588242  C 15.294150937499978 14.466973929411752  15.342046493749976 14.756228799999997  15.456046018749873 15.08501308235295  C 14.821129193749911 15.150268517647044  14.332670781250059 15.161249129411772  13.990670781250046 15.117955011764693  C 13.526358281249955 15.058660894117645  12.951608281250046 14.326425129411772  12.803170733750008 14.102425129411772  C 12.598920733749978 13.79371924705883  12.163109183749967 13.853013647058829  11.993296671875058 14.080778352941172  C 11.72610918375004 14.441248847058834  11.15135848312498 15.087837082352936  10.745233471249989 15.128307670588235  C 9.951983494999865 15.20736649411765  7.41548358999998 15.157483670588242  6.127046042499899 15.147130729411776  C 6.273504561874958 14.51277788235294  6.1836504981250044 14.086738729411778  5.857483827500019 13.869013270588232  C 5.495296315625069 13.625248564705892  4.871858780000068 13.131131388235296  4.4989837681251 12.871366682352933  C 4.4989837681251 12.871366682352933  3.510983744374954 12.004542682352943  3.510983744374954 12.004542682352943  Z " stroke-width="1.5" stroke-dasharray="0" stroke="rgba(0, 0, 0, 1)" fill="none" transform="matrix(1 0 0 1 578 247 )" class="stroke" mask="url(#Clip751)" />
  </g>
</svg>