<?xml version="1.0" encoding="utf-8"?>
<svg version="1.1" xmlns:xlink="http://www.w3.org/1999/xlink" width="14px" height="11px" xmlns="http://www.w3.org/2000/svg">
  <defs>
    <pattern id="BGPattern" patternUnits="userSpaceOnUse" alignment="0 0" imageRepeat="None" />
    <mask fill="white" id="Clip36">
      <path d="M 9.333333333333332 1.6923076923076925  L 4.666666666666666 1.6923076923076925  L 4.666666666666666 0.42307692307692313  L 3.5 0.42307692307692313  L 3.5 1.6923076923076925  L 1.1666666666666665 1.6923076923076925  C 0.5223344933333465 1.6923076923076925  0 2.0711433938461563  0 2.5384615384615388  L 0 10.153846153846155  C 0 10.621163553846156  0.5223342133333897 11  1.1666666666666665 11  L 12.833333333333332 11  C 13.477664900000036 11  14 10.6211644  14 10.153846153846155  L 14 2.5384615384615388  C 14 2.071143698461536  13.477666066666568 1.6923076923076925  12.833333333333332 1.6923076923076925  L 10.5 1.6923076923076925  L 10.5 0.42307692307692313  L 9.333333333333332 0.42307692307692313  L 9.333333333333332 1.6923076923076925  Z M 1.1666666666666665 2.5384615384615388  L 3.5 2.5384615384615388  L 3.5 3.384615384615385  L 4.666666666666666 3.384615384615385  L 4.666666666666666 2.5384615384615388  L 9.333333333333332 2.5384615384615388  L 9.333333333333332 3.384615384615385  L 10.5 3.384615384615385  L 10.5 2.5384615384615388  L 12.833333333333332 2.5384615384615388  L 12.833333333333332 4.230769230769231  L 1.1666666666666665 4.230769230769231  L 1.1666666666666665 2.5384615384615388  Z M 12.833333333333332 10  L 1.1666666666666665 10  L 1.1666666666666665 5  L 12.833333333333332 5  L 12.833333333333332 10  Z " fill-rule="evenodd" />
    </mask>
  </defs>
  <g transform="matrix(1 0 0 1 -1093 -133 )">
    <path d="M 9.333333333333332 1.6923076923076925  L 4.666666666666666 1.6923076923076925  L 4.666666666666666 0.42307692307692313  L 3.5 0.42307692307692313  L 3.5 1.6923076923076925  L 1.1666666666666665 1.6923076923076925  C 0.5223344933333465 1.6923076923076925  0 2.0711433938461563  0 2.5384615384615388  L 0 10.153846153846155  C 0 10.621163553846156  0.5223342133333897 11  1.1666666666666665 11  L 12.833333333333332 11  C 13.477664900000036 11  14 10.6211644  14 10.153846153846155  L 14 2.5384615384615388  C 14 2.071143698461536  13.477666066666568 1.6923076923076925  12.833333333333332 1.6923076923076925  L 10.5 1.6923076923076925  L 10.5 0.42307692307692313  L 9.333333333333332 0.42307692307692313  L 9.333333333333332 1.6923076923076925  Z M 1.1666666666666665 2.5384615384615388  L 3.5 2.5384615384615388  L 3.5 3.384615384615385  L 4.666666666666666 3.384615384615385  L 4.666666666666666 2.5384615384615388  L 9.333333333333332 2.5384615384615388  L 9.333333333333332 3.384615384615385  L 10.5 3.384615384615385  L 10.5 2.5384615384615388  L 12.833333333333332 2.5384615384615388  L 12.833333333333332 4.230769230769231  L 1.1666666666666665 4.230769230769231  L 1.1666666666666665 2.5384615384615388  Z M 12.833333333333332 10  L 1.1666666666666665 10  L 1.1666666666666665 5  L 12.833333333333332 5  L 12.833333333333332 10  Z " fill-rule="nonzero" fill="rgba(0, 0, 0, 0.8980392156862745)" stroke="none" transform="matrix(1 0 0 1 1093 133 )" class="fill" />
    <path d="M 9.333333333333332 1.6923076923076925  L 4.666666666666666 1.6923076923076925  L 4.666666666666666 0.42307692307692313  L 3.5 0.42307692307692313  L 3.5 1.6923076923076925  L 1.1666666666666665 1.6923076923076925  C 0.5223344933333465 1.6923076923076925  0 2.0711433938461563  0 2.5384615384615388  L 0 10.153846153846155  C 0 10.621163553846156  0.5223342133333897 11  1.1666666666666665 11  L 12.833333333333332 11  C 13.477664900000036 11  14 10.6211644  14 10.153846153846155  L 14 2.5384615384615388  C 14 2.071143698461536  13.477666066666568 1.6923076923076925  12.833333333333332 1.6923076923076925  L 10.5 1.6923076923076925  L 10.5 0.42307692307692313  L 9.333333333333332 0.42307692307692313  L 9.333333333333332 1.6923076923076925  Z " stroke-width="0" stroke-dasharray="0" stroke="rgba(255, 255, 255, 0)" fill="none" transform="matrix(1 0 0 1 1093 133 )" class="stroke" mask="url(#Clip36)" />
    <path d="M 1.1666666666666665 2.5384615384615388  L 3.5 2.5384615384615388  L 3.5 3.384615384615385  L 4.666666666666666 3.384615384615385  L 4.666666666666666 2.5384615384615388  L 9.333333333333332 2.5384615384615388  L 9.333333333333332 3.384615384615385  L 10.5 3.384615384615385  L 10.5 2.5384615384615388  L 12.833333333333332 2.5384615384615388  L 12.833333333333332 4.230769230769231  L 1.1666666666666665 4.230769230769231  L 1.1666666666666665 2.5384615384615388  Z " stroke-width="0" stroke-dasharray="0" stroke="rgba(255, 255, 255, 0)" fill="none" transform="matrix(1 0 0 1 1093 133 )" class="stroke" mask="url(#Clip36)" />
    <path d="M 12.833333333333332 10  L 1.1666666666666665 10  L 1.1666666666666665 5  L 12.833333333333332 5  L 12.833333333333332 10  Z " stroke-width="0" stroke-dasharray="0" stroke="rgba(255, 255, 255, 0)" fill="none" transform="matrix(1 0 0 1 1093 133 )" class="stroke" mask="url(#Clip36)" />
  </g>
</svg>