<?xml version="1.0" encoding="utf-8"?>
<svg version="1.1" xmlns:xlink="http://www.w3.org/1999/xlink" width="38px" height="38px" xmlns="http://www.w3.org/2000/svg">
  <defs>
    <pattern id="BGPattern" patternUnits="userSpaceOnUse" alignment="0 0" imageRepeat="None" />
    <mask fill="white" id="Clip711">
      <path d="M 34.03267045454545 15.36328125  C 34.374526515151516 15.049913194444445  34.54545454545455 14.678819444444445  34.54545454545455 14.25  C 34.54545454545455 13.821180555555552  34.374526515151516 13.450086805555552  34.03267045454545 13.13671875  C 33.6908143939394 12.823350694444445  33.28598484848485 12.666666666666668  32.81818181818182 12.666666666666668  C 32.35037878787879 12.666666666666668  31.945549242424242 12.823350694444445  31.60369318181818 13.13671875  C 31.261837121212125 13.450086805555552  31.090909090909093 13.821180555555552  31.090909090909093 14.25  C 31.090909090909093 14.678819444444445  31.261837121212125 15.049913194444445  31.60369318181818 15.36328125  C 31.945549242424242 15.676649305555555  32.35037878787879 15.833333333333332  32.81818181818182 15.833333333333332  C 33.28598484848485 15.833333333333332  33.6908143939394 15.676649305555555  34.03267045454545 15.36328125  Z M 36.48863636363636 10.885416666666668  C 37.496212121212125 11.809027777777775  38 12.930555555555552  38 14.25  C 38 15.272569444444445  37.680634469696976 16.187934027777775  37.04190340909091 16.99609375  C 36.40317234848485 17.80425347222222  35.57102272727273 18.381510416666668  34.54545454545455 18.727864583333332  L 34.54545454545455 28.5  C 34.54545454545455 31.122395833333332  33.362452651515156 33.361328125  30.996448863636363 35.216796875  C 28.630445075757578 37.072265625  25.78314393939394 38  22.454545454545457 38  C 19.125946969696972 38  16.278645833333336 37.072265625  13.912642045454547 35.216796875  C 11.546638257575756 33.361328125  10.363636363636363 31.122395833333332  10.363636363636363 28.5  L 10.363636363636363 25.234375  C 7.412878787878789 24.90451388888889  4.947916666666668 23.848958333333336  2.9687500000000004 22.067708333333336  C 0.9895833333333336 20.286458333333336  0 18.208333333333332  0 15.833333333333332  L 0 3.166666666666668  C 0 2.7378472222222197  0.17092803030303066 2.3667534722222197  0.5127840909090913 2.053385416666668  C 0.8546401515151519 1.7400173611111078  1.2594696969696975 1.583333333333332  1.7272727272727275 1.583333333333332  C 1.8352272727272732 1.583333333333332  1.9791666666666672 1.5998263888888837  2.1590909090909096 1.6328125  C 2.4649621212121215 1.138020833333332  2.8877840909090913 0.7421875  3.4275568181818183 0.4453125  C 3.9673295454545454 0.1484375  4.552083333333334 0  5.181818181818182 0  C 6.135416666666668 0  6.949573863636364 0.3092447916666681  7.624289772727273 0.927734375  C 8.299005681818182 1.546223958333332  8.636363636363637 2.2925347222222197  8.636363636363637 3.166666666666668  C 8.636363636363637 4.040798611111108  8.299005681818182 4.787109375  7.624289772727273 5.405598958333332  C 6.949573863636364 6.024088541666668  6.135416666666668 6.333333333333332  5.181818181818182 6.333333333333332  C 4.588068181818182 6.333333333333332  4.012310606060606 6.184895833333332  3.4545454545454546 5.888020833333332  L 3.4545454545454546 15.833333333333332  C 3.4545454545454546 17.58159722222222  4.3001893939393945 19.07421875  5.991477272727273 20.311197916666664  C 7.682765151515151 21.548177083333336  9.71590909090909 22.166666666666664  12.09090909090909 22.166666666666664  C 14.46590909090909 22.166666666666664  16.49905303030303 21.548177083333336  18.19034090909091 20.311197916666664  C 19.88162878787879 19.07421875  20.727272727272727 17.58159722222222  20.727272727272727 15.833333333333332  L 20.727272727272727 5.888020833333332  C 20.169507575757574 6.184895833333332  19.59375 6.333333333333332  19 6.333333333333332  C 18.04640151515152 6.333333333333332  17.23224431818182 6.024088541666668  16.55752840909091 5.405598958333332  C 15.8828125 4.787109375  15.545454545454547 4.040798611111108  15.545454545454547 3.166666666666668  C 15.545454545454547 2.2925347222222197  15.8828125 1.546223958333332  16.55752840909091 0.927734375  C 17.23224431818182 0.3092447916666681  18.04640151515152 0  19 0  C 19.62973484848485 0  20.214488636363637 0.1484375  20.754261363636363 0.4453125  C 21.294034090909093 0.7421875  21.716856060606062 1.138020833333332  22.022727272727273 1.6328125  C 22.20265151515152 1.5998263888888837  22.346590909090907 1.583333333333332  22.454545454545457 1.583333333333332  C 22.92234848484849 1.583333333333332  23.327178030303035 1.7400173611111078  23.669034090909093 2.053385416666668  C 24.010890151515156 2.3667534722222197  24.18181818181818 2.7378472222222197  24 3.166666666666668  L 24 15.833333333333332  C 24.18181818181818 18.208333333333332  23.19223484848485 20.286458333333336  21.21306818181818 22.067708333333336  C 19.23390151515152 23.848958333333336  16.768939393939394 24.90451388888889  13.818181818181818 25.234375  L 13.818181818181818 28.5  C 13.818181818181818 30.248263888888893  14.66382575757576 31.740885416666668  16.355113636363637 32.97786458333333  C 18.04640151515152 34.21484375  20.079545454545457 34.83333333333333  22.454545454545457 34.83333333333333  C 24.829545454545457 34.83333333333333  26.862689393939394 34.21484375  28.553977272727273 32.97786458333333  C 30.245265151515156 31.740885416666668  31.090909090909093 30.248263888888893  31.090909090909093 28.5  L 31.090909090909093 18.727864583333332  C 30.065340909090907 18.381510416666668  29.233191287878793 17.80425347222222  28.594460227272727 16.99609375  C 27.95572916666667 16.187934027777775  27.636363636363637 15.272569444444445  27.636363636363637 14.25  C 27.636363636363637 12.930555555555552  28.14015151515152 11.809027777777775  29.147727272727273 10.885416666666668  C 30.155303030303035 9.961805555555552  31.37878787878788 9.5  32.81818181818182 9.5  C 34.25757575757576 9.5  35.48106060606061 9.961805555555552  36.48863636363636 10.885416666666668  Z " fill-rule="evenodd" />
    </mask>
  </defs>
  <g transform="matrix(1 0 0 1 -79 -280 )">
    <path d="M 34.03267045454545 15.36328125  C 34.374526515151516 15.049913194444445  34.54545454545455 14.678819444444445  34.54545454545455 14.25  C 34.54545454545455 13.821180555555552  34.374526515151516 13.450086805555552  34.03267045454545 13.13671875  C 33.6908143939394 12.823350694444445  33.28598484848485 12.666666666666668  32.81818181818182 12.666666666666668  C 32.35037878787879 12.666666666666668  31.945549242424242 12.823350694444445  31.60369318181818 13.13671875  C 31.261837121212125 13.450086805555552  31.090909090909093 13.821180555555552  31.090909090909093 14.25  C 31.090909090909093 14.678819444444445  31.261837121212125 15.049913194444445  31.60369318181818 15.36328125  C 31.945549242424242 15.676649305555555  32.35037878787879 15.833333333333332  32.81818181818182 15.833333333333332  C 33.28598484848485 15.833333333333332  33.6908143939394 15.676649305555555  34.03267045454545 15.36328125  Z M 36.48863636363636 10.885416666666668  C 37.496212121212125 11.809027777777775  38 12.930555555555552  38 14.25  C 38 15.272569444444445  37.680634469696976 16.187934027777775  37.04190340909091 16.99609375  C 36.40317234848485 17.80425347222222  35.57102272727273 18.381510416666668  34.54545454545455 18.727864583333332  L 34.54545454545455 28.5  C 34.54545454545455 31.122395833333332  33.362452651515156 33.361328125  30.996448863636363 35.216796875  C 28.630445075757578 37.072265625  25.78314393939394 38  22.454545454545457 38  C 19.125946969696972 38  16.278645833333336 37.072265625  13.912642045454547 35.216796875  C 11.546638257575756 33.361328125  10.363636363636363 31.122395833333332  10.363636363636363 28.5  L 10.363636363636363 25.234375  C 7.412878787878789 24.90451388888889  4.947916666666668 23.848958333333336  2.9687500000000004 22.067708333333336  C 0.9895833333333336 20.286458333333336  0 18.208333333333332  0 15.833333333333332  L 0 3.166666666666668  C 0 2.7378472222222197  0.17092803030303066 2.3667534722222197  0.5127840909090913 2.053385416666668  C 0.8546401515151519 1.7400173611111078  1.2594696969696975 1.583333333333332  1.7272727272727275 1.583333333333332  C 1.8352272727272732 1.583333333333332  1.9791666666666672 1.5998263888888837  2.1590909090909096 1.6328125  C 2.4649621212121215 1.138020833333332  2.8877840909090913 0.7421875  3.4275568181818183 0.4453125  C 3.9673295454545454 0.1484375  4.552083333333334 0  5.181818181818182 0  C 6.135416666666668 0  6.949573863636364 0.3092447916666681  7.624289772727273 0.927734375  C 8.299005681818182 1.546223958333332  8.636363636363637 2.2925347222222197  8.636363636363637 3.166666666666668  C 8.636363636363637 4.040798611111108  8.299005681818182 4.787109375  7.624289772727273 5.405598958333332  C 6.949573863636364 6.024088541666668  6.135416666666668 6.333333333333332  5.181818181818182 6.333333333333332  C 4.588068181818182 6.333333333333332  4.012310606060606 6.184895833333332  3.4545454545454546 5.888020833333332  L 3.4545454545454546 15.833333333333332  C 3.4545454545454546 17.58159722222222  4.3001893939393945 19.07421875  5.991477272727273 20.311197916666664  C 7.682765151515151 21.548177083333336  9.71590909090909 22.166666666666664  12.09090909090909 22.166666666666664  C 14.46590909090909 22.166666666666664  16.49905303030303 21.548177083333336  18.19034090909091 20.311197916666664  C 19.88162878787879 19.07421875  20.727272727272727 17.58159722222222  20.727272727272727 15.833333333333332  L 20.727272727272727 5.888020833333332  C 20.169507575757574 6.184895833333332  19.59375 6.333333333333332  19 6.333333333333332  C 18.04640151515152 6.333333333333332  17.23224431818182 6.024088541666668  16.55752840909091 5.405598958333332  C 15.8828125 4.787109375  15.545454545454547 4.040798611111108  15.545454545454547 3.166666666666668  C 15.545454545454547 2.2925347222222197  15.8828125 1.546223958333332  16.55752840909091 0.927734375  C 17.23224431818182 0.3092447916666681  18.04640151515152 0  19 0  C 19.62973484848485 0  20.214488636363637 0.1484375  20.754261363636363 0.4453125  C 21.294034090909093 0.7421875  21.716856060606062 1.138020833333332  22.022727272727273 1.6328125  C 22.20265151515152 1.5998263888888837  22.346590909090907 1.583333333333332  22.454545454545457 1.583333333333332  C 22.92234848484849 1.583333333333332  23.327178030303035 1.7400173611111078  23.669034090909093 2.053385416666668  C 24.010890151515156 2.3667534722222197  24.18181818181818 2.7378472222222197  24 3.166666666666668  L 24 15.833333333333332  C 24.18181818181818 18.208333333333332  23.19223484848485 20.286458333333336  21.21306818181818 22.067708333333336  C 19.23390151515152 23.848958333333336  16.768939393939394 24.90451388888889  13.818181818181818 25.234375  L 13.818181818181818 28.5  C 13.818181818181818 30.248263888888893  14.66382575757576 31.740885416666668  16.355113636363637 32.97786458333333  C 18.04640151515152 34.21484375  20.079545454545457 34.83333333333333  22.454545454545457 34.83333333333333  C 24.829545454545457 34.83333333333333  26.862689393939394 34.21484375  28.553977272727273 32.97786458333333  C 30.245265151515156 31.740885416666668  31.090909090909093 30.248263888888893  31.090909090909093 28.5  L 31.090909090909093 18.727864583333332  C 30.065340909090907 18.381510416666668  29.233191287878793 17.80425347222222  28.594460227272727 16.99609375  C 27.95572916666667 16.187934027777775  27.636363636363637 15.272569444444445  27.636363636363637 14.25  C 27.636363636363637 12.930555555555552  28.14015151515152 11.809027777777775  29.147727272727273 10.885416666666668  C 30.155303030303035 9.961805555555552  31.37878787878788 9.5  32.81818181818182 9.5  C 34.25757575757576 9.5  35.48106060606061 9.961805555555552  36.48863636363636 10.885416666666668  Z " fill-rule="nonzero" fill="rgba(0, 0, 0, 1)" stroke="none" transform="matrix(1 0 0 1 79 280 )" class="fill" />
    <path d="M 34.03267045454545 15.36328125  C 34.374526515151516 15.049913194444445  34.54545454545455 14.678819444444445  34.54545454545455 14.25  C 34.54545454545455 13.821180555555552  34.374526515151516 13.450086805555552  34.03267045454545 13.13671875  C 33.6908143939394 12.823350694444445  33.28598484848485 12.666666666666668  32.81818181818182 12.666666666666668  C 32.35037878787879 12.666666666666668  31.945549242424242 12.823350694444445  31.60369318181818 13.13671875  C 31.261837121212125 13.450086805555552  31.090909090909093 13.821180555555552  31.090909090909093 14.25  C 31.090909090909093 14.678819444444445  31.261837121212125 15.049913194444445  31.60369318181818 15.36328125  C 31.945549242424242 15.676649305555555  32.35037878787879 15.833333333333332  32.81818181818182 15.833333333333332  C 33.28598484848485 15.833333333333332  33.6908143939394 15.676649305555555  34.03267045454545 15.36328125  Z " stroke-width="0" stroke-dasharray="0" stroke="rgba(255, 255, 255, 0)" fill="none" transform="matrix(1 0 0 1 79 280 )" class="stroke" mask="url(#Clip711)" />
    <path d="M 36.48863636363636 10.885416666666668  C 37.496212121212125 11.809027777777775  38 12.930555555555552  38 14.25  C 38 15.272569444444445  37.680634469696976 16.187934027777775  37.04190340909091 16.99609375  C 36.40317234848485 17.80425347222222  35.57102272727273 18.381510416666668  34.54545454545455 18.727864583333332  L 34.54545454545455 28.5  C 34.54545454545455 31.122395833333332  33.362452651515156 33.361328125  30.996448863636363 35.216796875  C 28.630445075757578 37.072265625  25.78314393939394 38  22.454545454545457 38  C 19.125946969696972 38  16.278645833333336 37.072265625  13.912642045454547 35.216796875  C 11.546638257575756 33.361328125  10.363636363636363 31.122395833333332  10.363636363636363 28.5  L 10.363636363636363 25.234375  C 7.412878787878789 24.90451388888889  4.947916666666668 23.848958333333336  2.9687500000000004 22.067708333333336  C 0.9895833333333336 20.286458333333336  0 18.208333333333332  0 15.833333333333332  L 0 3.166666666666668  C 0 2.7378472222222197  0.17092803030303066 2.3667534722222197  0.5127840909090913 2.053385416666668  C 0.8546401515151519 1.7400173611111078  1.2594696969696975 1.583333333333332  1.7272727272727275 1.583333333333332  C 1.8352272727272732 1.583333333333332  1.9791666666666672 1.5998263888888837  2.1590909090909096 1.6328125  C 2.4649621212121215 1.138020833333332  2.8877840909090913 0.7421875  3.4275568181818183 0.4453125  C 3.9673295454545454 0.1484375  4.552083333333334 0  5.181818181818182 0  C 6.135416666666668 0  6.949573863636364 0.3092447916666681  7.624289772727273 0.927734375  C 8.299005681818182 1.546223958333332  8.636363636363637 2.2925347222222197  8.636363636363637 3.166666666666668  C 8.636363636363637 4.040798611111108  8.299005681818182 4.787109375  7.624289772727273 5.405598958333332  C 6.949573863636364 6.024088541666668  6.135416666666668 6.333333333333332  5.181818181818182 6.333333333333332  C 4.588068181818182 6.333333333333332  4.012310606060606 6.184895833333332  3.4545454545454546 5.888020833333332  L 3.4545454545454546 15.833333333333332  C 3.4545454545454546 17.58159722222222  4.3001893939393945 19.07421875  5.991477272727273 20.311197916666664  C 7.682765151515151 21.548177083333336  9.71590909090909 22.166666666666664  12.09090909090909 22.166666666666664  C 14.46590909090909 22.166666666666664  16.49905303030303 21.548177083333336  18.19034090909091 20.311197916666664  C 19.88162878787879 19.07421875  20.727272727272727 17.58159722222222  20.727272727272727 15.833333333333332  L 20.727272727272727 5.888020833333332  C 20.169507575757574 6.184895833333332  19.59375 6.333333333333332  19 6.333333333333332  C 18.04640151515152 6.333333333333332  17.23224431818182 6.024088541666668  16.55752840909091 5.405598958333332  C 15.8828125 4.787109375  15.545454545454547 4.040798611111108  15.545454545454547 3.166666666666668  C 15.545454545454547 2.2925347222222197  15.8828125 1.546223958333332  16.55752840909091 0.927734375  C 17.23224431818182 0.3092447916666681  18.04640151515152 0  19 0  C 19.62973484848485 0  20.214488636363637 0.1484375  20.754261363636363 0.4453125  C 21.294034090909093 0.7421875  21.716856060606062 1.138020833333332  22.022727272727273 1.6328125  C 22.20265151515152 1.5998263888888837  22.346590909090907 1.583333333333332  22.454545454545457 1.583333333333332  C 22.92234848484849 1.583333333333332  23.327178030303035 1.7400173611111078  23.669034090909093 2.053385416666668  C 24.010890151515156 2.3667534722222197  24.18181818181818 2.7378472222222197  24 3.166666666666668  L 24 15.833333333333332  C 24.18181818181818 18.208333333333332  23.19223484848485 20.286458333333336  21.21306818181818 22.067708333333336  C 19.23390151515152 23.848958333333336  16.768939393939394 24.90451388888889  13.818181818181818 25.234375  L 13.818181818181818 28.5  C 13.818181818181818 30.248263888888893  14.66382575757576 31.740885416666668  16.355113636363637 32.97786458333333  C 18.04640151515152 34.21484375  20.079545454545457 34.83333333333333  22.454545454545457 34.83333333333333  C 24.829545454545457 34.83333333333333  26.862689393939394 34.21484375  28.553977272727273 32.97786458333333  C 30.245265151515156 31.740885416666668  31.090909090909093 30.248263888888893  31.090909090909093 28.5  L 31.090909090909093 18.727864583333332  C 30.065340909090907 18.381510416666668  29.233191287878793 17.80425347222222  28.594460227272727 16.99609375  C 27.95572916666667 16.187934027777775  27.636363636363637 15.272569444444445  27.636363636363637 14.25  C 27.636363636363637 12.930555555555552  28.14015151515152 11.809027777777775  29.147727272727273 10.885416666666668  C 30.155303030303035 9.961805555555552  31.37878787878788 9.5  32.81818181818182 9.5  C 34.25757575757576 9.5  35.48106060606061 9.961805555555552  36.48863636363636 10.885416666666668  Z " stroke-width="0" stroke-dasharray="0" stroke="rgba(255, 255, 255, 0)" fill="none" transform="matrix(1 0 0 1 79 280 )" class="stroke" mask="url(#Clip711)" />
  </g>
</svg>