<?xml version="1.0" encoding="utf-8"?>
<svg version="1.1" xmlns:xlink="http://www.w3.org/1999/xlink" width="14px" height="13px" xmlns="http://www.w3.org/2000/svg">
  <defs>
    <pattern id="BGPattern" patternUnits="userSpaceOnUse" alignment="0 0" imageRepeat="None" />
    <mask fill="white" id="Clip747">
      <path d="M 9.333333333333332 2  L 4.666666666666666 2  L 4.666666666666666 0.5  L 3.5 0.5  L 3.5 2  L 1.1666666666666665 2  C 0.5223344933333465 2  0 2.447714920000003  0 3  L 0 12  C 0 12.552284200000003  0.5223342133333897 13  1.1666666666666665 13  L 12.833333333333332 13  C 13.477664900000036 13  14 12.5522852  14 12  L 14 3  C 14 2.447715279999997  13.477666066666568 2  12.833333333333332 2  L 10.5 2  L 10.5 0.5  L 9.333333333333332 0.5  L 9.333333333333332 2  Z M 1.1666666666666665 3  L 3.5 3  L 3.5 4  L 4.666666666666666 4  L 4.666666666666666 3  L 9.333333333333332 3  L 9.333333333333332 4  L 10.5 4  L 10.5 3  L 12.833333333333332 3  L 12.833333333333332 5  L 1.1666666666666665 5  L 1.1666666666666665 3  Z M 12.833333333333332 12  L 1.1666666666666665 12  L 1.1666666666666665 6  L 12.833333333333332 6  L 12.833333333333332 12  Z " fill-rule="evenodd" />
    </mask>
  </defs>
  <g transform="matrix(1 0 0 1 -1100 -148 )">
    <path d="M 9.333333333333332 2  L 4.666666666666666 2  L 4.666666666666666 0.5  L 3.5 0.5  L 3.5 2  L 1.1666666666666665 2  C 0.5223344933333465 2  0 2.447714920000003  0 3  L 0 12  C 0 12.552284200000003  0.5223342133333897 13  1.1666666666666665 13  L 12.833333333333332 13  C 13.477664900000036 13  14 12.5522852  14 12  L 14 3  C 14 2.447715279999997  13.477666066666568 2  12.833333333333332 2  L 10.5 2  L 10.5 0.5  L 9.333333333333332 0.5  L 9.333333333333332 2  Z M 1.1666666666666665 3  L 3.5 3  L 3.5 4  L 4.666666666666666 4  L 4.666666666666666 3  L 9.333333333333332 3  L 9.333333333333332 4  L 10.5 4  L 10.5 3  L 12.833333333333332 3  L 12.833333333333332 5  L 1.1666666666666665 5  L 1.1666666666666665 3  Z M 12.833333333333332 12  L 1.1666666666666665 12  L 1.1666666666666665 6  L 12.833333333333332 6  L 12.833333333333332 12  Z " fill-rule="nonzero" fill="rgba(0, 0, 0, 0.8980392156862745)" stroke="none" transform="matrix(1 0 0 1 1100 148 )" class="fill" />
    <path d="M 9.333333333333332 2  L 4.666666666666666 2  L 4.666666666666666 0.5  L 3.5 0.5  L 3.5 2  L 1.1666666666666665 2  C 0.5223344933333465 2  0 2.447714920000003  0 3  L 0 12  C 0 12.552284200000003  0.5223342133333897 13  1.1666666666666665 13  L 12.833333333333332 13  C 13.477664900000036 13  14 12.5522852  14 12  L 14 3  C 14 2.447715279999997  13.477666066666568 2  12.833333333333332 2  L 10.5 2  L 10.5 0.5  L 9.333333333333332 0.5  L 9.333333333333332 2  Z " stroke-width="0" stroke-dasharray="0" stroke="rgba(255, 255, 255, 0)" fill="none" transform="matrix(1 0 0 1 1100 148 )" class="stroke" mask="url(#Clip747)" />
    <path d="M 1.1666666666666665 3  L 3.5 3  L 3.5 4  L 4.666666666666666 4  L 4.666666666666666 3  L 9.333333333333332 3  L 9.333333333333332 4  L 10.5 4  L 10.5 3  L 12.833333333333332 3  L 12.833333333333332 5  L 1.1666666666666665 5  L 1.1666666666666665 3  Z " stroke-width="0" stroke-dasharray="0" stroke="rgba(255, 255, 255, 0)" fill="none" transform="matrix(1 0 0 1 1100 148 )" class="stroke" mask="url(#Clip747)" />
    <path d="M 12.833333333333332 12  L 1.1666666666666665 12  L 1.1666666666666665 6  L 12.833333333333332 6  L 12.833333333333332 12  Z " stroke-width="0" stroke-dasharray="0" stroke="rgba(255, 255, 255, 0)" fill="none" transform="matrix(1 0 0 1 1100 148 )" class="stroke" mask="url(#Clip747)" />
  </g>
</svg>