<?xml version="1.0" encoding="utf-8"?>
<svg version="1.1" xmlns:xlink="http://www.w3.org/1999/xlink" width="43px" height="34px" xmlns="http://www.w3.org/2000/svg">
  <defs>
    <pattern id="BGPattern" patternUnits="userSpaceOnUse" alignment="0 0" imageRepeat="None" />
    <mask fill="white" id="Clip712">
      <path d="M 3 31  L 43 31  L 43 34  L 0 34  L 0 0  L 3 0  L 3 31  Z M 40.12353515625 3.032552083333335  C 40.24951171875001 3.165364583333335  40.31250000000001 3.335069444444441  40.3125 3.541666666666665  L 40.3125 13.170572916666666  C 40.31250000000001 13.480468749999996  40.17602539062501 13.698133680555555  39.903076171875 13.823567708333334  C 39.63012695312501 13.94900173611111  39.38167317708334 13.893663194444445  39.15771484375 13.657552083333334  L 36.6171875 10.979166666666666  L 23.32666015625 24.990885416666668  C 23.18668619791667 25.13845486111111  23.025716145833336 25.212239583333332  22.84375 25.212239583333332  C 22.66178385416667 25.212239583333332  22.500813802083336 25.13845486111111  22.36083984375 24.990885416666668  L 17.46875 19.833333333333332  L 8.734375 29.041666666666664  L 4.703125 24.791666666666668  L 16.98583984375 11.842447916666666  C 17.125813802083336 11.694878472222221  17.28678385416667 11.62109375  17.46875 11.62109375  C 17.650716145833336 11.62109375  17.811686197916668 11.694878472222221  17.95166015625 11.842447916666666  L 22.84375 17  L 32.5859375 6.729166666666665  L 30.04541015625 4.05078125  C 29.82145182291667 3.8146701388888857  29.76896158854167 3.552734375  29.887939453125 3.264973958333335  C 30.006917317708336 2.977213541666665  30.21337890625 2.833333333333335  30.50732421875 2.833333333333335  L 39.640625 2.833333333333335  C 39.83658854166667 2.833333333333335  39.99755859375001 2.899739583333335  40.12353515625 3.032552083333335  Z " fill-rule="evenodd" />
    </mask>
  </defs>
  <g transform="matrix(1 0 0 1 -74 -586 )">
    <path d="M 3 31  L 43 31  L 43 34  L 0 34  L 0 0  L 3 0  L 3 31  Z M 40.12353515625 3.032552083333335  C 40.24951171875001 3.165364583333335  40.31250000000001 3.335069444444441  40.3125 3.541666666666665  L 40.3125 13.170572916666666  C 40.31250000000001 13.480468749999996  40.17602539062501 13.698133680555555  39.903076171875 13.823567708333334  C 39.63012695312501 13.94900173611111  39.38167317708334 13.893663194444445  39.15771484375 13.657552083333334  L 36.6171875 10.979166666666666  L 23.32666015625 24.990885416666668  C 23.18668619791667 25.13845486111111  23.025716145833336 25.212239583333332  22.84375 25.212239583333332  C 22.66178385416667 25.212239583333332  22.500813802083336 25.13845486111111  22.36083984375 24.990885416666668  L 17.46875 19.833333333333332  L 8.734375 29.041666666666664  L 4.703125 24.791666666666668  L 16.98583984375 11.842447916666666  C 17.125813802083336 11.694878472222221  17.28678385416667 11.62109375  17.46875 11.62109375  C 17.650716145833336 11.62109375  17.811686197916668 11.694878472222221  17.95166015625 11.842447916666666  L 22.84375 17  L 32.5859375 6.729166666666665  L 30.04541015625 4.05078125  C 29.82145182291667 3.8146701388888857  29.76896158854167 3.552734375  29.887939453125 3.264973958333335  C 30.006917317708336 2.977213541666665  30.21337890625 2.833333333333335  30.50732421875 2.833333333333335  L 39.640625 2.833333333333335  C 39.83658854166667 2.833333333333335  39.99755859375001 2.899739583333335  40.12353515625 3.032552083333335  Z " fill-rule="nonzero" fill="rgba(0, 0, 0, 1)" stroke="none" transform="matrix(1 0 0 1 74 586 )" class="fill" />
    <path d="M 3 31  L 43 31  L 43 34  L 0 34  L 0 0  L 3 0  L 3 31  Z " stroke-width="0" stroke-dasharray="0" stroke="rgba(255, 255, 255, 0)" fill="none" transform="matrix(1 0 0 1 74 586 )" class="stroke" mask="url(#Clip712)" />
    <path d="M 40.12353515625 3.032552083333335  C 40.24951171875001 3.165364583333335  40.31250000000001 3.335069444444441  40.3125 3.541666666666665  L 40.3125 13.170572916666666  C 40.31250000000001 13.480468749999996  40.17602539062501 13.698133680555555  39.903076171875 13.823567708333334  C 39.63012695312501 13.94900173611111  39.38167317708334 13.893663194444445  39.15771484375 13.657552083333334  L 36.6171875 10.979166666666666  L 23.32666015625 24.990885416666668  C 23.18668619791667 25.13845486111111  23.025716145833336 25.212239583333332  22.84375 25.212239583333332  C 22.66178385416667 25.212239583333332  22.500813802083336 25.13845486111111  22.36083984375 24.990885416666668  L 17.46875 19.833333333333332  L 8.734375 29.041666666666664  L 4.703125 24.791666666666668  L 16.98583984375 11.842447916666666  C 17.125813802083336 11.694878472222221  17.28678385416667 11.62109375  17.46875 11.62109375  C 17.650716145833336 11.62109375  17.811686197916668 11.694878472222221  17.95166015625 11.842447916666666  L 22.84375 17  L 32.5859375 6.729166666666665  L 30.04541015625 4.05078125  C 29.82145182291667 3.8146701388888857  29.76896158854167 3.552734375  29.887939453125 3.264973958333335  C 30.006917317708336 2.977213541666665  30.21337890625 2.833333333333335  30.50732421875 2.833333333333335  L 39.640625 2.833333333333335  C 39.83658854166667 2.833333333333335  39.99755859375001 2.899739583333335  40.12353515625 3.032552083333335  Z " stroke-width="0" stroke-dasharray="0" stroke="rgba(255, 255, 255, 0)" fill="none" transform="matrix(1 0 0 1 74 586 )" class="stroke" mask="url(#Clip712)" />
  </g>
</svg>