<?xml version="1.0" encoding="utf-8"?>
<svg version="1.1" xmlns:xlink="http://www.w3.org/1999/xlink" width="8px" height="7px" xmlns="http://www.w3.org/2000/svg">
  <defs>
    <pattern id="BGPattern" patternUnits="userSpaceOnUse" alignment="0 0" imageRepeat="None" />
    <mask fill="white" id="Clip2735">
      <path d="M 0.5299999999999727 3.3031249999999988  C 0.5299999999999727 4.982424999999999  2.0799999999999272 6.34375  4 6.34375  C 5.920000000000073 6.34375  7.470000000000027 4.982424999999999  7.470000000000027 3.3031249999999988  C 7.470000000000027 1.6238249999999987  5.920000000000073 0.2625000000000006  4 0.2625000000000006  C 2.0799999999999272 0.2625000000000006  0.5299999999999727 1.6238249999999987  0.5299999999999727 3.3031249999999988  Z M 6.220000000000027 3.3031249999999988  C 6.220000000000027 4.3783249999999985  5.230000000000018 5.25  4 5.25  C 2.769999999999982 5.25  1.7799999999999727 4.3783249999999985  1.7799999999999727 3.3031249999999988  C 1.7799999999999727 2.227924999999999  2.769999999999982 1.3562500000000006  4 1.3562500000000006  C 5.230000000000018 1.3562500000000006  6.220000000000027 2.227924999999999  6.220000000000027 3.3031249999999988  Z " fill-rule="evenodd" />
    </mask>
  </defs>
  <g transform="matrix(1 0 0 1 -1470 -31 )">
    <path d="M 0.5299999999999727 3.3031249999999988  C 0.5299999999999727 4.982424999999999  2.0799999999999272 6.34375  4 6.34375  C 5.920000000000073 6.34375  7.470000000000027 4.982424999999999  7.470000000000027 3.3031249999999988  C 7.470000000000027 1.6238249999999987  5.920000000000073 0.2625000000000006  4 0.2625000000000006  C 2.0799999999999272 0.2625000000000006  0.5299999999999727 1.6238249999999987  0.5299999999999727 3.3031249999999988  Z M 6.220000000000027 3.3031249999999988  C 6.220000000000027 4.3783249999999985  5.230000000000018 5.25  4 5.25  C 2.769999999999982 5.25  1.7799999999999727 4.3783249999999985  1.7799999999999727 3.3031249999999988  C 1.7799999999999727 2.227924999999999  2.769999999999982 1.3562500000000006  4 1.3562500000000006  C 5.230000000000018 1.3562500000000006  6.220000000000027 2.227924999999999  6.220000000000027 3.3031249999999988  Z " fill-rule="nonzero" fill="rgba(0, 0, 0, 1)" stroke="none" transform="matrix(1 0 0 1 1470 31 )" class="fill" />
    <path d="M 0.5299999999999727 3.3031249999999988  C 0.5299999999999727 4.982424999999999  2.0799999999999272 6.34375  4 6.34375  C 5.920000000000073 6.34375  7.470000000000027 4.982424999999999  7.470000000000027 3.3031249999999988  C 7.470000000000027 1.6238249999999987  5.920000000000073 0.2625000000000006  4 0.2625000000000006  C 2.0799999999999272 0.2625000000000006  0.5299999999999727 1.6238249999999987  0.5299999999999727 3.3031249999999988  Z " stroke-width="0" stroke-dasharray="0" stroke="rgba(255, 255, 255, 0)" fill="none" transform="matrix(1 0 0 1 1470 31 )" class="stroke" mask="url(#Clip2735)" />
    <path d="M 6.220000000000027 3.3031249999999988  C 6.220000000000027 4.3783249999999985  5.230000000000018 5.25  4 5.25  C 2.769999999999982 5.25  1.7799999999999727 4.3783249999999985  1.7799999999999727 3.3031249999999988  C 1.7799999999999727 2.227924999999999  2.769999999999982 1.3562500000000006  4 1.3562500000000006  C 5.230000000000018 1.3562500000000006  6.220000000000027 2.227924999999999  6.220000000000027 3.3031249999999988  Z " stroke-width="0" stroke-dasharray="0" stroke="rgba(255, 255, 255, 0)" fill="none" transform="matrix(1 0 0 1 1470 31 )" class="stroke" mask="url(#Clip2735)" />
  </g>
</svg>