<?xml version="1.0" encoding="utf-8"?>
<svg version="1.1" xmlns:xlink="http://www.w3.org/1999/xlink" width="18px" height="17px" xmlns="http://www.w3.org/2000/svg">
  <defs>
    <pattern id="BGPattern" patternUnits="userSpaceOnUse" alignment="0 0" imageRepeat="None" />
    <mask fill="white" id="Clip2736">
      <path d="M 0.25 8.5  C 0.25 13.064027777777781  4.170000000000073 16.76388888888889  9 16.76388888888889  C 13.829999999999927 16.76388888888889  17.75 13.064027777777781  17.75 8.5  C 17.75 3.935972222222223  13.829999999999927 0.2361111111111111  9 0.2361111111111111  C 4.170000000000073 0.2361111111111111  0.25 3.935972222222223  0.25 8.5  Z M 16.5 8.5  C 16.5 9.951705555555558  16.039999999999964 11.301411111111111  15.240000000000009 12.42482777777778  C 13.339999999999918 11.423622222222221  11.230000000000018 10.86111111111111  9 10.86111111111111  C 6.769999999999982 10.86111111111111  4.660000000000082 11.423622222222221  2.759999999999991 12.42482777777778  C 1.9600000000000364 11.301316666666663  1.5 9.951705555555558  1.5 8.5  C 1.5 4.588016666666667  4.8599999999999 1.4166666666666665  9 1.4166666666666665  C 13.1400000000001 1.4166666666666665  16.5 4.588016666666667  16.5 8.5  Z M 9 12.041666666666668  C 10.930000000000064 12.041666666666668  12.769999999999982 12.511055555555554  14.450000000000045 13.362188888888891  C 13.089999999999918 14.729838888888889  11.150000000000091 15.583333333333332  9 15.583333333333332  C 6.849999999999909 15.583333333333332  4.910000000000082 14.729838888888889  3.5499999999999545 13.362188888888891  C 5.230000000000018 12.511055555555554  7.069999999999936 12.041666666666668  9 12.041666666666668  Z " fill-rule="evenodd" />
    </mask>
  </defs>
  <g transform="matrix(1 0 0 1 -1464 -28 )">
    <path d="M 0.25 8.5  C 0.25 13.064027777777781  4.170000000000073 16.76388888888889  9 16.76388888888889  C 13.829999999999927 16.76388888888889  17.75 13.064027777777781  17.75 8.5  C 17.75 3.935972222222223  13.829999999999927 0.2361111111111111  9 0.2361111111111111  C 4.170000000000073 0.2361111111111111  0.25 3.935972222222223  0.25 8.5  Z M 16.5 8.5  C 16.5 9.951705555555558  16.039999999999964 11.301411111111111  15.240000000000009 12.42482777777778  C 13.339999999999918 11.423622222222221  11.230000000000018 10.86111111111111  9 10.86111111111111  C 6.769999999999982 10.86111111111111  4.660000000000082 11.423622222222221  2.759999999999991 12.42482777777778  C 1.9600000000000364 11.301316666666663  1.5 9.951705555555558  1.5 8.5  C 1.5 4.588016666666667  4.8599999999999 1.4166666666666665  9 1.4166666666666665  C 13.1400000000001 1.4166666666666665  16.5 4.588016666666667  16.5 8.5  Z M 9 12.041666666666668  C 10.930000000000064 12.041666666666668  12.769999999999982 12.511055555555554  14.450000000000045 13.362188888888891  C 13.089999999999918 14.729838888888889  11.150000000000091 15.583333333333332  9 15.583333333333332  C 6.849999999999909 15.583333333333332  4.910000000000082 14.729838888888889  3.5499999999999545 13.362188888888891  C 5.230000000000018 12.511055555555554  7.069999999999936 12.041666666666668  9 12.041666666666668  Z " fill-rule="nonzero" fill="rgba(0, 0, 0, 1)" stroke="none" transform="matrix(1 0 0 1 1464 28 )" class="fill" />
    <path d="M 0.25 8.5  C 0.25 13.064027777777781  4.170000000000073 16.76388888888889  9 16.76388888888889  C 13.829999999999927 16.76388888888889  17.75 13.064027777777781  17.75 8.5  C 17.75 3.935972222222223  13.829999999999927 0.2361111111111111  9 0.2361111111111111  C 4.170000000000073 0.2361111111111111  0.25 3.935972222222223  0.25 8.5  Z " stroke-width="0" stroke-dasharray="0" stroke="rgba(255, 255, 255, 0)" fill="none" transform="matrix(1 0 0 1 1464 28 )" class="stroke" mask="url(#Clip2736)" />
    <path d="M 16.5 8.5  C 16.5 9.951705555555558  16.039999999999964 11.301411111111111  15.240000000000009 12.42482777777778  C 13.339999999999918 11.423622222222221  11.230000000000018 10.86111111111111  9 10.86111111111111  C 6.769999999999982 10.86111111111111  4.660000000000082 11.423622222222221  2.759999999999991 12.42482777777778  C 1.9600000000000364 11.301316666666663  1.5 9.951705555555558  1.5 8.5  C 1.5 4.588016666666667  4.8599999999999 1.4166666666666665  9 1.4166666666666665  C 13.1400000000001 1.4166666666666665  16.5 4.588016666666667  16.5 8.5  Z " stroke-width="0" stroke-dasharray="0" stroke="rgba(255, 255, 255, 0)" fill="none" transform="matrix(1 0 0 1 1464 28 )" class="stroke" mask="url(#Clip2736)" />
    <path d="M 9 12.041666666666668  C 10.930000000000064 12.041666666666668  12.769999999999982 12.511055555555554  14.450000000000045 13.362188888888891  C 13.089999999999918 14.729838888888889  11.150000000000091 15.583333333333332  9 15.583333333333332  C 6.849999999999909 15.583333333333332  4.910000000000082 14.729838888888889  3.5499999999999545 13.362188888888891  C 5.230000000000018 12.511055555555554  7.069999999999936 12.041666666666668  9 12.041666666666668  Z " stroke-width="0" stroke-dasharray="0" stroke="rgba(255, 255, 255, 0)" fill="none" transform="matrix(1 0 0 1 1464 28 )" class="stroke" mask="url(#Clip2736)" />
  </g>
</svg>