<?xml version="1.0" encoding="utf-8"?>
<svg version="1.1" xmlns:xlink="http://www.w3.org/1999/xlink" width="16px" height="15px" xmlns="http://www.w3.org/2000/svg">
  <defs>
    <pattern id="BGPattern" patternUnits="userSpaceOnUse" alignment="0 0" imageRepeat="None" />
    <mask fill="white" id="Clip2740">
      <path d="M 0.33777777777787477 7.604166666666666  L 0.33777777777787477 7.395833333333334  C 0.33777777777787477 3.426333333333333  3.768888888888897 0.20841666666666647  8 0.20833333333333331  C 12.231111111111103 0.20833333333333331  15.671111111111209 3.4262499999999996  15.671111111111209 7.395833333333334  L 15.671111111111209 7.604166666666666  C 15.671111111111209 11.57375  12.231111111111103 14.791666666666668  8 14.791666666666668  C 3.768888888888897 14.79158333333333  0.33777777777787477 11.573666666666664  0.33777777777787477 7.604166666666666  Z M 9.031111111111183 13.674  C 12.017777777777761 13.230416666666667  14.337777777777875 10.896416666666665  14.542222222222133 8.020833333333334  L 11.2088888888888 8.020833333333334  C 11.102222222222231 10.019749999999998  10.373333333333399 11.995083333333335  9.031111111111183 13.674  Z M 9.031111111111183 1.3260000000000005  C 10.373333333333399 3.004916666666665  11.102222222222231 4.980249999999999  11.2088888888888 6.979166666666667  L 14.542222222222133 6.979166666666667  C 14.337777777777875 4.103583333333332  12.017777777777761 1.7695833333333333  9.031111111111183 1.3260000000000005  Z M 5.902222222222311 6.979166666666667  L 10.097777777777688 6.979166666666667  C 9.982222222222239 5.129916666666666  9.288888888888929 3.305749999999999  8 1.7739999999999987  C 6.71111111111107 3.305749999999999  6.017777777777762 5.129916666666666  5.902222222222311 6.979166666666667  Z M 6.9688888888888165 13.673916666666669  C 5.626666666666602 11.994999999999997  4.89777777777777 10.019749999999998  4.7911111111112 8.020833333333334  L 1.4577777777778667 8.020833333333334  C 1.6622222222221252 10.896333333333335  3.9822222222222385 13.23025  6.9688888888888165 13.673916666666669  Z M 1.4577777777778667 6.979166666666667  L 4.7911111111112 6.979166666666667  C 4.89777777777777 4.980249999999999  5.626666666666602 3.0050000000000012  6.9688888888888165 1.3260833333333335  C 3.9822222222222385 1.7697499999999995  1.6622222222221252 4.1036666666666655  1.4577777777778667 6.979166666666667  Z M 8 13.226000000000003  C 9.288888888888929 11.694249999999998  9.982222222222239 9.870083333333332  10.097777777777688 8.020833333333334  L 5.902222222222311 8.020833333333334  C 6.017777777777762 9.870083333333332  6.71111111111107 11.694249999999998  8 13.226000000000003  Z " fill-rule="evenodd" />
    </mask>
  </defs>
  <g transform="matrix(1 0 0 1 -1641 -27 )">
    <path d="M 0.33777777777787477 7.604166666666666  L 0.33777777777787477 7.395833333333334  C 0.33777777777787477 3.426333333333333  3.768888888888897 0.20841666666666647  8 0.20833333333333331  C 12.231111111111103 0.20833333333333331  15.671111111111209 3.4262499999999996  15.671111111111209 7.395833333333334  L 15.671111111111209 7.604166666666666  C 15.671111111111209 11.57375  12.231111111111103 14.791666666666668  8 14.791666666666668  C 3.768888888888897 14.79158333333333  0.33777777777787477 11.573666666666664  0.33777777777787477 7.604166666666666  Z M 9.031111111111183 13.674  C 12.017777777777761 13.230416666666667  14.337777777777875 10.896416666666665  14.542222222222133 8.020833333333334  L 11.2088888888888 8.020833333333334  C 11.102222222222231 10.019749999999998  10.373333333333399 11.995083333333335  9.031111111111183 13.674  Z M 9.031111111111183 1.3260000000000005  C 10.373333333333399 3.004916666666665  11.102222222222231 4.980249999999999  11.2088888888888 6.979166666666667  L 14.542222222222133 6.979166666666667  C 14.337777777777875 4.103583333333332  12.017777777777761 1.7695833333333333  9.031111111111183 1.3260000000000005  Z M 5.902222222222311 6.979166666666667  L 10.097777777777688 6.979166666666667  C 9.982222222222239 5.129916666666666  9.288888888888929 3.305749999999999  8 1.7739999999999987  C 6.71111111111107 3.305749999999999  6.017777777777762 5.129916666666666  5.902222222222311 6.979166666666667  Z M 6.9688888888888165 13.673916666666669  C 5.626666666666602 11.994999999999997  4.89777777777777 10.019749999999998  4.7911111111112 8.020833333333334  L 1.4577777777778667 8.020833333333334  C 1.6622222222221252 10.896333333333335  3.9822222222222385 13.23025  6.9688888888888165 13.673916666666669  Z M 1.4577777777778667 6.979166666666667  L 4.7911111111112 6.979166666666667  C 4.89777777777777 4.980249999999999  5.626666666666602 3.0050000000000012  6.9688888888888165 1.3260833333333335  C 3.9822222222222385 1.7697499999999995  1.6622222222221252 4.1036666666666655  1.4577777777778667 6.979166666666667  Z M 8 13.226000000000003  C 9.288888888888929 11.694249999999998  9.982222222222239 9.870083333333332  10.097777777777688 8.020833333333334  L 5.902222222222311 8.020833333333334  C 6.017777777777762 9.870083333333332  6.71111111111107 11.694249999999998  8 13.226000000000003  Z " fill-rule="nonzero" fill="rgba(0, 0, 0, 0.8980392156862745)" stroke="none" transform="matrix(1 0 0 1 1641 27 )" class="fill" />
    <path d="M 0.33777777777787477 7.604166666666666  L 0.33777777777787477 7.395833333333334  C 0.33777777777787477 3.426333333333333  3.768888888888897 0.20841666666666647  8 0.20833333333333331  C 12.231111111111103 0.20833333333333331  15.671111111111209 3.4262499999999996  15.671111111111209 7.395833333333334  L 15.671111111111209 7.604166666666666  C 15.671111111111209 11.57375  12.231111111111103 14.791666666666668  8 14.791666666666668  C 3.768888888888897 14.79158333333333  0.33777777777787477 11.573666666666664  0.33777777777787477 7.604166666666666  Z " stroke-width="0" stroke-dasharray="0" stroke="rgba(255, 255, 255, 0)" fill="none" transform="matrix(1 0 0 1 1641 27 )" class="stroke" mask="url(#Clip2740)" />
    <path d="M 9.031111111111183 13.674  C 12.017777777777761 13.230416666666667  14.337777777777875 10.896416666666665  14.542222222222133 8.020833333333334  L 11.2088888888888 8.020833333333334  C 11.102222222222231 10.019749999999998  10.373333333333399 11.995083333333335  9.031111111111183 13.674  Z " stroke-width="0" stroke-dasharray="0" stroke="rgba(255, 255, 255, 0)" fill="none" transform="matrix(1 0 0 1 1641 27 )" class="stroke" mask="url(#Clip2740)" />
    <path d="M 9.031111111111183 1.3260000000000005  C 10.373333333333399 3.004916666666665  11.102222222222231 4.980249999999999  11.2088888888888 6.979166666666667  L 14.542222222222133 6.979166666666667  C 14.337777777777875 4.103583333333332  12.017777777777761 1.7695833333333333  9.031111111111183 1.3260000000000005  Z " stroke-width="0" stroke-dasharray="0" stroke="rgba(255, 255, 255, 0)" fill="none" transform="matrix(1 0 0 1 1641 27 )" class="stroke" mask="url(#Clip2740)" />
    <path d="M 5.902222222222311 6.979166666666667  L 10.097777777777688 6.979166666666667  C 9.982222222222239 5.129916666666666  9.288888888888929 3.305749999999999  8 1.7739999999999987  C 6.71111111111107 3.305749999999999  6.017777777777762 5.129916666666666  5.902222222222311 6.979166666666667  Z " stroke-width="0" stroke-dasharray="0" stroke="rgba(255, 255, 255, 0)" fill="none" transform="matrix(1 0 0 1 1641 27 )" class="stroke" mask="url(#Clip2740)" />
    <path d="M 6.9688888888888165 13.673916666666669  C 5.626666666666602 11.994999999999997  4.89777777777777 10.019749999999998  4.7911111111112 8.020833333333334  L 1.4577777777778667 8.020833333333334  C 1.6622222222221252 10.896333333333335  3.9822222222222385 13.23025  6.9688888888888165 13.673916666666669  Z " stroke-width="0" stroke-dasharray="0" stroke="rgba(255, 255, 255, 0)" fill="none" transform="matrix(1 0 0 1 1641 27 )" class="stroke" mask="url(#Clip2740)" />
    <path d="M 1.4577777777778667 6.979166666666667  L 4.7911111111112 6.979166666666667  C 4.89777777777777 4.980249999999999  5.626666666666602 3.0050000000000012  6.9688888888888165 1.3260833333333335  C 3.9822222222222385 1.7697499999999995  1.6622222222221252 4.1036666666666655  1.4577777777778667 6.979166666666667  Z " stroke-width="0" stroke-dasharray="0" stroke="rgba(255, 255, 255, 0)" fill="none" transform="matrix(1 0 0 1 1641 27 )" class="stroke" mask="url(#Clip2740)" />
    <path d="M 8 13.226000000000003  C 9.288888888888929 11.694249999999998  9.982222222222239 9.870083333333332  10.097777777777688 8.020833333333334  L 5.902222222222311 8.020833333333334  C 6.017777777777762 9.870083333333332  6.71111111111107 11.694249999999998  8 13.226000000000003  Z " stroke-width="0" stroke-dasharray="0" stroke="rgba(255, 255, 255, 0)" fill="none" transform="matrix(1 0 0 1 1641 27 )" class="stroke" mask="url(#Clip2740)" />
  </g>
</svg>