<?xml version="1.0" encoding="utf-8"?>
<svg version="1.1" xmlns:xlink="http://www.w3.org/1999/xlink" width="16px" height="15px" xmlns="http://www.w3.org/2000/svg">
  <defs>
    <pattern id="BGPattern" patternUnits="userSpaceOnUse" alignment="0 0" imageRepeat="None" />
    <mask fill="white" id="Clip2743">
      <path d="M 8 14.791666666666668  C 12.293333333333269 14.791666666666668  15.777777777777779 11.527083333333337  15.777777777777779 7.5  C 15.777777777777779 3.472916666666667  12.293333333333269 0.20833333333333331  8 0.20833333333333331  C 3.7066666666667314 0.20833333333333331  0.2222222222222222 3.472916666666667  0.2222222222222222 7.5  C 0.2222222222222222 11.527083333333337  3.7066666666667314 14.791666666666668  8 14.791666666666668  Z M 8 1.25  C 11.680000000000089 1.25  14.666666666666666 4.04825  14.666666666666666 7.5  C 14.666666666666666 10.951749999999999  11.680000000000089 13.75  8 13.75  C 4.3199999999999115 13.75  1.3333333333333333 10.951749999999999  1.3333333333333333 7.5  C 1.3333333333333333 4.04825  4.3199999999999115 1.25  8 1.25  Z " fill-rule="evenodd" />
    </mask>
  </defs>
  <g transform="matrix(1 0 0 1 -1767 -27 )">
    <path d="M 8 14.791666666666668  C 12.293333333333269 14.791666666666668  15.777777777777779 11.527083333333337  15.777777777777779 7.5  C 15.777777777777779 3.472916666666667  12.293333333333269 0.20833333333333331  8 0.20833333333333331  C 3.7066666666667314 0.20833333333333331  0.2222222222222222 3.472916666666667  0.2222222222222222 7.5  C 0.2222222222222222 11.527083333333337  3.7066666666667314 14.791666666666668  8 14.791666666666668  Z M 8 1.25  C 11.680000000000089 1.25  14.666666666666666 4.04825  14.666666666666666 7.5  C 14.666666666666666 10.951749999999999  11.680000000000089 13.75  8 13.75  C 4.3199999999999115 13.75  1.3333333333333333 10.951749999999999  1.3333333333333333 7.5  C 1.3333333333333333 4.04825  4.3199999999999115 1.25  8 1.25  Z " fill-rule="nonzero" fill="rgba(0, 0, 0, 0.8980392156862745)" stroke="none" transform="matrix(1 0 0 1 1767 27 )" class="fill" />
    <path d="M 8 14.791666666666668  C 12.293333333333269 14.791666666666668  15.777777777777779 11.527083333333337  15.777777777777779 7.5  C 15.777777777777779 3.472916666666667  12.293333333333269 0.20833333333333331  8 0.20833333333333331  C 3.7066666666667314 0.20833333333333331  0.2222222222222222 3.472916666666667  0.2222222222222222 7.5  C 0.2222222222222222 11.527083333333337  3.7066666666667314 14.791666666666668  8 14.791666666666668  Z " stroke-width="0" stroke-dasharray="0" stroke="rgba(255, 255, 255, 0)" fill="none" transform="matrix(1 0 0 1 1767 27 )" class="stroke" mask="url(#Clip2743)" />
    <path d="M 8 1.25  C 11.680000000000089 1.25  14.666666666666666 4.04825  14.666666666666666 7.5  C 14.666666666666666 10.951749999999999  11.680000000000089 13.75  8 13.75  C 4.3199999999999115 13.75  1.3333333333333333 10.951749999999999  1.3333333333333333 7.5  C 1.3333333333333333 4.04825  4.3199999999999115 1.25  8 1.25  Z " stroke-width="0" stroke-dasharray="0" stroke="rgba(255, 255, 255, 0)" fill="none" transform="matrix(1 0 0 1 1767 27 )" class="stroke" mask="url(#Clip2743)" />
  </g>
</svg>