<?xml version="1.0" encoding="utf-8"?>
<svg version="1.1" xmlns:xlink="http://www.w3.org/1999/xlink" width="13px" height="15px" xmlns="http://www.w3.org/2000/svg">
  <defs>
    <pattern id="BGPattern" patternUnits="userSpaceOnUse" alignment="0 0" imageRepeat="None" />
    <mask fill="white" id="Clip2744">
      <path d="M 9.646000000000095 14.270833333333332  L 4.229333333333428 14.270833333333332  L 4.229333333333428 12.38975  L 3.241333333333341 12.38975  C 2.4613333333332625 12.38975  1.82866666666658 11.778999999999998  1.82866666666658 11.025583333333332  C 1.82866666666658 10.761249999999999  1.6033333333332545 10.546833333333332  1.3259999999999763 10.546833333333332  L 0.5373333333332387 10.546833333333332  L 0.5373333333332387 9.661500000000002  L 1.3259999999999763 9.661500000000002  C 1.3866666666665879 9.661500000000002  1.4473333333333964 9.665166666666666  1.5080000000000078 9.672249999999996  C 1.542666666666643 9.676916666666665  1.585999999999937 9.683  1.620666666666572 9.690416666666668  C 2.0800000000000787 9.782583333333333  2.4526666666666035 10.086833333333333  2.6346666666666354 10.491416666666666  C 2.703999999999905 10.6555  2.7473333333333962 10.835999999999999  2.7473333333333962 11.025583333333332  C 2.7473333333333962 11.256500000000003  2.9119999999999133 11.44925  3.1460000000000945 11.494333333333332  C 3.172000000000071 11.500916666666665  3.206666666666706 11.504333333333333  3.241333333333341 11.504333333333333  L 4.229333333333428 11.504333333333333  L 4.229333333333428 11.107083333333332  C 4.229333333333428 10.976166666666664  4.238000000000087 10.846750000000002  4.264000000000063 10.72025  C 4.298666666666699 10.526333333333332  4.367999999999968 10.339416666666667  4.463333333333412 10.164916666666665  C 4.108000000000008 10.049916666666665  3.7786666666665805 9.910833333333333  3.466666666666667 9.750666666666667  L 3.4406666666666905 9.738916666666668  C 2.9033333333332547 9.458416666666665  2.4266666666666272 9.114083333333335  2.0453333333332466 8.721166666666669  C 1.3693333333332702 8.021166666666666  0.9619999999999134 7.166916666666667  0.9619999999999134 6.244916666666667  C 0.9619999999999134 5.364916666666666  1.3259999999999763 4.5465833333333325  1.9586666666666588 3.8651666666666675  L 1.906666666666706 3.6365000000000007  C 1.6986666666666983 2.6333333333333337  1.906666666666706 1.5900833333333342  2.4960000000000946 0.7364166666666675  C 3.5533333333332546 0.6737499999999988  4.601999999999953 1.019833333333334  5.399333333333349 1.6983333333333335  L 5.78066666666673 2.022083333333334  C 6.144666666666596 1.9718333333333329  6.517333333333317 1.9454166666666655  6.898666666666697 1.9454166666666655  C 7.323333333333372 1.9454166666666655  7.739333333333389 1.9774166666666677  8.138000000000087 2.0381666666666653  L 8.536666666666589 1.6984166666666667  C 9.333999999999984 1.019833333333334  10.374000000000024 0.6738333333333321  11.440000000000039 0.7365000000000007  C 12.029333333333428 1.5900833333333342  12.237333333333238 2.6334166666666667  12.029333333333428 3.636583333333334  L 11.951333333333302 3.9828333333333323  C 12.514666666666715 4.639916666666668  12.835333333333287 5.415000000000001  12.835333333333287 6.244916666666667  C 12.835333333333287 7.682833333333334  11.864666666666714 8.955833333333333  10.365333333333366 9.736416666666669  C 10.053333333333255 9.898333333333333  9.724000000000023 10.039083333333334  9.36866666666662 10.155666666666665  C 9.49000000000004 10.364416666666667  9.576666666666627 10.592250000000002  9.611333333333262 10.82933333333333  C 9.62866666666658 10.938583333333334  9.646000000000095 11.049833333333332  9.646000000000095 11.162083333333333  L 9.646000000000095 14.270833333333332  Z M 6.898666666666697 2.987083333333332  C 6.569333333333271 2.987083333333332  6.248666666666698 3.0099166666666655  5.936666666666588 3.0531666666666655  L 5.433999999999984 3.121916666666668  L 4.680000000000079 2.4783333333333335  C 4.246666666666745 2.1053333333333324  3.700666666666651 1.8699999999999997  3.12866666666658 1.7960000000000005  C 2.9119999999999133 2.3090833333333345  2.8513333333333017 2.877166666666667  2.9726666666667216 3.4286666666666665  L 3.12866666666658 4.166083333333335  L 2.764666666666714 4.555083333333334  C 2.288000000000087 5.075249999999999  2.0453333333332466 5.6554166666666665  2.0453333333332466 6.244916666666667  C 2.0453333333332466 7.388916666666669  3.0160000000000156 8.591166666666664  4.8099999999999605 9.178749999999999  L 5.988666666666737 9.5655  L 5.425333333333326 10.635999999999997  C 5.347333333333396 10.780250000000002  5.312666666666761 10.941166666666664  5.312666666666761 11.107083333333332  L 5.312666666666761 13.229166666666666  L 8.562666666666761 13.229166666666666  L 8.562666666666761 11.162083333333333  C 8.562666666666761 10.984166666666663  8.51066666666661 10.811416666666668  8.424000000000023 10.65883333333333  L 7.8 9.574916666666665  L 9.022000000000071 9.171000000000003  C 10.798666666666698 8.58  11.751999999999953 7.383833333333335  11.751999999999953 6.244916666666667  C 11.751999999999953 5.6880000000000015  11.543999999999945 5.141333333333332  11.119333333333271 4.644749999999999  L 10.79000000000004 4.261416666666668  L 10.963333333333411 3.4287499999999995  C 11.084666666666635 2.87725  11.024000000000024 2.3091666666666675  10.798666666666698 1.7960833333333337  C 10.226666666666627 1.8699999999999997  9.689333333333389 2.105416666666666  9.256000000000055 2.4784166666666665  L 8.467333333333317 3.144166666666666  L 7.964666666666715 3.066916666666666  C 7.626666666666628 3.0148333333333324  7.27133333333342 2.987083333333332  6.898666666666697 2.987083333333332  Z " fill-rule="evenodd" />
    </mask>
  </defs>
  <g transform="matrix(1 0 0 1 -1726 -27 )">
    <path d="M 9.646000000000095 14.270833333333332  L 4.229333333333428 14.270833333333332  L 4.229333333333428 12.38975  L 3.241333333333341 12.38975  C 2.4613333333332625 12.38975  1.82866666666658 11.778999999999998  1.82866666666658 11.025583333333332  C 1.82866666666658 10.761249999999999  1.6033333333332545 10.546833333333332  1.3259999999999763 10.546833333333332  L 0.5373333333332387 10.546833333333332  L 0.5373333333332387 9.661500000000002  L 1.3259999999999763 9.661500000000002  C 1.3866666666665879 9.661500000000002  1.4473333333333964 9.665166666666666  1.5080000000000078 9.672249999999996  C 1.542666666666643 9.676916666666665  1.585999999999937 9.683  1.620666666666572 9.690416666666668  C 2.0800000000000787 9.782583333333333  2.4526666666666035 10.086833333333333  2.6346666666666354 10.491416666666666  C 2.703999999999905 10.6555  2.7473333333333962 10.835999999999999  2.7473333333333962 11.025583333333332  C 2.7473333333333962 11.256500000000003  2.9119999999999133 11.44925  3.1460000000000945 11.494333333333332  C 3.172000000000071 11.500916666666665  3.206666666666706 11.504333333333333  3.241333333333341 11.504333333333333  L 4.229333333333428 11.504333333333333  L 4.229333333333428 11.107083333333332  C 4.229333333333428 10.976166666666664  4.238000000000087 10.846750000000002  4.264000000000063 10.72025  C 4.298666666666699 10.526333333333332  4.367999999999968 10.339416666666667  4.463333333333412 10.164916666666665  C 4.108000000000008 10.049916666666665  3.7786666666665805 9.910833333333333  3.466666666666667 9.750666666666667  L 3.4406666666666905 9.738916666666668  C 2.9033333333332547 9.458416666666665  2.4266666666666272 9.114083333333335  2.0453333333332466 8.721166666666669  C 1.3693333333332702 8.021166666666666  0.9619999999999134 7.166916666666667  0.9619999999999134 6.244916666666667  C 0.9619999999999134 5.364916666666666  1.3259999999999763 4.5465833333333325  1.9586666666666588 3.8651666666666675  L 1.906666666666706 3.6365000000000007  C 1.6986666666666983 2.6333333333333337  1.906666666666706 1.5900833333333342  2.4960000000000946 0.7364166666666675  C 3.5533333333332546 0.6737499999999988  4.601999999999953 1.019833333333334  5.399333333333349 1.6983333333333335  L 5.78066666666673 2.022083333333334  C 6.144666666666596 1.9718333333333329  6.517333333333317 1.9454166666666655  6.898666666666697 1.9454166666666655  C 7.323333333333372 1.9454166666666655  7.739333333333389 1.9774166666666677  8.138000000000087 2.0381666666666653  L 8.536666666666589 1.6984166666666667  C 9.333999999999984 1.019833333333334  10.374000000000024 0.6738333333333321  11.440000000000039 0.7365000000000007  C 12.029333333333428 1.5900833333333342  12.237333333333238 2.6334166666666667  12.029333333333428 3.636583333333334  L 11.951333333333302 3.9828333333333323  C 12.514666666666715 4.639916666666668  12.835333333333287 5.415000000000001  12.835333333333287 6.244916666666667  C 12.835333333333287 7.682833333333334  11.864666666666714 8.955833333333333  10.365333333333366 9.736416666666669  C 10.053333333333255 9.898333333333333  9.724000000000023 10.039083333333334  9.36866666666662 10.155666666666665  C 9.49000000000004 10.364416666666667  9.576666666666627 10.592250000000002  9.611333333333262 10.82933333333333  C 9.62866666666658 10.938583333333334  9.646000000000095 11.049833333333332  9.646000000000095 11.162083333333333  L 9.646000000000095 14.270833333333332  Z M 6.898666666666697 2.987083333333332  C 6.569333333333271 2.987083333333332  6.248666666666698 3.0099166666666655  5.936666666666588 3.0531666666666655  L 5.433999999999984 3.121916666666668  L 4.680000000000079 2.4783333333333335  C 4.246666666666745 2.1053333333333324  3.700666666666651 1.8699999999999997  3.12866666666658 1.7960000000000005  C 2.9119999999999133 2.3090833333333345  2.8513333333333017 2.877166666666667  2.9726666666667216 3.4286666666666665  L 3.12866666666658 4.166083333333335  L 2.764666666666714 4.555083333333334  C 2.288000000000087 5.075249999999999  2.0453333333332466 5.6554166666666665  2.0453333333332466 6.244916666666667  C 2.0453333333332466 7.388916666666669  3.0160000000000156 8.591166666666664  4.8099999999999605 9.178749999999999  L 5.988666666666737 9.5655  L 5.425333333333326 10.635999999999997  C 5.347333333333396 10.780250000000002  5.312666666666761 10.941166666666664  5.312666666666761 11.107083333333332  L 5.312666666666761 13.229166666666666  L 8.562666666666761 13.229166666666666  L 8.562666666666761 11.162083333333333  C 8.562666666666761 10.984166666666663  8.51066666666661 10.811416666666668  8.424000000000023 10.65883333333333  L 7.8 9.574916666666665  L 9.022000000000071 9.171000000000003  C 10.798666666666698 8.58  11.751999999999953 7.383833333333335  11.751999999999953 6.244916666666667  C 11.751999999999953 5.6880000000000015  11.543999999999945 5.141333333333332  11.119333333333271 4.644749999999999  L 10.79000000000004 4.261416666666668  L 10.963333333333411 3.4287499999999995  C 11.084666666666635 2.87725  11.024000000000024 2.3091666666666675  10.798666666666698 1.7960833333333337  C 10.226666666666627 1.8699999999999997  9.689333333333389 2.105416666666666  9.256000000000055 2.4784166666666665  L 8.467333333333317 3.144166666666666  L 7.964666666666715 3.066916666666666  C 7.626666666666628 3.0148333333333324  7.27133333333342 2.987083333333332  6.898666666666697 2.987083333333332  Z " fill-rule="nonzero" fill="rgba(0, 0, 0, 0.8980392156862745)" stroke="none" transform="matrix(1 0 0 1 1726 27 )" class="fill" />
    <path d="M 9.646000000000095 14.270833333333332  L 4.229333333333428 14.270833333333332  L 4.229333333333428 12.38975  L 3.241333333333341 12.38975  C 2.4613333333332625 12.38975  1.82866666666658 11.778999999999998  1.82866666666658 11.025583333333332  C 1.82866666666658 10.761249999999999  1.6033333333332545 10.546833333333332  1.3259999999999763 10.546833333333332  L 0.5373333333332387 10.546833333333332  L 0.5373333333332387 9.661500000000002  L 1.3259999999999763 9.661500000000002  C 1.3866666666665879 9.661500000000002  1.4473333333333964 9.665166666666666  1.5080000000000078 9.672249999999996  C 1.542666666666643 9.676916666666665  1.585999999999937 9.683  1.620666666666572 9.690416666666668  C 2.0800000000000787 9.782583333333333  2.4526666666666035 10.086833333333333  2.6346666666666354 10.491416666666666  C 2.703999999999905 10.6555  2.7473333333333962 10.835999999999999  2.7473333333333962 11.025583333333332  C 2.7473333333333962 11.256500000000003  2.9119999999999133 11.44925  3.1460000000000945 11.494333333333332  C 3.172000000000071 11.500916666666665  3.206666666666706 11.504333333333333  3.241333333333341 11.504333333333333  L 4.229333333333428 11.504333333333333  L 4.229333333333428 11.107083333333332  C 4.229333333333428 10.976166666666664  4.238000000000087 10.846750000000002  4.264000000000063 10.72025  C 4.298666666666699 10.526333333333332  4.367999999999968 10.339416666666667  4.463333333333412 10.164916666666665  C 4.108000000000008 10.049916666666665  3.7786666666665805 9.910833333333333  3.466666666666667 9.750666666666667  L 3.4406666666666905 9.738916666666668  C 2.9033333333332547 9.458416666666665  2.4266666666666272 9.114083333333335  2.0453333333332466 8.721166666666669  C 1.3693333333332702 8.021166666666666  0.9619999999999134 7.166916666666667  0.9619999999999134 6.244916666666667  C 0.9619999999999134 5.364916666666666  1.3259999999999763 4.5465833333333325  1.9586666666666588 3.8651666666666675  L 1.906666666666706 3.6365000000000007  C 1.6986666666666983 2.6333333333333337  1.906666666666706 1.5900833333333342  2.4960000000000946 0.7364166666666675  C 3.5533333333332546 0.6737499999999988  4.601999999999953 1.019833333333334  5.399333333333349 1.6983333333333335  L 5.78066666666673 2.022083333333334  C 6.144666666666596 1.9718333333333329  6.517333333333317 1.9454166666666655  6.898666666666697 1.9454166666666655  C 7.323333333333372 1.9454166666666655  7.739333333333389 1.9774166666666677  8.138000000000087 2.0381666666666653  L 8.536666666666589 1.6984166666666667  C 9.333999999999984 1.019833333333334  10.374000000000024 0.6738333333333321  11.440000000000039 0.7365000000000007  C 12.029333333333428 1.5900833333333342  12.237333333333238 2.6334166666666667  12.029333333333428 3.636583333333334  L 11.951333333333302 3.9828333333333323  C 12.514666666666715 4.639916666666668  12.835333333333287 5.415000000000001  12.835333333333287 6.244916666666667  C 12.835333333333287 7.682833333333334  11.864666666666714 8.955833333333333  10.365333333333366 9.736416666666669  C 10.053333333333255 9.898333333333333  9.724000000000023 10.039083333333334  9.36866666666662 10.155666666666665  C 9.49000000000004 10.364416666666667  9.576666666666627 10.592250000000002  9.611333333333262 10.82933333333333  C 9.62866666666658 10.938583333333334  9.646000000000095 11.049833333333332  9.646000000000095 11.162083333333333  L 9.646000000000095 14.270833333333332  Z " stroke-width="0" stroke-dasharray="0" stroke="rgba(255, 255, 255, 0)" fill="none" transform="matrix(1 0 0 1 1726 27 )" class="stroke" mask="url(#Clip2744)" />
    <path d="M 6.898666666666697 2.987083333333332  C 6.569333333333271 2.987083333333332  6.248666666666698 3.0099166666666655  5.936666666666588 3.0531666666666655  L 5.433999999999984 3.121916666666668  L 4.680000000000079 2.4783333333333335  C 4.246666666666745 2.1053333333333324  3.700666666666651 1.8699999999999997  3.12866666666658 1.7960000000000005  C 2.9119999999999133 2.3090833333333345  2.8513333333333017 2.877166666666667  2.9726666666667216 3.4286666666666665  L 3.12866666666658 4.166083333333335  L 2.764666666666714 4.555083333333334  C 2.288000000000087 5.075249999999999  2.0453333333332466 5.6554166666666665  2.0453333333332466 6.244916666666667  C 2.0453333333332466 7.388916666666669  3.0160000000000156 8.591166666666664  4.8099999999999605 9.178749999999999  L 5.988666666666737 9.5655  L 5.425333333333326 10.635999999999997  C 5.347333333333396 10.780250000000002  5.312666666666761 10.941166666666664  5.312666666666761 11.107083333333332  L 5.312666666666761 13.229166666666666  L 8.562666666666761 13.229166666666666  L 8.562666666666761 11.162083333333333  C 8.562666666666761 10.984166666666663  8.51066666666661 10.811416666666668  8.424000000000023 10.65883333333333  L 7.8 9.574916666666665  L 9.022000000000071 9.171000000000003  C 10.798666666666698 8.58  11.751999999999953 7.383833333333335  11.751999999999953 6.244916666666667  C 11.751999999999953 5.6880000000000015  11.543999999999945 5.141333333333332  11.119333333333271 4.644749999999999  L 10.79000000000004 4.261416666666668  L 10.963333333333411 3.4287499999999995  C 11.084666666666635 2.87725  11.024000000000024 2.3091666666666675  10.798666666666698 1.7960833333333337  C 10.226666666666627 1.8699999999999997  9.689333333333389 2.105416666666666  9.256000000000055 2.4784166666666665  L 8.467333333333317 3.144166666666666  L 7.964666666666715 3.066916666666666  C 7.626666666666628 3.0148333333333324  7.27133333333342 2.987083333333332  6.898666666666697 2.987083333333332  Z " stroke-width="0" stroke-dasharray="0" stroke="rgba(255, 255, 255, 0)" fill="none" transform="matrix(1 0 0 1 1726 27 )" class="stroke" mask="url(#Clip2744)" />
  </g>
</svg>