<?xml version="1.0" encoding="utf-8"?>
<svg version="1.1" xmlns:xlink="http://www.w3.org/1999/xlink" width="19px" height="19px" xmlns="http://www.w3.org/2000/svg">
  <defs>
    <pattern id="BGPattern" patternUnits="userSpaceOnUse" alignment="0 0" imageRepeat="None" />
    <mask fill="white" id="Clip787">
      <path d="M 0.2638888888888889 9.5  C 0.2638888888888889 14.600972222222227  4.401666666666744 18.73611111111111  9.5 18.73611111111111  C 14.598333333333256 18.73611111111111  18.73611111111111 14.600972222222227  18.73611111111111 9.5  C 18.73611111111111 4.399027777777778  14.598333333333256 0.2638888888888889  9.5 0.2638888888888889  C 4.401666666666744 0.2638888888888889  0.2638888888888889 4.399027777777778  0.2638888888888889 9.5  Z M 17.416666666666664 9.5  C 17.416666666666664 11.122494444444447  16.931111111111072 12.630988888888888  16.086666666666677 13.886572222222226  C 14.081111111111026 12.767577777777776  11.853888888888909 12.138888888888888  9.5 12.138888888888888  C 7.146111111111092 12.138888888888888  4.918888888888976 12.767577777777776  2.913333333333324 13.886572222222226  C 2.068888888888927 12.63088333333333  1.5833333333333333 11.122494444444447  1.5833333333333333 9.5  C 1.5833333333333333 5.127783333333334  5.129999999999895 1.5833333333333333  9.5 1.5833333333333333  C 13.870000000000106 1.5833333333333333  17.416666666666664 5.127783333333334  17.416666666666664 9.5  Z M 9.5 13.458333333333334  C 11.53722222222229 13.458333333333334  13.479444444444425 13.982944444444444  15.252777777777824 14.934211111111113  C 13.817222222222135 16.46276111111111  11.76944444444454 17.416666666666664  9.5 17.416666666666664  C 7.230555555555459 17.416666666666664  5.182777777777864 16.46276111111111  3.7472222222221743 14.934211111111113  C 5.520555555555575 13.982944444444444  7.462777777777711 13.458333333333334  9.5 13.458333333333334  Z " fill-rule="evenodd" />
    </mask>
  </defs>
  <g transform="matrix(1 0 0 1 -1527 -18 )">
    <path d="M 0.2638888888888889 9.5  C 0.2638888888888889 14.600972222222227  4.401666666666744 18.73611111111111  9.5 18.73611111111111  C 14.598333333333256 18.73611111111111  18.73611111111111 14.600972222222227  18.73611111111111 9.5  C 18.73611111111111 4.399027777777778  14.598333333333256 0.2638888888888889  9.5 0.2638888888888889  C 4.401666666666744 0.2638888888888889  0.2638888888888889 4.399027777777778  0.2638888888888889 9.5  Z M 17.416666666666664 9.5  C 17.416666666666664 11.122494444444447  16.931111111111072 12.630988888888888  16.086666666666677 13.886572222222226  C 14.081111111111026 12.767577777777776  11.853888888888909 12.138888888888888  9.5 12.138888888888888  C 7.146111111111092 12.138888888888888  4.918888888888976 12.767577777777776  2.913333333333324 13.886572222222226  C 2.068888888888927 12.63088333333333  1.5833333333333333 11.122494444444447  1.5833333333333333 9.5  C 1.5833333333333333 5.127783333333334  5.129999999999895 1.5833333333333333  9.5 1.5833333333333333  C 13.870000000000106 1.5833333333333333  17.416666666666664 5.127783333333334  17.416666666666664 9.5  Z M 9.5 13.458333333333334  C 11.53722222222229 13.458333333333334  13.479444444444425 13.982944444444444  15.252777777777824 14.934211111111113  C 13.817222222222135 16.46276111111111  11.76944444444454 17.416666666666664  9.5 17.416666666666664  C 7.230555555555459 17.416666666666664  5.182777777777864 16.46276111111111  3.7472222222221743 14.934211111111113  C 5.520555555555575 13.982944444444444  7.462777777777711 13.458333333333334  9.5 13.458333333333334  Z " fill-rule="nonzero" fill="rgba(0, 0, 0, 1)" stroke="none" transform="matrix(1 0 0 1 1527 18 )" class="fill" />
    <path d="M 0.2638888888888889 9.5  C 0.2638888888888889 14.600972222222227  4.401666666666744 18.73611111111111  9.5 18.73611111111111  C 14.598333333333256 18.73611111111111  18.73611111111111 14.600972222222227  18.73611111111111 9.5  C 18.73611111111111 4.399027777777778  14.598333333333256 0.2638888888888889  9.5 0.2638888888888889  C 4.401666666666744 0.2638888888888889  0.2638888888888889 4.399027777777778  0.2638888888888889 9.5  Z " stroke-width="0" stroke-dasharray="0" stroke="rgba(255, 255, 255, 0)" fill="none" transform="matrix(1 0 0 1 1527 18 )" class="stroke" mask="url(#Clip787)" />
    <path d="M 17.416666666666664 9.5  C 17.416666666666664 11.122494444444447  16.931111111111072 12.630988888888888  16.086666666666677 13.886572222222226  C 14.081111111111026 12.767577777777776  11.853888888888909 12.138888888888888  9.5 12.138888888888888  C 7.146111111111092 12.138888888888888  4.918888888888976 12.767577777777776  2.913333333333324 13.886572222222226  C 2.068888888888927 12.63088333333333  1.5833333333333333 11.122494444444447  1.5833333333333333 9.5  C 1.5833333333333333 5.127783333333334  5.129999999999895 1.5833333333333333  9.5 1.5833333333333333  C 13.870000000000106 1.5833333333333333  17.416666666666664 5.127783333333334  17.416666666666664 9.5  Z " stroke-width="0" stroke-dasharray="0" stroke="rgba(255, 255, 255, 0)" fill="none" transform="matrix(1 0 0 1 1527 18 )" class="stroke" mask="url(#Clip787)" />
    <path d="M 9.5 13.458333333333334  C 11.53722222222229 13.458333333333334  13.479444444444425 13.982944444444444  15.252777777777824 14.934211111111113  C 13.817222222222135 16.46276111111111  11.76944444444454 17.416666666666664  9.5 17.416666666666664  C 7.230555555555459 17.416666666666664  5.182777777777864 16.46276111111111  3.7472222222221743 14.934211111111113  C 5.520555555555575 13.982944444444444  7.462777777777711 13.458333333333334  9.5 13.458333333333334  Z " stroke-width="0" stroke-dasharray="0" stroke="rgba(255, 255, 255, 0)" fill="none" transform="matrix(1 0 0 1 1527 18 )" class="stroke" mask="url(#Clip787)" />
  </g>
</svg>