<?xml version="1.0" encoding="utf-8"?>
<svg version="1.1" xmlns:xlink="http://www.w3.org/1999/xlink" width="45px" height="35px" xmlns="http://www.w3.org/2000/svg">
  <defs>
    <pattern id="BGPattern" patternUnits="userSpaceOnUse" alignment="0 0" imageRepeat="None" />
    <mask fill="white" id="Clip79">
      <path d="M 2.1875 23  L 35 23  L 35 25  L 0 25  L 0 0  L 2.1875 0  L 2.1875 23  Z M 32.65869140625 2.2298177083333344  C 32.76123046875001 2.3274739583333344  32.81250000000001 2.452256944444442  32.8125 2.6041666666666656  L 32.8125 9.684244791666666  C 32.81250000000001 9.912109374999996  32.70141601562501 10.072157118055555  32.479248046875 10.164388020833334  C 32.25708007812501 10.25661892361111  32.05485026041667 10.215928819444445  31.87255859375 10.042317708333334  L 29.8046875 8.072916666666666  L 18.98681640625 18.375651041666668  C 18.872884114583336 18.48415798611111  18.741861979166668 18.538411458333332  18.59375 18.538411458333332  C 18.445638020833336 18.538411458333332  18.314615885416668 18.48415798611111  18.20068359375 18.375651041666668  L 14.21875 14.583333333333332  L 7.109375 21.354166666666664  L 3.828125 18.229166666666668  L 13.82568359375 8.707682291666666  C 13.939615885416668 8.599175347222221  14.070638020833336 8.544921875  14.21875 8.544921875  C 14.366861979166668 8.544921875  14.497884114583334 8.599175347222221  14.61181640625 8.707682291666666  L 18.59375 12.5  L 26.5234375 4.947916666666666  L 24.45556640625 2.978515625  C 24.273274739583336 2.8049045138888866  24.230550130208336 2.6123046875  24.327392578125 2.4007161458333344  C 24.424235026041668 2.1891276041666656  24.59228515625 2.0833333333333344  24.83154296875 2.0833333333333344  L 32.265625 2.0833333333333344  C 32.425130208333336 2.0833333333333344  32.55615234375001 2.1321614583333344  32.65869140625 2.2298177083333344  Z " fill-rule="evenodd" />
    </mask>
  </defs>
  <g transform="matrix(1 0 0 1 -76 -572 )">
    <path d="M 2.1875 23  L 35 23  L 35 25  L 0 25  L 0 0  L 2.1875 0  L 2.1875 23  Z M 32.65869140625 2.2298177083333344  C 32.76123046875001 2.3274739583333344  32.81250000000001 2.452256944444442  32.8125 2.6041666666666656  L 32.8125 9.684244791666666  C 32.81250000000001 9.912109374999996  32.70141601562501 10.072157118055555  32.479248046875 10.164388020833334  C 32.25708007812501 10.25661892361111  32.05485026041667 10.215928819444445  31.87255859375 10.042317708333334  L 29.8046875 8.072916666666666  L 18.98681640625 18.375651041666668  C 18.872884114583336 18.48415798611111  18.741861979166668 18.538411458333332  18.59375 18.538411458333332  C 18.445638020833336 18.538411458333332  18.314615885416668 18.48415798611111  18.20068359375 18.375651041666668  L 14.21875 14.583333333333332  L 7.109375 21.354166666666664  L 3.828125 18.229166666666668  L 13.82568359375 8.707682291666666  C 13.939615885416668 8.599175347222221  14.070638020833336 8.544921875  14.21875 8.544921875  C 14.366861979166668 8.544921875  14.497884114583334 8.599175347222221  14.61181640625 8.707682291666666  L 18.59375 12.5  L 26.5234375 4.947916666666666  L 24.45556640625 2.978515625  C 24.273274739583336 2.8049045138888866  24.230550130208336 2.6123046875  24.327392578125 2.4007161458333344  C 24.424235026041668 2.1891276041666656  24.59228515625 2.0833333333333344  24.83154296875 2.0833333333333344  L 32.265625 2.0833333333333344  C 32.425130208333336 2.0833333333333344  32.55615234375001 2.1321614583333344  32.65869140625 2.2298177083333344  Z " fill-rule="nonzero" fill="rgba(0, 0, 0, 1)" stroke="none" transform="matrix(1 0 0 1 76 572 )" class="fill" />
    <path d="M 2.1875 23  L 35 23  L 35 25  L 0 25  L 0 0  L 2.1875 0  L 2.1875 23  Z " stroke-width="0" stroke-dasharray="0" stroke="rgba(255, 255, 255, 0)" fill="none" transform="matrix(1 0 0 1 76 572 )" class="stroke" mask="url(#Clip79)" />
    <path d="M 32.65869140625 2.2298177083333344  C 32.76123046875001 2.3274739583333344  32.81250000000001 2.452256944444442  32.8125 2.6041666666666656  L 32.8125 9.684244791666666  C 32.81250000000001 9.912109374999996  32.70141601562501 10.072157118055555  32.479248046875 10.164388020833334  C 32.25708007812501 10.25661892361111  32.05485026041667 10.215928819444445  31.87255859375 10.042317708333334  L 29.8046875 8.072916666666666  L 18.98681640625 18.375651041666668  C 18.872884114583336 18.48415798611111  18.741861979166668 18.538411458333332  18.59375 18.538411458333332  C 18.445638020833336 18.538411458333332  18.314615885416668 18.48415798611111  18.20068359375 18.375651041666668  L 14.21875 14.583333333333332  L 7.109375 21.354166666666664  L 3.828125 18.229166666666668  L 13.82568359375 8.707682291666666  C 13.939615885416668 8.599175347222221  14.070638020833336 8.544921875  14.21875 8.544921875  C 14.366861979166668 8.544921875  14.497884114583334 8.599175347222221  14.61181640625 8.707682291666666  L 18.59375 12.5  L 26.5234375 4.947916666666666  L 24.45556640625 2.978515625  C 24.273274739583336 2.8049045138888866  24.230550130208336 2.6123046875  24.327392578125 2.4007161458333344  C 24.424235026041668 2.1891276041666656  24.59228515625 2.0833333333333344  24.83154296875 2.0833333333333344  L 32.265625 2.0833333333333344  C 32.425130208333336 2.0833333333333344  32.55615234375001 2.1321614583333344  32.65869140625 2.2298177083333344  Z " stroke-width="0" stroke-dasharray="0" stroke="rgba(255, 255, 255, 0)" fill="none" transform="matrix(1 0 0 1 76 572 )" class="stroke" mask="url(#Clip79)" />
  </g>
  <style>svg { filter: drop-shadow(5px 5px 2.5px rgba(0, 0, 0, 0.34901960784313724)); }</style>
</svg>