<?xml version="1.0" encoding="utf-8"?>
<svg version="1.1" xmlns:xlink="http://www.w3.org/1999/xlink" width="9px" height="6px" xmlns="http://www.w3.org/2000/svg">
  <defs>
    <pattern id="BGPattern" patternUnits="userSpaceOnUse" alignment="0 0" imageRepeat="None" />
    <mask fill="white" id="Clip788">
      <path d="M 4.5 5.919400000000003  L 0.4859999999999673 1.4598000000000013  L 1.3140000000000327 0.5405000000000015  L 4.5 4.0809  L 7.685999999999967 0.5405000000000015  L 8.514000000000033 1.4598000000000013  L 4.5 5.919400000000003  Z " fill-rule="evenodd" />
    </mask>
  </defs>
  <g transform="matrix(1 0 0 1 -1644 -26 )">
    <path d="M 4.5 5.919400000000003  L 0.4859999999999673 1.4598000000000013  L 1.3140000000000327 0.5405000000000015  L 4.5 4.0809  L 7.685999999999967 0.5405000000000015  L 8.514000000000033 1.4598000000000013  L 4.5 5.919400000000003  Z " fill-rule="nonzero" fill="rgba(0, 0, 0, 1)" stroke="none" transform="matrix(1 0 0 1 1644 26 )" class="fill" />
    <path d="M 4.5 5.919400000000003  L 0.4859999999999673 1.4598000000000013  L 1.3140000000000327 0.5405000000000015  L 4.5 4.0809  L 7.685999999999967 0.5405000000000015  L 8.514000000000033 1.4598000000000013  L 4.5 5.919400000000003  Z " stroke-width="0" stroke-dasharray="0" stroke="rgba(255, 255, 255, 0)" fill="none" transform="matrix(1 0 0 1 1644 26 )" class="stroke" mask="url(#Clip788)" />
  </g>
</svg>