<?xml version="1.0" encoding="utf-8"?>
<svg version="1.1" xmlns:xlink="http://www.w3.org/1999/xlink" width="7px" height="7px" xmlns="http://www.w3.org/2000/svg">
  <defs>
    <pattern id="BGPattern" patternUnits="userSpaceOnUse" alignment="0 0" imageRepeat="None" />
    <mask fill="white" id="Clip789">
      <path d="M 3.5 0.21875  C 5.311249999999944 0.21875  6.78125 1.6877874999999989  6.78125 3.5  C 6.78125 5.312212500000001  5.311249999999944 6.78125  3.5 6.78125  C 1.6887500000000557 6.78125  0.21875 5.312212500000001  0.21875 3.5  C 0.21875 1.6877874999999989  1.6887500000000557 0.21875  3.5 0.21875  Z M 3.5 5.6875  C 4.7075000000000955 5.6875  5.6875 4.708112499999998  5.6875 3.5  C 5.6875 2.291887499999999  4.7075000000000955 1.3125  3.5 1.3125  C 2.2924999999999045 1.3125  1.3125 2.291887499999999  1.3125 3.5  C 1.3125 4.708112499999998  2.2924999999999045 5.6875  3.5 5.6875  Z " fill-rule="evenodd" />
    </mask>
  </defs>
  <g transform="matrix(1 0 0 1 -1894 -22 )">
    <path d="M 3.5 0.21875  C 5.311249999999944 0.21875  6.78125 1.6877874999999989  6.78125 3.5  C 6.78125 5.312212500000001  5.311249999999944 6.78125  3.5 6.78125  C 1.6887500000000557 6.78125  0.21875 5.312212500000001  0.21875 3.5  C 0.21875 1.6877874999999989  1.6887500000000557 0.21875  3.5 0.21875  Z M 3.5 5.6875  C 4.7075000000000955 5.6875  5.6875 4.708112499999998  5.6875 3.5  C 5.6875 2.291887499999999  4.7075000000000955 1.3125  3.5 1.3125  C 2.2924999999999045 1.3125  1.3125 2.291887499999999  1.3125 3.5  C 1.3125 4.708112499999998  2.2924999999999045 5.6875  3.5 5.6875  Z " fill-rule="nonzero" fill="rgba(0, 0, 0, 0.8980392156862745)" stroke="none" transform="matrix(1 0 0 1 1894 22 )" class="fill" />
    <path d="M 3.5 0.21875  C 5.311249999999944 0.21875  6.78125 1.6877874999999989  6.78125 3.5  C 6.78125 5.312212500000001  5.311249999999944 6.78125  3.5 6.78125  C 1.6887500000000557 6.78125  0.21875 5.312212500000001  0.21875 3.5  C 0.21875 1.6877874999999989  1.6887500000000557 0.21875  3.5 0.21875  Z " stroke-width="0" stroke-dasharray="0" stroke="rgba(255, 255, 255, 0)" fill="none" transform="matrix(1 0 0 1 1894 22 )" class="stroke" mask="url(#Clip789)" />
    <path d="M 3.5 5.6875  C 4.7075000000000955 5.6875  5.6875 4.708112499999998  5.6875 3.5  C 5.6875 2.291887499999999  4.7075000000000955 1.3125  3.5 1.3125  C 2.2924999999999045 1.3125  1.3125 2.291887499999999  1.3125 3.5  C 1.3125 4.708112499999998  2.2924999999999045 5.6875  3.5 5.6875  Z " stroke-width="0" stroke-dasharray="0" stroke="rgba(255, 255, 255, 0)" fill="none" transform="matrix(1 0 0 1 1894 22 )" class="stroke" mask="url(#Clip789)" />
  </g>
</svg>