<?xml version="1.0" encoding="utf-8"?>
<svg version="1.1" xmlns:xlink="http://www.w3.org/1999/xlink" width="15px" height="17px" xmlns="http://www.w3.org/2000/svg">
  <defs>
    <pattern id="BGPattern" patternUnits="userSpaceOnUse" alignment="0 0" imageRepeat="None" />
    <mask fill="white" id="Clip790">
      <path d="M 0.3937500000000682 4.515577777777777  L 7.5 0.53125  L 14.606249999999932 4.515577777777777  L 14.606249999999932 12.484422222222225  L 7.5 16.46875  L 0.3937500000000682 12.484422222222225  L 0.3937500000000682 4.515577777777777  Z M 7.5 1.882466666666668  L 1.5656250000000682 5.209555555555554  L 1.5656250000000682 11.790444444444447  L 7.5 15.11753333333333  L 13.434374999999932 11.790444444444447  L 13.434374999999932 5.209555555555554  L 7.5 1.882466666666668  Z " fill-rule="evenodd" />
    </mask>
  </defs>
  <g transform="matrix(1 0 0 1 -1891 -17 )">
    <path d="M 0.3937500000000682 4.515577777777777  L 7.5 0.53125  L 14.606249999999932 4.515577777777777  L 14.606249999999932 12.484422222222225  L 7.5 16.46875  L 0.3937500000000682 12.484422222222225  L 0.3937500000000682 4.515577777777777  Z M 7.5 1.882466666666668  L 1.5656250000000682 5.209555555555554  L 1.5656250000000682 11.790444444444447  L 7.5 15.11753333333333  L 13.434374999999932 11.790444444444447  L 13.434374999999932 5.209555555555554  L 7.5 1.882466666666668  Z " fill-rule="nonzero" fill="rgba(0, 0, 0, 0.8980392156862745)" stroke="none" transform="matrix(1 0 0 1 1891 17 )" class="fill" />
    <path d="M 0.3937500000000682 4.515577777777777  L 7.5 0.53125  L 14.606249999999932 4.515577777777777  L 14.606249999999932 12.484422222222225  L 7.5 16.46875  L 0.3937500000000682 12.484422222222225  L 0.3937500000000682 4.515577777777777  Z " stroke-width="0" stroke-dasharray="0" stroke="rgba(255, 255, 255, 0)" fill="none" transform="matrix(1 0 0 1 1891 17 )" class="stroke" mask="url(#Clip790)" />
    <path d="M 7.5 1.882466666666668  L 1.5656250000000682 5.209555555555554  L 1.5656250000000682 11.790444444444447  L 7.5 15.11753333333333  L 13.434374999999932 11.790444444444447  L 13.434374999999932 5.209555555555554  L 7.5 1.882466666666668  Z " stroke-width="0" stroke-dasharray="0" stroke="rgba(255, 255, 255, 0)" fill="none" transform="matrix(1 0 0 1 1891 17 )" class="stroke" mask="url(#Clip790)" />
  </g>
</svg>