<?xml version="1.0" encoding="utf-8"?>
<svg version="1.1" xmlns:xlink="http://www.w3.org/1999/xlink" width="17px" height="17px" xmlns="http://www.w3.org/2000/svg">
  <defs>
    <pattern id="BGPattern" patternUnits="userSpaceOnUse" alignment="0 0" imageRepeat="None" />
    <mask fill="white" id="Clip791">
      <path d="M 0.35888888888899195 8.618055555555555  L 0.35888888888899195 8.381944444444445  C 0.35888888888899195 3.883177777777777  4.004444444444453 0.23620555555555534  8.5 0.2361111111111111  C 12.995555555555546 0.2361111111111111  16.65055555555566 3.8830833333333326  16.65055555555566 8.381944444444445  L 16.65055555555566 8.618055555555555  C 16.65055555555566 13.116916666666668  12.995555555555546 16.76388888888889  8.5 16.76388888888889  C 4.004444444444453 16.76379444444444  0.35888888888899195 13.116822222222218  0.35888888888899195 8.618055555555555  Z M 9.595555555555633 15.4972  C 12.76888888888887 14.994472222222221  15.233888888888993 12.34927222222222  15.451111111111016 9.090277777777777  L 11.90944444444435 9.090277777777777  C 11.79611111111112 11.355716666666666  11.021666666666736 13.59442777777778  9.595555555555633 15.4972  Z M 9.595555555555633 1.5028000000000006  C 11.021666666666736 3.405572222222221  11.79611111111112 5.644283333333331  11.90944444444435 7.909722222222222  L 15.451111111111016 7.909722222222222  C 15.233888888888993 4.650727777777777  12.76888888888887 2.0055277777777776  9.595555555555633 1.5028000000000006  Z M 6.271111111111205 7.909722222222222  L 10.728888888888793 7.909722222222222  C 10.60611111111113 5.8139055555555545  9.869444444444486 3.7465166666666656  8.5 2.0105333333333317  C 7.130555555555512 3.7465166666666656  6.393888888888872 5.8139055555555545  6.271111111111205 7.909722222222222  Z M 7.404444444444367 15.497105555555558  C 5.978333333333265 13.594333333333331  5.203888888888881 11.355716666666666  5.0905555555556505 9.090277777777777  L 1.5488888888889834 9.090277777777777  C 1.7661111111110082 12.34917777777778  4.231111111111129 14.994283333333334  7.404444444444367 15.497105555555558  Z M 1.5488888888889834 7.909722222222222  L 5.0905555555556505 7.909722222222222  C 5.203888888888881 5.644283333333331  5.978333333333265 3.405666666666668  7.404444444444367 1.5028944444444448  C 4.231111111111129 2.005716666666666  1.7661111111110082 4.650822222222221  1.5488888888889834 7.909722222222222  Z M 8.5 14.989466666666669  C 9.869444444444486 13.25348333333333  10.60611111111113 11.186094444444441  10.728888888888793 9.090277777777777  L 6.271111111111205 9.090277777777777  C 6.393888888888872 11.186094444444441  7.130555555555512 13.25348333333333  8.5 14.989466666666669  Z " fill-rule="evenodd" />
    </mask>
  </defs>
  <g transform="matrix(1 0 0 1 -1713 -17 )">
    <path d="M 0.35888888888899195 8.618055555555555  L 0.35888888888899195 8.381944444444445  C 0.35888888888899195 3.883177777777777  4.004444444444453 0.23620555555555534  8.5 0.2361111111111111  C 12.995555555555546 0.2361111111111111  16.65055555555566 3.8830833333333326  16.65055555555566 8.381944444444445  L 16.65055555555566 8.618055555555555  C 16.65055555555566 13.116916666666668  12.995555555555546 16.76388888888889  8.5 16.76388888888889  C 4.004444444444453 16.76379444444444  0.35888888888899195 13.116822222222218  0.35888888888899195 8.618055555555555  Z M 9.595555555555633 15.4972  C 12.76888888888887 14.994472222222221  15.233888888888993 12.34927222222222  15.451111111111016 9.090277777777777  L 11.90944444444435 9.090277777777777  C 11.79611111111112 11.355716666666666  11.021666666666736 13.59442777777778  9.595555555555633 15.4972  Z M 9.595555555555633 1.5028000000000006  C 11.021666666666736 3.405572222222221  11.79611111111112 5.644283333333331  11.90944444444435 7.909722222222222  L 15.451111111111016 7.909722222222222  C 15.233888888888993 4.650727777777777  12.76888888888887 2.0055277777777776  9.595555555555633 1.5028000000000006  Z M 6.271111111111205 7.909722222222222  L 10.728888888888793 7.909722222222222  C 10.60611111111113 5.8139055555555545  9.869444444444486 3.7465166666666656  8.5 2.0105333333333317  C 7.130555555555512 3.7465166666666656  6.393888888888872 5.8139055555555545  6.271111111111205 7.909722222222222  Z M 7.404444444444367 15.497105555555558  C 5.978333333333265 13.594333333333331  5.203888888888881 11.355716666666666  5.0905555555556505 9.090277777777777  L 1.5488888888889834 9.090277777777777  C 1.7661111111110082 12.34917777777778  4.231111111111129 14.994283333333334  7.404444444444367 15.497105555555558  Z M 1.5488888888889834 7.909722222222222  L 5.0905555555556505 7.909722222222222  C 5.203888888888881 5.644283333333331  5.978333333333265 3.405666666666668  7.404444444444367 1.5028944444444448  C 4.231111111111129 2.005716666666666  1.7661111111110082 4.650822222222221  1.5488888888889834 7.909722222222222  Z M 8.5 14.989466666666669  C 9.869444444444486 13.25348333333333  10.60611111111113 11.186094444444441  10.728888888888793 9.090277777777777  L 6.271111111111205 9.090277777777777  C 6.393888888888872 11.186094444444441  7.130555555555512 13.25348333333333  8.5 14.989466666666669  Z " fill-rule="nonzero" fill="rgba(0, 0, 0, 0.8980392156862745)" stroke="none" transform="matrix(1 0 0 1 1713 17 )" class="fill" />
    <path d="M 0.35888888888899195 8.618055555555555  L 0.35888888888899195 8.381944444444445  C 0.35888888888899195 3.883177777777777  4.004444444444453 0.23620555555555534  8.5 0.2361111111111111  C 12.995555555555546 0.2361111111111111  16.65055555555566 3.8830833333333326  16.65055555555566 8.381944444444445  L 16.65055555555566 8.618055555555555  C 16.65055555555566 13.116916666666668  12.995555555555546 16.76388888888889  8.5 16.76388888888889  C 4.004444444444453 16.76379444444444  0.35888888888899195 13.116822222222218  0.35888888888899195 8.618055555555555  Z " stroke-width="0" stroke-dasharray="0" stroke="rgba(255, 255, 255, 0)" fill="none" transform="matrix(1 0 0 1 1713 17 )" class="stroke" mask="url(#Clip791)" />
    <path d="M 9.595555555555633 15.4972  C 12.76888888888887 14.994472222222221  15.233888888888993 12.34927222222222  15.451111111111016 9.090277777777777  L 11.90944444444435 9.090277777777777  C 11.79611111111112 11.355716666666666  11.021666666666736 13.59442777777778  9.595555555555633 15.4972  Z " stroke-width="0" stroke-dasharray="0" stroke="rgba(255, 255, 255, 0)" fill="none" transform="matrix(1 0 0 1 1713 17 )" class="stroke" mask="url(#Clip791)" />
    <path d="M 9.595555555555633 1.5028000000000006  C 11.021666666666736 3.405572222222221  11.79611111111112 5.644283333333331  11.90944444444435 7.909722222222222  L 15.451111111111016 7.909722222222222  C 15.233888888888993 4.650727777777777  12.76888888888887 2.0055277777777776  9.595555555555633 1.5028000000000006  Z " stroke-width="0" stroke-dasharray="0" stroke="rgba(255, 255, 255, 0)" fill="none" transform="matrix(1 0 0 1 1713 17 )" class="stroke" mask="url(#Clip791)" />
    <path d="M 6.271111111111205 7.909722222222222  L 10.728888888888793 7.909722222222222  C 10.60611111111113 5.8139055555555545  9.869444444444486 3.7465166666666656  8.5 2.0105333333333317  C 7.130555555555512 3.7465166666666656  6.393888888888872 5.8139055555555545  6.271111111111205 7.909722222222222  Z " stroke-width="0" stroke-dasharray="0" stroke="rgba(255, 255, 255, 0)" fill="none" transform="matrix(1 0 0 1 1713 17 )" class="stroke" mask="url(#Clip791)" />
    <path d="M 7.404444444444367 15.497105555555558  C 5.978333333333265 13.594333333333331  5.203888888888881 11.355716666666666  5.0905555555556505 9.090277777777777  L 1.5488888888889834 9.090277777777777  C 1.7661111111110082 12.34917777777778  4.231111111111129 14.994283333333334  7.404444444444367 15.497105555555558  Z " stroke-width="0" stroke-dasharray="0" stroke="rgba(255, 255, 255, 0)" fill="none" transform="matrix(1 0 0 1 1713 17 )" class="stroke" mask="url(#Clip791)" />
    <path d="M 1.5488888888889834 7.909722222222222  L 5.0905555555556505 7.909722222222222  C 5.203888888888881 5.644283333333331  5.978333333333265 3.405666666666668  7.404444444444367 1.5028944444444448  C 4.231111111111129 2.005716666666666  1.7661111111110082 4.650822222222221  1.5488888888889834 7.909722222222222  Z " stroke-width="0" stroke-dasharray="0" stroke="rgba(255, 255, 255, 0)" fill="none" transform="matrix(1 0 0 1 1713 17 )" class="stroke" mask="url(#Clip791)" />
    <path d="M 8.5 14.989466666666669  C 9.869444444444486 13.25348333333333  10.60611111111113 11.186094444444441  10.728888888888793 9.090277777777777  L 6.271111111111205 9.090277777777777  C 6.393888888888872 11.186094444444441  7.130555555555512 13.25348333333333  8.5 14.989466666666669  Z " stroke-width="0" stroke-dasharray="0" stroke="rgba(255, 255, 255, 0)" fill="none" transform="matrix(1 0 0 1 1713 17 )" class="stroke" mask="url(#Clip791)" />
  </g>
</svg>