<?xml version="1.0" encoding="utf-8"?>
<svg version="1.1" xmlns:xlink="http://www.w3.org/1999/xlink" width="2px" height="3px" xmlns="http://www.w3.org/2000/svg">
  <defs>
    <pattern id="BGPattern" patternUnits="userSpaceOnUse" alignment="0 0" imageRepeat="None" />
    <mask fill="white" id="Clip792">
      <path d="M 1 2.25  C 0.5899999999999181 2.25  0.25 1.914200000000001  0.25 1.5  C 0.25 1.085799999999999  0.5899999999999181 0.75  1 0.75  C 1.4100000000000819 0.75  1.75 1.085799999999999  1.75 1.5  C 1.75 1.914200000000001  1.4100000000000819 2.25  1 2.25  Z " fill-rule="evenodd" />
    </mask>
  </defs>
  <g transform="matrix(1 0 0 1 -1852 -29 )">
    <path d="M 1 2.25  C 0.5899999999999181 2.25  0.25 1.914200000000001  0.25 1.5  C 0.25 1.085799999999999  0.5899999999999181 0.75  1 0.75  C 1.4100000000000819 0.75  1.75 1.085799999999999  1.75 1.5  C 1.75 1.914200000000001  1.4100000000000819 2.25  1 2.25  Z " fill-rule="nonzero" fill="rgba(0, 0, 0, 0.8980392156862745)" stroke="none" transform="matrix(1 0 0 1 1852 29 )" class="fill" />
    <path d="M 1 2.25  C 0.5899999999999181 2.25  0.25 1.914200000000001  0.25 1.5  C 0.25 1.085799999999999  0.5899999999999181 0.75  1 0.75  C 1.4100000000000819 0.75  1.75 1.085799999999999  1.75 1.5  C 1.75 1.914200000000001  1.4100000000000819 2.25  1 2.25  Z " stroke-width="0" stroke-dasharray="0" stroke="rgba(255, 255, 255, 0)" fill="none" transform="matrix(1 0 0 1 1852 29 )" class="stroke" mask="url(#Clip792)" />
  </g>
</svg>