<?xml version="1.0" encoding="utf-8"?>
<svg version="1.1" xmlns:xlink="http://www.w3.org/1999/xlink" width="17px" height="17px" xmlns="http://www.w3.org/2000/svg">
  <defs>
    <pattern id="BGPattern" patternUnits="userSpaceOnUse" alignment="0 0" imageRepeat="None" />
    <mask fill="white" id="Clip794">
      <path d="M 8.5 16.76388888888889  C 13.061666666666598 16.76388888888889  16.76388888888889 13.064027777777781  16.76388888888889 8.5  C 16.76388888888889 3.935972222222223  13.061666666666598 0.2361111111111111  8.5 0.2361111111111111  C 3.9383333333334023 0.2361111111111111  0.2361111111111111 3.935972222222223  0.2361111111111111 8.5  C 0.2361111111111111 13.064027777777781  3.9383333333334023 16.76388888888889  8.5 16.76388888888889  Z M 8.5 1.4166666666666665  C 12.410000000000094 1.4166666666666665  15.583333333333332 4.588016666666667  15.583333333333332 8.5  C 15.583333333333332 12.411983333333334  12.410000000000094 15.583333333333332  8.5 15.583333333333332  C 4.589999999999906 15.583333333333332  1.4166666666666665 12.411983333333334  1.4166666666666665 8.5  C 1.4166666666666665 4.588016666666667  4.589999999999906 1.4166666666666665  8.5 1.4166666666666665  Z " fill-rule="evenodd" />
    </mask>
  </defs>
  <g transform="matrix(1 0 0 1 -1846 -17 )">
    <path d="M 8.5 16.76388888888889  C 13.061666666666598 16.76388888888889  16.76388888888889 13.064027777777781  16.76388888888889 8.5  C 16.76388888888889 3.935972222222223  13.061666666666598 0.2361111111111111  8.5 0.2361111111111111  C 3.9383333333334023 0.2361111111111111  0.2361111111111111 3.935972222222223  0.2361111111111111 8.5  C 0.2361111111111111 13.064027777777781  3.9383333333334023 16.76388888888889  8.5 16.76388888888889  Z M 8.5 1.4166666666666665  C 12.410000000000094 1.4166666666666665  15.583333333333332 4.588016666666667  15.583333333333332 8.5  C 15.583333333333332 12.411983333333334  12.410000000000094 15.583333333333332  8.5 15.583333333333332  C 4.589999999999906 15.583333333333332  1.4166666666666665 12.411983333333334  1.4166666666666665 8.5  C 1.4166666666666665 4.588016666666667  4.589999999999906 1.4166666666666665  8.5 1.4166666666666665  Z " fill-rule="nonzero" fill="rgba(0, 0, 0, 0.8980392156862745)" stroke="none" transform="matrix(1 0 0 1 1846 17 )" class="fill" />
    <path d="M 8.5 16.76388888888889  C 13.061666666666598 16.76388888888889  16.76388888888889 13.064027777777781  16.76388888888889 8.5  C 16.76388888888889 3.935972222222223  13.061666666666598 0.2361111111111111  8.5 0.2361111111111111  C 3.9383333333334023 0.2361111111111111  0.2361111111111111 3.935972222222223  0.2361111111111111 8.5  C 0.2361111111111111 13.064027777777781  3.9383333333334023 16.76388888888889  8.5 16.76388888888889  Z " stroke-width="0" stroke-dasharray="0" stroke="rgba(255, 255, 255, 0)" fill="none" transform="matrix(1 0 0 1 1846 17 )" class="stroke" mask="url(#Clip794)" />
    <path d="M 8.5 1.4166666666666665  C 12.410000000000094 1.4166666666666665  15.583333333333332 4.588016666666667  15.583333333333332 8.5  C 15.583333333333332 12.411983333333334  12.410000000000094 15.583333333333332  8.5 15.583333333333332  C 4.589999999999906 15.583333333333332  1.4166666666666665 12.411983333333334  1.4166666666666665 8.5  C 1.4166666666666665 4.588016666666667  4.589999999999906 1.4166666666666665  8.5 1.4166666666666665  Z " stroke-width="0" stroke-dasharray="0" stroke="rgba(255, 255, 255, 0)" fill="none" transform="matrix(1 0 0 1 1846 17 )" class="stroke" mask="url(#Clip794)" />
  </g>
</svg>