<?xml version="1.0" encoding="utf-8"?>
<svg version="1.1" xmlns:xlink="http://www.w3.org/1999/xlink" width="16px" height="14px" xmlns="http://www.w3.org/2000/svg">
  <defs>
    <pattern id="BGPattern" patternUnits="userSpaceOnUse" alignment="0 0" imageRepeat="None" />
    <mask fill="white" id="Clip89">
      <path d="M 1 11.999000000000002  L 1 1.998999999999999  C 0.7733333333332363 1.3087000000000018  1.2711111111111677 0.7489999999999988  1.8844444444443473 1  L 14.10666666666657 1  C 14.719999999999951 0.7489999999999988  15.21777777777768 1.3087000000000018  15 1.998999999999999  L 15 11.999000000000002  C 15.21777777777768 12.6894  14.719999999999951 13.249000000000002  14.10666666666657 13  L 1.8844444444443473 13  C 1.2711111111111677 13.249000000000002  0.7733333333332363 12.6894  1 11.999000000000002  Z M 8 6.247900000000001  L 13.662222222222125 2  L 2.337777777777875 2  L 8 6.247900000000001  Z M 8 7.7501999999999995  L 1.8844444444443473 3.1667999999999985  L 1.8844444444443473 12  L 14.10666666666657 12  L 14.10666666666657 3.1667999999999985  L 8 7.7501999999999995  Z " fill-rule="evenodd" />
    </mask>
  </defs>
  <g transform="matrix(1 0 0 1 -1601 -30 )">
    <path d="M 1 11.999000000000002  L 1 1.998999999999999  C 0.7733333333332363 1.3087000000000018  1.2711111111111677 0.7489999999999988  1.8844444444443473 1  L 14.10666666666657 1  C 14.719999999999951 0.7489999999999988  15.21777777777768 1.3087000000000018  15 1.998999999999999  L 15 11.999000000000002  C 15.21777777777768 12.6894  14.719999999999951 13.249000000000002  14.10666666666657 13  L 1.8844444444443473 13  C 1.2711111111111677 13.249000000000002  0.7733333333332363 12.6894  1 11.999000000000002  Z M 8 6.247900000000001  L 13.662222222222125 2  L 2.337777777777875 2  L 8 6.247900000000001  Z M 8 7.7501999999999995  L 1.8844444444443473 3.1667999999999985  L 1.8844444444443473 12  L 14.10666666666657 12  L 14.10666666666657 3.1667999999999985  L 8 7.7501999999999995  Z " fill-rule="nonzero" fill="rgba(0, 0, 0, 1)" stroke="none" transform="matrix(1 0 0 1 1601 30 )" class="fill" />
    <path d="M 1 11.999000000000002  L 1 1.998999999999999  C 0.7733333333332363 1.3087000000000018  1.2711111111111677 0.7489999999999988  1.8844444444443473 1  L 14.10666666666657 1  C 14.719999999999951 0.7489999999999988  15.21777777777768 1.3087000000000018  15 1.998999999999999  L 15 11.999000000000002  C 15.21777777777768 12.6894  14.719999999999951 13.249000000000002  14.10666666666657 13  L 1.8844444444443473 13  C 1.2711111111111677 13.249000000000002  0.7733333333332363 12.6894  1 11.999000000000002  Z " stroke-width="0" stroke-dasharray="0" stroke="rgba(255, 255, 255, 0)" fill="none" transform="matrix(1 0 0 1 1601 30 )" class="stroke" mask="url(#Clip89)" />
    <path d="M 8 6.247900000000001  L 13.662222222222125 2  L 2.337777777777875 2  L 8 6.247900000000001  Z " stroke-width="0" stroke-dasharray="0" stroke="rgba(255, 255, 255, 0)" fill="none" transform="matrix(1 0 0 1 1601 30 )" class="stroke" mask="url(#Clip89)" />
    <path d="M 8 7.7501999999999995  L 1.8844444444443473 3.1667999999999985  L 1.8844444444443473 12  L 14.10666666666657 12  L 14.10666666666657 3.1667999999999985  L 8 7.7501999999999995  Z " stroke-width="0" stroke-dasharray="0" stroke="rgba(255, 255, 255, 0)" fill="none" transform="matrix(1 0 0 1 1601 30 )" class="stroke" mask="url(#Clip89)" />
  </g>
</svg>