<?xml version="1.0" encoding="utf-8"?>
<svg version="1.1" xmlns:xlink="http://www.w3.org/1999/xlink" width="14px" height="17px" xmlns="http://www.w3.org/2000/svg">
  <defs>
    <pattern id="BGPattern" patternUnits="userSpaceOnUse" alignment="0 0" imageRepeat="None" />
    <mask fill="white" id="Clip795">
      <path d="M 10.388000000000103 16.17361111111111  L 4.554666666666769 16.17361111111111  L 4.554666666666769 14.041716666666666  L 3.4906666666666752 14.041716666666666  C 2.6506666666665906 14.041716666666666  1.96933333333324 13.349533333333332  1.96933333333324 12.49566111111111  C 1.96933333333324 12.196083333333332  1.7266666666665818 11.953077777777775  1.4279999999999744 11.953077777777775  L 0.5786666666665647 11.953077777777775  L 0.5786666666665647 10.949700000000002  L 1.4279999999999744 10.949700000000002  C 1.4933333333332486 10.949700000000002  1.5586666666667346 10.953855555555554  1.6240000000000085 10.961883333333331  C 1.661333333333308 10.967172222222219  1.7079999999999322 10.974066666666666  1.7453333333332315 10.982472222222224  C 2.2400000000000846 11.08692777777778  2.6413333333332654 11.431744444444442  2.8373333333332993 11.890272222222222  C 2.9119999999998982 12.076233333333334  2.9586666666667343 12.2808  2.9586666666667343 12.49566111111111  C 2.9586666666667343 12.75736666666667  3.135999999999907 12.975816666666667  3.3880000000001016 13.02691111111111  C 3.4160000000000763 13.03437222222222  3.4533333333333758 13.038244444444443  3.4906666666666752 13.038244444444443  L 4.554666666666769 13.038244444444443  L 4.554666666666769 12.588027777777775  C 4.554666666666769 12.439655555555554  4.564000000000093 12.292983333333334  4.592000000000068 12.149616666666667  C 4.629333333333367 11.929844444444443  4.703999999999966 11.718005555555555  4.806666666666751 11.520238888888885  C 4.424000000000008 11.389905555555554  4.06933333333324 11.232277777777778  3.7333333333333334 11.050755555555558  L 3.7053333333333587 11.03743888888889  C 3.1266666666665817 10.719538888888888  2.6133333333332907 10.329294444444445  2.2026666666665733 9.88398888888889  C 1.4746666666665986 9.090655555555553  1.0359999999999068 8.122505555555556  1.0359999999999068 7.077572222222223  C 1.0359999999999068 6.080238888888887  1.4279999999999744 5.152794444444444  2.109333333333325 4.380522222222223  L 2.053333333333376 4.121366666666668  C 1.8293333333333672 2.9844444444444447  2.053333333333376 1.8020944444444456  2.688000000000102 0.8346055555555566  C 3.826666666666582 0.7635833333333321  4.955999999999949 1.1558111111111118  5.8146666666666835 1.9247777777777781  L 6.225333333333402 2.291694444444445  C 6.6173333333332565 2.234744444444444  7.018666666666649 2.2048055555555544  7.429333333333367 2.2048055555555544  C 7.886666666666709 2.2048055555555544  8.334666666666726 2.2410722222222232  8.764000000000093 2.3099222222222204  L 9.193333333333248 1.924872222222222  C 10.051999999999982 1.1558111111111118  11.172000000000025 0.7636777777777762  12.320000000000043 0.8347000000000008  C 12.954666666666768 1.8020944444444456  13.178666666666565 2.984538888888889  12.954666666666768 4.121461111111112  L 12.870666666666633 4.513877777777776  C 13.477333333333384 5.258572222222224  13.822666666666617 6.1370000000000005  13.822666666666617 7.077572222222223  C 13.822666666666617 8.707211111111112  12.777333333333385 10.149944444444445  11.1626666666667 11.034605555555556  C 10.826666666666583 11.21811111111111  10.472000000000024 11.377627777777779  10.089333333333283 11.509755555555554  C 10.220000000000041 11.74633888888889  10.31333333333329 12.004550000000004  10.35066666666659 12.27324444444444  C 10.369333333333241 12.39706111111111  10.388000000000103 12.523144444444444  10.388000000000103 12.650361111111112  L 10.388000000000103 16.17361111111111  Z M 7.429333333333367 3.3853611111111097  C 7.0746666666666 3.3853611111111097  6.729333333333367 3.411238888888888  6.393333333333248 3.460255555555554  L 5.8519999999999825 3.5381722222222236  L 5.040000000000084 2.8087777777777783  C 4.573333333333418 2.386044444444443  3.9853333333333163 2.119333333333333  3.3693333333332403 2.035466666666667  C 3.135999999999907 2.616961111111112  3.0706666666666327 3.260788888888889  3.201333333333393 3.885822222222222  L 3.3693333333332403 4.721561111111113  L 2.9773333333333842 5.162427777777779  C 2.4640000000000937 5.751949999999999  2.2026666666665733 6.409472222222223  2.2026666666665733 7.077572222222223  C 2.2026666666665733 8.374105555555557  3.248000000000017 9.736655555555553  5.179999999999957 10.40258333333333  L 6.44933333333341 10.840900000000001  L 5.842666666666658 12.054133333333331  C 5.758666666666734 12.217616666666668  5.721333333333435 12.399988888888885  5.721333333333435 12.588027777777775  L 5.721333333333435 14.993055555555555  L 9.221333333333435 14.993055555555555  L 9.221333333333435 12.650361111111112  C 9.221333333333435 12.44872222222222  9.165333333333274 12.25293888888889  9.072000000000026 12.080011111111109  L 8.4 10.851572222222222  L 9.716000000000077 10.393800000000002  C 11.629333333333367 9.723999999999998  12.655999999999949 8.368344444444446  12.655999999999949 7.077572222222223  C 12.655999999999949 6.4464000000000015  12.431999999999942 5.826844444444443  11.974666666666598 5.264049999999998  L 11.620000000000044 4.829605555555557  L 11.806666666666752 3.8859166666666662  C 11.9373333333333 3.260883333333333  11.872000000000027 2.6170555555555564  11.629333333333367 2.0355611111111114  C 11.013333333333291 2.119333333333333  10.434666666666727 2.3861388888888877  9.96800000000006 2.8088722222222224  L 9.11866666666665 3.5633888888888885  L 8.577333333333385 3.4758388888888883  C 8.213333333333292 3.41681111111111  7.83066666666676 3.3853611111111097  7.429333333333367 3.3853611111111097  Z " fill-rule="evenodd" />
    </mask>
  </defs>
  <g transform="matrix(1 0 0 1 -1802 -17 )">
    <path d="M 10.388000000000103 16.17361111111111  L 4.554666666666769 16.17361111111111  L 4.554666666666769 14.041716666666666  L 3.4906666666666752 14.041716666666666  C 2.6506666666665906 14.041716666666666  1.96933333333324 13.349533333333332  1.96933333333324 12.49566111111111  C 1.96933333333324 12.196083333333332  1.7266666666665818 11.953077777777775  1.4279999999999744 11.953077777777775  L 0.5786666666665647 11.953077777777775  L 0.5786666666665647 10.949700000000002  L 1.4279999999999744 10.949700000000002  C 1.4933333333332486 10.949700000000002  1.5586666666667346 10.953855555555554  1.6240000000000085 10.961883333333331  C 1.661333333333308 10.967172222222219  1.7079999999999322 10.974066666666666  1.7453333333332315 10.982472222222224  C 2.2400000000000846 11.08692777777778  2.6413333333332654 11.431744444444442  2.8373333333332993 11.890272222222222  C 2.9119999999998982 12.076233333333334  2.9586666666667343 12.2808  2.9586666666667343 12.49566111111111  C 2.9586666666667343 12.75736666666667  3.135999999999907 12.975816666666667  3.3880000000001016 13.02691111111111  C 3.4160000000000763 13.03437222222222  3.4533333333333758 13.038244444444443  3.4906666666666752 13.038244444444443  L 4.554666666666769 13.038244444444443  L 4.554666666666769 12.588027777777775  C 4.554666666666769 12.439655555555554  4.564000000000093 12.292983333333334  4.592000000000068 12.149616666666667  C 4.629333333333367 11.929844444444443  4.703999999999966 11.718005555555555  4.806666666666751 11.520238888888885  C 4.424000000000008 11.389905555555554  4.06933333333324 11.232277777777778  3.7333333333333334 11.050755555555558  L 3.7053333333333587 11.03743888888889  C 3.1266666666665817 10.719538888888888  2.6133333333332907 10.329294444444445  2.2026666666665733 9.88398888888889  C 1.4746666666665986 9.090655555555553  1.0359999999999068 8.122505555555556  1.0359999999999068 7.077572222222223  C 1.0359999999999068 6.080238888888887  1.4279999999999744 5.152794444444444  2.109333333333325 4.380522222222223  L 2.053333333333376 4.121366666666668  C 1.8293333333333672 2.9844444444444447  2.053333333333376 1.8020944444444456  2.688000000000102 0.8346055555555566  C 3.826666666666582 0.7635833333333321  4.955999999999949 1.1558111111111118  5.8146666666666835 1.9247777777777781  L 6.225333333333402 2.291694444444445  C 6.6173333333332565 2.234744444444444  7.018666666666649 2.2048055555555544  7.429333333333367 2.2048055555555544  C 7.886666666666709 2.2048055555555544  8.334666666666726 2.2410722222222232  8.764000000000093 2.3099222222222204  L 9.193333333333248 1.924872222222222  C 10.051999999999982 1.1558111111111118  11.172000000000025 0.7636777777777762  12.320000000000043 0.8347000000000008  C 12.954666666666768 1.8020944444444456  13.178666666666565 2.984538888888889  12.954666666666768 4.121461111111112  L 12.870666666666633 4.513877777777776  C 13.477333333333384 5.258572222222224  13.822666666666617 6.1370000000000005  13.822666666666617 7.077572222222223  C 13.822666666666617 8.707211111111112  12.777333333333385 10.149944444444445  11.1626666666667 11.034605555555556  C 10.826666666666583 11.21811111111111  10.472000000000024 11.377627777777779  10.089333333333283 11.509755555555554  C 10.220000000000041 11.74633888888889  10.31333333333329 12.004550000000004  10.35066666666659 12.27324444444444  C 10.369333333333241 12.39706111111111  10.388000000000103 12.523144444444444  10.388000000000103 12.650361111111112  L 10.388000000000103 16.17361111111111  Z M 7.429333333333367 3.3853611111111097  C 7.0746666666666 3.3853611111111097  6.729333333333367 3.411238888888888  6.393333333333248 3.460255555555554  L 5.8519999999999825 3.5381722222222236  L 5.040000000000084 2.8087777777777783  C 4.573333333333418 2.386044444444443  3.9853333333333163 2.119333333333333  3.3693333333332403 2.035466666666667  C 3.135999999999907 2.616961111111112  3.0706666666666327 3.260788888888889  3.201333333333393 3.885822222222222  L 3.3693333333332403 4.721561111111113  L 2.9773333333333842 5.162427777777779  C 2.4640000000000937 5.751949999999999  2.2026666666665733 6.409472222222223  2.2026666666665733 7.077572222222223  C 2.2026666666665733 8.374105555555557  3.248000000000017 9.736655555555553  5.179999999999957 10.40258333333333  L 6.44933333333341 10.840900000000001  L 5.842666666666658 12.054133333333331  C 5.758666666666734 12.217616666666668  5.721333333333435 12.399988888888885  5.721333333333435 12.588027777777775  L 5.721333333333435 14.993055555555555  L 9.221333333333435 14.993055555555555  L 9.221333333333435 12.650361111111112  C 9.221333333333435 12.44872222222222  9.165333333333274 12.25293888888889  9.072000000000026 12.080011111111109  L 8.4 10.851572222222222  L 9.716000000000077 10.393800000000002  C 11.629333333333367 9.723999999999998  12.655999999999949 8.368344444444446  12.655999999999949 7.077572222222223  C 12.655999999999949 6.4464000000000015  12.431999999999942 5.826844444444443  11.974666666666598 5.264049999999998  L 11.620000000000044 4.829605555555557  L 11.806666666666752 3.8859166666666662  C 11.9373333333333 3.260883333333333  11.872000000000027 2.6170555555555564  11.629333333333367 2.0355611111111114  C 11.013333333333291 2.119333333333333  10.434666666666727 2.3861388888888877  9.96800000000006 2.8088722222222224  L 9.11866666666665 3.5633888888888885  L 8.577333333333385 3.4758388888888883  C 8.213333333333292 3.41681111111111  7.83066666666676 3.3853611111111097  7.429333333333367 3.3853611111111097  Z " fill-rule="nonzero" fill="rgba(0, 0, 0, 0.8980392156862745)" stroke="none" transform="matrix(1 0 0 1 1802 17 )" class="fill" />
    <path d="M 10.388000000000103 16.17361111111111  L 4.554666666666769 16.17361111111111  L 4.554666666666769 14.041716666666666  L 3.4906666666666752 14.041716666666666  C 2.6506666666665906 14.041716666666666  1.96933333333324 13.349533333333332  1.96933333333324 12.49566111111111  C 1.96933333333324 12.196083333333332  1.7266666666665818 11.953077777777775  1.4279999999999744 11.953077777777775  L 0.5786666666665647 11.953077777777775  L 0.5786666666665647 10.949700000000002  L 1.4279999999999744 10.949700000000002  C 1.4933333333332486 10.949700000000002  1.5586666666667346 10.953855555555554  1.6240000000000085 10.961883333333331  C 1.661333333333308 10.967172222222219  1.7079999999999322 10.974066666666666  1.7453333333332315 10.982472222222224  C 2.2400000000000846 11.08692777777778  2.6413333333332654 11.431744444444442  2.8373333333332993 11.890272222222222  C 2.9119999999998982 12.076233333333334  2.9586666666667343 12.2808  2.9586666666667343 12.49566111111111  C 2.9586666666667343 12.75736666666667  3.135999999999907 12.975816666666667  3.3880000000001016 13.02691111111111  C 3.4160000000000763 13.03437222222222  3.4533333333333758 13.038244444444443  3.4906666666666752 13.038244444444443  L 4.554666666666769 13.038244444444443  L 4.554666666666769 12.588027777777775  C 4.554666666666769 12.439655555555554  4.564000000000093 12.292983333333334  4.592000000000068 12.149616666666667  C 4.629333333333367 11.929844444444443  4.703999999999966 11.718005555555555  4.806666666666751 11.520238888888885  C 4.424000000000008 11.389905555555554  4.06933333333324 11.232277777777778  3.7333333333333334 11.050755555555558  L 3.7053333333333587 11.03743888888889  C 3.1266666666665817 10.719538888888888  2.6133333333332907 10.329294444444445  2.2026666666665733 9.88398888888889  C 1.4746666666665986 9.090655555555553  1.0359999999999068 8.122505555555556  1.0359999999999068 7.077572222222223  C 1.0359999999999068 6.080238888888887  1.4279999999999744 5.152794444444444  2.109333333333325 4.380522222222223  L 2.053333333333376 4.121366666666668  C 1.8293333333333672 2.9844444444444447  2.053333333333376 1.8020944444444456  2.688000000000102 0.8346055555555566  C 3.826666666666582 0.7635833333333321  4.955999999999949 1.1558111111111118  5.8146666666666835 1.9247777777777781  L 6.225333333333402 2.291694444444445  C 6.6173333333332565 2.234744444444444  7.018666666666649 2.2048055555555544  7.429333333333367 2.2048055555555544  C 7.886666666666709 2.2048055555555544  8.334666666666726 2.2410722222222232  8.764000000000093 2.3099222222222204  L 9.193333333333248 1.924872222222222  C 10.051999999999982 1.1558111111111118  11.172000000000025 0.7636777777777762  12.320000000000043 0.8347000000000008  C 12.954666666666768 1.8020944444444456  13.178666666666565 2.984538888888889  12.954666666666768 4.121461111111112  L 12.870666666666633 4.513877777777776  C 13.477333333333384 5.258572222222224  13.822666666666617 6.1370000000000005  13.822666666666617 7.077572222222223  C 13.822666666666617 8.707211111111112  12.777333333333385 10.149944444444445  11.1626666666667 11.034605555555556  C 10.826666666666583 11.21811111111111  10.472000000000024 11.377627777777779  10.089333333333283 11.509755555555554  C 10.220000000000041 11.74633888888889  10.31333333333329 12.004550000000004  10.35066666666659 12.27324444444444  C 10.369333333333241 12.39706111111111  10.388000000000103 12.523144444444444  10.388000000000103 12.650361111111112  L 10.388000000000103 16.17361111111111  Z " stroke-width="0" stroke-dasharray="0" stroke="rgba(255, 255, 255, 0)" fill="none" transform="matrix(1 0 0 1 1802 17 )" class="stroke" mask="url(#Clip795)" />
    <path d="M 7.429333333333367 3.3853611111111097  C 7.0746666666666 3.3853611111111097  6.729333333333367 3.411238888888888  6.393333333333248 3.460255555555554  L 5.8519999999999825 3.5381722222222236  L 5.040000000000084 2.8087777777777783  C 4.573333333333418 2.386044444444443  3.9853333333333163 2.119333333333333  3.3693333333332403 2.035466666666667  C 3.135999999999907 2.616961111111112  3.0706666666666327 3.260788888888889  3.201333333333393 3.885822222222222  L 3.3693333333332403 4.721561111111113  L 2.9773333333333842 5.162427777777779  C 2.4640000000000937 5.751949999999999  2.2026666666665733 6.409472222222223  2.2026666666665733 7.077572222222223  C 2.2026666666665733 8.374105555555557  3.248000000000017 9.736655555555553  5.179999999999957 10.40258333333333  L 6.44933333333341 10.840900000000001  L 5.842666666666658 12.054133333333331  C 5.758666666666734 12.217616666666668  5.721333333333435 12.399988888888885  5.721333333333435 12.588027777777775  L 5.721333333333435 14.993055555555555  L 9.221333333333435 14.993055555555555  L 9.221333333333435 12.650361111111112  C 9.221333333333435 12.44872222222222  9.165333333333274 12.25293888888889  9.072000000000026 12.080011111111109  L 8.4 10.851572222222222  L 9.716000000000077 10.393800000000002  C 11.629333333333367 9.723999999999998  12.655999999999949 8.368344444444446  12.655999999999949 7.077572222222223  C 12.655999999999949 6.4464000000000015  12.431999999999942 5.826844444444443  11.974666666666598 5.264049999999998  L 11.620000000000044 4.829605555555557  L 11.806666666666752 3.8859166666666662  C 11.9373333333333 3.260883333333333  11.872000000000027 2.6170555555555564  11.629333333333367 2.0355611111111114  C 11.013333333333291 2.119333333333333  10.434666666666727 2.3861388888888877  9.96800000000006 2.8088722222222224  L 9.11866666666665 3.5633888888888885  L 8.577333333333385 3.4758388888888883  C 8.213333333333292 3.41681111111111  7.83066666666676 3.3853611111111097  7.429333333333367 3.3853611111111097  Z " stroke-width="0" stroke-dasharray="0" stroke="rgba(255, 255, 255, 0)" fill="none" transform="matrix(1 0 0 1 1802 17 )" class="stroke" mask="url(#Clip795)" />
  </g>
</svg>