<?xml version="1.0" encoding="utf-8"?>
<svg version="1.1" xmlns:xlink="http://www.w3.org/1999/xlink" width="8px" height="9px" xmlns="http://www.w3.org/2000/svg">
  <defs>
    <pattern id="BGPattern" patternUnits="userSpaceOnUse" alignment="0 0" imageRepeat="None" />
    <mask fill="white" id="Clip90">
      <path d="M 0.5299999999999727 4.246874999999998  C 0.5299999999999727 6.405974999999998  2.0799999999999272 8.15625  4 8.15625  C 5.920000000000073 8.15625  7.470000000000027 6.405974999999998  7.470000000000027 4.246874999999998  C 7.470000000000027 2.0877749999999984  5.920000000000073 0.3375000000000008  4 0.3375000000000008  C 2.0799999999999272 0.3375000000000008  0.5299999999999727 2.0877749999999984  0.5299999999999727 4.246874999999998  Z M 6.220000000000027 4.246874999999998  C 6.220000000000027 5.629274999999998  5.230000000000018 6.75  4 6.75  C 2.769999999999982 6.75  1.7799999999999727 5.629274999999998  1.7799999999999727 4.246874999999998  C 1.7799999999999727 2.8644749999999988  2.769999999999982 1.7437500000000008  4 1.7437500000000008  C 5.230000000000018 1.7437500000000008  6.220000000000027 2.8644749999999988  6.220000000000027 4.246874999999998  Z " fill-rule="evenodd" />
    </mask>
  </defs>
  <g transform="matrix(1 0 0 1 -1470 -30 )">
    <path d="M 0.5299999999999727 4.246874999999998  C 0.5299999999999727 6.405974999999998  2.0799999999999272 8.15625  4 8.15625  C 5.920000000000073 8.15625  7.470000000000027 6.405974999999998  7.470000000000027 4.246874999999998  C 7.470000000000027 2.0877749999999984  5.920000000000073 0.3375000000000008  4 0.3375000000000008  C 2.0799999999999272 0.3375000000000008  0.5299999999999727 2.0877749999999984  0.5299999999999727 4.246874999999998  Z M 6.220000000000027 4.246874999999998  C 6.220000000000027 5.629274999999998  5.230000000000018 6.75  4 6.75  C 2.769999999999982 6.75  1.7799999999999727 5.629274999999998  1.7799999999999727 4.246874999999998  C 1.7799999999999727 2.8644749999999988  2.769999999999982 1.7437500000000008  4 1.7437500000000008  C 5.230000000000018 1.7437500000000008  6.220000000000027 2.8644749999999988  6.220000000000027 4.246874999999998  Z " fill-rule="nonzero" fill="rgba(0, 0, 0, 1)" stroke="none" transform="matrix(1 0 0 1 1470 30 )" class="fill" />
    <path d="M 0.5299999999999727 4.246874999999998  C 0.5299999999999727 6.405974999999998  2.0799999999999272 8.15625  4 8.15625  C 5.920000000000073 8.15625  7.470000000000027 6.405974999999998  7.470000000000027 4.246874999999998  C 7.470000000000027 2.0877749999999984  5.920000000000073 0.3375000000000008  4 0.3375000000000008  C 2.0799999999999272 0.3375000000000008  0.5299999999999727 2.0877749999999984  0.5299999999999727 4.246874999999998  Z " stroke-width="0" stroke-dasharray="0" stroke="rgba(255, 255, 255, 0)" fill="none" transform="matrix(1 0 0 1 1470 30 )" class="stroke" mask="url(#Clip90)" />
    <path d="M 6.220000000000027 4.246874999999998  C 6.220000000000027 5.629274999999998  5.230000000000018 6.75  4 6.75  C 2.769999999999982 6.75  1.7799999999999727 5.629274999999998  1.7799999999999727 4.246874999999998  C 1.7799999999999727 2.8644749999999988  2.769999999999982 1.7437500000000008  4 1.7437500000000008  C 5.230000000000018 1.7437500000000008  6.220000000000027 2.8644749999999988  6.220000000000027 4.246874999999998  Z " stroke-width="0" stroke-dasharray="0" stroke="rgba(255, 255, 255, 0)" fill="none" transform="matrix(1 0 0 1 1470 30 )" class="stroke" mask="url(#Clip90)" />
  </g>
</svg>