<?xml version="1.0" encoding="utf-8"?>
<svg version="1.1" xmlns:xlink="http://www.w3.org/1999/xlink" width="18px" height="21px" xmlns="http://www.w3.org/2000/svg">
  <defs>
    <pattern id="BGPattern" patternUnits="userSpaceOnUse" alignment="0 0" imageRepeat="None" />
    <mask fill="white" id="Clip522">
      <path d="M 0.25 10.5  C 0.25 16.137916666666673  4.170000000000073 20.708333333333336  9 20.708333333333336  C 13.829999999999927 20.708333333333336  17.75 16.137916666666673  17.75 10.5  C 17.75 4.8620833333333335  13.829999999999927 0.29166666666666663  9 0.29166666666666663  C 4.170000000000073 0.29166666666666663  0.25 4.8620833333333335  0.25 10.5  Z M 16.5 10.5  C 16.5 12.293283333333335  16.039999999999964 13.960566666666667  15.240000000000009 15.348316666666669  C 13.339999999999918 14.11153333333333  11.230000000000018 13.416666666666666  9 13.416666666666666  C 6.769999999999982 13.416666666666666  4.660000000000082 14.11153333333333  2.759999999999991 15.348316666666669  C 1.9600000000000364 13.960449999999996  1.5 12.293283333333335  1.5 10.5  C 1.5 5.66755  4.8599999999999 1.75  9 1.75  C 13.1400000000001 1.75  16.5 5.66755  16.5 10.5  Z M 9 14.875  C 10.930000000000064 14.875  12.769999999999982 15.454833333333333  14.450000000000045 16.506233333333334  C 13.089999999999918 18.195683333333335  11.150000000000091 19.25  9 19.25  C 6.849999999999909 19.25  4.910000000000082 18.195683333333335  3.5499999999999545 16.506233333333334  C 5.230000000000018 15.454833333333333  7.069999999999936 14.875  9 14.875  Z " fill-rule="evenodd" />
    </mask>
  </defs>
  <g transform="matrix(1 0 0 1 -1465 -27 )">
    <path d="M 0.25 10.5  C 0.25 16.137916666666673  4.170000000000073 20.708333333333336  9 20.708333333333336  C 13.829999999999927 20.708333333333336  17.75 16.137916666666673  17.75 10.5  C 17.75 4.8620833333333335  13.829999999999927 0.29166666666666663  9 0.29166666666666663  C 4.170000000000073 0.29166666666666663  0.25 4.8620833333333335  0.25 10.5  Z M 16.5 10.5  C 16.5 12.293283333333335  16.039999999999964 13.960566666666667  15.240000000000009 15.348316666666669  C 13.339999999999918 14.11153333333333  11.230000000000018 13.416666666666666  9 13.416666666666666  C 6.769999999999982 13.416666666666666  4.660000000000082 14.11153333333333  2.759999999999991 15.348316666666669  C 1.9600000000000364 13.960449999999996  1.5 12.293283333333335  1.5 10.5  C 1.5 5.66755  4.8599999999999 1.75  9 1.75  C 13.1400000000001 1.75  16.5 5.66755  16.5 10.5  Z M 9 14.875  C 10.930000000000064 14.875  12.769999999999982 15.454833333333333  14.450000000000045 16.506233333333334  C 13.089999999999918 18.195683333333335  11.150000000000091 19.25  9 19.25  C 6.849999999999909 19.25  4.910000000000082 18.195683333333335  3.5499999999999545 16.506233333333334  C 5.230000000000018 15.454833333333333  7.069999999999936 14.875  9 14.875  Z " fill-rule="nonzero" fill="rgba(0, 0, 0, 1)" stroke="none" transform="matrix(1 0 0 1 1465 27 )" class="fill" />
    <path d="M 0.25 10.5  C 0.25 16.137916666666673  4.170000000000073 20.708333333333336  9 20.708333333333336  C 13.829999999999927 20.708333333333336  17.75 16.137916666666673  17.75 10.5  C 17.75 4.8620833333333335  13.829999999999927 0.29166666666666663  9 0.29166666666666663  C 4.170000000000073 0.29166666666666663  0.25 4.8620833333333335  0.25 10.5  Z " stroke-width="0" stroke-dasharray="0" stroke="rgba(255, 255, 255, 0)" fill="none" transform="matrix(1 0 0 1 1465 27 )" class="stroke" mask="url(#Clip522)" />
    <path d="M 16.5 10.5  C 16.5 12.293283333333335  16.039999999999964 13.960566666666667  15.240000000000009 15.348316666666669  C 13.339999999999918 14.11153333333333  11.230000000000018 13.416666666666666  9 13.416666666666666  C 6.769999999999982 13.416666666666666  4.660000000000082 14.11153333333333  2.759999999999991 15.348316666666669  C 1.9600000000000364 13.960449999999996  1.5 12.293283333333335  1.5 10.5  C 1.5 5.66755  4.8599999999999 1.75  9 1.75  C 13.1400000000001 1.75  16.5 5.66755  16.5 10.5  Z " stroke-width="0" stroke-dasharray="0" stroke="rgba(255, 255, 255, 0)" fill="none" transform="matrix(1 0 0 1 1465 27 )" class="stroke" mask="url(#Clip522)" />
    <path d="M 9 14.875  C 10.930000000000064 14.875  12.769999999999982 15.454833333333333  14.450000000000045 16.506233333333334  C 13.089999999999918 18.195683333333335  11.150000000000091 19.25  9 19.25  C 6.849999999999909 19.25  4.910000000000082 18.195683333333335  3.5499999999999545 16.506233333333334  C 5.230000000000018 15.454833333333333  7.069999999999936 14.875  9 14.875  Z " stroke-width="0" stroke-dasharray="0" stroke="rgba(255, 255, 255, 0)" fill="none" transform="matrix(1 0 0 1 1465 27 )" class="stroke" mask="url(#Clip522)" />
  </g>
</svg>