<?xml version="1.0" encoding="utf-8"?>
<svg version="1.1" xmlns:xlink="http://www.w3.org/1999/xlink" width="15px" height="15px" xmlns="http://www.w3.org/2000/svg">
  <defs>
    <pattern id="BGPattern" patternUnits="userSpaceOnUse" alignment="0 0" imageRepeat="None" />
    <mask fill="white" id="Clip798">
      <path d="M 0.46875 13.359375  L 0.46875 1.640625  C 0.46875 0.9933749999999997  0.9937499999999488 0.46875  1.640625 0.46875  L 13.359375 0.46875  C 14.006250000000051 0.46875  14.53125 0.9933749999999997  14.53125 1.640625  L 14.53125 13.359375  C 14.53125 14.006624999999996  14.006250000000051 14.53125  13.359375 14.53125  L 1.640625 14.53125  C 0.9937499999999488 14.53125  0.46875 14.006624999999996  0.46875 13.359375  Z M 13.359375 1.640625  L 1.640625 1.640625  L 1.640625 4  L 13.359375 4  L 13.359375 1.640625  Z M 13.359375 5.15625  L 1.640625 5.15625  L 1.640625 13.359375  L 13.359375 13.359375  L 13.359375 5.15625  Z " fill-rule="evenodd" />
    </mask>
  </defs>
  <g transform="matrix(1 0 0 1 -1758 -18 )">
    <path d="M 0.46875 13.359375  L 0.46875 1.640625  C 0.46875 0.9933749999999997  0.9937499999999488 0.46875  1.640625 0.46875  L 13.359375 0.46875  C 14.006250000000051 0.46875  14.53125 0.9933749999999997  14.53125 1.640625  L 14.53125 13.359375  C 14.53125 14.006624999999996  14.006250000000051 14.53125  13.359375 14.53125  L 1.640625 14.53125  C 0.9937499999999488 14.53125  0.46875 14.006624999999996  0.46875 13.359375  Z M 13.359375 1.640625  L 1.640625 1.640625  L 1.640625 4  L 13.359375 4  L 13.359375 1.640625  Z M 13.359375 5.15625  L 1.640625 5.15625  L 1.640625 13.359375  L 13.359375 13.359375  L 13.359375 5.15625  Z " fill-rule="nonzero" fill="rgba(0, 0, 0, 0.8980392156862745)" stroke="none" transform="matrix(1 0 0 1 1758 18 )" class="fill" />
    <path d="M 0.46875 13.359375  L 0.46875 1.640625  C 0.46875 0.9933749999999997  0.9937499999999488 0.46875  1.640625 0.46875  L 13.359375 0.46875  C 14.006250000000051 0.46875  14.53125 0.9933749999999997  14.53125 1.640625  L 14.53125 13.359375  C 14.53125 14.006624999999996  14.006250000000051 14.53125  13.359375 14.53125  L 1.640625 14.53125  C 0.9937499999999488 14.53125  0.46875 14.006624999999996  0.46875 13.359375  Z " stroke-width="0" stroke-dasharray="0" stroke="rgba(255, 255, 255, 0)" fill="none" transform="matrix(1 0 0 1 1758 18 )" class="stroke" mask="url(#Clip798)" />
    <path d="M 13.359375 1.640625  L 1.640625 1.640625  L 1.640625 4  L 13.359375 4  L 13.359375 1.640625  Z " stroke-width="0" stroke-dasharray="0" stroke="rgba(255, 255, 255, 0)" fill="none" transform="matrix(1 0 0 1 1758 18 )" class="stroke" mask="url(#Clip798)" />
    <path d="M 13.359375 5.15625  L 1.640625 5.15625  L 1.640625 13.359375  L 13.359375 13.359375  L 13.359375 5.15625  Z " stroke-width="0" stroke-dasharray="0" stroke="rgba(255, 255, 255, 0)" fill="none" transform="matrix(1 0 0 1 1758 18 )" class="stroke" mask="url(#Clip798)" />
  </g>
</svg>