<?xml version="1.0" encoding="utf-8"?>
<svg version="1.1" xmlns:xlink="http://www.w3.org/1999/xlink" width="16px" height="19px" xmlns="http://www.w3.org/2000/svg">
  <defs>
    <pattern id="BGPattern" patternUnits="userSpaceOnUse" alignment="0 0" imageRepeat="None" />
    <mask fill="white" id="Clip93">
      <path d="M 0.33777777777787477 9.631944444444445  L 0.33777777777787477 9.368055555555555  C 0.33777777777787477 4.340022222222221  3.768888888888897 0.2639944444444442  8 0.2638888888888889  C 12.231111111111103 0.2638888888888889  15.671111111111209 4.3399166666666655  15.671111111111209 9.368055555555555  L 15.671111111111209 9.631944444444445  C 15.671111111111209 14.660083333333334  12.231111111111103 18.73611111111111  8 18.73611111111111  C 3.768888888888897 18.73600555555555  0.33777777777787477 14.659977777777774  0.33777777777787477 9.631944444444445  Z M 9.031111111111183 17.3204  C 12.017777777777761 16.758527777777775  14.337777777777875 13.802127777777775  14.542222222222133 10.159722222222221  L 11.2088888888888 10.159722222222221  C 11.102222222222231 12.691683333333332  10.373333333333399 15.193772222222224  9.031111111111183 17.3204  Z M 9.031111111111183 1.6796000000000006  C 10.373333333333399 3.806227777777776  11.102222222222231 6.308316666666665  11.2088888888888 8.840277777777779  L 14.542222222222133 8.840277777777779  C 14.337777777777875 5.197872222222221  12.017777777777761 2.241472222222222  9.031111111111183 1.6796000000000006  Z M 5.902222222222311 8.840277777777779  L 10.097777777777688 8.840277777777779  C 9.982222222222239 6.4978944444444435  9.288888888888929 4.187283333333332  8 2.2470666666666648  C 6.71111111111107 4.187283333333332  6.017777777777762 6.4978944444444435  5.902222222222311 8.840277777777779  Z M 6.9688888888888165 17.320294444444446  C 5.626666666666602 15.193666666666664  4.89777777777777 12.691683333333332  4.7911111111112 10.159722222222221  L 1.4577777777778667 10.159722222222221  C 1.6622222222221252 13.802022222222224  3.9822222222222385 16.758316666666666  6.9688888888888165 17.320294444444446  Z M 1.4577777777778667 8.840277777777779  L 4.7911111111112 8.840277777777779  C 4.89777777777777 6.308316666666665  5.626666666666602 3.806333333333335  6.9688888888888165 1.6797055555555558  C 3.9822222222222385 2.2416833333333326  1.6622222222221252 5.197977777777776  1.4577777777778667 8.840277777777779  Z M 8 16.752933333333335  C 9.288888888888929 14.812716666666663  9.982222222222239 12.502105555555552  10.097777777777688 10.159722222222221  L 5.902222222222311 10.159722222222221  C 6.017777777777762 12.502105555555552  6.71111111111107 14.812716666666663  8 16.752933333333335  Z " fill-rule="evenodd" />
    </mask>
  </defs>
  <g transform="matrix(1 0 0 1 -1642 -26 )">
    <path d="M 0.33777777777787477 9.631944444444445  L 0.33777777777787477 9.368055555555555  C 0.33777777777787477 4.340022222222221  3.768888888888897 0.2639944444444442  8 0.2638888888888889  C 12.231111111111103 0.2638888888888889  15.671111111111209 4.3399166666666655  15.671111111111209 9.368055555555555  L 15.671111111111209 9.631944444444445  C 15.671111111111209 14.660083333333334  12.231111111111103 18.73611111111111  8 18.73611111111111  C 3.768888888888897 18.73600555555555  0.33777777777787477 14.659977777777774  0.33777777777787477 9.631944444444445  Z M 9.031111111111183 17.3204  C 12.017777777777761 16.758527777777775  14.337777777777875 13.802127777777775  14.542222222222133 10.159722222222221  L 11.2088888888888 10.159722222222221  C 11.102222222222231 12.691683333333332  10.373333333333399 15.193772222222224  9.031111111111183 17.3204  Z M 9.031111111111183 1.6796000000000006  C 10.373333333333399 3.806227777777776  11.102222222222231 6.308316666666665  11.2088888888888 8.840277777777779  L 14.542222222222133 8.840277777777779  C 14.337777777777875 5.197872222222221  12.017777777777761 2.241472222222222  9.031111111111183 1.6796000000000006  Z M 5.902222222222311 8.840277777777779  L 10.097777777777688 8.840277777777779  C 9.982222222222239 6.4978944444444435  9.288888888888929 4.187283333333332  8 2.2470666666666648  C 6.71111111111107 4.187283333333332  6.017777777777762 6.4978944444444435  5.902222222222311 8.840277777777779  Z M 6.9688888888888165 17.320294444444446  C 5.626666666666602 15.193666666666664  4.89777777777777 12.691683333333332  4.7911111111112 10.159722222222221  L 1.4577777777778667 10.159722222222221  C 1.6622222222221252 13.802022222222224  3.9822222222222385 16.758316666666666  6.9688888888888165 17.320294444444446  Z M 1.4577777777778667 8.840277777777779  L 4.7911111111112 8.840277777777779  C 4.89777777777777 6.308316666666665  5.626666666666602 3.806333333333335  6.9688888888888165 1.6797055555555558  C 3.9822222222222385 2.2416833333333326  1.6622222222221252 5.197977777777776  1.4577777777778667 8.840277777777779  Z M 8 16.752933333333335  C 9.288888888888929 14.812716666666663  9.982222222222239 12.502105555555552  10.097777777777688 10.159722222222221  L 5.902222222222311 10.159722222222221  C 6.017777777777762 12.502105555555552  6.71111111111107 14.812716666666663  8 16.752933333333335  Z " fill-rule="nonzero" fill="rgba(0, 0, 0, 0.8980392156862745)" stroke="none" transform="matrix(1 0 0 1 1642 26 )" class="fill" />
    <path d="M 0.33777777777787477 9.631944444444445  L 0.33777777777787477 9.368055555555555  C 0.33777777777787477 4.340022222222221  3.768888888888897 0.2639944444444442  8 0.2638888888888889  C 12.231111111111103 0.2638888888888889  15.671111111111209 4.3399166666666655  15.671111111111209 9.368055555555555  L 15.671111111111209 9.631944444444445  C 15.671111111111209 14.660083333333334  12.231111111111103 18.73611111111111  8 18.73611111111111  C 3.768888888888897 18.73600555555555  0.33777777777787477 14.659977777777774  0.33777777777787477 9.631944444444445  Z " stroke-width="0" stroke-dasharray="0" stroke="rgba(255, 255, 255, 0)" fill="none" transform="matrix(1 0 0 1 1642 26 )" class="stroke" mask="url(#Clip93)" />
    <path d="M 9.031111111111183 17.3204  C 12.017777777777761 16.758527777777775  14.337777777777875 13.802127777777775  14.542222222222133 10.159722222222221  L 11.2088888888888 10.159722222222221  C 11.102222222222231 12.691683333333332  10.373333333333399 15.193772222222224  9.031111111111183 17.3204  Z " stroke-width="0" stroke-dasharray="0" stroke="rgba(255, 255, 255, 0)" fill="none" transform="matrix(1 0 0 1 1642 26 )" class="stroke" mask="url(#Clip93)" />
    <path d="M 9.031111111111183 1.6796000000000006  C 10.373333333333399 3.806227777777776  11.102222222222231 6.308316666666665  11.2088888888888 8.840277777777779  L 14.542222222222133 8.840277777777779  C 14.337777777777875 5.197872222222221  12.017777777777761 2.241472222222222  9.031111111111183 1.6796000000000006  Z " stroke-width="0" stroke-dasharray="0" stroke="rgba(255, 255, 255, 0)" fill="none" transform="matrix(1 0 0 1 1642 26 )" class="stroke" mask="url(#Clip93)" />
    <path d="M 5.902222222222311 8.840277777777779  L 10.097777777777688 8.840277777777779  C 9.982222222222239 6.4978944444444435  9.288888888888929 4.187283333333332  8 2.2470666666666648  C 6.71111111111107 4.187283333333332  6.017777777777762 6.4978944444444435  5.902222222222311 8.840277777777779  Z " stroke-width="0" stroke-dasharray="0" stroke="rgba(255, 255, 255, 0)" fill="none" transform="matrix(1 0 0 1 1642 26 )" class="stroke" mask="url(#Clip93)" />
    <path d="M 6.9688888888888165 17.320294444444446  C 5.626666666666602 15.193666666666664  4.89777777777777 12.691683333333332  4.7911111111112 10.159722222222221  L 1.4577777777778667 10.159722222222221  C 1.6622222222221252 13.802022222222224  3.9822222222222385 16.758316666666666  6.9688888888888165 17.320294444444446  Z " stroke-width="0" stroke-dasharray="0" stroke="rgba(255, 255, 255, 0)" fill="none" transform="matrix(1 0 0 1 1642 26 )" class="stroke" mask="url(#Clip93)" />
    <path d="M 1.4577777777778667 8.840277777777779  L 4.7911111111112 8.840277777777779  C 4.89777777777777 6.308316666666665  5.626666666666602 3.806333333333335  6.9688888888888165 1.6797055555555558  C 3.9822222222222385 2.2416833333333326  1.6622222222221252 5.197977777777776  1.4577777777778667 8.840277777777779  Z " stroke-width="0" stroke-dasharray="0" stroke="rgba(255, 255, 255, 0)" fill="none" transform="matrix(1 0 0 1 1642 26 )" class="stroke" mask="url(#Clip93)" />
    <path d="M 8 16.752933333333335  C 9.288888888888929 14.812716666666663  9.982222222222239 12.502105555555552  10.097777777777688 10.159722222222221  L 5.902222222222311 10.159722222222221  C 6.017777777777762 12.502105555555552  6.71111111111107 14.812716666666663  8 16.752933333333335  Z " stroke-width="0" stroke-dasharray="0" stroke="rgba(255, 255, 255, 0)" fill="none" transform="matrix(1 0 0 1 1642 26 )" class="stroke" mask="url(#Clip93)" />
  </g>
</svg>