<?xml version="1.0" encoding="utf-8"?>
<svg version="1.1" xmlns:xlink="http://www.w3.org/1999/xlink" width="15px" height="17px" xmlns="http://www.w3.org/2000/svg">
  <defs>
    <pattern id="BGPattern" patternUnits="userSpaceOnUse" alignment="0 0" imageRepeat="None" />
    <mask fill="white" id="Clip801">
      <path d="M 13.67906250000003 16.441975000000003  L 9.547500000000147 11.759749999999993  C 8.59031250000014 12.63854375  7.370625000000038 13.164906249999996  6.042187500000024 13.164906249999996  C 2.9643750000000972 13.164906249999996  0.46875 10.336743750000009  0.46875 6.848131250000002  C 0.46875 3.359412499999998  2.9643750000000972 0.53125  6.042187500000024 0.53125  C 9.120937499999993 0.53125  11.61656250000009 3.359412499999998  11.61656250000009 6.848131250000002  C 11.61656250000009 8.353268749999996  11.151562499999965 9.735474999999996  10.376249999999938 10.820606249999997  L 14.507812500000117 15.502831249999996  L 13.67906250000003 16.441975000000003  Z M 6.042187500000024 11.836781250000007  C 8.47312500000014 11.836781250000007  10.44468750000009 9.603299999999997  10.44468750000009 6.848131250000002  C 10.44468750000009 5.892302850534593  10.207418769847683 4.999269995447804  9.79601345945105 4.24049373824385  C 9.021500076453421 2.812018336847886  7.629812045821065 1.859375  6.042187500000024 1.859375  C 3.6112499999999073 1.859375  1.640625 4.092856249999999  1.640625 6.848131250000002  C 1.640625 9.603299999999997  3.6112499999999073 11.836781250000007  6.042187500000024 11.836781250000007  Z " fill-rule="evenodd" />
    </mask>
  </defs>
  <g transform="matrix(1 0 0 1 -425 -18 )">
    <path d="M 13.67906250000003 16.441975000000003  L 9.547500000000147 11.759749999999993  C 8.59031250000014 12.63854375  7.370625000000038 13.164906249999996  6.042187500000024 13.164906249999996  C 2.9643750000000972 13.164906249999996  0.46875 10.336743750000009  0.46875 6.848131250000002  C 0.46875 3.359412499999998  2.9643750000000972 0.53125  6.042187500000024 0.53125  C 9.120937499999993 0.53125  11.61656250000009 3.359412499999998  11.61656250000009 6.848131250000002  C 11.61656250000009 8.353268749999996  11.151562499999965 9.735474999999996  10.376249999999938 10.820606249999997  L 14.507812500000117 15.502831249999996  L 13.67906250000003 16.441975000000003  Z M 6.042187500000024 11.836781250000007  C 8.47312500000014 11.836781250000007  10.44468750000009 9.603299999999997  10.44468750000009 6.848131250000002  C 10.44468750000009 5.892302850534593  10.207418769847683 4.999269995447804  9.79601345945105 4.24049373824385  C 9.021500076453421 2.812018336847886  7.629812045821065 1.859375  6.042187500000024 1.859375  C 3.6112499999999073 1.859375  1.640625 4.092856249999999  1.640625 6.848131250000002  C 1.640625 9.603299999999997  3.6112499999999073 11.836781250000007  6.042187500000024 11.836781250000007  Z " fill-rule="nonzero" fill="rgba(0, 0, 0, 1)" stroke="none" transform="matrix(1 0 0 1 425 18 )" class="fill" />
    <path d="M 13.67906250000003 16.441975000000003  L 9.547500000000147 11.759749999999993  C 8.59031250000014 12.63854375  7.370625000000038 13.164906249999996  6.042187500000024 13.164906249999996  C 2.9643750000000972 13.164906249999996  0.46875 10.336743750000009  0.46875 6.848131250000002  C 0.46875 3.359412499999998  2.9643750000000972 0.53125  6.042187500000024 0.53125  C 9.120937499999993 0.53125  11.61656250000009 3.359412499999998  11.61656250000009 6.848131250000002  C 11.61656250000009 8.353268749999996  11.151562499999965 9.735474999999996  10.376249999999938 10.820606249999997  L 14.507812500000117 15.502831249999996  L 13.67906250000003 16.441975000000003  Z " stroke-width="0" stroke-dasharray="0" stroke="rgba(255, 255, 255, 0)" fill="none" transform="matrix(1 0 0 1 425 18 )" class="stroke" mask="url(#Clip801)" />
    <path d="M 6.042187500000024 11.836781250000007  C 8.47312500000014 11.836781250000007  10.44468750000009 9.603299999999997  10.44468750000009 6.848131250000002  C 10.44468750000009 5.892302850534593  10.207418769847683 4.999269995447804  9.79601345945105 4.24049373824385  C 9.021500076453421 2.812018336847886  7.629812045821065 1.859375  6.042187500000024 1.859375  C 3.6112499999999073 1.859375  1.640625 4.092856249999999  1.640625 6.848131250000002  C 1.640625 9.603299999999997  3.6112499999999073 11.836781250000007  6.042187500000024 11.836781250000007  Z " stroke-width="0" stroke-dasharray="0" stroke="rgba(255, 255, 255, 0)" fill="none" transform="matrix(1 0 0 1 425 18 )" class="stroke" mask="url(#Clip801)" />
  </g>
</svg>