<?xml version="1.0" encoding="utf-8"?>
<svg version="1.1" xmlns:xlink="http://www.w3.org/1999/xlink" width="13px" height="19px" xmlns="http://www.w3.org/2000/svg">
  <defs>
    <pattern id="BGPattern" patternUnits="userSpaceOnUse" alignment="0 0" imageRepeat="None" />
    <mask fill="white" id="Clip525">
      <path d="M 9.646000000000095 18.07638888888889  L 4.229333333333428 18.07638888888889  L 4.229333333333428 15.693683333333333  L 3.241333333333341 15.693683333333333  C 2.4613333333332625 15.693683333333333  1.82866666666658 14.920066666666665  1.82866666666658 13.965738888888888  C 1.82866666666658 13.630916666666666  1.6033333333332545 13.35932222222222  1.3259999999999763 13.35932222222222  L 0.5373333333332387 13.35932222222222  L 0.5373333333332387 12.237900000000002  L 1.3259999999999763 12.237900000000002  C 1.3866666666665879 12.237900000000002  1.4473333333333964 12.242544444444443  1.5080000000000078 12.251516666666664  C 1.542666666666643 12.257427777777774  1.585999999999937 12.265133333333333  1.620666666666572 12.274527777777779  C 2.0800000000000787 12.391272222222224  2.4526666666666035 12.776655555555553  2.6346666666666354 13.289127777777777  C 2.703999999999905 13.496966666666667  2.7473333333333962 13.725599999999998  2.7473333333333962 13.965738888888888  C 2.7473333333333962 14.258233333333337  2.9119999999999133 14.502383333333333  3.1460000000000945 14.559488888888888  C 3.172000000000071 14.567827777777776  3.206666666666706 14.572155555555554  3.241333333333341 14.572155555555554  L 4.229333333333428 14.572155555555554  L 4.229333333333428 14.06897222222222  C 4.229333333333428 13.903144444444441  4.238000000000087 13.739216666666668  4.264000000000063 13.578983333333333  C 4.298666666666699 13.333355555555555  4.367999999999968 13.096594444444444  4.463333333333412 12.875561111111107  C 4.108000000000008 12.729894444444442  3.7786666666665805 12.553722222222222  3.466666666666667 12.350844444444446  L 3.4406666666666905 12.335961111111112  C 2.9033333333332547 11.98066111111111  2.4266666666666272 11.544505555555556  2.0453333333332466 11.046811111111113  C 1.3693333333332702 10.160144444444443  0.9619999999999134 9.078094444444444  0.9619999999999134 7.910227777777778  C 0.9619999999999134 6.79556111111111  1.3259999999999763 5.759005555555555  1.9586666666666588 4.895877777777779  L 1.906666666666706 4.606233333333335  C 1.6986666666666983 3.335555555555556  1.906666666666706 2.014105555555557  2.4960000000000946 0.9327944444444456  C 3.5533333333332546 0.8534166666666653  4.601999999999953 1.2917888888888898  5.399333333333349 2.1512222222222226  L 5.78066666666673 2.561305555555556  C 6.144666666666596 2.497655555555555  6.517333333333317 2.464194444444443  6.898666666666697 2.464194444444443  C 7.323333333333372 2.464194444444443  7.739333333333389 2.504727777777779  8.138000000000087 2.581677777777776  L 8.536666666666589 2.1513277777777775  C 9.333999999999984 1.2917888888888898  10.374000000000024 0.8535222222222205  11.440000000000039 0.9329000000000008  C 12.029333333333428 2.014105555555557  12.237333333333238 3.335661111111111  12.029333333333428 4.6063388888888905  L 11.951333333333302 5.044922222222221  C 12.514666666666715 5.8772277777777795  12.835333333333287 6.859000000000001  12.835333333333287 7.910227777777778  C 12.835333333333287 9.73158888888889  11.864666666666714 11.344055555555556  10.365333333333366 12.332794444444446  C 10.053333333333255 12.537888888888888  9.724000000000023 12.716172222222223  9.36866666666662 12.863844444444442  C 9.49000000000004 13.128261111111112  9.576666666666627 13.416850000000004  9.611333333333262 13.717155555555552  C 9.62866666666658 13.855538888888889  9.646000000000095 13.996455555555555  9.646000000000095 14.13863888888889  L 9.646000000000095 18.07638888888889  Z M 6.898666666666697 3.783638888888887  C 6.569333333333271 3.783638888888887  6.248666666666698 3.8125611111111097  5.936666666666588 3.8673444444444427  L 5.433999999999984 3.9544277777777794  L 4.680000000000079 3.1392222222222226  C 4.246666666666745 2.666755555555554  3.700666666666651 2.3686666666666665  3.12866666666658 2.274933333333334  C 2.9119999999999133 2.9248388888888903  2.8513333333333017 3.6444111111111113  2.9726666666667216 4.342977777777778  L 3.12866666666658 5.277038888888891  L 2.764666666666714 5.769772222222223  C 2.288000000000087 6.428649999999998  2.0453333333332466 7.163527777777778  2.0453333333332466 7.910227777777778  C 2.0453333333332466 9.359294444444446  3.0160000000000156 10.88214444444444  4.8099999999999605 11.626416666666664  L 5.988666666666737 12.1163  L 5.425333333333326 13.472266666666664  C 5.347333333333396 13.654983333333336  5.312666666666761 13.858811111111107  5.312666666666761 14.06897222222222  L 5.312666666666761 16.756944444444443  L 8.562666666666761 16.756944444444443  L 8.562666666666761 14.13863888888889  C 8.562666666666761 13.913277777777774  8.51066666666661 13.694461111111112  8.424000000000023 13.501188888888885  L 7.8 12.128227777777777  L 9.022000000000071 11.616600000000004  C 10.798666666666698 10.867999999999999  11.751999999999953 9.352855555555557  11.751999999999953 7.910227777777778  C 11.751999999999953 7.204800000000001  11.543999999999945 6.512355555555554  11.119333333333271 5.883349999999998  L 10.79000000000004 5.397794444444446  L 10.963333333333411 4.3430833333333325  C 11.084666666666635 3.6445166666666666  11.024000000000024 2.9249444444444452  10.798666666666698 2.275038888888889  C 10.226666666666627 2.3686666666666665  9.689333333333389 2.66686111111111  9.256000000000055 3.139327777777778  L 8.467333333333317 3.9826111111111104  L 7.964666666666715 3.88476111111111  C 7.626666666666628 3.818788888888888  7.27133333333342 3.783638888888887  6.898666666666697 3.783638888888887  Z " fill-rule="evenodd" />
    </mask>
  </defs>
  <g transform="matrix(1 0 0 1 -1727 -26 )">
    <path d="M 9.646000000000095 18.07638888888889  L 4.229333333333428 18.07638888888889  L 4.229333333333428 15.693683333333333  L 3.241333333333341 15.693683333333333  C 2.4613333333332625 15.693683333333333  1.82866666666658 14.920066666666665  1.82866666666658 13.965738888888888  C 1.82866666666658 13.630916666666666  1.6033333333332545 13.35932222222222  1.3259999999999763 13.35932222222222  L 0.5373333333332387 13.35932222222222  L 0.5373333333332387 12.237900000000002  L 1.3259999999999763 12.237900000000002  C 1.3866666666665879 12.237900000000002  1.4473333333333964 12.242544444444443  1.5080000000000078 12.251516666666664  C 1.542666666666643 12.257427777777774  1.585999999999937 12.265133333333333  1.620666666666572 12.274527777777779  C 2.0800000000000787 12.391272222222224  2.4526666666666035 12.776655555555553  2.6346666666666354 13.289127777777777  C 2.703999999999905 13.496966666666667  2.7473333333333962 13.725599999999998  2.7473333333333962 13.965738888888888  C 2.7473333333333962 14.258233333333337  2.9119999999999133 14.502383333333333  3.1460000000000945 14.559488888888888  C 3.172000000000071 14.567827777777776  3.206666666666706 14.572155555555554  3.241333333333341 14.572155555555554  L 4.229333333333428 14.572155555555554  L 4.229333333333428 14.06897222222222  C 4.229333333333428 13.903144444444441  4.238000000000087 13.739216666666668  4.264000000000063 13.578983333333333  C 4.298666666666699 13.333355555555555  4.367999999999968 13.096594444444444  4.463333333333412 12.875561111111107  C 4.108000000000008 12.729894444444442  3.7786666666665805 12.553722222222222  3.466666666666667 12.350844444444446  L 3.4406666666666905 12.335961111111112  C 2.9033333333332547 11.98066111111111  2.4266666666666272 11.544505555555556  2.0453333333332466 11.046811111111113  C 1.3693333333332702 10.160144444444443  0.9619999999999134 9.078094444444444  0.9619999999999134 7.910227777777778  C 0.9619999999999134 6.79556111111111  1.3259999999999763 5.759005555555555  1.9586666666666588 4.895877777777779  L 1.906666666666706 4.606233333333335  C 1.6986666666666983 3.335555555555556  1.906666666666706 2.014105555555557  2.4960000000000946 0.9327944444444456  C 3.5533333333332546 0.8534166666666653  4.601999999999953 1.2917888888888898  5.399333333333349 2.1512222222222226  L 5.78066666666673 2.561305555555556  C 6.144666666666596 2.497655555555555  6.517333333333317 2.464194444444443  6.898666666666697 2.464194444444443  C 7.323333333333372 2.464194444444443  7.739333333333389 2.504727777777779  8.138000000000087 2.581677777777776  L 8.536666666666589 2.1513277777777775  C 9.333999999999984 1.2917888888888898  10.374000000000024 0.8535222222222205  11.440000000000039 0.9329000000000008  C 12.029333333333428 2.014105555555557  12.237333333333238 3.335661111111111  12.029333333333428 4.6063388888888905  L 11.951333333333302 5.044922222222221  C 12.514666666666715 5.8772277777777795  12.835333333333287 6.859000000000001  12.835333333333287 7.910227777777778  C 12.835333333333287 9.73158888888889  11.864666666666714 11.344055555555556  10.365333333333366 12.332794444444446  C 10.053333333333255 12.537888888888888  9.724000000000023 12.716172222222223  9.36866666666662 12.863844444444442  C 9.49000000000004 13.128261111111112  9.576666666666627 13.416850000000004  9.611333333333262 13.717155555555552  C 9.62866666666658 13.855538888888889  9.646000000000095 13.996455555555555  9.646000000000095 14.13863888888889  L 9.646000000000095 18.07638888888889  Z M 6.898666666666697 3.783638888888887  C 6.569333333333271 3.783638888888887  6.248666666666698 3.8125611111111097  5.936666666666588 3.8673444444444427  L 5.433999999999984 3.9544277777777794  L 4.680000000000079 3.1392222222222226  C 4.246666666666745 2.666755555555554  3.700666666666651 2.3686666666666665  3.12866666666658 2.274933333333334  C 2.9119999999999133 2.9248388888888903  2.8513333333333017 3.6444111111111113  2.9726666666667216 4.342977777777778  L 3.12866666666658 5.277038888888891  L 2.764666666666714 5.769772222222223  C 2.288000000000087 6.428649999999998  2.0453333333332466 7.163527777777778  2.0453333333332466 7.910227777777778  C 2.0453333333332466 9.359294444444446  3.0160000000000156 10.88214444444444  4.8099999999999605 11.626416666666664  L 5.988666666666737 12.1163  L 5.425333333333326 13.472266666666664  C 5.347333333333396 13.654983333333336  5.312666666666761 13.858811111111107  5.312666666666761 14.06897222222222  L 5.312666666666761 16.756944444444443  L 8.562666666666761 16.756944444444443  L 8.562666666666761 14.13863888888889  C 8.562666666666761 13.913277777777774  8.51066666666661 13.694461111111112  8.424000000000023 13.501188888888885  L 7.8 12.128227777777777  L 9.022000000000071 11.616600000000004  C 10.798666666666698 10.867999999999999  11.751999999999953 9.352855555555557  11.751999999999953 7.910227777777778  C 11.751999999999953 7.204800000000001  11.543999999999945 6.512355555555554  11.119333333333271 5.883349999999998  L 10.79000000000004 5.397794444444446  L 10.963333333333411 4.3430833333333325  C 11.084666666666635 3.6445166666666666  11.024000000000024 2.9249444444444452  10.798666666666698 2.275038888888889  C 10.226666666666627 2.3686666666666665  9.689333333333389 2.66686111111111  9.256000000000055 3.139327777777778  L 8.467333333333317 3.9826111111111104  L 7.964666666666715 3.88476111111111  C 7.626666666666628 3.818788888888888  7.27133333333342 3.783638888888887  6.898666666666697 3.783638888888887  Z " fill-rule="nonzero" fill="rgba(0, 0, 0, 0.8980392156862745)" stroke="none" transform="matrix(1 0 0 1 1727 26 )" class="fill" />
    <path d="M 9.646000000000095 18.07638888888889  L 4.229333333333428 18.07638888888889  L 4.229333333333428 15.693683333333333  L 3.241333333333341 15.693683333333333  C 2.4613333333332625 15.693683333333333  1.82866666666658 14.920066666666665  1.82866666666658 13.965738888888888  C 1.82866666666658 13.630916666666666  1.6033333333332545 13.35932222222222  1.3259999999999763 13.35932222222222  L 0.5373333333332387 13.35932222222222  L 0.5373333333332387 12.237900000000002  L 1.3259999999999763 12.237900000000002  C 1.3866666666665879 12.237900000000002  1.4473333333333964 12.242544444444443  1.5080000000000078 12.251516666666664  C 1.542666666666643 12.257427777777774  1.585999999999937 12.265133333333333  1.620666666666572 12.274527777777779  C 2.0800000000000787 12.391272222222224  2.4526666666666035 12.776655555555553  2.6346666666666354 13.289127777777777  C 2.703999999999905 13.496966666666667  2.7473333333333962 13.725599999999998  2.7473333333333962 13.965738888888888  C 2.7473333333333962 14.258233333333337  2.9119999999999133 14.502383333333333  3.1460000000000945 14.559488888888888  C 3.172000000000071 14.567827777777776  3.206666666666706 14.572155555555554  3.241333333333341 14.572155555555554  L 4.229333333333428 14.572155555555554  L 4.229333333333428 14.06897222222222  C 4.229333333333428 13.903144444444441  4.238000000000087 13.739216666666668  4.264000000000063 13.578983333333333  C 4.298666666666699 13.333355555555555  4.367999999999968 13.096594444444444  4.463333333333412 12.875561111111107  C 4.108000000000008 12.729894444444442  3.7786666666665805 12.553722222222222  3.466666666666667 12.350844444444446  L 3.4406666666666905 12.335961111111112  C 2.9033333333332547 11.98066111111111  2.4266666666666272 11.544505555555556  2.0453333333332466 11.046811111111113  C 1.3693333333332702 10.160144444444443  0.9619999999999134 9.078094444444444  0.9619999999999134 7.910227777777778  C 0.9619999999999134 6.79556111111111  1.3259999999999763 5.759005555555555  1.9586666666666588 4.895877777777779  L 1.906666666666706 4.606233333333335  C 1.6986666666666983 3.335555555555556  1.906666666666706 2.014105555555557  2.4960000000000946 0.9327944444444456  C 3.5533333333332546 0.8534166666666653  4.601999999999953 1.2917888888888898  5.399333333333349 2.1512222222222226  L 5.78066666666673 2.561305555555556  C 6.144666666666596 2.497655555555555  6.517333333333317 2.464194444444443  6.898666666666697 2.464194444444443  C 7.323333333333372 2.464194444444443  7.739333333333389 2.504727777777779  8.138000000000087 2.581677777777776  L 8.536666666666589 2.1513277777777775  C 9.333999999999984 1.2917888888888898  10.374000000000024 0.8535222222222205  11.440000000000039 0.9329000000000008  C 12.029333333333428 2.014105555555557  12.237333333333238 3.335661111111111  12.029333333333428 4.6063388888888905  L 11.951333333333302 5.044922222222221  C 12.514666666666715 5.8772277777777795  12.835333333333287 6.859000000000001  12.835333333333287 7.910227777777778  C 12.835333333333287 9.73158888888889  11.864666666666714 11.344055555555556  10.365333333333366 12.332794444444446  C 10.053333333333255 12.537888888888888  9.724000000000023 12.716172222222223  9.36866666666662 12.863844444444442  C 9.49000000000004 13.128261111111112  9.576666666666627 13.416850000000004  9.611333333333262 13.717155555555552  C 9.62866666666658 13.855538888888889  9.646000000000095 13.996455555555555  9.646000000000095 14.13863888888889  L 9.646000000000095 18.07638888888889  Z " stroke-width="0" stroke-dasharray="0" stroke="rgba(255, 255, 255, 0)" fill="none" transform="matrix(1 0 0 1 1727 26 )" class="stroke" mask="url(#Clip525)" />
    <path d="M 6.898666666666697 3.783638888888887  C 6.569333333333271 3.783638888888887  6.248666666666698 3.8125611111111097  5.936666666666588 3.8673444444444427  L 5.433999999999984 3.9544277777777794  L 4.680000000000079 3.1392222222222226  C 4.246666666666745 2.666755555555554  3.700666666666651 2.3686666666666665  3.12866666666658 2.274933333333334  C 2.9119999999999133 2.9248388888888903  2.8513333333333017 3.6444111111111113  2.9726666666667216 4.342977777777778  L 3.12866666666658 5.277038888888891  L 2.764666666666714 5.769772222222223  C 2.288000000000087 6.428649999999998  2.0453333333332466 7.163527777777778  2.0453333333332466 7.910227777777778  C 2.0453333333332466 9.359294444444446  3.0160000000000156 10.88214444444444  4.8099999999999605 11.626416666666664  L 5.988666666666737 12.1163  L 5.425333333333326 13.472266666666664  C 5.347333333333396 13.654983333333336  5.312666666666761 13.858811111111107  5.312666666666761 14.06897222222222  L 5.312666666666761 16.756944444444443  L 8.562666666666761 16.756944444444443  L 8.562666666666761 14.13863888888889  C 8.562666666666761 13.913277777777774  8.51066666666661 13.694461111111112  8.424000000000023 13.501188888888885  L 7.8 12.128227777777777  L 9.022000000000071 11.616600000000004  C 10.798666666666698 10.867999999999999  11.751999999999953 9.352855555555557  11.751999999999953 7.910227777777778  C 11.751999999999953 7.204800000000001  11.543999999999945 6.512355555555554  11.119333333333271 5.883349999999998  L 10.79000000000004 5.397794444444446  L 10.963333333333411 4.3430833333333325  C 11.084666666666635 3.6445166666666666  11.024000000000024 2.9249444444444452  10.798666666666698 2.275038888888889  C 10.226666666666627 2.3686666666666665  9.689333333333389 2.66686111111111  9.256000000000055 3.139327777777778  L 8.467333333333317 3.9826111111111104  L 7.964666666666715 3.88476111111111  C 7.626666666666628 3.818788888888888  7.27133333333342 3.783638888888887  6.898666666666697 3.783638888888887  Z " stroke-width="0" stroke-dasharray="0" stroke="rgba(255, 255, 255, 0)" fill="none" transform="matrix(1 0 0 1 1727 26 )" class="stroke" mask="url(#Clip525)" />
  </g>
</svg>