<?xml version="1.0" encoding="utf-8"?>
<svg version="1.1" xmlns:xlink="http://www.w3.org/1999/xlink" width="14px" height="16px" xmlns="http://www.w3.org/2000/svg">
  <defs>
    <pattern id="BGPattern" patternUnits="userSpaceOnUse" alignment="0 0" imageRepeat="None" />
    <mask fill="white" id="Clip528">
      <path d="M 0.4375 14.25  L 0.4375 1.75  C 0.4375 1.0595999999999997  0.9274999999999523 0.5  1.53125 0.5  L 12.46875 0.5  C 13.072500000000048 0.5  13.5625 1.0595999999999997  13.5625 1.75  L 13.5625 14.25  C 13.5625 14.940399999999997  13.072500000000048 15.5  12.46875 15.5  L 1.53125 15.5  C 0.9274999999999523 15.5  0.4375 14.940399999999997  0.4375 14.25  Z M 12.46875 2  L 1.53125 2  L 1.53125 4.25  L 12.46875 4.25  L 12.46875 2  Z M 12.46875 5.5  L 1.53125 5.5  L 1.53125 14  L 12.46875 14  L 12.46875 5.5  Z " fill-rule="evenodd" />
    </mask>
  </defs>
  <g transform="matrix(1 0 0 1 -1685 -27 )">
    <path d="M 0.4375 14.25  L 0.4375 1.75  C 0.4375 1.0595999999999997  0.9274999999999523 0.5  1.53125 0.5  L 12.46875 0.5  C 13.072500000000048 0.5  13.5625 1.0595999999999997  13.5625 1.75  L 13.5625 14.25  C 13.5625 14.940399999999997  13.072500000000048 15.5  12.46875 15.5  L 1.53125 15.5  C 0.9274999999999523 15.5  0.4375 14.940399999999997  0.4375 14.25  Z M 12.46875 2  L 1.53125 2  L 1.53125 4.25  L 12.46875 4.25  L 12.46875 2  Z M 12.46875 5.5  L 1.53125 5.5  L 1.53125 14  L 12.46875 14  L 12.46875 5.5  Z " fill-rule="nonzero" fill="rgba(0, 0, 0, 0.8980392156862745)" stroke="none" transform="matrix(1 0 0 1 1685 27 )" class="fill" />
    <path d="M 0.4375 14.25  L 0.4375 1.75  C 0.4375 1.0595999999999997  0.9274999999999523 0.5  1.53125 0.5  L 12.46875 0.5  C 13.072500000000048 0.5  13.5625 1.0595999999999997  13.5625 1.75  L 13.5625 14.25  C 13.5625 14.940399999999997  13.072500000000048 15.5  12.46875 15.5  L 1.53125 15.5  C 0.9274999999999523 15.5  0.4375 14.940399999999997  0.4375 14.25  Z " stroke-width="0" stroke-dasharray="0" stroke="rgba(255, 255, 255, 0)" fill="none" transform="matrix(1 0 0 1 1685 27 )" class="stroke" mask="url(#Clip528)" />
    <path d="M 12.46875 2  L 1.53125 2  L 1.53125 4.25  L 12.46875 4.25  L 12.46875 2  Z " stroke-width="0" stroke-dasharray="0" stroke="rgba(255, 255, 255, 0)" fill="none" transform="matrix(1 0 0 1 1685 27 )" class="stroke" mask="url(#Clip528)" />
    <path d="M 12.46875 5.5  L 1.53125 5.5  L 1.53125 14  L 12.46875 14  L 12.46875 5.5  Z " stroke-width="0" stroke-dasharray="0" stroke="rgba(255, 255, 255, 0)" fill="none" transform="matrix(1 0 0 1 1685 27 )" class="stroke" mask="url(#Clip528)" />
  </g>
</svg>