<?xml version="1.0" encoding="utf-8"?>
<svg version="1.1" xmlns:xlink="http://www.w3.org/1999/xlink" width="17px" height="21px" xmlns="http://www.w3.org/2000/svg">
  <defs>
    <pattern id="BGPattern" patternUnits="userSpaceOnUse" alignment="0 0" imageRepeat="None" />
    <mask fill="white" id="Clip529">
      <path d="M 0 10.5  C 0 4.70106  3.808000000000016 0  8.5 0  C 13.191999999999986 0  17 4.70106  17 10.5  C 17 16.29894  13.191999999999986 21  8.5 21  C 3.808000000000016 21  0 16.29894  0 10.5  Z " fill-rule="evenodd" />
    </mask>
  </defs>
  <g transform="matrix(1 0 0 1 -1608 -14 )">
    <path d="M 0 10.5  C 0 4.70106  3.808000000000016 0  8.5 0  C 13.191999999999986 0  17 4.70106  17 10.5  C 17 16.29894  13.191999999999986 21  8.5 21  C 3.808000000000016 21  0 16.29894  0 10.5  Z " fill-rule="nonzero" fill="rgba(227, 77, 89, 1)" stroke="none" transform="matrix(1 0 0 1 1608 14 )" class="fill" />
    <path d="M 0 10.5  C 0 4.70106  3.808000000000016 0  8.5 0  C 13.191999999999986 0  17 4.70106  17 10.5  C 17 16.29894  13.191999999999986 21  8.5 21  C 3.808000000000016 21  0 16.29894  0 10.5  Z " stroke-width="0" stroke-dasharray="0" stroke="rgba(255, 255, 255, 0)" fill="none" transform="matrix(1 0 0 1 1608 14 )" class="stroke" mask="url(#Clip529)" />
  </g>
</svg>