<?xml version="1.0" encoding="utf-8"?>
<svg version="1.1" xmlns:xlink="http://www.w3.org/1999/xlink" width="5px" height="9px" xmlns="http://www.w3.org/2000/svg">
  <defs>
    <pattern id="BGPattern" patternUnits="userSpaceOnUse" alignment="0 0" imageRepeat="None" />
    <mask fill="white" id="Clip530">
      <path d="M 4.233333333333273 0.9480000000000004  C 3.7999999999999545 0.4920000000000009  3.2583333333334012 0.26399999999999935  2.599999999999909 0.26399999999999935  C 1.8833333333333258 0.26399999999999935  1.2916666666666288 0.5519999999999996  0.8499999999999848 1.1280000000000001  C 0.4083333333333409 1.6920000000000002  0.18333333333335605 2.460000000000001  0.18333333333335605 3.4200000000000017  L 1.000000000000038 3.4200000000000017  C 1.0083333333333637 2.6640000000000015  1.1583333333334167 2.088000000000001  1.441666666666682 1.7040000000000006  C 1.6999999999999695 1.2959999999999994  2.0833333333333335 1.1039999999999992  2.574999999999932 1.1039999999999992  C 3.0333333333334167 1.1039999999999992  3.399999999999939 1.248000000000001  3.6583333333334167 1.5360000000000014  C 3.92500000000003 1.8240000000000016  4.049999999999916 2.219999999999999  4.049999999999916 2.748000000000001  C 4.049999999999916 3.3000000000000007  3.858333333333424 3.815999999999999  3.500000000000038 4.283999999999999  C 3.3083333333333558 4.524000000000001  2.9416666666666442 4.872  2.38333333333325 5.352  C 1.6250000000000377 5.975999999999999  1.1083333333332728 6.492000000000001  0.8333333333333333 6.876000000000001  C 0.3500000000000606 7.5120000000000005  0.1250000000000758 8.219999999999999  0.1250000000000758 9  L 4.88333333333325 9  L 4.88333333333325 8.123999999999999  L 1.13333333333325 8.123999999999999  C 1.2583333333333258 7.547999999999998  1.7833333333334167 6.888000000000002  2.6916666666666815 6.155999999999999  C 3.433333333333242 5.556000000000001  3.92500000000003 5.088000000000001  4.174999999999993 4.776  C 4.633333333333288 4.175999999999998  4.8749999999999245 3.5040000000000013  4.8749999999999245 2.7600000000000016  C 4.8749999999999245 2.0159999999999982  4.649999999999939 1.404  4.233333333333273 0.9480000000000004  Z " fill-rule="evenodd" />
    </mask>
  </defs>
  <g transform="matrix(1 0 0 1 -1613 -19 )">
    <path d="M 4.233333333333273 0.9480000000000004  C 3.7999999999999545 0.4920000000000009  3.2583333333334012 0.26399999999999935  2.599999999999909 0.26399999999999935  C 1.8833333333333258 0.26399999999999935  1.2916666666666288 0.5519999999999996  0.8499999999999848 1.1280000000000001  C 0.4083333333333409 1.6920000000000002  0.18333333333335605 2.460000000000001  0.18333333333335605 3.4200000000000017  L 1.000000000000038 3.4200000000000017  C 1.0083333333333637 2.6640000000000015  1.1583333333334167 2.088000000000001  1.441666666666682 1.7040000000000006  C 1.6999999999999695 1.2959999999999994  2.0833333333333335 1.1039999999999992  2.574999999999932 1.1039999999999992  C 3.0333333333334167 1.1039999999999992  3.399999999999939 1.248000000000001  3.6583333333334167 1.5360000000000014  C 3.92500000000003 1.8240000000000016  4.049999999999916 2.219999999999999  4.049999999999916 2.748000000000001  C 4.049999999999916 3.3000000000000007  3.858333333333424 3.815999999999999  3.500000000000038 4.283999999999999  C 3.3083333333333558 4.524000000000001  2.9416666666666442 4.872  2.38333333333325 5.352  C 1.6250000000000377 5.975999999999999  1.1083333333332728 6.492000000000001  0.8333333333333333 6.876000000000001  C 0.3500000000000606 7.5120000000000005  0.1250000000000758 8.219999999999999  0.1250000000000758 9  L 4.88333333333325 9  L 4.88333333333325 8.123999999999999  L 1.13333333333325 8.123999999999999  C 1.2583333333333258 7.547999999999998  1.7833333333334167 6.888000000000002  2.6916666666666815 6.155999999999999  C 3.433333333333242 5.556000000000001  3.92500000000003 5.088000000000001  4.174999999999993 4.776  C 4.633333333333288 4.175999999999998  4.8749999999999245 3.5040000000000013  4.8749999999999245 2.7600000000000016  C 4.8749999999999245 2.0159999999999982  4.649999999999939 1.404  4.233333333333273 0.9480000000000004  Z " fill-rule="nonzero" fill="rgba(255, 255, 255, 1)" stroke="none" transform="matrix(1 0 0 1 1613 19 )" class="fill" />
    <path d="M 4.233333333333273 0.9480000000000004  C 3.7999999999999545 0.4920000000000009  3.2583333333334012 0.26399999999999935  2.599999999999909 0.26399999999999935  C 1.8833333333333258 0.26399999999999935  1.2916666666666288 0.5519999999999996  0.8499999999999848 1.1280000000000001  C 0.4083333333333409 1.6920000000000002  0.18333333333335605 2.460000000000001  0.18333333333335605 3.4200000000000017  L 1.000000000000038 3.4200000000000017  C 1.0083333333333637 2.6640000000000015  1.1583333333334167 2.088000000000001  1.441666666666682 1.7040000000000006  C 1.6999999999999695 1.2959999999999994  2.0833333333333335 1.1039999999999992  2.574999999999932 1.1039999999999992  C 3.0333333333334167 1.1039999999999992  3.399999999999939 1.248000000000001  3.6583333333334167 1.5360000000000014  C 3.92500000000003 1.8240000000000016  4.049999999999916 2.219999999999999  4.049999999999916 2.748000000000001  C 4.049999999999916 3.3000000000000007  3.858333333333424 3.815999999999999  3.500000000000038 4.283999999999999  C 3.3083333333333558 4.524000000000001  2.9416666666666442 4.872  2.38333333333325 5.352  C 1.6250000000000377 5.975999999999999  1.1083333333332728 6.492000000000001  0.8333333333333333 6.876000000000001  C 0.3500000000000606 7.5120000000000005  0.1250000000000758 8.219999999999999  0.1250000000000758 9  L 4.88333333333325 9  L 4.88333333333325 8.123999999999999  L 1.13333333333325 8.123999999999999  C 1.2583333333333258 7.547999999999998  1.7833333333334167 6.888000000000002  2.6916666666666815 6.155999999999999  C 3.433333333333242 5.556000000000001  3.92500000000003 5.088000000000001  4.174999999999993 4.776  C 4.633333333333288 4.175999999999998  4.8749999999999245 3.5040000000000013  4.8749999999999245 2.7600000000000016  C 4.8749999999999245 2.0159999999999982  4.649999999999939 1.404  4.233333333333273 0.9480000000000004  Z " stroke-width="0" stroke-dasharray="0" stroke="rgba(255, 255, 255, 0)" fill="none" transform="matrix(1 0 0 1 1613 19 )" class="stroke" mask="url(#Clip530)" />
  </g>
</svg>