<?xml version="1.0" encoding="utf-8"?>
<svg version="1.1" xmlns:xlink="http://www.w3.org/1999/xlink" width="14px" height="14px" xmlns="http://www.w3.org/2000/svg">
  <defs>
    <pattern id="BGPattern" patternUnits="userSpaceOnUse" alignment="0 0" imageRepeat="None" />
    <mask fill="white" id="Clip101">
      <path d="M 12.767125000000028 13.540450000000002  L 8.911000000000138 9.684499999999995  C 8.01762500000013 10.4082125  6.879250000000035 10.841687499999995  5.6393750000000225 10.841687499999995  C 2.7667500000000906 10.841687499999995  0.4375 8.512612500000008  0.4375 5.639637500000001  C 0.4375 2.7665749999999982  2.7667500000000906 0.4375  5.6393750000000225 0.4375  C 8.512874999999994 0.4375  10.842125000000085 2.7665749999999982  10.842125000000085 5.639637500000001  C 10.842125000000085 6.879162499999997  10.408124999999966 8.017449999999997  9.684499999999943 8.911087499999997  L 13.54062500000011 12.767037499999997  L 12.767125000000028 13.540450000000002  Z M 5.6393750000000225 9.747937500000006  C 7.90825000000013 9.747937500000006  9.748375000000085 7.908599999999998  9.748375000000085 5.639637500000001  C 9.748375000000085 4.852484700440253  9.526924185191172 4.117045878604074  9.142945895487648 3.4921713138478765  C 8.420066738023193 2.3157798068159066  7.121157909432994 1.53125  5.6393750000000225 1.53125  C 3.3704999999999137 1.53125  1.53125 3.370587499999999  1.53125 5.639637500000001  C 1.53125 7.908599999999998  3.3704999999999137 9.747937500000006  5.6393750000000225 9.747937500000006  Z " fill-rule="evenodd" />
    </mask>
  </defs>
  <g transform="matrix(1 0 0 1 -413 -28 )">
    <path d="M 12.767125000000028 13.540450000000002  L 8.911000000000138 9.684499999999995  C 8.01762500000013 10.4082125  6.879250000000035 10.841687499999995  5.6393750000000225 10.841687499999995  C 2.7667500000000906 10.841687499999995  0.4375 8.512612500000008  0.4375 5.639637500000001  C 0.4375 2.7665749999999982  2.7667500000000906 0.4375  5.6393750000000225 0.4375  C 8.512874999999994 0.4375  10.842125000000085 2.7665749999999982  10.842125000000085 5.639637500000001  C 10.842125000000085 6.879162499999997  10.408124999999966 8.017449999999997  9.684499999999943 8.911087499999997  L 13.54062500000011 12.767037499999997  L 12.767125000000028 13.540450000000002  Z M 5.6393750000000225 9.747937500000006  C 7.90825000000013 9.747937500000006  9.748375000000085 7.908599999999998  9.748375000000085 5.639637500000001  C 9.748375000000085 4.852484700440253  9.526924185191172 4.117045878604074  9.142945895487648 3.4921713138478765  C 8.420066738023193 2.3157798068159066  7.121157909432994 1.53125  5.6393750000000225 1.53125  C 3.3704999999999137 1.53125  1.53125 3.370587499999999  1.53125 5.639637500000001  C 1.53125 7.908599999999998  3.3704999999999137 9.747937500000006  5.6393750000000225 9.747937500000006  Z " fill-rule="nonzero" fill="rgba(0, 0, 0, 1)" stroke="none" transform="matrix(1 0 0 1 413 28 )" class="fill" />
    <path d="M 12.767125000000028 13.540450000000002  L 8.911000000000138 9.684499999999995  C 8.01762500000013 10.4082125  6.879250000000035 10.841687499999995  5.6393750000000225 10.841687499999995  C 2.7667500000000906 10.841687499999995  0.4375 8.512612500000008  0.4375 5.639637500000001  C 0.4375 2.7665749999999982  2.7667500000000906 0.4375  5.6393750000000225 0.4375  C 8.512874999999994 0.4375  10.842125000000085 2.7665749999999982  10.842125000000085 5.639637500000001  C 10.842125000000085 6.879162499999997  10.408124999999966 8.017449999999997  9.684499999999943 8.911087499999997  L 13.54062500000011 12.767037499999997  L 12.767125000000028 13.540450000000002  Z " stroke-width="0" stroke-dasharray="0" stroke="rgba(255, 255, 255, 0)" fill="none" transform="matrix(1 0 0 1 413 28 )" class="stroke" mask="url(#Clip101)" />
    <path d="M 5.6393750000000225 9.747937500000006  C 7.90825000000013 9.747937500000006  9.748375000000085 7.908599999999998  9.748375000000085 5.639637500000001  C 9.748375000000085 4.852484700440253  9.526924185191172 4.117045878604074  9.142945895487648 3.4921713138478765  C 8.420066738023193 2.3157798068159066  7.121157909432994 1.53125  5.6393750000000225 1.53125  C 3.3704999999999137 1.53125  1.53125 3.370587499999999  1.53125 5.639637500000001  C 1.53125 7.908599999999998  3.3704999999999137 9.747937500000006  5.6393750000000225 9.747937500000006  Z " stroke-width="0" stroke-dasharray="0" stroke="rgba(255, 255, 255, 0)" fill="none" transform="matrix(1 0 0 1 413 28 )" class="stroke" mask="url(#Clip101)" />
  </g>
</svg>