<?xml version="1.0" encoding="utf-8"?>
<svg version="1.1" xmlns:xlink="http://www.w3.org/1999/xlink" width="348px" height="153px" xmlns="http://www.w3.org/2000/svg">
  <defs>
    <pattern id="BGPattern" patternUnits="userSpaceOnUse" alignment="0 0" imageRepeat="None" />
    <mask fill="white" id="Clip708">
      <path d="M 347 29.47131147540985  C 347 29.47131147540985  300.15000000000003 3.135245901639346  272.96250000000003 2.5081967213114624  C 180.57474661764866 0.3773768581118958  163.125 52.672131147541  101.1375 59.56967213114754  C 39.15 66.46721311475407  1 29.47131147540985  1 29.47131147540985  L 1 118.51229508196724  C 1 118.51229508196724  43.5 157.38934426229505  101.1375 150.49180327868854  C 158.775 143.594262295082  225.11249999999998 92.1762295081967  272.96250000000003 91.54918032786885  C 320.8125 90.922131147541  347 118.51229508196724  347 118.51229508196724  L 347 29.47131147540985  Z " fill-rule="evenodd" />
    </mask>
  </defs>
  <g transform="matrix(1 0 0 1 -8 -654 )">
    <path d="M 347 29.47131147540985  C 347 29.47131147540985  300.15000000000003 3.135245901639346  272.96250000000003 2.5081967213114624  C 180.57474661764866 0.3773768581118958  163.125 52.672131147541  101.1375 59.56967213114754  C 39.15 66.46721311475407  1 29.47131147540985  1 29.47131147540985  L 1 118.51229508196724  C 1 118.51229508196724  43.5 157.38934426229505  101.1375 150.49180327868854  C 158.775 143.594262295082  225.11249999999998 92.1762295081967  272.96250000000003 91.54918032786885  C 320.8125 90.922131147541  347 118.51229508196724  347 118.51229508196724  L 347 29.47131147540985  Z " fill-rule="nonzero" fill="rgba(129, 211, 248, 0.7529411764705882)" stroke="none" transform="matrix(1 0 0 1 8 654 )" class="fill" />
    <path d="M 347 29.47131147540985  C 347 29.47131147540985  300.15000000000003 3.135245901639346  272.96250000000003 2.5081967213114624  C 180.57474661764866 0.3773768581118958  163.125 52.672131147541  101.1375 59.56967213114754  C 39.15 66.46721311475407  1 29.47131147540985  1 29.47131147540985  L 1 118.51229508196724  C 1 118.51229508196724  43.5 157.38934426229505  101.1375 150.49180327868854  C 158.775 143.594262295082  225.11249999999998 92.1762295081967  272.96250000000003 91.54918032786885  C 320.8125 90.922131147541  347 118.51229508196724  347 118.51229508196724  L 347 29.47131147540985  Z " stroke-width="2" stroke-dasharray="0" stroke="rgba(255, 255, 255, 1)" fill="none" transform="matrix(1 0 0 1 8 654 )" class="stroke" mask="url(#Clip708)" />
  </g>
</svg>