<?xml version="1.0" encoding="utf-8"?>
<svg version="1.1" xmlns:xlink="http://www.w3.org/1999/xlink" width="228px" height="228px" xmlns="http://www.w3.org/2000/svg">
  <defs>
    <pattern id="BGPattern" patternUnits="userSpaceOnUse" alignment="0 0" imageRepeat="None" />
    <mask fill="white" id="Clip709">
      <path d="M 0 114  C 0 50.16  50.16 0  114 0  C 177.84 0  228 50.16  228 114  C 228 177.84  177.84 228  114 228  C 50.16 228  0 177.84  0 114  Z " fill-rule="evenodd" />
    </mask>
  </defs>
  <g transform="matrix(1 0 0 1 -7 -14 )">
    <path d="M 0 114  C 0 50.16  50.16 0  114 0  C 177.84 0  228 50.16  228 114  C 228 177.84  177.84 228  114 228  C 50.16 228  0 177.84  0 114  Z " fill-rule="nonzero" fill="rgba(129, 211, 248, 0.9764705882352941)" stroke="none" transform="matrix(1 0 0 1 7 14 )" class="fill" />
    <path d="M 0 114  C 0 50.16  50.16 0  114 0  C 177.84 0  228 50.16  228 114  C 228 177.84  177.84 228  114 228  C 50.16 228  0 177.84  0 114  Z " stroke-width="2" stroke-dasharray="0" stroke="rgba(255, 255, 255, 1)" fill="none" transform="matrix(1 0 0 1 7 14 )" class="stroke" mask="url(#Clip709)" />
  </g>
</svg>