<?xml version="1.0" encoding="utf-8"?>
<svg version="1.1" xmlns:xlink="http://www.w3.org/1999/xlink" width="240px" height="232px" xmlns="http://www.w3.org/2000/svg">
  <defs>
    <pattern id="BGPattern" patternUnits="userSpaceOnUse" alignment="0 0" imageRepeat="None" />
    <mask fill="white" id="Clip710">
      <path d="M 0 116  C 0 51.03999999999999  52.8 0  120 0  C 187.20000000000002 0  240 51.03999999999999  240 116  C 240 180.96  187.20000000000002 232  120 232  C 52.8 232  0 180.96  0 116  Z " fill-rule="evenodd" />
    </mask>
  </defs>
  <g transform="matrix(1 0 0 1 -127 -824 )">
    <path d="M 0 116  C 0 51.03999999999999  52.8 0  120 0  C 187.20000000000002 0  240 51.03999999999999  240 116  C 240 180.96  187.20000000000002 232  120 232  C 52.8 232  0 180.96  0 116  Z " fill-rule="nonzero" fill="rgba(129, 211, 248, 0.9764705882352941)" stroke="none" transform="matrix(1 0 0 1 127 824 )" class="fill" />
    <path d="M 0 116  C 0 51.03999999999999  52.8 0  120 0  C 187.20000000000002 0  240 51.03999999999999  240 116  C 240 180.96  187.20000000000002 232  120 232  C 52.8 232  0 180.96  0 116  Z " stroke-width="2" stroke-dasharray="0" stroke="rgba(255, 255, 255, 1)" fill="none" transform="matrix(1 0 0 1 127 824 )" class="stroke" mask="url(#Clip710)" />
  </g>
</svg>