<?xml version="1.0" encoding="utf-8"?>
<svg version="1.1" xmlns:xlink="http://www.w3.org/1999/xlink" width="15px" height="18px" xmlns="http://www.w3.org/2000/svg">
  <defs>
    <pattern id="BGPattern" patternUnits="userSpaceOnUse" alignment="0 0" imageRepeat="None" />
    <mask fill="white" id="Clip100">
      <path d="M 14.994140600000037 9  C 14.994140600000037 4.029439988571442  11.860136000000011 0  7.994140620000053 0  C 4.128149750000034 0  0.9941406249999999 4.029434472857129  0.9941406249999999 9  C 0.9941406249999999 13.97056062857143  4.128145460000042 18  7.994140620000053 18  C 11.860132199999953 18  14.994140600000037 13.970565514285717  14.994140600000037 9  Z M 1.9941406200000529 9  C 1.9941406200000529 4.739515752857155  4.680434229999946 1.2857142857142856  7.994140620000053 1.2857142857142856  C 11.307850799999983 1.2857142857142856  13.994140600000037 4.73952065142856  13.994140600000037 9  C 13.994140600000037 13.260484542857146  11.307847000000038 16.714285714285715  7.994140620000053 16.714285714285715  C 4.680430409999985 16.714285714285715  1.9941406200000529 13.26048094285714  1.9941406200000529 9  Z M 8.594040869999958 13.628569499999998  C 8.594040869999958 13.202520685714283  8.325412270000015 12.857142857142858  7.994040970000015 12.857142857142858  C 7.662670140000046 12.857142857142858  7.3940410599999495 13.202520685714283  7.3940410599999495 13.628569499999998  C 7.3940410599999495 14.054617028571432  7.662670140000046 14.399997299999999  7.994040970000015 14.399997299999999  C 8.325412270000015 14.399997299999999  8.594040869999958 14.054617028571432  8.594040869999958 13.628569499999998  Z M 7.994090079999978 3.8649874757142992  C 6.656447410000055 3.8649874757142992  5.5690898899999866 5.263018881428589  5.5690898899999866 6.982845171428563  L 6.5690898899999866 6.982845171428563  C 6.5690898899999866 5.9730992357142885  7.208732130000044 5.150702070000003  7.994090079999978 5.150702070000003  C 8.779447559999994 5.150702070000003  9.41909026999997 5.9730992357142885  9.41909026999997 6.982845171428563  C 9.41909026999997 7.674234660000009  8.974601750000033 8.367528368571422  8.394450190000043 8.670554845714268  L 8.39189528999998 8.671899934285701  C 7.86234664999995 8.952884472857136  7.494140620000053 9.62244721285715  7.494140620000053 10.40464128857143  L 7.494140620000053 11.571428571428573  L 8.494140620000053 11.571428571428573  L 8.494140620000053 10.40464128857143  C 8.494140620000053 10.154926709999984  8.609449390000009 9.947973587142862  8.772361759999967 9.860924108571442  C 9.599689480000052 9.427997185714272  10.419090299999993 8.355464254285705  10.419090299999993 6.982845171428563  C 10.419090299999993 5.263018881428589  9.331732750000015 3.8649874757142992  7.994090079999978 3.8649874757142992  Z " fill-rule="evenodd" />
    </mask>
  </defs>
  <g transform="matrix(1 0 0 1 -1763 -26 )">
    <path d="M 14.994140600000037 9  C 14.994140600000037 4.029439988571442  11.860136000000011 0  7.994140620000053 0  C 4.128149750000034 0  0.9941406249999999 4.029434472857129  0.9941406249999999 9  C 0.9941406249999999 13.97056062857143  4.128145460000042 18  7.994140620000053 18  C 11.860132199999953 18  14.994140600000037 13.970565514285717  14.994140600000037 9  Z M 1.9941406200000529 9  C 1.9941406200000529 4.739515752857155  4.680434229999946 1.2857142857142856  7.994140620000053 1.2857142857142856  C 11.307850799999983 1.2857142857142856  13.994140600000037 4.73952065142856  13.994140600000037 9  C 13.994140600000037 13.260484542857146  11.307847000000038 16.714285714285715  7.994140620000053 16.714285714285715  C 4.680430409999985 16.714285714285715  1.9941406200000529 13.26048094285714  1.9941406200000529 9  Z M 8.594040869999958 13.628569499999998  C 8.594040869999958 13.202520685714283  8.325412270000015 12.857142857142858  7.994040970000015 12.857142857142858  C 7.662670140000046 12.857142857142858  7.3940410599999495 13.202520685714283  7.3940410599999495 13.628569499999998  C 7.3940410599999495 14.054617028571432  7.662670140000046 14.399997299999999  7.994040970000015 14.399997299999999  C 8.325412270000015 14.399997299999999  8.594040869999958 14.054617028571432  8.594040869999958 13.628569499999998  Z M 7.994090079999978 3.8649874757142992  C 6.656447410000055 3.8649874757142992  5.5690898899999866 5.263018881428589  5.5690898899999866 6.982845171428563  L 6.5690898899999866 6.982845171428563  C 6.5690898899999866 5.9730992357142885  7.208732130000044 5.150702070000003  7.994090079999978 5.150702070000003  C 8.779447559999994 5.150702070000003  9.41909026999997 5.9730992357142885  9.41909026999997 6.982845171428563  C 9.41909026999997 7.674234660000009  8.974601750000033 8.367528368571422  8.394450190000043 8.670554845714268  L 8.39189528999998 8.671899934285701  C 7.86234664999995 8.952884472857136  7.494140620000053 9.62244721285715  7.494140620000053 10.40464128857143  L 7.494140620000053 11.571428571428573  L 8.494140620000053 11.571428571428573  L 8.494140620000053 10.40464128857143  C 8.494140620000053 10.154926709999984  8.609449390000009 9.947973587142862  8.772361759999967 9.860924108571442  C 9.599689480000052 9.427997185714272  10.419090299999993 8.355464254285705  10.419090299999993 6.982845171428563  C 10.419090299999993 5.263018881428589  9.331732750000015 3.8649874757142992  7.994090079999978 3.8649874757142992  Z " fill-rule="nonzero" fill="rgba(0, 0, 0, 0.8980392156862745)" stroke="none" transform="matrix(1 0 0 1 1763 26 )" class="fill" />
    <path d="M 14.994140600000037 9  C 14.994140600000037 4.029439988571442  11.860136000000011 0  7.994140620000053 0  C 4.128149750000034 0  0.9941406249999999 4.029434472857129  0.9941406249999999 9  C 0.9941406249999999 13.97056062857143  4.128145460000042 18  7.994140620000053 18  C 11.860132199999953 18  14.994140600000037 13.970565514285717  14.994140600000037 9  Z " stroke-width="0" stroke-dasharray="0" stroke="rgba(255, 255, 255, 0)" fill="none" transform="matrix(1 0 0 1 1763 26 )" class="stroke" mask="url(#Clip100)" />
    <path d="M 1.9941406200000529 9  C 1.9941406200000529 4.739515752857155  4.680434229999946 1.2857142857142856  7.994140620000053 1.2857142857142856  C 11.307850799999983 1.2857142857142856  13.994140600000037 4.73952065142856  13.994140600000037 9  C 13.994140600000037 13.260484542857146  11.307847000000038 16.714285714285715  7.994140620000053 16.714285714285715  C 4.680430409999985 16.714285714285715  1.9941406200000529 13.26048094285714  1.9941406200000529 9  Z " stroke-width="0" stroke-dasharray="0" stroke="rgba(255, 255, 255, 0)" fill="none" transform="matrix(1 0 0 1 1763 26 )" class="stroke" mask="url(#Clip100)" />
    <path d="M 8.594040869999958 13.628569499999998  C 8.594040869999958 13.202520685714283  8.325412270000015 12.857142857142858  7.994040970000015 12.857142857142858  C 7.662670140000046 12.857142857142858  7.3940410599999495 13.202520685714283  7.3940410599999495 13.628569499999998  C 7.3940410599999495 14.054617028571432  7.662670140000046 14.399997299999999  7.994040970000015 14.399997299999999  C 8.325412270000015 14.399997299999999  8.594040869999958 14.054617028571432  8.594040869999958 13.628569499999998  Z " stroke-width="0" stroke-dasharray="0" stroke="rgba(255, 255, 255, 0)" fill="none" transform="matrix(1 0 0 1 1763 26 )" class="stroke" mask="url(#Clip100)" />
    <path d="M 7.994090079999978 3.8649874757142992  C 6.656447410000055 3.8649874757142992  5.5690898899999866 5.263018881428589  5.5690898899999866 6.982845171428563  L 6.5690898899999866 6.982845171428563  C 6.5690898899999866 5.9730992357142885  7.208732130000044 5.150702070000003  7.994090079999978 5.150702070000003  C 8.779447559999994 5.150702070000003  9.41909026999997 5.9730992357142885  9.41909026999997 6.982845171428563  C 9.41909026999997 7.674234660000009  8.974601750000033 8.367528368571422  8.394450190000043 8.670554845714268  L 8.39189528999998 8.671899934285701  C 7.86234664999995 8.952884472857136  7.494140620000053 9.62244721285715  7.494140620000053 10.40464128857143  L 7.494140620000053 11.571428571428573  L 8.494140620000053 11.571428571428573  L 8.494140620000053 10.40464128857143  C 8.494140620000053 10.154926709999984  8.609449390000009 9.947973587142862  8.772361759999967 9.860924108571442  C 9.599689480000052 9.427997185714272  10.419090299999993 8.355464254285705  10.419090299999993 6.982845171428563  C 10.419090299999993 5.263018881428589  9.331732750000015 3.8649874757142992  7.994090079999978 3.8649874757142992  Z " stroke-width="0" stroke-dasharray="0" stroke="rgba(255, 255, 255, 0)" fill="none" transform="matrix(1 0 0 1 1763 26 )" class="stroke" mask="url(#Clip100)" />
  </g>
</svg>