<?xml version="1.0" encoding="utf-8"?>
<svg version="1.1" xmlns:xlink="http://www.w3.org/1999/xlink" width="830px" height="79px" xmlns="http://www.w3.org/2000/svg">
  <defs>
    <pattern id="BGPattern" patternUnits="userSpaceOnUse" alignment="0 0" imageRepeat="None" />
    <mask fill="white" id="Clip443">
      <path d="M 1 0.42473118279569894  C 10.203310085106388 16.28136144086021  46.73900826950354 45.19140124731183  115.9645390070922 33.97849462365591  C 202.4964539007092 19.962365591397848  230.7517730496454 1.6989247311827957  336.709219858156 15.71505376344086  C 442.6666666666667 29.731182795698924  492.7021276595745 11.892293881720423  556.8652482269504 4.672043010752688  C 621.0283817446808 -2.5482095591397744  749.354609929078 0  830 53.09139784946236  L 830 79  L 1 79  L 1 0.42473118279569894  Z " fill-rule="evenodd" />
    </mask>
  </defs>
  <g transform="matrix(1 0 0 1 -287 -523 )">
    <path d="M 1 0.42473118279569894  C 10.203310085106388 16.28136144086021  46.73900826950354 45.19140124731183  115.9645390070922 33.97849462365591  C 202.4964539007092 19.962365591397848  230.7517730496454 1.6989247311827957  336.709219858156 15.71505376344086  C 442.6666666666667 29.731182795698924  492.7021276595745 11.892293881720423  556.8652482269504 4.672043010752688  C 621.0283817446808 -2.5482095591397744  749.354609929078 0  830 53.09139784946236  L 830 79  L 1 79  L 1 0.42473118279569894  Z " fill-rule="nonzero" fill="rgba(255, 255, 255, 0)" stroke="none" transform="matrix(1 0 0 1 287 523 )" class="fill" />
    <path d="M 1 0.42473118279569894  C 10.203310085106388 16.28136144086021  46.73900826950354 45.19140124731183  115.9645390070922 33.97849462365591  C 202.4964539007092 19.962365591397848  230.7517730496454 1.6989247311827957  336.709219858156 15.71505376344086  C 442.6666666666667 29.731182795698924  492.7021276595745 11.892293881720423  556.8652482269504 4.672043010752688  C 621.0283817446808 -2.5482095591397744  749.354609929078 0  830 53.09139784946236  L 830 79  L 1 79  L 1 0.42473118279569894  Z " stroke-width="0" stroke-dasharray="0" stroke="rgba(255, 255, 255, 0)" fill="none" transform="matrix(1 0 0 1 287 523 )" class="stroke" mask="url(#Clip443)" />
  </g>
</svg>