<?xml version="1.0" encoding="utf-8"?>
<svg version="1.1" xmlns:xlink="http://www.w3.org/1999/xlink" width="814px" height="89px" xmlns="http://www.w3.org/2000/svg">
  <defs>
    <pattern id="BGPattern" patternUnits="userSpaceOnUse" alignment="0 0" imageRepeat="None" />
    <mask fill="white" id="Clip723">
      <path d="M 1 0.478494623655914  C 10.00661977021277 18.342293268817198  45.83801533900709 50.91183178494624  113.72907801418441 38.27956989247312  C 198.59290780141842 22.489247311827956  226.3035460992908 1.913978494623656  330.21843971631205 17.704301075268816  C 434.1333333333333 33.494623655913976  483.20425531914896 13.397647537634402  546.1304964539007 5.263440860215054  C 609.0567502893616 -2.870767731182784  734.909219858156 0  814 59.81182795698924  L 814 89  L 1 89  L 1 0.478494623655914  Z " fill-rule="evenodd" />
    </mask>
  </defs>
  <g transform="matrix(1 0 0 1 -311 -587 )">
    <path d="M 1 0.478494623655914  C 10.00661977021277 18.342293268817198  45.83801533900709 50.91183178494624  113.72907801418441 38.27956989247312  C 198.59290780141842 22.489247311827956  226.3035460992908 1.913978494623656  330.21843971631205 17.704301075268816  C 434.1333333333333 33.494623655913976  483.20425531914896 13.397647537634402  546.1304964539007 5.263440860215054  C 609.0567502893616 -2.870767731182784  734.909219858156 0  814 59.81182795698924  L 814 89  L 1 89  L 1 0.478494623655914  Z " fill-rule="nonzero" fill="rgba(255, 255, 255, 0)" stroke="none" transform="matrix(1 0 0 1 311 587 )" class="fill" />
    <path d="M 1 0.478494623655914  C 10.00661977021277 18.342293268817198  45.83801533900709 50.91183178494624  113.72907801418441 38.27956989247312  C 198.59290780141842 22.489247311827956  226.3035460992908 1.913978494623656  330.21843971631205 17.704301075268816  C 434.1333333333333 33.494623655913976  483.20425531914896 13.397647537634402  546.1304964539007 5.263440860215054  C 609.0567502893616 -2.870767731182784  734.909219858156 0  814 59.81182795698924  L 814 89  L 1 89  L 1 0.478494623655914  Z " stroke-width="0" stroke-dasharray="0" stroke="rgba(255, 255, 255, 0)" fill="none" transform="matrix(1 0 0 1 311 587 )" class="stroke" mask="url(#Clip723)" />
  </g>
</svg>