<?xml version="1.0" encoding="utf-8"?>
<svg version="1.1" xmlns:xlink="http://www.w3.org/1999/xlink" width="16px" height="8px" xmlns="http://www.w3.org/2000/svg">
  <defs>
    <pattern id="BGPattern" patternUnits="userSpaceOnUse" alignment="0 0" imageRepeat="None" />
    <mask fill="white" id="Clip473">
      <path d="M 3.3938743520000116 6.354159400000015  L 0 4.232987879999996  L 2.2956705120000036 2.8393547500000125  L 5.66028633599999 4.942239760000007  L 13.591894559999991 0  L 15.839192159999993 1.404560800000013  L 7.907583616000011 6.346800300000012  L 7.919596096000009 6.354308099999997  L 7.8861908000000085 6.37458749999999  C 7.816961568000011 6.4166145000000085  7.745461071999989 6.456294899999989  7.671942895999996 6.493629900000002  L 6.772779087999993 7.053904499999987  C 6.147664256000008 7.443417899999986  5.135922624 7.442939499999994  4.511753840000006 7.05283399999999  L 3.3938743520000116 6.354159400000015  Z " fill-rule="evenodd" />
    </mask>
  </defs>
  <g transform="matrix(1 0 0 1 -30 -79 )">
    <path d="M 3.3938743520000116 6.354159400000015  L 0 4.232987879999996  L 2.2956705120000036 2.8393547500000125  L 5.66028633599999 4.942239760000007  L 13.591894559999991 0  L 15.839192159999993 1.404560800000013  L 7.907583616000011 6.346800300000012  L 7.919596096000009 6.354308099999997  L 7.8861908000000085 6.37458749999999  C 7.816961568000011 6.4166145000000085  7.745461071999989 6.456294899999989  7.671942895999996 6.493629900000002  L 6.772779087999993 7.053904499999987  C 6.147664256000008 7.443417899999986  5.135922624 7.442939499999994  4.511753840000006 7.05283399999999  L 3.3938743520000116 6.354159400000015  Z " fill-rule="nonzero" fill="rgba(255, 255, 255, 1)" stroke="none" transform="matrix(1 0 0 1 30 79 )" class="fill" />
    <path d="M 3.3938743520000116 6.354159400000015  L 0 4.232987879999996  L 2.2956705120000036 2.8393547500000125  L 5.66028633599999 4.942239760000007  L 13.591894559999991 0  L 15.839192159999993 1.404560800000013  L 7.907583616000011 6.346800300000012  L 7.919596096000009 6.354308099999997  L 7.8861908000000085 6.37458749999999  C 7.816961568000011 6.4166145000000085  7.745461071999989 6.456294899999989  7.671942895999996 6.493629900000002  L 6.772779087999993 7.053904499999987  C 6.147664256000008 7.443417899999986  5.135922624 7.442939499999994  4.511753840000006 7.05283399999999  L 3.3938743520000116 6.354159400000015  Z " stroke-width="0" stroke-dasharray="0" stroke="rgba(255, 255, 255, 0)" fill="none" transform="matrix(1 0 0 1 30 79 )" class="stroke" mask="url(#Clip473)" />
  </g>
</svg>