<?xml version="1.0" encoding="utf-8"?>
<svg version="1.1" xmlns:xlink="http://www.w3.org/1999/xlink" width="7px" height="12px" xmlns="http://www.w3.org/2000/svg">
  <defs>
    <pattern id="BGPattern" patternUnits="userSpaceOnUse" alignment="0 0" imageRepeat="None" />
    <mask fill="white" id="Clip761">
      <path d="M 5.998770531249903 5.699374491428541  L 5.999462524999842 5.700052748571401  C 6.169934513749865 5.867420091428548  6.169624693749995 6.138472679999974  5.998770531249903 6.305465639999978  L 0.87060714999987 11.317735628571398  L 0.25188869999985286 10.711644171428544  L 5.069239113749973 6.002561982857117  L 0.25188869999985286 1.2963870942856894  L 0.87060714999987 0.6902955685714005  L 5.994114113749987 5.694847697142835  L 5.998770531249903 5.699374491428541  Z " fill-rule="evenodd" />
    </mask>
  </defs>
  <g transform="matrix(1 0 0 1 -1338 -751 )">
    <path d="M 5.998770531249903 5.699374491428541  L 5.999462524999842 5.700052748571401  C 6.169934513749865 5.867420091428548  6.169624693749995 6.138472679999974  5.998770531249903 6.305465639999978  L 0.87060714999987 11.317735628571398  L 0.25188869999985286 10.711644171428544  L 5.069239113749973 6.002561982857117  L 0.25188869999985286 1.2963870942856894  L 0.87060714999987 0.6902955685714005  L 5.994114113749987 5.694847697142835  L 5.998770531249903 5.699374491428541  Z " fill-rule="nonzero" fill="rgba(0, 0, 0, 0.6)" stroke="none" transform="matrix(1 0 0 1 1338 751 )" class="fill" />
    <path d="M 5.998770531249903 5.699374491428541  L 5.999462524999842 5.700052748571401  C 6.169934513749865 5.867420091428548  6.169624693749995 6.138472679999974  5.998770531249903 6.305465639999978  L 0.87060714999987 11.317735628571398  L 0.25188869999985286 10.711644171428544  L 5.069239113749973 6.002561982857117  L 0.25188869999985286 1.2963870942856894  L 0.87060714999987 0.6902955685714005  L 5.994114113749987 5.694847697142835  L 5.998770531249903 5.699374491428541  Z " stroke-width="0" stroke-dasharray="0" stroke="rgba(255, 255, 255, 0)" fill="none" transform="matrix(1 0 0 1 1338 751 )" class="stroke" mask="url(#Clip761)" />
  </g>
</svg>