<?xml version="1.0" encoding="utf-8"?>
<svg version="1.1" xmlns:xlink="http://www.w3.org/1999/xlink" width="5px" height="10px" xmlns="http://www.w3.org/2000/svg">
  <defs>
    <pattern id="BGPattern" patternUnits="userSpaceOnUse" alignment="0 0" imageRepeat="None" />
    <mask fill="white" id="Clip756">
      <path d="M 4.284836093749931 4.749478742857117  L 4.285330374999887 4.750043957142834  C 4.407096081249904 4.889516742857124  4.406874781249996 5.115393899999978  4.284836093749931 5.254554699999981  L 0.6218622499999071 9.431446357142832  L 0.1799204999998949 8.92637014285712  L 3.6208850812499804 5.002134985714264  L 0.1799204999998949 1.080322578571408  L 0.6218622499999071 0.5752463071428338  L 4.281510081249991 4.745706414285697  L 4.284836093749931 4.749478742857117  Z " fill-rule="evenodd" />
    </mask>
  </defs>
  <g transform="matrix(1 0 0 1 -1112 -164 )">
    <path d="M 4.284836093749931 4.749478742857117  L 4.285330374999887 4.750043957142834  C 4.407096081249904 4.889516742857124  4.406874781249996 5.115393899999978  4.284836093749931 5.254554699999981  L 0.6218622499999071 9.431446357142832  L 0.1799204999998949 8.92637014285712  L 3.6208850812499804 5.002134985714264  L 0.1799204999998949 1.080322578571408  L 0.6218622499999071 0.5752463071428338  L 4.281510081249991 4.745706414285697  L 4.284836093749931 4.749478742857117  Z " fill-rule="nonzero" fill="rgba(0, 0, 0, 0.6)" stroke="none" transform="matrix(1 0 0 1 1112 164 )" class="fill" />
    <path d="M 4.284836093749931 4.749478742857117  L 4.285330374999887 4.750043957142834  C 4.407096081249904 4.889516742857124  4.406874781249996 5.115393899999978  4.284836093749931 5.254554699999981  L 0.6218622499999071 9.431446357142832  L 0.1799204999998949 8.92637014285712  L 3.6208850812499804 5.002134985714264  L 0.1799204999998949 1.080322578571408  L 0.6218622499999071 0.5752463071428338  L 4.281510081249991 4.745706414285697  L 4.284836093749931 4.749478742857117  Z " stroke-width="0" stroke-dasharray="0" stroke="rgba(255, 255, 255, 0)" fill="none" transform="matrix(1 0 0 1 1112 164 )" class="stroke" mask="url(#Clip756)" />
  </g>
</svg>