<?xml version="1.0" encoding="utf-8"?>
<svg version="1.1" xmlns:xlink="http://www.w3.org/1999/xlink" width="8px" height="6px" xmlns="http://www.w3.org/2000/svg">
  <defs>
    <pattern id="BGPattern" patternUnits="userSpaceOnUse" alignment="0 0" imageRepeat="None" />
    <mask fill="white" id="Clip500">
      <path d="M 1.6969371760000058 4.765619550000011  L 0 3.174740909999997  L 1.1478352560000018 2.1295160625000094  L 2.830143167999995 3.706679820000005  L 6.795947279999996 0  L 7.919596079999996 1.0534206000000097  L 3.9537918080000054 4.760100225000009  L 3.9597980480000046 4.765731074999998  L 3.9430954000000042 4.780940624999992  C 3.9084807840000053 4.812460875000006  3.8727305359999944 4.842221174999992  3.835971447999998 4.8702224250000015  L 3.3863895439999965 5.2904283749999905  C 3.073832128000004 5.582563424999989  2.567961312 5.582204624999996  2.255876920000003 5.2896254999999925  L 1.6969371760000058 4.765619550000011  Z " fill-rule="evenodd" />
    </mask>
  </defs>
  <g transform="matrix(1 0 0 1 -47 -204 )">
    <path d="M 1.6969371760000058 4.765619550000011  L 0 3.174740909999997  L 1.1478352560000018 2.1295160625000094  L 2.830143167999995 3.706679820000005  L 6.795947279999996 0  L 7.919596079999996 1.0534206000000097  L 3.9537918080000054 4.760100225000009  L 3.9597980480000046 4.765731074999998  L 3.9430954000000042 4.780940624999992  C 3.9084807840000053 4.812460875000006  3.8727305359999944 4.842221174999992  3.835971447999998 4.8702224250000015  L 3.3863895439999965 5.2904283749999905  C 3.073832128000004 5.582563424999989  2.567961312 5.582204624999996  2.255876920000003 5.2896254999999925  L 1.6969371760000058 4.765619550000011  Z " fill-rule="nonzero" fill="rgba(255, 255, 255, 1)" stroke="none" transform="matrix(1 0 0 1 47 204 )" class="fill" />
    <path d="M 1.6969371760000058 4.765619550000011  L 0 3.174740909999997  L 1.1478352560000018 2.1295160625000094  L 2.830143167999995 3.706679820000005  L 6.795947279999996 0  L 7.919596079999996 1.0534206000000097  L 3.9537918080000054 4.760100225000009  L 3.9597980480000046 4.765731074999998  L 3.9430954000000042 4.780940624999992  C 3.9084807840000053 4.812460875000006  3.8727305359999944 4.842221174999992  3.835971447999998 4.8702224250000015  L 3.3863895439999965 5.2904283749999905  C 3.073832128000004 5.582563424999989  2.567961312 5.582204624999996  2.255876920000003 5.2896254999999925  L 1.6969371760000058 4.765619550000011  Z " stroke-width="0" stroke-dasharray="0" stroke="rgba(255, 255, 255, 0)" fill="none" transform="matrix(1 0 0 1 47 204 )" class="stroke" mask="url(#Clip500)" />
  </g>
</svg>