<?xml version="1.0" encoding="utf-8"?>
<svg version="1.1" xmlns:xlink="http://www.w3.org/1999/xlink" width="5px" height="9px" xmlns="http://www.w3.org/2000/svg">
  <defs>
    <pattern id="BGPattern" patternUnits="userSpaceOnUse" alignment="0 0" imageRepeat="None" />
    <mask fill="white" id="Clip480">
      <path d="M 4.284836093749931 4.274530868571405  L 4.285330374999887 4.27503956142855  C 4.407096081249904 4.400565068571411  4.406874781249996 4.60385450999998  4.284836093749931 4.729099229999983  L 0.6218622499999071 8.488301721428549  L 0.1799204999998949 8.033733128571408  L 3.6208850812499804 4.5019214871428375  L 0.1799204999998949 0.972290320714267  L 0.6218622499999071 0.5177216764285504  L 4.281510081249991 4.271135772857127  L 4.284836093749931 4.274530868571405  Z " fill-rule="evenodd" />
    </mask>
  </defs>
  <g transform="matrix(1 0 0 1 -709 -151 )">
    <path d="M 4.284836093749931 4.274530868571405  L 4.285330374999887 4.27503956142855  C 4.407096081249904 4.400565068571411  4.406874781249996 4.60385450999998  4.284836093749931 4.729099229999983  L 0.6218622499999071 8.488301721428549  L 0.1799204999998949 8.033733128571408  L 3.6208850812499804 4.5019214871428375  L 0.1799204999998949 0.972290320714267  L 0.6218622499999071 0.5177216764285504  L 4.281510081249991 4.271135772857127  L 4.284836093749931 4.274530868571405  Z " fill-rule="nonzero" fill="rgba(0, 0, 0, 0.6)" stroke="none" transform="matrix(1 0 0 1 709 151 )" class="fill" />
    <path d="M 4.284836093749931 4.274530868571405  L 4.285330374999887 4.27503956142855  C 4.407096081249904 4.400565068571411  4.406874781249996 4.60385450999998  4.284836093749931 4.729099229999983  L 0.6218622499999071 8.488301721428549  L 0.1799204999998949 8.033733128571408  L 3.6208850812499804 4.5019214871428375  L 0.1799204999998949 0.972290320714267  L 0.6218622499999071 0.5177216764285504  L 4.281510081249991 4.271135772857127  L 4.284836093749931 4.274530868571405  Z " stroke-width="0" stroke-dasharray="0" stroke="rgba(255, 255, 255, 0)" fill="none" transform="matrix(1 0 0 1 709 151 )" class="stroke" mask="url(#Clip480)" />
  </g>
</svg>