<?xml version="1.0" encoding="utf-8"?>
<svg version="1.1" xmlns:xlink="http://www.w3.org/1999/xlink" width="9px" height="6px" xmlns="http://www.w3.org/2000/svg">
  <defs>
    <pattern id="BGPattern" patternUnits="userSpaceOnUse" alignment="0 0" imageRepeat="None" />
    <mask fill="white" id="Clip772">
      <path d="M 1.9090543230000065 4.765619550000011  L 0 3.174740909999997  L 1.291314663000002 2.1295160625000094  L 3.1839110639999944 3.706679820000005  L 7.645440689999995 0  L 8.909545589999995 1.0534206000000097  L 4.448015784000006 4.760100225000009  L 4.454772804000005 4.765731074999998  L 4.435982325000005 4.780940624999992  C 4.397040882000006 4.812460875000006  4.356821852999993 4.842221174999992  4.315467878999997 4.8702224250000015  L 3.809688236999996 5.2904283749999905  C 3.458061144000004 5.582563424999989  2.888956476 5.582204624999996  2.5378615350000033 5.2896254999999925  L 1.9090543230000065 4.765619550000011  Z " fill-rule="evenodd" />
    </mask>
  </defs>
  <g transform="matrix(1 0 0 1 -52 -221 )">
    <path d="M 1.9090543230000065 4.765619550000011  L 0 3.174740909999997  L 1.291314663000002 2.1295160625000094  L 3.1839110639999944 3.706679820000005  L 7.645440689999995 0  L 8.909545589999995 1.0534206000000097  L 4.448015784000006 4.760100225000009  L 4.454772804000005 4.765731074999998  L 4.435982325000005 4.780940624999992  C 4.397040882000006 4.812460875000006  4.356821852999993 4.842221174999992  4.315467878999997 4.8702224250000015  L 3.809688236999996 5.2904283749999905  C 3.458061144000004 5.582563424999989  2.888956476 5.582204624999996  2.5378615350000033 5.2896254999999925  L 1.9090543230000065 4.765619550000011  Z " fill-rule="nonzero" fill="rgba(255, 255, 255, 1)" stroke="none" transform="matrix(1 0 0 1 52 221 )" class="fill" />
    <path d="M 1.9090543230000065 4.765619550000011  L 0 3.174740909999997  L 1.291314663000002 2.1295160625000094  L 3.1839110639999944 3.706679820000005  L 7.645440689999995 0  L 8.909545589999995 1.0534206000000097  L 4.448015784000006 4.760100225000009  L 4.454772804000005 4.765731074999998  L 4.435982325000005 4.780940624999992  C 4.397040882000006 4.812460875000006  4.356821852999993 4.842221174999992  4.315467878999997 4.8702224250000015  L 3.809688236999996 5.2904283749999905  C 3.458061144000004 5.582563424999989  2.888956476 5.582204624999996  2.5378615350000033 5.2896254999999925  L 1.9090543230000065 4.765619550000011  Z " stroke-width="0" stroke-dasharray="0" stroke="rgba(255, 255, 255, 0)" fill="none" transform="matrix(1 0 0 1 52 221 )" class="stroke" mask="url(#Clip772)" />
  </g>
</svg>